<svg width="545.8" height="56" viewBox="0 0 545.8 56" xmlns="http://www.w3.org/2000/svg"><g id="svgGroup" stroke-linecap="round" fill-rule="evenodd" font-size="9pt" stroke="#000" stroke-width="0.25mm" fill="#000" style="stroke:#000;stroke-width:0.25mm;fill:#000"><path d="M 285.4 24 L 288.4 24 L 301.4 24 Q 301.147 25.013 301.054 26.345 A 23.85 23.85 0 0 0 301 28 Q 301 29.294 301.127 30.398 A 13.936 13.936 0 0 0 301.4 32 Q 301.147 33.013 301.054 34.345 A 23.85 23.85 0 0 0 301 36 Q 301 37.294 301.127 38.398 A 13.936 13.936 0 0 0 301.4 40 Q 301.147 41.013 301.054 42.345 A 23.85 23.85 0 0 0 301 44 Q 301 45.294 301.127 46.398 A 13.936 13.936 0 0 0 301.4 48 Q 301.147 49.013 301.054 50.345 A 23.85 23.85 0 0 0 301 52 Q 301 53.294 301.127 54.398 A 13.936 13.936 0 0 0 301.4 56 L 309.4 56 A 12.311 12.311 0 0 0 309.507 55.496 Q 309.8 53.968 309.8 52 A 25.306 25.306 0 0 0 309.774 50.833 Q 309.698 49.194 309.4 48 A 12.311 12.311 0 0 0 309.507 47.496 Q 309.8 45.968 309.8 44 A 25.306 25.306 0 0 0 309.774 42.833 Q 309.698 41.194 309.4 40 A 12.311 12.311 0 0 0 309.507 39.496 Q 309.8 37.968 309.8 36 A 25.306 25.306 0 0 0 309.774 34.833 Q 309.698 33.194 309.4 32 A 12.311 12.311 0 0 0 309.507 31.496 Q 309.8 29.968 309.8 28 A 25.306 25.306 0 0 0 309.774 26.833 Q 309.698 25.194 309.4 24 L 304.4 24 A 12.311 12.311 0 0 0 304.507 23.496 Q 304.8 21.968 304.8 20 A 25.306 25.306 0 0 0 304.774 18.833 Q 304.698 17.194 304.4 16 L 288.4 16 Q 288.147 17.013 288.054 18.345 A 23.85 23.85 0 0 0 288 20 Q 288 21.294 288.127 22.398 A 13.936 13.936 0 0 0 288.4 24 A 11.741 11.741 0 0 1 288.644 25.313 Q 288.737 26.018 288.774 26.833 A 25.306 25.306 0 0 1 288.8 28 Q 288.8 29.968 288.507 31.496 A 12.311 12.311 0 0 1 288.4 32 L 285.4 32 A 11.741 11.741 0 0 1 285.644 33.313 Q 285.737 34.018 285.774 34.833 A 25.306 25.306 0 0 1 285.8 36 Q 285.8 37.968 285.507 39.496 A 12.311 12.311 0 0 1 285.4 40 A 11.741 11.741 0 0 1 285.644 41.313 Q 285.737 42.018 285.774 42.833 A 25.306 25.306 0 0 1 285.8 44 Q 285.8 45.968 285.507 47.496 A 12.311 12.311 0 0 1 285.4 48 A 11.741 11.741 0 0 1 285.644 49.313 Q 285.737 50.018 285.774 50.833 A 25.306 25.306 0 0 1 285.8 52 Q 285.8 53.968 285.507 55.496 A 12.311 12.311 0 0 1 285.4 56 L 277.4 56 A 13.936 13.936 0 0 1 277.127 54.398 Q 277 53.294 277 52 A 23.85 23.85 0 0 1 277.054 50.345 Q 277.147 49.013 277.4 48 A 13.936 13.936 0 0 1 277.127 46.398 Q 277 45.294 277 44 A 23.85 23.85 0 0 1 277.054 42.345 Q 277.147 41.013 277.4 40 A 13.936 13.936 0 0 1 277.127 38.398 Q 277 37.294 277 36 A 23.85 23.85 0 0 1 277.054 34.345 Q 277.147 33.013 277.4 32 A 13.936 13.936 0 0 1 277.127 30.398 Q 277 29.294 277 28 A 23.85 23.85 0 0 1 277.054 26.345 Q 277.147 25.013 277.4 24 A 13.936 13.936 0 0 1 277.127 22.398 Q 277 21.294 277 20 A 23.85 23.85 0 0 1 277.054 18.345 Q 277.147 17.013 277.4 16 A 13.936 13.936 0 0 1 277.127 14.398 Q 277 13.294 277 12 A 23.85 23.85 0 0 1 277.054 10.345 Q 277.147 9.013 277.4 8 A 13.936 13.936 0 0 1 277.127 6.398 Q 277 5.294 277 4 A 23.85 23.85 0 0 1 277.054 2.345 Q 277.147 1.013 277.4 0 L 285.4 0 A 11.741 11.741 0 0 1 285.644 1.313 Q 285.737 2.018 285.774 2.833 A 25.306 25.306 0 0 1 285.8 4 Q 285.8 5.968 285.507 7.496 A 12.311 12.311 0 0 1 285.4 8 A 11.741 11.741 0 0 1 285.644 9.313 Q 285.737 10.018 285.774 10.833 A 25.306 25.306 0 0 1 285.8 12 Q 285.8 13.968 285.507 15.496 A 12.311 12.311 0 0 1 285.4 16 A 11.741 11.741 0 0 1 285.644 17.313 Q 285.737 18.018 285.774 18.833 A 25.306 25.306 0 0 1 285.8 20 Q 285.8 21.968 285.507 23.496 A 12.311 12.311 0 0 1 285.4 24 Z M 425.4 32 L 409.4 32 Q 409.698 33.194 409.774 34.833 A 25.306 25.306 0 0 1 409.8 36 Q 409.8 37.968 409.507 39.496 A 12.311 12.311 0 0 1 409.4 40 Q 409.698 41.194 409.774 42.833 A 25.306 25.306 0 0 1 409.8 44 Q 409.8 45.968 409.507 47.496 A 12.311 12.311 0 0 1 409.4 48 Q 409.698 49.194 409.774 50.833 A 25.306 25.306 0 0 1 409.8 52 Q 409.8 53.968 409.507 55.496 A 12.311 12.311 0 0 1 409.4 56 L 401.4 56 A 13.936 13.936 0 0 1 401.127 54.398 Q 401 53.294 401 52 A 23.85 23.85 0 0 1 401.054 50.345 Q 401.147 49.013 401.4 48 A 13.936 13.936 0 0 1 401.127 46.398 Q 401 45.294 401 44 A 23.85 23.85 0 0 1 401.054 42.345 Q 401.147 41.013 401.4 40 A 13.936 13.936 0 0 1 401.127 38.398 Q 401 37.294 401 36 A 23.85 23.85 0 0 1 401.054 34.345 Q 401.147 33.013 401.4 32 A 13.936 13.936 0 0 1 401.127 30.398 Q 401 29.294 401 28 A 23.85 23.85 0 0 1 401.054 26.345 Q 401.147 25.013 401.4 24 A 13.936 13.936 0 0 1 401.127 22.398 Q 401 21.294 401 20 A 23.85 23.85 0 0 1 401.054 18.345 Q 401.147 17.013 401.4 16 A 13.936 13.936 0 0 1 401.127 14.398 Q 401 13.294 401 12 A 23.85 23.85 0 0 1 401.054 10.345 Q 401.147 9.013 401.4 8 A 13.936 13.936 0 0 1 401.127 6.398 Q 401 5.294 401 4 A 23.85 23.85 0 0 1 401.054 2.345 Q 401.147 1.013 401.4 0 L 425.4 0 A 11.741 11.741 0 0 1 425.644 1.313 Q 425.737 2.018 425.774 2.833 A 25.306 25.306 0 0 1 425.8 4 Q 425.8 5.968 425.507 7.496 A 12.311 12.311 0 0 1 425.4 8 L 409.4 8 Q 409.698 9.194 409.774 10.833 A 25.306 25.306 0 0 1 409.8 12 Q 409.8 13.968 409.507 15.496 A 12.311 12.311 0 0 1 409.4 16 Q 409.698 17.194 409.774 18.833 A 25.306 25.306 0 0 1 409.8 20 Q 409.8 21.968 409.507 23.496 A 12.311 12.311 0 0 1 409.4 24 L 425.4 24 A 11.741 11.741 0 0 1 425.644 25.313 Q 425.737 26.018 425.774 26.833 A 25.306 25.306 0 0 1 425.8 28 Q 425.8 29.968 425.507 31.496 A 12.311 12.311 0 0 1 425.4 32 Z M 349.4 40 L 328.4 40 A 11.741 11.741 0 0 1 328.644 41.313 Q 328.737 42.018 328.774 42.833 A 25.306 25.306 0 0 1 328.8 44 Q 328.8 45.968 328.507 47.496 A 12.311 12.311 0 0 1 328.4 48 L 345.4 48 A 11.741 11.741 0 0 1 345.644 49.313 Q 345.737 50.018 345.774 50.833 A 25.306 25.306 0 0 1 345.8 52 Q 345.8 53.968 345.507 55.496 A 12.311 12.311 0 0 1 345.4 56 L 325.4 56 A 13.936 13.936 0 0 1 325.127 54.398 Q 325 53.294 325 52 A 23.85 23.85 0 0 1 325.054 50.345 Q 325.147 49.013 325.4 48 L 320.4 48 A 13.936 13.936 0 0 1 320.127 46.398 Q 320 45.294 320 44 A 23.85 23.85 0 0 1 320.054 42.345 Q 320.147 41.013 320.4 40 L 317.4 40 A 13.936 13.936 0 0 1 317.127 38.398 Q 317 37.294 317 36 A 23.85 23.85 0 0 1 317.054 34.345 Q 317.147 33.013 317.4 32 L 320.4 32 A 13.936 13.936 0 0 1 320.127 30.398 Q 320 29.294 320 28 A 23.85 23.85 0 0 1 320.054 26.345 Q 320.147 25.013 320.4 24 L 325.4 24 A 13.936 13.936 0 0 1 325.127 22.398 Q 325 21.294 325 20 A 23.85 23.85 0 0 1 325.054 18.345 Q 325.147 17.013 325.4 16 L 345.4 16 A 11.741 11.741 0 0 1 345.644 17.313 Q 345.737 18.018 345.774 18.833 A 25.306 25.306 0 0 1 345.8 20 Q 345.8 21.968 345.507 23.496 A 12.311 12.311 0 0 1 345.4 24 L 349.4 24 Q 349.698 25.194 349.774 26.833 A 25.306 25.306 0 0 1 349.8 28 Q 349.8 29.968 349.507 31.496 A 12.311 12.311 0 0 1 349.4 32 Q 349.698 33.194 349.774 34.833 A 25.306 25.306 0 0 1 349.8 36 Q 349.8 37.968 349.507 39.496 A 12.311 12.311 0 0 1 349.4 40 Z M 269.4 8 L 257.4 8 Q 257.698 9.194 257.774 10.833 A 25.306 25.306 0 0 1 257.8 12 Q 257.8 13.968 257.507 15.496 A 12.311 12.311 0 0 1 257.4 16 Q 257.698 17.194 257.774 18.833 A 25.306 25.306 0 0 1 257.8 20 Q 257.8 21.968 257.507 23.496 A 12.311 12.311 0 0 1 257.4 24 Q 257.698 25.194 257.774 26.833 A 25.306 25.306 0 0 1 257.8 28 Q 257.8 29.968 257.507 31.496 A 12.311 12.311 0 0 1 257.4 32 Q 257.698 33.194 257.774 34.833 A 25.306 25.306 0 0 1 257.8 36 Q 257.8 37.968 257.507 39.496 A 12.311 12.311 0 0 1 257.4 40 Q 257.698 41.194 257.774 42.833 A 25.306 25.306 0 0 1 257.8 44 Q 257.8 45.968 257.507 47.496 A 12.311 12.311 0 0 1 257.4 48 Q 257.698 49.194 257.774 50.833 A 25.306 25.306 0 0 1 257.8 52 Q 257.8 53.968 257.507 55.496 A 12.311 12.311 0 0 1 257.4 56 L 249.4 56 A 13.936 13.936 0 0 1 249.127 54.398 Q 249 53.294 249 52 A 23.85 23.85 0 0 1 249.054 50.345 Q 249.147 49.013 249.4 48 A 13.936 13.936 0 0 1 249.127 46.398 Q 249 45.294 249 44 A 23.85 23.85 0 0 1 249.054 42.345 Q 249.147 41.013 249.4 40 A 13.936 13.936 0 0 1 249.127 38.398 Q 249 37.294 249 36 A 23.85 23.85 0 0 1 249.054 34.345 Q 249.147 33.013 249.4 32 A 13.936 13.936 0 0 1 249.127 30.398 Q 249 29.294 249 28 A 23.85 23.85 0 0 1 249.054 26.345 Q 249.147 25.013 249.4 24 A 13.936 13.936 0 0 1 249.127 22.398 Q 249 21.294 249 20 A 23.85 23.85 0 0 1 249.054 18.345 Q 249.147 17.013 249.4 16 A 13.936 13.936 0 0 1 249.127 14.398 Q 249 13.294 249 12 A 23.85 23.85 0 0 1 249.054 10.345 Q 249.147 9.013 249.4 8 L 237.4 8 A 13.936 13.936 0 0 1 237.127 6.398 Q 237 5.294 237 4 A 23.85 23.85 0 0 1 237.054 2.345 Q 237.147 1.013 237.4 0 L 269.4 0 Q 269.698 1.194 269.774 2.833 A 25.306 25.306 0 0 1 269.8 4 Q 269.8 5.968 269.507 7.496 A 12.311 12.311 0 0 1 269.4 8 Z M 545.4 56 L 521.4 56 A 13.936 13.936 0 0 1 521.127 54.398 Q 521 53.294 521 52 A 23.85 23.85 0 0 1 521.054 50.345 Q 521.147 49.013 521.4 48 L 529.4 48 A 13.936 13.936 0 0 1 529.127 46.398 Q 529 45.294 529 44 A 23.85 23.85 0 0 1 529.054 42.345 Q 529.147 41.013 529.4 40 A 13.936 13.936 0 0 1 529.127 38.398 Q 529 37.294 529 36 A 23.85 23.85 0 0 1 529.054 34.345 Q 529.147 33.013 529.4 32 A 13.936 13.936 0 0 1 529.127 30.398 Q 529 29.294 529 28 A 23.85 23.85 0 0 1 529.054 26.345 Q 529.147 25.013 529.4 24 A 13.936 13.936 0 0 1 529.127 22.398 Q 529 21.294 529 20 A 23.85 23.85 0 0 1 529.054 18.345 Q 529.147 17.013 529.4 16 A 13.936 13.936 0 0 1 529.127 14.398 Q 529 13.294 529 12 A 23.85 23.85 0 0 1 529.054 10.345 Q 529.147 9.013 529.4 8 L 523.4 8 A 13.936 13.936 0 0 1 523.127 6.398 Q 523 5.294 523 4 A 23.85 23.85 0 0 1 523.054 2.345 Q 523.147 1.013 523.4 0 L 537.4 0 Q 537.698 1.194 537.774 2.833 A 25.306 25.306 0 0 1 537.8 4 Q 537.8 5.968 537.507 7.496 A 12.311 12.311 0 0 1 537.4 8 Q 537.698 9.194 537.774 10.833 A 25.306 25.306 0 0 1 537.8 12 Q 537.8 13.968 537.507 15.496 A 12.311 12.311 0 0 1 537.4 16 Q 537.698 17.194 537.774 18.833 A 25.306 25.306 0 0 1 537.8 20 Q 537.8 21.968 537.507 23.496 A 12.311 12.311 0 0 1 537.4 24 Q 537.698 25.194 537.774 26.833 A 25.306 25.306 0 0 1 537.8 28 Q 537.8 29.968 537.507 31.496 A 12.311 12.311 0 0 1 537.4 32 Q 537.698 33.194 537.774 34.833 A 25.306 25.306 0 0 1 537.8 36 Q 537.8 37.968 537.507 39.496 A 12.311 12.311 0 0 1 537.4 40 Q 537.698 41.194 537.774 42.833 A 25.306 25.306 0 0 1 537.8 44 Q 537.8 45.968 537.507 47.496 A 12.311 12.311 0 0 1 537.4 48 L 545.4 48 A 11.741 11.741 0 0 1 545.644 49.313 Q 545.737 50.018 545.774 50.833 A 25.306 25.306 0 0 1 545.8 52 Q 545.8 53.968 545.507 55.496 A 12.311 12.311 0 0 1 545.4 56 Z M 469.4 40 L 466.4 40 A 11.741 11.741 0 0 1 466.644 41.313 Q 466.737 42.018 466.774 42.833 A 25.306 25.306 0 0 1 466.8 44 Q 466.8 45.968 466.507 47.496 A 12.311 12.311 0 0 1 466.4 48 L 461.4 48 Q 461.698 49.194 461.774 50.833 A 25.306 25.306 0 0 1 461.8 52 Q 461.8 53.968 461.507 55.496 A 12.311 12.311 0 0 1 461.4 56 L 445.4 56 A 13.936 13.936 0 0 1 445.127 54.398 Q 445 53.294 445 52 A 23.85 23.85 0 0 1 445.054 50.345 Q 445.147 49.013 445.4 48 L 440.4 48 A 13.936 13.936 0 0 1 440.127 46.398 Q 440 45.294 440 44 A 23.85 23.85 0 0 1 440.054 42.345 Q 440.147 41.013 440.4 40 L 437.4 40 A 13.936 13.936 0 0 1 437.127 38.398 Q 437 37.294 437 36 A 23.85 23.85 0 0 1 437.054 34.345 Q 437.147 33.013 437.4 32 L 440.4 32 A 13.936 13.936 0 0 1 440.127 30.398 Q 440 29.294 440 28 A 23.85 23.85 0 0 1 440.054 26.345 Q 440.147 25.013 440.4 24 L 445.4 24 A 13.936 13.936 0 0 1 445.127 22.398 Q 445 21.294 445 20 A 23.85 23.85 0 0 1 445.054 18.345 Q 445.147 17.013 445.4 16 L 461.4 16 Q 461.698 17.194 461.774 18.833 A 25.306 25.306 0 0 1 461.8 20 Q 461.8 21.968 461.507 23.496 A 12.311 12.311 0 0 1 461.4 24 L 466.4 24 A 11.741 11.741 0 0 1 466.644 25.313 Q 466.737 26.018 466.774 26.833 A 25.306 25.306 0 0 1 466.8 28 Q 466.8 29.968 466.507 31.496 A 12.311 12.311 0 0 1 466.4 32 L 469.4 32 Q 469.698 33.194 469.774 34.833 A 25.306 25.306 0 0 1 469.8 36 Q 469.8 37.968 469.507 39.496 A 12.311 12.311 0 0 1 469.4 40 Z M 509.4 40 L 506.4 40 A 11.741 11.741 0 0 1 506.644 41.313 Q 506.737 42.018 506.774 42.833 A 25.306 25.306 0 0 1 506.8 44 Q 506.8 45.968 506.507 47.496 A 12.311 12.311 0 0 1 506.4 48 L 501.4 48 Q 501.698 49.194 501.774 50.833 A 25.306 25.306 0 0 1 501.8 52 Q 501.8 53.968 501.507 55.496 A 12.311 12.311 0 0 1 501.4 56 L 485.4 56 A 13.936 13.936 0 0 1 485.127 54.398 Q 485 53.294 485 52 A 23.85 23.85 0 0 1 485.054 50.345 Q 485.147 49.013 485.4 48 L 480.4 48 A 13.936 13.936 0 0 1 480.127 46.398 Q 480 45.294 480 44 A 23.85 23.85 0 0 1 480.054 42.345 Q 480.147 41.013 480.4 40 L 477.4 40 A 13.936 13.936 0 0 1 477.127 38.398 Q 477 37.294 477 36 A 23.85 23.85 0 0 1 477.054 34.345 Q 477.147 33.013 477.4 32 L 480.4 32 A 13.936 13.936 0 0 1 480.127 30.398 Q 480 29.294 480 28 A 23.85 23.85 0 0 1 480.054 26.345 Q 480.147 25.013 480.4 24 L 485.4 24 A 13.936 13.936 0 0 1 485.127 22.398 Q 485 21.294 485 20 A 23.85 23.85 0 0 1 485.054 18.345 Q 485.147 17.013 485.4 16 L 501.4 16 Q 501.698 17.194 501.774 18.833 A 25.306 25.306 0 0 1 501.8 20 Q 501.8 21.968 501.507 23.496 A 12.311 12.311 0 0 1 501.4 24 L 506.4 24 A 11.741 11.741 0 0 1 506.644 25.313 Q 506.737 26.018 506.774 26.833 A 25.306 25.306 0 0 1 506.8 28 Q 506.8 29.968 506.507 31.496 A 12.311 12.311 0 0 1 506.4 32 L 509.4 32 Q 509.698 33.194 509.774 34.833 A 25.306 25.306 0 0 1 509.8 36 Q 509.8 37.968 509.507 39.496 A 12.311 12.311 0 0 1 509.4 40 Z M 18.4 8 L 8.4 8 L 3.4 8 Q 3.147 9.013 3.054 10.345 A 23.85 23.85 0 0 0 3 12 Q 3 13.294 3.127 14.398 A 13.936 13.936 0 0 0 3.4 16 L 0.4 16 Q 0.147 17.013 0.054 18.345 A 23.85 23.85 0 0 0 0 20 Q 0 21.294 0.127 22.398 A 13.936 13.936 0 0 0 0.4 24 Q 0.147 25.013 0.054 26.345 A 23.85 23.85 0 0 0 0 28 Q 0 29.294 0.127 30.398 A 13.936 13.936 0 0 0 0.4 32 Q 0.147 33.013 0.054 34.345 A 23.85 23.85 0 0 0 0 36 Q 0 37.294 0.127 38.398 A 13.936 13.936 0 0 0 0.4 40 L 3.4 40 Q 3.147 41.013 3.054 42.345 A 23.85 23.85 0 0 0 3 44 Q 3 45.294 3.127 46.398 A 13.936 13.936 0 0 0 3.4 48 L 8.4 48 L 18.4 48 L 23.4 48 A 12.311 12.311 0 0 0 23.507 47.496 Q 23.8 45.968 23.8 44 A 25.306 25.306 0 0 0 23.774 42.833 Q 23.698 41.194 23.4 40 L 26.4 40 A 12.311 12.311 0 0 0 26.507 39.496 Q 26.8 37.968 26.8 36 A 25.306 25.306 0 0 0 26.774 34.833 Q 26.737 34.018 26.644 33.313 A 11.741 11.741 0 0 0 26.4 32 A 12.311 12.311 0 0 0 26.507 31.496 Q 26.8 29.968 26.8 28 A 25.306 25.306 0 0 0 26.774 26.833 Q 26.737 26.018 26.644 25.313 A 11.741 11.741 0 0 0 26.4 24 A 12.311 12.311 0 0 0 26.507 23.496 Q 26.8 21.968 26.8 20 A 25.306 25.306 0 0 0 26.774 18.833 Q 26.737 18.018 26.644 17.313 A 11.741 11.741 0 0 0 26.4 16 L 23.4 16 A 12.311 12.311 0 0 0 23.507 15.496 Q 23.8 13.968 23.8 12 A 25.306 25.306 0 0 0 23.774 10.833 Q 23.698 9.194 23.4 8 L 18.4 8 Z M 58.4 8 L 48.4 8 L 43.4 8 Q 43.147 9.013 43.054 10.345 A 23.85 23.85 0 0 0 43 12 Q 43 13.294 43.127 14.398 A 13.936 13.936 0 0 0 43.4 16 L 40.4 16 Q 40.147 17.013 40.054 18.345 A 23.85 23.85 0 0 0 40 20 Q 40 21.294 40.127 22.398 A 13.936 13.936 0 0 0 40.4 24 Q 40.147 25.013 40.054 26.345 A 23.85 23.85 0 0 0 40 28 Q 40 29.294 40.127 30.398 A 13.936 13.936 0 0 0 40.4 32 Q 40.147 33.013 40.054 34.345 A 23.85 23.85 0 0 0 40 36 Q 40 37.294 40.127 38.398 A 13.936 13.936 0 0 0 40.4 40 L 43.4 40 Q 43.147 41.013 43.054 42.345 A 23.85 23.85 0 0 0 43 44 Q 43 45.294 43.127 46.398 A 13.936 13.936 0 0 0 43.4 48 L 48.4 48 L 58.4 48 L 63.4 48 A 12.311 12.311 0 0 0 63.507 47.496 Q 63.8 45.968 63.8 44 A 25.306 25.306 0 0 0 63.774 42.833 Q 63.698 41.194 63.4 40 L 66.4 40 A 12.311 12.311 0 0 0 66.507 39.496 Q 66.8 37.968 66.8 36 A 25.306 25.306 0 0 0 66.774 34.833 Q 66.737 34.018 66.644 33.313 A 11.741 11.741 0 0 0 66.4 32 A 12.311 12.311 0 0 0 66.507 31.496 Q 66.8 29.968 66.8 28 A 25.306 25.306 0 0 0 66.774 26.833 Q 66.737 26.018 66.644 25.313 A 11.741 11.741 0 0 0 66.4 24 A 12.311 12.311 0 0 0 66.507 23.496 Q 66.8 21.968 66.8 20 A 25.306 25.306 0 0 0 66.774 18.833 Q 66.737 18.018 66.644 17.313 A 11.741 11.741 0 0 0 66.4 16 L 63.4 16 A 12.311 12.311 0 0 0 63.507 15.496 Q 63.8 13.968 63.8 12 A 25.306 25.306 0 0 0 63.774 10.833 Q 63.698 9.194 63.4 8 L 58.4 8 Z M 98.4 8 L 88.4 8 L 83.4 8 Q 83.147 9.013 83.054 10.345 A 23.85 23.85 0 0 0 83 12 Q 83 13.294 83.127 14.398 A 13.936 13.936 0 0 0 83.4 16 L 80.4 16 Q 80.147 17.013 80.054 18.345 A 23.85 23.85 0 0 0 80 20 Q 80 21.294 80.127 22.398 A 13.936 13.936 0 0 0 80.4 24 Q 80.147 25.013 80.054 26.345 A 23.85 23.85 0 0 0 80 28 Q 80 29.294 80.127 30.398 A 13.936 13.936 0 0 0 80.4 32 Q 80.147 33.013 80.054 34.345 A 23.85 23.85 0 0 0 80 36 Q 80 37.294 80.127 38.398 A 13.936 13.936 0 0 0 80.4 40 L 83.4 40 Q 83.147 41.013 83.054 42.345 A 23.85 23.85 0 0 0 83 44 Q 83 45.294 83.127 46.398 A 13.936 13.936 0 0 0 83.4 48 L 88.4 48 L 98.4 48 L 103.4 48 A 12.311 12.311 0 0 0 103.507 47.496 Q 103.8 45.968 103.8 44 A 25.306 25.306 0 0 0 103.774 42.833 Q 103.698 41.194 103.4 40 L 106.4 40 A 12.311 12.311 0 0 0 106.507 39.496 Q 106.8 37.968 106.8 36 A 25.306 25.306 0 0 0 106.774 34.833 Q 106.737 34.018 106.644 33.313 A 11.741 11.741 0 0 0 106.4 32 A 12.311 12.311 0 0 0 106.507 31.496 Q 106.8 29.968 106.8 28 A 25.306 25.306 0 0 0 106.774 26.833 Q 106.737 26.018 106.644 25.313 A 11.741 11.741 0 0 0 106.4 24 A 12.311 12.311 0 0 0 106.507 23.496 Q 106.8 21.968 106.8 20 A 25.306 25.306 0 0 0 106.774 18.833 Q 106.737 18.018 106.644 17.313 A 11.741 11.741 0 0 0 106.4 16 L 103.4 16 A 12.311 12.311 0 0 0 103.507 15.496 Q 103.8 13.968 103.8 12 A 25.306 25.306 0 0 0 103.774 10.833 Q 103.698 9.194 103.4 8 L 98.4 8 Z M 458.4 40 L 461.4 40 A 13.936 13.936 0 0 1 461.127 38.398 Q 461 37.294 461 36 A 23.85 23.85 0 0 1 461.054 34.345 Q 461.147 33.013 461.4 32 L 458.4 32 A 13.936 13.936 0 0 1 458.127 30.398 Q 458 29.294 458 28 A 23.85 23.85 0 0 1 458.054 26.345 Q 458.147 25.013 458.4 24 L 448.4 24 A 11.741 11.741 0 0 1 448.644 25.313 Q 448.737 26.018 448.774 26.833 A 25.306 25.306 0 0 1 448.8 28 Q 448.8 29.968 448.507 31.496 A 12.311 12.311 0 0 1 448.4 32 L 445.4 32 A 11.741 11.741 0 0 1 445.644 33.313 Q 445.737 34.018 445.774 34.833 A 25.306 25.306 0 0 1 445.8 36 Q 445.8 37.968 445.507 39.496 A 12.311 12.311 0 0 1 445.4 40 L 448.4 40 A 11.741 11.741 0 0 1 448.644 41.313 Q 448.737 42.018 448.774 42.833 A 25.306 25.306 0 0 1 448.8 44 Q 448.8 45.968 448.507 47.496 A 12.311 12.311 0 0 1 448.4 48 L 458.4 48 A 13.936 13.936 0 0 1 458.127 46.398 Q 458 45.294 458 44 A 23.85 23.85 0 0 1 458.054 42.345 Q 458.147 41.013 458.4 40 Z M 498.4 40 L 501.4 40 A 13.936 13.936 0 0 1 501.127 38.398 Q 501 37.294 501 36 A 23.85 23.85 0 0 1 501.054 34.345 Q 501.147 33.013 501.4 32 L 498.4 32 A 13.936 13.936 0 0 1 498.127 30.398 Q 498 29.294 498 28 A 23.85 23.85 0 0 1 498.054 26.345 Q 498.147 25.013 498.4 24 L 488.4 24 A 11.741 11.741 0 0 1 488.644 25.313 Q 488.737 26.018 488.774 26.833 A 25.306 25.306 0 0 1 488.8 28 Q 488.8 29.968 488.507 31.496 A 12.311 12.311 0 0 1 488.4 32 L 485.4 32 A 11.741 11.741 0 0 1 485.644 33.313 Q 485.737 34.018 485.774 34.833 A 25.306 25.306 0 0 1 485.8 36 Q 485.8 37.968 485.507 39.496 A 12.311 12.311 0 0 1 485.4 40 L 488.4 40 A 11.741 11.741 0 0 1 488.644 41.313 Q 488.737 42.018 488.774 42.833 A 25.306 25.306 0 0 1 488.8 44 Q 488.8 45.968 488.507 47.496 A 12.311 12.311 0 0 1 488.4 48 L 498.4 48 A 13.936 13.936 0 0 1 498.127 46.398 Q 498 45.294 498 44 A 23.85 23.85 0 0 1 498.054 42.345 Q 498.147 41.013 498.4 40 Z M 18.4 8 A 12.311 12.311 0 0 0 18.507 7.496 Q 18.8 5.968 18.8 4 A 25.306 25.306 0 0 0 18.774 2.833 Q 18.698 1.194 18.4 0 L 8.4 0 Q 8.147 1.013 8.054 2.345 A 23.85 23.85 0 0 0 8 4 Q 8 5.294 8.127 6.398 A 13.936 13.936 0 0 0 8.4 8 A 11.741 11.741 0 0 1 8.644 9.313 Q 8.737 10.018 8.774 10.833 A 25.306 25.306 0 0 1 8.8 12 Q 8.8 13.968 8.507 15.496 A 12.311 12.311 0 0 1 8.4 16 A 11.741 11.741 0 0 1 8.644 17.313 Q 8.737 18.018 8.774 18.833 A 25.306 25.306 0 0 1 8.8 20 Q 8.8 21.968 8.507 23.496 A 12.311 12.311 0 0 1 8.4 24 A 11.741 11.741 0 0 1 8.644 25.313 Q 8.737 26.018 8.774 26.833 A 25.306 25.306 0 0 1 8.8 28 Q 8.8 29.968 8.507 31.496 A 12.311 12.311 0 0 1 8.4 32 A 11.741 11.741 0 0 1 8.644 33.313 Q 8.737 34.018 8.774 34.833 A 25.306 25.306 0 0 1 8.8 36 Q 8.8 37.968 8.507 39.496 A 12.311 12.311 0 0 1 8.4 40 A 11.741 11.741 0 0 1 8.644 41.313 Q 8.737 42.018 8.774 42.833 A 25.306 25.306 0 0 1 8.8 44 Q 8.8 45.968 8.507 47.496 A 12.311 12.311 0 0 1 8.4 48 M 58.4 8 A 12.311 12.311 0 0 0 58.507 7.496 Q 58.8 5.968 58.8 4 A 25.306 25.306 0 0 0 58.774 2.833 Q 58.698 1.194 58.4 0 L 48.4 0 Q 48.147 1.013 48.054 2.345 A 23.85 23.85 0 0 0 48 4 Q 48 5.294 48.127 6.398 A 13.936 13.936 0 0 0 48.4 8 A 11.741 11.741 0 0 1 48.644 9.313 Q 48.737 10.018 48.774 10.833 A 25.306 25.306 0 0 1 48.8 12 Q 48.8 13.968 48.507 15.496 A 12.311 12.311 0 0 1 48.4 16 A 11.741 11.741 0 0 1 48.644 17.313 Q 48.737 18.018 48.774 18.833 A 25.306 25.306 0 0 1 48.8 20 Q 48.8 21.968 48.507 23.496 A 12.311 12.311 0 0 1 48.4 24 A 11.741 11.741 0 0 1 48.644 25.313 Q 48.737 26.018 48.774 26.833 A 25.306 25.306 0 0 1 48.8 28 Q 48.8 29.968 48.507 31.496 A 12.311 12.311 0 0 1 48.4 32 A 11.741 11.741 0 0 1 48.644 33.313 Q 48.737 34.018 48.774 34.833 A 25.306 25.306 0 0 1 48.8 36 Q 48.8 37.968 48.507 39.496 A 12.311 12.311 0 0 1 48.4 40 A 11.741 11.741 0 0 1 48.644 41.313 Q 48.737 42.018 48.774 42.833 A 25.306 25.306 0 0 1 48.8 44 Q 48.8 45.968 48.507 47.496 A 12.311 12.311 0 0 1 48.4 48 M 98.4 8 A 12.311 12.311 0 0 0 98.507 7.496 Q 98.8 5.968 98.8 4 A 25.306 25.306 0 0 0 98.774 2.833 Q 98.698 1.194 98.4 0 L 88.4 0 Q 88.147 1.013 88.054 2.345 A 23.85 23.85 0 0 0 88 4 Q 88 5.294 88.127 6.398 A 13.936 13.936 0 0 0 88.4 8 A 11.741 11.741 0 0 1 88.644 9.313 Q 88.737 10.018 88.774 10.833 A 25.306 25.306 0 0 1 88.8 12 Q 88.8 13.968 88.507 15.496 A 12.311 12.311 0 0 1 88.4 16 A 11.741 11.741 0 0 1 88.644 17.313 Q 88.737 18.018 88.774 18.833 A 25.306 25.306 0 0 1 88.8 20 Q 88.8 21.968 88.507 23.496 A 12.311 12.311 0 0 1 88.4 24 A 11.741 11.741 0 0 1 88.644 25.313 Q 88.737 26.018 88.774 26.833 A 25.306 25.306 0 0 1 88.8 28 Q 88.8 29.968 88.507 31.496 A 12.311 12.311 0 0 1 88.4 32 A 11.741 11.741 0 0 1 88.644 33.313 Q 88.737 34.018 88.774 34.833 A 25.306 25.306 0 0 1 88.8 36 Q 88.8 37.968 88.507 39.496 A 12.311 12.311 0 0 1 88.4 40 A 11.741 11.741 0 0 1 88.644 41.313 Q 88.737 42.018 88.774 42.833 A 25.306 25.306 0 0 1 88.8 44 Q 88.8 45.968 88.507 47.496 A 12.311 12.311 0 0 1 88.4 48 M 163.4 24 L 183.4 24 Q 183.698 25.194 183.774 26.833 A 25.306 25.306 0 0 1 183.8 28 Q 183.8 29.968 183.507 31.496 A 12.311 12.311 0 0 1 183.4 32 L 163.4 32 A 13.936 13.936 0 0 1 163.127 30.398 Q 163 29.294 163 28 A 23.85 23.85 0 0 1 163.054 26.345 Q 163.147 25.013 163.4 24 Z M 341.4 24 L 328.4 24 A 11.741 11.741 0 0 1 328.644 25.313 Q 328.737 26.018 328.774 26.833 A 25.306 25.306 0 0 1 328.8 28 Q 328.8 29.968 328.507 31.496 A 12.311 12.311 0 0 1 328.4 32 L 341.4 32 A 13.936 13.936 0 0 1 341.127 30.398 Q 341 29.294 341 28 A 23.85 23.85 0 0 1 341.054 26.345 Q 341.147 25.013 341.4 24 Z M 18.4 48 A 13.936 13.936 0 0 1 18.127 46.398 Q 18 45.294 18 44 A 23.85 23.85 0 0 1 18.054 42.345 Q 18.147 41.013 18.4 40 A 13.936 13.936 0 0 1 18.127 38.398 Q 18 37.294 18 36 A 23.85 23.85 0 0 1 18.054 34.345 Q 18.147 33.013 18.4 32 A 13.936 13.936 0 0 1 18.127 30.398 Q 18 29.294 18 28 A 23.85 23.85 0 0 1 18.054 26.345 Q 18.147 25.013 18.4 24 A 13.936 13.936 0 0 1 18.127 22.398 Q 18 21.294 18 20 A 23.85 23.85 0 0 1 18.054 18.345 Q 18.147 17.013 18.4 16 A 13.936 13.936 0 0 1 18.127 14.398 Q 18 13.294 18 12 A 23.85 23.85 0 0 1 18.054 10.345 Q 18.147 9.013 18.4 8 M 58.4 48 A 13.936 13.936 0 0 1 58.127 46.398 Q 58 45.294 58 44 A 23.85 23.85 0 0 1 58.054 42.345 Q 58.147 41.013 58.4 40 A 13.936 13.936 0 0 1 58.127 38.398 Q 58 37.294 58 36 A 23.85 23.85 0 0 1 58.054 34.345 Q 58.147 33.013 58.4 32 A 13.936 13.936 0 0 1 58.127 30.398 Q 58 29.294 58 28 A 23.85 23.85 0 0 1 58.054 26.345 Q 58.147 25.013 58.4 24 A 13.936 13.936 0 0 1 58.127 22.398 Q 58 21.294 58 20 A 23.85 23.85 0 0 1 58.054 18.345 Q 58.147 17.013 58.4 16 A 13.936 13.936 0 0 1 58.127 14.398 Q 58 13.294 58 12 A 23.85 23.85 0 0 1 58.054 10.345 Q 58.147 9.013 58.4 8 M 98.4 48 A 13.936 13.936 0 0 1 98.127 46.398 Q 98 45.294 98 44 A 23.85 23.85 0 0 1 98.054 42.345 Q 98.147 41.013 98.4 40 A 13.936 13.936 0 0 1 98.127 38.398 Q 98 37.294 98 36 A 23.85 23.85 0 0 1 98.054 34.345 Q 98.147 33.013 98.4 32 A 13.936 13.936 0 0 1 98.127 30.398 Q 98 29.294 98 28 A 23.85 23.85 0 0 1 98.054 26.345 Q 98.147 25.013 98.4 24 A 13.936 13.936 0 0 1 98.127 22.398 Q 98 21.294 98 20 A 23.85 23.85 0 0 1 98.054 18.345 Q 98.147 17.013 98.4 16 A 13.936 13.936 0 0 1 98.127 14.398 Q 98 13.294 98 12 A 23.85 23.85 0 0 1 98.054 10.345 Q 98.147 9.013 98.4 8 M 18.4 48 Q 18.698 49.194 18.774 50.833 A 25.306 25.306 0 0 1 18.8 52 Q 18.8 53.968 18.507 55.496 A 12.311 12.311 0 0 1 18.4 56 L 8.4 56 A 13.936 13.936 0 0 1 8.127 54.398 Q 8 53.294 8 52 A 23.85 23.85 0 0 1 8.054 50.345 Q 8.147 49.013 8.4 48 M 58.4 48 Q 58.698 49.194 58.774 50.833 A 25.306 25.306 0 0 1 58.8 52 Q 58.8 53.968 58.507 55.496 A 12.311 12.311 0 0 1 58.4 56 L 48.4 56 A 13.936 13.936 0 0 1 48.127 54.398 Q 48 53.294 48 52 A 23.85 23.85 0 0 1 48.054 50.345 Q 48.147 49.013 48.4 48 M 98.4 48 Q 98.698 49.194 98.774 50.833 A 25.306 25.306 0 0 1 98.8 52 Q 98.8 53.968 98.507 55.496 A 12.311 12.311 0 0 1 98.4 56 L 88.4 56 A 13.936 13.936 0 0 1 88.127 54.398 Q 88 53.294 88 52 A 23.85 23.85 0 0 1 88.054 50.345 Q 88.147 49.013 88.4 48" vector-effect="non-scaling-stroke"/></g></svg>