<svg width="709.8" height="72" viewBox="0 0 709.8 72" xmlns="http://www.w3.org/2000/svg"><g id="svgGroup" stroke-linecap="round" fill-rule="evenodd" font-size="9pt" stroke="#000" stroke-width="0.25mm" fill="#000" style="stroke:#000;stroke-width:0.25mm;fill:#000"><path d="M 429.4 56 L 421.4 56 A 13.936 13.936 0 0 1 421.127 54.398 Q 421 53.294 421 52 A 23.85 23.85 0 0 1 421.054 50.345 Q 421.147 49.013 421.4 48 A 13.936 13.936 0 0 1 421.127 46.398 Q 421 45.294 421 44 A 23.85 23.85 0 0 1 421.054 42.345 Q 421.147 41.013 421.4 40 A 13.936 13.936 0 0 1 421.127 38.398 Q 421 37.294 421 36 A 23.85 23.85 0 0 1 421.054 34.345 Q 421.147 33.013 421.4 32 A 13.936 13.936 0 0 1 421.127 30.398 Q 421 29.294 421 28 A 23.85 23.85 0 0 1 421.054 26.345 Q 421.147 25.013 421.4 24 A 13.936 13.936 0 0 1 421.127 22.398 Q 421 21.294 421 20 A 23.85 23.85 0 0 1 421.054 18.345 Q 421.147 17.013 421.4 16 L 418.4 16 Q 418.698 17.194 418.774 18.833 A 25.306 25.306 0 0 1 418.8 20 Q 418.8 21.968 418.507 23.496 A 12.311 12.311 0 0 1 418.4 24 Q 418.698 25.194 418.774 26.833 A 25.306 25.306 0 0 1 418.8 28 Q 418.8 29.968 418.507 31.496 A 12.311 12.311 0 0 1 418.4 32 L 416.4 32 Q 416.698 33.194 416.774 34.833 A 25.306 25.306 0 0 1 416.8 36 Q 416.8 37.968 416.507 39.496 A 12.311 12.311 0 0 1 416.4 40 Q 416.698 41.194 416.774 42.833 A 25.306 25.306 0 0 1 416.8 44 Q 416.8 45.968 416.507 47.496 A 12.311 12.311 0 0 1 416.4 48 L 410.4 48 A 13.936 13.936 0 0 1 410.127 46.398 Q 410 45.294 410 44 A 23.85 23.85 0 0 1 410.054 42.345 Q 410.147 41.013 410.4 40 A 13.936 13.936 0 0 1 410.127 38.398 Q 410 37.294 410 36 A 23.85 23.85 0 0 1 410.054 34.345 Q 410.147 33.013 410.4 32 L 408.4 32 A 13.936 13.936 0 0 1 408.127 30.398 Q 408 29.294 408 28 A 23.85 23.85 0 0 1 408.054 26.345 Q 408.147 25.013 408.4 24 A 13.936 13.936 0 0 1 408.127 22.398 Q 408 21.294 408 20 A 23.85 23.85 0 0 1 408.054 18.345 Q 408.147 17.013 408.4 16 L 405.4 16 A 11.741 11.741 0 0 1 405.644 17.313 Q 405.737 18.018 405.774 18.833 A 25.306 25.306 0 0 1 405.8 20 Q 405.8 21.968 405.507 23.496 A 12.311 12.311 0 0 1 405.4 24 A 11.741 11.741 0 0 1 405.644 25.313 Q 405.737 26.018 405.774 26.833 A 25.306 25.306 0 0 1 405.8 28 Q 405.8 29.968 405.507 31.496 A 12.311 12.311 0 0 1 405.4 32 A 11.741 11.741 0 0 1 405.644 33.313 Q 405.737 34.018 405.774 34.833 A 25.306 25.306 0 0 1 405.8 36 Q 405.8 37.968 405.507 39.496 A 12.311 12.311 0 0 1 405.4 40 A 11.741 11.741 0 0 1 405.644 41.313 Q 405.737 42.018 405.774 42.833 A 25.306 25.306 0 0 1 405.8 44 Q 405.8 45.968 405.507 47.496 A 12.311 12.311 0 0 1 405.4 48 A 11.741 11.741 0 0 1 405.644 49.313 Q 405.737 50.018 405.774 50.833 A 25.306 25.306 0 0 1 405.8 52 Q 405.8 53.968 405.507 55.496 A 12.311 12.311 0 0 1 405.4 56 L 397.4 56 A 13.936 13.936 0 0 1 397.127 54.398 Q 397 53.294 397 52 A 23.85 23.85 0 0 1 397.054 50.345 Q 397.147 49.013 397.4 48 A 13.936 13.936 0 0 1 397.127 46.398 Q 397 45.294 397 44 A 23.85 23.85 0 0 1 397.054 42.345 Q 397.147 41.013 397.4 40 A 13.936 13.936 0 0 1 397.127 38.398 Q 397 37.294 397 36 A 23.85 23.85 0 0 1 397.054 34.345 Q 397.147 33.013 397.4 32 A 13.936 13.936 0 0 1 397.127 30.398 Q 397 29.294 397 28 A 23.85 23.85 0 0 1 397.054 26.345 Q 397.147 25.013 397.4 24 A 13.936 13.936 0 0 1 397.127 22.398 Q 397 21.294 397 20 A 23.85 23.85 0 0 1 397.054 18.345 Q 397.147 17.013 397.4 16 A 13.936 13.936 0 0 1 397.127 14.398 Q 397 13.294 397 12 A 23.85 23.85 0 0 1 397.054 10.345 Q 397.147 9.013 397.4 8 A 13.936 13.936 0 0 1 397.127 6.398 Q 397 5.294 397 4 A 23.85 23.85 0 0 1 397.054 2.345 Q 397.147 1.013 397.4 0 L 407.4 0 A 11.741 11.741 0 0 1 407.644 1.313 Q 407.737 2.018 407.774 2.833 A 25.306 25.306 0 0 1 407.8 4 Q 407.8 5.968 407.507 7.496 A 12.311 12.311 0 0 1 407.4 8 L 410.4 8 A 11.741 11.741 0 0 1 410.644 9.313 Q 410.737 10.018 410.774 10.833 A 25.306 25.306 0 0 1 410.8 12 Q 410.8 13.968 410.507 15.496 A 12.311 12.311 0 0 1 410.4 16 L 411.9 16 Q 412.198 17.194 412.274 18.833 A 25.306 25.306 0 0 1 412.3 20 Q 412.3 21.968 412.007 23.496 A 12.311 12.311 0 0 1 411.9 24 L 414.9 24 A 13.936 13.936 0 0 1 414.627 22.398 Q 414.5 21.294 414.5 20 A 23.85 23.85 0 0 1 414.554 18.345 Q 414.647 17.013 414.9 16 L 416.4 16 A 13.936 13.936 0 0 1 416.127 14.398 Q 416 13.294 416 12 A 23.85 23.85 0 0 1 416.054 10.345 Q 416.147 9.013 416.4 8 L 419.4 8 A 13.936 13.936 0 0 1 419.127 6.398 Q 419 5.294 419 4 A 23.85 23.85 0 0 1 419.054 2.345 Q 419.147 1.013 419.4 0 L 429.4 0 Q 429.698 1.194 429.774 2.833 A 25.306 25.306 0 0 1 429.8 4 Q 429.8 5.968 429.507 7.496 A 12.311 12.311 0 0 1 429.4 8 Q 429.698 9.194 429.774 10.833 A 25.306 25.306 0 0 1 429.8 12 Q 429.8 13.968 429.507 15.496 A 12.311 12.311 0 0 1 429.4 16 Q 429.698 17.194 429.774 18.833 A 25.306 25.306 0 0 1 429.8 20 Q 429.8 21.968 429.507 23.496 A 12.311 12.311 0 0 1 429.4 24 Q 429.698 25.194 429.774 26.833 A 25.306 25.306 0 0 1 429.8 28 Q 429.8 29.968 429.507 31.496 A 12.311 12.311 0 0 1 429.4 32 Q 429.698 33.194 429.774 34.833 A 25.306 25.306 0 0 1 429.8 36 Q 429.8 37.968 429.507 39.496 A 12.311 12.311 0 0 1 429.4 40 Q 429.698 41.194 429.774 42.833 A 25.306 25.306 0 0 1 429.8 44 Q 429.8 45.968 429.507 47.496 A 12.311 12.311 0 0 1 429.4 48 Q 429.698 49.194 429.774 50.833 A 25.306 25.306 0 0 1 429.8 52 Q 429.8 53.968 429.507 55.496 A 12.311 12.311 0 0 1 429.4 56 Z M 497.4 48 A 13.936 13.936 0 0 1 497.127 46.398 Q 497 45.294 497 44 A 23.85 23.85 0 0 1 497.054 42.345 Q 497.147 41.013 497.4 40 L 501.4 40 A 13.936 13.936 0 0 1 501.127 38.398 Q 501 37.294 501 36 A 23.85 23.85 0 0 1 501.054 34.345 Q 501.147 33.013 501.4 32 A 13.936 13.936 0 0 1 501.127 30.398 Q 501 29.294 501 28 A 23.85 23.85 0 0 1 501.054 26.345 Q 501.147 25.013 501.4 24 L 488.4 24 A 11.741 11.741 0 0 1 488.644 25.313 Q 488.737 26.018 488.774 26.833 A 25.306 25.306 0 0 1 488.8 28 Q 488.8 29.968 488.507 31.496 A 12.311 12.311 0 0 1 488.4 32 L 485.4 32 A 11.741 11.741 0 0 1 485.644 33.313 Q 485.737 34.018 485.774 34.833 A 25.306 25.306 0 0 1 485.8 36 Q 485.8 37.968 485.507 39.496 A 12.311 12.311 0 0 1 485.4 40 L 488.4 40 A 11.741 11.741 0 0 1 488.644 41.313 Q 488.737 42.018 488.774 42.833 A 25.306 25.306 0 0 1 488.8 44 Q 488.8 45.968 488.507 47.496 A 12.311 12.311 0 0 1 488.4 48 L 497.4 48 L 501.4 48 Q 501.147 49.013 501.054 50.345 A 23.85 23.85 0 0 0 501 52 Q 501 53.294 501.127 54.398 A 13.936 13.936 0 0 0 501.4 56 L 497.4 56 Q 497.147 57.013 497.054 58.345 A 23.85 23.85 0 0 0 497 60 Q 497 61.294 497.127 62.398 A 13.936 13.936 0 0 0 497.4 64 L 485.4 64 Q 485.147 65.013 485.054 66.345 A 23.85 23.85 0 0 0 485 68 Q 485 69.294 485.127 70.398 A 13.936 13.936 0 0 0 485.4 72 L 501.4 72 A 12.311 12.311 0 0 0 501.507 71.496 Q 501.8 69.968 501.8 68 A 25.306 25.306 0 0 0 501.774 66.833 Q 501.698 65.194 501.4 64 L 505.4 64 A 12.311 12.311 0 0 0 505.507 63.496 Q 505.8 61.968 505.8 60 A 25.306 25.306 0 0 0 505.774 58.833 Q 505.737 58.018 505.644 57.313 A 11.741 11.741 0 0 0 505.4 56 L 509.4 56 A 12.311 12.311 0 0 0 509.507 55.496 Q 509.8 53.968 509.8 52 A 25.306 25.306 0 0 0 509.774 50.833 Q 509.698 49.194 509.4 48 A 12.311 12.311 0 0 0 509.507 47.496 Q 509.8 45.968 509.8 44 A 25.306 25.306 0 0 0 509.774 42.833 Q 509.698 41.194 509.4 40 A 12.311 12.311 0 0 0 509.507 39.496 Q 509.8 37.968 509.8 36 A 25.306 25.306 0 0 0 509.774 34.833 Q 509.698 33.194 509.4 32 A 12.311 12.311 0 0 0 509.507 31.496 Q 509.8 29.968 509.8 28 A 25.306 25.306 0 0 0 509.774 26.833 Q 509.698 25.194 509.4 24 A 12.311 12.311 0 0 0 509.507 23.496 Q 509.8 21.968 509.8 20 A 25.306 25.306 0 0 0 509.774 18.833 Q 509.698 17.194 509.4 16 L 485.4 16 Q 485.147 17.013 485.054 18.345 A 23.85 23.85 0 0 0 485 20 Q 485 21.294 485.127 22.398 A 13.936 13.936 0 0 0 485.4 24 L 480.4 24 Q 480.147 25.013 480.054 26.345 A 23.85 23.85 0 0 0 480 28 Q 480 29.294 480.127 30.398 A 13.936 13.936 0 0 0 480.4 32 L 477.4 32 Q 477.147 33.013 477.054 34.345 A 23.85 23.85 0 0 0 477 36 Q 477 37.294 477.127 38.398 A 13.936 13.936 0 0 0 477.4 40 L 480.4 40 Q 480.147 41.013 480.054 42.345 A 23.85 23.85 0 0 0 480 44 Q 480 45.294 480.127 46.398 A 13.936 13.936 0 0 0 480.4 48 L 485.4 48 Q 485.147 49.013 485.054 50.345 A 23.85 23.85 0 0 0 485 52 Q 485 53.294 485.127 54.398 A 13.936 13.936 0 0 0 485.4 56 L 497.4 56 Q 497.147 57.013 497.054 58.345 M 285.4 24 L 288.4 24 L 301.4 24 Q 301.147 25.013 301.054 26.345 A 23.85 23.85 0 0 0 301 28 Q 301 29.294 301.127 30.398 A 13.936 13.936 0 0 0 301.4 32 Q 301.147 33.013 301.054 34.345 A 23.85 23.85 0 0 0 301 36 Q 301 37.294 301.127 38.398 A 13.936 13.936 0 0 0 301.4 40 Q 301.147 41.013 301.054 42.345 A 23.85 23.85 0 0 0 301 44 Q 301 45.294 301.127 46.398 A 13.936 13.936 0 0 0 301.4 48 Q 301.147 49.013 301.054 50.345 A 23.85 23.85 0 0 0 301 52 Q 301 53.294 301.127 54.398 A 13.936 13.936 0 0 0 301.4 56 L 309.4 56 A 12.311 12.311 0 0 0 309.507 55.496 Q 309.8 53.968 309.8 52 A 25.306 25.306 0 0 0 309.774 50.833 Q 309.698 49.194 309.4 48 A 12.311 12.311 0 0 0 309.507 47.496 Q 309.8 45.968 309.8 44 A 25.306 25.306 0 0 0 309.774 42.833 Q 309.698 41.194 309.4 40 A 12.311 12.311 0 0 0 309.507 39.496 Q 309.8 37.968 309.8 36 A 25.306 25.306 0 0 0 309.774 34.833 Q 309.698 33.194 309.4 32 A 12.311 12.311 0 0 0 309.507 31.496 Q 309.8 29.968 309.8 28 A 25.306 25.306 0 0 0 309.774 26.833 Q 309.698 25.194 309.4 24 L 304.4 24 A 12.311 12.311 0 0 0 304.507 23.496 Q 304.8 21.968 304.8 20 A 25.306 25.306 0 0 0 304.774 18.833 Q 304.698 17.194 304.4 16 L 288.4 16 Q 288.147 17.013 288.054 18.345 A 23.85 23.85 0 0 0 288 20 Q 288 21.294 288.127 22.398 A 13.936 13.936 0 0 0 288.4 24 A 11.741 11.741 0 0 1 288.644 25.313 Q 288.737 26.018 288.774 26.833 A 25.306 25.306 0 0 1 288.8 28 Q 288.8 29.968 288.507 31.496 A 12.311 12.311 0 0 1 288.4 32 L 285.4 32 A 11.741 11.741 0 0 1 285.644 33.313 Q 285.737 34.018 285.774 34.833 A 25.306 25.306 0 0 1 285.8 36 Q 285.8 37.968 285.507 39.496 A 12.311 12.311 0 0 1 285.4 40 A 11.741 11.741 0 0 1 285.644 41.313 Q 285.737 42.018 285.774 42.833 A 25.306 25.306 0 0 1 285.8 44 Q 285.8 45.968 285.507 47.496 A 12.311 12.311 0 0 1 285.4 48 A 11.741 11.741 0 0 1 285.644 49.313 Q 285.737 50.018 285.774 50.833 A 25.306 25.306 0 0 1 285.8 52 Q 285.8 53.968 285.507 55.496 A 12.311 12.311 0 0 1 285.4 56 L 277.4 56 A 13.936 13.936 0 0 1 277.127 54.398 Q 277 53.294 277 52 A 23.85 23.85 0 0 1 277.054 50.345 Q 277.147 49.013 277.4 48 A 13.936 13.936 0 0 1 277.127 46.398 Q 277 45.294 277 44 A 23.85 23.85 0 0 1 277.054 42.345 Q 277.147 41.013 277.4 40 A 13.936 13.936 0 0 1 277.127 38.398 Q 277 37.294 277 36 A 23.85 23.85 0 0 1 277.054 34.345 Q 277.147 33.013 277.4 32 A 13.936 13.936 0 0 1 277.127 30.398 Q 277 29.294 277 28 A 23.85 23.85 0 0 1 277.054 26.345 Q 277.147 25.013 277.4 24 A 13.936 13.936 0 0 1 277.127 22.398 Q 277 21.294 277 20 A 23.85 23.85 0 0 1 277.054 18.345 Q 277.147 17.013 277.4 16 A 13.936 13.936 0 0 1 277.127 14.398 Q 277 13.294 277 12 A 23.85 23.85 0 0 1 277.054 10.345 Q 277.147 9.013 277.4 8 A 13.936 13.936 0 0 1 277.127 6.398 Q 277 5.294 277 4 A 23.85 23.85 0 0 1 277.054 2.345 Q 277.147 1.013 277.4 0 L 285.4 0 A 11.741 11.741 0 0 1 285.644 1.313 Q 285.737 2.018 285.774 2.833 A 25.306 25.306 0 0 1 285.8 4 Q 285.8 5.968 285.507 7.496 A 12.311 12.311 0 0 1 285.4 8 A 11.741 11.741 0 0 1 285.644 9.313 Q 285.737 10.018 285.774 10.833 A 25.306 25.306 0 0 1 285.8 12 Q 285.8 13.968 285.507 15.496 A 12.311 12.311 0 0 1 285.4 16 A 11.741 11.741 0 0 1 285.644 17.313 Q 285.737 18.018 285.774 18.833 A 25.306 25.306 0 0 1 285.8 20 Q 285.8 21.968 285.507 23.496 A 12.311 12.311 0 0 1 285.4 24 Z M 457.4 48 A 13.936 13.936 0 0 1 457.127 46.398 Q 457 45.294 457 44 A 23.85 23.85 0 0 1 457.054 42.345 Q 457.147 41.013 457.4 40 L 445.4 40 A 11.741 11.741 0 0 1 445.644 41.313 Q 445.737 42.018 445.774 42.833 A 25.306 25.306 0 0 1 445.8 44 Q 445.8 45.968 445.507 47.496 A 12.311 12.311 0 0 1 445.4 48 L 457.4 48 L 461.4 48 Q 461.147 49.013 461.054 50.345 A 23.85 23.85 0 0 0 461 52 Q 461 53.294 461.127 54.398 A 13.936 13.936 0 0 0 461.4 56 L 469.4 56 A 12.311 12.311 0 0 0 469.507 55.496 Q 469.8 53.968 469.8 52 A 25.306 25.306 0 0 0 469.774 50.833 Q 469.698 49.194 469.4 48 L 465.4 48 A 12.311 12.311 0 0 0 465.507 47.496 Q 465.8 45.968 465.8 44 A 25.306 25.306 0 0 0 465.774 42.833 Q 465.737 42.018 465.644 41.313 A 11.741 11.741 0 0 0 465.4 40 A 12.311 12.311 0 0 0 465.507 39.496 Q 465.8 37.968 465.8 36 A 25.306 25.306 0 0 0 465.774 34.833 Q 465.737 34.018 465.644 33.313 A 11.741 11.741 0 0 0 465.4 32 A 12.311 12.311 0 0 0 465.507 31.496 Q 465.8 29.968 465.8 28 A 25.306 25.306 0 0 0 465.774 26.833 Q 465.737 26.018 465.644 25.313 A 11.741 11.741 0 0 0 465.4 24 L 461.4 24 A 12.311 12.311 0 0 0 461.507 23.496 Q 461.8 21.968 461.8 20 A 25.306 25.306 0 0 0 461.774 18.833 Q 461.698 17.194 461.4 16 L 443.4 16 Q 443.147 17.013 443.054 18.345 A 23.85 23.85 0 0 0 443 20 Q 443 21.294 443.127 22.398 A 13.936 13.936 0 0 0 443.4 24 L 457.4 24 Q 457.147 25.013 457.054 26.345 A 23.85 23.85 0 0 0 457 28 Q 457 29.294 457.127 30.398 A 13.936 13.936 0 0 0 457.4 32 L 441.4 32 Q 441.147 33.013 441.054 34.345 A 23.85 23.85 0 0 0 441 36 Q 441 37.294 441.127 38.398 A 13.936 13.936 0 0 0 441.4 40 L 437.4 40 Q 437.147 41.013 437.054 42.345 A 23.85 23.85 0 0 0 437 44 Q 437 45.294 437.127 46.398 A 13.936 13.936 0 0 0 437.4 48 L 441.4 48 Q 441.147 49.013 441.054 50.345 A 23.85 23.85 0 0 0 441 52 Q 441 53.294 441.127 54.398 A 13.936 13.936 0 0 0 441.4 56 L 457.4 56 A 12.311 12.311 0 0 0 457.507 55.496 Q 457.8 53.968 457.8 52 A 25.306 25.306 0 0 0 457.774 50.833 Q 457.698 49.194 457.4 48 Z M 657.4 48 A 13.936 13.936 0 0 1 657.127 46.398 Q 657 45.294 657 44 A 23.85 23.85 0 0 1 657.054 42.345 Q 657.147 41.013 657.4 40 L 645.4 40 A 11.741 11.741 0 0 1 645.644 41.313 Q 645.737 42.018 645.774 42.833 A 25.306 25.306 0 0 1 645.8 44 Q 645.8 45.968 645.507 47.496 A 12.311 12.311 0 0 1 645.4 48 L 657.4 48 L 661.4 48 Q 661.147 49.013 661.054 50.345 A 23.85 23.85 0 0 0 661 52 Q 661 53.294 661.127 54.398 A 13.936 13.936 0 0 0 661.4 56 L 669.4 56 A 12.311 12.311 0 0 0 669.507 55.496 Q 669.8 53.968 669.8 52 A 25.306 25.306 0 0 0 669.774 50.833 Q 669.698 49.194 669.4 48 L 665.4 48 A 12.311 12.311 0 0 0 665.507 47.496 Q 665.8 45.968 665.8 44 A 25.306 25.306 0 0 0 665.774 42.833 Q 665.737 42.018 665.644 41.313 A 11.741 11.741 0 0 0 665.4 40 A 12.311 12.311 0 0 0 665.507 39.496 Q 665.8 37.968 665.8 36 A 25.306 25.306 0 0 0 665.774 34.833 Q 665.737 34.018 665.644 33.313 A 11.741 11.741 0 0 0 665.4 32 A 12.311 12.311 0 0 0 665.507 31.496 Q 665.8 29.968 665.8 28 A 25.306 25.306 0 0 0 665.774 26.833 Q 665.737 26.018 665.644 25.313 A 11.741 11.741 0 0 0 665.4 24 L 661.4 24 A 12.311 12.311 0 0 0 661.507 23.496 Q 661.8 21.968 661.8 20 A 25.306 25.306 0 0 0 661.774 18.833 Q 661.698 17.194 661.4 16 L 643.4 16 Q 643.147 17.013 643.054 18.345 A 23.85 23.85 0 0 0 643 20 Q 643 21.294 643.127 22.398 A 13.936 13.936 0 0 0 643.4 24 L 657.4 24 Q 657.147 25.013 657.054 26.345 A 23.85 23.85 0 0 0 657 28 Q 657 29.294 657.127 30.398 A 13.936 13.936 0 0 0 657.4 32 L 641.4 32 Q 641.147 33.013 641.054 34.345 A 23.85 23.85 0 0 0 641 36 Q 641 37.294 641.127 38.398 A 13.936 13.936 0 0 0 641.4 40 L 637.4 40 Q 637.147 41.013 637.054 42.345 A 23.85 23.85 0 0 0 637 44 Q 637 45.294 637.127 46.398 A 13.936 13.936 0 0 0 637.4 48 L 641.4 48 Q 641.147 49.013 641.054 50.345 A 23.85 23.85 0 0 0 641 52 Q 641 53.294 641.127 54.398 A 13.936 13.936 0 0 0 641.4 56 L 657.4 56 A 12.311 12.311 0 0 0 657.507 55.496 Q 657.8 53.968 657.8 52 A 25.306 25.306 0 0 0 657.774 50.833 Q 657.698 49.194 657.4 48 Z M 684.4 24 L 688.4 24 L 701.4 24 Q 701.147 25.013 701.054 26.345 A 23.85 23.85 0 0 0 701 28 Q 701 29.294 701.127 30.398 A 13.936 13.936 0 0 0 701.4 32 Q 701.147 33.013 701.054 34.345 A 23.85 23.85 0 0 0 701 36 Q 701 37.294 701.127 38.398 A 13.936 13.936 0 0 0 701.4 40 Q 701.147 41.013 701.054 42.345 A 23.85 23.85 0 0 0 701 44 Q 701 45.294 701.127 46.398 A 13.936 13.936 0 0 0 701.4 48 Q 701.147 49.013 701.054 50.345 A 23.85 23.85 0 0 0 701 52 Q 701 53.294 701.127 54.398 A 13.936 13.936 0 0 0 701.4 56 L 709.4 56 A 12.311 12.311 0 0 0 709.507 55.496 Q 709.8 53.968 709.8 52 A 25.306 25.306 0 0 0 709.774 50.833 Q 709.698 49.194 709.4 48 A 12.311 12.311 0 0 0 709.507 47.496 Q 709.8 45.968 709.8 44 A 25.306 25.306 0 0 0 709.774 42.833 Q 709.698 41.194 709.4 40 A 12.311 12.311 0 0 0 709.507 39.496 Q 709.8 37.968 709.8 36 A 25.306 25.306 0 0 0 709.774 34.833 Q 709.698 33.194 709.4 32 A 12.311 12.311 0 0 0 709.507 31.496 Q 709.8 29.968 709.8 28 A 25.306 25.306 0 0 0 709.774 26.833 Q 709.698 25.194 709.4 24 L 704.4 24 A 12.311 12.311 0 0 0 704.507 23.496 Q 704.8 21.968 704.8 20 A 25.306 25.306 0 0 0 704.774 18.833 Q 704.698 17.194 704.4 16 L 688.4 16 Q 688.147 17.013 688.054 18.345 A 23.85 23.85 0 0 0 688 20 Q 688 21.294 688.127 22.398 A 13.936 13.936 0 0 0 688.4 24 A 11.741 11.741 0 0 1 688.644 25.313 Q 688.737 26.018 688.774 26.833 A 25.306 25.306 0 0 1 688.8 28 Q 688.8 29.968 688.507 31.496 A 12.311 12.311 0 0 1 688.4 32 L 685.4 32 A 11.741 11.741 0 0 1 685.644 33.313 Q 685.737 34.018 685.774 34.833 A 25.306 25.306 0 0 1 685.8 36 Q 685.8 37.968 685.507 39.496 A 12.311 12.311 0 0 1 685.4 40 A 11.741 11.741 0 0 1 685.644 41.313 Q 685.737 42.018 685.774 42.833 A 25.306 25.306 0 0 1 685.8 44 Q 685.8 45.968 685.507 47.496 A 12.311 12.311 0 0 1 685.4 48 A 11.741 11.741 0 0 1 685.644 49.313 Q 685.737 50.018 685.774 50.833 A 25.306 25.306 0 0 1 685.8 52 Q 685.8 53.968 685.507 55.496 A 12.311 12.311 0 0 1 685.4 56 L 677.4 56 A 13.936 13.936 0 0 1 677.127 54.398 Q 677 53.294 677 52 A 23.85 23.85 0 0 1 677.054 50.345 Q 677.147 49.013 677.4 48 A 13.936 13.936 0 0 1 677.127 46.398 Q 677 45.294 677 44 A 23.85 23.85 0 0 1 677.054 42.345 Q 677.147 41.013 677.4 40 A 13.936 13.936 0 0 1 677.127 38.398 Q 677 37.294 677 36 A 23.85 23.85 0 0 1 677.054 34.345 Q 677.147 33.013 677.4 32 A 13.936 13.936 0 0 1 677.127 30.398 Q 677 29.294 677 28 A 23.85 23.85 0 0 1 677.054 26.345 Q 677.147 25.013 677.4 24 A 13.936 13.936 0 0 1 677.127 22.398 Q 677 21.294 677 20 A 23.85 23.85 0 0 1 677.054 18.345 Q 677.147 17.013 677.4 16 L 684.4 16 A 11.741 11.741 0 0 1 684.644 17.313 Q 684.737 18.018 684.774 18.833 A 25.306 25.306 0 0 1 684.8 20 Q 684.8 21.968 684.507 23.496 A 12.311 12.311 0 0 1 684.4 24 Z M 581.4 40 L 589.4 40 Q 589.698 41.194 589.774 42.833 A 25.306 25.306 0 0 1 589.8 44 Q 589.8 45.968 589.507 47.496 A 12.311 12.311 0 0 1 589.4 48 L 585.4 48 A 11.741 11.741 0 0 1 585.644 49.313 Q 585.737 50.018 585.774 50.833 A 25.306 25.306 0 0 1 585.8 52 Q 585.8 53.968 585.507 55.496 A 12.311 12.311 0 0 1 585.4 56 L 565.4 56 A 13.936 13.936 0 0 1 565.127 54.398 Q 565 53.294 565 52 A 23.85 23.85 0 0 1 565.054 50.345 Q 565.147 49.013 565.4 48 L 561.4 48 A 13.936 13.936 0 0 1 561.127 46.398 Q 561 45.294 561 44 A 23.85 23.85 0 0 1 561.054 42.345 Q 561.147 41.013 561.4 40 L 557.4 40 A 13.936 13.936 0 0 1 557.127 38.398 Q 557 37.294 557 36 A 23.85 23.85 0 0 1 557.054 34.345 Q 557.147 33.013 557.4 32 L 561.4 32 A 13.936 13.936 0 0 1 561.127 30.398 Q 561 29.294 561 28 A 23.85 23.85 0 0 1 561.054 26.345 Q 561.147 25.013 561.4 24 L 565.4 24 A 13.936 13.936 0 0 1 565.127 22.398 Q 565 21.294 565 20 A 23.85 23.85 0 0 1 565.054 18.345 Q 565.147 17.013 565.4 16 L 585.4 16 A 11.741 11.741 0 0 1 585.644 17.313 Q 585.737 18.018 585.774 18.833 A 25.306 25.306 0 0 1 585.8 20 Q 585.8 21.968 585.507 23.496 A 12.311 12.311 0 0 1 585.4 24 L 589.4 24 Q 589.698 25.194 589.774 26.833 A 25.306 25.306 0 0 1 589.8 28 Q 589.8 29.968 589.507 31.496 A 12.311 12.311 0 0 1 589.4 32 L 581.4 32 A 13.936 13.936 0 0 1 581.127 30.398 Q 581 29.294 581 28 A 23.85 23.85 0 0 1 581.054 26.345 Q 581.147 25.013 581.4 24 L 569.4 24 Q 569.698 25.194 569.774 26.833 A 25.306 25.306 0 0 1 569.8 28 Q 569.8 29.968 569.507 31.496 A 12.311 12.311 0 0 1 569.4 32 L 565.4 32 A 11.741 11.741 0 0 1 565.644 33.313 Q 565.737 34.018 565.774 34.833 A 25.306 25.306 0 0 1 565.8 36 Q 565.8 37.968 565.507 39.496 A 12.311 12.311 0 0 1 565.4 40 L 569.4 40 Q 569.698 41.194 569.774 42.833 A 25.306 25.306 0 0 1 569.8 44 Q 569.8 45.968 569.507 47.496 A 12.311 12.311 0 0 1 569.4 48 L 581.4 48 A 13.936 13.936 0 0 1 581.127 46.398 Q 581 45.294 581 44 A 23.85 23.85 0 0 1 581.054 42.345 Q 581.147 41.013 581.4 40 Z M 349.4 40 L 328.4 40 A 11.741 11.741 0 0 1 328.644 41.313 Q 328.737 42.018 328.774 42.833 A 25.306 25.306 0 0 1 328.8 44 Q 328.8 45.968 328.507 47.496 A 12.311 12.311 0 0 1 328.4 48 L 345.4 48 A 11.741 11.741 0 0 1 345.644 49.313 Q 345.737 50.018 345.774 50.833 A 25.306 25.306 0 0 1 345.8 52 Q 345.8 53.968 345.507 55.496 A 12.311 12.311 0 0 1 345.4 56 L 325.4 56 A 13.936 13.936 0 0 1 325.127 54.398 Q 325 53.294 325 52 A 23.85 23.85 0 0 1 325.054 50.345 Q 325.147 49.013 325.4 48 L 320.4 48 A 13.936 13.936 0 0 1 320.127 46.398 Q 320 45.294 320 44 A 23.85 23.85 0 0 1 320.054 42.345 Q 320.147 41.013 320.4 40 L 317.4 40 A 13.936 13.936 0 0 1 317.127 38.398 Q 317 37.294 317 36 A 23.85 23.85 0 0 1 317.054 34.345 Q 317.147 33.013 317.4 32 L 320.4 32 A 13.936 13.936 0 0 1 320.127 30.398 Q 320 29.294 320 28 A 23.85 23.85 0 0 1 320.054 26.345 Q 320.147 25.013 320.4 24 L 325.4 24 A 13.936 13.936 0 0 1 325.127 22.398 Q 325 21.294 325 20 A 23.85 23.85 0 0 1 325.054 18.345 Q 325.147 17.013 325.4 16 L 345.4 16 A 11.741 11.741 0 0 1 345.644 17.313 Q 345.737 18.018 345.774 18.833 A 25.306 25.306 0 0 1 345.8 20 Q 345.8 21.968 345.507 23.496 A 12.311 12.311 0 0 1 345.4 24 L 349.4 24 Q 349.698 25.194 349.774 26.833 A 25.306 25.306 0 0 1 349.8 28 Q 349.8 29.968 349.507 31.496 A 12.311 12.311 0 0 1 349.4 32 Q 349.698 33.194 349.774 34.833 A 25.306 25.306 0 0 1 349.8 36 Q 349.8 37.968 349.507 39.496 A 12.311 12.311 0 0 1 349.4 40 Z M 97.4 48 L 103.4 48 Q 103.698 49.194 103.774 50.833 A 25.306 25.306 0 0 1 103.8 52 Q 103.8 53.968 103.507 55.496 A 12.311 12.311 0 0 1 103.4 56 L 83.4 56 A 13.936 13.936 0 0 1 83.127 54.398 Q 83 53.294 83 52 A 23.85 23.85 0 0 1 83.054 50.345 Q 83.147 49.013 83.4 48 L 89.4 48 A 13.936 13.936 0 0 1 89.127 46.398 Q 89 45.294 89 44 A 23.85 23.85 0 0 1 89.054 42.345 Q 89.147 41.013 89.4 40 A 13.936 13.936 0 0 1 89.127 38.398 Q 89 37.294 89 36 A 23.85 23.85 0 0 1 89.054 34.345 Q 89.147 33.013 89.4 32 A 13.936 13.936 0 0 1 89.127 30.398 Q 89 29.294 89 28 A 23.85 23.85 0 0 1 89.054 26.345 Q 89.147 25.013 89.4 24 A 13.936 13.936 0 0 1 89.127 22.398 Q 89 21.294 89 20 A 23.85 23.85 0 0 1 89.054 18.345 Q 89.147 17.013 89.4 16 A 13.936 13.936 0 0 1 89.127 14.398 Q 89 13.294 89 12 A 23.85 23.85 0 0 1 89.054 10.345 Q 89.147 9.013 89.4 8 L 83.4 8 A 13.936 13.936 0 0 1 83.127 6.398 Q 83 5.294 83 4 A 23.85 23.85 0 0 1 83.054 2.345 Q 83.147 1.013 83.4 0 L 103.4 0 Q 103.698 1.194 103.774 2.833 A 25.306 25.306 0 0 1 103.8 4 Q 103.8 5.968 103.507 7.496 A 12.311 12.311 0 0 1 103.4 8 L 97.4 8 Q 97.698 9.194 97.774 10.833 A 25.306 25.306 0 0 1 97.8 12 Q 97.8 13.968 97.507 15.496 A 12.311 12.311 0 0 1 97.4 16 Q 97.698 17.194 97.774 18.833 A 25.306 25.306 0 0 1 97.8 20 Q 97.8 21.968 97.507 23.496 A 12.311 12.311 0 0 1 97.4 24 Q 97.698 25.194 97.774 26.833 A 25.306 25.306 0 0 1 97.8 28 Q 97.8 29.968 97.507 31.496 A 12.311 12.311 0 0 1 97.4 32 Q 97.698 33.194 97.774 34.833 A 25.306 25.306 0 0 1 97.8 36 Q 97.8 37.968 97.507 39.496 A 12.311 12.311 0 0 1 97.4 40 Q 97.698 41.194 97.774 42.833 A 25.306 25.306 0 0 1 97.8 44 Q 97.8 45.968 97.507 47.496 A 12.311 12.311 0 0 1 97.4 48 Z M 269.4 8 L 257.4 8 Q 257.698 9.194 257.774 10.833 A 25.306 25.306 0 0 1 257.8 12 Q 257.8 13.968 257.507 15.496 A 12.311 12.311 0 0 1 257.4 16 Q 257.698 17.194 257.774 18.833 A 25.306 25.306 0 0 1 257.8 20 Q 257.8 21.968 257.507 23.496 A 12.311 12.311 0 0 1 257.4 24 Q 257.698 25.194 257.774 26.833 A 25.306 25.306 0 0 1 257.8 28 Q 257.8 29.968 257.507 31.496 A 12.311 12.311 0 0 1 257.4 32 Q 257.698 33.194 257.774 34.833 A 25.306 25.306 0 0 1 257.8 36 Q 257.8 37.968 257.507 39.496 A 12.311 12.311 0 0 1 257.4 40 Q 257.698 41.194 257.774 42.833 A 25.306 25.306 0 0 1 257.8 44 Q 257.8 45.968 257.507 47.496 A 12.311 12.311 0 0 1 257.4 48 Q 257.698 49.194 257.774 50.833 A 25.306 25.306 0 0 1 257.8 52 Q 257.8 53.968 257.507 55.496 A 12.311 12.311 0 0 1 257.4 56 L 249.4 56 A 13.936 13.936 0 0 1 249.127 54.398 Q 249 53.294 249 52 A 23.85 23.85 0 0 1 249.054 50.345 Q 249.147 49.013 249.4 48 A 13.936 13.936 0 0 1 249.127 46.398 Q 249 45.294 249 44 A 23.85 23.85 0 0 1 249.054 42.345 Q 249.147 41.013 249.4 40 A 13.936 13.936 0 0 1 249.127 38.398 Q 249 37.294 249 36 A 23.85 23.85 0 0 1 249.054 34.345 Q 249.147 33.013 249.4 32 A 13.936 13.936 0 0 1 249.127 30.398 Q 249 29.294 249 28 A 23.85 23.85 0 0 1 249.054 26.345 Q 249.147 25.013 249.4 24 A 13.936 13.936 0 0 1 249.127 22.398 Q 249 21.294 249 20 A 23.85 23.85 0 0 1 249.054 18.345 Q 249.147 17.013 249.4 16 A 13.936 13.936 0 0 1 249.127 14.398 Q 249 13.294 249 12 A 23.85 23.85 0 0 1 249.054 10.345 Q 249.147 9.013 249.4 8 L 237.4 8 A 13.936 13.936 0 0 1 237.127 6.398 Q 237 5.294 237 4 A 23.85 23.85 0 0 1 237.054 2.345 Q 237.147 1.013 237.4 0 L 269.4 0 Q 269.698 1.194 269.774 2.833 A 25.306 25.306 0 0 1 269.8 4 Q 269.8 5.968 269.507 7.496 A 12.311 12.311 0 0 1 269.4 8 Z M 545.4 56 L 521.4 56 A 13.936 13.936 0 0 1 521.127 54.398 Q 521 53.294 521 52 A 23.85 23.85 0 0 1 521.054 50.345 Q 521.147 49.013 521.4 48 L 529.4 48 A 13.936 13.936 0 0 1 529.127 46.398 Q 529 45.294 529 44 A 23.85 23.85 0 0 1 529.054 42.345 Q 529.147 41.013 529.4 40 A 13.936 13.936 0 0 1 529.127 38.398 Q 529 37.294 529 36 A 23.85 23.85 0 0 1 529.054 34.345 Q 529.147 33.013 529.4 32 A 13.936 13.936 0 0 1 529.127 30.398 Q 529 29.294 529 28 A 23.85 23.85 0 0 1 529.054 26.345 Q 529.147 25.013 529.4 24 L 523.4 24 A 13.936 13.936 0 0 1 523.127 22.398 Q 523 21.294 523 20 A 23.85 23.85 0 0 1 523.054 18.345 Q 523.147 17.013 523.4 16 L 537.4 16 Q 537.698 17.194 537.774 18.833 A 25.306 25.306 0 0 1 537.8 20 Q 537.8 21.968 537.507 23.496 A 12.311 12.311 0 0 1 537.4 24 Q 537.698 25.194 537.774 26.833 A 25.306 25.306 0 0 1 537.8 28 Q 537.8 29.968 537.507 31.496 A 12.311 12.311 0 0 1 537.4 32 Q 537.698 33.194 537.774 34.833 A 25.306 25.306 0 0 1 537.8 36 Q 537.8 37.968 537.507 39.496 A 12.311 12.311 0 0 1 537.4 40 Q 537.698 41.194 537.774 42.833 A 25.306 25.306 0 0 1 537.8 44 Q 537.8 45.968 537.507 47.496 A 12.311 12.311 0 0 1 537.4 48 L 545.4 48 A 11.741 11.741 0 0 1 545.644 49.313 Q 545.737 50.018 545.774 50.833 A 25.306 25.306 0 0 1 545.8 52 Q 545.8 53.968 545.507 55.496 A 12.311 12.311 0 0 1 545.4 56 Z M 625.4 56 L 601.4 56 A 13.936 13.936 0 0 1 601.127 54.398 Q 601 53.294 601 52 A 23.85 23.85 0 0 1 601.054 50.345 Q 601.147 49.013 601.4 48 L 609.4 48 A 13.936 13.936 0 0 1 609.127 46.398 Q 609 45.294 609 44 A 23.85 23.85 0 0 1 609.054 42.345 Q 609.147 41.013 609.4 40 A 13.936 13.936 0 0 1 609.127 38.398 Q 609 37.294 609 36 A 23.85 23.85 0 0 1 609.054 34.345 Q 609.147 33.013 609.4 32 A 13.936 13.936 0 0 1 609.127 30.398 Q 609 29.294 609 28 A 23.85 23.85 0 0 1 609.054 26.345 Q 609.147 25.013 609.4 24 L 603.4 24 A 13.936 13.936 0 0 1 603.127 22.398 Q 603 21.294 603 20 A 23.85 23.85 0 0 1 603.054 18.345 Q 603.147 17.013 603.4 16 L 617.4 16 Q 617.698 17.194 617.774 18.833 A 25.306 25.306 0 0 1 617.8 20 Q 617.8 21.968 617.507 23.496 A 12.311 12.311 0 0 1 617.4 24 Q 617.698 25.194 617.774 26.833 A 25.306 25.306 0 0 1 617.8 28 Q 617.8 29.968 617.507 31.496 A 12.311 12.311 0 0 1 617.4 32 Q 617.698 33.194 617.774 34.833 A 25.306 25.306 0 0 1 617.8 36 Q 617.8 37.968 617.507 39.496 A 12.311 12.311 0 0 1 617.4 40 Q 617.698 41.194 617.774 42.833 A 25.306 25.306 0 0 1 617.8 44 Q 617.8 45.968 617.507 47.496 A 12.311 12.311 0 0 1 617.4 48 L 625.4 48 A 11.741 11.741 0 0 1 625.644 49.313 Q 625.737 50.018 625.774 50.833 A 25.306 25.306 0 0 1 625.8 52 Q 625.8 53.968 625.507 55.496 A 12.311 12.311 0 0 1 625.4 56 Z M 18.4 8 L 8.4 8 L 3.4 8 Q 3.147 9.013 3.054 10.345 A 23.85 23.85 0 0 0 3 12 Q 3 13.294 3.127 14.398 A 13.936 13.936 0 0 0 3.4 16 L 0.4 16 Q 0.147 17.013 0.054 18.345 A 23.85 23.85 0 0 0 0 20 Q 0 21.294 0.127 22.398 A 13.936 13.936 0 0 0 0.4 24 Q 0.147 25.013 0.054 26.345 A 23.85 23.85 0 0 0 0 28 Q 0 29.294 0.127 30.398 A 13.936 13.936 0 0 0 0.4 32 Q 0.147 33.013 0.054 34.345 A 23.85 23.85 0 0 0 0 36 Q 0 37.294 0.127 38.398 A 13.936 13.936 0 0 0 0.4 40 L 3.4 40 Q 3.147 41.013 3.054 42.345 A 23.85 23.85 0 0 0 3 44 Q 3 45.294 3.127 46.398 A 13.936 13.936 0 0 0 3.4 48 L 8.4 48 L 18.4 48 L 23.4 48 A 12.311 12.311 0 0 0 23.507 47.496 Q 23.8 45.968 23.8 44 A 25.306 25.306 0 0 0 23.774 42.833 Q 23.698 41.194 23.4 40 L 26.4 40 A 12.311 12.311 0 0 0 26.507 39.496 Q 26.8 37.968 26.8 36 A 25.306 25.306 0 0 0 26.774 34.833 Q 26.737 34.018 26.644 33.313 A 11.741 11.741 0 0 0 26.4 32 A 12.311 12.311 0 0 0 26.507 31.496 Q 26.8 29.968 26.8 28 A 25.306 25.306 0 0 0 26.774 26.833 Q 26.737 26.018 26.644 25.313 A 11.741 11.741 0 0 0 26.4 24 A 12.311 12.311 0 0 0 26.507 23.496 Q 26.8 21.968 26.8 20 A 25.306 25.306 0 0 0 26.774 18.833 Q 26.737 18.018 26.644 17.313 A 11.741 11.741 0 0 0 26.4 16 L 23.4 16 A 12.311 12.311 0 0 0 23.507 15.496 Q 23.8 13.968 23.8 12 A 25.306 25.306 0 0 0 23.774 10.833 Q 23.698 9.194 23.4 8 L 18.4 8 Z M 58.4 8 L 48.4 8 L 43.4 8 Q 43.147 9.013 43.054 10.345 A 23.85 23.85 0 0 0 43 12 Q 43 13.294 43.127 14.398 A 13.936 13.936 0 0 0 43.4 16 L 40.4 16 Q 40.147 17.013 40.054 18.345 A 23.85 23.85 0 0 0 40 20 Q 40 21.294 40.127 22.398 A 13.936 13.936 0 0 0 40.4 24 Q 40.147 25.013 40.054 26.345 A 23.85 23.85 0 0 0 40 28 Q 40 29.294 40.127 30.398 A 13.936 13.936 0 0 0 40.4 32 Q 40.147 33.013 40.054 34.345 A 23.85 23.85 0 0 0 40 36 Q 40 37.294 40.127 38.398 A 13.936 13.936 0 0 0 40.4 40 L 43.4 40 Q 43.147 41.013 43.054 42.345 A 23.85 23.85 0 0 0 43 44 Q 43 45.294 43.127 46.398 A 13.936 13.936 0 0 0 43.4 48 L 48.4 48 L 58.4 48 L 63.4 48 A 12.311 12.311 0 0 0 63.507 47.496 Q 63.8 45.968 63.8 44 A 25.306 25.306 0 0 0 63.774 42.833 Q 63.698 41.194 63.4 40 L 66.4 40 A 12.311 12.311 0 0 0 66.507 39.496 Q 66.8 37.968 66.8 36 A 25.306 25.306 0 0 0 66.774 34.833 Q 66.737 34.018 66.644 33.313 A 11.741 11.741 0 0 0 66.4 32 A 12.311 12.311 0 0 0 66.507 31.496 Q 66.8 29.968 66.8 28 A 25.306 25.306 0 0 0 66.774 26.833 Q 66.737 26.018 66.644 25.313 A 11.741 11.741 0 0 0 66.4 24 A 12.311 12.311 0 0 0 66.507 23.496 Q 66.8 21.968 66.8 20 A 25.306 25.306 0 0 0 66.774 18.833 Q 66.737 18.018 66.644 17.313 A 11.741 11.741 0 0 0 66.4 16 L 63.4 16 A 12.311 12.311 0 0 0 63.507 15.496 Q 63.8 13.968 63.8 12 A 25.306 25.306 0 0 0 63.774 10.833 Q 63.698 9.194 63.4 8 L 58.4 8 Z M 18.4 8 A 12.311 12.311 0 0 0 18.507 7.496 Q 18.8 5.968 18.8 4 A 25.306 25.306 0 0 0 18.774 2.833 Q 18.698 1.194 18.4 0 L 8.4 0 Q 8.147 1.013 8.054 2.345 A 23.85 23.85 0 0 0 8 4 Q 8 5.294 8.127 6.398 A 13.936 13.936 0 0 0 8.4 8 A 11.741 11.741 0 0 1 8.644 9.313 Q 8.737 10.018 8.774 10.833 A 25.306 25.306 0 0 1 8.8 12 Q 8.8 13.968 8.507 15.496 A 12.311 12.311 0 0 1 8.4 16 A 11.741 11.741 0 0 1 8.644 17.313 Q 8.737 18.018 8.774 18.833 A 25.306 25.306 0 0 1 8.8 20 Q 8.8 21.968 8.507 23.496 A 12.311 12.311 0 0 1 8.4 24 A 11.741 11.741 0 0 1 8.644 25.313 Q 8.737 26.018 8.774 26.833 A 25.306 25.306 0 0 1 8.8 28 Q 8.8 29.968 8.507 31.496 A 12.311 12.311 0 0 1 8.4 32 A 11.741 11.741 0 0 1 8.644 33.313 Q 8.737 34.018 8.774 34.833 A 25.306 25.306 0 0 1 8.8 36 Q 8.8 37.968 8.507 39.496 A 12.311 12.311 0 0 1 8.4 40 A 11.741 11.741 0 0 1 8.644 41.313 Q 8.737 42.018 8.774 42.833 A 25.306 25.306 0 0 1 8.8 44 Q 8.8 45.968 8.507 47.496 A 12.311 12.311 0 0 1 8.4 48 M 58.4 8 A 12.311 12.311 0 0 0 58.507 7.496 Q 58.8 5.968 58.8 4 A 25.306 25.306 0 0 0 58.774 2.833 Q 58.698 1.194 58.4 0 L 48.4 0 Q 48.147 1.013 48.054 2.345 A 23.85 23.85 0 0 0 48 4 Q 48 5.294 48.127 6.398 A 13.936 13.936 0 0 0 48.4 8 A 11.741 11.741 0 0 1 48.644 9.313 Q 48.737 10.018 48.774 10.833 A 25.306 25.306 0 0 1 48.8 12 Q 48.8 13.968 48.507 15.496 A 12.311 12.311 0 0 1 48.4 16 A 11.741 11.741 0 0 1 48.644 17.313 Q 48.737 18.018 48.774 18.833 A 25.306 25.306 0 0 1 48.8 20 Q 48.8 21.968 48.507 23.496 A 12.311 12.311 0 0 1 48.4 24 A 11.741 11.741 0 0 1 48.644 25.313 Q 48.737 26.018 48.774 26.833 A 25.306 25.306 0 0 1 48.8 28 Q 48.8 29.968 48.507 31.496 A 12.311 12.311 0 0 1 48.4 32 A 11.741 11.741 0 0 1 48.644 33.313 Q 48.737 34.018 48.774 34.833 A 25.306 25.306 0 0 1 48.8 36 Q 48.8 37.968 48.507 39.496 A 12.311 12.311 0 0 1 48.4 40 A 11.741 11.741 0 0 1 48.644 41.313 Q 48.737 42.018 48.774 42.833 A 25.306 25.306 0 0 1 48.8 44 Q 48.8 45.968 48.507 47.496 A 12.311 12.311 0 0 1 48.4 48 M 163.4 24 L 183.4 24 Q 183.698 25.194 183.774 26.833 A 25.306 25.306 0 0 1 183.8 28 Q 183.8 29.968 183.507 31.496 A 12.311 12.311 0 0 1 183.4 32 L 163.4 32 A 13.936 13.936 0 0 1 163.127 30.398 Q 163 29.294 163 28 A 23.85 23.85 0 0 1 163.054 26.345 Q 163.147 25.013 163.4 24 Z M 341.4 24 L 328.4 24 A 11.741 11.741 0 0 1 328.644 25.313 Q 328.737 26.018 328.774 26.833 A 25.306 25.306 0 0 1 328.8 28 Q 328.8 29.968 328.507 31.496 A 12.311 12.311 0 0 1 328.4 32 L 341.4 32 A 13.936 13.936 0 0 1 341.127 30.398 Q 341 29.294 341 28 A 23.85 23.85 0 0 1 341.054 26.345 Q 341.147 25.013 341.4 24 Z M 18.4 48 A 13.936 13.936 0 0 1 18.127 46.398 Q 18 45.294 18 44 A 23.85 23.85 0 0 1 18.054 42.345 Q 18.147 41.013 18.4 40 A 13.936 13.936 0 0 1 18.127 38.398 Q 18 37.294 18 36 A 23.85 23.85 0 0 1 18.054 34.345 Q 18.147 33.013 18.4 32 A 13.936 13.936 0 0 1 18.127 30.398 Q 18 29.294 18 28 A 23.85 23.85 0 0 1 18.054 26.345 Q 18.147 25.013 18.4 24 A 13.936 13.936 0 0 1 18.127 22.398 Q 18 21.294 18 20 A 23.85 23.85 0 0 1 18.054 18.345 Q 18.147 17.013 18.4 16 A 13.936 13.936 0 0 1 18.127 14.398 Q 18 13.294 18 12 A 23.85 23.85 0 0 1 18.054 10.345 Q 18.147 9.013 18.4 8 M 58.4 48 A 13.936 13.936 0 0 1 58.127 46.398 Q 58 45.294 58 44 A 23.85 23.85 0 0 1 58.054 42.345 Q 58.147 41.013 58.4 40 A 13.936 13.936 0 0 1 58.127 38.398 Q 58 37.294 58 36 A 23.85 23.85 0 0 1 58.054 34.345 Q 58.147 33.013 58.4 32 A 13.936 13.936 0 0 1 58.127 30.398 Q 58 29.294 58 28 A 23.85 23.85 0 0 1 58.054 26.345 Q 58.147 25.013 58.4 24 A 13.936 13.936 0 0 1 58.127 22.398 Q 58 21.294 58 20 A 23.85 23.85 0 0 1 58.054 18.345 Q 58.147 17.013 58.4 16 A 13.936 13.936 0 0 1 58.127 14.398 Q 58 13.294 58 12 A 23.85 23.85 0 0 1 58.054 10.345 Q 58.147 9.013 58.4 8 M 537.4 8 L 529.4 8 A 13.936 13.936 0 0 1 529.127 6.398 Q 529 5.294 529 4 A 23.85 23.85 0 0 1 529.054 2.345 Q 529.147 1.013 529.4 0 L 537.4 0 Q 537.698 1.194 537.774 2.833 A 25.306 25.306 0 0 1 537.8 4 Q 537.8 5.968 537.507 7.496 A 12.311 12.311 0 0 1 537.4 8 Z M 617.4 8 L 609.4 8 A 13.936 13.936 0 0 1 609.127 6.398 Q 609 5.294 609 4 A 23.85 23.85 0 0 1 609.054 2.345 Q 609.147 1.013 609.4 0 L 617.4 0 Q 617.698 1.194 617.774 2.833 A 25.306 25.306 0 0 1 617.8 4 Q 617.8 5.968 617.507 7.496 A 12.311 12.311 0 0 1 617.4 8 Z M 18.4 48 Q 18.698 49.194 18.774 50.833 A 25.306 25.306 0 0 1 18.8 52 Q 18.8 53.968 18.507 55.496 A 12.311 12.311 0 0 1 18.4 56 L 8.4 56 A 13.936 13.936 0 0 1 8.127 54.398 Q 8 53.294 8 52 A 23.85 23.85 0 0 1 8.054 50.345 Q 8.147 49.013 8.4 48 M 58.4 48 Q 58.698 49.194 58.774 50.833 A 25.306 25.306 0 0 1 58.8 52 Q 58.8 53.968 58.507 55.496 A 12.311 12.311 0 0 1 58.4 56 L 48.4 56 A 13.936 13.936 0 0 1 48.127 54.398 Q 48 53.294 48 52 A 23.85 23.85 0 0 1 48.054 50.345 Q 48.147 49.013 48.4 48 M 497.4 56 A 12.311 12.311 0 0 0 497.507 55.496 Q 497.8 53.968 497.8 52 A 25.306 25.306 0 0 0 497.774 50.833 Q 497.698 49.194 497.4 48" vector-effect="non-scaling-stroke"/></g></svg>