<svg width="904.8" height="72" viewBox="0 0 904.8 72" xmlns="http://www.w3.org/2000/svg"><g id="svgGroup" stroke-linecap="round" fill-rule="evenodd" font-size="9pt" stroke="#000" stroke-width="0.25mm" fill="#000" style="stroke:#000;stroke-width:0.25mm;fill:#000"><path d="M 454.4 48 A 13.936 13.936 0 0 1 454.127 46.398 Q 454 45.294 454 44 A 23.85 23.85 0 0 1 454.054 42.345 Q 454.147 41.013 454.4 40 L 458.4 40 A 13.936 13.936 0 0 1 458.127 38.398 Q 458 37.294 458 36 A 23.85 23.85 0 0 1 458.054 34.345 Q 458.147 33.013 458.4 32 A 13.936 13.936 0 0 1 458.127 30.398 Q 458 29.294 458 28 A 23.85 23.85 0 0 1 458.054 26.345 Q 458.147 25.013 458.4 24 L 445.4 24 A 11.741 11.741 0 0 1 445.644 25.313 Q 445.737 26.018 445.774 26.833 A 25.306 25.306 0 0 1 445.8 28 Q 445.8 29.968 445.507 31.496 A 12.311 12.311 0 0 1 445.4 32 L 442.4 32 A 11.741 11.741 0 0 1 442.644 33.313 Q 442.737 34.018 442.774 34.833 A 25.306 25.306 0 0 1 442.8 36 Q 442.8 37.968 442.507 39.496 A 12.311 12.311 0 0 1 442.4 40 L 445.4 40 A 11.741 11.741 0 0 1 445.644 41.313 Q 445.737 42.018 445.774 42.833 A 25.306 25.306 0 0 1 445.8 44 Q 445.8 45.968 445.507 47.496 A 12.311 12.311 0 0 1 445.4 48 L 454.4 48 L 458.4 48 Q 458.147 49.013 458.054 50.345 A 23.85 23.85 0 0 0 458 52 Q 458 53.294 458.127 54.398 A 13.936 13.936 0 0 0 458.4 56 L 454.4 56 Q 454.147 57.013 454.054 58.345 A 23.85 23.85 0 0 0 454 60 Q 454 61.294 454.127 62.398 A 13.936 13.936 0 0 0 454.4 64 L 442.4 64 Q 442.147 65.013 442.054 66.345 A 23.85 23.85 0 0 0 442 68 Q 442 69.294 442.127 70.398 A 13.936 13.936 0 0 0 442.4 72 L 458.4 72 A 12.311 12.311 0 0 0 458.507 71.496 Q 458.8 69.968 458.8 68 A 25.306 25.306 0 0 0 458.774 66.833 Q 458.698 65.194 458.4 64 L 462.4 64 A 12.311 12.311 0 0 0 462.507 63.496 Q 462.8 61.968 462.8 60 A 25.306 25.306 0 0 0 462.774 58.833 Q 462.737 58.018 462.644 57.313 A 11.741 11.741 0 0 0 462.4 56 L 466.4 56 A 12.311 12.311 0 0 0 466.507 55.496 Q 466.8 53.968 466.8 52 A 25.306 25.306 0 0 0 466.774 50.833 Q 466.698 49.194 466.4 48 A 12.311 12.311 0 0 0 466.507 47.496 Q 466.8 45.968 466.8 44 A 25.306 25.306 0 0 0 466.774 42.833 Q 466.698 41.194 466.4 40 A 12.311 12.311 0 0 0 466.507 39.496 Q 466.8 37.968 466.8 36 A 25.306 25.306 0 0 0 466.774 34.833 Q 466.698 33.194 466.4 32 A 12.311 12.311 0 0 0 466.507 31.496 Q 466.8 29.968 466.8 28 A 25.306 25.306 0 0 0 466.774 26.833 Q 466.698 25.194 466.4 24 A 12.311 12.311 0 0 0 466.507 23.496 Q 466.8 21.968 466.8 20 A 25.306 25.306 0 0 0 466.774 18.833 Q 466.698 17.194 466.4 16 L 442.4 16 Q 442.147 17.013 442.054 18.345 A 23.85 23.85 0 0 0 442 20 Q 442 21.294 442.127 22.398 A 13.936 13.936 0 0 0 442.4 24 L 437.4 24 Q 437.147 25.013 437.054 26.345 A 23.85 23.85 0 0 0 437 28 Q 437 29.294 437.127 30.398 A 13.936 13.936 0 0 0 437.4 32 L 434.4 32 Q 434.147 33.013 434.054 34.345 A 23.85 23.85 0 0 0 434 36 Q 434 37.294 434.127 38.398 A 13.936 13.936 0 0 0 434.4 40 L 437.4 40 Q 437.147 41.013 437.054 42.345 A 23.85 23.85 0 0 0 437 44 Q 437 45.294 437.127 46.398 A 13.936 13.936 0 0 0 437.4 48 L 442.4 48 Q 442.147 49.013 442.054 50.345 A 23.85 23.85 0 0 0 442 52 Q 442 53.294 442.127 54.398 A 13.936 13.936 0 0 0 442.4 56 L 454.4 56 Q 454.147 57.013 454.054 58.345 M 386.4 56 L 378.4 56 A 13.936 13.936 0 0 1 378.127 54.398 Q 378 53.294 378 52 A 23.85 23.85 0 0 1 378.054 50.345 Q 378.147 49.013 378.4 48 A 13.936 13.936 0 0 1 378.127 46.398 Q 378 45.294 378 44 A 23.85 23.85 0 0 1 378.054 42.345 Q 378.147 41.013 378.4 40 A 13.936 13.936 0 0 1 378.127 38.398 Q 378 37.294 378 36 A 23.85 23.85 0 0 1 378.054 34.345 Q 378.147 33.013 378.4 32 L 362.4 32 A 11.741 11.741 0 0 1 362.644 33.313 Q 362.737 34.018 362.774 34.833 A 25.306 25.306 0 0 1 362.8 36 Q 362.8 37.968 362.507 39.496 A 12.311 12.311 0 0 1 362.4 40 A 11.741 11.741 0 0 1 362.644 41.313 Q 362.737 42.018 362.774 42.833 A 25.306 25.306 0 0 1 362.8 44 Q 362.8 45.968 362.507 47.496 A 12.311 12.311 0 0 1 362.4 48 A 11.741 11.741 0 0 1 362.644 49.313 Q 362.737 50.018 362.774 50.833 A 25.306 25.306 0 0 1 362.8 52 Q 362.8 53.968 362.507 55.496 A 12.311 12.311 0 0 1 362.4 56 L 354.4 56 A 13.936 13.936 0 0 1 354.127 54.398 Q 354 53.294 354 52 A 23.85 23.85 0 0 1 354.054 50.345 Q 354.147 49.013 354.4 48 A 13.936 13.936 0 0 1 354.127 46.398 Q 354 45.294 354 44 A 23.85 23.85 0 0 1 354.054 42.345 Q 354.147 41.013 354.4 40 A 13.936 13.936 0 0 1 354.127 38.398 Q 354 37.294 354 36 A 23.85 23.85 0 0 1 354.054 34.345 Q 354.147 33.013 354.4 32 A 13.936 13.936 0 0 1 354.127 30.398 Q 354 29.294 354 28 A 23.85 23.85 0 0 1 354.054 26.345 Q 354.147 25.013 354.4 24 A 13.936 13.936 0 0 1 354.127 22.398 Q 354 21.294 354 20 A 23.85 23.85 0 0 1 354.054 18.345 Q 354.147 17.013 354.4 16 A 13.936 13.936 0 0 1 354.127 14.398 Q 354 13.294 354 12 A 23.85 23.85 0 0 1 354.054 10.345 Q 354.147 9.013 354.4 8 A 13.936 13.936 0 0 1 354.127 6.398 Q 354 5.294 354 4 A 23.85 23.85 0 0 1 354.054 2.345 Q 354.147 1.013 354.4 0 L 362.4 0 A 11.741 11.741 0 0 1 362.644 1.313 Q 362.737 2.018 362.774 2.833 A 25.306 25.306 0 0 1 362.8 4 Q 362.8 5.968 362.507 7.496 A 12.311 12.311 0 0 1 362.4 8 A 11.741 11.741 0 0 1 362.644 9.313 Q 362.737 10.018 362.774 10.833 A 25.306 25.306 0 0 1 362.8 12 Q 362.8 13.968 362.507 15.496 A 12.311 12.311 0 0 1 362.4 16 A 11.741 11.741 0 0 1 362.644 17.313 Q 362.737 18.018 362.774 18.833 A 25.306 25.306 0 0 1 362.8 20 Q 362.8 21.968 362.507 23.496 A 12.311 12.311 0 0 1 362.4 24 L 378.4 24 A 13.936 13.936 0 0 1 378.127 22.398 Q 378 21.294 378 20 A 23.85 23.85 0 0 1 378.054 18.345 Q 378.147 17.013 378.4 16 A 13.936 13.936 0 0 1 378.127 14.398 Q 378 13.294 378 12 A 23.85 23.85 0 0 1 378.054 10.345 Q 378.147 9.013 378.4 8 A 13.936 13.936 0 0 1 378.127 6.398 Q 378 5.294 378 4 A 23.85 23.85 0 0 1 378.054 2.345 Q 378.147 1.013 378.4 0 L 386.4 0 Q 386.698 1.194 386.774 2.833 A 25.306 25.306 0 0 1 386.8 4 Q 386.8 5.968 386.507 7.496 A 12.311 12.311 0 0 1 386.4 8 Q 386.698 9.194 386.774 10.833 A 25.306 25.306 0 0 1 386.8 12 Q 386.8 13.968 386.507 15.496 A 12.311 12.311 0 0 1 386.4 16 Q 386.698 17.194 386.774 18.833 A 25.306 25.306 0 0 1 386.8 20 Q 386.8 21.968 386.507 23.496 A 12.311 12.311 0 0 1 386.4 24 Q 386.698 25.194 386.774 26.833 A 25.306 25.306 0 0 1 386.8 28 Q 386.8 29.968 386.507 31.496 A 12.311 12.311 0 0 1 386.4 32 Q 386.698 33.194 386.774 34.833 A 25.306 25.306 0 0 1 386.8 36 Q 386.8 37.968 386.507 39.496 A 12.311 12.311 0 0 1 386.4 40 Q 386.698 41.194 386.774 42.833 A 25.306 25.306 0 0 1 386.8 44 Q 386.8 45.968 386.507 47.496 A 12.311 12.311 0 0 1 386.4 48 Q 386.698 49.194 386.774 50.833 A 25.306 25.306 0 0 1 386.8 52 Q 386.8 53.968 386.507 55.496 A 12.311 12.311 0 0 1 386.4 56 Z M 242.4 24 L 245.4 24 L 258.4 24 Q 258.147 25.013 258.054 26.345 A 23.85 23.85 0 0 0 258 28 Q 258 29.294 258.127 30.398 A 13.936 13.936 0 0 0 258.4 32 Q 258.147 33.013 258.054 34.345 A 23.85 23.85 0 0 0 258 36 Q 258 37.294 258.127 38.398 A 13.936 13.936 0 0 0 258.4 40 Q 258.147 41.013 258.054 42.345 A 23.85 23.85 0 0 0 258 44 Q 258 45.294 258.127 46.398 A 13.936 13.936 0 0 0 258.4 48 Q 258.147 49.013 258.054 50.345 A 23.85 23.85 0 0 0 258 52 Q 258 53.294 258.127 54.398 A 13.936 13.936 0 0 0 258.4 56 L 266.4 56 A 12.311 12.311 0 0 0 266.507 55.496 Q 266.8 53.968 266.8 52 A 25.306 25.306 0 0 0 266.774 50.833 Q 266.698 49.194 266.4 48 A 12.311 12.311 0 0 0 266.507 47.496 Q 266.8 45.968 266.8 44 A 25.306 25.306 0 0 0 266.774 42.833 Q 266.698 41.194 266.4 40 A 12.311 12.311 0 0 0 266.507 39.496 Q 266.8 37.968 266.8 36 A 25.306 25.306 0 0 0 266.774 34.833 Q 266.698 33.194 266.4 32 A 12.311 12.311 0 0 0 266.507 31.496 Q 266.8 29.968 266.8 28 A 25.306 25.306 0 0 0 266.774 26.833 Q 266.698 25.194 266.4 24 L 261.4 24 A 12.311 12.311 0 0 0 261.507 23.496 Q 261.8 21.968 261.8 20 A 25.306 25.306 0 0 0 261.774 18.833 Q 261.698 17.194 261.4 16 L 245.4 16 Q 245.147 17.013 245.054 18.345 A 23.85 23.85 0 0 0 245 20 Q 245 21.294 245.127 22.398 A 13.936 13.936 0 0 0 245.4 24 A 11.741 11.741 0 0 1 245.644 25.313 Q 245.737 26.018 245.774 26.833 A 25.306 25.306 0 0 1 245.8 28 Q 245.8 29.968 245.507 31.496 A 12.311 12.311 0 0 1 245.4 32 L 242.4 32 A 11.741 11.741 0 0 1 242.644 33.313 Q 242.737 34.018 242.774 34.833 A 25.306 25.306 0 0 1 242.8 36 Q 242.8 37.968 242.507 39.496 A 12.311 12.311 0 0 1 242.4 40 A 11.741 11.741 0 0 1 242.644 41.313 Q 242.737 42.018 242.774 42.833 A 25.306 25.306 0 0 1 242.8 44 Q 242.8 45.968 242.507 47.496 A 12.311 12.311 0 0 1 242.4 48 A 11.741 11.741 0 0 1 242.644 49.313 Q 242.737 50.018 242.774 50.833 A 25.306 25.306 0 0 1 242.8 52 Q 242.8 53.968 242.507 55.496 A 12.311 12.311 0 0 1 242.4 56 L 234.4 56 A 13.936 13.936 0 0 1 234.127 54.398 Q 234 53.294 234 52 A 23.85 23.85 0 0 1 234.054 50.345 Q 234.147 49.013 234.4 48 A 13.936 13.936 0 0 1 234.127 46.398 Q 234 45.294 234 44 A 23.85 23.85 0 0 1 234.054 42.345 Q 234.147 41.013 234.4 40 A 13.936 13.936 0 0 1 234.127 38.398 Q 234 37.294 234 36 A 23.85 23.85 0 0 1 234.054 34.345 Q 234.147 33.013 234.4 32 A 13.936 13.936 0 0 1 234.127 30.398 Q 234 29.294 234 28 A 23.85 23.85 0 0 1 234.054 26.345 Q 234.147 25.013 234.4 24 A 13.936 13.936 0 0 1 234.127 22.398 Q 234 21.294 234 20 A 23.85 23.85 0 0 1 234.054 18.345 Q 234.147 17.013 234.4 16 A 13.936 13.936 0 0 1 234.127 14.398 Q 234 13.294 234 12 A 23.85 23.85 0 0 1 234.054 10.345 Q 234.147 9.013 234.4 8 A 13.936 13.936 0 0 1 234.127 6.398 Q 234 5.294 234 4 A 23.85 23.85 0 0 1 234.054 2.345 Q 234.147 1.013 234.4 0 L 242.4 0 A 11.741 11.741 0 0 1 242.644 1.313 Q 242.737 2.018 242.774 2.833 A 25.306 25.306 0 0 1 242.8 4 Q 242.8 5.968 242.507 7.496 A 12.311 12.311 0 0 1 242.4 8 A 11.741 11.741 0 0 1 242.644 9.313 Q 242.737 10.018 242.774 10.833 A 25.306 25.306 0 0 1 242.8 12 Q 242.8 13.968 242.507 15.496 A 12.311 12.311 0 0 1 242.4 16 A 11.741 11.741 0 0 1 242.644 17.313 Q 242.737 18.018 242.774 18.833 A 25.306 25.306 0 0 1 242.8 20 Q 242.8 21.968 242.507 23.496 A 12.311 12.311 0 0 1 242.4 24 Z M 482.4 24 L 485.4 24 L 498.4 24 Q 498.147 25.013 498.054 26.345 A 23.85 23.85 0 0 0 498 28 Q 498 29.294 498.127 30.398 A 13.936 13.936 0 0 0 498.4 32 Q 498.147 33.013 498.054 34.345 A 23.85 23.85 0 0 0 498 36 Q 498 37.294 498.127 38.398 A 13.936 13.936 0 0 0 498.4 40 Q 498.147 41.013 498.054 42.345 A 23.85 23.85 0 0 0 498 44 Q 498 45.294 498.127 46.398 A 13.936 13.936 0 0 0 498.4 48 Q 498.147 49.013 498.054 50.345 A 23.85 23.85 0 0 0 498 52 Q 498 53.294 498.127 54.398 A 13.936 13.936 0 0 0 498.4 56 L 506.4 56 A 12.311 12.311 0 0 0 506.507 55.496 Q 506.8 53.968 506.8 52 A 25.306 25.306 0 0 0 506.774 50.833 Q 506.698 49.194 506.4 48 A 12.311 12.311 0 0 0 506.507 47.496 Q 506.8 45.968 506.8 44 A 25.306 25.306 0 0 0 506.774 42.833 Q 506.698 41.194 506.4 40 A 12.311 12.311 0 0 0 506.507 39.496 Q 506.8 37.968 506.8 36 A 25.306 25.306 0 0 0 506.774 34.833 Q 506.698 33.194 506.4 32 A 12.311 12.311 0 0 0 506.507 31.496 Q 506.8 29.968 506.8 28 A 25.306 25.306 0 0 0 506.774 26.833 Q 506.698 25.194 506.4 24 L 501.4 24 A 12.311 12.311 0 0 0 501.507 23.496 Q 501.8 21.968 501.8 20 A 25.306 25.306 0 0 0 501.774 18.833 Q 501.698 17.194 501.4 16 L 485.4 16 Q 485.147 17.013 485.054 18.345 A 23.85 23.85 0 0 0 485 20 Q 485 21.294 485.127 22.398 A 13.936 13.936 0 0 0 485.4 24 A 11.741 11.741 0 0 1 485.644 25.313 Q 485.737 26.018 485.774 26.833 A 25.306 25.306 0 0 1 485.8 28 Q 485.8 29.968 485.507 31.496 A 12.311 12.311 0 0 1 485.4 32 L 482.4 32 A 11.741 11.741 0 0 1 482.644 33.313 Q 482.737 34.018 482.774 34.833 A 25.306 25.306 0 0 1 482.8 36 Q 482.8 37.968 482.507 39.496 A 12.311 12.311 0 0 1 482.4 40 A 11.741 11.741 0 0 1 482.644 41.313 Q 482.737 42.018 482.774 42.833 A 25.306 25.306 0 0 1 482.8 44 Q 482.8 45.968 482.507 47.496 A 12.311 12.311 0 0 1 482.4 48 A 11.741 11.741 0 0 1 482.644 49.313 Q 482.737 50.018 482.774 50.833 A 25.306 25.306 0 0 1 482.8 52 Q 482.8 53.968 482.507 55.496 A 12.311 12.311 0 0 1 482.4 56 L 474.4 56 A 13.936 13.936 0 0 1 474.127 54.398 Q 474 53.294 474 52 A 23.85 23.85 0 0 1 474.054 50.345 Q 474.147 49.013 474.4 48 A 13.936 13.936 0 0 1 474.127 46.398 Q 474 45.294 474 44 A 23.85 23.85 0 0 1 474.054 42.345 Q 474.147 41.013 474.4 40 A 13.936 13.936 0 0 1 474.127 38.398 Q 474 37.294 474 36 A 23.85 23.85 0 0 1 474.054 34.345 Q 474.147 33.013 474.4 32 A 13.936 13.936 0 0 1 474.127 30.398 Q 474 29.294 474 28 A 23.85 23.85 0 0 1 474.054 26.345 Q 474.147 25.013 474.4 24 A 13.936 13.936 0 0 1 474.127 22.398 Q 474 21.294 474 20 A 23.85 23.85 0 0 1 474.054 18.345 Q 474.147 17.013 474.4 16 A 13.936 13.936 0 0 1 474.127 14.398 Q 474 13.294 474 12 A 23.85 23.85 0 0 1 474.054 10.345 Q 474.147 9.013 474.4 8 A 13.936 13.936 0 0 1 474.127 6.398 Q 474 5.294 474 4 A 23.85 23.85 0 0 1 474.054 2.345 Q 474.147 1.013 474.4 0 L 482.4 0 A 11.741 11.741 0 0 1 482.644 1.313 Q 482.737 2.018 482.774 2.833 A 25.306 25.306 0 0 1 482.8 4 Q 482.8 5.968 482.507 7.496 A 12.311 12.311 0 0 1 482.4 8 A 11.741 11.741 0 0 1 482.644 9.313 Q 482.737 10.018 482.774 10.833 A 25.306 25.306 0 0 1 482.8 12 Q 482.8 13.968 482.507 15.496 A 12.311 12.311 0 0 1 482.4 16 A 11.741 11.741 0 0 1 482.644 17.313 Q 482.737 18.018 482.774 18.833 A 25.306 25.306 0 0 1 482.8 20 Q 482.8 21.968 482.507 23.496 A 12.311 12.311 0 0 1 482.4 24 Z M 744.4 48 L 740.4 48 Q 740.698 49.194 740.774 50.833 A 25.306 25.306 0 0 1 740.8 52 Q 740.8 53.968 740.507 55.496 A 12.311 12.311 0 0 1 740.4 56 L 718.4 56 A 13.936 13.936 0 0 1 718.127 54.398 Q 718 53.294 718 52 A 23.85 23.85 0 0 1 718.054 50.345 Q 718.147 49.013 718.4 48 L 736.4 48 A 13.936 13.936 0 0 1 736.127 46.398 Q 736 45.294 736 44 A 23.85 23.85 0 0 1 736.054 42.345 Q 736.147 41.013 736.4 40 L 720.4 40 A 13.936 13.936 0 0 1 720.127 38.398 Q 720 37.294 720 36 A 23.85 23.85 0 0 1 720.054 34.345 Q 720.147 33.013 720.4 32 L 716.4 32 A 13.936 13.936 0 0 1 716.127 30.398 Q 716 29.294 716 28 A 23.85 23.85 0 0 1 716.054 26.345 Q 716.147 25.013 716.4 24 L 720.4 24 A 13.936 13.936 0 0 1 720.127 22.398 Q 720 21.294 720 20 A 23.85 23.85 0 0 1 720.054 18.345 Q 720.147 17.013 720.4 16 L 742.4 16 A 11.741 11.741 0 0 1 742.644 17.313 Q 742.737 18.018 742.774 18.833 A 25.306 25.306 0 0 1 742.8 20 Q 742.8 21.968 742.507 23.496 A 12.311 12.311 0 0 1 742.4 24 L 724.4 24 A 11.741 11.741 0 0 1 724.644 25.313 Q 724.737 26.018 724.774 26.833 A 25.306 25.306 0 0 1 724.8 28 Q 724.8 29.968 724.507 31.496 A 12.311 12.311 0 0 1 724.4 32 L 740.4 32 Q 740.698 33.194 740.774 34.833 A 25.306 25.306 0 0 1 740.8 36 Q 740.8 37.968 740.507 39.496 A 12.311 12.311 0 0 1 740.4 40 L 744.4 40 Q 744.698 41.194 744.774 42.833 A 25.306 25.306 0 0 1 744.8 44 Q 744.8 45.968 744.507 47.496 A 12.311 12.311 0 0 1 744.4 48 Z M 864.4 48 L 860.4 48 Q 860.698 49.194 860.774 50.833 A 25.306 25.306 0 0 1 860.8 52 Q 860.8 53.968 860.507 55.496 A 12.311 12.311 0 0 1 860.4 56 L 838.4 56 A 13.936 13.936 0 0 1 838.127 54.398 Q 838 53.294 838 52 A 23.85 23.85 0 0 1 838.054 50.345 Q 838.147 49.013 838.4 48 L 856.4 48 A 13.936 13.936 0 0 1 856.127 46.398 Q 856 45.294 856 44 A 23.85 23.85 0 0 1 856.054 42.345 Q 856.147 41.013 856.4 40 L 840.4 40 A 13.936 13.936 0 0 1 840.127 38.398 Q 840 37.294 840 36 A 23.85 23.85 0 0 1 840.054 34.345 Q 840.147 33.013 840.4 32 L 836.4 32 A 13.936 13.936 0 0 1 836.127 30.398 Q 836 29.294 836 28 A 23.85 23.85 0 0 1 836.054 26.345 Q 836.147 25.013 836.4 24 L 840.4 24 A 13.936 13.936 0 0 1 840.127 22.398 Q 840 21.294 840 20 A 23.85 23.85 0 0 1 840.054 18.345 Q 840.147 17.013 840.4 16 L 862.4 16 A 11.741 11.741 0 0 1 862.644 17.313 Q 862.737 18.018 862.774 18.833 A 25.306 25.306 0 0 1 862.8 20 Q 862.8 21.968 862.507 23.496 A 12.311 12.311 0 0 1 862.4 24 L 844.4 24 A 11.741 11.741 0 0 1 844.644 25.313 Q 844.737 26.018 844.774 26.833 A 25.306 25.306 0 0 1 844.8 28 Q 844.8 29.968 844.507 31.496 A 12.311 12.311 0 0 1 844.4 32 L 860.4 32 Q 860.698 33.194 860.774 34.833 A 25.306 25.306 0 0 1 860.8 36 Q 860.8 37.968 860.507 39.496 A 12.311 12.311 0 0 1 860.4 40 L 864.4 40 Q 864.698 41.194 864.774 42.833 A 25.306 25.306 0 0 1 864.8 44 Q 864.8 45.968 864.507 47.496 A 12.311 12.311 0 0 1 864.4 48 Z M 904.4 48 L 900.4 48 Q 900.698 49.194 900.774 50.833 A 25.306 25.306 0 0 1 900.8 52 Q 900.8 53.968 900.507 55.496 A 12.311 12.311 0 0 1 900.4 56 L 878.4 56 A 13.936 13.936 0 0 1 878.127 54.398 Q 878 53.294 878 52 A 23.85 23.85 0 0 1 878.054 50.345 Q 878.147 49.013 878.4 48 L 896.4 48 A 13.936 13.936 0 0 1 896.127 46.398 Q 896 45.294 896 44 A 23.85 23.85 0 0 1 896.054 42.345 Q 896.147 41.013 896.4 40 L 880.4 40 A 13.936 13.936 0 0 1 880.127 38.398 Q 880 37.294 880 36 A 23.85 23.85 0 0 1 880.054 34.345 Q 880.147 33.013 880.4 32 L 876.4 32 A 13.936 13.936 0 0 1 876.127 30.398 Q 876 29.294 876 28 A 23.85 23.85 0 0 1 876.054 26.345 Q 876.147 25.013 876.4 24 L 880.4 24 A 13.936 13.936 0 0 1 880.127 22.398 Q 880 21.294 880 20 A 23.85 23.85 0 0 1 880.054 18.345 Q 880.147 17.013 880.4 16 L 902.4 16 A 11.741 11.741 0 0 1 902.644 17.313 Q 902.737 18.018 902.774 18.833 A 25.306 25.306 0 0 1 902.8 20 Q 902.8 21.968 902.507 23.496 A 12.311 12.311 0 0 1 902.4 24 L 884.4 24 A 11.741 11.741 0 0 1 884.644 25.313 Q 884.737 26.018 884.774 26.833 A 25.306 25.306 0 0 1 884.8 28 Q 884.8 29.968 884.507 31.496 A 12.311 12.311 0 0 1 884.4 32 L 900.4 32 Q 900.698 33.194 900.774 34.833 A 25.306 25.306 0 0 1 900.8 36 Q 900.8 37.968 900.507 39.496 A 12.311 12.311 0 0 1 900.4 40 L 904.4 40 Q 904.698 41.194 904.774 42.833 A 25.306 25.306 0 0 1 904.8 44 Q 904.8 45.968 904.507 47.496 A 12.311 12.311 0 0 1 904.4 48 Z M 626.4 32 L 618.4 32 A 13.936 13.936 0 0 1 618.127 30.398 Q 618 29.294 618 28 A 23.85 23.85 0 0 1 618.054 26.345 Q 618.147 25.013 618.4 24 L 611.4 24 Q 611.698 25.194 611.774 26.833 A 25.306 25.306 0 0 1 611.8 28 Q 611.8 29.968 611.507 31.496 A 12.311 12.311 0 0 1 611.4 32 L 608.4 32 A 11.741 11.741 0 0 1 608.644 33.313 Q 608.737 34.018 608.774 34.833 A 25.306 25.306 0 0 1 608.8 36 Q 608.8 37.968 608.507 39.496 A 12.311 12.311 0 0 1 608.4 40 A 11.741 11.741 0 0 1 608.644 41.313 Q 608.737 42.018 608.774 42.833 A 25.306 25.306 0 0 1 608.8 44 Q 608.8 45.968 608.507 47.496 A 12.311 12.311 0 0 1 608.4 48 L 614.4 48 Q 614.698 49.194 614.774 50.833 A 25.306 25.306 0 0 1 614.8 52 Q 614.8 53.968 614.507 55.496 A 12.311 12.311 0 0 1 614.4 56 L 594.4 56 A 13.936 13.936 0 0 1 594.127 54.398 Q 594 53.294 594 52 A 23.85 23.85 0 0 1 594.054 50.345 Q 594.147 49.013 594.4 48 L 600.4 48 A 13.936 13.936 0 0 1 600.127 46.398 Q 600 45.294 600 44 A 23.85 23.85 0 0 1 600.054 42.345 Q 600.147 41.013 600.4 40 A 13.936 13.936 0 0 1 600.127 38.398 Q 600 37.294 600 36 A 23.85 23.85 0 0 1 600.054 34.345 Q 600.147 33.013 600.4 32 A 13.936 13.936 0 0 1 600.127 30.398 Q 600 29.294 600 28 A 23.85 23.85 0 0 1 600.054 26.345 Q 600.147 25.013 600.4 24 L 594.4 24 A 13.936 13.936 0 0 1 594.127 22.398 Q 594 21.294 594 20 A 23.85 23.85 0 0 1 594.054 18.345 Q 594.147 17.013 594.4 16 L 604.4 16 A 11.741 11.741 0 0 1 604.644 17.313 Q 604.737 18.018 604.774 18.833 A 25.306 25.306 0 0 1 604.8 20 Q 604.8 21.968 604.507 23.496 A 12.311 12.311 0 0 1 604.4 24 L 608.4 24 A 13.936 13.936 0 0 1 608.127 22.398 Q 608 21.294 608 20 A 23.85 23.85 0 0 1 608.054 18.345 Q 608.147 17.013 608.4 16 L 623.4 16 A 11.741 11.741 0 0 1 623.644 17.313 Q 623.737 18.018 623.774 18.833 A 25.306 25.306 0 0 1 623.8 20 Q 623.8 21.968 623.507 23.496 A 12.311 12.311 0 0 1 623.4 24 L 626.4 24 Q 626.698 25.194 626.774 26.833 A 25.306 25.306 0 0 1 626.8 28 Q 626.8 29.968 626.507 31.496 A 12.311 12.311 0 0 1 626.4 32 Z M 770.4 48 L 782.4 48 A 11.741 11.741 0 0 1 782.644 49.313 Q 782.737 50.018 782.774 50.833 A 25.306 25.306 0 0 1 782.8 52 Q 782.8 53.968 782.507 55.496 A 12.311 12.311 0 0 1 782.4 56 L 766.4 56 A 13.936 13.936 0 0 1 766.127 54.398 Q 766 53.294 766 52 A 23.85 23.85 0 0 1 766.054 50.345 Q 766.147 49.013 766.4 48 L 762.4 48 A 13.936 13.936 0 0 1 762.127 46.398 Q 762 45.294 762 44 A 23.85 23.85 0 0 1 762.054 42.345 Q 762.147 41.013 762.4 40 A 13.936 13.936 0 0 1 762.127 38.398 Q 762 37.294 762 36 A 23.85 23.85 0 0 1 762.054 34.345 Q 762.147 33.013 762.4 32 A 13.936 13.936 0 0 1 762.127 30.398 Q 762 29.294 762 28 A 23.85 23.85 0 0 1 762.054 26.345 Q 762.147 25.013 762.4 24 L 754.4 24 A 13.936 13.936 0 0 1 754.127 22.398 Q 754 21.294 754 20 A 23.85 23.85 0 0 1 754.054 18.345 Q 754.147 17.013 754.4 16 L 762.4 16 A 13.936 13.936 0 0 1 762.127 14.398 Q 762 13.294 762 12 A 23.85 23.85 0 0 1 762.054 10.345 Q 762.147 9.013 762.4 8 A 13.936 13.936 0 0 1 762.127 6.398 Q 762 5.294 762 4 A 23.85 23.85 0 0 1 762.054 2.345 Q 762.147 1.013 762.4 0 L 770.4 0 Q 770.698 1.194 770.774 2.833 A 25.306 25.306 0 0 1 770.8 4 Q 770.8 5.968 770.507 7.496 A 12.311 12.311 0 0 1 770.4 8 Q 770.698 9.194 770.774 10.833 A 25.306 25.306 0 0 1 770.8 12 Q 770.8 13.968 770.507 15.496 A 12.311 12.311 0 0 1 770.4 16 L 782.4 16 A 11.741 11.741 0 0 1 782.644 17.313 Q 782.737 18.018 782.774 18.833 A 25.306 25.306 0 0 1 782.8 20 Q 782.8 21.968 782.507 23.496 A 12.311 12.311 0 0 1 782.4 24 L 770.4 24 Q 770.698 25.194 770.774 26.833 A 25.306 25.306 0 0 1 770.8 28 Q 770.8 29.968 770.507 31.496 A 12.311 12.311 0 0 1 770.4 32 Q 770.698 33.194 770.774 34.833 A 25.306 25.306 0 0 1 770.8 36 Q 770.8 37.968 770.507 39.496 A 12.311 12.311 0 0 1 770.4 40 Q 770.698 41.194 770.774 42.833 A 25.306 25.306 0 0 1 770.8 44 Q 770.8 45.968 770.507 47.496 A 12.311 12.311 0 0 1 770.4 48 Z M 306.4 40 L 285.4 40 A 11.741 11.741 0 0 1 285.644 41.313 Q 285.737 42.018 285.774 42.833 A 25.306 25.306 0 0 1 285.8 44 Q 285.8 45.968 285.507 47.496 A 12.311 12.311 0 0 1 285.4 48 L 302.4 48 A 11.741 11.741 0 0 1 302.644 49.313 Q 302.737 50.018 302.774 50.833 A 25.306 25.306 0 0 1 302.8 52 Q 302.8 53.968 302.507 55.496 A 12.311 12.311 0 0 1 302.4 56 L 282.4 56 A 13.936 13.936 0 0 1 282.127 54.398 Q 282 53.294 282 52 A 23.85 23.85 0 0 1 282.054 50.345 Q 282.147 49.013 282.4 48 L 277.4 48 A 13.936 13.936 0 0 1 277.127 46.398 Q 277 45.294 277 44 A 23.85 23.85 0 0 1 277.054 42.345 Q 277.147 41.013 277.4 40 L 274.4 40 A 13.936 13.936 0 0 1 274.127 38.398 Q 274 37.294 274 36 A 23.85 23.85 0 0 1 274.054 34.345 Q 274.147 33.013 274.4 32 L 277.4 32 A 13.936 13.936 0 0 1 277.127 30.398 Q 277 29.294 277 28 A 23.85 23.85 0 0 1 277.054 26.345 Q 277.147 25.013 277.4 24 L 282.4 24 A 13.936 13.936 0 0 1 282.127 22.398 Q 282 21.294 282 20 A 23.85 23.85 0 0 1 282.054 18.345 Q 282.147 17.013 282.4 16 L 302.4 16 A 11.741 11.741 0 0 1 302.644 17.313 Q 302.737 18.018 302.774 18.833 A 25.306 25.306 0 0 1 302.8 20 Q 302.8 21.968 302.507 23.496 A 12.311 12.311 0 0 1 302.4 24 L 306.4 24 Q 306.698 25.194 306.774 26.833 A 25.306 25.306 0 0 1 306.8 28 Q 306.8 29.968 306.507 31.496 A 12.311 12.311 0 0 1 306.4 32 Q 306.698 33.194 306.774 34.833 A 25.306 25.306 0 0 1 306.8 36 Q 306.8 37.968 306.507 39.496 A 12.311 12.311 0 0 1 306.4 40 Z M 706.4 40 L 685.4 40 A 11.741 11.741 0 0 1 685.644 41.313 Q 685.737 42.018 685.774 42.833 A 25.306 25.306 0 0 1 685.8 44 Q 685.8 45.968 685.507 47.496 A 12.311 12.311 0 0 1 685.4 48 L 702.4 48 A 11.741 11.741 0 0 1 702.644 49.313 Q 702.737 50.018 702.774 50.833 A 25.306 25.306 0 0 1 702.8 52 Q 702.8 53.968 702.507 55.496 A 12.311 12.311 0 0 1 702.4 56 L 682.4 56 A 13.936 13.936 0 0 1 682.127 54.398 Q 682 53.294 682 52 A 23.85 23.85 0 0 1 682.054 50.345 Q 682.147 49.013 682.4 48 L 677.4 48 A 13.936 13.936 0 0 1 677.127 46.398 Q 677 45.294 677 44 A 23.85 23.85 0 0 1 677.054 42.345 Q 677.147 41.013 677.4 40 L 674.4 40 A 13.936 13.936 0 0 1 674.127 38.398 Q 674 37.294 674 36 A 23.85 23.85 0 0 1 674.054 34.345 Q 674.147 33.013 674.4 32 L 677.4 32 A 13.936 13.936 0 0 1 677.127 30.398 Q 677 29.294 677 28 A 23.85 23.85 0 0 1 677.054 26.345 Q 677.147 25.013 677.4 24 L 682.4 24 A 13.936 13.936 0 0 1 682.127 22.398 Q 682 21.294 682 20 A 23.85 23.85 0 0 1 682.054 18.345 Q 682.147 17.013 682.4 16 L 702.4 16 A 11.741 11.741 0 0 1 702.644 17.313 Q 702.737 18.018 702.774 18.833 A 25.306 25.306 0 0 1 702.8 20 Q 702.8 21.968 702.507 23.496 A 12.311 12.311 0 0 1 702.4 24 L 706.4 24 Q 706.698 25.194 706.774 26.833 A 25.306 25.306 0 0 1 706.8 28 Q 706.8 29.968 706.507 31.496 A 12.311 12.311 0 0 1 706.4 32 Q 706.698 33.194 706.774 34.833 A 25.306 25.306 0 0 1 706.8 36 Q 706.8 37.968 706.507 39.496 A 12.311 12.311 0 0 1 706.4 40 Z M 826.4 40 L 805.4 40 A 11.741 11.741 0 0 1 805.644 41.313 Q 805.737 42.018 805.774 42.833 A 25.306 25.306 0 0 1 805.8 44 Q 805.8 45.968 805.507 47.496 A 12.311 12.311 0 0 1 805.4 48 L 822.4 48 A 11.741 11.741 0 0 1 822.644 49.313 Q 822.737 50.018 822.774 50.833 A 25.306 25.306 0 0 1 822.8 52 Q 822.8 53.968 822.507 55.496 A 12.311 12.311 0 0 1 822.4 56 L 802.4 56 A 13.936 13.936 0 0 1 802.127 54.398 Q 802 53.294 802 52 A 23.85 23.85 0 0 1 802.054 50.345 Q 802.147 49.013 802.4 48 L 797.4 48 A 13.936 13.936 0 0 1 797.127 46.398 Q 797 45.294 797 44 A 23.85 23.85 0 0 1 797.054 42.345 Q 797.147 41.013 797.4 40 L 794.4 40 A 13.936 13.936 0 0 1 794.127 38.398 Q 794 37.294 794 36 A 23.85 23.85 0 0 1 794.054 34.345 Q 794.147 33.013 794.4 32 L 797.4 32 A 13.936 13.936 0 0 1 797.127 30.398 Q 797 29.294 797 28 A 23.85 23.85 0 0 1 797.054 26.345 Q 797.147 25.013 797.4 24 L 802.4 24 A 13.936 13.936 0 0 1 802.127 22.398 Q 802 21.294 802 20 A 23.85 23.85 0 0 1 802.054 18.345 Q 802.147 17.013 802.4 16 L 822.4 16 A 11.741 11.741 0 0 1 822.644 17.313 Q 822.737 18.018 822.774 18.833 A 25.306 25.306 0 0 1 822.8 20 Q 822.8 21.968 822.507 23.496 A 12.311 12.311 0 0 1 822.4 24 L 826.4 24 Q 826.698 25.194 826.774 26.833 A 25.306 25.306 0 0 1 826.8 28 Q 826.8 29.968 826.507 31.496 A 12.311 12.311 0 0 1 826.4 32 Q 826.698 33.194 826.774 34.833 A 25.306 25.306 0 0 1 826.8 36 Q 826.8 37.968 826.507 39.496 A 12.311 12.311 0 0 1 826.4 40 Z M 14.4 48 L 20.4 48 Q 20.698 49.194 20.774 50.833 A 25.306 25.306 0 0 1 20.8 52 Q 20.8 53.968 20.507 55.496 A 12.311 12.311 0 0 1 20.4 56 L 0.4 56 A 13.936 13.936 0 0 1 0.127 54.398 Q 0 53.294 0 52 A 23.85 23.85 0 0 1 0.054 50.345 Q 0.147 49.013 0.4 48 L 6.4 48 A 13.936 13.936 0 0 1 6.127 46.398 Q 6 45.294 6 44 A 23.85 23.85 0 0 1 6.054 42.345 Q 6.147 41.013 6.4 40 A 13.936 13.936 0 0 1 6.127 38.398 Q 6 37.294 6 36 A 23.85 23.85 0 0 1 6.054 34.345 Q 6.147 33.013 6.4 32 A 13.936 13.936 0 0 1 6.127 30.398 Q 6 29.294 6 28 A 23.85 23.85 0 0 1 6.054 26.345 Q 6.147 25.013 6.4 24 A 13.936 13.936 0 0 1 6.127 22.398 Q 6 21.294 6 20 A 23.85 23.85 0 0 1 6.054 18.345 Q 6.147 17.013 6.4 16 A 13.936 13.936 0 0 1 6.127 14.398 Q 6 13.294 6 12 A 23.85 23.85 0 0 1 6.054 10.345 Q 6.147 9.013 6.4 8 L 0.4 8 A 13.936 13.936 0 0 1 0.127 6.398 Q 0 5.294 0 4 A 23.85 23.85 0 0 1 0.054 2.345 Q 0.147 1.013 0.4 0 L 20.4 0 Q 20.698 1.194 20.774 2.833 A 25.306 25.306 0 0 1 20.8 4 Q 20.8 5.968 20.507 7.496 A 12.311 12.311 0 0 1 20.4 8 L 14.4 8 Q 14.698 9.194 14.774 10.833 A 25.306 25.306 0 0 1 14.8 12 Q 14.8 13.968 14.507 15.496 A 12.311 12.311 0 0 1 14.4 16 Q 14.698 17.194 14.774 18.833 A 25.306 25.306 0 0 1 14.8 20 Q 14.8 21.968 14.507 23.496 A 12.311 12.311 0 0 1 14.4 24 Q 14.698 25.194 14.774 26.833 A 25.306 25.306 0 0 1 14.8 28 Q 14.8 29.968 14.507 31.496 A 12.311 12.311 0 0 1 14.4 32 Q 14.698 33.194 14.774 34.833 A 25.306 25.306 0 0 1 14.8 36 Q 14.8 37.968 14.507 39.496 A 12.311 12.311 0 0 1 14.4 40 Q 14.698 41.194 14.774 42.833 A 25.306 25.306 0 0 1 14.8 44 Q 14.8 45.968 14.507 47.496 A 12.311 12.311 0 0 1 14.4 48 Z M 54.4 48 L 60.4 48 Q 60.698 49.194 60.774 50.833 A 25.306 25.306 0 0 1 60.8 52 Q 60.8 53.968 60.507 55.496 A 12.311 12.311 0 0 1 60.4 56 L 40.4 56 A 13.936 13.936 0 0 1 40.127 54.398 Q 40 53.294 40 52 A 23.85 23.85 0 0 1 40.054 50.345 Q 40.147 49.013 40.4 48 L 46.4 48 A 13.936 13.936 0 0 1 46.127 46.398 Q 46 45.294 46 44 A 23.85 23.85 0 0 1 46.054 42.345 Q 46.147 41.013 46.4 40 A 13.936 13.936 0 0 1 46.127 38.398 Q 46 37.294 46 36 A 23.85 23.85 0 0 1 46.054 34.345 Q 46.147 33.013 46.4 32 A 13.936 13.936 0 0 1 46.127 30.398 Q 46 29.294 46 28 A 23.85 23.85 0 0 1 46.054 26.345 Q 46.147 25.013 46.4 24 A 13.936 13.936 0 0 1 46.127 22.398 Q 46 21.294 46 20 A 23.85 23.85 0 0 1 46.054 18.345 Q 46.147 17.013 46.4 16 A 13.936 13.936 0 0 1 46.127 14.398 Q 46 13.294 46 12 A 23.85 23.85 0 0 1 46.054 10.345 Q 46.147 9.013 46.4 8 L 40.4 8 A 13.936 13.936 0 0 1 40.127 6.398 Q 40 5.294 40 4 A 23.85 23.85 0 0 1 40.054 2.345 Q 40.147 1.013 40.4 0 L 60.4 0 Q 60.698 1.194 60.774 2.833 A 25.306 25.306 0 0 1 60.8 4 Q 60.8 5.968 60.507 7.496 A 12.311 12.311 0 0 1 60.4 8 L 54.4 8 Q 54.698 9.194 54.774 10.833 A 25.306 25.306 0 0 1 54.8 12 Q 54.8 13.968 54.507 15.496 A 12.311 12.311 0 0 1 54.4 16 Q 54.698 17.194 54.774 18.833 A 25.306 25.306 0 0 1 54.8 20 Q 54.8 21.968 54.507 23.496 A 12.311 12.311 0 0 1 54.4 24 Q 54.698 25.194 54.774 26.833 A 25.306 25.306 0 0 1 54.8 28 Q 54.8 29.968 54.507 31.496 A 12.311 12.311 0 0 1 54.4 32 Q 54.698 33.194 54.774 34.833 A 25.306 25.306 0 0 1 54.8 36 Q 54.8 37.968 54.507 39.496 A 12.311 12.311 0 0 1 54.4 40 Q 54.698 41.194 54.774 42.833 A 25.306 25.306 0 0 1 54.8 44 Q 54.8 45.968 54.507 47.496 A 12.311 12.311 0 0 1 54.4 48 Z M 226.4 8 L 214.4 8 Q 214.698 9.194 214.774 10.833 A 25.306 25.306 0 0 1 214.8 12 Q 214.8 13.968 214.507 15.496 A 12.311 12.311 0 0 1 214.4 16 Q 214.698 17.194 214.774 18.833 A 25.306 25.306 0 0 1 214.8 20 Q 214.8 21.968 214.507 23.496 A 12.311 12.311 0 0 1 214.4 24 Q 214.698 25.194 214.774 26.833 A 25.306 25.306 0 0 1 214.8 28 Q 214.8 29.968 214.507 31.496 A 12.311 12.311 0 0 1 214.4 32 Q 214.698 33.194 214.774 34.833 A 25.306 25.306 0 0 1 214.8 36 Q 214.8 37.968 214.507 39.496 A 12.311 12.311 0 0 1 214.4 40 Q 214.698 41.194 214.774 42.833 A 25.306 25.306 0 0 1 214.8 44 Q 214.8 45.968 214.507 47.496 A 12.311 12.311 0 0 1 214.4 48 Q 214.698 49.194 214.774 50.833 A 25.306 25.306 0 0 1 214.8 52 Q 214.8 53.968 214.507 55.496 A 12.311 12.311 0 0 1 214.4 56 L 206.4 56 A 13.936 13.936 0 0 1 206.127 54.398 Q 206 53.294 206 52 A 23.85 23.85 0 0 1 206.054 50.345 Q 206.147 49.013 206.4 48 A 13.936 13.936 0 0 1 206.127 46.398 Q 206 45.294 206 44 A 23.85 23.85 0 0 1 206.054 42.345 Q 206.147 41.013 206.4 40 A 13.936 13.936 0 0 1 206.127 38.398 Q 206 37.294 206 36 A 23.85 23.85 0 0 1 206.054 34.345 Q 206.147 33.013 206.4 32 A 13.936 13.936 0 0 1 206.127 30.398 Q 206 29.294 206 28 A 23.85 23.85 0 0 1 206.054 26.345 Q 206.147 25.013 206.4 24 A 13.936 13.936 0 0 1 206.127 22.398 Q 206 21.294 206 20 A 23.85 23.85 0 0 1 206.054 18.345 Q 206.147 17.013 206.4 16 A 13.936 13.936 0 0 1 206.127 14.398 Q 206 13.294 206 12 A 23.85 23.85 0 0 1 206.054 10.345 Q 206.147 9.013 206.4 8 L 194.4 8 A 13.936 13.936 0 0 1 194.127 6.398 Q 194 5.294 194 4 A 23.85 23.85 0 0 1 194.054 2.345 Q 194.147 1.013 194.4 0 L 226.4 0 Q 226.698 1.194 226.774 2.833 A 25.306 25.306 0 0 1 226.8 4 Q 226.8 5.968 226.507 7.496 A 12.311 12.311 0 0 1 226.4 8 Z M 586.4 24 L 582.4 24 A 11.741 11.741 0 0 1 582.644 25.313 Q 582.737 26.018 582.774 26.833 A 25.306 25.306 0 0 1 582.8 28 Q 582.8 29.968 582.507 31.496 A 12.311 12.311 0 0 1 582.4 32 L 562.4 32 A 11.741 11.741 0 0 1 562.644 33.313 Q 562.737 34.018 562.774 34.833 A 25.306 25.306 0 0 1 562.8 36 Q 562.8 37.968 562.507 39.496 A 12.311 12.311 0 0 1 562.4 40 A 11.741 11.741 0 0 1 562.644 41.313 Q 562.737 42.018 562.774 42.833 A 25.306 25.306 0 0 1 562.8 44 Q 562.8 45.968 562.507 47.496 A 12.311 12.311 0 0 1 562.4 48 A 11.741 11.741 0 0 1 562.644 49.313 Q 562.737 50.018 562.774 50.833 A 25.306 25.306 0 0 1 562.8 52 Q 562.8 53.968 562.507 55.496 A 12.311 12.311 0 0 1 562.4 56 L 554.4 56 A 13.936 13.936 0 0 1 554.127 54.398 Q 554 53.294 554 52 A 23.85 23.85 0 0 1 554.054 50.345 Q 554.147 49.013 554.4 48 A 13.936 13.936 0 0 1 554.127 46.398 Q 554 45.294 554 44 A 23.85 23.85 0 0 1 554.054 42.345 Q 554.147 41.013 554.4 40 A 13.936 13.936 0 0 1 554.127 38.398 Q 554 37.294 554 36 A 23.85 23.85 0 0 1 554.054 34.345 Q 554.147 33.013 554.4 32 A 13.936 13.936 0 0 1 554.127 30.398 Q 554 29.294 554 28 A 23.85 23.85 0 0 1 554.054 26.345 Q 554.147 25.013 554.4 24 A 13.936 13.936 0 0 1 554.127 22.398 Q 554 21.294 554 20 A 23.85 23.85 0 0 1 554.054 18.345 Q 554.147 17.013 554.4 16 A 13.936 13.936 0 0 1 554.127 14.398 Q 554 13.294 554 12 A 23.85 23.85 0 0 1 554.054 10.345 Q 554.147 9.013 554.4 8 A 13.936 13.936 0 0 1 554.127 6.398 Q 554 5.294 554 4 A 23.85 23.85 0 0 1 554.054 2.345 Q 554.147 1.013 554.4 0 L 582.4 0 A 11.741 11.741 0 0 1 582.644 1.313 Q 582.737 2.018 582.774 2.833 A 25.306 25.306 0 0 1 582.8 4 Q 582.8 5.968 582.507 7.496 A 12.311 12.311 0 0 1 582.4 8 L 586.4 8 Q 586.698 9.194 586.774 10.833 A 25.306 25.306 0 0 1 586.8 12 Q 586.8 13.968 586.507 15.496 A 12.311 12.311 0 0 1 586.4 16 Q 586.698 17.194 586.774 18.833 A 25.306 25.306 0 0 1 586.8 20 Q 586.8 21.968 586.507 23.496 A 12.311 12.311 0 0 1 586.4 24 Z M 422.4 56 L 398.4 56 A 13.936 13.936 0 0 1 398.127 54.398 Q 398 53.294 398 52 A 23.85 23.85 0 0 1 398.054 50.345 Q 398.147 49.013 398.4 48 L 406.4 48 A 13.936 13.936 0 0 1 406.127 46.398 Q 406 45.294 406 44 A 23.85 23.85 0 0 1 406.054 42.345 Q 406.147 41.013 406.4 40 A 13.936 13.936 0 0 1 406.127 38.398 Q 406 37.294 406 36 A 23.85 23.85 0 0 1 406.054 34.345 Q 406.147 33.013 406.4 32 A 13.936 13.936 0 0 1 406.127 30.398 Q 406 29.294 406 28 A 23.85 23.85 0 0 1 406.054 26.345 Q 406.147 25.013 406.4 24 L 400.4 24 A 13.936 13.936 0 0 1 400.127 22.398 Q 400 21.294 400 20 A 23.85 23.85 0 0 1 400.054 18.345 Q 400.147 17.013 400.4 16 L 414.4 16 Q 414.698 17.194 414.774 18.833 A 25.306 25.306 0 0 1 414.8 20 Q 414.8 21.968 414.507 23.496 A 12.311 12.311 0 0 1 414.4 24 Q 414.698 25.194 414.774 26.833 A 25.306 25.306 0 0 1 414.8 28 Q 414.8 29.968 414.507 31.496 A 12.311 12.311 0 0 1 414.4 32 Q 414.698 33.194 414.774 34.833 A 25.306 25.306 0 0 1 414.8 36 Q 414.8 37.968 414.507 39.496 A 12.311 12.311 0 0 1 414.4 40 Q 414.698 41.194 414.774 42.833 A 25.306 25.306 0 0 1 414.8 44 Q 414.8 45.968 414.507 47.496 A 12.311 12.311 0 0 1 414.4 48 L 422.4 48 A 11.741 11.741 0 0 1 422.644 49.313 Q 422.737 50.018 422.774 50.833 A 25.306 25.306 0 0 1 422.8 52 Q 422.8 53.968 422.507 55.496 A 12.311 12.311 0 0 1 422.4 56 Z M 662.4 56 L 638.4 56 A 13.936 13.936 0 0 1 638.127 54.398 Q 638 53.294 638 52 A 23.85 23.85 0 0 1 638.054 50.345 Q 638.147 49.013 638.4 48 L 646.4 48 A 13.936 13.936 0 0 1 646.127 46.398 Q 646 45.294 646 44 A 23.85 23.85 0 0 1 646.054 42.345 Q 646.147 41.013 646.4 40 A 13.936 13.936 0 0 1 646.127 38.398 Q 646 37.294 646 36 A 23.85 23.85 0 0 1 646.054 34.345 Q 646.147 33.013 646.4 32 A 13.936 13.936 0 0 1 646.127 30.398 Q 646 29.294 646 28 A 23.85 23.85 0 0 1 646.054 26.345 Q 646.147 25.013 646.4 24 L 640.4 24 A 13.936 13.936 0 0 1 640.127 22.398 Q 640 21.294 640 20 A 23.85 23.85 0 0 1 640.054 18.345 Q 640.147 17.013 640.4 16 L 654.4 16 Q 654.698 17.194 654.774 18.833 A 25.306 25.306 0 0 1 654.8 20 Q 654.8 21.968 654.507 23.496 A 12.311 12.311 0 0 1 654.4 24 Q 654.698 25.194 654.774 26.833 A 25.306 25.306 0 0 1 654.8 28 Q 654.8 29.968 654.507 31.496 A 12.311 12.311 0 0 1 654.4 32 Q 654.698 33.194 654.774 34.833 A 25.306 25.306 0 0 1 654.8 36 Q 654.8 37.968 654.507 39.496 A 12.311 12.311 0 0 1 654.4 40 Q 654.698 41.194 654.774 42.833 A 25.306 25.306 0 0 1 654.8 44 Q 654.8 45.968 654.507 47.496 A 12.311 12.311 0 0 1 654.4 48 L 662.4 48 A 11.741 11.741 0 0 1 662.644 49.313 Q 662.737 50.018 662.774 50.833 A 25.306 25.306 0 0 1 662.8 52 Q 662.8 53.968 662.507 55.496 A 12.311 12.311 0 0 1 662.4 56 Z M 578.4 8 L 562.4 8 A 11.741 11.741 0 0 1 562.644 9.313 Q 562.737 10.018 562.774 10.833 A 25.306 25.306 0 0 1 562.8 12 Q 562.8 13.968 562.507 15.496 A 12.311 12.311 0 0 1 562.4 16 A 11.741 11.741 0 0 1 562.644 17.313 Q 562.737 18.018 562.774 18.833 A 25.306 25.306 0 0 1 562.8 20 Q 562.8 21.968 562.507 23.496 A 12.311 12.311 0 0 1 562.4 24 L 578.4 24 A 13.936 13.936 0 0 1 578.127 22.398 Q 578 21.294 578 20 A 23.85 23.85 0 0 1 578.054 18.345 Q 578.147 17.013 578.4 16 A 13.936 13.936 0 0 1 578.127 14.398 Q 578 13.294 578 12 A 23.85 23.85 0 0 1 578.054 10.345 Q 578.147 9.013 578.4 8 Z M 120.4 24 L 140.4 24 Q 140.698 25.194 140.774 26.833 A 25.306 25.306 0 0 1 140.8 28 Q 140.8 29.968 140.507 31.496 A 12.311 12.311 0 0 1 140.4 32 L 120.4 32 A 13.936 13.936 0 0 1 120.127 30.398 Q 120 29.294 120 28 A 23.85 23.85 0 0 1 120.054 26.345 Q 120.147 25.013 120.4 24 Z M 298.4 24 L 285.4 24 A 11.741 11.741 0 0 1 285.644 25.313 Q 285.737 26.018 285.774 26.833 A 25.306 25.306 0 0 1 285.8 28 Q 285.8 29.968 285.507 31.496 A 12.311 12.311 0 0 1 285.4 32 L 298.4 32 A 13.936 13.936 0 0 1 298.127 30.398 Q 298 29.294 298 28 A 23.85 23.85 0 0 1 298.054 26.345 Q 298.147 25.013 298.4 24 Z M 698.4 24 L 685.4 24 A 11.741 11.741 0 0 1 685.644 25.313 Q 685.737 26.018 685.774 26.833 A 25.306 25.306 0 0 1 685.8 28 Q 685.8 29.968 685.507 31.496 A 12.311 12.311 0 0 1 685.4 32 L 698.4 32 A 13.936 13.936 0 0 1 698.127 30.398 Q 698 29.294 698 28 A 23.85 23.85 0 0 1 698.054 26.345 Q 698.147 25.013 698.4 24 Z M 818.4 24 L 805.4 24 A 11.741 11.741 0 0 1 805.644 25.313 Q 805.737 26.018 805.774 26.833 A 25.306 25.306 0 0 1 805.8 28 Q 805.8 29.968 805.507 31.496 A 12.311 12.311 0 0 1 805.4 32 L 818.4 32 A 13.936 13.936 0 0 1 818.127 30.398 Q 818 29.294 818 28 A 23.85 23.85 0 0 1 818.054 26.345 Q 818.147 25.013 818.4 24 Z M 414.4 8 L 406.4 8 A 13.936 13.936 0 0 1 406.127 6.398 Q 406 5.294 406 4 A 23.85 23.85 0 0 1 406.054 2.345 Q 406.147 1.013 406.4 0 L 414.4 0 Q 414.698 1.194 414.774 2.833 A 25.306 25.306 0 0 1 414.8 4 Q 414.8 5.968 414.507 7.496 A 12.311 12.311 0 0 1 414.4 8 Z M 654.4 8 L 646.4 8 A 13.936 13.936 0 0 1 646.127 6.398 Q 646 5.294 646 4 A 23.85 23.85 0 0 1 646.054 2.345 Q 646.147 1.013 646.4 0 L 654.4 0 Q 654.698 1.194 654.774 2.833 A 25.306 25.306 0 0 1 654.8 4 Q 654.8 5.968 654.507 7.496 A 12.311 12.311 0 0 1 654.4 8 Z M 454.4 56 A 12.311 12.311 0 0 0 454.507 55.496 Q 454.8 53.968 454.8 52 A 25.306 25.306 0 0 0 454.774 50.833 Q 454.698 49.194 454.4 48" vector-effect="non-scaling-stroke"/></g></svg>