<svg width="664.8" height="72" viewBox="0 0 664.8 72" xmlns="http://www.w3.org/2000/svg"><g id="svgGroup" stroke-linecap="round" fill-rule="evenodd" font-size="9pt" stroke="#000" stroke-width="0.25mm" fill="#000" style="stroke:#000;stroke-width:0.25mm;fill:#000"><path d="M 486.4 24 Q 486.698 25.194 486.774 26.833 A 25.306 25.306 0 0 1 486.8 28 Q 486.8 29.968 486.507 31.496 A 12.311 12.311 0 0 1 486.4 32 L 482.4 32 A 11.741 11.741 0 0 1 482.644 33.313 Q 482.737 34.018 482.774 34.833 A 25.306 25.306 0 0 1 482.8 36 Q 482.8 37.968 482.507 39.496 A 12.311 12.311 0 0 1 482.4 40 A 11.741 11.741 0 0 1 482.644 41.313 Q 482.737 42.018 482.774 42.833 A 25.306 25.306 0 0 1 482.8 44 Q 482.8 45.968 482.507 47.496 A 12.311 12.311 0 0 1 482.4 48 L 494.4 48 A 13.936 13.936 0 0 1 494.127 46.398 Q 494 45.294 494 44 A 23.85 23.85 0 0 1 494.054 42.345 Q 494.147 41.013 494.4 40 L 498.4 40 A 13.936 13.936 0 0 1 498.127 38.398 Q 498 37.294 498 36 A 23.85 23.85 0 0 1 498.054 34.345 Q 498.147 33.013 498.4 32 L 494.4 32 A 13.936 13.936 0 0 1 494.127 30.398 Q 494 29.294 494 28 A 23.85 23.85 0 0 1 494.054 26.345 Q 494.147 25.013 494.4 24 L 486.4 24 L 482.4 24 A 12.311 12.311 0 0 0 482.507 23.496 Q 482.8 21.968 482.8 20 A 25.306 25.306 0 0 0 482.774 18.833 Q 482.737 18.018 482.644 17.313 A 11.741 11.741 0 0 0 482.4 16 L 474.4 16 Q 474.147 17.013 474.054 18.345 A 23.85 23.85 0 0 0 474 20 Q 474 21.294 474.127 22.398 A 13.936 13.936 0 0 0 474.4 24 Q 474.147 25.013 474.054 26.345 A 23.85 23.85 0 0 0 474 28 Q 474 29.294 474.127 30.398 A 13.936 13.936 0 0 0 474.4 32 Q 474.147 33.013 474.054 34.345 A 23.85 23.85 0 0 0 474 36 Q 474 37.294 474.127 38.398 A 13.936 13.936 0 0 0 474.4 40 Q 474.147 41.013 474.054 42.345 A 23.85 23.85 0 0 0 474 44 Q 474 45.294 474.127 46.398 A 13.936 13.936 0 0 0 474.4 48 Q 474.147 49.013 474.054 50.345 A 23.85 23.85 0 0 0 474 52 Q 474 53.294 474.127 54.398 A 13.936 13.936 0 0 0 474.4 56 Q 474.147 57.013 474.054 58.345 A 23.85 23.85 0 0 0 474 60 Q 474 61.294 474.127 62.398 A 13.936 13.936 0 0 0 474.4 64 Q 474.147 65.013 474.054 66.345 A 23.85 23.85 0 0 0 474 68 Q 474 69.294 474.127 70.398 A 13.936 13.936 0 0 0 474.4 72 L 482.4 72 A 12.311 12.311 0 0 0 482.507 71.496 Q 482.8 69.968 482.8 68 A 25.306 25.306 0 0 0 482.774 66.833 Q 482.737 66.018 482.644 65.313 A 11.741 11.741 0 0 0 482.4 64 A 12.311 12.311 0 0 0 482.507 63.496 Q 482.8 61.968 482.8 60 A 25.306 25.306 0 0 0 482.774 58.833 Q 482.737 58.018 482.644 57.313 A 11.741 11.741 0 0 0 482.4 56 L 498.4 56 A 12.311 12.311 0 0 0 498.507 55.496 Q 498.8 53.968 498.8 52 A 25.306 25.306 0 0 0 498.774 50.833 Q 498.698 49.194 498.4 48 L 502.4 48 A 12.311 12.311 0 0 0 502.507 47.496 Q 502.8 45.968 502.8 44 A 25.306 25.306 0 0 0 502.774 42.833 Q 502.737 42.018 502.644 41.313 A 11.741 11.741 0 0 0 502.4 40 L 506.4 40 A 12.311 12.311 0 0 0 506.507 39.496 Q 506.8 37.968 506.8 36 A 25.306 25.306 0 0 0 506.774 34.833 Q 506.698 33.194 506.4 32 L 502.4 32 A 12.311 12.311 0 0 0 502.507 31.496 Q 502.8 29.968 502.8 28 A 25.306 25.306 0 0 0 502.774 26.833 Q 502.737 26.018 502.644 25.313 A 11.741 11.741 0 0 0 502.4 24 L 498.4 24 A 12.311 12.311 0 0 0 498.507 23.496 Q 498.8 21.968 498.8 20 A 25.306 25.306 0 0 0 498.774 18.833 Q 498.698 17.194 498.4 16 L 486.4 16 Q 486.147 17.013 486.054 18.345 A 23.85 23.85 0 0 0 486 20 Q 486 21.294 486.127 22.398 A 13.936 13.936 0 0 0 486.4 24 Z M 282.4 24 L 285.4 24 L 298.4 24 Q 298.147 25.013 298.054 26.345 A 23.85 23.85 0 0 0 298 28 Q 298 29.294 298.127 30.398 A 13.936 13.936 0 0 0 298.4 32 Q 298.147 33.013 298.054 34.345 A 23.85 23.85 0 0 0 298 36 Q 298 37.294 298.127 38.398 A 13.936 13.936 0 0 0 298.4 40 Q 298.147 41.013 298.054 42.345 A 23.85 23.85 0 0 0 298 44 Q 298 45.294 298.127 46.398 A 13.936 13.936 0 0 0 298.4 48 Q 298.147 49.013 298.054 50.345 A 23.85 23.85 0 0 0 298 52 Q 298 53.294 298.127 54.398 A 13.936 13.936 0 0 0 298.4 56 L 306.4 56 A 12.311 12.311 0 0 0 306.507 55.496 Q 306.8 53.968 306.8 52 A 25.306 25.306 0 0 0 306.774 50.833 Q 306.698 49.194 306.4 48 A 12.311 12.311 0 0 0 306.507 47.496 Q 306.8 45.968 306.8 44 A 25.306 25.306 0 0 0 306.774 42.833 Q 306.698 41.194 306.4 40 A 12.311 12.311 0 0 0 306.507 39.496 Q 306.8 37.968 306.8 36 A 25.306 25.306 0 0 0 306.774 34.833 Q 306.698 33.194 306.4 32 A 12.311 12.311 0 0 0 306.507 31.496 Q 306.8 29.968 306.8 28 A 25.306 25.306 0 0 0 306.774 26.833 Q 306.698 25.194 306.4 24 L 301.4 24 A 12.311 12.311 0 0 0 301.507 23.496 Q 301.8 21.968 301.8 20 A 25.306 25.306 0 0 0 301.774 18.833 Q 301.698 17.194 301.4 16 L 285.4 16 Q 285.147 17.013 285.054 18.345 A 23.85 23.85 0 0 0 285 20 Q 285 21.294 285.127 22.398 A 13.936 13.936 0 0 0 285.4 24 A 11.741 11.741 0 0 1 285.644 25.313 Q 285.737 26.018 285.774 26.833 A 25.306 25.306 0 0 1 285.8 28 Q 285.8 29.968 285.507 31.496 A 12.311 12.311 0 0 1 285.4 32 L 282.4 32 A 11.741 11.741 0 0 1 282.644 33.313 Q 282.737 34.018 282.774 34.833 A 25.306 25.306 0 0 1 282.8 36 Q 282.8 37.968 282.507 39.496 A 12.311 12.311 0 0 1 282.4 40 A 11.741 11.741 0 0 1 282.644 41.313 Q 282.737 42.018 282.774 42.833 A 25.306 25.306 0 0 1 282.8 44 Q 282.8 45.968 282.507 47.496 A 12.311 12.311 0 0 1 282.4 48 A 11.741 11.741 0 0 1 282.644 49.313 Q 282.737 50.018 282.774 50.833 A 25.306 25.306 0 0 1 282.8 52 Q 282.8 53.968 282.507 55.496 A 12.311 12.311 0 0 1 282.4 56 L 274.4 56 A 13.936 13.936 0 0 1 274.127 54.398 Q 274 53.294 274 52 A 23.85 23.85 0 0 1 274.054 50.345 Q 274.147 49.013 274.4 48 A 13.936 13.936 0 0 1 274.127 46.398 Q 274 45.294 274 44 A 23.85 23.85 0 0 1 274.054 42.345 Q 274.147 41.013 274.4 40 A 13.936 13.936 0 0 1 274.127 38.398 Q 274 37.294 274 36 A 23.85 23.85 0 0 1 274.054 34.345 Q 274.147 33.013 274.4 32 A 13.936 13.936 0 0 1 274.127 30.398 Q 274 29.294 274 28 A 23.85 23.85 0 0 1 274.054 26.345 Q 274.147 25.013 274.4 24 A 13.936 13.936 0 0 1 274.127 22.398 Q 274 21.294 274 20 A 23.85 23.85 0 0 1 274.054 18.345 Q 274.147 17.013 274.4 16 A 13.936 13.936 0 0 1 274.127 14.398 Q 274 13.294 274 12 A 23.85 23.85 0 0 1 274.054 10.345 Q 274.147 9.013 274.4 8 A 13.936 13.936 0 0 1 274.127 6.398 Q 274 5.294 274 4 A 23.85 23.85 0 0 1 274.054 2.345 Q 274.147 1.013 274.4 0 L 282.4 0 A 11.741 11.741 0 0 1 282.644 1.313 Q 282.737 2.018 282.774 2.833 A 25.306 25.306 0 0 1 282.8 4 Q 282.8 5.968 282.507 7.496 A 12.311 12.311 0 0 1 282.4 8 A 11.741 11.741 0 0 1 282.644 9.313 Q 282.737 10.018 282.774 10.833 A 25.306 25.306 0 0 1 282.8 12 Q 282.8 13.968 282.507 15.496 A 12.311 12.311 0 0 1 282.4 16 A 11.741 11.741 0 0 1 282.644 17.313 Q 282.737 18.018 282.774 18.833 A 25.306 25.306 0 0 1 282.8 20 Q 282.8 21.968 282.507 23.496 A 12.311 12.311 0 0 1 282.4 24 Z M 422.4 32 L 406.4 32 Q 406.698 33.194 406.774 34.833 A 25.306 25.306 0 0 1 406.8 36 Q 406.8 37.968 406.507 39.496 A 12.311 12.311 0 0 1 406.4 40 Q 406.698 41.194 406.774 42.833 A 25.306 25.306 0 0 1 406.8 44 Q 406.8 45.968 406.507 47.496 A 12.311 12.311 0 0 1 406.4 48 L 422.4 48 A 11.741 11.741 0 0 1 422.644 49.313 Q 422.737 50.018 422.774 50.833 A 25.306 25.306 0 0 1 422.8 52 Q 422.8 53.968 422.507 55.496 A 12.311 12.311 0 0 1 422.4 56 L 398.4 56 A 13.936 13.936 0 0 1 398.127 54.398 Q 398 53.294 398 52 A 23.85 23.85 0 0 1 398.054 50.345 Q 398.147 49.013 398.4 48 A 13.936 13.936 0 0 1 398.127 46.398 Q 398 45.294 398 44 A 23.85 23.85 0 0 1 398.054 42.345 Q 398.147 41.013 398.4 40 A 13.936 13.936 0 0 1 398.127 38.398 Q 398 37.294 398 36 A 23.85 23.85 0 0 1 398.054 34.345 Q 398.147 33.013 398.4 32 A 13.936 13.936 0 0 1 398.127 30.398 Q 398 29.294 398 28 A 23.85 23.85 0 0 1 398.054 26.345 Q 398.147 25.013 398.4 24 A 13.936 13.936 0 0 1 398.127 22.398 Q 398 21.294 398 20 A 23.85 23.85 0 0 1 398.054 18.345 Q 398.147 17.013 398.4 16 A 13.936 13.936 0 0 1 398.127 14.398 Q 398 13.294 398 12 A 23.85 23.85 0 0 1 398.054 10.345 Q 398.147 9.013 398.4 8 A 13.936 13.936 0 0 1 398.127 6.398 Q 398 5.294 398 4 A 23.85 23.85 0 0 1 398.054 2.345 Q 398.147 1.013 398.4 0 L 422.4 0 A 11.741 11.741 0 0 1 422.644 1.313 Q 422.737 2.018 422.774 2.833 A 25.306 25.306 0 0 1 422.8 4 Q 422.8 5.968 422.507 7.496 A 12.311 12.311 0 0 1 422.4 8 L 406.4 8 Q 406.698 9.194 406.774 10.833 A 25.306 25.306 0 0 1 406.8 12 Q 406.8 13.968 406.507 15.496 A 12.311 12.311 0 0 1 406.4 16 Q 406.698 17.194 406.774 18.833 A 25.306 25.306 0 0 1 406.8 20 Q 406.8 21.968 406.507 23.496 A 12.311 12.311 0 0 1 406.4 24 L 422.4 24 A 11.741 11.741 0 0 1 422.644 25.313 Q 422.737 26.018 422.774 26.833 A 25.306 25.306 0 0 1 422.8 28 Q 422.8 29.968 422.507 31.496 A 12.311 12.311 0 0 1 422.4 32 Z M 624.4 48 L 620.4 48 Q 620.698 49.194 620.774 50.833 A 25.306 25.306 0 0 1 620.8 52 Q 620.8 53.968 620.507 55.496 A 12.311 12.311 0 0 1 620.4 56 L 598.4 56 A 13.936 13.936 0 0 1 598.127 54.398 Q 598 53.294 598 52 A 23.85 23.85 0 0 1 598.054 50.345 Q 598.147 49.013 598.4 48 L 616.4 48 A 13.936 13.936 0 0 1 616.127 46.398 Q 616 45.294 616 44 A 23.85 23.85 0 0 1 616.054 42.345 Q 616.147 41.013 616.4 40 L 600.4 40 A 13.936 13.936 0 0 1 600.127 38.398 Q 600 37.294 600 36 A 23.85 23.85 0 0 1 600.054 34.345 Q 600.147 33.013 600.4 32 L 596.4 32 A 13.936 13.936 0 0 1 596.127 30.398 Q 596 29.294 596 28 A 23.85 23.85 0 0 1 596.054 26.345 Q 596.147 25.013 596.4 24 L 600.4 24 A 13.936 13.936 0 0 1 600.127 22.398 Q 600 21.294 600 20 A 23.85 23.85 0 0 1 600.054 18.345 Q 600.147 17.013 600.4 16 L 622.4 16 A 11.741 11.741 0 0 1 622.644 17.313 Q 622.737 18.018 622.774 18.833 A 25.306 25.306 0 0 1 622.8 20 Q 622.8 21.968 622.507 23.496 A 12.311 12.311 0 0 1 622.4 24 L 604.4 24 A 11.741 11.741 0 0 1 604.644 25.313 Q 604.737 26.018 604.774 26.833 A 25.306 25.306 0 0 1 604.8 28 Q 604.8 29.968 604.507 31.496 A 12.311 12.311 0 0 1 604.4 32 L 620.4 32 Q 620.698 33.194 620.774 34.833 A 25.306 25.306 0 0 1 620.8 36 Q 620.8 37.968 620.507 39.496 A 12.311 12.311 0 0 1 620.4 40 L 624.4 40 Q 624.698 41.194 624.774 42.833 A 25.306 25.306 0 0 1 624.8 44 Q 624.8 45.968 624.507 47.496 A 12.311 12.311 0 0 1 624.4 48 Z M 664.4 48 L 660.4 48 Q 660.698 49.194 660.774 50.833 A 25.306 25.306 0 0 1 660.8 52 Q 660.8 53.968 660.507 55.496 A 12.311 12.311 0 0 1 660.4 56 L 638.4 56 A 13.936 13.936 0 0 1 638.127 54.398 Q 638 53.294 638 52 A 23.85 23.85 0 0 1 638.054 50.345 Q 638.147 49.013 638.4 48 L 656.4 48 A 13.936 13.936 0 0 1 656.127 46.398 Q 656 45.294 656 44 A 23.85 23.85 0 0 1 656.054 42.345 Q 656.147 41.013 656.4 40 L 640.4 40 A 13.936 13.936 0 0 1 640.127 38.398 Q 640 37.294 640 36 A 23.85 23.85 0 0 1 640.054 34.345 Q 640.147 33.013 640.4 32 L 636.4 32 A 13.936 13.936 0 0 1 636.127 30.398 Q 636 29.294 636 28 A 23.85 23.85 0 0 1 636.054 26.345 Q 636.147 25.013 636.4 24 L 640.4 24 A 13.936 13.936 0 0 1 640.127 22.398 Q 640 21.294 640 20 A 23.85 23.85 0 0 1 640.054 18.345 Q 640.147 17.013 640.4 16 L 662.4 16 A 11.741 11.741 0 0 1 662.644 17.313 Q 662.737 18.018 662.774 18.833 A 25.306 25.306 0 0 1 662.8 20 Q 662.8 21.968 662.507 23.496 A 12.311 12.311 0 0 1 662.4 24 L 644.4 24 A 11.741 11.741 0 0 1 644.644 25.313 Q 644.737 26.018 644.774 26.833 A 25.306 25.306 0 0 1 644.8 28 Q 644.8 29.968 644.507 31.496 A 12.311 12.311 0 0 1 644.4 32 L 660.4 32 Q 660.698 33.194 660.774 34.833 A 25.306 25.306 0 0 1 660.8 36 Q 660.8 37.968 660.507 39.496 A 12.311 12.311 0 0 1 660.4 40 L 664.4 40 Q 664.698 41.194 664.774 42.833 A 25.306 25.306 0 0 1 664.8 44 Q 664.8 45.968 664.507 47.496 A 12.311 12.311 0 0 1 664.4 48 Z M 546.4 32 L 538.4 32 A 13.936 13.936 0 0 1 538.127 30.398 Q 538 29.294 538 28 A 23.85 23.85 0 0 1 538.054 26.345 Q 538.147 25.013 538.4 24 L 531.4 24 Q 531.698 25.194 531.774 26.833 A 25.306 25.306 0 0 1 531.8 28 Q 531.8 29.968 531.507 31.496 A 12.311 12.311 0 0 1 531.4 32 L 528.4 32 A 11.741 11.741 0 0 1 528.644 33.313 Q 528.737 34.018 528.774 34.833 A 25.306 25.306 0 0 1 528.8 36 Q 528.8 37.968 528.507 39.496 A 12.311 12.311 0 0 1 528.4 40 A 11.741 11.741 0 0 1 528.644 41.313 Q 528.737 42.018 528.774 42.833 A 25.306 25.306 0 0 1 528.8 44 Q 528.8 45.968 528.507 47.496 A 12.311 12.311 0 0 1 528.4 48 L 534.4 48 Q 534.698 49.194 534.774 50.833 A 25.306 25.306 0 0 1 534.8 52 Q 534.8 53.968 534.507 55.496 A 12.311 12.311 0 0 1 534.4 56 L 514.4 56 A 13.936 13.936 0 0 1 514.127 54.398 Q 514 53.294 514 52 A 23.85 23.85 0 0 1 514.054 50.345 Q 514.147 49.013 514.4 48 L 520.4 48 A 13.936 13.936 0 0 1 520.127 46.398 Q 520 45.294 520 44 A 23.85 23.85 0 0 1 520.054 42.345 Q 520.147 41.013 520.4 40 A 13.936 13.936 0 0 1 520.127 38.398 Q 520 37.294 520 36 A 23.85 23.85 0 0 1 520.054 34.345 Q 520.147 33.013 520.4 32 A 13.936 13.936 0 0 1 520.127 30.398 Q 520 29.294 520 28 A 23.85 23.85 0 0 1 520.054 26.345 Q 520.147 25.013 520.4 24 L 514.4 24 A 13.936 13.936 0 0 1 514.127 22.398 Q 514 21.294 514 20 A 23.85 23.85 0 0 1 514.054 18.345 Q 514.147 17.013 514.4 16 L 524.4 16 A 11.741 11.741 0 0 1 524.644 17.313 Q 524.737 18.018 524.774 18.833 A 25.306 25.306 0 0 1 524.8 20 Q 524.8 21.968 524.507 23.496 A 12.311 12.311 0 0 1 524.4 24 L 528.4 24 A 13.936 13.936 0 0 1 528.127 22.398 Q 528 21.294 528 20 A 23.85 23.85 0 0 1 528.054 18.345 Q 528.147 17.013 528.4 16 L 543.4 16 A 11.741 11.741 0 0 1 543.644 17.313 Q 543.737 18.018 543.774 18.833 A 25.306 25.306 0 0 1 543.8 20 Q 543.8 21.968 543.507 23.496 A 12.311 12.311 0 0 1 543.4 24 L 546.4 24 Q 546.698 25.194 546.774 26.833 A 25.306 25.306 0 0 1 546.8 28 Q 546.8 29.968 546.507 31.496 A 12.311 12.311 0 0 1 546.4 32 Z M 439.4 24 L 442.4 24 L 447.4 24 Q 447.147 25.013 447.054 26.345 A 23.85 23.85 0 0 0 447 28 Q 447 29.294 447.127 30.398 A 13.936 13.936 0 0 0 447.4 32 Q 447.147 33.013 447.054 34.345 A 23.85 23.85 0 0 0 447 36 Q 447 37.294 447.127 38.398 A 13.936 13.936 0 0 0 447.4 40 Q 447.147 41.013 447.054 42.345 A 23.85 23.85 0 0 0 447 44 Q 447 45.294 447.127 46.398 A 13.936 13.936 0 0 0 447.4 48 Q 447.147 49.013 447.054 50.345 A 23.85 23.85 0 0 0 447 52 Q 447 53.294 447.127 54.398 A 13.936 13.936 0 0 0 447.4 56 L 453.4 56 A 12.311 12.311 0 0 0 453.507 55.496 Q 453.8 53.968 453.8 52 A 25.306 25.306 0 0 0 453.774 50.833 Q 453.698 49.194 453.4 48 A 12.311 12.311 0 0 0 453.507 47.496 Q 453.8 45.968 453.8 44 A 25.306 25.306 0 0 0 453.774 42.833 Q 453.698 41.194 453.4 40 A 12.311 12.311 0 0 0 453.507 39.496 Q 453.8 37.968 453.8 36 A 25.306 25.306 0 0 0 453.774 34.833 Q 453.698 33.194 453.4 32 A 12.311 12.311 0 0 0 453.507 31.496 Q 453.8 29.968 453.8 28 A 25.306 25.306 0 0 0 453.774 26.833 Q 453.698 25.194 453.4 24 L 450.4 24 A 12.311 12.311 0 0 0 450.507 23.496 Q 450.8 21.968 450.8 20 A 25.306 25.306 0 0 0 450.774 18.833 Q 450.698 17.194 450.4 16 L 442.4 16 Q 442.147 17.013 442.054 18.345 A 23.85 23.85 0 0 0 442 20 Q 442 21.294 442.127 22.398 A 13.936 13.936 0 0 0 442.4 24 A 11.741 11.741 0 0 1 442.644 25.313 Q 442.737 26.018 442.774 26.833 A 25.306 25.306 0 0 1 442.8 28 Q 442.8 29.968 442.507 31.496 A 12.311 12.311 0 0 1 442.4 32 A 11.741 11.741 0 0 1 442.644 33.313 Q 442.737 34.018 442.774 34.833 A 25.306 25.306 0 0 1 442.8 36 Q 442.8 37.968 442.507 39.496 A 12.311 12.311 0 0 1 442.4 40 A 11.741 11.741 0 0 1 442.644 41.313 Q 442.737 42.018 442.774 42.833 A 25.306 25.306 0 0 1 442.8 44 Q 442.8 45.968 442.507 47.496 A 12.311 12.311 0 0 1 442.4 48 A 11.741 11.741 0 0 1 442.644 49.313 Q 442.737 50.018 442.774 50.833 A 25.306 25.306 0 0 1 442.8 52 Q 442.8 53.968 442.507 55.496 A 12.311 12.311 0 0 1 442.4 56 L 434.4 56 A 13.936 13.936 0 0 1 434.127 54.398 Q 434 53.294 434 52 A 23.85 23.85 0 0 1 434.054 50.345 Q 434.147 49.013 434.4 48 A 13.936 13.936 0 0 1 434.127 46.398 Q 434 45.294 434 44 A 23.85 23.85 0 0 1 434.054 42.345 Q 434.147 41.013 434.4 40 A 13.936 13.936 0 0 1 434.127 38.398 Q 434 37.294 434 36 A 23.85 23.85 0 0 1 434.054 34.345 Q 434.147 33.013 434.4 32 A 13.936 13.936 0 0 1 434.127 30.398 Q 434 29.294 434 28 A 23.85 23.85 0 0 1 434.054 26.345 Q 434.147 25.013 434.4 24 A 13.936 13.936 0 0 1 434.127 22.398 Q 434 21.294 434 20 A 23.85 23.85 0 0 1 434.054 18.345 Q 434.147 17.013 434.4 16 L 439.4 16 A 11.741 11.741 0 0 1 439.644 17.313 Q 439.737 18.018 439.774 18.833 A 25.306 25.306 0 0 1 439.8 20 Q 439.8 21.968 439.507 23.496 A 12.311 12.311 0 0 1 439.4 24 Z M 346.4 40 L 325.4 40 A 11.741 11.741 0 0 1 325.644 41.313 Q 325.737 42.018 325.774 42.833 A 25.306 25.306 0 0 1 325.8 44 Q 325.8 45.968 325.507 47.496 A 12.311 12.311 0 0 1 325.4 48 L 342.4 48 A 11.741 11.741 0 0 1 342.644 49.313 Q 342.737 50.018 342.774 50.833 A 25.306 25.306 0 0 1 342.8 52 Q 342.8 53.968 342.507 55.496 A 12.311 12.311 0 0 1 342.4 56 L 322.4 56 A 13.936 13.936 0 0 1 322.127 54.398 Q 322 53.294 322 52 A 23.85 23.85 0 0 1 322.054 50.345 Q 322.147 49.013 322.4 48 L 317.4 48 A 13.936 13.936 0 0 1 317.127 46.398 Q 317 45.294 317 44 A 23.85 23.85 0 0 1 317.054 42.345 Q 317.147 41.013 317.4 40 L 314.4 40 A 13.936 13.936 0 0 1 314.127 38.398 Q 314 37.294 314 36 A 23.85 23.85 0 0 1 314.054 34.345 Q 314.147 33.013 314.4 32 L 317.4 32 A 13.936 13.936 0 0 1 317.127 30.398 Q 317 29.294 317 28 A 23.85 23.85 0 0 1 317.054 26.345 Q 317.147 25.013 317.4 24 L 322.4 24 A 13.936 13.936 0 0 1 322.127 22.398 Q 322 21.294 322 20 A 23.85 23.85 0 0 1 322.054 18.345 Q 322.147 17.013 322.4 16 L 342.4 16 A 11.741 11.741 0 0 1 342.644 17.313 Q 342.737 18.018 342.774 18.833 A 25.306 25.306 0 0 1 342.8 20 Q 342.8 21.968 342.507 23.496 A 12.311 12.311 0 0 1 342.4 24 L 346.4 24 Q 346.698 25.194 346.774 26.833 A 25.306 25.306 0 0 1 346.8 28 Q 346.8 29.968 346.507 31.496 A 12.311 12.311 0 0 1 346.4 32 Q 346.698 33.194 346.774 34.833 A 25.306 25.306 0 0 1 346.8 36 Q 346.8 37.968 346.507 39.496 A 12.311 12.311 0 0 1 346.4 40 Z M 586.4 40 L 565.4 40 A 11.741 11.741 0 0 1 565.644 41.313 Q 565.737 42.018 565.774 42.833 A 25.306 25.306 0 0 1 565.8 44 Q 565.8 45.968 565.507 47.496 A 12.311 12.311 0 0 1 565.4 48 L 582.4 48 A 11.741 11.741 0 0 1 582.644 49.313 Q 582.737 50.018 582.774 50.833 A 25.306 25.306 0 0 1 582.8 52 Q 582.8 53.968 582.507 55.496 A 12.311 12.311 0 0 1 582.4 56 L 562.4 56 A 13.936 13.936 0 0 1 562.127 54.398 Q 562 53.294 562 52 A 23.85 23.85 0 0 1 562.054 50.345 Q 562.147 49.013 562.4 48 L 557.4 48 A 13.936 13.936 0 0 1 557.127 46.398 Q 557 45.294 557 44 A 23.85 23.85 0 0 1 557.054 42.345 Q 557.147 41.013 557.4 40 L 554.4 40 A 13.936 13.936 0 0 1 554.127 38.398 Q 554 37.294 554 36 A 23.85 23.85 0 0 1 554.054 34.345 Q 554.147 33.013 554.4 32 L 557.4 32 A 13.936 13.936 0 0 1 557.127 30.398 Q 557 29.294 557 28 A 23.85 23.85 0 0 1 557.054 26.345 Q 557.147 25.013 557.4 24 L 562.4 24 A 13.936 13.936 0 0 1 562.127 22.398 Q 562 21.294 562 20 A 23.85 23.85 0 0 1 562.054 18.345 Q 562.147 17.013 562.4 16 L 582.4 16 A 11.741 11.741 0 0 1 582.644 17.313 Q 582.737 18.018 582.774 18.833 A 25.306 25.306 0 0 1 582.8 20 Q 582.8 21.968 582.507 23.496 A 12.311 12.311 0 0 1 582.4 24 L 586.4 24 Q 586.698 25.194 586.774 26.833 A 25.306 25.306 0 0 1 586.8 28 Q 586.8 29.968 586.507 31.496 A 12.311 12.311 0 0 1 586.4 32 Q 586.698 33.194 586.774 34.833 A 25.306 25.306 0 0 1 586.8 36 Q 586.8 37.968 586.507 39.496 A 12.311 12.311 0 0 1 586.4 40 Z M 14.4 48 L 20.4 48 Q 20.698 49.194 20.774 50.833 A 25.306 25.306 0 0 1 20.8 52 Q 20.8 53.968 20.507 55.496 A 12.311 12.311 0 0 1 20.4 56 L 0.4 56 A 13.936 13.936 0 0 1 0.127 54.398 Q 0 53.294 0 52 A 23.85 23.85 0 0 1 0.054 50.345 Q 0.147 49.013 0.4 48 L 6.4 48 A 13.936 13.936 0 0 1 6.127 46.398 Q 6 45.294 6 44 A 23.85 23.85 0 0 1 6.054 42.345 Q 6.147 41.013 6.4 40 A 13.936 13.936 0 0 1 6.127 38.398 Q 6 37.294 6 36 A 23.85 23.85 0 0 1 6.054 34.345 Q 6.147 33.013 6.4 32 A 13.936 13.936 0 0 1 6.127 30.398 Q 6 29.294 6 28 A 23.85 23.85 0 0 1 6.054 26.345 Q 6.147 25.013 6.4 24 A 13.936 13.936 0 0 1 6.127 22.398 Q 6 21.294 6 20 A 23.85 23.85 0 0 1 6.054 18.345 Q 6.147 17.013 6.4 16 A 13.936 13.936 0 0 1 6.127 14.398 Q 6 13.294 6 12 A 23.85 23.85 0 0 1 6.054 10.345 Q 6.147 9.013 6.4 8 L 0.4 8 A 13.936 13.936 0 0 1 0.127 6.398 Q 0 5.294 0 4 A 23.85 23.85 0 0 1 0.054 2.345 Q 0.147 1.013 0.4 0 L 20.4 0 Q 20.698 1.194 20.774 2.833 A 25.306 25.306 0 0 1 20.8 4 Q 20.8 5.968 20.507 7.496 A 12.311 12.311 0 0 1 20.4 8 L 14.4 8 Q 14.698 9.194 14.774 10.833 A 25.306 25.306 0 0 1 14.8 12 Q 14.8 13.968 14.507 15.496 A 12.311 12.311 0 0 1 14.4 16 Q 14.698 17.194 14.774 18.833 A 25.306 25.306 0 0 1 14.8 20 Q 14.8 21.968 14.507 23.496 A 12.311 12.311 0 0 1 14.4 24 Q 14.698 25.194 14.774 26.833 A 25.306 25.306 0 0 1 14.8 28 Q 14.8 29.968 14.507 31.496 A 12.311 12.311 0 0 1 14.4 32 Q 14.698 33.194 14.774 34.833 A 25.306 25.306 0 0 1 14.8 36 Q 14.8 37.968 14.507 39.496 A 12.311 12.311 0 0 1 14.4 40 Q 14.698 41.194 14.774 42.833 A 25.306 25.306 0 0 1 14.8 44 Q 14.8 45.968 14.507 47.496 A 12.311 12.311 0 0 1 14.4 48 Z M 54.4 48 L 60.4 48 Q 60.698 49.194 60.774 50.833 A 25.306 25.306 0 0 1 60.8 52 Q 60.8 53.968 60.507 55.496 A 12.311 12.311 0 0 1 60.4 56 L 40.4 56 A 13.936 13.936 0 0 1 40.127 54.398 Q 40 53.294 40 52 A 23.85 23.85 0 0 1 40.054 50.345 Q 40.147 49.013 40.4 48 L 46.4 48 A 13.936 13.936 0 0 1 46.127 46.398 Q 46 45.294 46 44 A 23.85 23.85 0 0 1 46.054 42.345 Q 46.147 41.013 46.4 40 A 13.936 13.936 0 0 1 46.127 38.398 Q 46 37.294 46 36 A 23.85 23.85 0 0 1 46.054 34.345 Q 46.147 33.013 46.4 32 A 13.936 13.936 0 0 1 46.127 30.398 Q 46 29.294 46 28 A 23.85 23.85 0 0 1 46.054 26.345 Q 46.147 25.013 46.4 24 A 13.936 13.936 0 0 1 46.127 22.398 Q 46 21.294 46 20 A 23.85 23.85 0 0 1 46.054 18.345 Q 46.147 17.013 46.4 16 A 13.936 13.936 0 0 1 46.127 14.398 Q 46 13.294 46 12 A 23.85 23.85 0 0 1 46.054 10.345 Q 46.147 9.013 46.4 8 L 40.4 8 A 13.936 13.936 0 0 1 40.127 6.398 Q 40 5.294 40 4 A 23.85 23.85 0 0 1 40.054 2.345 Q 40.147 1.013 40.4 0 L 60.4 0 Q 60.698 1.194 60.774 2.833 A 25.306 25.306 0 0 1 60.8 4 Q 60.8 5.968 60.507 7.496 A 12.311 12.311 0 0 1 60.4 8 L 54.4 8 Q 54.698 9.194 54.774 10.833 A 25.306 25.306 0 0 1 54.8 12 Q 54.8 13.968 54.507 15.496 A 12.311 12.311 0 0 1 54.4 16 Q 54.698 17.194 54.774 18.833 A 25.306 25.306 0 0 1 54.8 20 Q 54.8 21.968 54.507 23.496 A 12.311 12.311 0 0 1 54.4 24 Q 54.698 25.194 54.774 26.833 A 25.306 25.306 0 0 1 54.8 28 Q 54.8 29.968 54.507 31.496 A 12.311 12.311 0 0 1 54.4 32 Q 54.698 33.194 54.774 34.833 A 25.306 25.306 0 0 1 54.8 36 Q 54.8 37.968 54.507 39.496 A 12.311 12.311 0 0 1 54.4 40 Q 54.698 41.194 54.774 42.833 A 25.306 25.306 0 0 1 54.8 44 Q 54.8 45.968 54.507 47.496 A 12.311 12.311 0 0 1 54.4 48 Z M 94.4 48 L 100.4 48 Q 100.698 49.194 100.774 50.833 A 25.306 25.306 0 0 1 100.8 52 Q 100.8 53.968 100.507 55.496 A 12.311 12.311 0 0 1 100.4 56 L 80.4 56 A 13.936 13.936 0 0 1 80.127 54.398 Q 80 53.294 80 52 A 23.85 23.85 0 0 1 80.054 50.345 Q 80.147 49.013 80.4 48 L 86.4 48 A 13.936 13.936 0 0 1 86.127 46.398 Q 86 45.294 86 44 A 23.85 23.85 0 0 1 86.054 42.345 Q 86.147 41.013 86.4 40 A 13.936 13.936 0 0 1 86.127 38.398 Q 86 37.294 86 36 A 23.85 23.85 0 0 1 86.054 34.345 Q 86.147 33.013 86.4 32 A 13.936 13.936 0 0 1 86.127 30.398 Q 86 29.294 86 28 A 23.85 23.85 0 0 1 86.054 26.345 Q 86.147 25.013 86.4 24 A 13.936 13.936 0 0 1 86.127 22.398 Q 86 21.294 86 20 A 23.85 23.85 0 0 1 86.054 18.345 Q 86.147 17.013 86.4 16 A 13.936 13.936 0 0 1 86.127 14.398 Q 86 13.294 86 12 A 23.85 23.85 0 0 1 86.054 10.345 Q 86.147 9.013 86.4 8 L 80.4 8 A 13.936 13.936 0 0 1 80.127 6.398 Q 80 5.294 80 4 A 23.85 23.85 0 0 1 80.054 2.345 Q 80.147 1.013 80.4 0 L 100.4 0 Q 100.698 1.194 100.774 2.833 A 25.306 25.306 0 0 1 100.8 4 Q 100.8 5.968 100.507 7.496 A 12.311 12.311 0 0 1 100.4 8 L 94.4 8 Q 94.698 9.194 94.774 10.833 A 25.306 25.306 0 0 1 94.8 12 Q 94.8 13.968 94.507 15.496 A 12.311 12.311 0 0 1 94.4 16 Q 94.698 17.194 94.774 18.833 A 25.306 25.306 0 0 1 94.8 20 Q 94.8 21.968 94.507 23.496 A 12.311 12.311 0 0 1 94.4 24 Q 94.698 25.194 94.774 26.833 A 25.306 25.306 0 0 1 94.8 28 Q 94.8 29.968 94.507 31.496 A 12.311 12.311 0 0 1 94.4 32 Q 94.698 33.194 94.774 34.833 A 25.306 25.306 0 0 1 94.8 36 Q 94.8 37.968 94.507 39.496 A 12.311 12.311 0 0 1 94.4 40 Q 94.698 41.194 94.774 42.833 A 25.306 25.306 0 0 1 94.8 44 Q 94.8 45.968 94.507 47.496 A 12.311 12.311 0 0 1 94.4 48 Z M 266.4 8 L 254.4 8 Q 254.698 9.194 254.774 10.833 A 25.306 25.306 0 0 1 254.8 12 Q 254.8 13.968 254.507 15.496 A 12.311 12.311 0 0 1 254.4 16 Q 254.698 17.194 254.774 18.833 A 25.306 25.306 0 0 1 254.8 20 Q 254.8 21.968 254.507 23.496 A 12.311 12.311 0 0 1 254.4 24 Q 254.698 25.194 254.774 26.833 A 25.306 25.306 0 0 1 254.8 28 Q 254.8 29.968 254.507 31.496 A 12.311 12.311 0 0 1 254.4 32 Q 254.698 33.194 254.774 34.833 A 25.306 25.306 0 0 1 254.8 36 Q 254.8 37.968 254.507 39.496 A 12.311 12.311 0 0 1 254.4 40 Q 254.698 41.194 254.774 42.833 A 25.306 25.306 0 0 1 254.8 44 Q 254.8 45.968 254.507 47.496 A 12.311 12.311 0 0 1 254.4 48 Q 254.698 49.194 254.774 50.833 A 25.306 25.306 0 0 1 254.8 52 Q 254.8 53.968 254.507 55.496 A 12.311 12.311 0 0 1 254.4 56 L 246.4 56 A 13.936 13.936 0 0 1 246.127 54.398 Q 246 53.294 246 52 A 23.85 23.85 0 0 1 246.054 50.345 Q 246.147 49.013 246.4 48 A 13.936 13.936 0 0 1 246.127 46.398 Q 246 45.294 246 44 A 23.85 23.85 0 0 1 246.054 42.345 Q 246.147 41.013 246.4 40 A 13.936 13.936 0 0 1 246.127 38.398 Q 246 37.294 246 36 A 23.85 23.85 0 0 1 246.054 34.345 Q 246.147 33.013 246.4 32 A 13.936 13.936 0 0 1 246.127 30.398 Q 246 29.294 246 28 A 23.85 23.85 0 0 1 246.054 26.345 Q 246.147 25.013 246.4 24 A 13.936 13.936 0 0 1 246.127 22.398 Q 246 21.294 246 20 A 23.85 23.85 0 0 1 246.054 18.345 Q 246.147 17.013 246.4 16 A 13.936 13.936 0 0 1 246.127 14.398 Q 246 13.294 246 12 A 23.85 23.85 0 0 1 246.054 10.345 Q 246.147 9.013 246.4 8 L 234.4 8 A 13.936 13.936 0 0 1 234.127 6.398 Q 234 5.294 234 4 A 23.85 23.85 0 0 1 234.054 2.345 Q 234.147 1.013 234.4 0 L 266.4 0 Q 266.698 1.194 266.774 2.833 A 25.306 25.306 0 0 1 266.8 4 Q 266.8 5.968 266.507 7.496 A 12.311 12.311 0 0 1 266.4 8 Z M 453.4 24 L 458.4 24 Q 458.147 25.013 458.054 26.345 A 23.85 23.85 0 0 0 458 28 Q 458 29.294 458.127 30.398 A 13.936 13.936 0 0 0 458.4 32 Q 458.147 33.013 458.054 34.345 A 23.85 23.85 0 0 0 458 36 Q 458 37.294 458.127 38.398 A 13.936 13.936 0 0 0 458.4 40 Q 458.147 41.013 458.054 42.345 A 23.85 23.85 0 0 0 458 44 Q 458 45.294 458.127 46.398 A 13.936 13.936 0 0 0 458.4 48 Q 458.147 49.013 458.054 50.345 A 23.85 23.85 0 0 0 458 52 Q 458 53.294 458.127 54.398 A 13.936 13.936 0 0 0 458.4 56 L 466.4 56 A 12.311 12.311 0 0 0 466.507 55.496 Q 466.8 53.968 466.8 52 A 25.306 25.306 0 0 0 466.774 50.833 Q 466.698 49.194 466.4 48 A 12.311 12.311 0 0 0 466.507 47.496 Q 466.8 45.968 466.8 44 A 25.306 25.306 0 0 0 466.774 42.833 Q 466.698 41.194 466.4 40 A 12.311 12.311 0 0 0 466.507 39.496 Q 466.8 37.968 466.8 36 A 25.306 25.306 0 0 0 466.774 34.833 Q 466.698 33.194 466.4 32 A 12.311 12.311 0 0 0 466.507 31.496 Q 466.8 29.968 466.8 28 A 25.306 25.306 0 0 0 466.774 26.833 Q 466.698 25.194 466.4 24 L 462.4 24 A 12.311 12.311 0 0 0 462.507 23.496 Q 462.8 21.968 462.8 20 A 25.306 25.306 0 0 0 462.774 18.833 Q 462.737 18.018 462.644 17.313 A 11.741 11.741 0 0 0 462.4 16 L 453.4 16 Q 453.147 17.013 453.054 18.345 A 23.85 23.85 0 0 0 453 20 Q 453 21.294 453.127 22.398 A 13.936 13.936 0 0 0 453.4 24 Z M 160.4 24 L 180.4 24 Q 180.698 25.194 180.774 26.833 A 25.306 25.306 0 0 1 180.8 28 Q 180.8 29.968 180.507 31.496 A 12.311 12.311 0 0 1 180.4 32 L 160.4 32 A 13.936 13.936 0 0 1 160.127 30.398 Q 160 29.294 160 28 A 23.85 23.85 0 0 1 160.054 26.345 Q 160.147 25.013 160.4 24 Z M 338.4 24 L 325.4 24 A 11.741 11.741 0 0 1 325.644 25.313 Q 325.737 26.018 325.774 26.833 A 25.306 25.306 0 0 1 325.8 28 Q 325.8 29.968 325.507 31.496 A 12.311 12.311 0 0 1 325.4 32 L 338.4 32 A 13.936 13.936 0 0 1 338.127 30.398 Q 338 29.294 338 28 A 23.85 23.85 0 0 1 338.054 26.345 Q 338.147 25.013 338.4 24 Z M 578.4 24 L 565.4 24 A 11.741 11.741 0 0 1 565.644 25.313 Q 565.737 26.018 565.774 26.833 A 25.306 25.306 0 0 1 565.8 28 Q 565.8 29.968 565.507 31.496 A 12.311 12.311 0 0 1 565.4 32 L 578.4 32 A 13.936 13.936 0 0 1 578.127 30.398 Q 578 29.294 578 28 A 23.85 23.85 0 0 1 578.054 26.345 Q 578.147 25.013 578.4 24 Z M 453.4 24 Q 453.698 25.194 453.774 26.833" vector-effect="non-scaling-stroke"/></g></svg>