<svg width="626.8" height="72" viewBox="0 0 626.8 72" xmlns="http://www.w3.org/2000/svg"><g id="svgGroup" stroke-linecap="round" fill-rule="evenodd" font-size="9pt" stroke="#000" stroke-width="0.25mm" fill="#000" style="stroke:#000;stroke-width:0.25mm;fill:#000"><path d="M 446.4 24 Q 446.698 25.194 446.774 26.833 A 25.306 25.306 0 0 1 446.8 28 Q 446.8 29.968 446.507 31.496 A 12.311 12.311 0 0 1 446.4 32 L 442.4 32 A 11.741 11.741 0 0 1 442.644 33.313 Q 442.737 34.018 442.774 34.833 A 25.306 25.306 0 0 1 442.8 36 Q 442.8 37.968 442.507 39.496 A 12.311 12.311 0 0 1 442.4 40 A 11.741 11.741 0 0 1 442.644 41.313 Q 442.737 42.018 442.774 42.833 A 25.306 25.306 0 0 1 442.8 44 Q 442.8 45.968 442.507 47.496 A 12.311 12.311 0 0 1 442.4 48 L 454.4 48 A 13.936 13.936 0 0 1 454.127 46.398 Q 454 45.294 454 44 A 23.85 23.85 0 0 1 454.054 42.345 Q 454.147 41.013 454.4 40 L 458.4 40 A 13.936 13.936 0 0 1 458.127 38.398 Q 458 37.294 458 36 A 23.85 23.85 0 0 1 458.054 34.345 Q 458.147 33.013 458.4 32 L 454.4 32 A 13.936 13.936 0 0 1 454.127 30.398 Q 454 29.294 454 28 A 23.85 23.85 0 0 1 454.054 26.345 Q 454.147 25.013 454.4 24 L 446.4 24 L 442.4 24 A 12.311 12.311 0 0 0 442.507 23.496 Q 442.8 21.968 442.8 20 A 25.306 25.306 0 0 0 442.774 18.833 Q 442.737 18.018 442.644 17.313 A 11.741 11.741 0 0 0 442.4 16 L 434.4 16 Q 434.147 17.013 434.054 18.345 A 23.85 23.85 0 0 0 434 20 Q 434 21.294 434.127 22.398 A 13.936 13.936 0 0 0 434.4 24 Q 434.147 25.013 434.054 26.345 A 23.85 23.85 0 0 0 434 28 Q 434 29.294 434.127 30.398 A 13.936 13.936 0 0 0 434.4 32 Q 434.147 33.013 434.054 34.345 A 23.85 23.85 0 0 0 434 36 Q 434 37.294 434.127 38.398 A 13.936 13.936 0 0 0 434.4 40 Q 434.147 41.013 434.054 42.345 A 23.85 23.85 0 0 0 434 44 Q 434 45.294 434.127 46.398 A 13.936 13.936 0 0 0 434.4 48 Q 434.147 49.013 434.054 50.345 A 23.85 23.85 0 0 0 434 52 Q 434 53.294 434.127 54.398 A 13.936 13.936 0 0 0 434.4 56 Q 434.147 57.013 434.054 58.345 A 23.85 23.85 0 0 0 434 60 Q 434 61.294 434.127 62.398 A 13.936 13.936 0 0 0 434.4 64 Q 434.147 65.013 434.054 66.345 A 23.85 23.85 0 0 0 434 68 Q 434 69.294 434.127 70.398 A 13.936 13.936 0 0 0 434.4 72 L 442.4 72 A 12.311 12.311 0 0 0 442.507 71.496 Q 442.8 69.968 442.8 68 A 25.306 25.306 0 0 0 442.774 66.833 Q 442.737 66.018 442.644 65.313 A 11.741 11.741 0 0 0 442.4 64 A 12.311 12.311 0 0 0 442.507 63.496 Q 442.8 61.968 442.8 60 A 25.306 25.306 0 0 0 442.774 58.833 Q 442.737 58.018 442.644 57.313 A 11.741 11.741 0 0 0 442.4 56 L 458.4 56 A 12.311 12.311 0 0 0 458.507 55.496 Q 458.8 53.968 458.8 52 A 25.306 25.306 0 0 0 458.774 50.833 Q 458.698 49.194 458.4 48 L 462.4 48 A 12.311 12.311 0 0 0 462.507 47.496 Q 462.8 45.968 462.8 44 A 25.306 25.306 0 0 0 462.774 42.833 Q 462.737 42.018 462.644 41.313 A 11.741 11.741 0 0 0 462.4 40 L 466.4 40 A 12.311 12.311 0 0 0 466.507 39.496 Q 466.8 37.968 466.8 36 A 25.306 25.306 0 0 0 466.774 34.833 Q 466.698 33.194 466.4 32 L 462.4 32 A 12.311 12.311 0 0 0 462.507 31.496 Q 462.8 29.968 462.8 28 A 25.306 25.306 0 0 0 462.774 26.833 Q 462.737 26.018 462.644 25.313 A 11.741 11.741 0 0 0 462.4 24 L 458.4 24 A 12.311 12.311 0 0 0 458.507 23.496 Q 458.8 21.968 458.8 20 A 25.306 25.306 0 0 0 458.774 18.833 Q 458.698 17.194 458.4 16 L 446.4 16 Q 446.147 17.013 446.054 18.345 A 23.85 23.85 0 0 0 446 20 Q 446 21.294 446.127 22.398 A 13.936 13.936 0 0 0 446.4 24 Z M 66.4 24 L 63.4 24 A 11.741 11.741 0 0 1 63.644 25.313 Q 63.737 26.018 63.774 26.833 A 25.306 25.306 0 0 1 63.8 28 Q 63.8 29.968 63.507 31.496 A 12.311 12.311 0 0 1 63.4 32 L 60.4 32 Q 60.698 33.194 60.774 34.833 A 25.306 25.306 0 0 1 60.8 36 Q 60.8 37.968 60.507 39.496 A 12.311 12.311 0 0 1 60.4 40 L 58.4 40 Q 58.698 41.194 58.774 42.833 A 25.306 25.306 0 0 1 58.8 44 Q 58.8 45.968 58.507 47.496 A 12.311 12.311 0 0 1 58.4 48 L 54.4 48 Q 54.698 49.194 54.774 50.833 A 25.306 25.306 0 0 1 54.8 52 Q 54.8 53.968 54.507 55.496 A 12.311 12.311 0 0 1 54.4 56 L 46.4 56 A 13.936 13.936 0 0 1 46.127 54.398 Q 46 53.294 46 52 A 23.85 23.85 0 0 1 46.054 50.345 Q 46.147 49.013 46.4 48 L 42.4 48 A 13.936 13.936 0 0 1 42.127 46.398 Q 42 45.294 42 44 A 23.85 23.85 0 0 1 42.054 42.345 Q 42.147 41.013 42.4 40 L 40.4 40 A 13.936 13.936 0 0 1 40.127 38.398 Q 40 37.294 40 36 A 23.85 23.85 0 0 1 40.054 34.345 Q 40.147 33.013 40.4 32 L 37.4 32 A 13.936 13.936 0 0 1 37.127 30.398 Q 37 29.294 37 28 A 23.85 23.85 0 0 1 37.054 26.345 Q 37.147 25.013 37.4 24 L 34.4 24 A 13.936 13.936 0 0 1 34.127 22.398 Q 34 21.294 34 20 A 23.85 23.85 0 0 1 34.054 18.345 Q 34.147 17.013 34.4 16 A 13.936 13.936 0 0 1 34.127 14.398 Q 34 13.294 34 12 A 23.85 23.85 0 0 1 34.054 10.345 Q 34.147 9.013 34.4 8 A 13.936 13.936 0 0 1 34.127 6.398 Q 34 5.294 34 4 A 23.85 23.85 0 0 1 34.054 2.345 Q 34.147 1.013 34.4 0 L 42.4 0 A 11.741 11.741 0 0 1 42.644 1.313 Q 42.737 2.018 42.774 2.833 A 25.306 25.306 0 0 1 42.8 4 Q 42.8 5.968 42.507 7.496 A 12.311 12.311 0 0 1 42.4 8 A 11.741 11.741 0 0 1 42.644 9.313 Q 42.737 10.018 42.774 10.833 A 25.306 25.306 0 0 1 42.8 12 Q 42.8 13.968 42.507 15.496 A 12.311 12.311 0 0 1 42.4 16 A 11.741 11.741 0 0 1 42.644 17.313 Q 42.737 18.018 42.774 18.833 A 25.306 25.306 0 0 1 42.8 20 Q 42.8 21.968 42.507 23.496 A 12.311 12.311 0 0 1 42.4 24 L 45.4 24 A 11.741 11.741 0 0 1 45.644 25.313 Q 45.737 26.018 45.774 26.833 A 25.306 25.306 0 0 1 45.8 28 Q 45.8 29.968 45.507 31.496 A 12.311 12.311 0 0 1 45.4 32 L 48.4 32 A 11.741 11.741 0 0 1 48.644 33.313 Q 48.737 34.018 48.774 34.833 A 25.306 25.306 0 0 1 48.8 36 Q 48.8 37.968 48.507 39.496 A 12.311 12.311 0 0 1 48.4 40 L 52.4 40 A 13.936 13.936 0 0 1 52.127 38.398 Q 52 37.294 52 36 A 23.85 23.85 0 0 1 52.054 34.345 Q 52.147 33.013 52.4 32 L 55.4 32 A 13.936 13.936 0 0 1 55.127 30.398 Q 55 29.294 55 28 A 23.85 23.85 0 0 1 55.054 26.345 Q 55.147 25.013 55.4 24 L 58.4 24 A 13.936 13.936 0 0 1 58.127 22.398 Q 58 21.294 58 20 A 23.85 23.85 0 0 1 58.054 18.345 Q 58.147 17.013 58.4 16 A 13.936 13.936 0 0 1 58.127 14.398 Q 58 13.294 58 12 A 23.85 23.85 0 0 1 58.054 10.345 Q 58.147 9.013 58.4 8 A 13.936 13.936 0 0 1 58.127 6.398 Q 58 5.294 58 4 A 23.85 23.85 0 0 1 58.054 2.345 Q 58.147 1.013 58.4 0 L 66.4 0 Q 66.698 1.194 66.774 2.833 A 25.306 25.306 0 0 1 66.8 4 Q 66.8 5.968 66.507 7.496 A 12.311 12.311 0 0 1 66.4 8 Q 66.698 9.194 66.774 10.833 A 25.306 25.306 0 0 1 66.8 12 Q 66.8 13.968 66.507 15.496 A 12.311 12.311 0 0 1 66.4 16 Q 66.698 17.194 66.774 18.833 A 25.306 25.306 0 0 1 66.8 20 Q 66.8 21.968 66.507 23.496 A 12.311 12.311 0 0 1 66.4 24 Z M 242.4 24 L 245.4 24 L 258.4 24 Q 258.147 25.013 258.054 26.345 A 23.85 23.85 0 0 0 258 28 Q 258 29.294 258.127 30.398 A 13.936 13.936 0 0 0 258.4 32 Q 258.147 33.013 258.054 34.345 A 23.85 23.85 0 0 0 258 36 Q 258 37.294 258.127 38.398 A 13.936 13.936 0 0 0 258.4 40 Q 258.147 41.013 258.054 42.345 A 23.85 23.85 0 0 0 258 44 Q 258 45.294 258.127 46.398 A 13.936 13.936 0 0 0 258.4 48 Q 258.147 49.013 258.054 50.345 A 23.85 23.85 0 0 0 258 52 Q 258 53.294 258.127 54.398 A 13.936 13.936 0 0 0 258.4 56 L 266.4 56 A 12.311 12.311 0 0 0 266.507 55.496 Q 266.8 53.968 266.8 52 A 25.306 25.306 0 0 0 266.774 50.833 Q 266.698 49.194 266.4 48 A 12.311 12.311 0 0 0 266.507 47.496 Q 266.8 45.968 266.8 44 A 25.306 25.306 0 0 0 266.774 42.833 Q 266.698 41.194 266.4 40 A 12.311 12.311 0 0 0 266.507 39.496 Q 266.8 37.968 266.8 36 A 25.306 25.306 0 0 0 266.774 34.833 Q 266.698 33.194 266.4 32 A 12.311 12.311 0 0 0 266.507 31.496 Q 266.8 29.968 266.8 28 A 25.306 25.306 0 0 0 266.774 26.833 Q 266.698 25.194 266.4 24 L 261.4 24 A 12.311 12.311 0 0 0 261.507 23.496 Q 261.8 21.968 261.8 20 A 25.306 25.306 0 0 0 261.774 18.833 Q 261.698 17.194 261.4 16 L 245.4 16 Q 245.147 17.013 245.054 18.345 A 23.85 23.85 0 0 0 245 20 Q 245 21.294 245.127 22.398 A 13.936 13.936 0 0 0 245.4 24 A 11.741 11.741 0 0 1 245.644 25.313 Q 245.737 26.018 245.774 26.833 A 25.306 25.306 0 0 1 245.8 28 Q 245.8 29.968 245.507 31.496 A 12.311 12.311 0 0 1 245.4 32 L 242.4 32 A 11.741 11.741 0 0 1 242.644 33.313 Q 242.737 34.018 242.774 34.833 A 25.306 25.306 0 0 1 242.8 36 Q 242.8 37.968 242.507 39.496 A 12.311 12.311 0 0 1 242.4 40 A 11.741 11.741 0 0 1 242.644 41.313 Q 242.737 42.018 242.774 42.833 A 25.306 25.306 0 0 1 242.8 44 Q 242.8 45.968 242.507 47.496 A 12.311 12.311 0 0 1 242.4 48 A 11.741 11.741 0 0 1 242.644 49.313 Q 242.737 50.018 242.774 50.833 A 25.306 25.306 0 0 1 242.8 52 Q 242.8 53.968 242.507 55.496 A 12.311 12.311 0 0 1 242.4 56 L 234.4 56 A 13.936 13.936 0 0 1 234.127 54.398 Q 234 53.294 234 52 A 23.85 23.85 0 0 1 234.054 50.345 Q 234.147 49.013 234.4 48 A 13.936 13.936 0 0 1 234.127 46.398 Q 234 45.294 234 44 A 23.85 23.85 0 0 1 234.054 42.345 Q 234.147 41.013 234.4 40 A 13.936 13.936 0 0 1 234.127 38.398 Q 234 37.294 234 36 A 23.85 23.85 0 0 1 234.054 34.345 Q 234.147 33.013 234.4 32 A 13.936 13.936 0 0 1 234.127 30.398 Q 234 29.294 234 28 A 23.85 23.85 0 0 1 234.054 26.345 Q 234.147 25.013 234.4 24 A 13.936 13.936 0 0 1 234.127 22.398 Q 234 21.294 234 20 A 23.85 23.85 0 0 1 234.054 18.345 Q 234.147 17.013 234.4 16 A 13.936 13.936 0 0 1 234.127 14.398 Q 234 13.294 234 12 A 23.85 23.85 0 0 1 234.054 10.345 Q 234.147 9.013 234.4 8 A 13.936 13.936 0 0 1 234.127 6.398 Q 234 5.294 234 4 A 23.85 23.85 0 0 1 234.054 2.345 Q 234.147 1.013 234.4 0 L 242.4 0 A 11.741 11.741 0 0 1 242.644 1.313 Q 242.737 2.018 242.774 2.833 A 25.306 25.306 0 0 1 242.8 4 Q 242.8 5.968 242.507 7.496 A 12.311 12.311 0 0 1 242.4 8 A 11.741 11.741 0 0 1 242.644 9.313 Q 242.737 10.018 242.774 10.833 A 25.306 25.306 0 0 1 242.8 12 Q 242.8 13.968 242.507 15.496 A 12.311 12.311 0 0 1 242.4 16 A 11.741 11.741 0 0 1 242.644 17.313 Q 242.737 18.018 242.774 18.833 A 25.306 25.306 0 0 1 242.8 20 Q 242.8 21.968 242.507 23.496 A 12.311 12.311 0 0 1 242.4 24 Z M 382.4 32 L 366.4 32 Q 366.698 33.194 366.774 34.833 A 25.306 25.306 0 0 1 366.8 36 Q 366.8 37.968 366.507 39.496 A 12.311 12.311 0 0 1 366.4 40 Q 366.698 41.194 366.774 42.833 A 25.306 25.306 0 0 1 366.8 44 Q 366.8 45.968 366.507 47.496 A 12.311 12.311 0 0 1 366.4 48 L 382.4 48 A 11.741 11.741 0 0 1 382.644 49.313 Q 382.737 50.018 382.774 50.833 A 25.306 25.306 0 0 1 382.8 52 Q 382.8 53.968 382.507 55.496 A 12.311 12.311 0 0 1 382.4 56 L 358.4 56 A 13.936 13.936 0 0 1 358.127 54.398 Q 358 53.294 358 52 A 23.85 23.85 0 0 1 358.054 50.345 Q 358.147 49.013 358.4 48 A 13.936 13.936 0 0 1 358.127 46.398 Q 358 45.294 358 44 A 23.85 23.85 0 0 1 358.054 42.345 Q 358.147 41.013 358.4 40 A 13.936 13.936 0 0 1 358.127 38.398 Q 358 37.294 358 36 A 23.85 23.85 0 0 1 358.054 34.345 Q 358.147 33.013 358.4 32 A 13.936 13.936 0 0 1 358.127 30.398 Q 358 29.294 358 28 A 23.85 23.85 0 0 1 358.054 26.345 Q 358.147 25.013 358.4 24 A 13.936 13.936 0 0 1 358.127 22.398 Q 358 21.294 358 20 A 23.85 23.85 0 0 1 358.054 18.345 Q 358.147 17.013 358.4 16 A 13.936 13.936 0 0 1 358.127 14.398 Q 358 13.294 358 12 A 23.85 23.85 0 0 1 358.054 10.345 Q 358.147 9.013 358.4 8 A 13.936 13.936 0 0 1 358.127 6.398 Q 358 5.294 358 4 A 23.85 23.85 0 0 1 358.054 2.345 Q 358.147 1.013 358.4 0 L 382.4 0 A 11.741 11.741 0 0 1 382.644 1.313 Q 382.737 2.018 382.774 2.833 A 25.306 25.306 0 0 1 382.8 4 Q 382.8 5.968 382.507 7.496 A 12.311 12.311 0 0 1 382.4 8 L 366.4 8 Q 366.698 9.194 366.774 10.833 A 25.306 25.306 0 0 1 366.8 12 Q 366.8 13.968 366.507 15.496 A 12.311 12.311 0 0 1 366.4 16 Q 366.698 17.194 366.774 18.833 A 25.306 25.306 0 0 1 366.8 20 Q 366.8 21.968 366.507 23.496 A 12.311 12.311 0 0 1 366.4 24 L 382.4 24 A 11.741 11.741 0 0 1 382.644 25.313 Q 382.737 26.018 382.774 26.833 A 25.306 25.306 0 0 1 382.8 28 Q 382.8 29.968 382.507 31.496 A 12.311 12.311 0 0 1 382.4 32 Z M 546.4 32 L 538.4 32 A 13.936 13.936 0 0 1 538.127 30.398 Q 538 29.294 538 28 A 23.85 23.85 0 0 1 538.054 26.345 Q 538.147 25.013 538.4 24 L 531.4 24 Q 531.698 25.194 531.774 26.833 A 25.306 25.306 0 0 1 531.8 28 Q 531.8 29.968 531.507 31.496 A 12.311 12.311 0 0 1 531.4 32 L 528.4 32 A 11.741 11.741 0 0 1 528.644 33.313 Q 528.737 34.018 528.774 34.833 A 25.306 25.306 0 0 1 528.8 36 Q 528.8 37.968 528.507 39.496 A 12.311 12.311 0 0 1 528.4 40 A 11.741 11.741 0 0 1 528.644 41.313 Q 528.737 42.018 528.774 42.833 A 25.306 25.306 0 0 1 528.8 44 Q 528.8 45.968 528.507 47.496 A 12.311 12.311 0 0 1 528.4 48 L 534.4 48 Q 534.698 49.194 534.774 50.833 A 25.306 25.306 0 0 1 534.8 52 Q 534.8 53.968 534.507 55.496 A 12.311 12.311 0 0 1 534.4 56 L 514.4 56 A 13.936 13.936 0 0 1 514.127 54.398 Q 514 53.294 514 52 A 23.85 23.85 0 0 1 514.054 50.345 Q 514.147 49.013 514.4 48 L 520.4 48 A 13.936 13.936 0 0 1 520.127 46.398 Q 520 45.294 520 44 A 23.85 23.85 0 0 1 520.054 42.345 Q 520.147 41.013 520.4 40 A 13.936 13.936 0 0 1 520.127 38.398 Q 520 37.294 520 36 A 23.85 23.85 0 0 1 520.054 34.345 Q 520.147 33.013 520.4 32 A 13.936 13.936 0 0 1 520.127 30.398 Q 520 29.294 520 28 A 23.85 23.85 0 0 1 520.054 26.345 Q 520.147 25.013 520.4 24 L 514.4 24 A 13.936 13.936 0 0 1 514.127 22.398 Q 514 21.294 514 20 A 23.85 23.85 0 0 1 514.054 18.345 Q 514.147 17.013 514.4 16 L 524.4 16 A 11.741 11.741 0 0 1 524.644 17.313 Q 524.737 18.018 524.774 18.833 A 25.306 25.306 0 0 1 524.8 20 Q 524.8 21.968 524.507 23.496 A 12.311 12.311 0 0 1 524.4 24 L 528.4 24 A 13.936 13.936 0 0 1 528.127 22.398 Q 528 21.294 528 20 A 23.85 23.85 0 0 1 528.054 18.345 Q 528.147 17.013 528.4 16 L 543.4 16 A 11.741 11.741 0 0 1 543.644 17.313 Q 543.737 18.018 543.774 18.833 A 25.306 25.306 0 0 1 543.8 20 Q 543.8 21.968 543.507 23.496 A 12.311 12.311 0 0 1 543.4 24 L 546.4 24 Q 546.698 25.194 546.774 26.833 A 25.306 25.306 0 0 1 546.8 28 Q 546.8 29.968 546.507 31.496 A 12.311 12.311 0 0 1 546.4 32 Z M 626.4 32 L 618.4 32 A 13.936 13.936 0 0 1 618.127 30.398 Q 618 29.294 618 28 A 23.85 23.85 0 0 1 618.054 26.345 Q 618.147 25.013 618.4 24 L 611.4 24 Q 611.698 25.194 611.774 26.833 A 25.306 25.306 0 0 1 611.8 28 Q 611.8 29.968 611.507 31.496 A 12.311 12.311 0 0 1 611.4 32 L 608.4 32 A 11.741 11.741 0 0 1 608.644 33.313 Q 608.737 34.018 608.774 34.833 A 25.306 25.306 0 0 1 608.8 36 Q 608.8 37.968 608.507 39.496 A 12.311 12.311 0 0 1 608.4 40 A 11.741 11.741 0 0 1 608.644 41.313 Q 608.737 42.018 608.774 42.833 A 25.306 25.306 0 0 1 608.8 44 Q 608.8 45.968 608.507 47.496 A 12.311 12.311 0 0 1 608.4 48 L 614.4 48 Q 614.698 49.194 614.774 50.833 A 25.306 25.306 0 0 1 614.8 52 Q 614.8 53.968 614.507 55.496 A 12.311 12.311 0 0 1 614.4 56 L 594.4 56 A 13.936 13.936 0 0 1 594.127 54.398 Q 594 53.294 594 52 A 23.85 23.85 0 0 1 594.054 50.345 Q 594.147 49.013 594.4 48 L 600.4 48 A 13.936 13.936 0 0 1 600.127 46.398 Q 600 45.294 600 44 A 23.85 23.85 0 0 1 600.054 42.345 Q 600.147 41.013 600.4 40 A 13.936 13.936 0 0 1 600.127 38.398 Q 600 37.294 600 36 A 23.85 23.85 0 0 1 600.054 34.345 Q 600.147 33.013 600.4 32 A 13.936 13.936 0 0 1 600.127 30.398 Q 600 29.294 600 28 A 23.85 23.85 0 0 1 600.054 26.345 Q 600.147 25.013 600.4 24 L 594.4 24 A 13.936 13.936 0 0 1 594.127 22.398 Q 594 21.294 594 20 A 23.85 23.85 0 0 1 594.054 18.345 Q 594.147 17.013 594.4 16 L 604.4 16 A 11.741 11.741 0 0 1 604.644 17.313 Q 604.737 18.018 604.774 18.833 A 25.306 25.306 0 0 1 604.8 20 Q 604.8 21.968 604.507 23.496 A 12.311 12.311 0 0 1 604.4 24 L 608.4 24 A 13.936 13.936 0 0 1 608.127 22.398 Q 608 21.294 608 20 A 23.85 23.85 0 0 1 608.054 18.345 Q 608.147 17.013 608.4 16 L 623.4 16 A 11.741 11.741 0 0 1 623.644 17.313 Q 623.737 18.018 623.774 18.833 A 25.306 25.306 0 0 1 623.8 20 Q 623.8 21.968 623.507 23.496 A 12.311 12.311 0 0 1 623.4 24 L 626.4 24 Q 626.698 25.194 626.774 26.833 A 25.306 25.306 0 0 1 626.8 28 Q 626.8 29.968 626.507 31.496 A 12.311 12.311 0 0 1 626.4 32 Z M 399.4 24 L 402.4 24 L 407.4 24 Q 407.147 25.013 407.054 26.345 A 23.85 23.85 0 0 0 407 28 Q 407 29.294 407.127 30.398 A 13.936 13.936 0 0 0 407.4 32 Q 407.147 33.013 407.054 34.345 A 23.85 23.85 0 0 0 407 36 Q 407 37.294 407.127 38.398 A 13.936 13.936 0 0 0 407.4 40 Q 407.147 41.013 407.054 42.345 A 23.85 23.85 0 0 0 407 44 Q 407 45.294 407.127 46.398 A 13.936 13.936 0 0 0 407.4 48 Q 407.147 49.013 407.054 50.345 A 23.85 23.85 0 0 0 407 52 Q 407 53.294 407.127 54.398 A 13.936 13.936 0 0 0 407.4 56 L 413.4 56 A 12.311 12.311 0 0 0 413.507 55.496 Q 413.8 53.968 413.8 52 A 25.306 25.306 0 0 0 413.774 50.833 Q 413.698 49.194 413.4 48 A 12.311 12.311 0 0 0 413.507 47.496 Q 413.8 45.968 413.8 44 A 25.306 25.306 0 0 0 413.774 42.833 Q 413.698 41.194 413.4 40 A 12.311 12.311 0 0 0 413.507 39.496 Q 413.8 37.968 413.8 36 A 25.306 25.306 0 0 0 413.774 34.833 Q 413.698 33.194 413.4 32 A 12.311 12.311 0 0 0 413.507 31.496 Q 413.8 29.968 413.8 28 A 25.306 25.306 0 0 0 413.774 26.833 Q 413.698 25.194 413.4 24 L 410.4 24 A 12.311 12.311 0 0 0 410.507 23.496 Q 410.8 21.968 410.8 20 A 25.306 25.306 0 0 0 410.774 18.833 Q 410.698 17.194 410.4 16 L 402.4 16 Q 402.147 17.013 402.054 18.345 A 23.85 23.85 0 0 0 402 20 Q 402 21.294 402.127 22.398 A 13.936 13.936 0 0 0 402.4 24 A 11.741 11.741 0 0 1 402.644 25.313 Q 402.737 26.018 402.774 26.833 A 25.306 25.306 0 0 1 402.8 28 Q 402.8 29.968 402.507 31.496 A 12.311 12.311 0 0 1 402.4 32 A 11.741 11.741 0 0 1 402.644 33.313 Q 402.737 34.018 402.774 34.833 A 25.306 25.306 0 0 1 402.8 36 Q 402.8 37.968 402.507 39.496 A 12.311 12.311 0 0 1 402.4 40 A 11.741 11.741 0 0 1 402.644 41.313 Q 402.737 42.018 402.774 42.833 A 25.306 25.306 0 0 1 402.8 44 Q 402.8 45.968 402.507 47.496 A 12.311 12.311 0 0 1 402.4 48 A 11.741 11.741 0 0 1 402.644 49.313 Q 402.737 50.018 402.774 50.833 A 25.306 25.306 0 0 1 402.8 52 Q 402.8 53.968 402.507 55.496 A 12.311 12.311 0 0 1 402.4 56 L 394.4 56 A 13.936 13.936 0 0 1 394.127 54.398 Q 394 53.294 394 52 A 23.85 23.85 0 0 1 394.054 50.345 Q 394.147 49.013 394.4 48 A 13.936 13.936 0 0 1 394.127 46.398 Q 394 45.294 394 44 A 23.85 23.85 0 0 1 394.054 42.345 Q 394.147 41.013 394.4 40 A 13.936 13.936 0 0 1 394.127 38.398 Q 394 37.294 394 36 A 23.85 23.85 0 0 1 394.054 34.345 Q 394.147 33.013 394.4 32 A 13.936 13.936 0 0 1 394.127 30.398 Q 394 29.294 394 28 A 23.85 23.85 0 0 1 394.054 26.345 Q 394.147 25.013 394.4 24 A 13.936 13.936 0 0 1 394.127 22.398 Q 394 21.294 394 20 A 23.85 23.85 0 0 1 394.054 18.345 Q 394.147 17.013 394.4 16 L 399.4 16 A 11.741 11.741 0 0 1 399.644 17.313 Q 399.737 18.018 399.774 18.833 A 25.306 25.306 0 0 1 399.8 20 Q 399.8 21.968 399.507 23.496 A 12.311 12.311 0 0 1 399.4 24 Z M 306.4 40 L 285.4 40 A 11.741 11.741 0 0 1 285.644 41.313 Q 285.737 42.018 285.774 42.833 A 25.306 25.306 0 0 1 285.8 44 Q 285.8 45.968 285.507 47.496 A 12.311 12.311 0 0 1 285.4 48 L 302.4 48 A 11.741 11.741 0 0 1 302.644 49.313 Q 302.737 50.018 302.774 50.833 A 25.306 25.306 0 0 1 302.8 52 Q 302.8 53.968 302.507 55.496 A 12.311 12.311 0 0 1 302.4 56 L 282.4 56 A 13.936 13.936 0 0 1 282.127 54.398 Q 282 53.294 282 52 A 23.85 23.85 0 0 1 282.054 50.345 Q 282.147 49.013 282.4 48 L 277.4 48 A 13.936 13.936 0 0 1 277.127 46.398 Q 277 45.294 277 44 A 23.85 23.85 0 0 1 277.054 42.345 Q 277.147 41.013 277.4 40 L 274.4 40 A 13.936 13.936 0 0 1 274.127 38.398 Q 274 37.294 274 36 A 23.85 23.85 0 0 1 274.054 34.345 Q 274.147 33.013 274.4 32 L 277.4 32 A 13.936 13.936 0 0 1 277.127 30.398 Q 277 29.294 277 28 A 23.85 23.85 0 0 1 277.054 26.345 Q 277.147 25.013 277.4 24 L 282.4 24 A 13.936 13.936 0 0 1 282.127 22.398 Q 282 21.294 282 20 A 23.85 23.85 0 0 1 282.054 18.345 Q 282.147 17.013 282.4 16 L 302.4 16 A 11.741 11.741 0 0 1 302.644 17.313 Q 302.737 18.018 302.774 18.833 A 25.306 25.306 0 0 1 302.8 20 Q 302.8 21.968 302.507 23.496 A 12.311 12.311 0 0 1 302.4 24 L 306.4 24 Q 306.698 25.194 306.774 26.833 A 25.306 25.306 0 0 1 306.8 28 Q 306.8 29.968 306.507 31.496 A 12.311 12.311 0 0 1 306.4 32 Q 306.698 33.194 306.774 34.833 A 25.306 25.306 0 0 1 306.8 36 Q 306.8 37.968 306.507 39.496 A 12.311 12.311 0 0 1 306.4 40 Z M 506.4 40 L 485.4 40 A 11.741 11.741 0 0 1 485.644 41.313 Q 485.737 42.018 485.774 42.833 A 25.306 25.306 0 0 1 485.8 44 Q 485.8 45.968 485.507 47.496 A 12.311 12.311 0 0 1 485.4 48 L 502.4 48 A 11.741 11.741 0 0 1 502.644 49.313 Q 502.737 50.018 502.774 50.833 A 25.306 25.306 0 0 1 502.8 52 Q 502.8 53.968 502.507 55.496 A 12.311 12.311 0 0 1 502.4 56 L 482.4 56 A 13.936 13.936 0 0 1 482.127 54.398 Q 482 53.294 482 52 A 23.85 23.85 0 0 1 482.054 50.345 Q 482.147 49.013 482.4 48 L 477.4 48 A 13.936 13.936 0 0 1 477.127 46.398 Q 477 45.294 477 44 A 23.85 23.85 0 0 1 477.054 42.345 Q 477.147 41.013 477.4 40 L 474.4 40 A 13.936 13.936 0 0 1 474.127 38.398 Q 474 37.294 474 36 A 23.85 23.85 0 0 1 474.054 34.345 Q 474.147 33.013 474.4 32 L 477.4 32 A 13.936 13.936 0 0 1 477.127 30.398 Q 477 29.294 477 28 A 23.85 23.85 0 0 1 477.054 26.345 Q 477.147 25.013 477.4 24 L 482.4 24 A 13.936 13.936 0 0 1 482.127 22.398 Q 482 21.294 482 20 A 23.85 23.85 0 0 1 482.054 18.345 Q 482.147 17.013 482.4 16 L 502.4 16 A 11.741 11.741 0 0 1 502.644 17.313 Q 502.737 18.018 502.774 18.833 A 25.306 25.306 0 0 1 502.8 20 Q 502.8 21.968 502.507 23.496 A 12.311 12.311 0 0 1 502.4 24 L 506.4 24 Q 506.698 25.194 506.774 26.833 A 25.306 25.306 0 0 1 506.8 28 Q 506.8 29.968 506.507 31.496 A 12.311 12.311 0 0 1 506.4 32 Q 506.698 33.194 506.774 34.833 A 25.306 25.306 0 0 1 506.8 36 Q 506.8 37.968 506.507 39.496 A 12.311 12.311 0 0 1 506.4 40 Z M 14.4 48 L 20.4 48 Q 20.698 49.194 20.774 50.833 A 25.306 25.306 0 0 1 20.8 52 Q 20.8 53.968 20.507 55.496 A 12.311 12.311 0 0 1 20.4 56 L 0.4 56 A 13.936 13.936 0 0 1 0.127 54.398 Q 0 53.294 0 52 A 23.85 23.85 0 0 1 0.054 50.345 Q 0.147 49.013 0.4 48 L 6.4 48 A 13.936 13.936 0 0 1 6.127 46.398 Q 6 45.294 6 44 A 23.85 23.85 0 0 1 6.054 42.345 Q 6.147 41.013 6.4 40 A 13.936 13.936 0 0 1 6.127 38.398 Q 6 37.294 6 36 A 23.85 23.85 0 0 1 6.054 34.345 Q 6.147 33.013 6.4 32 A 13.936 13.936 0 0 1 6.127 30.398 Q 6 29.294 6 28 A 23.85 23.85 0 0 1 6.054 26.345 Q 6.147 25.013 6.4 24 A 13.936 13.936 0 0 1 6.127 22.398 Q 6 21.294 6 20 A 23.85 23.85 0 0 1 6.054 18.345 Q 6.147 17.013 6.4 16 A 13.936 13.936 0 0 1 6.127 14.398 Q 6 13.294 6 12 A 23.85 23.85 0 0 1 6.054 10.345 Q 6.147 9.013 6.4 8 L 0.4 8 A 13.936 13.936 0 0 1 0.127 6.398 Q 0 5.294 0 4 A 23.85 23.85 0 0 1 0.054 2.345 Q 0.147 1.013 0.4 0 L 20.4 0 Q 20.698 1.194 20.774 2.833 A 25.306 25.306 0 0 1 20.8 4 Q 20.8 5.968 20.507 7.496 A 12.311 12.311 0 0 1 20.4 8 L 14.4 8 Q 14.698 9.194 14.774 10.833 A 25.306 25.306 0 0 1 14.8 12 Q 14.8 13.968 14.507 15.496 A 12.311 12.311 0 0 1 14.4 16 Q 14.698 17.194 14.774 18.833 A 25.306 25.306 0 0 1 14.8 20 Q 14.8 21.968 14.507 23.496 A 12.311 12.311 0 0 1 14.4 24 Q 14.698 25.194 14.774 26.833 A 25.306 25.306 0 0 1 14.8 28 Q 14.8 29.968 14.507 31.496 A 12.311 12.311 0 0 1 14.4 32 Q 14.698 33.194 14.774 34.833 A 25.306 25.306 0 0 1 14.8 36 Q 14.8 37.968 14.507 39.496 A 12.311 12.311 0 0 1 14.4 40 Q 14.698 41.194 14.774 42.833 A 25.306 25.306 0 0 1 14.8 44 Q 14.8 45.968 14.507 47.496 A 12.311 12.311 0 0 1 14.4 48 Z M 226.4 8 L 214.4 8 Q 214.698 9.194 214.774 10.833 A 25.306 25.306 0 0 1 214.8 12 Q 214.8 13.968 214.507 15.496 A 12.311 12.311 0 0 1 214.4 16 Q 214.698 17.194 214.774 18.833 A 25.306 25.306 0 0 1 214.8 20 Q 214.8 21.968 214.507 23.496 A 12.311 12.311 0 0 1 214.4 24 Q 214.698 25.194 214.774 26.833 A 25.306 25.306 0 0 1 214.8 28 Q 214.8 29.968 214.507 31.496 A 12.311 12.311 0 0 1 214.4 32 Q 214.698 33.194 214.774 34.833 A 25.306 25.306 0 0 1 214.8 36 Q 214.8 37.968 214.507 39.496 A 12.311 12.311 0 0 1 214.4 40 Q 214.698 41.194 214.774 42.833 A 25.306 25.306 0 0 1 214.8 44 Q 214.8 45.968 214.507 47.496 A 12.311 12.311 0 0 1 214.4 48 Q 214.698 49.194 214.774 50.833 A 25.306 25.306 0 0 1 214.8 52 Q 214.8 53.968 214.507 55.496 A 12.311 12.311 0 0 1 214.4 56 L 206.4 56 A 13.936 13.936 0 0 1 206.127 54.398 Q 206 53.294 206 52 A 23.85 23.85 0 0 1 206.054 50.345 Q 206.147 49.013 206.4 48 A 13.936 13.936 0 0 1 206.127 46.398 Q 206 45.294 206 44 A 23.85 23.85 0 0 1 206.054 42.345 Q 206.147 41.013 206.4 40 A 13.936 13.936 0 0 1 206.127 38.398 Q 206 37.294 206 36 A 23.85 23.85 0 0 1 206.054 34.345 Q 206.147 33.013 206.4 32 A 13.936 13.936 0 0 1 206.127 30.398 Q 206 29.294 206 28 A 23.85 23.85 0 0 1 206.054 26.345 Q 206.147 25.013 206.4 24 A 13.936 13.936 0 0 1 206.127 22.398 Q 206 21.294 206 20 A 23.85 23.85 0 0 1 206.054 18.345 Q 206.147 17.013 206.4 16 A 13.936 13.936 0 0 1 206.127 14.398 Q 206 13.294 206 12 A 23.85 23.85 0 0 1 206.054 10.345 Q 206.147 9.013 206.4 8 L 194.4 8 A 13.936 13.936 0 0 1 194.127 6.398 Q 194 5.294 194 4 A 23.85 23.85 0 0 1 194.054 2.345 Q 194.147 1.013 194.4 0 L 226.4 0 Q 226.698 1.194 226.774 2.833 A 25.306 25.306 0 0 1 226.8 4 Q 226.8 5.968 226.507 7.496 A 12.311 12.311 0 0 1 226.4 8 Z M 586.4 40 L 583.4 40 A 11.741 11.741 0 0 1 583.644 41.313 Q 583.737 42.018 583.774 42.833 A 25.306 25.306 0 0 1 583.8 44 Q 583.8 45.968 583.507 47.496 A 12.311 12.311 0 0 1 583.4 48 L 578.4 48 Q 578.698 49.194 578.774 50.833 A 25.306 25.306 0 0 1 578.8 52 Q 578.8 53.968 578.507 55.496 A 12.311 12.311 0 0 1 578.4 56 L 562.4 56 A 13.936 13.936 0 0 1 562.127 54.398 Q 562 53.294 562 52 A 23.85 23.85 0 0 1 562.054 50.345 Q 562.147 49.013 562.4 48 L 557.4 48 A 13.936 13.936 0 0 1 557.127 46.398 Q 557 45.294 557 44 A 23.85 23.85 0 0 1 557.054 42.345 Q 557.147 41.013 557.4 40 L 554.4 40 A 13.936 13.936 0 0 1 554.127 38.398 Q 554 37.294 554 36 A 23.85 23.85 0 0 1 554.054 34.345 Q 554.147 33.013 554.4 32 L 557.4 32 A 13.936 13.936 0 0 1 557.127 30.398 Q 557 29.294 557 28 A 23.85 23.85 0 0 1 557.054 26.345 Q 557.147 25.013 557.4 24 L 562.4 24 A 13.936 13.936 0 0 1 562.127 22.398 Q 562 21.294 562 20 A 23.85 23.85 0 0 1 562.054 18.345 Q 562.147 17.013 562.4 16 L 578.4 16 Q 578.698 17.194 578.774 18.833 A 25.306 25.306 0 0 1 578.8 20 Q 578.8 21.968 578.507 23.496 A 12.311 12.311 0 0 1 578.4 24 L 583.4 24 A 11.741 11.741 0 0 1 583.644 25.313 Q 583.737 26.018 583.774 26.833 A 25.306 25.306 0 0 1 583.8 28 Q 583.8 29.968 583.507 31.496 A 12.311 12.311 0 0 1 583.4 32 L 586.4 32 Q 586.698 33.194 586.774 34.833 A 25.306 25.306 0 0 1 586.8 36 Q 586.8 37.968 586.507 39.496 A 12.311 12.311 0 0 1 586.4 40 Z M 413.4 24 L 418.4 24 Q 418.147 25.013 418.054 26.345 A 23.85 23.85 0 0 0 418 28 Q 418 29.294 418.127 30.398 A 13.936 13.936 0 0 0 418.4 32 Q 418.147 33.013 418.054 34.345 A 23.85 23.85 0 0 0 418 36 Q 418 37.294 418.127 38.398 A 13.936 13.936 0 0 0 418.4 40 Q 418.147 41.013 418.054 42.345 A 23.85 23.85 0 0 0 418 44 Q 418 45.294 418.127 46.398 A 13.936 13.936 0 0 0 418.4 48 Q 418.147 49.013 418.054 50.345 A 23.85 23.85 0 0 0 418 52 Q 418 53.294 418.127 54.398 A 13.936 13.936 0 0 0 418.4 56 L 426.4 56 A 12.311 12.311 0 0 0 426.507 55.496 Q 426.8 53.968 426.8 52 A 25.306 25.306 0 0 0 426.774 50.833 Q 426.698 49.194 426.4 48 A 12.311 12.311 0 0 0 426.507 47.496 Q 426.8 45.968 426.8 44 A 25.306 25.306 0 0 0 426.774 42.833 Q 426.698 41.194 426.4 40 A 12.311 12.311 0 0 0 426.507 39.496 Q 426.8 37.968 426.8 36 A 25.306 25.306 0 0 0 426.774 34.833 Q 426.698 33.194 426.4 32 A 12.311 12.311 0 0 0 426.507 31.496 Q 426.8 29.968 426.8 28 A 25.306 25.306 0 0 0 426.774 26.833 Q 426.698 25.194 426.4 24 L 422.4 24 A 12.311 12.311 0 0 0 422.507 23.496 Q 422.8 21.968 422.8 20 A 25.306 25.306 0 0 0 422.774 18.833 Q 422.737 18.018 422.644 17.313 A 11.741 11.741 0 0 0 422.4 16 L 413.4 16 Q 413.147 17.013 413.054 18.345 A 23.85 23.85 0 0 0 413 20 Q 413 21.294 413.127 22.398 A 13.936 13.936 0 0 0 413.4 24 Z M 575.4 40 L 578.4 40 A 13.936 13.936 0 0 1 578.127 38.398 Q 578 37.294 578 36 A 23.85 23.85 0 0 1 578.054 34.345 Q 578.147 33.013 578.4 32 L 575.4 32 A 13.936 13.936 0 0 1 575.127 30.398 Q 575 29.294 575 28 A 23.85 23.85 0 0 1 575.054 26.345 Q 575.147 25.013 575.4 24 L 565.4 24 A 11.741 11.741 0 0 1 565.644 25.313 Q 565.737 26.018 565.774 26.833 A 25.306 25.306 0 0 1 565.8 28 Q 565.8 29.968 565.507 31.496 A 12.311 12.311 0 0 1 565.4 32 L 562.4 32 A 11.741 11.741 0 0 1 562.644 33.313 Q 562.737 34.018 562.774 34.833 A 25.306 25.306 0 0 1 562.8 36 Q 562.8 37.968 562.507 39.496 A 12.311 12.311 0 0 1 562.4 40 L 565.4 40 A 11.741 11.741 0 0 1 565.644 41.313 Q 565.737 42.018 565.774 42.833 A 25.306 25.306 0 0 1 565.8 44 Q 565.8 45.968 565.507 47.496 A 12.311 12.311 0 0 1 565.4 48 L 575.4 48 A 13.936 13.936 0 0 1 575.127 46.398 Q 575 45.294 575 44 A 23.85 23.85 0 0 1 575.054 42.345 Q 575.147 41.013 575.4 40 Z M 120.4 24 L 140.4 24 Q 140.698 25.194 140.774 26.833 A 25.306 25.306 0 0 1 140.8 28 Q 140.8 29.968 140.507 31.496 A 12.311 12.311 0 0 1 140.4 32 L 120.4 32 A 13.936 13.936 0 0 1 120.127 30.398 Q 120 29.294 120 28 A 23.85 23.85 0 0 1 120.054 26.345 Q 120.147 25.013 120.4 24 Z M 298.4 24 L 285.4 24 A 11.741 11.741 0 0 1 285.644 25.313 Q 285.737 26.018 285.774 26.833 A 25.306 25.306 0 0 1 285.8 28 Q 285.8 29.968 285.507 31.496 A 12.311 12.311 0 0 1 285.4 32 L 298.4 32 A 13.936 13.936 0 0 1 298.127 30.398 Q 298 29.294 298 28 A 23.85 23.85 0 0 1 298.054 26.345 Q 298.147 25.013 298.4 24 Z M 498.4 24 L 485.4 24 A 11.741 11.741 0 0 1 485.644 25.313 Q 485.737 26.018 485.774 26.833 A 25.306 25.306 0 0 1 485.8 28 Q 485.8 29.968 485.507 31.496 A 12.311 12.311 0 0 1 485.4 32 L 498.4 32 A 13.936 13.936 0 0 1 498.127 30.398 Q 498 29.294 498 28 A 23.85 23.85 0 0 1 498.054 26.345 Q 498.147 25.013 498.4 24 Z M 413.4 24 Q 413.698 25.194 413.774 26.833" vector-effect="non-scaling-stroke"/></g></svg>