<svg width="582.8" height="56" viewBox="0 0 582.8 56" xmlns="http://www.w3.org/2000/svg"><g id="svgGroup" stroke-linecap="round" fill-rule="evenodd" font-size="9pt" stroke="#000" stroke-width="0.25mm" fill="#000" style="stroke:#000;stroke-width:0.25mm;fill:#000"><path d="M 63.4 48 L 66.4 48 Q 66.698 49.194 66.774 50.833 A 25.306 25.306 0 0 1 66.8 52 Q 66.8 53.968 66.507 55.496 A 12.311 12.311 0 0 1 66.4 56 L 58.4 56 A 13.936 13.936 0 0 1 58.127 54.398 Q 58 53.294 58 52 A 23.85 23.85 0 0 1 58.054 50.345 Q 58.147 49.013 58.4 48 L 55.4 48 A 13.936 13.936 0 0 1 55.127 46.398 Q 55 45.294 55 44 A 23.85 23.85 0 0 1 55.054 42.345 Q 55.147 41.013 55.4 40 L 53.4 40 A 13.936 13.936 0 0 1 53.127 38.398 Q 53 37.294 53 36 A 23.85 23.85 0 0 1 53.054 34.345 Q 53.147 33.013 53.4 32 L 47.4 32 A 11.741 11.741 0 0 1 47.644 33.313 Q 47.737 34.018 47.774 34.833 A 25.306 25.306 0 0 1 47.8 36 Q 47.8 37.968 47.507 39.496 A 12.311 12.311 0 0 1 47.4 40 L 45.4 40 A 11.741 11.741 0 0 1 45.644 41.313 Q 45.737 42.018 45.774 42.833 A 25.306 25.306 0 0 1 45.8 44 Q 45.8 45.968 45.507 47.496 A 12.311 12.311 0 0 1 45.4 48 L 42.4 48 A 11.741 11.741 0 0 1 42.644 49.313 Q 42.737 50.018 42.774 50.833 A 25.306 25.306 0 0 1 42.8 52 Q 42.8 53.968 42.507 55.496 A 12.311 12.311 0 0 1 42.4 56 L 34.4 56 A 13.936 13.936 0 0 1 34.127 54.398 Q 34 53.294 34 52 A 23.85 23.85 0 0 1 34.054 50.345 Q 34.147 49.013 34.4 48 L 37.4 48 A 13.936 13.936 0 0 1 37.127 46.398 Q 37 45.294 37 44 A 23.85 23.85 0 0 1 37.054 42.345 Q 37.147 41.013 37.4 40 L 41.4 40 A 13.936 13.936 0 0 1 41.127 38.398 Q 41 37.294 41 36 A 23.85 23.85 0 0 1 41.054 34.345 Q 41.147 33.013 41.4 32 L 44.4 32 A 13.936 13.936 0 0 1 44.127 30.398 Q 44 29.294 44 28 A 23.85 23.85 0 0 1 44.054 26.345 Q 44.147 25.013 44.4 24 L 41.4 24 A 13.936 13.936 0 0 1 41.127 22.398 Q 41 21.294 41 20 A 23.85 23.85 0 0 1 41.054 18.345 Q 41.147 17.013 41.4 16 L 37.4 16 A 13.936 13.936 0 0 1 37.127 14.398 Q 37 13.294 37 12 A 23.85 23.85 0 0 1 37.054 10.345 Q 37.147 9.013 37.4 8 L 34.4 8 A 13.936 13.936 0 0 1 34.127 6.398 Q 34 5.294 34 4 A 23.85 23.85 0 0 1 34.054 2.345 Q 34.147 1.013 34.4 0 L 42.4 0 A 11.741 11.741 0 0 1 42.644 1.313 Q 42.737 2.018 42.774 2.833 A 25.306 25.306 0 0 1 42.8 4 Q 42.8 5.968 42.507 7.496 A 12.311 12.311 0 0 1 42.4 8 L 45.4 8 A 11.741 11.741 0 0 1 45.644 9.313 Q 45.737 10.018 45.774 10.833 A 25.306 25.306 0 0 1 45.8 12 Q 45.8 13.968 45.507 15.496 A 12.311 12.311 0 0 1 45.4 16 L 47.4 16 A 11.741 11.741 0 0 1 47.644 17.313 Q 47.737 18.018 47.774 18.833 A 25.306 25.306 0 0 1 47.8 20 Q 47.8 21.968 47.507 23.496 A 12.311 12.311 0 0 1 47.4 24 L 53.4 24 A 13.936 13.936 0 0 1 53.127 22.398 Q 53 21.294 53 20 A 23.85 23.85 0 0 1 53.054 18.345 Q 53.147 17.013 53.4 16 L 55.4 16 A 13.936 13.936 0 0 1 55.127 14.398 Q 55 13.294 55 12 A 23.85 23.85 0 0 1 55.054 10.345 Q 55.147 9.013 55.4 8 L 58.4 8 A 13.936 13.936 0 0 1 58.127 6.398 Q 58 5.294 58 4 A 23.85 23.85 0 0 1 58.054 2.345 Q 58.147 1.013 58.4 0 L 66.4 0 Q 66.698 1.194 66.774 2.833 A 25.306 25.306 0 0 1 66.8 4 Q 66.8 5.968 66.507 7.496 A 12.311 12.311 0 0 1 66.4 8 L 63.4 8 A 11.741 11.741 0 0 1 63.644 9.313 Q 63.737 10.018 63.774 10.833 A 25.306 25.306 0 0 1 63.8 12 Q 63.8 13.968 63.507 15.496 A 12.311 12.311 0 0 1 63.4 16 L 59.4 16 Q 59.698 17.194 59.774 18.833 A 25.306 25.306 0 0 1 59.8 20 Q 59.8 21.968 59.507 23.496 A 12.311 12.311 0 0 1 59.4 24 L 56.4 24 Q 56.698 25.194 56.774 26.833 A 25.306 25.306 0 0 1 56.8 28 Q 56.8 29.968 56.507 31.496 A 12.311 12.311 0 0 1 56.4 32 L 59.4 32 Q 59.698 33.194 59.774 34.833 A 25.306 25.306 0 0 1 59.8 36 Q 59.8 37.968 59.507 39.496 A 12.311 12.311 0 0 1 59.4 40 L 63.4 40 A 11.741 11.741 0 0 1 63.644 41.313 Q 63.737 42.018 63.774 42.833 A 25.306 25.306 0 0 1 63.8 44 Q 63.8 45.968 63.507 47.496 A 12.311 12.311 0 0 1 63.4 48 Z M 386.4 56 L 378.4 56 A 13.936 13.936 0 0 1 378.127 54.398 Q 378 53.294 378 52 A 23.85 23.85 0 0 1 378.054 50.345 Q 378.147 49.013 378.4 48 A 13.936 13.936 0 0 1 378.127 46.398 Q 378 45.294 378 44 A 23.85 23.85 0 0 1 378.054 42.345 Q 378.147 41.013 378.4 40 A 13.936 13.936 0 0 1 378.127 38.398 Q 378 37.294 378 36 A 23.85 23.85 0 0 1 378.054 34.345 Q 378.147 33.013 378.4 32 L 362.4 32 A 11.741 11.741 0 0 1 362.644 33.313 Q 362.737 34.018 362.774 34.833 A 25.306 25.306 0 0 1 362.8 36 Q 362.8 37.968 362.507 39.496 A 12.311 12.311 0 0 1 362.4 40 A 11.741 11.741 0 0 1 362.644 41.313 Q 362.737 42.018 362.774 42.833 A 25.306 25.306 0 0 1 362.8 44 Q 362.8 45.968 362.507 47.496 A 12.311 12.311 0 0 1 362.4 48 A 11.741 11.741 0 0 1 362.644 49.313 Q 362.737 50.018 362.774 50.833 A 25.306 25.306 0 0 1 362.8 52 Q 362.8 53.968 362.507 55.496 A 12.311 12.311 0 0 1 362.4 56 L 354.4 56 A 13.936 13.936 0 0 1 354.127 54.398 Q 354 53.294 354 52 A 23.85 23.85 0 0 1 354.054 50.345 Q 354.147 49.013 354.4 48 A 13.936 13.936 0 0 1 354.127 46.398 Q 354 45.294 354 44 A 23.85 23.85 0 0 1 354.054 42.345 Q 354.147 41.013 354.4 40 A 13.936 13.936 0 0 1 354.127 38.398 Q 354 37.294 354 36 A 23.85 23.85 0 0 1 354.054 34.345 Q 354.147 33.013 354.4 32 A 13.936 13.936 0 0 1 354.127 30.398 Q 354 29.294 354 28 A 23.85 23.85 0 0 1 354.054 26.345 Q 354.147 25.013 354.4 24 A 13.936 13.936 0 0 1 354.127 22.398 Q 354 21.294 354 20 A 23.85 23.85 0 0 1 354.054 18.345 Q 354.147 17.013 354.4 16 A 13.936 13.936 0 0 1 354.127 14.398 Q 354 13.294 354 12 A 23.85 23.85 0 0 1 354.054 10.345 Q 354.147 9.013 354.4 8 A 13.936 13.936 0 0 1 354.127 6.398 Q 354 5.294 354 4 A 23.85 23.85 0 0 1 354.054 2.345 Q 354.147 1.013 354.4 0 L 362.4 0 A 11.741 11.741 0 0 1 362.644 1.313 Q 362.737 2.018 362.774 2.833 A 25.306 25.306 0 0 1 362.8 4 Q 362.8 5.968 362.507 7.496 A 12.311 12.311 0 0 1 362.4 8 A 11.741 11.741 0 0 1 362.644 9.313 Q 362.737 10.018 362.774 10.833 A 25.306 25.306 0 0 1 362.8 12 Q 362.8 13.968 362.507 15.496 A 12.311 12.311 0 0 1 362.4 16 A 11.741 11.741 0 0 1 362.644 17.313 Q 362.737 18.018 362.774 18.833 A 25.306 25.306 0 0 1 362.8 20 Q 362.8 21.968 362.507 23.496 A 12.311 12.311 0 0 1 362.4 24 L 378.4 24 A 13.936 13.936 0 0 1 378.127 22.398 Q 378 21.294 378 20 A 23.85 23.85 0 0 1 378.054 18.345 Q 378.147 17.013 378.4 16 A 13.936 13.936 0 0 1 378.127 14.398 Q 378 13.294 378 12 A 23.85 23.85 0 0 1 378.054 10.345 Q 378.147 9.013 378.4 8 A 13.936 13.936 0 0 1 378.127 6.398 Q 378 5.294 378 4 A 23.85 23.85 0 0 1 378.054 2.345 Q 378.147 1.013 378.4 0 L 386.4 0 Q 386.698 1.194 386.774 2.833 A 25.306 25.306 0 0 1 386.8 4 Q 386.8 5.968 386.507 7.496 A 12.311 12.311 0 0 1 386.4 8 Q 386.698 9.194 386.774 10.833 A 25.306 25.306 0 0 1 386.8 12 Q 386.8 13.968 386.507 15.496 A 12.311 12.311 0 0 1 386.4 16 Q 386.698 17.194 386.774 18.833 A 25.306 25.306 0 0 1 386.8 20 Q 386.8 21.968 386.507 23.496 A 12.311 12.311 0 0 1 386.4 24 Q 386.698 25.194 386.774 26.833 A 25.306 25.306 0 0 1 386.8 28 Q 386.8 29.968 386.507 31.496 A 12.311 12.311 0 0 1 386.4 32 Q 386.698 33.194 386.774 34.833 A 25.306 25.306 0 0 1 386.8 36 Q 386.8 37.968 386.507 39.496 A 12.311 12.311 0 0 1 386.4 40 Q 386.698 41.194 386.774 42.833 A 25.306 25.306 0 0 1 386.8 44 Q 386.8 45.968 386.507 47.496 A 12.311 12.311 0 0 1 386.4 48 Q 386.698 49.194 386.774 50.833 A 25.306 25.306 0 0 1 386.8 52 Q 386.8 53.968 386.507 55.496 A 12.311 12.311 0 0 1 386.4 56 Z M 242.4 24 L 245.4 24 L 258.4 24 Q 258.147 25.013 258.054 26.345 A 23.85 23.85 0 0 0 258 28 Q 258 29.294 258.127 30.398 A 13.936 13.936 0 0 0 258.4 32 Q 258.147 33.013 258.054 34.345 A 23.85 23.85 0 0 0 258 36 Q 258 37.294 258.127 38.398 A 13.936 13.936 0 0 0 258.4 40 Q 258.147 41.013 258.054 42.345 A 23.85 23.85 0 0 0 258 44 Q 258 45.294 258.127 46.398 A 13.936 13.936 0 0 0 258.4 48 Q 258.147 49.013 258.054 50.345 A 23.85 23.85 0 0 0 258 52 Q 258 53.294 258.127 54.398 A 13.936 13.936 0 0 0 258.4 56 L 266.4 56 A 12.311 12.311 0 0 0 266.507 55.496 Q 266.8 53.968 266.8 52 A 25.306 25.306 0 0 0 266.774 50.833 Q 266.698 49.194 266.4 48 A 12.311 12.311 0 0 0 266.507 47.496 Q 266.8 45.968 266.8 44 A 25.306 25.306 0 0 0 266.774 42.833 Q 266.698 41.194 266.4 40 A 12.311 12.311 0 0 0 266.507 39.496 Q 266.8 37.968 266.8 36 A 25.306 25.306 0 0 0 266.774 34.833 Q 266.698 33.194 266.4 32 A 12.311 12.311 0 0 0 266.507 31.496 Q 266.8 29.968 266.8 28 A 25.306 25.306 0 0 0 266.774 26.833 Q 266.698 25.194 266.4 24 L 261.4 24 A 12.311 12.311 0 0 0 261.507 23.496 Q 261.8 21.968 261.8 20 A 25.306 25.306 0 0 0 261.774 18.833 Q 261.698 17.194 261.4 16 L 245.4 16 Q 245.147 17.013 245.054 18.345 A 23.85 23.85 0 0 0 245 20 Q 245 21.294 245.127 22.398 A 13.936 13.936 0 0 0 245.4 24 A 11.741 11.741 0 0 1 245.644 25.313 Q 245.737 26.018 245.774 26.833 A 25.306 25.306 0 0 1 245.8 28 Q 245.8 29.968 245.507 31.496 A 12.311 12.311 0 0 1 245.4 32 L 242.4 32 A 11.741 11.741 0 0 1 242.644 33.313 Q 242.737 34.018 242.774 34.833 A 25.306 25.306 0 0 1 242.8 36 Q 242.8 37.968 242.507 39.496 A 12.311 12.311 0 0 1 242.4 40 A 11.741 11.741 0 0 1 242.644 41.313 Q 242.737 42.018 242.774 42.833 A 25.306 25.306 0 0 1 242.8 44 Q 242.8 45.968 242.507 47.496 A 12.311 12.311 0 0 1 242.4 48 A 11.741 11.741 0 0 1 242.644 49.313 Q 242.737 50.018 242.774 50.833 A 25.306 25.306 0 0 1 242.8 52 Q 242.8 53.968 242.507 55.496 A 12.311 12.311 0 0 1 242.4 56 L 234.4 56 A 13.936 13.936 0 0 1 234.127 54.398 Q 234 53.294 234 52 A 23.85 23.85 0 0 1 234.054 50.345 Q 234.147 49.013 234.4 48 A 13.936 13.936 0 0 1 234.127 46.398 Q 234 45.294 234 44 A 23.85 23.85 0 0 1 234.054 42.345 Q 234.147 41.013 234.4 40 A 13.936 13.936 0 0 1 234.127 38.398 Q 234 37.294 234 36 A 23.85 23.85 0 0 1 234.054 34.345 Q 234.147 33.013 234.4 32 A 13.936 13.936 0 0 1 234.127 30.398 Q 234 29.294 234 28 A 23.85 23.85 0 0 1 234.054 26.345 Q 234.147 25.013 234.4 24 A 13.936 13.936 0 0 1 234.127 22.398 Q 234 21.294 234 20 A 23.85 23.85 0 0 1 234.054 18.345 Q 234.147 17.013 234.4 16 A 13.936 13.936 0 0 1 234.127 14.398 Q 234 13.294 234 12 A 23.85 23.85 0 0 1 234.054 10.345 Q 234.147 9.013 234.4 8 A 13.936 13.936 0 0 1 234.127 6.398 Q 234 5.294 234 4 A 23.85 23.85 0 0 1 234.054 2.345 Q 234.147 1.013 234.4 0 L 242.4 0 A 11.741 11.741 0 0 1 242.644 1.313 Q 242.737 2.018 242.774 2.833 A 25.306 25.306 0 0 1 242.8 4 Q 242.8 5.968 242.507 7.496 A 12.311 12.311 0 0 1 242.4 8 A 11.741 11.741 0 0 1 242.644 9.313 Q 242.737 10.018 242.774 10.833 A 25.306 25.306 0 0 1 242.8 12 Q 242.8 13.968 242.507 15.496 A 12.311 12.311 0 0 1 242.4 16 A 11.741 11.741 0 0 1 242.644 17.313 Q 242.737 18.018 242.774 18.833 A 25.306 25.306 0 0 1 242.8 20 Q 242.8 21.968 242.507 23.496 A 12.311 12.311 0 0 1 242.4 24 Z M 466.4 32 L 458.4 32 A 13.936 13.936 0 0 1 458.127 30.398 Q 458 29.294 458 28 A 23.85 23.85 0 0 1 458.054 26.345 Q 458.147 25.013 458.4 24 L 451.4 24 Q 451.698 25.194 451.774 26.833 A 25.306 25.306 0 0 1 451.8 28 Q 451.8 29.968 451.507 31.496 A 12.311 12.311 0 0 1 451.4 32 L 448.4 32 A 11.741 11.741 0 0 1 448.644 33.313 Q 448.737 34.018 448.774 34.833 A 25.306 25.306 0 0 1 448.8 36 Q 448.8 37.968 448.507 39.496 A 12.311 12.311 0 0 1 448.4 40 A 11.741 11.741 0 0 1 448.644 41.313 Q 448.737 42.018 448.774 42.833 A 25.306 25.306 0 0 1 448.8 44 Q 448.8 45.968 448.507 47.496 A 12.311 12.311 0 0 1 448.4 48 L 454.4 48 Q 454.698 49.194 454.774 50.833 A 25.306 25.306 0 0 1 454.8 52 Q 454.8 53.968 454.507 55.496 A 12.311 12.311 0 0 1 454.4 56 L 434.4 56 A 13.936 13.936 0 0 1 434.127 54.398 Q 434 53.294 434 52 A 23.85 23.85 0 0 1 434.054 50.345 Q 434.147 49.013 434.4 48 L 440.4 48 A 13.936 13.936 0 0 1 440.127 46.398 Q 440 45.294 440 44 A 23.85 23.85 0 0 1 440.054 42.345 Q 440.147 41.013 440.4 40 A 13.936 13.936 0 0 1 440.127 38.398 Q 440 37.294 440 36 A 23.85 23.85 0 0 1 440.054 34.345 Q 440.147 33.013 440.4 32 A 13.936 13.936 0 0 1 440.127 30.398 Q 440 29.294 440 28 A 23.85 23.85 0 0 1 440.054 26.345 Q 440.147 25.013 440.4 24 L 434.4 24 A 13.936 13.936 0 0 1 434.127 22.398 Q 434 21.294 434 20 A 23.85 23.85 0 0 1 434.054 18.345 Q 434.147 17.013 434.4 16 L 444.4 16 A 11.741 11.741 0 0 1 444.644 17.313 Q 444.737 18.018 444.774 18.833 A 25.306 25.306 0 0 1 444.8 20 Q 444.8 21.968 444.507 23.496 A 12.311 12.311 0 0 1 444.4 24 L 448.4 24 A 13.936 13.936 0 0 1 448.127 22.398 Q 448 21.294 448 20 A 23.85 23.85 0 0 1 448.054 18.345 Q 448.147 17.013 448.4 16 L 463.4 16 A 11.741 11.741 0 0 1 463.644 17.313 Q 463.737 18.018 463.774 18.833 A 25.306 25.306 0 0 1 463.8 20 Q 463.8 21.968 463.507 23.496 A 12.311 12.311 0 0 1 463.4 24 L 466.4 24 Q 466.698 25.194 466.774 26.833 A 25.306 25.306 0 0 1 466.8 28 Q 466.8 29.968 466.507 31.496 A 12.311 12.311 0 0 1 466.4 32 Z M 479.4 24 L 482.4 24 L 487.4 24 Q 487.147 25.013 487.054 26.345 A 23.85 23.85 0 0 0 487 28 Q 487 29.294 487.127 30.398 A 13.936 13.936 0 0 0 487.4 32 Q 487.147 33.013 487.054 34.345 A 23.85 23.85 0 0 0 487 36 Q 487 37.294 487.127 38.398 A 13.936 13.936 0 0 0 487.4 40 Q 487.147 41.013 487.054 42.345 A 23.85 23.85 0 0 0 487 44 Q 487 45.294 487.127 46.398 A 13.936 13.936 0 0 0 487.4 48 Q 487.147 49.013 487.054 50.345 A 23.85 23.85 0 0 0 487 52 Q 487 53.294 487.127 54.398 A 13.936 13.936 0 0 0 487.4 56 L 493.4 56 A 12.311 12.311 0 0 0 493.507 55.496 Q 493.8 53.968 493.8 52 A 25.306 25.306 0 0 0 493.774 50.833 Q 493.698 49.194 493.4 48 A 12.311 12.311 0 0 0 493.507 47.496 Q 493.8 45.968 493.8 44 A 25.306 25.306 0 0 0 493.774 42.833 Q 493.698 41.194 493.4 40 A 12.311 12.311 0 0 0 493.507 39.496 Q 493.8 37.968 493.8 36 A 25.306 25.306 0 0 0 493.774 34.833 Q 493.698 33.194 493.4 32 A 12.311 12.311 0 0 0 493.507 31.496 Q 493.8 29.968 493.8 28 A 25.306 25.306 0 0 0 493.774 26.833 Q 493.698 25.194 493.4 24 L 490.4 24 A 12.311 12.311 0 0 0 490.507 23.496 Q 490.8 21.968 490.8 20 A 25.306 25.306 0 0 0 490.774 18.833 Q 490.698 17.194 490.4 16 L 482.4 16 Q 482.147 17.013 482.054 18.345 A 23.85 23.85 0 0 0 482 20 Q 482 21.294 482.127 22.398 A 13.936 13.936 0 0 0 482.4 24 A 11.741 11.741 0 0 1 482.644 25.313 Q 482.737 26.018 482.774 26.833 A 25.306 25.306 0 0 1 482.8 28 Q 482.8 29.968 482.507 31.496 A 12.311 12.311 0 0 1 482.4 32 A 11.741 11.741 0 0 1 482.644 33.313 Q 482.737 34.018 482.774 34.833 A 25.306 25.306 0 0 1 482.8 36 Q 482.8 37.968 482.507 39.496 A 12.311 12.311 0 0 1 482.4 40 A 11.741 11.741 0 0 1 482.644 41.313 Q 482.737 42.018 482.774 42.833 A 25.306 25.306 0 0 1 482.8 44 Q 482.8 45.968 482.507 47.496 A 12.311 12.311 0 0 1 482.4 48 A 11.741 11.741 0 0 1 482.644 49.313 Q 482.737 50.018 482.774 50.833 A 25.306 25.306 0 0 1 482.8 52 Q 482.8 53.968 482.507 55.496 A 12.311 12.311 0 0 1 482.4 56 L 474.4 56 A 13.936 13.936 0 0 1 474.127 54.398 Q 474 53.294 474 52 A 23.85 23.85 0 0 1 474.054 50.345 Q 474.147 49.013 474.4 48 A 13.936 13.936 0 0 1 474.127 46.398 Q 474 45.294 474 44 A 23.85 23.85 0 0 1 474.054 42.345 Q 474.147 41.013 474.4 40 A 13.936 13.936 0 0 1 474.127 38.398 Q 474 37.294 474 36 A 23.85 23.85 0 0 1 474.054 34.345 Q 474.147 33.013 474.4 32 A 13.936 13.936 0 0 1 474.127 30.398 Q 474 29.294 474 28 A 23.85 23.85 0 0 1 474.054 26.345 Q 474.147 25.013 474.4 24 A 13.936 13.936 0 0 1 474.127 22.398 Q 474 21.294 474 20 A 23.85 23.85 0 0 1 474.054 18.345 Q 474.147 17.013 474.4 16 L 479.4 16 A 11.741 11.741 0 0 1 479.644 17.313 Q 479.737 18.018 479.774 18.833 A 25.306 25.306 0 0 1 479.8 20 Q 479.8 21.968 479.507 23.496 A 12.311 12.311 0 0 1 479.4 24 Z M 570.4 48 L 582.4 48 A 11.741 11.741 0 0 1 582.644 49.313 Q 582.737 50.018 582.774 50.833 A 25.306 25.306 0 0 1 582.8 52 Q 582.8 53.968 582.507 55.496 A 12.311 12.311 0 0 1 582.4 56 L 566.4 56 A 13.936 13.936 0 0 1 566.127 54.398 Q 566 53.294 566 52 A 23.85 23.85 0 0 1 566.054 50.345 Q 566.147 49.013 566.4 48 L 562.4 48 A 13.936 13.936 0 0 1 562.127 46.398 Q 562 45.294 562 44 A 23.85 23.85 0 0 1 562.054 42.345 Q 562.147 41.013 562.4 40 A 13.936 13.936 0 0 1 562.127 38.398 Q 562 37.294 562 36 A 23.85 23.85 0 0 1 562.054 34.345 Q 562.147 33.013 562.4 32 A 13.936 13.936 0 0 1 562.127 30.398 Q 562 29.294 562 28 A 23.85 23.85 0 0 1 562.054 26.345 Q 562.147 25.013 562.4 24 L 554.4 24 A 13.936 13.936 0 0 1 554.127 22.398 Q 554 21.294 554 20 A 23.85 23.85 0 0 1 554.054 18.345 Q 554.147 17.013 554.4 16 L 562.4 16 A 13.936 13.936 0 0 1 562.127 14.398 Q 562 13.294 562 12 A 23.85 23.85 0 0 1 562.054 10.345 Q 562.147 9.013 562.4 8 A 13.936 13.936 0 0 1 562.127 6.398 Q 562 5.294 562 4 A 23.85 23.85 0 0 1 562.054 2.345 Q 562.147 1.013 562.4 0 L 570.4 0 Q 570.698 1.194 570.774 2.833 A 25.306 25.306 0 0 1 570.8 4 Q 570.8 5.968 570.507 7.496 A 12.311 12.311 0 0 1 570.4 8 Q 570.698 9.194 570.774 10.833 A 25.306 25.306 0 0 1 570.8 12 Q 570.8 13.968 570.507 15.496 A 12.311 12.311 0 0 1 570.4 16 L 582.4 16 A 11.741 11.741 0 0 1 582.644 17.313 Q 582.737 18.018 582.774 18.833 A 25.306 25.306 0 0 1 582.8 20 Q 582.8 21.968 582.507 23.496 A 12.311 12.311 0 0 1 582.4 24 L 570.4 24 Q 570.698 25.194 570.774 26.833 A 25.306 25.306 0 0 1 570.8 28 Q 570.8 29.968 570.507 31.496 A 12.311 12.311 0 0 1 570.4 32 Q 570.698 33.194 570.774 34.833 A 25.306 25.306 0 0 1 570.8 36 Q 570.8 37.968 570.507 39.496 A 12.311 12.311 0 0 1 570.4 40 Q 570.698 41.194 570.774 42.833 A 25.306 25.306 0 0 1 570.8 44 Q 570.8 45.968 570.507 47.496 A 12.311 12.311 0 0 1 570.4 48 Z M 306.4 40 L 285.4 40 A 11.741 11.741 0 0 1 285.644 41.313 Q 285.737 42.018 285.774 42.833 A 25.306 25.306 0 0 1 285.8 44 Q 285.8 45.968 285.507 47.496 A 12.311 12.311 0 0 1 285.4 48 L 302.4 48 A 11.741 11.741 0 0 1 302.644 49.313 Q 302.737 50.018 302.774 50.833 A 25.306 25.306 0 0 1 302.8 52 Q 302.8 53.968 302.507 55.496 A 12.311 12.311 0 0 1 302.4 56 L 282.4 56 A 13.936 13.936 0 0 1 282.127 54.398 Q 282 53.294 282 52 A 23.85 23.85 0 0 1 282.054 50.345 Q 282.147 49.013 282.4 48 L 277.4 48 A 13.936 13.936 0 0 1 277.127 46.398 Q 277 45.294 277 44 A 23.85 23.85 0 0 1 277.054 42.345 Q 277.147 41.013 277.4 40 L 274.4 40 A 13.936 13.936 0 0 1 274.127 38.398 Q 274 37.294 274 36 A 23.85 23.85 0 0 1 274.054 34.345 Q 274.147 33.013 274.4 32 L 277.4 32 A 13.936 13.936 0 0 1 277.127 30.398 Q 277 29.294 277 28 A 23.85 23.85 0 0 1 277.054 26.345 Q 277.147 25.013 277.4 24 L 282.4 24 A 13.936 13.936 0 0 1 282.127 22.398 Q 282 21.294 282 20 A 23.85 23.85 0 0 1 282.054 18.345 Q 282.147 17.013 282.4 16 L 302.4 16 A 11.741 11.741 0 0 1 302.644 17.313 Q 302.737 18.018 302.774 18.833 A 25.306 25.306 0 0 1 302.8 20 Q 302.8 21.968 302.507 23.496 A 12.311 12.311 0 0 1 302.4 24 L 306.4 24 Q 306.698 25.194 306.774 26.833 A 25.306 25.306 0 0 1 306.8 28 Q 306.8 29.968 306.507 31.496 A 12.311 12.311 0 0 1 306.4 32 Q 306.698 33.194 306.774 34.833 A 25.306 25.306 0 0 1 306.8 36 Q 306.8 37.968 306.507 39.496 A 12.311 12.311 0 0 1 306.4 40 Z M 426.4 40 L 405.4 40 A 11.741 11.741 0 0 1 405.644 41.313 Q 405.737 42.018 405.774 42.833 A 25.306 25.306 0 0 1 405.8 44 Q 405.8 45.968 405.507 47.496 A 12.311 12.311 0 0 1 405.4 48 L 422.4 48 A 11.741 11.741 0 0 1 422.644 49.313 Q 422.737 50.018 422.774 50.833 A 25.306 25.306 0 0 1 422.8 52 Q 422.8 53.968 422.507 55.496 A 12.311 12.311 0 0 1 422.4 56 L 402.4 56 A 13.936 13.936 0 0 1 402.127 54.398 Q 402 53.294 402 52 A 23.85 23.85 0 0 1 402.054 50.345 Q 402.147 49.013 402.4 48 L 397.4 48 A 13.936 13.936 0 0 1 397.127 46.398 Q 397 45.294 397 44 A 23.85 23.85 0 0 1 397.054 42.345 Q 397.147 41.013 397.4 40 L 394.4 40 A 13.936 13.936 0 0 1 394.127 38.398 Q 394 37.294 394 36 A 23.85 23.85 0 0 1 394.054 34.345 Q 394.147 33.013 394.4 32 L 397.4 32 A 13.936 13.936 0 0 1 397.127 30.398 Q 397 29.294 397 28 A 23.85 23.85 0 0 1 397.054 26.345 Q 397.147 25.013 397.4 24 L 402.4 24 A 13.936 13.936 0 0 1 402.127 22.398 Q 402 21.294 402 20 A 23.85 23.85 0 0 1 402.054 18.345 Q 402.147 17.013 402.4 16 L 422.4 16 A 11.741 11.741 0 0 1 422.644 17.313 Q 422.737 18.018 422.774 18.833 A 25.306 25.306 0 0 1 422.8 20 Q 422.8 21.968 422.507 23.496 A 12.311 12.311 0 0 1 422.4 24 L 426.4 24 Q 426.698 25.194 426.774 26.833 A 25.306 25.306 0 0 1 426.8 28 Q 426.8 29.968 426.507 31.496 A 12.311 12.311 0 0 1 426.4 32 Q 426.698 33.194 426.774 34.833 A 25.306 25.306 0 0 1 426.8 36 Q 426.8 37.968 426.507 39.496 A 12.311 12.311 0 0 1 426.4 40 Z M 14.4 48 L 20.4 48 Q 20.698 49.194 20.774 50.833 A 25.306 25.306 0 0 1 20.8 52 Q 20.8 53.968 20.507 55.496 A 12.311 12.311 0 0 1 20.4 56 L 0.4 56 A 13.936 13.936 0 0 1 0.127 54.398 Q 0 53.294 0 52 A 23.85 23.85 0 0 1 0.054 50.345 Q 0.147 49.013 0.4 48 L 6.4 48 A 13.936 13.936 0 0 1 6.127 46.398 Q 6 45.294 6 44 A 23.85 23.85 0 0 1 6.054 42.345 Q 6.147 41.013 6.4 40 A 13.936 13.936 0 0 1 6.127 38.398 Q 6 37.294 6 36 A 23.85 23.85 0 0 1 6.054 34.345 Q 6.147 33.013 6.4 32 A 13.936 13.936 0 0 1 6.127 30.398 Q 6 29.294 6 28 A 23.85 23.85 0 0 1 6.054 26.345 Q 6.147 25.013 6.4 24 A 13.936 13.936 0 0 1 6.127 22.398 Q 6 21.294 6 20 A 23.85 23.85 0 0 1 6.054 18.345 Q 6.147 17.013 6.4 16 A 13.936 13.936 0 0 1 6.127 14.398 Q 6 13.294 6 12 A 23.85 23.85 0 0 1 6.054 10.345 Q 6.147 9.013 6.4 8 L 0.4 8 A 13.936 13.936 0 0 1 0.127 6.398 Q 0 5.294 0 4 A 23.85 23.85 0 0 1 0.054 2.345 Q 0.147 1.013 0.4 0 L 20.4 0 Q 20.698 1.194 20.774 2.833 A 25.306 25.306 0 0 1 20.8 4 Q 20.8 5.968 20.507 7.496 A 12.311 12.311 0 0 1 20.4 8 L 14.4 8 Q 14.698 9.194 14.774 10.833 A 25.306 25.306 0 0 1 14.8 12 Q 14.8 13.968 14.507 15.496 A 12.311 12.311 0 0 1 14.4 16 Q 14.698 17.194 14.774 18.833 A 25.306 25.306 0 0 1 14.8 20 Q 14.8 21.968 14.507 23.496 A 12.311 12.311 0 0 1 14.4 24 Q 14.698 25.194 14.774 26.833 A 25.306 25.306 0 0 1 14.8 28 Q 14.8 29.968 14.507 31.496 A 12.311 12.311 0 0 1 14.4 32 Q 14.698 33.194 14.774 34.833 A 25.306 25.306 0 0 1 14.8 36 Q 14.8 37.968 14.507 39.496 A 12.311 12.311 0 0 1 14.4 40 Q 14.698 41.194 14.774 42.833 A 25.306 25.306 0 0 1 14.8 44 Q 14.8 45.968 14.507 47.496 A 12.311 12.311 0 0 1 14.4 48 Z M 226.4 8 L 214.4 8 Q 214.698 9.194 214.774 10.833 A 25.306 25.306 0 0 1 214.8 12 Q 214.8 13.968 214.507 15.496 A 12.311 12.311 0 0 1 214.4 16 Q 214.698 17.194 214.774 18.833 A 25.306 25.306 0 0 1 214.8 20 Q 214.8 21.968 214.507 23.496 A 12.311 12.311 0 0 1 214.4 24 Q 214.698 25.194 214.774 26.833 A 25.306 25.306 0 0 1 214.8 28 Q 214.8 29.968 214.507 31.496 A 12.311 12.311 0 0 1 214.4 32 Q 214.698 33.194 214.774 34.833 A 25.306 25.306 0 0 1 214.8 36 Q 214.8 37.968 214.507 39.496 A 12.311 12.311 0 0 1 214.4 40 Q 214.698 41.194 214.774 42.833 A 25.306 25.306 0 0 1 214.8 44 Q 214.8 45.968 214.507 47.496 A 12.311 12.311 0 0 1 214.4 48 Q 214.698 49.194 214.774 50.833 A 25.306 25.306 0 0 1 214.8 52 Q 214.8 53.968 214.507 55.496 A 12.311 12.311 0 0 1 214.4 56 L 206.4 56 A 13.936 13.936 0 0 1 206.127 54.398 Q 206 53.294 206 52 A 23.85 23.85 0 0 1 206.054 50.345 Q 206.147 49.013 206.4 48 A 13.936 13.936 0 0 1 206.127 46.398 Q 206 45.294 206 44 A 23.85 23.85 0 0 1 206.054 42.345 Q 206.147 41.013 206.4 40 A 13.936 13.936 0 0 1 206.127 38.398 Q 206 37.294 206 36 A 23.85 23.85 0 0 1 206.054 34.345 Q 206.147 33.013 206.4 32 A 13.936 13.936 0 0 1 206.127 30.398 Q 206 29.294 206 28 A 23.85 23.85 0 0 1 206.054 26.345 Q 206.147 25.013 206.4 24 A 13.936 13.936 0 0 1 206.127 22.398 Q 206 21.294 206 20 A 23.85 23.85 0 0 1 206.054 18.345 Q 206.147 17.013 206.4 16 A 13.936 13.936 0 0 1 206.127 14.398 Q 206 13.294 206 12 A 23.85 23.85 0 0 1 206.054 10.345 Q 206.147 9.013 206.4 8 L 194.4 8 A 13.936 13.936 0 0 1 194.127 6.398 Q 194 5.294 194 4 A 23.85 23.85 0 0 1 194.054 2.345 Q 194.147 1.013 194.4 0 L 226.4 0 Q 226.698 1.194 226.774 2.833 A 25.306 25.306 0 0 1 226.8 4 Q 226.8 5.968 226.507 7.496 A 12.311 12.311 0 0 1 226.4 8 Z M 542.4 56 L 518.4 56 A 13.936 13.936 0 0 1 518.127 54.398 Q 518 53.294 518 52 A 23.85 23.85 0 0 1 518.054 50.345 Q 518.147 49.013 518.4 48 L 526.4 48 A 13.936 13.936 0 0 1 526.127 46.398 Q 526 45.294 526 44 A 23.85 23.85 0 0 1 526.054 42.345 Q 526.147 41.013 526.4 40 A 13.936 13.936 0 0 1 526.127 38.398 Q 526 37.294 526 36 A 23.85 23.85 0 0 1 526.054 34.345 Q 526.147 33.013 526.4 32 A 13.936 13.936 0 0 1 526.127 30.398 Q 526 29.294 526 28 A 23.85 23.85 0 0 1 526.054 26.345 Q 526.147 25.013 526.4 24 L 520.4 24 A 13.936 13.936 0 0 1 520.127 22.398 Q 520 21.294 520 20 A 23.85 23.85 0 0 1 520.054 18.345 Q 520.147 17.013 520.4 16 L 534.4 16 Q 534.698 17.194 534.774 18.833 A 25.306 25.306 0 0 1 534.8 20 Q 534.8 21.968 534.507 23.496 A 12.311 12.311 0 0 1 534.4 24 Q 534.698 25.194 534.774 26.833 A 25.306 25.306 0 0 1 534.8 28 Q 534.8 29.968 534.507 31.496 A 12.311 12.311 0 0 1 534.4 32 Q 534.698 33.194 534.774 34.833 A 25.306 25.306 0 0 1 534.8 36 Q 534.8 37.968 534.507 39.496 A 12.311 12.311 0 0 1 534.4 40 Q 534.698 41.194 534.774 42.833 A 25.306 25.306 0 0 1 534.8 44 Q 534.8 45.968 534.507 47.496 A 12.311 12.311 0 0 1 534.4 48 L 542.4 48 A 11.741 11.741 0 0 1 542.644 49.313 Q 542.737 50.018 542.774 50.833 A 25.306 25.306 0 0 1 542.8 52 Q 542.8 53.968 542.507 55.496 A 12.311 12.311 0 0 1 542.4 56 Z M 493.4 24 L 498.4 24 Q 498.147 25.013 498.054 26.345 A 23.85 23.85 0 0 0 498 28 Q 498 29.294 498.127 30.398 A 13.936 13.936 0 0 0 498.4 32 Q 498.147 33.013 498.054 34.345 A 23.85 23.85 0 0 0 498 36 Q 498 37.294 498.127 38.398 A 13.936 13.936 0 0 0 498.4 40 Q 498.147 41.013 498.054 42.345 A 23.85 23.85 0 0 0 498 44 Q 498 45.294 498.127 46.398 A 13.936 13.936 0 0 0 498.4 48 Q 498.147 49.013 498.054 50.345 A 23.85 23.85 0 0 0 498 52 Q 498 53.294 498.127 54.398 A 13.936 13.936 0 0 0 498.4 56 L 506.4 56 A 12.311 12.311 0 0 0 506.507 55.496 Q 506.8 53.968 506.8 52 A 25.306 25.306 0 0 0 506.774 50.833 Q 506.698 49.194 506.4 48 A 12.311 12.311 0 0 0 506.507 47.496 Q 506.8 45.968 506.8 44 A 25.306 25.306 0 0 0 506.774 42.833 Q 506.698 41.194 506.4 40 A 12.311 12.311 0 0 0 506.507 39.496 Q 506.8 37.968 506.8 36 A 25.306 25.306 0 0 0 506.774 34.833 Q 506.698 33.194 506.4 32 A 12.311 12.311 0 0 0 506.507 31.496 Q 506.8 29.968 506.8 28 A 25.306 25.306 0 0 0 506.774 26.833 Q 506.698 25.194 506.4 24 L 502.4 24 A 12.311 12.311 0 0 0 502.507 23.496 Q 502.8 21.968 502.8 20 A 25.306 25.306 0 0 0 502.774 18.833 Q 502.737 18.018 502.644 17.313 A 11.741 11.741 0 0 0 502.4 16 L 493.4 16 Q 493.147 17.013 493.054 18.345 A 23.85 23.85 0 0 0 493 20 Q 493 21.294 493.127 22.398 A 13.936 13.936 0 0 0 493.4 24 Z M 120.4 24 L 140.4 24 Q 140.698 25.194 140.774 26.833 A 25.306 25.306 0 0 1 140.8 28 Q 140.8 29.968 140.507 31.496 A 12.311 12.311 0 0 1 140.4 32 L 120.4 32 A 13.936 13.936 0 0 1 120.127 30.398 Q 120 29.294 120 28 A 23.85 23.85 0 0 1 120.054 26.345 Q 120.147 25.013 120.4 24 Z M 298.4 24 L 285.4 24 A 11.741 11.741 0 0 1 285.644 25.313 Q 285.737 26.018 285.774 26.833 A 25.306 25.306 0 0 1 285.8 28 Q 285.8 29.968 285.507 31.496 A 12.311 12.311 0 0 1 285.4 32 L 298.4 32 A 13.936 13.936 0 0 1 298.127 30.398 Q 298 29.294 298 28 A 23.85 23.85 0 0 1 298.054 26.345 Q 298.147 25.013 298.4 24 Z M 418.4 24 L 405.4 24 A 11.741 11.741 0 0 1 405.644 25.313 Q 405.737 26.018 405.774 26.833 A 25.306 25.306 0 0 1 405.8 28 Q 405.8 29.968 405.507 31.496 A 12.311 12.311 0 0 1 405.4 32 L 418.4 32 A 13.936 13.936 0 0 1 418.127 30.398 Q 418 29.294 418 28 A 23.85 23.85 0 0 1 418.054 26.345 Q 418.147 25.013 418.4 24 Z M 534.4 8 L 526.4 8 A 13.936 13.936 0 0 1 526.127 6.398 Q 526 5.294 526 4 A 23.85 23.85 0 0 1 526.054 2.345 Q 526.147 1.013 526.4 0 L 534.4 0 Q 534.698 1.194 534.774 2.833 A 25.306 25.306 0 0 1 534.8 4 Q 534.8 5.968 534.507 7.496 A 12.311 12.311 0 0 1 534.4 8 Z M 493.4 24 Q 493.698 25.194 493.774 26.833" vector-effect="non-scaling-stroke"/></g></svg>