<svg width="708.8" height="72" viewBox="0 0 708.8 72" xmlns="http://www.w3.org/2000/svg"><g id="svgGroup" stroke-linecap="round" fill-rule="evenodd" font-size="9pt" stroke="#000" stroke-width="0.25mm" fill="#000" style="stroke:#000;stroke-width:0.25mm;fill:#000"><path d="M 352.4 56 L 344.4 56 A 13.936 13.936 0 0 1 344.127 54.398 Q 344 53.294 344 52 A 23.85 23.85 0 0 1 344.054 50.345 Q 344.147 49.013 344.4 48 A 13.936 13.936 0 0 1 344.127 46.398 Q 344 45.294 344 44 A 23.85 23.85 0 0 1 344.054 42.345 Q 344.147 41.013 344.4 40 A 13.936 13.936 0 0 1 344.127 38.398 Q 344 37.294 344 36 A 23.85 23.85 0 0 1 344.054 34.345 Q 344.147 33.013 344.4 32 L 328.4 32 A 11.741 11.741 0 0 1 328.644 33.313 Q 328.737 34.018 328.774 34.833 A 25.306 25.306 0 0 1 328.8 36 Q 328.8 37.968 328.507 39.496 A 12.311 12.311 0 0 1 328.4 40 A 11.741 11.741 0 0 1 328.644 41.313 Q 328.737 42.018 328.774 42.833 A 25.306 25.306 0 0 1 328.8 44 Q 328.8 45.968 328.507 47.496 A 12.311 12.311 0 0 1 328.4 48 A 11.741 11.741 0 0 1 328.644 49.313 Q 328.737 50.018 328.774 50.833 A 25.306 25.306 0 0 1 328.8 52 Q 328.8 53.968 328.507 55.496 A 12.311 12.311 0 0 1 328.4 56 L 320.4 56 A 13.936 13.936 0 0 1 320.127 54.398 Q 320 53.294 320 52 A 23.85 23.85 0 0 1 320.054 50.345 Q 320.147 49.013 320.4 48 A 13.936 13.936 0 0 1 320.127 46.398 Q 320 45.294 320 44 A 23.85 23.85 0 0 1 320.054 42.345 Q 320.147 41.013 320.4 40 A 13.936 13.936 0 0 1 320.127 38.398 Q 320 37.294 320 36 A 23.85 23.85 0 0 1 320.054 34.345 Q 320.147 33.013 320.4 32 A 13.936 13.936 0 0 1 320.127 30.398 Q 320 29.294 320 28 A 23.85 23.85 0 0 1 320.054 26.345 Q 320.147 25.013 320.4 24 A 13.936 13.936 0 0 1 320.127 22.398 Q 320 21.294 320 20 A 23.85 23.85 0 0 1 320.054 18.345 Q 320.147 17.013 320.4 16 A 13.936 13.936 0 0 1 320.127 14.398 Q 320 13.294 320 12 A 23.85 23.85 0 0 1 320.054 10.345 Q 320.147 9.013 320.4 8 A 13.936 13.936 0 0 1 320.127 6.398 Q 320 5.294 320 4 A 23.85 23.85 0 0 1 320.054 2.345 Q 320.147 1.013 320.4 0 L 328.4 0 A 11.741 11.741 0 0 1 328.644 1.313 Q 328.737 2.018 328.774 2.833 A 25.306 25.306 0 0 1 328.8 4 Q 328.8 5.968 328.507 7.496 A 12.311 12.311 0 0 1 328.4 8 A 11.741 11.741 0 0 1 328.644 9.313 Q 328.737 10.018 328.774 10.833 A 25.306 25.306 0 0 1 328.8 12 Q 328.8 13.968 328.507 15.496 A 12.311 12.311 0 0 1 328.4 16 A 11.741 11.741 0 0 1 328.644 17.313 Q 328.737 18.018 328.774 18.833 A 25.306 25.306 0 0 1 328.8 20 Q 328.8 21.968 328.507 23.496 A 12.311 12.311 0 0 1 328.4 24 L 344.4 24 A 13.936 13.936 0 0 1 344.127 22.398 Q 344 21.294 344 20 A 23.85 23.85 0 0 1 344.054 18.345 Q 344.147 17.013 344.4 16 A 13.936 13.936 0 0 1 344.127 14.398 Q 344 13.294 344 12 A 23.85 23.85 0 0 1 344.054 10.345 Q 344.147 9.013 344.4 8 A 13.936 13.936 0 0 1 344.127 6.398 Q 344 5.294 344 4 A 23.85 23.85 0 0 1 344.054 2.345 Q 344.147 1.013 344.4 0 L 352.4 0 Q 352.698 1.194 352.774 2.833 A 25.306 25.306 0 0 1 352.8 4 Q 352.8 5.968 352.507 7.496 A 12.311 12.311 0 0 1 352.4 8 Q 352.698 9.194 352.774 10.833 A 25.306 25.306 0 0 1 352.8 12 Q 352.8 13.968 352.507 15.496 A 12.311 12.311 0 0 1 352.4 16 Q 352.698 17.194 352.774 18.833 A 25.306 25.306 0 0 1 352.8 20 Q 352.8 21.968 352.507 23.496 A 12.311 12.311 0 0 1 352.4 24 Q 352.698 25.194 352.774 26.833 A 25.306 25.306 0 0 1 352.8 28 Q 352.8 29.968 352.507 31.496 A 12.311 12.311 0 0 1 352.4 32 Q 352.698 33.194 352.774 34.833 A 25.306 25.306 0 0 1 352.8 36 Q 352.8 37.968 352.507 39.496 A 12.311 12.311 0 0 1 352.4 40 Q 352.698 41.194 352.774 42.833 A 25.306 25.306 0 0 1 352.8 44 Q 352.8 45.968 352.507 47.496 A 12.311 12.311 0 0 1 352.4 48 Q 352.698 49.194 352.774 50.833 A 25.306 25.306 0 0 1 352.8 52 Q 352.8 53.968 352.507 55.496 A 12.311 12.311 0 0 1 352.4 56 Z M 532.4 24 Q 532.698 25.194 532.774 26.833 A 25.306 25.306 0 0 1 532.8 28 Q 532.8 29.968 532.507 31.496 A 12.311 12.311 0 0 1 532.4 32 L 528.4 32 A 11.741 11.741 0 0 1 528.644 33.313 Q 528.737 34.018 528.774 34.833 A 25.306 25.306 0 0 1 528.8 36 Q 528.8 37.968 528.507 39.496 A 12.311 12.311 0 0 1 528.4 40 A 11.741 11.741 0 0 1 528.644 41.313 Q 528.737 42.018 528.774 42.833 A 25.306 25.306 0 0 1 528.8 44 Q 528.8 45.968 528.507 47.496 A 12.311 12.311 0 0 1 528.4 48 L 540.4 48 A 13.936 13.936 0 0 1 540.127 46.398 Q 540 45.294 540 44 A 23.85 23.85 0 0 1 540.054 42.345 Q 540.147 41.013 540.4 40 L 544.4 40 A 13.936 13.936 0 0 1 544.127 38.398 Q 544 37.294 544 36 A 23.85 23.85 0 0 1 544.054 34.345 Q 544.147 33.013 544.4 32 L 540.4 32 A 13.936 13.936 0 0 1 540.127 30.398 Q 540 29.294 540 28 A 23.85 23.85 0 0 1 540.054 26.345 Q 540.147 25.013 540.4 24 L 532.4 24 L 528.4 24 A 12.311 12.311 0 0 0 528.507 23.496 Q 528.8 21.968 528.8 20 A 25.306 25.306 0 0 0 528.774 18.833 Q 528.737 18.018 528.644 17.313 A 11.741 11.741 0 0 0 528.4 16 L 520.4 16 Q 520.147 17.013 520.054 18.345 A 23.85 23.85 0 0 0 520 20 Q 520 21.294 520.127 22.398 A 13.936 13.936 0 0 0 520.4 24 Q 520.147 25.013 520.054 26.345 A 23.85 23.85 0 0 0 520 28 Q 520 29.294 520.127 30.398 A 13.936 13.936 0 0 0 520.4 32 Q 520.147 33.013 520.054 34.345 A 23.85 23.85 0 0 0 520 36 Q 520 37.294 520.127 38.398 A 13.936 13.936 0 0 0 520.4 40 Q 520.147 41.013 520.054 42.345 A 23.85 23.85 0 0 0 520 44 Q 520 45.294 520.127 46.398 A 13.936 13.936 0 0 0 520.4 48 Q 520.147 49.013 520.054 50.345 A 23.85 23.85 0 0 0 520 52 Q 520 53.294 520.127 54.398 A 13.936 13.936 0 0 0 520.4 56 Q 520.147 57.013 520.054 58.345 A 23.85 23.85 0 0 0 520 60 Q 520 61.294 520.127 62.398 A 13.936 13.936 0 0 0 520.4 64 Q 520.147 65.013 520.054 66.345 A 23.85 23.85 0 0 0 520 68 Q 520 69.294 520.127 70.398 A 13.936 13.936 0 0 0 520.4 72 L 528.4 72 A 12.311 12.311 0 0 0 528.507 71.496 Q 528.8 69.968 528.8 68 A 25.306 25.306 0 0 0 528.774 66.833 Q 528.737 66.018 528.644 65.313 A 11.741 11.741 0 0 0 528.4 64 A 12.311 12.311 0 0 0 528.507 63.496 Q 528.8 61.968 528.8 60 A 25.306 25.306 0 0 0 528.774 58.833 Q 528.737 58.018 528.644 57.313 A 11.741 11.741 0 0 0 528.4 56 L 544.4 56 A 12.311 12.311 0 0 0 544.507 55.496 Q 544.8 53.968 544.8 52 A 25.306 25.306 0 0 0 544.774 50.833 Q 544.698 49.194 544.4 48 L 548.4 48 A 12.311 12.311 0 0 0 548.507 47.496 Q 548.8 45.968 548.8 44 A 25.306 25.306 0 0 0 548.774 42.833 Q 548.737 42.018 548.644 41.313 A 11.741 11.741 0 0 0 548.4 40 L 552.4 40 A 12.311 12.311 0 0 0 552.507 39.496 Q 552.8 37.968 552.8 36 A 25.306 25.306 0 0 0 552.774 34.833 Q 552.698 33.194 552.4 32 L 548.4 32 A 12.311 12.311 0 0 0 548.507 31.496 Q 548.8 29.968 548.8 28 A 25.306 25.306 0 0 0 548.774 26.833 Q 548.737 26.018 548.644 25.313 A 11.741 11.741 0 0 0 548.4 24 L 544.4 24 A 12.311 12.311 0 0 0 544.507 23.496 Q 544.8 21.968 544.8 20 A 25.306 25.306 0 0 0 544.774 18.833 Q 544.698 17.194 544.4 16 L 532.4 16 Q 532.147 17.013 532.054 18.345 A 23.85 23.85 0 0 0 532 20 Q 532 21.294 532.127 22.398 A 13.936 13.936 0 0 0 532.4 24 Z M 32.4 24 L 29.4 24 A 11.741 11.741 0 0 1 29.644 25.313 Q 29.737 26.018 29.774 26.833 A 25.306 25.306 0 0 1 29.8 28 Q 29.8 29.968 29.507 31.496 A 12.311 12.311 0 0 1 29.4 32 L 26.4 32 Q 26.698 33.194 26.774 34.833 A 25.306 25.306 0 0 1 26.8 36 Q 26.8 37.968 26.507 39.496 A 12.311 12.311 0 0 1 26.4 40 L 24.4 40 Q 24.698 41.194 24.774 42.833 A 25.306 25.306 0 0 1 24.8 44 Q 24.8 45.968 24.507 47.496 A 12.311 12.311 0 0 1 24.4 48 L 20.4 48 Q 20.698 49.194 20.774 50.833 A 25.306 25.306 0 0 1 20.8 52 Q 20.8 53.968 20.507 55.496 A 12.311 12.311 0 0 1 20.4 56 L 12.4 56 A 13.936 13.936 0 0 1 12.127 54.398 Q 12 53.294 12 52 A 23.85 23.85 0 0 1 12.054 50.345 Q 12.147 49.013 12.4 48 L 8.4 48 A 13.936 13.936 0 0 1 8.127 46.398 Q 8 45.294 8 44 A 23.85 23.85 0 0 1 8.054 42.345 Q 8.147 41.013 8.4 40 L 6.4 40 A 13.936 13.936 0 0 1 6.127 38.398 Q 6 37.294 6 36 A 23.85 23.85 0 0 1 6.054 34.345 Q 6.147 33.013 6.4 32 L 3.4 32 A 13.936 13.936 0 0 1 3.127 30.398 Q 3 29.294 3 28 A 23.85 23.85 0 0 1 3.054 26.345 Q 3.147 25.013 3.4 24 L 0.4 24 A 13.936 13.936 0 0 1 0.127 22.398 Q 0 21.294 0 20 A 23.85 23.85 0 0 1 0.054 18.345 Q 0.147 17.013 0.4 16 A 13.936 13.936 0 0 1 0.127 14.398 Q 0 13.294 0 12 A 23.85 23.85 0 0 1 0.054 10.345 Q 0.147 9.013 0.4 8 A 13.936 13.936 0 0 1 0.127 6.398 Q 0 5.294 0 4 A 23.85 23.85 0 0 1 0.054 2.345 Q 0.147 1.013 0.4 0 L 8.4 0 A 11.741 11.741 0 0 1 8.644 1.313 Q 8.737 2.018 8.774 2.833 A 25.306 25.306 0 0 1 8.8 4 Q 8.8 5.968 8.507 7.496 A 12.311 12.311 0 0 1 8.4 8 A 11.741 11.741 0 0 1 8.644 9.313 Q 8.737 10.018 8.774 10.833 A 25.306 25.306 0 0 1 8.8 12 Q 8.8 13.968 8.507 15.496 A 12.311 12.311 0 0 1 8.4 16 A 11.741 11.741 0 0 1 8.644 17.313 Q 8.737 18.018 8.774 18.833 A 25.306 25.306 0 0 1 8.8 20 Q 8.8 21.968 8.507 23.496 A 12.311 12.311 0 0 1 8.4 24 L 11.4 24 A 11.741 11.741 0 0 1 11.644 25.313 Q 11.737 26.018 11.774 26.833 A 25.306 25.306 0 0 1 11.8 28 Q 11.8 29.968 11.507 31.496 A 12.311 12.311 0 0 1 11.4 32 L 14.4 32 A 11.741 11.741 0 0 1 14.644 33.313 Q 14.737 34.018 14.774 34.833 A 25.306 25.306 0 0 1 14.8 36 Q 14.8 37.968 14.507 39.496 A 12.311 12.311 0 0 1 14.4 40 L 18.4 40 A 13.936 13.936 0 0 1 18.127 38.398 Q 18 37.294 18 36 A 23.85 23.85 0 0 1 18.054 34.345 Q 18.147 33.013 18.4 32 L 21.4 32 A 13.936 13.936 0 0 1 21.127 30.398 Q 21 29.294 21 28 A 23.85 23.85 0 0 1 21.054 26.345 Q 21.147 25.013 21.4 24 L 24.4 24 A 13.936 13.936 0 0 1 24.127 22.398 Q 24 21.294 24 20 A 23.85 23.85 0 0 1 24.054 18.345 Q 24.147 17.013 24.4 16 A 13.936 13.936 0 0 1 24.127 14.398 Q 24 13.294 24 12 A 23.85 23.85 0 0 1 24.054 10.345 Q 24.147 9.013 24.4 8 A 13.936 13.936 0 0 1 24.127 6.398 Q 24 5.294 24 4 A 23.85 23.85 0 0 1 24.054 2.345 Q 24.147 1.013 24.4 0 L 32.4 0 Q 32.698 1.194 32.774 2.833 A 25.306 25.306 0 0 1 32.8 4 Q 32.8 5.968 32.507 7.496 A 12.311 12.311 0 0 1 32.4 8 Q 32.698 9.194 32.774 10.833 A 25.306 25.306 0 0 1 32.8 12 Q 32.8 13.968 32.507 15.496 A 12.311 12.311 0 0 1 32.4 16 Q 32.698 17.194 32.774 18.833 A 25.306 25.306 0 0 1 32.8 20 Q 32.8 21.968 32.507 23.496 A 12.311 12.311 0 0 1 32.4 24 Z M 208.4 24 L 211.4 24 L 224.4 24 Q 224.147 25.013 224.054 26.345 A 23.85 23.85 0 0 0 224 28 Q 224 29.294 224.127 30.398 A 13.936 13.936 0 0 0 224.4 32 Q 224.147 33.013 224.054 34.345 A 23.85 23.85 0 0 0 224 36 Q 224 37.294 224.127 38.398 A 13.936 13.936 0 0 0 224.4 40 Q 224.147 41.013 224.054 42.345 A 23.85 23.85 0 0 0 224 44 Q 224 45.294 224.127 46.398 A 13.936 13.936 0 0 0 224.4 48 Q 224.147 49.013 224.054 50.345 A 23.85 23.85 0 0 0 224 52 Q 224 53.294 224.127 54.398 A 13.936 13.936 0 0 0 224.4 56 L 232.4 56 A 12.311 12.311 0 0 0 232.507 55.496 Q 232.8 53.968 232.8 52 A 25.306 25.306 0 0 0 232.774 50.833 Q 232.698 49.194 232.4 48 A 12.311 12.311 0 0 0 232.507 47.496 Q 232.8 45.968 232.8 44 A 25.306 25.306 0 0 0 232.774 42.833 Q 232.698 41.194 232.4 40 A 12.311 12.311 0 0 0 232.507 39.496 Q 232.8 37.968 232.8 36 A 25.306 25.306 0 0 0 232.774 34.833 Q 232.698 33.194 232.4 32 A 12.311 12.311 0 0 0 232.507 31.496 Q 232.8 29.968 232.8 28 A 25.306 25.306 0 0 0 232.774 26.833 Q 232.698 25.194 232.4 24 L 227.4 24 A 12.311 12.311 0 0 0 227.507 23.496 Q 227.8 21.968 227.8 20 A 25.306 25.306 0 0 0 227.774 18.833 Q 227.698 17.194 227.4 16 L 211.4 16 Q 211.147 17.013 211.054 18.345 A 23.85 23.85 0 0 0 211 20 Q 211 21.294 211.127 22.398 A 13.936 13.936 0 0 0 211.4 24 A 11.741 11.741 0 0 1 211.644 25.313 Q 211.737 26.018 211.774 26.833 A 25.306 25.306 0 0 1 211.8 28 Q 211.8 29.968 211.507 31.496 A 12.311 12.311 0 0 1 211.4 32 L 208.4 32 A 11.741 11.741 0 0 1 208.644 33.313 Q 208.737 34.018 208.774 34.833 A 25.306 25.306 0 0 1 208.8 36 Q 208.8 37.968 208.507 39.496 A 12.311 12.311 0 0 1 208.4 40 A 11.741 11.741 0 0 1 208.644 41.313 Q 208.737 42.018 208.774 42.833 A 25.306 25.306 0 0 1 208.8 44 Q 208.8 45.968 208.507 47.496 A 12.311 12.311 0 0 1 208.4 48 A 11.741 11.741 0 0 1 208.644 49.313 Q 208.737 50.018 208.774 50.833 A 25.306 25.306 0 0 1 208.8 52 Q 208.8 53.968 208.507 55.496 A 12.311 12.311 0 0 1 208.4 56 L 200.4 56 A 13.936 13.936 0 0 1 200.127 54.398 Q 200 53.294 200 52 A 23.85 23.85 0 0 1 200.054 50.345 Q 200.147 49.013 200.4 48 A 13.936 13.936 0 0 1 200.127 46.398 Q 200 45.294 200 44 A 23.85 23.85 0 0 1 200.054 42.345 Q 200.147 41.013 200.4 40 A 13.936 13.936 0 0 1 200.127 38.398 Q 200 37.294 200 36 A 23.85 23.85 0 0 1 200.054 34.345 Q 200.147 33.013 200.4 32 A 13.936 13.936 0 0 1 200.127 30.398 Q 200 29.294 200 28 A 23.85 23.85 0 0 1 200.054 26.345 Q 200.147 25.013 200.4 24 A 13.936 13.936 0 0 1 200.127 22.398 Q 200 21.294 200 20 A 23.85 23.85 0 0 1 200.054 18.345 Q 200.147 17.013 200.4 16 A 13.936 13.936 0 0 1 200.127 14.398 Q 200 13.294 200 12 A 23.85 23.85 0 0 1 200.054 10.345 Q 200.147 9.013 200.4 8 A 13.936 13.936 0 0 1 200.127 6.398 Q 200 5.294 200 4 A 23.85 23.85 0 0 1 200.054 2.345 Q 200.147 1.013 200.4 0 L 208.4 0 A 11.741 11.741 0 0 1 208.644 1.313 Q 208.737 2.018 208.774 2.833 A 25.306 25.306 0 0 1 208.8 4 Q 208.8 5.968 208.507 7.496 A 12.311 12.311 0 0 1 208.4 8 A 11.741 11.741 0 0 1 208.644 9.313 Q 208.737 10.018 208.774 10.833 A 25.306 25.306 0 0 1 208.8 12 Q 208.8 13.968 208.507 15.496 A 12.311 12.311 0 0 1 208.4 16 A 11.741 11.741 0 0 1 208.644 17.313 Q 208.737 18.018 208.774 18.833 A 25.306 25.306 0 0 1 208.8 20 Q 208.8 21.968 208.507 23.496 A 12.311 12.311 0 0 1 208.4 24 Z M 568.4 24 L 571.4 24 L 584.4 24 Q 584.147 25.013 584.054 26.345 A 23.85 23.85 0 0 0 584 28 Q 584 29.294 584.127 30.398 A 13.936 13.936 0 0 0 584.4 32 Q 584.147 33.013 584.054 34.345 A 23.85 23.85 0 0 0 584 36 Q 584 37.294 584.127 38.398 A 13.936 13.936 0 0 0 584.4 40 Q 584.147 41.013 584.054 42.345 A 23.85 23.85 0 0 0 584 44 Q 584 45.294 584.127 46.398 A 13.936 13.936 0 0 0 584.4 48 Q 584.147 49.013 584.054 50.345 A 23.85 23.85 0 0 0 584 52 Q 584 53.294 584.127 54.398 A 13.936 13.936 0 0 0 584.4 56 L 592.4 56 A 12.311 12.311 0 0 0 592.507 55.496 Q 592.8 53.968 592.8 52 A 25.306 25.306 0 0 0 592.774 50.833 Q 592.698 49.194 592.4 48 A 12.311 12.311 0 0 0 592.507 47.496 Q 592.8 45.968 592.8 44 A 25.306 25.306 0 0 0 592.774 42.833 Q 592.698 41.194 592.4 40 A 12.311 12.311 0 0 0 592.507 39.496 Q 592.8 37.968 592.8 36 A 25.306 25.306 0 0 0 592.774 34.833 Q 592.698 33.194 592.4 32 A 12.311 12.311 0 0 0 592.507 31.496 Q 592.8 29.968 592.8 28 A 25.306 25.306 0 0 0 592.774 26.833 Q 592.698 25.194 592.4 24 L 587.4 24 A 12.311 12.311 0 0 0 587.507 23.496 Q 587.8 21.968 587.8 20 A 25.306 25.306 0 0 0 587.774 18.833 Q 587.698 17.194 587.4 16 L 571.4 16 Q 571.147 17.013 571.054 18.345 A 23.85 23.85 0 0 0 571 20 Q 571 21.294 571.127 22.398 A 13.936 13.936 0 0 0 571.4 24 A 11.741 11.741 0 0 1 571.644 25.313 Q 571.737 26.018 571.774 26.833 A 25.306 25.306 0 0 1 571.8 28 Q 571.8 29.968 571.507 31.496 A 12.311 12.311 0 0 1 571.4 32 L 568.4 32 A 11.741 11.741 0 0 1 568.644 33.313 Q 568.737 34.018 568.774 34.833 A 25.306 25.306 0 0 1 568.8 36 Q 568.8 37.968 568.507 39.496 A 12.311 12.311 0 0 1 568.4 40 A 11.741 11.741 0 0 1 568.644 41.313 Q 568.737 42.018 568.774 42.833 A 25.306 25.306 0 0 1 568.8 44 Q 568.8 45.968 568.507 47.496 A 12.311 12.311 0 0 1 568.4 48 A 11.741 11.741 0 0 1 568.644 49.313 Q 568.737 50.018 568.774 50.833 A 25.306 25.306 0 0 1 568.8 52 Q 568.8 53.968 568.507 55.496 A 12.311 12.311 0 0 1 568.4 56 L 560.4 56 A 13.936 13.936 0 0 1 560.127 54.398 Q 560 53.294 560 52 A 23.85 23.85 0 0 1 560.054 50.345 Q 560.147 49.013 560.4 48 A 13.936 13.936 0 0 1 560.127 46.398 Q 560 45.294 560 44 A 23.85 23.85 0 0 1 560.054 42.345 Q 560.147 41.013 560.4 40 A 13.936 13.936 0 0 1 560.127 38.398 Q 560 37.294 560 36 A 23.85 23.85 0 0 1 560.054 34.345 Q 560.147 33.013 560.4 32 A 13.936 13.936 0 0 1 560.127 30.398 Q 560 29.294 560 28 A 23.85 23.85 0 0 1 560.054 26.345 Q 560.147 25.013 560.4 24 A 13.936 13.936 0 0 1 560.127 22.398 Q 560 21.294 560 20 A 23.85 23.85 0 0 1 560.054 18.345 Q 560.147 17.013 560.4 16 A 13.936 13.936 0 0 1 560.127 14.398 Q 560 13.294 560 12 A 23.85 23.85 0 0 1 560.054 10.345 Q 560.147 9.013 560.4 8 A 13.936 13.936 0 0 1 560.127 6.398 Q 560 5.294 560 4 A 23.85 23.85 0 0 1 560.054 2.345 Q 560.147 1.013 560.4 0 L 568.4 0 A 11.741 11.741 0 0 1 568.644 1.313 Q 568.737 2.018 568.774 2.833 A 25.306 25.306 0 0 1 568.8 4 Q 568.8 5.968 568.507 7.496 A 12.311 12.311 0 0 1 568.4 8 A 11.741 11.741 0 0 1 568.644 9.313 Q 568.737 10.018 568.774 10.833 A 25.306 25.306 0 0 1 568.8 12 Q 568.8 13.968 568.507 15.496 A 12.311 12.311 0 0 1 568.4 16 A 11.741 11.741 0 0 1 568.644 17.313 Q 568.737 18.018 568.774 18.833 A 25.306 25.306 0 0 1 568.8 20 Q 568.8 21.968 568.507 23.496 A 12.311 12.311 0 0 1 568.4 24 Z M 620.4 48 A 13.936 13.936 0 0 1 620.127 46.398 Q 620 45.294 620 44 A 23.85 23.85 0 0 1 620.054 42.345 Q 620.147 41.013 620.4 40 L 608.4 40 A 11.741 11.741 0 0 1 608.644 41.313 Q 608.737 42.018 608.774 42.833 A 25.306 25.306 0 0 1 608.8 44 Q 608.8 45.968 608.507 47.496 A 12.311 12.311 0 0 1 608.4 48 L 620.4 48 L 624.4 48 Q 624.147 49.013 624.054 50.345 A 23.85 23.85 0 0 0 624 52 Q 624 53.294 624.127 54.398 A 13.936 13.936 0 0 0 624.4 56 L 632.4 56 A 12.311 12.311 0 0 0 632.507 55.496 Q 632.8 53.968 632.8 52 A 25.306 25.306 0 0 0 632.774 50.833 Q 632.698 49.194 632.4 48 L 628.4 48 A 12.311 12.311 0 0 0 628.507 47.496 Q 628.8 45.968 628.8 44 A 25.306 25.306 0 0 0 628.774 42.833 Q 628.737 42.018 628.644 41.313 A 11.741 11.741 0 0 0 628.4 40 A 12.311 12.311 0 0 0 628.507 39.496 Q 628.8 37.968 628.8 36 A 25.306 25.306 0 0 0 628.774 34.833 Q 628.737 34.018 628.644 33.313 A 11.741 11.741 0 0 0 628.4 32 A 12.311 12.311 0 0 0 628.507 31.496 Q 628.8 29.968 628.8 28 A 25.306 25.306 0 0 0 628.774 26.833 Q 628.737 26.018 628.644 25.313 A 11.741 11.741 0 0 0 628.4 24 L 624.4 24 A 12.311 12.311 0 0 0 624.507 23.496 Q 624.8 21.968 624.8 20 A 25.306 25.306 0 0 0 624.774 18.833 Q 624.698 17.194 624.4 16 L 606.4 16 Q 606.147 17.013 606.054 18.345 A 23.85 23.85 0 0 0 606 20 Q 606 21.294 606.127 22.398 A 13.936 13.936 0 0 0 606.4 24 L 620.4 24 Q 620.147 25.013 620.054 26.345 A 23.85 23.85 0 0 0 620 28 Q 620 29.294 620.127 30.398 A 13.936 13.936 0 0 0 620.4 32 L 604.4 32 Q 604.147 33.013 604.054 34.345 A 23.85 23.85 0 0 0 604 36 Q 604 37.294 604.127 38.398 A 13.936 13.936 0 0 0 604.4 40 L 600.4 40 Q 600.147 41.013 600.054 42.345 A 23.85 23.85 0 0 0 600 44 Q 600 45.294 600.127 46.398 A 13.936 13.936 0 0 0 600.4 48 L 604.4 48 Q 604.147 49.013 604.054 50.345 A 23.85 23.85 0 0 0 604 52 Q 604 53.294 604.127 54.398 A 13.936 13.936 0 0 0 604.4 56 L 620.4 56 A 12.311 12.311 0 0 0 620.507 55.496 Q 620.8 53.968 620.8 52 A 25.306 25.306 0 0 0 620.774 50.833 Q 620.698 49.194 620.4 48 Z M 647.4 24 L 651.4 24 L 664.4 24 Q 664.147 25.013 664.054 26.345 A 23.85 23.85 0 0 0 664 28 Q 664 29.294 664.127 30.398 A 13.936 13.936 0 0 0 664.4 32 Q 664.147 33.013 664.054 34.345 A 23.85 23.85 0 0 0 664 36 Q 664 37.294 664.127 38.398 A 13.936 13.936 0 0 0 664.4 40 Q 664.147 41.013 664.054 42.345 A 23.85 23.85 0 0 0 664 44 Q 664 45.294 664.127 46.398 A 13.936 13.936 0 0 0 664.4 48 Q 664.147 49.013 664.054 50.345 A 23.85 23.85 0 0 0 664 52 Q 664 53.294 664.127 54.398 A 13.936 13.936 0 0 0 664.4 56 L 672.4 56 A 12.311 12.311 0 0 0 672.507 55.496 Q 672.8 53.968 672.8 52 A 25.306 25.306 0 0 0 672.774 50.833 Q 672.698 49.194 672.4 48 A 12.311 12.311 0 0 0 672.507 47.496 Q 672.8 45.968 672.8 44 A 25.306 25.306 0 0 0 672.774 42.833 Q 672.698 41.194 672.4 40 A 12.311 12.311 0 0 0 672.507 39.496 Q 672.8 37.968 672.8 36 A 25.306 25.306 0 0 0 672.774 34.833 Q 672.698 33.194 672.4 32 A 12.311 12.311 0 0 0 672.507 31.496 Q 672.8 29.968 672.8 28 A 25.306 25.306 0 0 0 672.774 26.833 Q 672.698 25.194 672.4 24 L 667.4 24 A 12.311 12.311 0 0 0 667.507 23.496 Q 667.8 21.968 667.8 20 A 25.306 25.306 0 0 0 667.774 18.833 Q 667.698 17.194 667.4 16 L 651.4 16 Q 651.147 17.013 651.054 18.345 A 23.85 23.85 0 0 0 651 20 Q 651 21.294 651.127 22.398 A 13.936 13.936 0 0 0 651.4 24 A 11.741 11.741 0 0 1 651.644 25.313 Q 651.737 26.018 651.774 26.833 A 25.306 25.306 0 0 1 651.8 28 Q 651.8 29.968 651.507 31.496 A 12.311 12.311 0 0 1 651.4 32 L 648.4 32 A 11.741 11.741 0 0 1 648.644 33.313 Q 648.737 34.018 648.774 34.833 A 25.306 25.306 0 0 1 648.8 36 Q 648.8 37.968 648.507 39.496 A 12.311 12.311 0 0 1 648.4 40 A 11.741 11.741 0 0 1 648.644 41.313 Q 648.737 42.018 648.774 42.833 A 25.306 25.306 0 0 1 648.8 44 Q 648.8 45.968 648.507 47.496 A 12.311 12.311 0 0 1 648.4 48 A 11.741 11.741 0 0 1 648.644 49.313 Q 648.737 50.018 648.774 50.833 A 25.306 25.306 0 0 1 648.8 52 Q 648.8 53.968 648.507 55.496 A 12.311 12.311 0 0 1 648.4 56 L 640.4 56 A 13.936 13.936 0 0 1 640.127 54.398 Q 640 53.294 640 52 A 23.85 23.85 0 0 1 640.054 50.345 Q 640.147 49.013 640.4 48 A 13.936 13.936 0 0 1 640.127 46.398 Q 640 45.294 640 44 A 23.85 23.85 0 0 1 640.054 42.345 Q 640.147 41.013 640.4 40 A 13.936 13.936 0 0 1 640.127 38.398 Q 640 37.294 640 36 A 23.85 23.85 0 0 1 640.054 34.345 Q 640.147 33.013 640.4 32 A 13.936 13.936 0 0 1 640.127 30.398 Q 640 29.294 640 28 A 23.85 23.85 0 0 1 640.054 26.345 Q 640.147 25.013 640.4 24 A 13.936 13.936 0 0 1 640.127 22.398 Q 640 21.294 640 20 A 23.85 23.85 0 0 1 640.054 18.345 Q 640.147 17.013 640.4 16 L 647.4 16 A 11.741 11.741 0 0 1 647.644 17.313 Q 647.737 18.018 647.774 18.833 A 25.306 25.306 0 0 1 647.8 20 Q 647.8 21.968 647.507 23.496 A 12.311 12.311 0 0 1 647.4 24 Z M 472.4 32 L 464.4 32 A 13.936 13.936 0 0 1 464.127 30.398 Q 464 29.294 464 28 A 23.85 23.85 0 0 1 464.054 26.345 Q 464.147 25.013 464.4 24 L 457.4 24 Q 457.698 25.194 457.774 26.833 A 25.306 25.306 0 0 1 457.8 28 Q 457.8 29.968 457.507 31.496 A 12.311 12.311 0 0 1 457.4 32 L 454.4 32 A 11.741 11.741 0 0 1 454.644 33.313 Q 454.737 34.018 454.774 34.833 A 25.306 25.306 0 0 1 454.8 36 Q 454.8 37.968 454.507 39.496 A 12.311 12.311 0 0 1 454.4 40 A 11.741 11.741 0 0 1 454.644 41.313 Q 454.737 42.018 454.774 42.833 A 25.306 25.306 0 0 1 454.8 44 Q 454.8 45.968 454.507 47.496 A 12.311 12.311 0 0 1 454.4 48 L 460.4 48 Q 460.698 49.194 460.774 50.833 A 25.306 25.306 0 0 1 460.8 52 Q 460.8 53.968 460.507 55.496 A 12.311 12.311 0 0 1 460.4 56 L 440.4 56 A 13.936 13.936 0 0 1 440.127 54.398 Q 440 53.294 440 52 A 23.85 23.85 0 0 1 440.054 50.345 Q 440.147 49.013 440.4 48 L 446.4 48 A 13.936 13.936 0 0 1 446.127 46.398 Q 446 45.294 446 44 A 23.85 23.85 0 0 1 446.054 42.345 Q 446.147 41.013 446.4 40 A 13.936 13.936 0 0 1 446.127 38.398 Q 446 37.294 446 36 A 23.85 23.85 0 0 1 446.054 34.345 Q 446.147 33.013 446.4 32 A 13.936 13.936 0 0 1 446.127 30.398 Q 446 29.294 446 28 A 23.85 23.85 0 0 1 446.054 26.345 Q 446.147 25.013 446.4 24 L 440.4 24 A 13.936 13.936 0 0 1 440.127 22.398 Q 440 21.294 440 20 A 23.85 23.85 0 0 1 440.054 18.345 Q 440.147 17.013 440.4 16 L 450.4 16 A 11.741 11.741 0 0 1 450.644 17.313 Q 450.737 18.018 450.774 18.833 A 25.306 25.306 0 0 1 450.8 20 Q 450.8 21.968 450.507 23.496 A 12.311 12.311 0 0 1 450.4 24 L 454.4 24 A 13.936 13.936 0 0 1 454.127 22.398 Q 454 21.294 454 20 A 23.85 23.85 0 0 1 454.054 18.345 Q 454.147 17.013 454.4 16 L 469.4 16 A 11.741 11.741 0 0 1 469.644 17.313 Q 469.737 18.018 469.774 18.833 A 25.306 25.306 0 0 1 469.8 20 Q 469.8 21.968 469.507 23.496 A 12.311 12.311 0 0 1 469.4 24 L 472.4 24 Q 472.698 25.194 472.774 26.833 A 25.306 25.306 0 0 1 472.8 28 Q 472.8 29.968 472.507 31.496 A 12.311 12.311 0 0 1 472.4 32 Z M 696.4 48 L 708.4 48 A 11.741 11.741 0 0 1 708.644 49.313 Q 708.737 50.018 708.774 50.833 A 25.306 25.306 0 0 1 708.8 52 Q 708.8 53.968 708.507 55.496 A 12.311 12.311 0 0 1 708.4 56 L 692.4 56 A 13.936 13.936 0 0 1 692.127 54.398 Q 692 53.294 692 52 A 23.85 23.85 0 0 1 692.054 50.345 Q 692.147 49.013 692.4 48 L 688.4 48 A 13.936 13.936 0 0 1 688.127 46.398 Q 688 45.294 688 44 A 23.85 23.85 0 0 1 688.054 42.345 Q 688.147 41.013 688.4 40 A 13.936 13.936 0 0 1 688.127 38.398 Q 688 37.294 688 36 A 23.85 23.85 0 0 1 688.054 34.345 Q 688.147 33.013 688.4 32 A 13.936 13.936 0 0 1 688.127 30.398 Q 688 29.294 688 28 A 23.85 23.85 0 0 1 688.054 26.345 Q 688.147 25.013 688.4 24 L 680.4 24 A 13.936 13.936 0 0 1 680.127 22.398 Q 680 21.294 680 20 A 23.85 23.85 0 0 1 680.054 18.345 Q 680.147 17.013 680.4 16 L 688.4 16 A 13.936 13.936 0 0 1 688.127 14.398 Q 688 13.294 688 12 A 23.85 23.85 0 0 1 688.054 10.345 Q 688.147 9.013 688.4 8 A 13.936 13.936 0 0 1 688.127 6.398 Q 688 5.294 688 4 A 23.85 23.85 0 0 1 688.054 2.345 Q 688.147 1.013 688.4 0 L 696.4 0 Q 696.698 1.194 696.774 2.833 A 25.306 25.306 0 0 1 696.8 4 Q 696.8 5.968 696.507 7.496 A 12.311 12.311 0 0 1 696.4 8 Q 696.698 9.194 696.774 10.833 A 25.306 25.306 0 0 1 696.8 12 Q 696.8 13.968 696.507 15.496 A 12.311 12.311 0 0 1 696.4 16 L 708.4 16 A 11.741 11.741 0 0 1 708.644 17.313 Q 708.737 18.018 708.774 18.833 A 25.306 25.306 0 0 1 708.8 20 Q 708.8 21.968 708.507 23.496 A 12.311 12.311 0 0 1 708.4 24 L 696.4 24 Q 696.698 25.194 696.774 26.833 A 25.306 25.306 0 0 1 696.8 28 Q 696.8 29.968 696.507 31.496 A 12.311 12.311 0 0 1 696.4 32 Q 696.698 33.194 696.774 34.833 A 25.306 25.306 0 0 1 696.8 36 Q 696.8 37.968 696.507 39.496 A 12.311 12.311 0 0 1 696.4 40 Q 696.698 41.194 696.774 42.833 A 25.306 25.306 0 0 1 696.8 44 Q 696.8 45.968 696.507 47.496 A 12.311 12.311 0 0 1 696.4 48 Z M 272.4 40 L 251.4 40 A 11.741 11.741 0 0 1 251.644 41.313 Q 251.737 42.018 251.774 42.833 A 25.306 25.306 0 0 1 251.8 44 Q 251.8 45.968 251.507 47.496 A 12.311 12.311 0 0 1 251.4 48 L 268.4 48 A 11.741 11.741 0 0 1 268.644 49.313 Q 268.737 50.018 268.774 50.833 A 25.306 25.306 0 0 1 268.8 52 Q 268.8 53.968 268.507 55.496 A 12.311 12.311 0 0 1 268.4 56 L 248.4 56 A 13.936 13.936 0 0 1 248.127 54.398 Q 248 53.294 248 52 A 23.85 23.85 0 0 1 248.054 50.345 Q 248.147 49.013 248.4 48 L 243.4 48 A 13.936 13.936 0 0 1 243.127 46.398 Q 243 45.294 243 44 A 23.85 23.85 0 0 1 243.054 42.345 Q 243.147 41.013 243.4 40 L 240.4 40 A 13.936 13.936 0 0 1 240.127 38.398 Q 240 37.294 240 36 A 23.85 23.85 0 0 1 240.054 34.345 Q 240.147 33.013 240.4 32 L 243.4 32 A 13.936 13.936 0 0 1 243.127 30.398 Q 243 29.294 243 28 A 23.85 23.85 0 0 1 243.054 26.345 Q 243.147 25.013 243.4 24 L 248.4 24 A 13.936 13.936 0 0 1 248.127 22.398 Q 248 21.294 248 20 A 23.85 23.85 0 0 1 248.054 18.345 Q 248.147 17.013 248.4 16 L 268.4 16 A 11.741 11.741 0 0 1 268.644 17.313 Q 268.737 18.018 268.774 18.833 A 25.306 25.306 0 0 1 268.8 20 Q 268.8 21.968 268.507 23.496 A 12.311 12.311 0 0 1 268.4 24 L 272.4 24 Q 272.698 25.194 272.774 26.833 A 25.306 25.306 0 0 1 272.8 28 Q 272.8 29.968 272.507 31.496 A 12.311 12.311 0 0 1 272.4 32 Q 272.698 33.194 272.774 34.833 A 25.306 25.306 0 0 1 272.8 36 Q 272.8 37.968 272.507 39.496 A 12.311 12.311 0 0 1 272.4 40 Z M 432.4 40 L 411.4 40 A 11.741 11.741 0 0 1 411.644 41.313 Q 411.737 42.018 411.774 42.833 A 25.306 25.306 0 0 1 411.8 44 Q 411.8 45.968 411.507 47.496 A 12.311 12.311 0 0 1 411.4 48 L 428.4 48 A 11.741 11.741 0 0 1 428.644 49.313 Q 428.737 50.018 428.774 50.833 A 25.306 25.306 0 0 1 428.8 52 Q 428.8 53.968 428.507 55.496 A 12.311 12.311 0 0 1 428.4 56 L 408.4 56 A 13.936 13.936 0 0 1 408.127 54.398 Q 408 53.294 408 52 A 23.85 23.85 0 0 1 408.054 50.345 Q 408.147 49.013 408.4 48 L 403.4 48 A 13.936 13.936 0 0 1 403.127 46.398 Q 403 45.294 403 44 A 23.85 23.85 0 0 1 403.054 42.345 Q 403.147 41.013 403.4 40 L 400.4 40 A 13.936 13.936 0 0 1 400.127 38.398 Q 400 37.294 400 36 A 23.85 23.85 0 0 1 400.054 34.345 Q 400.147 33.013 400.4 32 L 403.4 32 A 13.936 13.936 0 0 1 403.127 30.398 Q 403 29.294 403 28 A 23.85 23.85 0 0 1 403.054 26.345 Q 403.147 25.013 403.4 24 L 408.4 24 A 13.936 13.936 0 0 1 408.127 22.398 Q 408 21.294 408 20 A 23.85 23.85 0 0 1 408.054 18.345 Q 408.147 17.013 408.4 16 L 428.4 16 A 11.741 11.741 0 0 1 428.644 17.313 Q 428.737 18.018 428.774 18.833 A 25.306 25.306 0 0 1 428.8 20 Q 428.8 21.968 428.507 23.496 A 12.311 12.311 0 0 1 428.4 24 L 432.4 24 Q 432.698 25.194 432.774 26.833 A 25.306 25.306 0 0 1 432.8 28 Q 432.8 29.968 432.507 31.496 A 12.311 12.311 0 0 1 432.4 32 Q 432.698 33.194 432.774 34.833 A 25.306 25.306 0 0 1 432.8 36 Q 432.8 37.968 432.507 39.496 A 12.311 12.311 0 0 1 432.4 40 Z M 192.4 8 L 180.4 8 Q 180.698 9.194 180.774 10.833 A 25.306 25.306 0 0 1 180.8 12 Q 180.8 13.968 180.507 15.496 A 12.311 12.311 0 0 1 180.4 16 Q 180.698 17.194 180.774 18.833 A 25.306 25.306 0 0 1 180.8 20 Q 180.8 21.968 180.507 23.496 A 12.311 12.311 0 0 1 180.4 24 Q 180.698 25.194 180.774 26.833 A 25.306 25.306 0 0 1 180.8 28 Q 180.8 29.968 180.507 31.496 A 12.311 12.311 0 0 1 180.4 32 Q 180.698 33.194 180.774 34.833 A 25.306 25.306 0 0 1 180.8 36 Q 180.8 37.968 180.507 39.496 A 12.311 12.311 0 0 1 180.4 40 Q 180.698 41.194 180.774 42.833 A 25.306 25.306 0 0 1 180.8 44 Q 180.8 45.968 180.507 47.496 A 12.311 12.311 0 0 1 180.4 48 Q 180.698 49.194 180.774 50.833 A 25.306 25.306 0 0 1 180.8 52 Q 180.8 53.968 180.507 55.496 A 12.311 12.311 0 0 1 180.4 56 L 172.4 56 A 13.936 13.936 0 0 1 172.127 54.398 Q 172 53.294 172 52 A 23.85 23.85 0 0 1 172.054 50.345 Q 172.147 49.013 172.4 48 A 13.936 13.936 0 0 1 172.127 46.398 Q 172 45.294 172 44 A 23.85 23.85 0 0 1 172.054 42.345 Q 172.147 41.013 172.4 40 A 13.936 13.936 0 0 1 172.127 38.398 Q 172 37.294 172 36 A 23.85 23.85 0 0 1 172.054 34.345 Q 172.147 33.013 172.4 32 A 13.936 13.936 0 0 1 172.127 30.398 Q 172 29.294 172 28 A 23.85 23.85 0 0 1 172.054 26.345 Q 172.147 25.013 172.4 24 A 13.936 13.936 0 0 1 172.127 22.398 Q 172 21.294 172 20 A 23.85 23.85 0 0 1 172.054 18.345 Q 172.147 17.013 172.4 16 A 13.936 13.936 0 0 1 172.127 14.398 Q 172 13.294 172 12 A 23.85 23.85 0 0 1 172.054 10.345 Q 172.147 9.013 172.4 8 L 160.4 8 A 13.936 13.936 0 0 1 160.127 6.398 Q 160 5.294 160 4 A 23.85 23.85 0 0 1 160.054 2.345 Q 160.147 1.013 160.4 0 L 192.4 0 Q 192.698 1.194 192.774 2.833 A 25.306 25.306 0 0 1 192.8 4 Q 192.8 5.968 192.507 7.496 A 12.311 12.311 0 0 1 192.4 8 Z M 512.4 40 L 509.4 40 A 11.741 11.741 0 0 1 509.644 41.313 Q 509.737 42.018 509.774 42.833 A 25.306 25.306 0 0 1 509.8 44 Q 509.8 45.968 509.507 47.496 A 12.311 12.311 0 0 1 509.4 48 L 504.4 48 Q 504.698 49.194 504.774 50.833 A 25.306 25.306 0 0 1 504.8 52 Q 504.8 53.968 504.507 55.496 A 12.311 12.311 0 0 1 504.4 56 L 488.4 56 A 13.936 13.936 0 0 1 488.127 54.398 Q 488 53.294 488 52 A 23.85 23.85 0 0 1 488.054 50.345 Q 488.147 49.013 488.4 48 L 483.4 48 A 13.936 13.936 0 0 1 483.127 46.398 Q 483 45.294 483 44 A 23.85 23.85 0 0 1 483.054 42.345 Q 483.147 41.013 483.4 40 L 480.4 40 A 13.936 13.936 0 0 1 480.127 38.398 Q 480 37.294 480 36 A 23.85 23.85 0 0 1 480.054 34.345 Q 480.147 33.013 480.4 32 L 483.4 32 A 13.936 13.936 0 0 1 483.127 30.398 Q 483 29.294 483 28 A 23.85 23.85 0 0 1 483.054 26.345 Q 483.147 25.013 483.4 24 L 488.4 24 A 13.936 13.936 0 0 1 488.127 22.398 Q 488 21.294 488 20 A 23.85 23.85 0 0 1 488.054 18.345 Q 488.147 17.013 488.4 16 L 504.4 16 Q 504.698 17.194 504.774 18.833 A 25.306 25.306 0 0 1 504.8 20 Q 504.8 21.968 504.507 23.496 A 12.311 12.311 0 0 1 504.4 24 L 509.4 24 A 11.741 11.741 0 0 1 509.644 25.313 Q 509.737 26.018 509.774 26.833 A 25.306 25.306 0 0 1 509.8 28 Q 509.8 29.968 509.507 31.496 A 12.311 12.311 0 0 1 509.4 32 L 512.4 32 Q 512.698 33.194 512.774 34.833 A 25.306 25.306 0 0 1 512.8 36 Q 512.8 37.968 512.507 39.496 A 12.311 12.311 0 0 1 512.4 40 Z M 388.4 56 L 364.4 56 A 13.936 13.936 0 0 1 364.127 54.398 Q 364 53.294 364 52 A 23.85 23.85 0 0 1 364.054 50.345 Q 364.147 49.013 364.4 48 L 372.4 48 A 13.936 13.936 0 0 1 372.127 46.398 Q 372 45.294 372 44 A 23.85 23.85 0 0 1 372.054 42.345 Q 372.147 41.013 372.4 40 A 13.936 13.936 0 0 1 372.127 38.398 Q 372 37.294 372 36 A 23.85 23.85 0 0 1 372.054 34.345 Q 372.147 33.013 372.4 32 A 13.936 13.936 0 0 1 372.127 30.398 Q 372 29.294 372 28 A 23.85 23.85 0 0 1 372.054 26.345 Q 372.147 25.013 372.4 24 L 366.4 24 A 13.936 13.936 0 0 1 366.127 22.398 Q 366 21.294 366 20 A 23.85 23.85 0 0 1 366.054 18.345 Q 366.147 17.013 366.4 16 L 380.4 16 Q 380.698 17.194 380.774 18.833 A 25.306 25.306 0 0 1 380.8 20 Q 380.8 21.968 380.507 23.496 A 12.311 12.311 0 0 1 380.4 24 Q 380.698 25.194 380.774 26.833 A 25.306 25.306 0 0 1 380.8 28 Q 380.8 29.968 380.507 31.496 A 12.311 12.311 0 0 1 380.4 32 Q 380.698 33.194 380.774 34.833 A 25.306 25.306 0 0 1 380.8 36 Q 380.8 37.968 380.507 39.496 A 12.311 12.311 0 0 1 380.4 40 Q 380.698 41.194 380.774 42.833 A 25.306 25.306 0 0 1 380.8 44 Q 380.8 45.968 380.507 47.496 A 12.311 12.311 0 0 1 380.4 48 L 388.4 48 A 11.741 11.741 0 0 1 388.644 49.313 Q 388.737 50.018 388.774 50.833 A 25.306 25.306 0 0 1 388.8 52 Q 388.8 53.968 388.507 55.496 A 12.311 12.311 0 0 1 388.4 56 Z M 501.4 40 L 504.4 40 A 13.936 13.936 0 0 1 504.127 38.398 Q 504 37.294 504 36 A 23.85 23.85 0 0 1 504.054 34.345 Q 504.147 33.013 504.4 32 L 501.4 32 A 13.936 13.936 0 0 1 501.127 30.398 Q 501 29.294 501 28 A 23.85 23.85 0 0 1 501.054 26.345 Q 501.147 25.013 501.4 24 L 491.4 24 A 11.741 11.741 0 0 1 491.644 25.313 Q 491.737 26.018 491.774 26.833 A 25.306 25.306 0 0 1 491.8 28 Q 491.8 29.968 491.507 31.496 A 12.311 12.311 0 0 1 491.4 32 L 488.4 32 A 11.741 11.741 0 0 1 488.644 33.313 Q 488.737 34.018 488.774 34.833 A 25.306 25.306 0 0 1 488.8 36 Q 488.8 37.968 488.507 39.496 A 12.311 12.311 0 0 1 488.4 40 L 491.4 40 A 11.741 11.741 0 0 1 491.644 41.313 Q 491.737 42.018 491.774 42.833 A 25.306 25.306 0 0 1 491.8 44 Q 491.8 45.968 491.507 47.496 A 12.311 12.311 0 0 1 491.4 48 L 501.4 48 A 13.936 13.936 0 0 1 501.127 46.398 Q 501 45.294 501 44 A 23.85 23.85 0 0 1 501.054 42.345 Q 501.147 41.013 501.4 40 Z M 86.4 24 L 106.4 24 Q 106.698 25.194 106.774 26.833 A 25.306 25.306 0 0 1 106.8 28 Q 106.8 29.968 106.507 31.496 A 12.311 12.311 0 0 1 106.4 32 L 86.4 32 A 13.936 13.936 0 0 1 86.127 30.398 Q 86 29.294 86 28 A 23.85 23.85 0 0 1 86.054 26.345 Q 86.147 25.013 86.4 24 Z M 264.4 24 L 251.4 24 A 11.741 11.741 0 0 1 251.644 25.313 Q 251.737 26.018 251.774 26.833 A 25.306 25.306 0 0 1 251.8 28 Q 251.8 29.968 251.507 31.496 A 12.311 12.311 0 0 1 251.4 32 L 264.4 32 A 13.936 13.936 0 0 1 264.127 30.398 Q 264 29.294 264 28 A 23.85 23.85 0 0 1 264.054 26.345 Q 264.147 25.013 264.4 24 Z M 424.4 24 L 411.4 24 A 11.741 11.741 0 0 1 411.644 25.313 Q 411.737 26.018 411.774 26.833 A 25.306 25.306 0 0 1 411.8 28 Q 411.8 29.968 411.507 31.496 A 12.311 12.311 0 0 1 411.4 32 L 424.4 32 A 13.936 13.936 0 0 1 424.127 30.398 Q 424 29.294 424 28 A 23.85 23.85 0 0 1 424.054 26.345 Q 424.147 25.013 424.4 24 Z M 380.4 8 L 372.4 8 A 13.936 13.936 0 0 1 372.127 6.398 Q 372 5.294 372 4 A 23.85 23.85 0 0 1 372.054 2.345 Q 372.147 1.013 372.4 0 L 380.4 0 Q 380.698 1.194 380.774 2.833 A 25.306 25.306 0 0 1 380.8 4 Q 380.8 5.968 380.507 7.496 A 12.311 12.311 0 0 1 380.4 8 Z" vector-effect="non-scaling-stroke"/></g></svg>