<svg width="590.8" height="56" viewBox="0 0 590.8 56" xmlns="http://www.w3.org/2000/svg"><g id="svgGroup" stroke-linecap="round" fill-rule="evenodd" font-size="9pt" stroke="#000" stroke-width="0.25mm" fill="#000" style="stroke:#000;stroke-width:0.25mm;fill:#000"><path d="M 32.4 24 L 29.4 24 A 11.741 11.741 0 0 1 29.644 25.313 Q 29.737 26.018 29.774 26.833 A 25.306 25.306 0 0 1 29.8 28 Q 29.8 29.968 29.507 31.496 A 12.311 12.311 0 0 1 29.4 32 L 26.4 32 Q 26.698 33.194 26.774 34.833 A 25.306 25.306 0 0 1 26.8 36 Q 26.8 37.968 26.507 39.496 A 12.311 12.311 0 0 1 26.4 40 L 24.4 40 Q 24.698 41.194 24.774 42.833 A 25.306 25.306 0 0 1 24.8 44 Q 24.8 45.968 24.507 47.496 A 12.311 12.311 0 0 1 24.4 48 L 20.4 48 Q 20.698 49.194 20.774 50.833 A 25.306 25.306 0 0 1 20.8 52 Q 20.8 53.968 20.507 55.496 A 12.311 12.311 0 0 1 20.4 56 L 12.4 56 A 13.936 13.936 0 0 1 12.127 54.398 Q 12 53.294 12 52 A 23.85 23.85 0 0 1 12.054 50.345 Q 12.147 49.013 12.4 48 L 8.4 48 A 13.936 13.936 0 0 1 8.127 46.398 Q 8 45.294 8 44 A 23.85 23.85 0 0 1 8.054 42.345 Q 8.147 41.013 8.4 40 L 6.4 40 A 13.936 13.936 0 0 1 6.127 38.398 Q 6 37.294 6 36 A 23.85 23.85 0 0 1 6.054 34.345 Q 6.147 33.013 6.4 32 L 3.4 32 A 13.936 13.936 0 0 1 3.127 30.398 Q 3 29.294 3 28 A 23.85 23.85 0 0 1 3.054 26.345 Q 3.147 25.013 3.4 24 L 0.4 24 A 13.936 13.936 0 0 1 0.127 22.398 Q 0 21.294 0 20 A 23.85 23.85 0 0 1 0.054 18.345 Q 0.147 17.013 0.4 16 A 13.936 13.936 0 0 1 0.127 14.398 Q 0 13.294 0 12 A 23.85 23.85 0 0 1 0.054 10.345 Q 0.147 9.013 0.4 8 A 13.936 13.936 0 0 1 0.127 6.398 Q 0 5.294 0 4 A 23.85 23.85 0 0 1 0.054 2.345 Q 0.147 1.013 0.4 0 L 8.4 0 A 11.741 11.741 0 0 1 8.644 1.313 Q 8.737 2.018 8.774 2.833 A 25.306 25.306 0 0 1 8.8 4 Q 8.8 5.968 8.507 7.496 A 12.311 12.311 0 0 1 8.4 8 A 11.741 11.741 0 0 1 8.644 9.313 Q 8.737 10.018 8.774 10.833 A 25.306 25.306 0 0 1 8.8 12 Q 8.8 13.968 8.507 15.496 A 12.311 12.311 0 0 1 8.4 16 A 11.741 11.741 0 0 1 8.644 17.313 Q 8.737 18.018 8.774 18.833 A 25.306 25.306 0 0 1 8.8 20 Q 8.8 21.968 8.507 23.496 A 12.311 12.311 0 0 1 8.4 24 L 11.4 24 A 11.741 11.741 0 0 1 11.644 25.313 Q 11.737 26.018 11.774 26.833 A 25.306 25.306 0 0 1 11.8 28 Q 11.8 29.968 11.507 31.496 A 12.311 12.311 0 0 1 11.4 32 L 14.4 32 A 11.741 11.741 0 0 1 14.644 33.313 Q 14.737 34.018 14.774 34.833 A 25.306 25.306 0 0 1 14.8 36 Q 14.8 37.968 14.507 39.496 A 12.311 12.311 0 0 1 14.4 40 L 18.4 40 A 13.936 13.936 0 0 1 18.127 38.398 Q 18 37.294 18 36 A 23.85 23.85 0 0 1 18.054 34.345 Q 18.147 33.013 18.4 32 L 21.4 32 A 13.936 13.936 0 0 1 21.127 30.398 Q 21 29.294 21 28 A 23.85 23.85 0 0 1 21.054 26.345 Q 21.147 25.013 21.4 24 L 24.4 24 A 13.936 13.936 0 0 1 24.127 22.398 Q 24 21.294 24 20 A 23.85 23.85 0 0 1 24.054 18.345 Q 24.147 17.013 24.4 16 A 13.936 13.936 0 0 1 24.127 14.398 Q 24 13.294 24 12 A 23.85 23.85 0 0 1 24.054 10.345 Q 24.147 9.013 24.4 8 A 13.936 13.936 0 0 1 24.127 6.398 Q 24 5.294 24 4 A 23.85 23.85 0 0 1 24.054 2.345 Q 24.147 1.013 24.4 0 L 32.4 0 Q 32.698 1.194 32.774 2.833 A 25.306 25.306 0 0 1 32.8 4 Q 32.8 5.968 32.507 7.496 A 12.311 12.311 0 0 1 32.4 8 Q 32.698 9.194 32.774 10.833 A 25.306 25.306 0 0 1 32.8 12 Q 32.8 13.968 32.507 15.496 A 12.311 12.311 0 0 1 32.4 16 Q 32.698 17.194 32.774 18.833 A 25.306 25.306 0 0 1 32.8 20 Q 32.8 21.968 32.507 23.496 A 12.311 12.311 0 0 1 32.4 24 Z M 248.4 24 L 251.4 24 L 264.4 24 Q 264.147 25.013 264.054 26.345 A 23.85 23.85 0 0 0 264 28 Q 264 29.294 264.127 30.398 A 13.936 13.936 0 0 0 264.4 32 Q 264.147 33.013 264.054 34.345 A 23.85 23.85 0 0 0 264 36 Q 264 37.294 264.127 38.398 A 13.936 13.936 0 0 0 264.4 40 Q 264.147 41.013 264.054 42.345 A 23.85 23.85 0 0 0 264 44 Q 264 45.294 264.127 46.398 A 13.936 13.936 0 0 0 264.4 48 Q 264.147 49.013 264.054 50.345 A 23.85 23.85 0 0 0 264 52 Q 264 53.294 264.127 54.398 A 13.936 13.936 0 0 0 264.4 56 L 272.4 56 A 12.311 12.311 0 0 0 272.507 55.496 Q 272.8 53.968 272.8 52 A 25.306 25.306 0 0 0 272.774 50.833 Q 272.698 49.194 272.4 48 A 12.311 12.311 0 0 0 272.507 47.496 Q 272.8 45.968 272.8 44 A 25.306 25.306 0 0 0 272.774 42.833 Q 272.698 41.194 272.4 40 A 12.311 12.311 0 0 0 272.507 39.496 Q 272.8 37.968 272.8 36 A 25.306 25.306 0 0 0 272.774 34.833 Q 272.698 33.194 272.4 32 A 12.311 12.311 0 0 0 272.507 31.496 Q 272.8 29.968 272.8 28 A 25.306 25.306 0 0 0 272.774 26.833 Q 272.698 25.194 272.4 24 L 267.4 24 A 12.311 12.311 0 0 0 267.507 23.496 Q 267.8 21.968 267.8 20 A 25.306 25.306 0 0 0 267.774 18.833 Q 267.698 17.194 267.4 16 L 251.4 16 Q 251.147 17.013 251.054 18.345 A 23.85 23.85 0 0 0 251 20 Q 251 21.294 251.127 22.398 A 13.936 13.936 0 0 0 251.4 24 A 11.741 11.741 0 0 1 251.644 25.313 Q 251.737 26.018 251.774 26.833 A 25.306 25.306 0 0 1 251.8 28 Q 251.8 29.968 251.507 31.496 A 12.311 12.311 0 0 1 251.4 32 L 248.4 32 A 11.741 11.741 0 0 1 248.644 33.313 Q 248.737 34.018 248.774 34.833 A 25.306 25.306 0 0 1 248.8 36 Q 248.8 37.968 248.507 39.496 A 12.311 12.311 0 0 1 248.4 40 A 11.741 11.741 0 0 1 248.644 41.313 Q 248.737 42.018 248.774 42.833 A 25.306 25.306 0 0 1 248.8 44 Q 248.8 45.968 248.507 47.496 A 12.311 12.311 0 0 1 248.4 48 A 11.741 11.741 0 0 1 248.644 49.313 Q 248.737 50.018 248.774 50.833 A 25.306 25.306 0 0 1 248.8 52 Q 248.8 53.968 248.507 55.496 A 12.311 12.311 0 0 1 248.4 56 L 240.4 56 A 13.936 13.936 0 0 1 240.127 54.398 Q 240 53.294 240 52 A 23.85 23.85 0 0 1 240.054 50.345 Q 240.147 49.013 240.4 48 A 13.936 13.936 0 0 1 240.127 46.398 Q 240 45.294 240 44 A 23.85 23.85 0 0 1 240.054 42.345 Q 240.147 41.013 240.4 40 A 13.936 13.936 0 0 1 240.127 38.398 Q 240 37.294 240 36 A 23.85 23.85 0 0 1 240.054 34.345 Q 240.147 33.013 240.4 32 A 13.936 13.936 0 0 1 240.127 30.398 Q 240 29.294 240 28 A 23.85 23.85 0 0 1 240.054 26.345 Q 240.147 25.013 240.4 24 A 13.936 13.936 0 0 1 240.127 22.398 Q 240 21.294 240 20 A 23.85 23.85 0 0 1 240.054 18.345 Q 240.147 17.013 240.4 16 A 13.936 13.936 0 0 1 240.127 14.398 Q 240 13.294 240 12 A 23.85 23.85 0 0 1 240.054 10.345 Q 240.147 9.013 240.4 8 A 13.936 13.936 0 0 1 240.127 6.398 Q 240 5.294 240 4 A 23.85 23.85 0 0 1 240.054 2.345 Q 240.147 1.013 240.4 0 L 248.4 0 A 11.741 11.741 0 0 1 248.644 1.313 Q 248.737 2.018 248.774 2.833 A 25.306 25.306 0 0 1 248.8 4 Q 248.8 5.968 248.507 7.496 A 12.311 12.311 0 0 1 248.4 8 A 11.741 11.741 0 0 1 248.644 9.313 Q 248.737 10.018 248.774 10.833 A 25.306 25.306 0 0 1 248.8 12 Q 248.8 13.968 248.507 15.496 A 12.311 12.311 0 0 1 248.4 16 A 11.741 11.741 0 0 1 248.644 17.313 Q 248.737 18.018 248.774 18.833 A 25.306 25.306 0 0 1 248.8 20 Q 248.8 21.968 248.507 23.496 A 12.311 12.311 0 0 1 248.4 24 Z M 590.4 48 L 586.4 48 Q 586.698 49.194 586.774 50.833 A 25.306 25.306 0 0 1 586.8 52 Q 586.8 53.968 586.507 55.496 A 12.311 12.311 0 0 1 586.4 56 L 564.4 56 A 13.936 13.936 0 0 1 564.127 54.398 Q 564 53.294 564 52 A 23.85 23.85 0 0 1 564.054 50.345 Q 564.147 49.013 564.4 48 L 582.4 48 A 13.936 13.936 0 0 1 582.127 46.398 Q 582 45.294 582 44 A 23.85 23.85 0 0 1 582.054 42.345 Q 582.147 41.013 582.4 40 L 566.4 40 A 13.936 13.936 0 0 1 566.127 38.398 Q 566 37.294 566 36 A 23.85 23.85 0 0 1 566.054 34.345 Q 566.147 33.013 566.4 32 L 562.4 32 A 13.936 13.936 0 0 1 562.127 30.398 Q 562 29.294 562 28 A 23.85 23.85 0 0 1 562.054 26.345 Q 562.147 25.013 562.4 24 L 566.4 24 A 13.936 13.936 0 0 1 566.127 22.398 Q 566 21.294 566 20 A 23.85 23.85 0 0 1 566.054 18.345 Q 566.147 17.013 566.4 16 L 588.4 16 A 11.741 11.741 0 0 1 588.644 17.313 Q 588.737 18.018 588.774 18.833 A 25.306 25.306 0 0 1 588.8 20 Q 588.8 21.968 588.507 23.496 A 12.311 12.311 0 0 1 588.4 24 L 570.4 24 A 11.741 11.741 0 0 1 570.644 25.313 Q 570.737 26.018 570.774 26.833 A 25.306 25.306 0 0 1 570.8 28 Q 570.8 29.968 570.507 31.496 A 12.311 12.311 0 0 1 570.4 32 L 586.4 32 Q 586.698 33.194 586.774 34.833 A 25.306 25.306 0 0 1 586.8 36 Q 586.8 37.968 586.507 39.496 A 12.311 12.311 0 0 1 586.4 40 L 590.4 40 Q 590.698 41.194 590.774 42.833 A 25.306 25.306 0 0 1 590.8 44 Q 590.8 45.968 590.507 47.496 A 12.311 12.311 0 0 1 590.4 48 Z M 552.4 32 L 544.4 32 A 13.936 13.936 0 0 1 544.127 30.398 Q 544 29.294 544 28 A 23.85 23.85 0 0 1 544.054 26.345 Q 544.147 25.013 544.4 24 L 537.4 24 Q 537.698 25.194 537.774 26.833 A 25.306 25.306 0 0 1 537.8 28 Q 537.8 29.968 537.507 31.496 A 12.311 12.311 0 0 1 537.4 32 L 534.4 32 A 11.741 11.741 0 0 1 534.644 33.313 Q 534.737 34.018 534.774 34.833 A 25.306 25.306 0 0 1 534.8 36 Q 534.8 37.968 534.507 39.496 A 12.311 12.311 0 0 1 534.4 40 A 11.741 11.741 0 0 1 534.644 41.313 Q 534.737 42.018 534.774 42.833 A 25.306 25.306 0 0 1 534.8 44 Q 534.8 45.968 534.507 47.496 A 12.311 12.311 0 0 1 534.4 48 L 540.4 48 Q 540.698 49.194 540.774 50.833 A 25.306 25.306 0 0 1 540.8 52 Q 540.8 53.968 540.507 55.496 A 12.311 12.311 0 0 1 540.4 56 L 520.4 56 A 13.936 13.936 0 0 1 520.127 54.398 Q 520 53.294 520 52 A 23.85 23.85 0 0 1 520.054 50.345 Q 520.147 49.013 520.4 48 L 526.4 48 A 13.936 13.936 0 0 1 526.127 46.398 Q 526 45.294 526 44 A 23.85 23.85 0 0 1 526.054 42.345 Q 526.147 41.013 526.4 40 A 13.936 13.936 0 0 1 526.127 38.398 Q 526 37.294 526 36 A 23.85 23.85 0 0 1 526.054 34.345 Q 526.147 33.013 526.4 32 A 13.936 13.936 0 0 1 526.127 30.398 Q 526 29.294 526 28 A 23.85 23.85 0 0 1 526.054 26.345 Q 526.147 25.013 526.4 24 L 520.4 24 A 13.936 13.936 0 0 1 520.127 22.398 Q 520 21.294 520 20 A 23.85 23.85 0 0 1 520.054 18.345 Q 520.147 17.013 520.4 16 L 530.4 16 A 11.741 11.741 0 0 1 530.644 17.313 Q 530.737 18.018 530.774 18.833 A 25.306 25.306 0 0 1 530.8 20 Q 530.8 21.968 530.507 23.496 A 12.311 12.311 0 0 1 530.4 24 L 534.4 24 A 13.936 13.936 0 0 1 534.127 22.398 Q 534 21.294 534 20 A 23.85 23.85 0 0 1 534.054 18.345 Q 534.147 17.013 534.4 16 L 549.4 16 A 11.741 11.741 0 0 1 549.644 17.313 Q 549.737 18.018 549.774 18.833 A 25.306 25.306 0 0 1 549.8 20 Q 549.8 21.968 549.507 23.496 A 12.311 12.311 0 0 1 549.4 24 L 552.4 24 Q 552.698 25.194 552.774 26.833 A 25.306 25.306 0 0 1 552.8 28 Q 552.8 29.968 552.507 31.496 A 12.311 12.311 0 0 1 552.4 32 Z M 472.4 24 L 469.4 24 A 11.741 11.741 0 0 1 469.644 25.313 Q 469.737 26.018 469.774 26.833 A 25.306 25.306 0 0 1 469.8 28 Q 469.8 29.968 469.507 31.496 A 12.311 12.311 0 0 1 469.4 32 L 466.4 32 Q 466.698 33.194 466.774 34.833 A 25.306 25.306 0 0 1 466.8 36 Q 466.8 37.968 466.507 39.496 A 12.311 12.311 0 0 1 466.4 40 L 464.4 40 Q 464.698 41.194 464.774 42.833 A 25.306 25.306 0 0 1 464.8 44 Q 464.8 45.968 464.507 47.496 A 12.311 12.311 0 0 1 464.4 48 L 460.4 48 Q 460.698 49.194 460.774 50.833 A 25.306 25.306 0 0 1 460.8 52 Q 460.8 53.968 460.507 55.496 A 12.311 12.311 0 0 1 460.4 56 L 452.4 56 A 13.936 13.936 0 0 1 452.127 54.398 Q 452 53.294 452 52 A 23.85 23.85 0 0 1 452.054 50.345 Q 452.147 49.013 452.4 48 L 448.4 48 A 13.936 13.936 0 0 1 448.127 46.398 Q 448 45.294 448 44 A 23.85 23.85 0 0 1 448.054 42.345 Q 448.147 41.013 448.4 40 L 446.4 40 A 13.936 13.936 0 0 1 446.127 38.398 Q 446 37.294 446 36 A 23.85 23.85 0 0 1 446.054 34.345 Q 446.147 33.013 446.4 32 L 443.4 32 A 13.936 13.936 0 0 1 443.127 30.398 Q 443 29.294 443 28 A 23.85 23.85 0 0 1 443.054 26.345 Q 443.147 25.013 443.4 24 L 440.4 24 A 13.936 13.936 0 0 1 440.127 22.398 Q 440 21.294 440 20 A 23.85 23.85 0 0 1 440.054 18.345 Q 440.147 17.013 440.4 16 L 448.4 16 A 11.741 11.741 0 0 1 448.644 17.313 Q 448.737 18.018 448.774 18.833 A 25.306 25.306 0 0 1 448.8 20 Q 448.8 21.968 448.507 23.496 A 12.311 12.311 0 0 1 448.4 24 L 451.4 24 A 11.741 11.741 0 0 1 451.644 25.313 Q 451.737 26.018 451.774 26.833 A 25.306 25.306 0 0 1 451.8 28 Q 451.8 29.968 451.507 31.496 A 12.311 12.311 0 0 1 451.4 32 L 454.4 32 A 11.741 11.741 0 0 1 454.644 33.313 Q 454.737 34.018 454.774 34.833 A 25.306 25.306 0 0 1 454.8 36 Q 454.8 37.968 454.507 39.496 A 12.311 12.311 0 0 1 454.4 40 L 458.4 40 A 13.936 13.936 0 0 1 458.127 38.398 Q 458 37.294 458 36 A 23.85 23.85 0 0 1 458.054 34.345 Q 458.147 33.013 458.4 32 L 461.4 32 A 13.936 13.936 0 0 1 461.127 30.398 Q 461 29.294 461 28 A 23.85 23.85 0 0 1 461.054 26.345 Q 461.147 25.013 461.4 24 L 464.4 24 A 13.936 13.936 0 0 1 464.127 22.398 Q 464 21.294 464 20 A 23.85 23.85 0 0 1 464.054 18.345 Q 464.147 17.013 464.4 16 L 472.4 16 Q 472.698 17.194 472.774 18.833 A 25.306 25.306 0 0 1 472.8 20 Q 472.8 21.968 472.507 23.496 A 12.311 12.311 0 0 1 472.4 24 Z M 312.4 40 L 291.4 40 A 11.741 11.741 0 0 1 291.644 41.313 Q 291.737 42.018 291.774 42.833 A 25.306 25.306 0 0 1 291.8 44 Q 291.8 45.968 291.507 47.496 A 12.311 12.311 0 0 1 291.4 48 L 308.4 48 A 11.741 11.741 0 0 1 308.644 49.313 Q 308.737 50.018 308.774 50.833 A 25.306 25.306 0 0 1 308.8 52 Q 308.8 53.968 308.507 55.496 A 12.311 12.311 0 0 1 308.4 56 L 288.4 56 A 13.936 13.936 0 0 1 288.127 54.398 Q 288 53.294 288 52 A 23.85 23.85 0 0 1 288.054 50.345 Q 288.147 49.013 288.4 48 L 283.4 48 A 13.936 13.936 0 0 1 283.127 46.398 Q 283 45.294 283 44 A 23.85 23.85 0 0 1 283.054 42.345 Q 283.147 41.013 283.4 40 L 280.4 40 A 13.936 13.936 0 0 1 280.127 38.398 Q 280 37.294 280 36 A 23.85 23.85 0 0 1 280.054 34.345 Q 280.147 33.013 280.4 32 L 283.4 32 A 13.936 13.936 0 0 1 283.127 30.398 Q 283 29.294 283 28 A 23.85 23.85 0 0 1 283.054 26.345 Q 283.147 25.013 283.4 24 L 288.4 24 A 13.936 13.936 0 0 1 288.127 22.398 Q 288 21.294 288 20 A 23.85 23.85 0 0 1 288.054 18.345 Q 288.147 17.013 288.4 16 L 308.4 16 A 11.741 11.741 0 0 1 308.644 17.313 Q 308.737 18.018 308.774 18.833 A 25.306 25.306 0 0 1 308.8 20 Q 308.8 21.968 308.507 23.496 A 12.311 12.311 0 0 1 308.4 24 L 312.4 24 Q 312.698 25.194 312.774 26.833 A 25.306 25.306 0 0 1 312.8 28 Q 312.8 29.968 312.507 31.496 A 12.311 12.311 0 0 1 312.4 32 Q 312.698 33.194 312.774 34.833 A 25.306 25.306 0 0 1 312.8 36 Q 312.8 37.968 312.507 39.496 A 12.311 12.311 0 0 1 312.4 40 Z M 512.4 40 L 491.4 40 A 11.741 11.741 0 0 1 491.644 41.313 Q 491.737 42.018 491.774 42.833 A 25.306 25.306 0 0 1 491.8 44 Q 491.8 45.968 491.507 47.496 A 12.311 12.311 0 0 1 491.4 48 L 508.4 48 A 11.741 11.741 0 0 1 508.644 49.313 Q 508.737 50.018 508.774 50.833 A 25.306 25.306 0 0 1 508.8 52 Q 508.8 53.968 508.507 55.496 A 12.311 12.311 0 0 1 508.4 56 L 488.4 56 A 13.936 13.936 0 0 1 488.127 54.398 Q 488 53.294 488 52 A 23.85 23.85 0 0 1 488.054 50.345 Q 488.147 49.013 488.4 48 L 483.4 48 A 13.936 13.936 0 0 1 483.127 46.398 Q 483 45.294 483 44 A 23.85 23.85 0 0 1 483.054 42.345 Q 483.147 41.013 483.4 40 L 480.4 40 A 13.936 13.936 0 0 1 480.127 38.398 Q 480 37.294 480 36 A 23.85 23.85 0 0 1 480.054 34.345 Q 480.147 33.013 480.4 32 L 483.4 32 A 13.936 13.936 0 0 1 483.127 30.398 Q 483 29.294 483 28 A 23.85 23.85 0 0 1 483.054 26.345 Q 483.147 25.013 483.4 24 L 488.4 24 A 13.936 13.936 0 0 1 488.127 22.398 Q 488 21.294 488 20 A 23.85 23.85 0 0 1 488.054 18.345 Q 488.147 17.013 488.4 16 L 508.4 16 A 11.741 11.741 0 0 1 508.644 17.313 Q 508.737 18.018 508.774 18.833 A 25.306 25.306 0 0 1 508.8 20 Q 508.8 21.968 508.507 23.496 A 12.311 12.311 0 0 1 508.4 24 L 512.4 24 Q 512.698 25.194 512.774 26.833 A 25.306 25.306 0 0 1 512.8 28 Q 512.8 29.968 512.507 31.496 A 12.311 12.311 0 0 1 512.4 32 Q 512.698 33.194 512.774 34.833 A 25.306 25.306 0 0 1 512.8 36 Q 512.8 37.968 512.507 39.496 A 12.311 12.311 0 0 1 512.4 40 Z M 60.4 48 L 66.4 48 Q 66.698 49.194 66.774 50.833 A 25.306 25.306 0 0 1 66.8 52 Q 66.8 53.968 66.507 55.496 A 12.311 12.311 0 0 1 66.4 56 L 46.4 56 A 13.936 13.936 0 0 1 46.127 54.398 Q 46 53.294 46 52 A 23.85 23.85 0 0 1 46.054 50.345 Q 46.147 49.013 46.4 48 L 52.4 48 A 13.936 13.936 0 0 1 52.127 46.398 Q 52 45.294 52 44 A 23.85 23.85 0 0 1 52.054 42.345 Q 52.147 41.013 52.4 40 A 13.936 13.936 0 0 1 52.127 38.398 Q 52 37.294 52 36 A 23.85 23.85 0 0 1 52.054 34.345 Q 52.147 33.013 52.4 32 A 13.936 13.936 0 0 1 52.127 30.398 Q 52 29.294 52 28 A 23.85 23.85 0 0 1 52.054 26.345 Q 52.147 25.013 52.4 24 A 13.936 13.936 0 0 1 52.127 22.398 Q 52 21.294 52 20 A 23.85 23.85 0 0 1 52.054 18.345 Q 52.147 17.013 52.4 16 A 13.936 13.936 0 0 1 52.127 14.398 Q 52 13.294 52 12 A 23.85 23.85 0 0 1 52.054 10.345 Q 52.147 9.013 52.4 8 L 46.4 8 A 13.936 13.936 0 0 1 46.127 6.398 Q 46 5.294 46 4 A 23.85 23.85 0 0 1 46.054 2.345 Q 46.147 1.013 46.4 0 L 66.4 0 Q 66.698 1.194 66.774 2.833 A 25.306 25.306 0 0 1 66.8 4 Q 66.8 5.968 66.507 7.496 A 12.311 12.311 0 0 1 66.4 8 L 60.4 8 Q 60.698 9.194 60.774 10.833 A 25.306 25.306 0 0 1 60.8 12 Q 60.8 13.968 60.507 15.496 A 12.311 12.311 0 0 1 60.4 16 Q 60.698 17.194 60.774 18.833 A 25.306 25.306 0 0 1 60.8 20 Q 60.8 21.968 60.507 23.496 A 12.311 12.311 0 0 1 60.4 24 Q 60.698 25.194 60.774 26.833 A 25.306 25.306 0 0 1 60.8 28 Q 60.8 29.968 60.507 31.496 A 12.311 12.311 0 0 1 60.4 32 Q 60.698 33.194 60.774 34.833 A 25.306 25.306 0 0 1 60.8 36 Q 60.8 37.968 60.507 39.496 A 12.311 12.311 0 0 1 60.4 40 Q 60.698 41.194 60.774 42.833 A 25.306 25.306 0 0 1 60.8 44 Q 60.8 45.968 60.507 47.496 A 12.311 12.311 0 0 1 60.4 48 Z M 232.4 8 L 220.4 8 Q 220.698 9.194 220.774 10.833 A 25.306 25.306 0 0 1 220.8 12 Q 220.8 13.968 220.507 15.496 A 12.311 12.311 0 0 1 220.4 16 Q 220.698 17.194 220.774 18.833 A 25.306 25.306 0 0 1 220.8 20 Q 220.8 21.968 220.507 23.496 A 12.311 12.311 0 0 1 220.4 24 Q 220.698 25.194 220.774 26.833 A 25.306 25.306 0 0 1 220.8 28 Q 220.8 29.968 220.507 31.496 A 12.311 12.311 0 0 1 220.4 32 Q 220.698 33.194 220.774 34.833 A 25.306 25.306 0 0 1 220.8 36 Q 220.8 37.968 220.507 39.496 A 12.311 12.311 0 0 1 220.4 40 Q 220.698 41.194 220.774 42.833 A 25.306 25.306 0 0 1 220.8 44 Q 220.8 45.968 220.507 47.496 A 12.311 12.311 0 0 1 220.4 48 Q 220.698 49.194 220.774 50.833 A 25.306 25.306 0 0 1 220.8 52 Q 220.8 53.968 220.507 55.496 A 12.311 12.311 0 0 1 220.4 56 L 212.4 56 A 13.936 13.936 0 0 1 212.127 54.398 Q 212 53.294 212 52 A 23.85 23.85 0 0 1 212.054 50.345 Q 212.147 49.013 212.4 48 A 13.936 13.936 0 0 1 212.127 46.398 Q 212 45.294 212 44 A 23.85 23.85 0 0 1 212.054 42.345 Q 212.147 41.013 212.4 40 A 13.936 13.936 0 0 1 212.127 38.398 Q 212 37.294 212 36 A 23.85 23.85 0 0 1 212.054 34.345 Q 212.147 33.013 212.4 32 A 13.936 13.936 0 0 1 212.127 30.398 Q 212 29.294 212 28 A 23.85 23.85 0 0 1 212.054 26.345 Q 212.147 25.013 212.4 24 A 13.936 13.936 0 0 1 212.127 22.398 Q 212 21.294 212 20 A 23.85 23.85 0 0 1 212.054 18.345 Q 212.147 17.013 212.4 16 A 13.936 13.936 0 0 1 212.127 14.398 Q 212 13.294 212 12 A 23.85 23.85 0 0 1 212.054 10.345 Q 212.147 9.013 212.4 8 L 200.4 8 A 13.936 13.936 0 0 1 200.127 6.398 Q 200 5.294 200 4 A 23.85 23.85 0 0 1 200.054 2.345 Q 200.147 1.013 200.4 0 L 232.4 0 Q 232.698 1.194 232.774 2.833 A 25.306 25.306 0 0 1 232.8 4 Q 232.8 5.968 232.507 7.496 A 12.311 12.311 0 0 1 232.4 8 Z M 392.4 56 L 364.4 56 A 13.936 13.936 0 0 1 364.127 54.398 Q 364 53.294 364 52 A 23.85 23.85 0 0 1 364.054 50.345 Q 364.147 49.013 364.4 48 A 13.936 13.936 0 0 1 364.127 46.398 Q 364 45.294 364 44 A 23.85 23.85 0 0 1 364.054 42.345 Q 364.147 41.013 364.4 40 A 13.936 13.936 0 0 1 364.127 38.398 Q 364 37.294 364 36 A 23.85 23.85 0 0 1 364.054 34.345 Q 364.147 33.013 364.4 32 A 13.936 13.936 0 0 1 364.127 30.398 Q 364 29.294 364 28 A 23.85 23.85 0 0 1 364.054 26.345 Q 364.147 25.013 364.4 24 A 13.936 13.936 0 0 1 364.127 22.398 Q 364 21.294 364 20 A 23.85 23.85 0 0 1 364.054 18.345 Q 364.147 17.013 364.4 16 A 13.936 13.936 0 0 1 364.127 14.398 Q 364 13.294 364 12 A 23.85 23.85 0 0 1 364.054 10.345 Q 364.147 9.013 364.4 8 A 13.936 13.936 0 0 1 364.127 6.398 Q 364 5.294 364 4 A 23.85 23.85 0 0 1 364.054 2.345 Q 364.147 1.013 364.4 0 L 372.4 0 Q 372.698 1.194 372.774 2.833 A 25.306 25.306 0 0 1 372.8 4 Q 372.8 5.968 372.507 7.496 A 12.311 12.311 0 0 1 372.4 8 Q 372.698 9.194 372.774 10.833 A 25.306 25.306 0 0 1 372.8 12 Q 372.8 13.968 372.507 15.496 A 12.311 12.311 0 0 1 372.4 16 Q 372.698 17.194 372.774 18.833 A 25.306 25.306 0 0 1 372.8 20 Q 372.8 21.968 372.507 23.496 A 12.311 12.311 0 0 1 372.4 24 Q 372.698 25.194 372.774 26.833 A 25.306 25.306 0 0 1 372.8 28 Q 372.8 29.968 372.507 31.496 A 12.311 12.311 0 0 1 372.4 32 Q 372.698 33.194 372.774 34.833 A 25.306 25.306 0 0 1 372.8 36 Q 372.8 37.968 372.507 39.496 A 12.311 12.311 0 0 1 372.4 40 Q 372.698 41.194 372.774 42.833 A 25.306 25.306 0 0 1 372.8 44 Q 372.8 45.968 372.507 47.496 A 12.311 12.311 0 0 1 372.4 48 L 392.4 48 Q 392.698 49.194 392.774 50.833 A 25.306 25.306 0 0 1 392.8 52 Q 392.8 53.968 392.507 55.496 A 12.311 12.311 0 0 1 392.4 56 Z M 432.4 40 L 429.4 40 A 11.741 11.741 0 0 1 429.644 41.313 Q 429.737 42.018 429.774 42.833 A 25.306 25.306 0 0 1 429.8 44 Q 429.8 45.968 429.507 47.496 A 12.311 12.311 0 0 1 429.4 48 L 424.4 48 Q 424.698 49.194 424.774 50.833 A 25.306 25.306 0 0 1 424.8 52 Q 424.8 53.968 424.507 55.496 A 12.311 12.311 0 0 1 424.4 56 L 408.4 56 A 13.936 13.936 0 0 1 408.127 54.398 Q 408 53.294 408 52 A 23.85 23.85 0 0 1 408.054 50.345 Q 408.147 49.013 408.4 48 L 403.4 48 A 13.936 13.936 0 0 1 403.127 46.398 Q 403 45.294 403 44 A 23.85 23.85 0 0 1 403.054 42.345 Q 403.147 41.013 403.4 40 L 400.4 40 A 13.936 13.936 0 0 1 400.127 38.398 Q 400 37.294 400 36 A 23.85 23.85 0 0 1 400.054 34.345 Q 400.147 33.013 400.4 32 L 403.4 32 A 13.936 13.936 0 0 1 403.127 30.398 Q 403 29.294 403 28 A 23.85 23.85 0 0 1 403.054 26.345 Q 403.147 25.013 403.4 24 L 408.4 24 A 13.936 13.936 0 0 1 408.127 22.398 Q 408 21.294 408 20 A 23.85 23.85 0 0 1 408.054 18.345 Q 408.147 17.013 408.4 16 L 424.4 16 Q 424.698 17.194 424.774 18.833 A 25.306 25.306 0 0 1 424.8 20 Q 424.8 21.968 424.507 23.496 A 12.311 12.311 0 0 1 424.4 24 L 429.4 24 A 11.741 11.741 0 0 1 429.644 25.313 Q 429.737 26.018 429.774 26.833 A 25.306 25.306 0 0 1 429.8 28 Q 429.8 29.968 429.507 31.496 A 12.311 12.311 0 0 1 429.4 32 L 432.4 32 Q 432.698 33.194 432.774 34.833 A 25.306 25.306 0 0 1 432.8 36 Q 432.8 37.968 432.507 39.496 A 12.311 12.311 0 0 1 432.4 40 Z M 421.4 40 L 424.4 40 A 13.936 13.936 0 0 1 424.127 38.398 Q 424 37.294 424 36 A 23.85 23.85 0 0 1 424.054 34.345 Q 424.147 33.013 424.4 32 L 421.4 32 A 13.936 13.936 0 0 1 421.127 30.398 Q 421 29.294 421 28 A 23.85 23.85 0 0 1 421.054 26.345 Q 421.147 25.013 421.4 24 L 411.4 24 A 11.741 11.741 0 0 1 411.644 25.313 Q 411.737 26.018 411.774 26.833 A 25.306 25.306 0 0 1 411.8 28 Q 411.8 29.968 411.507 31.496 A 12.311 12.311 0 0 1 411.4 32 L 408.4 32 A 11.741 11.741 0 0 1 408.644 33.313 Q 408.737 34.018 408.774 34.833 A 25.306 25.306 0 0 1 408.8 36 Q 408.8 37.968 408.507 39.496 A 12.311 12.311 0 0 1 408.4 40 L 411.4 40 A 11.741 11.741 0 0 1 411.644 41.313 Q 411.737 42.018 411.774 42.833 A 25.306 25.306 0 0 1 411.8 44 Q 411.8 45.968 411.507 47.496 A 12.311 12.311 0 0 1 411.4 48 L 421.4 48 A 13.936 13.936 0 0 1 421.127 46.398 Q 421 45.294 421 44 A 23.85 23.85 0 0 1 421.054 42.345 Q 421.147 41.013 421.4 40 Z M 126.4 24 L 146.4 24 Q 146.698 25.194 146.774 26.833 A 25.306 25.306 0 0 1 146.8 28 Q 146.8 29.968 146.507 31.496 A 12.311 12.311 0 0 1 146.4 32 L 126.4 32 A 13.936 13.936 0 0 1 126.127 30.398 Q 126 29.294 126 28 A 23.85 23.85 0 0 1 126.054 26.345 Q 126.147 25.013 126.4 24 Z M 304.4 24 L 291.4 24 A 11.741 11.741 0 0 1 291.644 25.313 Q 291.737 26.018 291.774 26.833 A 25.306 25.306 0 0 1 291.8 28 Q 291.8 29.968 291.507 31.496 A 12.311 12.311 0 0 1 291.4 32 L 304.4 32 A 13.936 13.936 0 0 1 304.127 30.398 Q 304 29.294 304 28 A 23.85 23.85 0 0 1 304.054 26.345 Q 304.147 25.013 304.4 24 Z M 504.4 24 L 491.4 24 A 11.741 11.741 0 0 1 491.644 25.313 Q 491.737 26.018 491.774 26.833 A 25.306 25.306 0 0 1 491.8 28 Q 491.8 29.968 491.507 31.496 A 12.311 12.311 0 0 1 491.4 32 L 504.4 32 A 13.936 13.936 0 0 1 504.127 30.398 Q 504 29.294 504 28 A 23.85 23.85 0 0 1 504.054 26.345 Q 504.147 25.013 504.4 24 Z" vector-effect="non-scaling-stroke"/></g></svg>