<svg width="668.8" height="56" viewBox="0 0 668.8 56" xmlns="http://www.w3.org/2000/svg"><g id="svgGroup" stroke-linecap="round" fill-rule="evenodd" font-size="9pt" stroke="#000" stroke-width="0.25mm" fill="#000" style="stroke:#000;stroke-width:0.25mm;fill:#000"><path d="M 32.4 24 L 29.4 24 A 11.741 11.741 0 0 1 29.644 25.313 Q 29.737 26.018 29.774 26.833 A 25.306 25.306 0 0 1 29.8 28 Q 29.8 29.968 29.507 31.496 A 12.311 12.311 0 0 1 29.4 32 L 26.4 32 Q 26.698 33.194 26.774 34.833 A 25.306 25.306 0 0 1 26.8 36 Q 26.8 37.968 26.507 39.496 A 12.311 12.311 0 0 1 26.4 40 L 24.4 40 Q 24.698 41.194 24.774 42.833 A 25.306 25.306 0 0 1 24.8 44 Q 24.8 45.968 24.507 47.496 A 12.311 12.311 0 0 1 24.4 48 L 20.4 48 Q 20.698 49.194 20.774 50.833 A 25.306 25.306 0 0 1 20.8 52 Q 20.8 53.968 20.507 55.496 A 12.311 12.311 0 0 1 20.4 56 L 12.4 56 A 13.936 13.936 0 0 1 12.127 54.398 Q 12 53.294 12 52 A 23.85 23.85 0 0 1 12.054 50.345 Q 12.147 49.013 12.4 48 L 8.4 48 A 13.936 13.936 0 0 1 8.127 46.398 Q 8 45.294 8 44 A 23.85 23.85 0 0 1 8.054 42.345 Q 8.147 41.013 8.4 40 L 6.4 40 A 13.936 13.936 0 0 1 6.127 38.398 Q 6 37.294 6 36 A 23.85 23.85 0 0 1 6.054 34.345 Q 6.147 33.013 6.4 32 L 3.4 32 A 13.936 13.936 0 0 1 3.127 30.398 Q 3 29.294 3 28 A 23.85 23.85 0 0 1 3.054 26.345 Q 3.147 25.013 3.4 24 L 0.4 24 A 13.936 13.936 0 0 1 0.127 22.398 Q 0 21.294 0 20 A 23.85 23.85 0 0 1 0.054 18.345 Q 0.147 17.013 0.4 16 A 13.936 13.936 0 0 1 0.127 14.398 Q 0 13.294 0 12 A 23.85 23.85 0 0 1 0.054 10.345 Q 0.147 9.013 0.4 8 A 13.936 13.936 0 0 1 0.127 6.398 Q 0 5.294 0 4 A 23.85 23.85 0 0 1 0.054 2.345 Q 0.147 1.013 0.4 0 L 8.4 0 A 11.741 11.741 0 0 1 8.644 1.313 Q 8.737 2.018 8.774 2.833 A 25.306 25.306 0 0 1 8.8 4 Q 8.8 5.968 8.507 7.496 A 12.311 12.311 0 0 1 8.4 8 A 11.741 11.741 0 0 1 8.644 9.313 Q 8.737 10.018 8.774 10.833 A 25.306 25.306 0 0 1 8.8 12 Q 8.8 13.968 8.507 15.496 A 12.311 12.311 0 0 1 8.4 16 A 11.741 11.741 0 0 1 8.644 17.313 Q 8.737 18.018 8.774 18.833 A 25.306 25.306 0 0 1 8.8 20 Q 8.8 21.968 8.507 23.496 A 12.311 12.311 0 0 1 8.4 24 L 11.4 24 A 11.741 11.741 0 0 1 11.644 25.313 Q 11.737 26.018 11.774 26.833 A 25.306 25.306 0 0 1 11.8 28 Q 11.8 29.968 11.507 31.496 A 12.311 12.311 0 0 1 11.4 32 L 14.4 32 A 11.741 11.741 0 0 1 14.644 33.313 Q 14.737 34.018 14.774 34.833 A 25.306 25.306 0 0 1 14.8 36 Q 14.8 37.968 14.507 39.496 A 12.311 12.311 0 0 1 14.4 40 L 18.4 40 A 13.936 13.936 0 0 1 18.127 38.398 Q 18 37.294 18 36 A 23.85 23.85 0 0 1 18.054 34.345 Q 18.147 33.013 18.4 32 L 21.4 32 A 13.936 13.936 0 0 1 21.127 30.398 Q 21 29.294 21 28 A 23.85 23.85 0 0 1 21.054 26.345 Q 21.147 25.013 21.4 24 L 24.4 24 A 13.936 13.936 0 0 1 24.127 22.398 Q 24 21.294 24 20 A 23.85 23.85 0 0 1 24.054 18.345 Q 24.147 17.013 24.4 16 A 13.936 13.936 0 0 1 24.127 14.398 Q 24 13.294 24 12 A 23.85 23.85 0 0 1 24.054 10.345 Q 24.147 9.013 24.4 8 A 13.936 13.936 0 0 1 24.127 6.398 Q 24 5.294 24 4 A 23.85 23.85 0 0 1 24.054 2.345 Q 24.147 1.013 24.4 0 L 32.4 0 Q 32.698 1.194 32.774 2.833 A 25.306 25.306 0 0 1 32.8 4 Q 32.8 5.968 32.507 7.496 A 12.311 12.311 0 0 1 32.4 8 Q 32.698 9.194 32.774 10.833 A 25.306 25.306 0 0 1 32.8 12 Q 32.8 13.968 32.507 15.496 A 12.311 12.311 0 0 1 32.4 16 Q 32.698 17.194 32.774 18.833 A 25.306 25.306 0 0 1 32.8 20 Q 32.8 21.968 32.507 23.496 A 12.311 12.311 0 0 1 32.4 24 Z M 288.4 24 L 291.4 24 L 304.4 24 Q 304.147 25.013 304.054 26.345 A 23.85 23.85 0 0 0 304 28 Q 304 29.294 304.127 30.398 A 13.936 13.936 0 0 0 304.4 32 Q 304.147 33.013 304.054 34.345 A 23.85 23.85 0 0 0 304 36 Q 304 37.294 304.127 38.398 A 13.936 13.936 0 0 0 304.4 40 Q 304.147 41.013 304.054 42.345 A 23.85 23.85 0 0 0 304 44 Q 304 45.294 304.127 46.398 A 13.936 13.936 0 0 0 304.4 48 Q 304.147 49.013 304.054 50.345 A 23.85 23.85 0 0 0 304 52 Q 304 53.294 304.127 54.398 A 13.936 13.936 0 0 0 304.4 56 L 312.4 56 A 12.311 12.311 0 0 0 312.507 55.496 Q 312.8 53.968 312.8 52 A 25.306 25.306 0 0 0 312.774 50.833 Q 312.698 49.194 312.4 48 A 12.311 12.311 0 0 0 312.507 47.496 Q 312.8 45.968 312.8 44 A 25.306 25.306 0 0 0 312.774 42.833 Q 312.698 41.194 312.4 40 A 12.311 12.311 0 0 0 312.507 39.496 Q 312.8 37.968 312.8 36 A 25.306 25.306 0 0 0 312.774 34.833 Q 312.698 33.194 312.4 32 A 12.311 12.311 0 0 0 312.507 31.496 Q 312.8 29.968 312.8 28 A 25.306 25.306 0 0 0 312.774 26.833 Q 312.698 25.194 312.4 24 L 307.4 24 A 12.311 12.311 0 0 0 307.507 23.496 Q 307.8 21.968 307.8 20 A 25.306 25.306 0 0 0 307.774 18.833 Q 307.698 17.194 307.4 16 L 291.4 16 Q 291.147 17.013 291.054 18.345 A 23.85 23.85 0 0 0 291 20 Q 291 21.294 291.127 22.398 A 13.936 13.936 0 0 0 291.4 24 A 11.741 11.741 0 0 1 291.644 25.313 Q 291.737 26.018 291.774 26.833 A 25.306 25.306 0 0 1 291.8 28 Q 291.8 29.968 291.507 31.496 A 12.311 12.311 0 0 1 291.4 32 L 288.4 32 A 11.741 11.741 0 0 1 288.644 33.313 Q 288.737 34.018 288.774 34.833 A 25.306 25.306 0 0 1 288.8 36 Q 288.8 37.968 288.507 39.496 A 12.311 12.311 0 0 1 288.4 40 A 11.741 11.741 0 0 1 288.644 41.313 Q 288.737 42.018 288.774 42.833 A 25.306 25.306 0 0 1 288.8 44 Q 288.8 45.968 288.507 47.496 A 12.311 12.311 0 0 1 288.4 48 A 11.741 11.741 0 0 1 288.644 49.313 Q 288.737 50.018 288.774 50.833 A 25.306 25.306 0 0 1 288.8 52 Q 288.8 53.968 288.507 55.496 A 12.311 12.311 0 0 1 288.4 56 L 280.4 56 A 13.936 13.936 0 0 1 280.127 54.398 Q 280 53.294 280 52 A 23.85 23.85 0 0 1 280.054 50.345 Q 280.147 49.013 280.4 48 A 13.936 13.936 0 0 1 280.127 46.398 Q 280 45.294 280 44 A 23.85 23.85 0 0 1 280.054 42.345 Q 280.147 41.013 280.4 40 A 13.936 13.936 0 0 1 280.127 38.398 Q 280 37.294 280 36 A 23.85 23.85 0 0 1 280.054 34.345 Q 280.147 33.013 280.4 32 A 13.936 13.936 0 0 1 280.127 30.398 Q 280 29.294 280 28 A 23.85 23.85 0 0 1 280.054 26.345 Q 280.147 25.013 280.4 24 A 13.936 13.936 0 0 1 280.127 22.398 Q 280 21.294 280 20 A 23.85 23.85 0 0 1 280.054 18.345 Q 280.147 17.013 280.4 16 A 13.936 13.936 0 0 1 280.127 14.398 Q 280 13.294 280 12 A 23.85 23.85 0 0 1 280.054 10.345 Q 280.147 9.013 280.4 8 A 13.936 13.936 0 0 1 280.127 6.398 Q 280 5.294 280 4 A 23.85 23.85 0 0 1 280.054 2.345 Q 280.147 1.013 280.4 0 L 288.4 0 A 11.741 11.741 0 0 1 288.644 1.313 Q 288.737 2.018 288.774 2.833 A 25.306 25.306 0 0 1 288.8 4 Q 288.8 5.968 288.507 7.496 A 12.311 12.311 0 0 1 288.4 8 A 11.741 11.741 0 0 1 288.644 9.313 Q 288.737 10.018 288.774 10.833 A 25.306 25.306 0 0 1 288.8 12 Q 288.8 13.968 288.507 15.496 A 12.311 12.311 0 0 1 288.4 16 A 11.741 11.741 0 0 1 288.644 17.313 Q 288.737 18.018 288.774 18.833 A 25.306 25.306 0 0 1 288.8 20 Q 288.8 21.968 288.507 23.496 A 12.311 12.311 0 0 1 288.4 24 Z M 448.4 24 L 451.4 24 L 464.4 24 Q 464.147 25.013 464.054 26.345 A 23.85 23.85 0 0 0 464 28 Q 464 29.294 464.127 30.398 A 13.936 13.936 0 0 0 464.4 32 Q 464.147 33.013 464.054 34.345 A 23.85 23.85 0 0 0 464 36 Q 464 37.294 464.127 38.398 A 13.936 13.936 0 0 0 464.4 40 Q 464.147 41.013 464.054 42.345 A 23.85 23.85 0 0 0 464 44 Q 464 45.294 464.127 46.398 A 13.936 13.936 0 0 0 464.4 48 Q 464.147 49.013 464.054 50.345 A 23.85 23.85 0 0 0 464 52 Q 464 53.294 464.127 54.398 A 13.936 13.936 0 0 0 464.4 56 L 472.4 56 A 12.311 12.311 0 0 0 472.507 55.496 Q 472.8 53.968 472.8 52 A 25.306 25.306 0 0 0 472.774 50.833 Q 472.698 49.194 472.4 48 A 12.311 12.311 0 0 0 472.507 47.496 Q 472.8 45.968 472.8 44 A 25.306 25.306 0 0 0 472.774 42.833 Q 472.698 41.194 472.4 40 A 12.311 12.311 0 0 0 472.507 39.496 Q 472.8 37.968 472.8 36 A 25.306 25.306 0 0 0 472.774 34.833 Q 472.698 33.194 472.4 32 A 12.311 12.311 0 0 0 472.507 31.496 Q 472.8 29.968 472.8 28 A 25.306 25.306 0 0 0 472.774 26.833 Q 472.698 25.194 472.4 24 L 467.4 24 A 12.311 12.311 0 0 0 467.507 23.496 Q 467.8 21.968 467.8 20 A 25.306 25.306 0 0 0 467.774 18.833 Q 467.698 17.194 467.4 16 L 451.4 16 Q 451.147 17.013 451.054 18.345 A 23.85 23.85 0 0 0 451 20 Q 451 21.294 451.127 22.398 A 13.936 13.936 0 0 0 451.4 24 A 11.741 11.741 0 0 1 451.644 25.313 Q 451.737 26.018 451.774 26.833 A 25.306 25.306 0 0 1 451.8 28 Q 451.8 29.968 451.507 31.496 A 12.311 12.311 0 0 1 451.4 32 L 448.4 32 A 11.741 11.741 0 0 1 448.644 33.313 Q 448.737 34.018 448.774 34.833 A 25.306 25.306 0 0 1 448.8 36 Q 448.8 37.968 448.507 39.496 A 12.311 12.311 0 0 1 448.4 40 A 11.741 11.741 0 0 1 448.644 41.313 Q 448.737 42.018 448.774 42.833 A 25.306 25.306 0 0 1 448.8 44 Q 448.8 45.968 448.507 47.496 A 12.311 12.311 0 0 1 448.4 48 A 11.741 11.741 0 0 1 448.644 49.313 Q 448.737 50.018 448.774 50.833 A 25.306 25.306 0 0 1 448.8 52 Q 448.8 53.968 448.507 55.496 A 12.311 12.311 0 0 1 448.4 56 L 440.4 56 A 13.936 13.936 0 0 1 440.127 54.398 Q 440 53.294 440 52 A 23.85 23.85 0 0 1 440.054 50.345 Q 440.147 49.013 440.4 48 A 13.936 13.936 0 0 1 440.127 46.398 Q 440 45.294 440 44 A 23.85 23.85 0 0 1 440.054 42.345 Q 440.147 41.013 440.4 40 A 13.936 13.936 0 0 1 440.127 38.398 Q 440 37.294 440 36 A 23.85 23.85 0 0 1 440.054 34.345 Q 440.147 33.013 440.4 32 A 13.936 13.936 0 0 1 440.127 30.398 Q 440 29.294 440 28 A 23.85 23.85 0 0 1 440.054 26.345 Q 440.147 25.013 440.4 24 A 13.936 13.936 0 0 1 440.127 22.398 Q 440 21.294 440 20 A 23.85 23.85 0 0 1 440.054 18.345 Q 440.147 17.013 440.4 16 A 13.936 13.936 0 0 1 440.127 14.398 Q 440 13.294 440 12 A 23.85 23.85 0 0 1 440.054 10.345 Q 440.147 9.013 440.4 8 A 13.936 13.936 0 0 1 440.127 6.398 Q 440 5.294 440 4 A 23.85 23.85 0 0 1 440.054 2.345 Q 440.147 1.013 440.4 0 L 448.4 0 A 11.741 11.741 0 0 1 448.644 1.313 Q 448.737 2.018 448.774 2.833 A 25.306 25.306 0 0 1 448.8 4 Q 448.8 5.968 448.507 7.496 A 12.311 12.311 0 0 1 448.4 8 A 11.741 11.741 0 0 1 448.644 9.313 Q 448.737 10.018 448.774 10.833 A 25.306 25.306 0 0 1 448.8 12 Q 448.8 13.968 448.507 15.496 A 12.311 12.311 0 0 1 448.4 16 A 11.741 11.741 0 0 1 448.644 17.313 Q 448.737 18.018 448.774 18.833 A 25.306 25.306 0 0 1 448.8 20 Q 448.8 21.968 448.507 23.496 A 12.311 12.311 0 0 1 448.4 24 Z M 424.4 40 L 432.4 40 Q 432.698 41.194 432.774 42.833 A 25.306 25.306 0 0 1 432.8 44 Q 432.8 45.968 432.507 47.496 A 12.311 12.311 0 0 1 432.4 48 L 428.4 48 A 11.741 11.741 0 0 1 428.644 49.313 Q 428.737 50.018 428.774 50.833 A 25.306 25.306 0 0 1 428.8 52 Q 428.8 53.968 428.507 55.496 A 12.311 12.311 0 0 1 428.4 56 L 408.4 56 A 13.936 13.936 0 0 1 408.127 54.398 Q 408 53.294 408 52 A 23.85 23.85 0 0 1 408.054 50.345 Q 408.147 49.013 408.4 48 L 404.4 48 A 13.936 13.936 0 0 1 404.127 46.398 Q 404 45.294 404 44 A 23.85 23.85 0 0 1 404.054 42.345 Q 404.147 41.013 404.4 40 L 400.4 40 A 13.936 13.936 0 0 1 400.127 38.398 Q 400 37.294 400 36 A 23.85 23.85 0 0 1 400.054 34.345 Q 400.147 33.013 400.4 32 A 13.936 13.936 0 0 1 400.127 30.398 Q 400 29.294 400 28 A 23.85 23.85 0 0 1 400.054 26.345 Q 400.147 25.013 400.4 24 A 13.936 13.936 0 0 1 400.127 22.398 Q 400 21.294 400 20 A 23.85 23.85 0 0 1 400.054 18.345 Q 400.147 17.013 400.4 16 L 404.4 16 A 13.936 13.936 0 0 1 404.127 14.398 Q 404 13.294 404 12 A 23.85 23.85 0 0 1 404.054 10.345 Q 404.147 9.013 404.4 8 L 408.4 8 A 13.936 13.936 0 0 1 408.127 6.398 Q 408 5.294 408 4 A 23.85 23.85 0 0 1 408.054 2.345 Q 408.147 1.013 408.4 0 L 428.4 0 A 11.741 11.741 0 0 1 428.644 1.313 Q 428.737 2.018 428.774 2.833 A 25.306 25.306 0 0 1 428.8 4 Q 428.8 5.968 428.507 7.496 A 12.311 12.311 0 0 1 428.4 8 L 432.4 8 Q 432.698 9.194 432.774 10.833 A 25.306 25.306 0 0 1 432.8 12 Q 432.8 13.968 432.507 15.496 A 12.311 12.311 0 0 1 432.4 16 L 424.4 16 A 13.936 13.936 0 0 1 424.127 14.398 Q 424 13.294 424 12 A 23.85 23.85 0 0 1 424.054 10.345 Q 424.147 9.013 424.4 8 L 412.4 8 Q 412.698 9.194 412.774 10.833 A 25.306 25.306 0 0 1 412.8 12 Q 412.8 13.968 412.507 15.496 A 12.311 12.311 0 0 1 412.4 16 L 408.4 16 A 11.741 11.741 0 0 1 408.644 17.313 Q 408.737 18.018 408.774 18.833 A 25.306 25.306 0 0 1 408.8 20 Q 408.8 21.968 408.507 23.496 A 12.311 12.311 0 0 1 408.4 24 A 11.741 11.741 0 0 1 408.644 25.313 Q 408.737 26.018 408.774 26.833 A 25.306 25.306 0 0 1 408.8 28 Q 408.8 29.968 408.507 31.496 A 12.311 12.311 0 0 1 408.4 32 A 11.741 11.741 0 0 1 408.644 33.313 Q 408.737 34.018 408.774 34.833 A 25.306 25.306 0 0 1 408.8 36 Q 408.8 37.968 408.507 39.496 A 12.311 12.311 0 0 1 408.4 40 L 412.4 40 Q 412.698 41.194 412.774 42.833 A 25.306 25.306 0 0 1 412.8 44 Q 412.8 45.968 412.507 47.496 A 12.311 12.311 0 0 1 412.4 48 L 424.4 48 A 13.936 13.936 0 0 1 424.127 46.398 Q 424 45.294 424 44 A 23.85 23.85 0 0 1 424.054 42.345 Q 424.147 41.013 424.4 40 Z M 500.4 48 A 13.936 13.936 0 0 1 500.127 46.398 Q 500 45.294 500 44 A 23.85 23.85 0 0 1 500.054 42.345 Q 500.147 41.013 500.4 40 L 488.4 40 A 11.741 11.741 0 0 1 488.644 41.313 Q 488.737 42.018 488.774 42.833 A 25.306 25.306 0 0 1 488.8 44 Q 488.8 45.968 488.507 47.496 A 12.311 12.311 0 0 1 488.4 48 L 500.4 48 L 504.4 48 Q 504.147 49.013 504.054 50.345 A 23.85 23.85 0 0 0 504 52 Q 504 53.294 504.127 54.398 A 13.936 13.936 0 0 0 504.4 56 L 512.4 56 A 12.311 12.311 0 0 0 512.507 55.496 Q 512.8 53.968 512.8 52 A 25.306 25.306 0 0 0 512.774 50.833 Q 512.698 49.194 512.4 48 L 508.4 48 A 12.311 12.311 0 0 0 508.507 47.496 Q 508.8 45.968 508.8 44 A 25.306 25.306 0 0 0 508.774 42.833 Q 508.737 42.018 508.644 41.313 A 11.741 11.741 0 0 0 508.4 40 A 12.311 12.311 0 0 0 508.507 39.496 Q 508.8 37.968 508.8 36 A 25.306 25.306 0 0 0 508.774 34.833 Q 508.737 34.018 508.644 33.313 A 11.741 11.741 0 0 0 508.4 32 A 12.311 12.311 0 0 0 508.507 31.496 Q 508.8 29.968 508.8 28 A 25.306 25.306 0 0 0 508.774 26.833 Q 508.737 26.018 508.644 25.313 A 11.741 11.741 0 0 0 508.4 24 L 504.4 24 A 12.311 12.311 0 0 0 504.507 23.496 Q 504.8 21.968 504.8 20 A 25.306 25.306 0 0 0 504.774 18.833 Q 504.698 17.194 504.4 16 L 486.4 16 Q 486.147 17.013 486.054 18.345 A 23.85 23.85 0 0 0 486 20 Q 486 21.294 486.127 22.398 A 13.936 13.936 0 0 0 486.4 24 L 500.4 24 Q 500.147 25.013 500.054 26.345 A 23.85 23.85 0 0 0 500 28 Q 500 29.294 500.127 30.398 A 13.936 13.936 0 0 0 500.4 32 L 484.4 32 Q 484.147 33.013 484.054 34.345 A 23.85 23.85 0 0 0 484 36 Q 484 37.294 484.127 38.398 A 13.936 13.936 0 0 0 484.4 40 L 480.4 40 Q 480.147 41.013 480.054 42.345 A 23.85 23.85 0 0 0 480 44 Q 480 45.294 480.127 46.398 A 13.936 13.936 0 0 0 480.4 48 L 484.4 48 Q 484.147 49.013 484.054 50.345 A 23.85 23.85 0 0 0 484 52 Q 484 53.294 484.127 54.398 A 13.936 13.936 0 0 0 484.4 56 L 500.4 56 A 12.311 12.311 0 0 0 500.507 55.496 Q 500.8 53.968 500.8 52 A 25.306 25.306 0 0 0 500.774 50.833 Q 500.698 49.194 500.4 48 Z M 552.4 32 L 544.4 32 A 13.936 13.936 0 0 1 544.127 30.398 Q 544 29.294 544 28 A 23.85 23.85 0 0 1 544.054 26.345 Q 544.147 25.013 544.4 24 L 537.4 24 Q 537.698 25.194 537.774 26.833 A 25.306 25.306 0 0 1 537.8 28 Q 537.8 29.968 537.507 31.496 A 12.311 12.311 0 0 1 537.4 32 L 534.4 32 A 11.741 11.741 0 0 1 534.644 33.313 Q 534.737 34.018 534.774 34.833 A 25.306 25.306 0 0 1 534.8 36 Q 534.8 37.968 534.507 39.496 A 12.311 12.311 0 0 1 534.4 40 A 11.741 11.741 0 0 1 534.644 41.313 Q 534.737 42.018 534.774 42.833 A 25.306 25.306 0 0 1 534.8 44 Q 534.8 45.968 534.507 47.496 A 12.311 12.311 0 0 1 534.4 48 L 540.4 48 Q 540.698 49.194 540.774 50.833 A 25.306 25.306 0 0 1 540.8 52 Q 540.8 53.968 540.507 55.496 A 12.311 12.311 0 0 1 540.4 56 L 520.4 56 A 13.936 13.936 0 0 1 520.127 54.398 Q 520 53.294 520 52 A 23.85 23.85 0 0 1 520.054 50.345 Q 520.147 49.013 520.4 48 L 526.4 48 A 13.936 13.936 0 0 1 526.127 46.398 Q 526 45.294 526 44 A 23.85 23.85 0 0 1 526.054 42.345 Q 526.147 41.013 526.4 40 A 13.936 13.936 0 0 1 526.127 38.398 Q 526 37.294 526 36 A 23.85 23.85 0 0 1 526.054 34.345 Q 526.147 33.013 526.4 32 A 13.936 13.936 0 0 1 526.127 30.398 Q 526 29.294 526 28 A 23.85 23.85 0 0 1 526.054 26.345 Q 526.147 25.013 526.4 24 L 520.4 24 A 13.936 13.936 0 0 1 520.127 22.398 Q 520 21.294 520 20 A 23.85 23.85 0 0 1 520.054 18.345 Q 520.147 17.013 520.4 16 L 530.4 16 A 11.741 11.741 0 0 1 530.644 17.313 Q 530.737 18.018 530.774 18.833 A 25.306 25.306 0 0 1 530.8 20 Q 530.8 21.968 530.507 23.496 A 12.311 12.311 0 0 1 530.4 24 L 534.4 24 A 13.936 13.936 0 0 1 534.127 22.398 Q 534 21.294 534 20 A 23.85 23.85 0 0 1 534.054 18.345 Q 534.147 17.013 534.4 16 L 549.4 16 A 11.741 11.741 0 0 1 549.644 17.313 Q 549.737 18.018 549.774 18.833 A 25.306 25.306 0 0 1 549.8 20 Q 549.8 21.968 549.507 23.496 A 12.311 12.311 0 0 1 549.4 24 L 552.4 24 Q 552.698 25.194 552.774 26.833 A 25.306 25.306 0 0 1 552.8 28 Q 552.8 29.968 552.507 31.496 A 12.311 12.311 0 0 1 552.4 32 Z M 656.4 48 L 668.4 48 A 11.741 11.741 0 0 1 668.644 49.313 Q 668.737 50.018 668.774 50.833 A 25.306 25.306 0 0 1 668.8 52 Q 668.8 53.968 668.507 55.496 A 12.311 12.311 0 0 1 668.4 56 L 652.4 56 A 13.936 13.936 0 0 1 652.127 54.398 Q 652 53.294 652 52 A 23.85 23.85 0 0 1 652.054 50.345 Q 652.147 49.013 652.4 48 L 648.4 48 A 13.936 13.936 0 0 1 648.127 46.398 Q 648 45.294 648 44 A 23.85 23.85 0 0 1 648.054 42.345 Q 648.147 41.013 648.4 40 A 13.936 13.936 0 0 1 648.127 38.398 Q 648 37.294 648 36 A 23.85 23.85 0 0 1 648.054 34.345 Q 648.147 33.013 648.4 32 A 13.936 13.936 0 0 1 648.127 30.398 Q 648 29.294 648 28 A 23.85 23.85 0 0 1 648.054 26.345 Q 648.147 25.013 648.4 24 L 640.4 24 A 13.936 13.936 0 0 1 640.127 22.398 Q 640 21.294 640 20 A 23.85 23.85 0 0 1 640.054 18.345 Q 640.147 17.013 640.4 16 L 648.4 16 A 13.936 13.936 0 0 1 648.127 14.398 Q 648 13.294 648 12 A 23.85 23.85 0 0 1 648.054 10.345 Q 648.147 9.013 648.4 8 A 13.936 13.936 0 0 1 648.127 6.398 Q 648 5.294 648 4 A 23.85 23.85 0 0 1 648.054 2.345 Q 648.147 1.013 648.4 0 L 656.4 0 Q 656.698 1.194 656.774 2.833 A 25.306 25.306 0 0 1 656.8 4 Q 656.8 5.968 656.507 7.496 A 12.311 12.311 0 0 1 656.4 8 Q 656.698 9.194 656.774 10.833 A 25.306 25.306 0 0 1 656.8 12 Q 656.8 13.968 656.507 15.496 A 12.311 12.311 0 0 1 656.4 16 L 668.4 16 A 11.741 11.741 0 0 1 668.644 17.313 Q 668.737 18.018 668.774 18.833 A 25.306 25.306 0 0 1 668.8 20 Q 668.8 21.968 668.507 23.496 A 12.311 12.311 0 0 1 668.4 24 L 656.4 24 Q 656.698 25.194 656.774 26.833 A 25.306 25.306 0 0 1 656.8 28 Q 656.8 29.968 656.507 31.496 A 12.311 12.311 0 0 1 656.4 32 Q 656.698 33.194 656.774 34.833 A 25.306 25.306 0 0 1 656.8 36 Q 656.8 37.968 656.507 39.496 A 12.311 12.311 0 0 1 656.4 40 Q 656.698 41.194 656.774 42.833 A 25.306 25.306 0 0 1 656.8 44 Q 656.8 45.968 656.507 47.496 A 12.311 12.311 0 0 1 656.4 48 Z M 352.4 40 L 331.4 40 A 11.741 11.741 0 0 1 331.644 41.313 Q 331.737 42.018 331.774 42.833 A 25.306 25.306 0 0 1 331.8 44 Q 331.8 45.968 331.507 47.496 A 12.311 12.311 0 0 1 331.4 48 L 348.4 48 A 11.741 11.741 0 0 1 348.644 49.313 Q 348.737 50.018 348.774 50.833 A 25.306 25.306 0 0 1 348.8 52 Q 348.8 53.968 348.507 55.496 A 12.311 12.311 0 0 1 348.4 56 L 328.4 56 A 13.936 13.936 0 0 1 328.127 54.398 Q 328 53.294 328 52 A 23.85 23.85 0 0 1 328.054 50.345 Q 328.147 49.013 328.4 48 L 323.4 48 A 13.936 13.936 0 0 1 323.127 46.398 Q 323 45.294 323 44 A 23.85 23.85 0 0 1 323.054 42.345 Q 323.147 41.013 323.4 40 L 320.4 40 A 13.936 13.936 0 0 1 320.127 38.398 Q 320 37.294 320 36 A 23.85 23.85 0 0 1 320.054 34.345 Q 320.147 33.013 320.4 32 L 323.4 32 A 13.936 13.936 0 0 1 323.127 30.398 Q 323 29.294 323 28 A 23.85 23.85 0 0 1 323.054 26.345 Q 323.147 25.013 323.4 24 L 328.4 24 A 13.936 13.936 0 0 1 328.127 22.398 Q 328 21.294 328 20 A 23.85 23.85 0 0 1 328.054 18.345 Q 328.147 17.013 328.4 16 L 348.4 16 A 11.741 11.741 0 0 1 348.644 17.313 Q 348.737 18.018 348.774 18.833 A 25.306 25.306 0 0 1 348.8 20 Q 348.8 21.968 348.507 23.496 A 12.311 12.311 0 0 1 348.4 24 L 352.4 24 Q 352.698 25.194 352.774 26.833 A 25.306 25.306 0 0 1 352.8 28 Q 352.8 29.968 352.507 31.496 A 12.311 12.311 0 0 1 352.4 32 Q 352.698 33.194 352.774 34.833 A 25.306 25.306 0 0 1 352.8 36 Q 352.8 37.968 352.507 39.496 A 12.311 12.311 0 0 1 352.4 40 Z M 60.4 48 L 66.4 48 Q 66.698 49.194 66.774 50.833 A 25.306 25.306 0 0 1 66.8 52 Q 66.8 53.968 66.507 55.496 A 12.311 12.311 0 0 1 66.4 56 L 46.4 56 A 13.936 13.936 0 0 1 46.127 54.398 Q 46 53.294 46 52 A 23.85 23.85 0 0 1 46.054 50.345 Q 46.147 49.013 46.4 48 L 52.4 48 A 13.936 13.936 0 0 1 52.127 46.398 Q 52 45.294 52 44 A 23.85 23.85 0 0 1 52.054 42.345 Q 52.147 41.013 52.4 40 A 13.936 13.936 0 0 1 52.127 38.398 Q 52 37.294 52 36 A 23.85 23.85 0 0 1 52.054 34.345 Q 52.147 33.013 52.4 32 A 13.936 13.936 0 0 1 52.127 30.398 Q 52 29.294 52 28 A 23.85 23.85 0 0 1 52.054 26.345 Q 52.147 25.013 52.4 24 A 13.936 13.936 0 0 1 52.127 22.398 Q 52 21.294 52 20 A 23.85 23.85 0 0 1 52.054 18.345 Q 52.147 17.013 52.4 16 A 13.936 13.936 0 0 1 52.127 14.398 Q 52 13.294 52 12 A 23.85 23.85 0 0 1 52.054 10.345 Q 52.147 9.013 52.4 8 L 46.4 8 A 13.936 13.936 0 0 1 46.127 6.398 Q 46 5.294 46 4 A 23.85 23.85 0 0 1 46.054 2.345 Q 46.147 1.013 46.4 0 L 66.4 0 Q 66.698 1.194 66.774 2.833 A 25.306 25.306 0 0 1 66.8 4 Q 66.8 5.968 66.507 7.496 A 12.311 12.311 0 0 1 66.4 8 L 60.4 8 Q 60.698 9.194 60.774 10.833 A 25.306 25.306 0 0 1 60.8 12 Q 60.8 13.968 60.507 15.496 A 12.311 12.311 0 0 1 60.4 16 Q 60.698 17.194 60.774 18.833 A 25.306 25.306 0 0 1 60.8 20 Q 60.8 21.968 60.507 23.496 A 12.311 12.311 0 0 1 60.4 24 Q 60.698 25.194 60.774 26.833 A 25.306 25.306 0 0 1 60.8 28 Q 60.8 29.968 60.507 31.496 A 12.311 12.311 0 0 1 60.4 32 Q 60.698 33.194 60.774 34.833 A 25.306 25.306 0 0 1 60.8 36 Q 60.8 37.968 60.507 39.496 A 12.311 12.311 0 0 1 60.4 40 Q 60.698 41.194 60.774 42.833 A 25.306 25.306 0 0 1 60.8 44 Q 60.8 45.968 60.507 47.496 A 12.311 12.311 0 0 1 60.4 48 Z M 100.4 48 L 106.4 48 Q 106.698 49.194 106.774 50.833 A 25.306 25.306 0 0 1 106.8 52 Q 106.8 53.968 106.507 55.496 A 12.311 12.311 0 0 1 106.4 56 L 86.4 56 A 13.936 13.936 0 0 1 86.127 54.398 Q 86 53.294 86 52 A 23.85 23.85 0 0 1 86.054 50.345 Q 86.147 49.013 86.4 48 L 92.4 48 A 13.936 13.936 0 0 1 92.127 46.398 Q 92 45.294 92 44 A 23.85 23.85 0 0 1 92.054 42.345 Q 92.147 41.013 92.4 40 A 13.936 13.936 0 0 1 92.127 38.398 Q 92 37.294 92 36 A 23.85 23.85 0 0 1 92.054 34.345 Q 92.147 33.013 92.4 32 A 13.936 13.936 0 0 1 92.127 30.398 Q 92 29.294 92 28 A 23.85 23.85 0 0 1 92.054 26.345 Q 92.147 25.013 92.4 24 A 13.936 13.936 0 0 1 92.127 22.398 Q 92 21.294 92 20 A 23.85 23.85 0 0 1 92.054 18.345 Q 92.147 17.013 92.4 16 A 13.936 13.936 0 0 1 92.127 14.398 Q 92 13.294 92 12 A 23.85 23.85 0 0 1 92.054 10.345 Q 92.147 9.013 92.4 8 L 86.4 8 A 13.936 13.936 0 0 1 86.127 6.398 Q 86 5.294 86 4 A 23.85 23.85 0 0 1 86.054 2.345 Q 86.147 1.013 86.4 0 L 106.4 0 Q 106.698 1.194 106.774 2.833 A 25.306 25.306 0 0 1 106.8 4 Q 106.8 5.968 106.507 7.496 A 12.311 12.311 0 0 1 106.4 8 L 100.4 8 Q 100.698 9.194 100.774 10.833 A 25.306 25.306 0 0 1 100.8 12 Q 100.8 13.968 100.507 15.496 A 12.311 12.311 0 0 1 100.4 16 Q 100.698 17.194 100.774 18.833 A 25.306 25.306 0 0 1 100.8 20 Q 100.8 21.968 100.507 23.496 A 12.311 12.311 0 0 1 100.4 24 Q 100.698 25.194 100.774 26.833 A 25.306 25.306 0 0 1 100.8 28 Q 100.8 29.968 100.507 31.496 A 12.311 12.311 0 0 1 100.4 32 Q 100.698 33.194 100.774 34.833 A 25.306 25.306 0 0 1 100.8 36 Q 100.8 37.968 100.507 39.496 A 12.311 12.311 0 0 1 100.4 40 Q 100.698 41.194 100.774 42.833 A 25.306 25.306 0 0 1 100.8 44 Q 100.8 45.968 100.507 47.496 A 12.311 12.311 0 0 1 100.4 48 Z M 272.4 8 L 260.4 8 Q 260.698 9.194 260.774 10.833 A 25.306 25.306 0 0 1 260.8 12 Q 260.8 13.968 260.507 15.496 A 12.311 12.311 0 0 1 260.4 16 Q 260.698 17.194 260.774 18.833 A 25.306 25.306 0 0 1 260.8 20 Q 260.8 21.968 260.507 23.496 A 12.311 12.311 0 0 1 260.4 24 Q 260.698 25.194 260.774 26.833 A 25.306 25.306 0 0 1 260.8 28 Q 260.8 29.968 260.507 31.496 A 12.311 12.311 0 0 1 260.4 32 Q 260.698 33.194 260.774 34.833 A 25.306 25.306 0 0 1 260.8 36 Q 260.8 37.968 260.507 39.496 A 12.311 12.311 0 0 1 260.4 40 Q 260.698 41.194 260.774 42.833 A 25.306 25.306 0 0 1 260.8 44 Q 260.8 45.968 260.507 47.496 A 12.311 12.311 0 0 1 260.4 48 Q 260.698 49.194 260.774 50.833 A 25.306 25.306 0 0 1 260.8 52 Q 260.8 53.968 260.507 55.496 A 12.311 12.311 0 0 1 260.4 56 L 252.4 56 A 13.936 13.936 0 0 1 252.127 54.398 Q 252 53.294 252 52 A 23.85 23.85 0 0 1 252.054 50.345 Q 252.147 49.013 252.4 48 A 13.936 13.936 0 0 1 252.127 46.398 Q 252 45.294 252 44 A 23.85 23.85 0 0 1 252.054 42.345 Q 252.147 41.013 252.4 40 A 13.936 13.936 0 0 1 252.127 38.398 Q 252 37.294 252 36 A 23.85 23.85 0 0 1 252.054 34.345 Q 252.147 33.013 252.4 32 A 13.936 13.936 0 0 1 252.127 30.398 Q 252 29.294 252 28 A 23.85 23.85 0 0 1 252.054 26.345 Q 252.147 25.013 252.4 24 A 13.936 13.936 0 0 1 252.127 22.398 Q 252 21.294 252 20 A 23.85 23.85 0 0 1 252.054 18.345 Q 252.147 17.013 252.4 16 A 13.936 13.936 0 0 1 252.127 14.398 Q 252 13.294 252 12 A 23.85 23.85 0 0 1 252.054 10.345 Q 252.147 9.013 252.4 8 L 240.4 8 A 13.936 13.936 0 0 1 240.127 6.398 Q 240 5.294 240 4 A 23.85 23.85 0 0 1 240.054 2.345 Q 240.147 1.013 240.4 0 L 272.4 0 Q 272.698 1.194 272.774 2.833 A 25.306 25.306 0 0 1 272.8 4 Q 272.8 5.968 272.507 7.496 A 12.311 12.311 0 0 1 272.4 8 Z M 632.4 40 L 629.4 40 A 11.741 11.741 0 0 1 629.644 41.313 Q 629.737 42.018 629.774 42.833 A 25.306 25.306 0 0 1 629.8 44 Q 629.8 45.968 629.507 47.496 A 12.311 12.311 0 0 1 629.4 48 L 624.4 48 Q 624.698 49.194 624.774 50.833 A 25.306 25.306 0 0 1 624.8 52 Q 624.8 53.968 624.507 55.496 A 12.311 12.311 0 0 1 624.4 56 L 608.4 56 A 13.936 13.936 0 0 1 608.127 54.398 Q 608 53.294 608 52 A 23.85 23.85 0 0 1 608.054 50.345 Q 608.147 49.013 608.4 48 L 603.4 48 A 13.936 13.936 0 0 1 603.127 46.398 Q 603 45.294 603 44 A 23.85 23.85 0 0 1 603.054 42.345 Q 603.147 41.013 603.4 40 L 600.4 40 A 13.936 13.936 0 0 1 600.127 38.398 Q 600 37.294 600 36 A 23.85 23.85 0 0 1 600.054 34.345 Q 600.147 33.013 600.4 32 L 603.4 32 A 13.936 13.936 0 0 1 603.127 30.398 Q 603 29.294 603 28 A 23.85 23.85 0 0 1 603.054 26.345 Q 603.147 25.013 603.4 24 L 608.4 24 A 13.936 13.936 0 0 1 608.127 22.398 Q 608 21.294 608 20 A 23.85 23.85 0 0 1 608.054 18.345 Q 608.147 17.013 608.4 16 L 624.4 16 Q 624.698 17.194 624.774 18.833 A 25.306 25.306 0 0 1 624.8 20 Q 624.8 21.968 624.507 23.496 A 12.311 12.311 0 0 1 624.4 24 L 629.4 24 A 11.741 11.741 0 0 1 629.644 25.313 Q 629.737 26.018 629.774 26.833 A 25.306 25.306 0 0 1 629.8 28 Q 629.8 29.968 629.507 31.496 A 12.311 12.311 0 0 1 629.4 32 L 632.4 32 Q 632.698 33.194 632.774 34.833 A 25.306 25.306 0 0 1 632.8 36 Q 632.8 37.968 632.507 39.496 A 12.311 12.311 0 0 1 632.4 40 Z M 588.4 56 L 564.4 56 A 13.936 13.936 0 0 1 564.127 54.398 Q 564 53.294 564 52 A 23.85 23.85 0 0 1 564.054 50.345 Q 564.147 49.013 564.4 48 L 572.4 48 A 13.936 13.936 0 0 1 572.127 46.398 Q 572 45.294 572 44 A 23.85 23.85 0 0 1 572.054 42.345 Q 572.147 41.013 572.4 40 A 13.936 13.936 0 0 1 572.127 38.398 Q 572 37.294 572 36 A 23.85 23.85 0 0 1 572.054 34.345 Q 572.147 33.013 572.4 32 A 13.936 13.936 0 0 1 572.127 30.398 Q 572 29.294 572 28 A 23.85 23.85 0 0 1 572.054 26.345 Q 572.147 25.013 572.4 24 L 566.4 24 A 13.936 13.936 0 0 1 566.127 22.398 Q 566 21.294 566 20 A 23.85 23.85 0 0 1 566.054 18.345 Q 566.147 17.013 566.4 16 L 580.4 16 Q 580.698 17.194 580.774 18.833 A 25.306 25.306 0 0 1 580.8 20 Q 580.8 21.968 580.507 23.496 A 12.311 12.311 0 0 1 580.4 24 Q 580.698 25.194 580.774 26.833 A 25.306 25.306 0 0 1 580.8 28 Q 580.8 29.968 580.507 31.496 A 12.311 12.311 0 0 1 580.4 32 Q 580.698 33.194 580.774 34.833 A 25.306 25.306 0 0 1 580.8 36 Q 580.8 37.968 580.507 39.496 A 12.311 12.311 0 0 1 580.4 40 Q 580.698 41.194 580.774 42.833 A 25.306 25.306 0 0 1 580.8 44 Q 580.8 45.968 580.507 47.496 A 12.311 12.311 0 0 1 580.4 48 L 588.4 48 A 11.741 11.741 0 0 1 588.644 49.313 Q 588.737 50.018 588.774 50.833 A 25.306 25.306 0 0 1 588.8 52 Q 588.8 53.968 588.507 55.496 A 12.311 12.311 0 0 1 588.4 56 Z M 621.4 40 L 624.4 40 A 13.936 13.936 0 0 1 624.127 38.398 Q 624 37.294 624 36 A 23.85 23.85 0 0 1 624.054 34.345 Q 624.147 33.013 624.4 32 L 621.4 32 A 13.936 13.936 0 0 1 621.127 30.398 Q 621 29.294 621 28 A 23.85 23.85 0 0 1 621.054 26.345 Q 621.147 25.013 621.4 24 L 611.4 24 A 11.741 11.741 0 0 1 611.644 25.313 Q 611.737 26.018 611.774 26.833 A 25.306 25.306 0 0 1 611.8 28 Q 611.8 29.968 611.507 31.496 A 12.311 12.311 0 0 1 611.4 32 L 608.4 32 A 11.741 11.741 0 0 1 608.644 33.313 Q 608.737 34.018 608.774 34.833 A 25.306 25.306 0 0 1 608.8 36 Q 608.8 37.968 608.507 39.496 A 12.311 12.311 0 0 1 608.4 40 L 611.4 40 A 11.741 11.741 0 0 1 611.644 41.313 Q 611.737 42.018 611.774 42.833 A 25.306 25.306 0 0 1 611.8 44 Q 611.8 45.968 611.507 47.496 A 12.311 12.311 0 0 1 611.4 48 L 621.4 48 A 13.936 13.936 0 0 1 621.127 46.398 Q 621 45.294 621 44 A 23.85 23.85 0 0 1 621.054 42.345 Q 621.147 41.013 621.4 40 Z M 166.4 24 L 186.4 24 Q 186.698 25.194 186.774 26.833 A 25.306 25.306 0 0 1 186.8 28 Q 186.8 29.968 186.507 31.496 A 12.311 12.311 0 0 1 186.4 32 L 166.4 32 A 13.936 13.936 0 0 1 166.127 30.398 Q 166 29.294 166 28 A 23.85 23.85 0 0 1 166.054 26.345 Q 166.147 25.013 166.4 24 Z M 344.4 24 L 331.4 24 A 11.741 11.741 0 0 1 331.644 25.313 Q 331.737 26.018 331.774 26.833 A 25.306 25.306 0 0 1 331.8 28 Q 331.8 29.968 331.507 31.496 A 12.311 12.311 0 0 1 331.4 32 L 344.4 32 A 13.936 13.936 0 0 1 344.127 30.398 Q 344 29.294 344 28 A 23.85 23.85 0 0 1 344.054 26.345 Q 344.147 25.013 344.4 24 Z M 580.4 8 L 572.4 8 A 13.936 13.936 0 0 1 572.127 6.398 Q 572 5.294 572 4 A 23.85 23.85 0 0 1 572.054 2.345 Q 572.147 1.013 572.4 0 L 580.4 0 Q 580.698 1.194 580.774 2.833 A 25.306 25.306 0 0 1 580.8 4 Q 580.8 5.968 580.507 7.496 A 12.311 12.311 0 0 1 580.4 8 Z" vector-effect="non-scaling-stroke"/></g></svg>