<svg width="792.8" height="56" viewBox="0 0 792.8 56" xmlns="http://www.w3.org/2000/svg"><g id="svgGroup" stroke-linecap="round" fill-rule="evenodd" font-size="9pt" stroke="#000" stroke-width="0.25mm" fill="#000" style="stroke:#000;stroke-width:0.25mm;fill:#000"><path d="M 192.4 32 L 189.4 32 A 11.741 11.741 0 0 1 189.644 33.313 Q 189.737 34.018 189.774 34.833 A 25.306 25.306 0 0 1 189.8 36 Q 189.8 37.968 189.507 39.496 A 12.311 12.311 0 0 1 189.4 40 A 11.741 11.741 0 0 1 189.644 41.313 Q 189.737 42.018 189.774 42.833 A 25.306 25.306 0 0 1 189.8 44 Q 189.8 45.968 189.507 47.496 A 12.311 12.311 0 0 1 189.4 48 L 187.4 48 Q 187.698 49.194 187.774 50.833 A 25.306 25.306 0 0 1 187.8 52 Q 187.8 53.968 187.507 55.496 A 12.311 12.311 0 0 1 187.4 56 L 181.4 56 A 13.936 13.936 0 0 1 181.127 54.398 Q 181 53.294 181 52 A 23.85 23.85 0 0 1 181.054 50.345 Q 181.147 49.013 181.4 48 L 179.4 48 A 13.936 13.936 0 0 1 179.127 46.398 Q 179 45.294 179 44 A 23.85 23.85 0 0 1 179.054 42.345 Q 179.147 41.013 179.4 40 L 173.4 40 A 11.741 11.741 0 0 1 173.644 41.313 Q 173.737 42.018 173.774 42.833 A 25.306 25.306 0 0 1 173.8 44 Q 173.8 45.968 173.507 47.496 A 12.311 12.311 0 0 1 173.4 48 L 171.4 48 A 11.741 11.741 0 0 1 171.644 49.313 Q 171.737 50.018 171.774 50.833 A 25.306 25.306 0 0 1 171.8 52 Q 171.8 53.968 171.507 55.496 A 12.311 12.311 0 0 1 171.4 56 L 165.4 56 A 13.936 13.936 0 0 1 165.127 54.398 Q 165 53.294 165 52 A 23.85 23.85 0 0 1 165.054 50.345 Q 165.147 49.013 165.4 48 L 163.4 48 A 13.936 13.936 0 0 1 163.127 46.398 Q 163 45.294 163 44 A 23.85 23.85 0 0 1 163.054 42.345 Q 163.147 41.013 163.4 40 A 13.936 13.936 0 0 1 163.127 38.398 Q 163 37.294 163 36 A 23.85 23.85 0 0 1 163.054 34.345 Q 163.147 33.013 163.4 32 L 160.4 32 A 13.936 13.936 0 0 1 160.127 30.398 Q 160 29.294 160 28 A 23.85 23.85 0 0 1 160.054 26.345 Q 160.147 25.013 160.4 24 A 13.936 13.936 0 0 1 160.127 22.398 Q 160 21.294 160 20 A 23.85 23.85 0 0 1 160.054 18.345 Q 160.147 17.013 160.4 16 A 13.936 13.936 0 0 1 160.127 14.398 Q 160 13.294 160 12 A 23.85 23.85 0 0 1 160.054 10.345 Q 160.147 9.013 160.4 8 A 13.936 13.936 0 0 1 160.127 6.398 Q 160 5.294 160 4 A 23.85 23.85 0 0 1 160.054 2.345 Q 160.147 1.013 160.4 0 L 168.4 0 A 11.741 11.741 0 0 1 168.644 1.313 Q 168.737 2.018 168.774 2.833 A 25.306 25.306 0 0 1 168.8 4 Q 168.8 5.968 168.507 7.496 A 12.311 12.311 0 0 1 168.4 8 A 11.741 11.741 0 0 1 168.644 9.313 Q 168.737 10.018 168.774 10.833 A 25.306 25.306 0 0 1 168.8 12 Q 168.8 13.968 168.507 15.496 A 12.311 12.311 0 0 1 168.4 16 A 11.741 11.741 0 0 1 168.644 17.313 Q 168.737 18.018 168.774 18.833 A 25.306 25.306 0 0 1 168.8 20 Q 168.8 21.968 168.507 23.496 A 12.311 12.311 0 0 1 168.4 24 A 11.741 11.741 0 0 1 168.644 25.313 Q 168.737 26.018 168.774 26.833 A 25.306 25.306 0 0 1 168.8 28 Q 168.8 29.968 168.507 31.496 A 12.311 12.311 0 0 1 168.4 32 A 11.741 11.741 0 0 1 168.644 33.313 Q 168.737 34.018 168.774 34.833 A 25.306 25.306 0 0 1 168.8 36 Q 168.8 37.968 168.507 39.496 A 12.311 12.311 0 0 1 168.4 40 L 171.4 40 A 13.936 13.936 0 0 1 171.127 38.398 Q 171 37.294 171 36 A 23.85 23.85 0 0 1 171.054 34.345 Q 171.147 33.013 171.4 32 L 173.4 32 A 13.936 13.936 0 0 1 173.127 30.398 Q 173 29.294 173 28 A 23.85 23.85 0 0 1 173.054 26.345 Q 173.147 25.013 173.4 24 A 13.936 13.936 0 0 1 173.127 22.398 Q 173 21.294 173 20 A 23.85 23.85 0 0 1 173.054 18.345 Q 173.147 17.013 173.4 16 A 13.936 13.936 0 0 1 173.127 14.398 Q 173 13.294 173 12 A 23.85 23.85 0 0 1 173.054 10.345 Q 173.147 9.013 173.4 8 A 13.936 13.936 0 0 1 173.127 6.398 Q 173 5.294 173 4 A 23.85 23.85 0 0 1 173.054 2.345 Q 173.147 1.013 173.4 0 L 179.4 0 Q 179.698 1.194 179.774 2.833 A 25.306 25.306 0 0 1 179.8 4 Q 179.8 5.968 179.507 7.496 A 12.311 12.311 0 0 1 179.4 8 Q 179.698 9.194 179.774 10.833 A 25.306 25.306 0 0 1 179.8 12 Q 179.8 13.968 179.507 15.496 A 12.311 12.311 0 0 1 179.4 16 Q 179.698 17.194 179.774 18.833 A 25.306 25.306 0 0 1 179.8 20 Q 179.8 21.968 179.507 23.496 A 12.311 12.311 0 0 1 179.4 24 Q 179.698 25.194 179.774 26.833 A 25.306 25.306 0 0 1 179.8 28 Q 179.8 29.968 179.507 31.496 A 12.311 12.311 0 0 1 179.4 32 L 181.4 32 Q 181.698 33.194 181.774 34.833 A 25.306 25.306 0 0 1 181.8 36 Q 181.8 37.968 181.507 39.496 A 12.311 12.311 0 0 1 181.4 40 L 184.4 40 A 13.936 13.936 0 0 1 184.127 38.398 Q 184 37.294 184 36 A 23.85 23.85 0 0 1 184.054 34.345 Q 184.147 33.013 184.4 32 A 13.936 13.936 0 0 1 184.127 30.398 Q 184 29.294 184 28 A 23.85 23.85 0 0 1 184.054 26.345 Q 184.147 25.013 184.4 24 A 13.936 13.936 0 0 1 184.127 22.398 Q 184 21.294 184 20 A 23.85 23.85 0 0 1 184.054 18.345 Q 184.147 17.013 184.4 16 A 13.936 13.936 0 0 1 184.127 14.398 Q 184 13.294 184 12 A 23.85 23.85 0 0 1 184.054 10.345 Q 184.147 9.013 184.4 8 A 13.936 13.936 0 0 1 184.127 6.398 Q 184 5.294 184 4 A 23.85 23.85 0 0 1 184.054 2.345 Q 184.147 1.013 184.4 0 L 192.4 0 Q 192.698 1.194 192.774 2.833 A 25.306 25.306 0 0 1 192.8 4 Q 192.8 5.968 192.507 7.496 A 12.311 12.311 0 0 1 192.4 8 Q 192.698 9.194 192.774 10.833 A 25.306 25.306 0 0 1 192.8 12 Q 192.8 13.968 192.507 15.496 A 12.311 12.311 0 0 1 192.4 16 Q 192.698 17.194 192.774 18.833 A 25.306 25.306 0 0 1 192.8 20 Q 192.8 21.968 192.507 23.496 A 12.311 12.311 0 0 1 192.4 24 Q 192.698 25.194 192.774 26.833 A 25.306 25.306 0 0 1 192.8 28 Q 192.8 29.968 192.507 31.496 A 12.311 12.311 0 0 1 192.4 32 Z M 29.4 48 L 32.4 48 Q 32.698 49.194 32.774 50.833 A 25.306 25.306 0 0 1 32.8 52 Q 32.8 53.968 32.507 55.496 A 12.311 12.311 0 0 1 32.4 56 L 24.4 56 A 13.936 13.936 0 0 1 24.127 54.398 Q 24 53.294 24 52 A 23.85 23.85 0 0 1 24.054 50.345 Q 24.147 49.013 24.4 48 L 21.4 48 A 13.936 13.936 0 0 1 21.127 46.398 Q 21 45.294 21 44 A 23.85 23.85 0 0 1 21.054 42.345 Q 21.147 41.013 21.4 40 L 19.4 40 A 13.936 13.936 0 0 1 19.127 38.398 Q 19 37.294 19 36 A 23.85 23.85 0 0 1 19.054 34.345 Q 19.147 33.013 19.4 32 L 13.4 32 A 11.741 11.741 0 0 1 13.644 33.313 Q 13.737 34.018 13.774 34.833 A 25.306 25.306 0 0 1 13.8 36 Q 13.8 37.968 13.507 39.496 A 12.311 12.311 0 0 1 13.4 40 L 11.4 40 A 11.741 11.741 0 0 1 11.644 41.313 Q 11.737 42.018 11.774 42.833 A 25.306 25.306 0 0 1 11.8 44 Q 11.8 45.968 11.507 47.496 A 12.311 12.311 0 0 1 11.4 48 L 8.4 48 A 11.741 11.741 0 0 1 8.644 49.313 Q 8.737 50.018 8.774 50.833 A 25.306 25.306 0 0 1 8.8 52 Q 8.8 53.968 8.507 55.496 A 12.311 12.311 0 0 1 8.4 56 L 0.4 56 A 13.936 13.936 0 0 1 0.127 54.398 Q 0 53.294 0 52 A 23.85 23.85 0 0 1 0.054 50.345 Q 0.147 49.013 0.4 48 L 3.4 48 A 13.936 13.936 0 0 1 3.127 46.398 Q 3 45.294 3 44 A 23.85 23.85 0 0 1 3.054 42.345 Q 3.147 41.013 3.4 40 L 7.4 40 A 13.936 13.936 0 0 1 7.127 38.398 Q 7 37.294 7 36 A 23.85 23.85 0 0 1 7.054 34.345 Q 7.147 33.013 7.4 32 L 10.4 32 A 13.936 13.936 0 0 1 10.127 30.398 Q 10 29.294 10 28 A 23.85 23.85 0 0 1 10.054 26.345 Q 10.147 25.013 10.4 24 L 7.4 24 A 13.936 13.936 0 0 1 7.127 22.398 Q 7 21.294 7 20 A 23.85 23.85 0 0 1 7.054 18.345 Q 7.147 17.013 7.4 16 L 3.4 16 A 13.936 13.936 0 0 1 3.127 14.398 Q 3 13.294 3 12 A 23.85 23.85 0 0 1 3.054 10.345 Q 3.147 9.013 3.4 8 L 0.4 8 A 13.936 13.936 0 0 1 0.127 6.398 Q 0 5.294 0 4 A 23.85 23.85 0 0 1 0.054 2.345 Q 0.147 1.013 0.4 0 L 8.4 0 A 11.741 11.741 0 0 1 8.644 1.313 Q 8.737 2.018 8.774 2.833 A 25.306 25.306 0 0 1 8.8 4 Q 8.8 5.968 8.507 7.496 A 12.311 12.311 0 0 1 8.4 8 L 11.4 8 A 11.741 11.741 0 0 1 11.644 9.313 Q 11.737 10.018 11.774 10.833 A 25.306 25.306 0 0 1 11.8 12 Q 11.8 13.968 11.507 15.496 A 12.311 12.311 0 0 1 11.4 16 L 13.4 16 A 11.741 11.741 0 0 1 13.644 17.313 Q 13.737 18.018 13.774 18.833 A 25.306 25.306 0 0 1 13.8 20 Q 13.8 21.968 13.507 23.496 A 12.311 12.311 0 0 1 13.4 24 L 19.4 24 A 13.936 13.936 0 0 1 19.127 22.398 Q 19 21.294 19 20 A 23.85 23.85 0 0 1 19.054 18.345 Q 19.147 17.013 19.4 16 L 21.4 16 A 13.936 13.936 0 0 1 21.127 14.398 Q 21 13.294 21 12 A 23.85 23.85 0 0 1 21.054 10.345 Q 21.147 9.013 21.4 8 L 24.4 8 A 13.936 13.936 0 0 1 24.127 6.398 Q 24 5.294 24 4 A 23.85 23.85 0 0 1 24.054 2.345 Q 24.147 1.013 24.4 0 L 32.4 0 Q 32.698 1.194 32.774 2.833 A 25.306 25.306 0 0 1 32.8 4 Q 32.8 5.968 32.507 7.496 A 12.311 12.311 0 0 1 32.4 8 L 29.4 8 A 11.741 11.741 0 0 1 29.644 9.313 Q 29.737 10.018 29.774 10.833 A 25.306 25.306 0 0 1 29.8 12 Q 29.8 13.968 29.507 15.496 A 12.311 12.311 0 0 1 29.4 16 L 25.4 16 Q 25.698 17.194 25.774 18.833 A 25.306 25.306 0 0 1 25.8 20 Q 25.8 21.968 25.507 23.496 A 12.311 12.311 0 0 1 25.4 24 L 22.4 24 Q 22.698 25.194 22.774 26.833 A 25.306 25.306 0 0 1 22.8 28 Q 22.8 29.968 22.507 31.496 A 12.311 12.311 0 0 1 22.4 32 L 25.4 32 Q 25.698 33.194 25.774 34.833 A 25.306 25.306 0 0 1 25.8 36 Q 25.8 37.968 25.507 39.496 A 12.311 12.311 0 0 1 25.4 40 L 29.4 40 A 11.741 11.741 0 0 1 29.644 41.313 Q 29.737 42.018 29.774 42.833 A 25.306 25.306 0 0 1 29.8 44 Q 29.8 45.968 29.507 47.496 A 12.311 12.311 0 0 1 29.4 48 Z M 208.4 24 L 211.4 24 L 224.4 24 Q 224.147 25.013 224.054 26.345 A 23.85 23.85 0 0 0 224 28 Q 224 29.294 224.127 30.398 A 13.936 13.936 0 0 0 224.4 32 Q 224.147 33.013 224.054 34.345 A 23.85 23.85 0 0 0 224 36 Q 224 37.294 224.127 38.398 A 13.936 13.936 0 0 0 224.4 40 Q 224.147 41.013 224.054 42.345 A 23.85 23.85 0 0 0 224 44 Q 224 45.294 224.127 46.398 A 13.936 13.936 0 0 0 224.4 48 Q 224.147 49.013 224.054 50.345 A 23.85 23.85 0 0 0 224 52 Q 224 53.294 224.127 54.398 A 13.936 13.936 0 0 0 224.4 56 L 232.4 56 A 12.311 12.311 0 0 0 232.507 55.496 Q 232.8 53.968 232.8 52 A 25.306 25.306 0 0 0 232.774 50.833 Q 232.698 49.194 232.4 48 A 12.311 12.311 0 0 0 232.507 47.496 Q 232.8 45.968 232.8 44 A 25.306 25.306 0 0 0 232.774 42.833 Q 232.698 41.194 232.4 40 A 12.311 12.311 0 0 0 232.507 39.496 Q 232.8 37.968 232.8 36 A 25.306 25.306 0 0 0 232.774 34.833 Q 232.698 33.194 232.4 32 A 12.311 12.311 0 0 0 232.507 31.496 Q 232.8 29.968 232.8 28 A 25.306 25.306 0 0 0 232.774 26.833 Q 232.698 25.194 232.4 24 L 227.4 24 A 12.311 12.311 0 0 0 227.507 23.496 Q 227.8 21.968 227.8 20 A 25.306 25.306 0 0 0 227.774 18.833 Q 227.698 17.194 227.4 16 L 211.4 16 Q 211.147 17.013 211.054 18.345 A 23.85 23.85 0 0 0 211 20 Q 211 21.294 211.127 22.398 A 13.936 13.936 0 0 0 211.4 24 A 11.741 11.741 0 0 1 211.644 25.313 Q 211.737 26.018 211.774 26.833 A 25.306 25.306 0 0 1 211.8 28 Q 211.8 29.968 211.507 31.496 A 12.311 12.311 0 0 1 211.4 32 L 208.4 32 A 11.741 11.741 0 0 1 208.644 33.313 Q 208.737 34.018 208.774 34.833 A 25.306 25.306 0 0 1 208.8 36 Q 208.8 37.968 208.507 39.496 A 12.311 12.311 0 0 1 208.4 40 A 11.741 11.741 0 0 1 208.644 41.313 Q 208.737 42.018 208.774 42.833 A 25.306 25.306 0 0 1 208.8 44 Q 208.8 45.968 208.507 47.496 A 12.311 12.311 0 0 1 208.4 48 A 11.741 11.741 0 0 1 208.644 49.313 Q 208.737 50.018 208.774 50.833 A 25.306 25.306 0 0 1 208.8 52 Q 208.8 53.968 208.507 55.496 A 12.311 12.311 0 0 1 208.4 56 L 200.4 56 A 13.936 13.936 0 0 1 200.127 54.398 Q 200 53.294 200 52 A 23.85 23.85 0 0 1 200.054 50.345 Q 200.147 49.013 200.4 48 A 13.936 13.936 0 0 1 200.127 46.398 Q 200 45.294 200 44 A 23.85 23.85 0 0 1 200.054 42.345 Q 200.147 41.013 200.4 40 A 13.936 13.936 0 0 1 200.127 38.398 Q 200 37.294 200 36 A 23.85 23.85 0 0 1 200.054 34.345 Q 200.147 33.013 200.4 32 A 13.936 13.936 0 0 1 200.127 30.398 Q 200 29.294 200 28 A 23.85 23.85 0 0 1 200.054 26.345 Q 200.147 25.013 200.4 24 A 13.936 13.936 0 0 1 200.127 22.398 Q 200 21.294 200 20 A 23.85 23.85 0 0 1 200.054 18.345 Q 200.147 17.013 200.4 16 A 13.936 13.936 0 0 1 200.127 14.398 Q 200 13.294 200 12 A 23.85 23.85 0 0 1 200.054 10.345 Q 200.147 9.013 200.4 8 A 13.936 13.936 0 0 1 200.127 6.398 Q 200 5.294 200 4 A 23.85 23.85 0 0 1 200.054 2.345 Q 200.147 1.013 200.4 0 L 208.4 0 A 11.741 11.741 0 0 1 208.644 1.313 Q 208.737 2.018 208.774 2.833 A 25.306 25.306 0 0 1 208.8 4 Q 208.8 5.968 208.507 7.496 A 12.311 12.311 0 0 1 208.4 8 A 11.741 11.741 0 0 1 208.644 9.313 Q 208.737 10.018 208.774 10.833 A 25.306 25.306 0 0 1 208.8 12 Q 208.8 13.968 208.507 15.496 A 12.311 12.311 0 0 1 208.4 16 A 11.741 11.741 0 0 1 208.644 17.313 Q 208.737 18.018 208.774 18.833 A 25.306 25.306 0 0 1 208.8 20 Q 208.8 21.968 208.507 23.496 A 12.311 12.311 0 0 1 208.4 24 Z M 701.4 48 A 13.936 13.936 0 0 1 701.127 46.398 Q 701 45.294 701 44 A 23.85 23.85 0 0 1 701.054 42.345 Q 701.147 41.013 701.4 40 L 704.4 40 A 13.936 13.936 0 0 1 704.127 38.398 Q 704 37.294 704 36 A 23.85 23.85 0 0 1 704.054 34.345 Q 704.147 33.013 704.4 32 A 13.936 13.936 0 0 1 704.127 30.398 Q 704 29.294 704 28 A 23.85 23.85 0 0 1 704.054 26.345 Q 704.147 25.013 704.4 24 A 13.936 13.936 0 0 1 704.127 22.398 Q 704 21.294 704 20 A 23.85 23.85 0 0 1 704.054 18.345 Q 704.147 17.013 704.4 16 L 712.4 16 Q 712.698 17.194 712.774 18.833 A 25.306 25.306 0 0 1 712.8 20 Q 712.8 21.968 712.507 23.496 A 12.311 12.311 0 0 1 712.4 24 Q 712.698 25.194 712.774 26.833 A 25.306 25.306 0 0 1 712.8 28 Q 712.8 29.968 712.507 31.496 A 12.311 12.311 0 0 1 712.4 32 Q 712.698 33.194 712.774 34.833 A 25.306 25.306 0 0 1 712.8 36 Q 712.8 37.968 712.507 39.496 A 12.311 12.311 0 0 1 712.4 40 Q 712.698 41.194 712.774 42.833 A 25.306 25.306 0 0 1 712.8 44 Q 712.8 45.968 712.507 47.496 A 12.311 12.311 0 0 1 712.4 48 Q 712.698 49.194 712.774 50.833 A 25.306 25.306 0 0 1 712.8 52 Q 712.8 53.968 712.507 55.496 A 12.311 12.311 0 0 1 712.4 56 L 704.4 56 A 13.936 13.936 0 0 1 704.127 54.398 Q 704 53.294 704 52 A 23.85 23.85 0 0 1 704.054 50.345 Q 704.147 49.013 704.4 48 L 701.4 48 L 691.4 48 A 12.311 12.311 0 0 0 691.507 47.496 Q 691.8 45.968 691.8 44 A 25.306 25.306 0 0 0 691.774 42.833 Q 691.737 42.018 691.644 41.313 A 11.741 11.741 0 0 0 691.4 40 L 688.4 40 A 12.311 12.311 0 0 0 688.507 39.496 Q 688.8 37.968 688.8 36 A 25.306 25.306 0 0 0 688.774 34.833 Q 688.737 34.018 688.644 33.313 A 11.741 11.741 0 0 0 688.4 32 A 12.311 12.311 0 0 0 688.507 31.496 Q 688.8 29.968 688.8 28 A 25.306 25.306 0 0 0 688.774 26.833 Q 688.737 26.018 688.644 25.313 A 11.741 11.741 0 0 0 688.4 24 A 12.311 12.311 0 0 0 688.507 23.496 Q 688.8 21.968 688.8 20 A 25.306 25.306 0 0 0 688.774 18.833 Q 688.737 18.018 688.644 17.313 A 11.741 11.741 0 0 0 688.4 16 L 680.4 16 Q 680.147 17.013 680.054 18.345 A 23.85 23.85 0 0 0 680 20 Q 680 21.294 680.127 22.398 A 13.936 13.936 0 0 0 680.4 24 Q 680.147 25.013 680.054 26.345 A 23.85 23.85 0 0 0 680 28 Q 680 29.294 680.127 30.398 A 13.936 13.936 0 0 0 680.4 32 Q 680.147 33.013 680.054 34.345 A 23.85 23.85 0 0 0 680 36 Q 680 37.294 680.127 38.398 A 13.936 13.936 0 0 0 680.4 40 Q 680.147 41.013 680.054 42.345 A 23.85 23.85 0 0 0 680 44 Q 680 45.294 680.127 46.398 A 13.936 13.936 0 0 0 680.4 48 L 685.4 48 Q 685.147 49.013 685.054 50.345 A 23.85 23.85 0 0 0 685 52 Q 685 53.294 685.127 54.398 A 13.936 13.936 0 0 0 685.4 56 L 701.4 56 A 12.311 12.311 0 0 0 701.507 55.496 Q 701.8 53.968 701.8 52 A 25.306 25.306 0 0 0 701.774 50.833 Q 701.698 49.194 701.4 48 Z M 727.4 24 L 731.4 24 L 744.4 24 Q 744.147 25.013 744.054 26.345 A 23.85 23.85 0 0 0 744 28 Q 744 29.294 744.127 30.398 A 13.936 13.936 0 0 0 744.4 32 Q 744.147 33.013 744.054 34.345 A 23.85 23.85 0 0 0 744 36 Q 744 37.294 744.127 38.398 A 13.936 13.936 0 0 0 744.4 40 Q 744.147 41.013 744.054 42.345 A 23.85 23.85 0 0 0 744 44 Q 744 45.294 744.127 46.398 A 13.936 13.936 0 0 0 744.4 48 Q 744.147 49.013 744.054 50.345 A 23.85 23.85 0 0 0 744 52 Q 744 53.294 744.127 54.398 A 13.936 13.936 0 0 0 744.4 56 L 752.4 56 A 12.311 12.311 0 0 0 752.507 55.496 Q 752.8 53.968 752.8 52 A 25.306 25.306 0 0 0 752.774 50.833 Q 752.698 49.194 752.4 48 A 12.311 12.311 0 0 0 752.507 47.496 Q 752.8 45.968 752.8 44 A 25.306 25.306 0 0 0 752.774 42.833 Q 752.698 41.194 752.4 40 A 12.311 12.311 0 0 0 752.507 39.496 Q 752.8 37.968 752.8 36 A 25.306 25.306 0 0 0 752.774 34.833 Q 752.698 33.194 752.4 32 A 12.311 12.311 0 0 0 752.507 31.496 Q 752.8 29.968 752.8 28 A 25.306 25.306 0 0 0 752.774 26.833 Q 752.698 25.194 752.4 24 L 747.4 24 A 12.311 12.311 0 0 0 747.507 23.496 Q 747.8 21.968 747.8 20 A 25.306 25.306 0 0 0 747.774 18.833 Q 747.698 17.194 747.4 16 L 731.4 16 Q 731.147 17.013 731.054 18.345 A 23.85 23.85 0 0 0 731 20 Q 731 21.294 731.127 22.398 A 13.936 13.936 0 0 0 731.4 24 A 11.741 11.741 0 0 1 731.644 25.313 Q 731.737 26.018 731.774 26.833 A 25.306 25.306 0 0 1 731.8 28 Q 731.8 29.968 731.507 31.496 A 12.311 12.311 0 0 1 731.4 32 L 728.4 32 A 11.741 11.741 0 0 1 728.644 33.313 Q 728.737 34.018 728.774 34.833 A 25.306 25.306 0 0 1 728.8 36 Q 728.8 37.968 728.507 39.496 A 12.311 12.311 0 0 1 728.4 40 A 11.741 11.741 0 0 1 728.644 41.313 Q 728.737 42.018 728.774 42.833 A 25.306 25.306 0 0 1 728.8 44 Q 728.8 45.968 728.507 47.496 A 12.311 12.311 0 0 1 728.4 48 A 11.741 11.741 0 0 1 728.644 49.313 Q 728.737 50.018 728.774 50.833 A 25.306 25.306 0 0 1 728.8 52 Q 728.8 53.968 728.507 55.496 A 12.311 12.311 0 0 1 728.4 56 L 720.4 56 A 13.936 13.936 0 0 1 720.127 54.398 Q 720 53.294 720 52 A 23.85 23.85 0 0 1 720.054 50.345 Q 720.147 49.013 720.4 48 A 13.936 13.936 0 0 1 720.127 46.398 Q 720 45.294 720 44 A 23.85 23.85 0 0 1 720.054 42.345 Q 720.147 41.013 720.4 40 A 13.936 13.936 0 0 1 720.127 38.398 Q 720 37.294 720 36 A 23.85 23.85 0 0 1 720.054 34.345 Q 720.147 33.013 720.4 32 A 13.936 13.936 0 0 1 720.127 30.398 Q 720 29.294 720 28 A 23.85 23.85 0 0 1 720.054 26.345 Q 720.147 25.013 720.4 24 A 13.936 13.936 0 0 1 720.127 22.398 Q 720 21.294 720 20 A 23.85 23.85 0 0 1 720.054 18.345 Q 720.147 17.013 720.4 16 L 727.4 16 A 11.741 11.741 0 0 1 727.644 17.313 Q 727.737 18.018 727.774 18.833 A 25.306 25.306 0 0 1 727.8 20 Q 727.8 21.968 727.507 23.496 A 12.311 12.311 0 0 1 727.4 24 Z M 456.4 16 L 468.4 16 A 11.741 11.741 0 0 1 468.644 17.313 Q 468.737 18.018 468.774 18.833 A 25.306 25.306 0 0 1 468.8 20 Q 468.8 21.968 468.507 23.496 A 12.311 12.311 0 0 1 468.4 24 L 456.4 24 Q 456.698 25.194 456.774 26.833 A 25.306 25.306 0 0 1 456.8 28 Q 456.8 29.968 456.507 31.496 A 12.311 12.311 0 0 1 456.4 32 Q 456.698 33.194 456.774 34.833 A 25.306 25.306 0 0 1 456.8 36 Q 456.8 37.968 456.507 39.496 A 12.311 12.311 0 0 1 456.4 40 Q 456.698 41.194 456.774 42.833 A 25.306 25.306 0 0 1 456.8 44 Q 456.8 45.968 456.507 47.496 A 12.311 12.311 0 0 1 456.4 48 L 464.4 48 Q 464.698 49.194 464.774 50.833 A 25.306 25.306 0 0 1 464.8 52 Q 464.8 53.968 464.507 55.496 A 12.311 12.311 0 0 1 464.4 56 L 444.4 56 A 13.936 13.936 0 0 1 444.127 54.398 Q 444 53.294 444 52 A 23.85 23.85 0 0 1 444.054 50.345 Q 444.147 49.013 444.4 48 L 448.4 48 A 13.936 13.936 0 0 1 448.127 46.398 Q 448 45.294 448 44 A 23.85 23.85 0 0 1 448.054 42.345 Q 448.147 41.013 448.4 40 A 13.936 13.936 0 0 1 448.127 38.398 Q 448 37.294 448 36 A 23.85 23.85 0 0 1 448.054 34.345 Q 448.147 33.013 448.4 32 A 13.936 13.936 0 0 1 448.127 30.398 Q 448 29.294 448 28 A 23.85 23.85 0 0 1 448.054 26.345 Q 448.147 25.013 448.4 24 L 444.4 24 A 13.936 13.936 0 0 1 444.127 22.398 Q 444 21.294 444 20 A 23.85 23.85 0 0 1 444.054 18.345 Q 444.147 17.013 444.4 16 L 448.4 16 A 13.936 13.936 0 0 1 448.127 14.398 Q 448 13.294 448 12 A 23.85 23.85 0 0 1 448.054 10.345 Q 448.147 9.013 448.4 8 L 452.4 8 A 13.936 13.936 0 0 1 452.127 6.398 Q 452 5.294 452 4 A 23.85 23.85 0 0 1 452.054 2.345 Q 452.147 1.013 452.4 0 L 468.4 0 A 11.741 11.741 0 0 1 468.644 1.313 Q 468.737 2.018 468.774 2.833 A 25.306 25.306 0 0 1 468.8 4 Q 468.8 5.968 468.507 7.496 A 12.311 12.311 0 0 1 468.4 8 L 456.4 8 Q 456.698 9.194 456.774 10.833 A 25.306 25.306 0 0 1 456.8 12 Q 456.8 13.968 456.507 15.496 A 12.311 12.311 0 0 1 456.4 16 Z M 632.4 32 L 624.4 32 A 13.936 13.936 0 0 1 624.127 30.398 Q 624 29.294 624 28 A 23.85 23.85 0 0 1 624.054 26.345 Q 624.147 25.013 624.4 24 L 617.4 24 Q 617.698 25.194 617.774 26.833 A 25.306 25.306 0 0 1 617.8 28 Q 617.8 29.968 617.507 31.496 A 12.311 12.311 0 0 1 617.4 32 L 614.4 32 A 11.741 11.741 0 0 1 614.644 33.313 Q 614.737 34.018 614.774 34.833 A 25.306 25.306 0 0 1 614.8 36 Q 614.8 37.968 614.507 39.496 A 12.311 12.311 0 0 1 614.4 40 A 11.741 11.741 0 0 1 614.644 41.313 Q 614.737 42.018 614.774 42.833 A 25.306 25.306 0 0 1 614.8 44 Q 614.8 45.968 614.507 47.496 A 12.311 12.311 0 0 1 614.4 48 L 620.4 48 Q 620.698 49.194 620.774 50.833 A 25.306 25.306 0 0 1 620.8 52 Q 620.8 53.968 620.507 55.496 A 12.311 12.311 0 0 1 620.4 56 L 600.4 56 A 13.936 13.936 0 0 1 600.127 54.398 Q 600 53.294 600 52 A 23.85 23.85 0 0 1 600.054 50.345 Q 600.147 49.013 600.4 48 L 606.4 48 A 13.936 13.936 0 0 1 606.127 46.398 Q 606 45.294 606 44 A 23.85 23.85 0 0 1 606.054 42.345 Q 606.147 41.013 606.4 40 A 13.936 13.936 0 0 1 606.127 38.398 Q 606 37.294 606 36 A 23.85 23.85 0 0 1 606.054 34.345 Q 606.147 33.013 606.4 32 A 13.936 13.936 0 0 1 606.127 30.398 Q 606 29.294 606 28 A 23.85 23.85 0 0 1 606.054 26.345 Q 606.147 25.013 606.4 24 L 600.4 24 A 13.936 13.936 0 0 1 600.127 22.398 Q 600 21.294 600 20 A 23.85 23.85 0 0 1 600.054 18.345 Q 600.147 17.013 600.4 16 L 610.4 16 A 11.741 11.741 0 0 1 610.644 17.313 Q 610.737 18.018 610.774 18.833 A 25.306 25.306 0 0 1 610.8 20 Q 610.8 21.968 610.507 23.496 A 12.311 12.311 0 0 1 610.4 24 L 614.4 24 A 13.936 13.936 0 0 1 614.127 22.398 Q 614 21.294 614 20 A 23.85 23.85 0 0 1 614.054 18.345 Q 614.147 17.013 614.4 16 L 629.4 16 A 11.741 11.741 0 0 1 629.644 17.313 Q 629.737 18.018 629.774 18.833 A 25.306 25.306 0 0 1 629.8 20 Q 629.8 21.968 629.507 23.496 A 12.311 12.311 0 0 1 629.4 24 L 632.4 24 Q 632.698 25.194 632.774 26.833 A 25.306 25.306 0 0 1 632.8 28 Q 632.8 29.968 632.507 31.496 A 12.311 12.311 0 0 1 632.4 32 Z M 548.4 32 L 532.4 32 Q 532.698 33.194 532.774 34.833 A 25.306 25.306 0 0 1 532.8 36 Q 532.8 37.968 532.507 39.496 A 12.311 12.311 0 0 1 532.4 40 Q 532.698 41.194 532.774 42.833 A 25.306 25.306 0 0 1 532.8 44 Q 532.8 45.968 532.507 47.496 A 12.311 12.311 0 0 1 532.4 48 Q 532.698 49.194 532.774 50.833 A 25.306 25.306 0 0 1 532.8 52 Q 532.8 53.968 532.507 55.496 A 12.311 12.311 0 0 1 532.4 56 L 524.4 56 A 13.936 13.936 0 0 1 524.127 54.398 Q 524 53.294 524 52 A 23.85 23.85 0 0 1 524.054 50.345 Q 524.147 49.013 524.4 48 A 13.936 13.936 0 0 1 524.127 46.398 Q 524 45.294 524 44 A 23.85 23.85 0 0 1 524.054 42.345 Q 524.147 41.013 524.4 40 A 13.936 13.936 0 0 1 524.127 38.398 Q 524 37.294 524 36 A 23.85 23.85 0 0 1 524.054 34.345 Q 524.147 33.013 524.4 32 A 13.936 13.936 0 0 1 524.127 30.398 Q 524 29.294 524 28 A 23.85 23.85 0 0 1 524.054 26.345 Q 524.147 25.013 524.4 24 A 13.936 13.936 0 0 1 524.127 22.398 Q 524 21.294 524 20 A 23.85 23.85 0 0 1 524.054 18.345 Q 524.147 17.013 524.4 16 A 13.936 13.936 0 0 1 524.127 14.398 Q 524 13.294 524 12 A 23.85 23.85 0 0 1 524.054 10.345 Q 524.147 9.013 524.4 8 A 13.936 13.936 0 0 1 524.127 6.398 Q 524 5.294 524 4 A 23.85 23.85 0 0 1 524.054 2.345 Q 524.147 1.013 524.4 0 L 548.4 0 A 11.741 11.741 0 0 1 548.644 1.313 Q 548.737 2.018 548.774 2.833 A 25.306 25.306 0 0 1 548.8 4 Q 548.8 5.968 548.507 7.496 A 12.311 12.311 0 0 1 548.4 8 L 532.4 8 Q 532.698 9.194 532.774 10.833 A 25.306 25.306 0 0 1 532.8 12 Q 532.8 13.968 532.507 15.496 A 12.311 12.311 0 0 1 532.4 16 Q 532.698 17.194 532.774 18.833 A 25.306 25.306 0 0 1 532.8 20 Q 532.8 21.968 532.507 23.496 A 12.311 12.311 0 0 1 532.4 24 L 548.4 24 A 11.741 11.741 0 0 1 548.644 25.313 Q 548.737 26.018 548.774 26.833 A 25.306 25.306 0 0 1 548.8 28 Q 548.8 29.968 548.507 31.496 A 12.311 12.311 0 0 1 548.4 32 Z M 656.4 48 L 668.4 48 A 11.741 11.741 0 0 1 668.644 49.313 Q 668.737 50.018 668.774 50.833 A 25.306 25.306 0 0 1 668.8 52 Q 668.8 53.968 668.507 55.496 A 12.311 12.311 0 0 1 668.4 56 L 652.4 56 A 13.936 13.936 0 0 1 652.127 54.398 Q 652 53.294 652 52 A 23.85 23.85 0 0 1 652.054 50.345 Q 652.147 49.013 652.4 48 L 648.4 48 A 13.936 13.936 0 0 1 648.127 46.398 Q 648 45.294 648 44 A 23.85 23.85 0 0 1 648.054 42.345 Q 648.147 41.013 648.4 40 A 13.936 13.936 0 0 1 648.127 38.398 Q 648 37.294 648 36 A 23.85 23.85 0 0 1 648.054 34.345 Q 648.147 33.013 648.4 32 A 13.936 13.936 0 0 1 648.127 30.398 Q 648 29.294 648 28 A 23.85 23.85 0 0 1 648.054 26.345 Q 648.147 25.013 648.4 24 L 640.4 24 A 13.936 13.936 0 0 1 640.127 22.398 Q 640 21.294 640 20 A 23.85 23.85 0 0 1 640.054 18.345 Q 640.147 17.013 640.4 16 L 648.4 16 A 13.936 13.936 0 0 1 648.127 14.398 Q 648 13.294 648 12 A 23.85 23.85 0 0 1 648.054 10.345 Q 648.147 9.013 648.4 8 A 13.936 13.936 0 0 1 648.127 6.398 Q 648 5.294 648 4 A 23.85 23.85 0 0 1 648.054 2.345 Q 648.147 1.013 648.4 0 L 656.4 0 Q 656.698 1.194 656.774 2.833 A 25.306 25.306 0 0 1 656.8 4 Q 656.8 5.968 656.507 7.496 A 12.311 12.311 0 0 1 656.4 8 Q 656.698 9.194 656.774 10.833 A 25.306 25.306 0 0 1 656.8 12 Q 656.8 13.968 656.507 15.496 A 12.311 12.311 0 0 1 656.4 16 L 668.4 16 A 11.741 11.741 0 0 1 668.644 17.313 Q 668.737 18.018 668.774 18.833 A 25.306 25.306 0 0 1 668.8 20 Q 668.8 21.968 668.507 23.496 A 12.311 12.311 0 0 1 668.4 24 L 656.4 24 Q 656.698 25.194 656.774 26.833 A 25.306 25.306 0 0 1 656.8 28 Q 656.8 29.968 656.507 31.496 A 12.311 12.311 0 0 1 656.4 32 Q 656.698 33.194 656.774 34.833 A 25.306 25.306 0 0 1 656.8 36 Q 656.8 37.968 656.507 39.496 A 12.311 12.311 0 0 1 656.4 40 Q 656.698 41.194 656.774 42.833 A 25.306 25.306 0 0 1 656.8 44 Q 656.8 45.968 656.507 47.496 A 12.311 12.311 0 0 1 656.4 48 Z M 272.4 40 L 251.4 40 A 11.741 11.741 0 0 1 251.644 41.313 Q 251.737 42.018 251.774 42.833 A 25.306 25.306 0 0 1 251.8 44 Q 251.8 45.968 251.507 47.496 A 12.311 12.311 0 0 1 251.4 48 L 268.4 48 A 11.741 11.741 0 0 1 268.644 49.313 Q 268.737 50.018 268.774 50.833 A 25.306 25.306 0 0 1 268.8 52 Q 268.8 53.968 268.507 55.496 A 12.311 12.311 0 0 1 268.4 56 L 248.4 56 A 13.936 13.936 0 0 1 248.127 54.398 Q 248 53.294 248 52 A 23.85 23.85 0 0 1 248.054 50.345 Q 248.147 49.013 248.4 48 L 243.4 48 A 13.936 13.936 0 0 1 243.127 46.398 Q 243 45.294 243 44 A 23.85 23.85 0 0 1 243.054 42.345 Q 243.147 41.013 243.4 40 L 240.4 40 A 13.936 13.936 0 0 1 240.127 38.398 Q 240 37.294 240 36 A 23.85 23.85 0 0 1 240.054 34.345 Q 240.147 33.013 240.4 32 L 243.4 32 A 13.936 13.936 0 0 1 243.127 30.398 Q 243 29.294 243 28 A 23.85 23.85 0 0 1 243.054 26.345 Q 243.147 25.013 243.4 24 L 248.4 24 A 13.936 13.936 0 0 1 248.127 22.398 Q 248 21.294 248 20 A 23.85 23.85 0 0 1 248.054 18.345 Q 248.147 17.013 248.4 16 L 268.4 16 A 11.741 11.741 0 0 1 268.644 17.313 Q 268.737 18.018 268.774 18.833 A 25.306 25.306 0 0 1 268.8 20 Q 268.8 21.968 268.507 23.496 A 12.311 12.311 0 0 1 268.4 24 L 272.4 24 Q 272.698 25.194 272.774 26.833 A 25.306 25.306 0 0 1 272.8 28 Q 272.8 29.968 272.507 31.496 A 12.311 12.311 0 0 1 272.4 32 Q 272.698 33.194 272.774 34.833 A 25.306 25.306 0 0 1 272.8 36 Q 272.8 37.968 272.507 39.496 A 12.311 12.311 0 0 1 272.4 40 Z M 312.4 40 L 291.4 40 A 11.741 11.741 0 0 1 291.644 41.313 Q 291.737 42.018 291.774 42.833 A 25.306 25.306 0 0 1 291.8 44 Q 291.8 45.968 291.507 47.496 A 12.311 12.311 0 0 1 291.4 48 L 308.4 48 A 11.741 11.741 0 0 1 308.644 49.313 Q 308.737 50.018 308.774 50.833 A 25.306 25.306 0 0 1 308.8 52 Q 308.8 53.968 308.507 55.496 A 12.311 12.311 0 0 1 308.4 56 L 288.4 56 A 13.936 13.936 0 0 1 288.127 54.398 Q 288 53.294 288 52 A 23.85 23.85 0 0 1 288.054 50.345 Q 288.147 49.013 288.4 48 L 283.4 48 A 13.936 13.936 0 0 1 283.127 46.398 Q 283 45.294 283 44 A 23.85 23.85 0 0 1 283.054 42.345 Q 283.147 41.013 283.4 40 L 280.4 40 A 13.936 13.936 0 0 1 280.127 38.398 Q 280 37.294 280 36 A 23.85 23.85 0 0 1 280.054 34.345 Q 280.147 33.013 280.4 32 L 283.4 32 A 13.936 13.936 0 0 1 283.127 30.398 Q 283 29.294 283 28 A 23.85 23.85 0 0 1 283.054 26.345 Q 283.147 25.013 283.4 24 L 288.4 24 A 13.936 13.936 0 0 1 288.127 22.398 Q 288 21.294 288 20 A 23.85 23.85 0 0 1 288.054 18.345 Q 288.147 17.013 288.4 16 L 308.4 16 A 11.741 11.741 0 0 1 308.644 17.313 Q 308.737 18.018 308.774 18.833 A 25.306 25.306 0 0 1 308.8 20 Q 308.8 21.968 308.507 23.496 A 12.311 12.311 0 0 1 308.4 24 L 312.4 24 Q 312.698 25.194 312.774 26.833 A 25.306 25.306 0 0 1 312.8 28 Q 312.8 29.968 312.507 31.496 A 12.311 12.311 0 0 1 312.4 32 Q 312.698 33.194 312.774 34.833 A 25.306 25.306 0 0 1 312.8 36 Q 312.8 37.968 312.507 39.496 A 12.311 12.311 0 0 1 312.4 40 Z M 792.4 40 L 771.4 40 A 11.741 11.741 0 0 1 771.644 41.313 Q 771.737 42.018 771.774 42.833 A 25.306 25.306 0 0 1 771.8 44 Q 771.8 45.968 771.507 47.496 A 12.311 12.311 0 0 1 771.4 48 L 788.4 48 A 11.741 11.741 0 0 1 788.644 49.313 Q 788.737 50.018 788.774 50.833 A 25.306 25.306 0 0 1 788.8 52 Q 788.8 53.968 788.507 55.496 A 12.311 12.311 0 0 1 788.4 56 L 768.4 56 A 13.936 13.936 0 0 1 768.127 54.398 Q 768 53.294 768 52 A 23.85 23.85 0 0 1 768.054 50.345 Q 768.147 49.013 768.4 48 L 763.4 48 A 13.936 13.936 0 0 1 763.127 46.398 Q 763 45.294 763 44 A 23.85 23.85 0 0 1 763.054 42.345 Q 763.147 41.013 763.4 40 L 760.4 40 A 13.936 13.936 0 0 1 760.127 38.398 Q 760 37.294 760 36 A 23.85 23.85 0 0 1 760.054 34.345 Q 760.147 33.013 760.4 32 L 763.4 32 A 13.936 13.936 0 0 1 763.127 30.398 Q 763 29.294 763 28 A 23.85 23.85 0 0 1 763.054 26.345 Q 763.147 25.013 763.4 24 L 768.4 24 A 13.936 13.936 0 0 1 768.127 22.398 Q 768 21.294 768 20 A 23.85 23.85 0 0 1 768.054 18.345 Q 768.147 17.013 768.4 16 L 788.4 16 A 11.741 11.741 0 0 1 788.644 17.313 Q 788.737 18.018 788.774 18.833 A 25.306 25.306 0 0 1 788.8 20 Q 788.8 21.968 788.507 23.496 A 12.311 12.311 0 0 1 788.4 24 L 792.4 24 Q 792.698 25.194 792.774 26.833 A 25.306 25.306 0 0 1 792.8 28 Q 792.8 29.968 792.507 31.496 A 12.311 12.311 0 0 1 792.4 32 Q 792.698 33.194 792.774 34.833 A 25.306 25.306 0 0 1 792.8 36 Q 792.8 37.968 792.507 39.496 A 12.311 12.311 0 0 1 792.4 40 Z M 348.4 56 L 324.4 56 A 13.936 13.936 0 0 1 324.127 54.398 Q 324 53.294 324 52 A 23.85 23.85 0 0 1 324.054 50.345 Q 324.147 49.013 324.4 48 L 332.4 48 A 13.936 13.936 0 0 1 332.127 46.398 Q 332 45.294 332 44 A 23.85 23.85 0 0 1 332.054 42.345 Q 332.147 41.013 332.4 40 A 13.936 13.936 0 0 1 332.127 38.398 Q 332 37.294 332 36 A 23.85 23.85 0 0 1 332.054 34.345 Q 332.147 33.013 332.4 32 A 13.936 13.936 0 0 1 332.127 30.398 Q 332 29.294 332 28 A 23.85 23.85 0 0 1 332.054 26.345 Q 332.147 25.013 332.4 24 A 13.936 13.936 0 0 1 332.127 22.398 Q 332 21.294 332 20 A 23.85 23.85 0 0 1 332.054 18.345 Q 332.147 17.013 332.4 16 A 13.936 13.936 0 0 1 332.127 14.398 Q 332 13.294 332 12 A 23.85 23.85 0 0 1 332.054 10.345 Q 332.147 9.013 332.4 8 L 326.4 8 A 13.936 13.936 0 0 1 326.127 6.398 Q 326 5.294 326 4 A 23.85 23.85 0 0 1 326.054 2.345 Q 326.147 1.013 326.4 0 L 340.4 0 Q 340.698 1.194 340.774 2.833 A 25.306 25.306 0 0 1 340.8 4 Q 340.8 5.968 340.507 7.496 A 12.311 12.311 0 0 1 340.4 8 Q 340.698 9.194 340.774 10.833 A 25.306 25.306 0 0 1 340.8 12 Q 340.8 13.968 340.507 15.496 A 12.311 12.311 0 0 1 340.4 16 Q 340.698 17.194 340.774 18.833 A 25.306 25.306 0 0 1 340.8 20 Q 340.8 21.968 340.507 23.496 A 12.311 12.311 0 0 1 340.4 24 Q 340.698 25.194 340.774 26.833 A 25.306 25.306 0 0 1 340.8 28 Q 340.8 29.968 340.507 31.496 A 12.311 12.311 0 0 1 340.4 32 Q 340.698 33.194 340.774 34.833 A 25.306 25.306 0 0 1 340.8 36 Q 340.8 37.968 340.507 39.496 A 12.311 12.311 0 0 1 340.4 40 Q 340.698 41.194 340.774 42.833 A 25.306 25.306 0 0 1 340.8 44 Q 340.8 45.968 340.507 47.496 A 12.311 12.311 0 0 1 340.4 48 L 348.4 48 A 11.741 11.741 0 0 1 348.644 49.313 Q 348.737 50.018 348.774 50.833 A 25.306 25.306 0 0 1 348.8 52 Q 348.8 53.968 348.507 55.496 A 12.311 12.311 0 0 1 348.4 56 Z M 432.4 40 L 429.4 40 A 11.741 11.741 0 0 1 429.644 41.313 Q 429.737 42.018 429.774 42.833 A 25.306 25.306 0 0 1 429.8 44 Q 429.8 45.968 429.507 47.496 A 12.311 12.311 0 0 1 429.4 48 L 424.4 48 Q 424.698 49.194 424.774 50.833 A 25.306 25.306 0 0 1 424.8 52 Q 424.8 53.968 424.507 55.496 A 12.311 12.311 0 0 1 424.4 56 L 408.4 56 A 13.936 13.936 0 0 1 408.127 54.398 Q 408 53.294 408 52 A 23.85 23.85 0 0 1 408.054 50.345 Q 408.147 49.013 408.4 48 L 403.4 48 A 13.936 13.936 0 0 1 403.127 46.398 Q 403 45.294 403 44 A 23.85 23.85 0 0 1 403.054 42.345 Q 403.147 41.013 403.4 40 L 400.4 40 A 13.936 13.936 0 0 1 400.127 38.398 Q 400 37.294 400 36 A 23.85 23.85 0 0 1 400.054 34.345 Q 400.147 33.013 400.4 32 L 403.4 32 A 13.936 13.936 0 0 1 403.127 30.398 Q 403 29.294 403 28 A 23.85 23.85 0 0 1 403.054 26.345 Q 403.147 25.013 403.4 24 L 408.4 24 A 13.936 13.936 0 0 1 408.127 22.398 Q 408 21.294 408 20 A 23.85 23.85 0 0 1 408.054 18.345 Q 408.147 17.013 408.4 16 L 424.4 16 Q 424.698 17.194 424.774 18.833 A 25.306 25.306 0 0 1 424.8 20 Q 424.8 21.968 424.507 23.496 A 12.311 12.311 0 0 1 424.4 24 L 429.4 24 A 11.741 11.741 0 0 1 429.644 25.313 Q 429.737 26.018 429.774 26.833 A 25.306 25.306 0 0 1 429.8 28 Q 429.8 29.968 429.507 31.496 A 12.311 12.311 0 0 1 429.4 32 L 432.4 32 Q 432.698 33.194 432.774 34.833 A 25.306 25.306 0 0 1 432.8 36 Q 432.8 37.968 432.507 39.496 A 12.311 12.311 0 0 1 432.4 40 Z M 592.4 40 L 589.4 40 A 11.741 11.741 0 0 1 589.644 41.313 Q 589.737 42.018 589.774 42.833 A 25.306 25.306 0 0 1 589.8 44 Q 589.8 45.968 589.507 47.496 A 12.311 12.311 0 0 1 589.4 48 L 584.4 48 Q 584.698 49.194 584.774 50.833 A 25.306 25.306 0 0 1 584.8 52 Q 584.8 53.968 584.507 55.496 A 12.311 12.311 0 0 1 584.4 56 L 568.4 56 A 13.936 13.936 0 0 1 568.127 54.398 Q 568 53.294 568 52 A 23.85 23.85 0 0 1 568.054 50.345 Q 568.147 49.013 568.4 48 L 563.4 48 A 13.936 13.936 0 0 1 563.127 46.398 Q 563 45.294 563 44 A 23.85 23.85 0 0 1 563.054 42.345 Q 563.147 41.013 563.4 40 L 560.4 40 A 13.936 13.936 0 0 1 560.127 38.398 Q 560 37.294 560 36 A 23.85 23.85 0 0 1 560.054 34.345 Q 560.147 33.013 560.4 32 L 563.4 32 A 13.936 13.936 0 0 1 563.127 30.398 Q 563 29.294 563 28 A 23.85 23.85 0 0 1 563.054 26.345 Q 563.147 25.013 563.4 24 L 568.4 24 A 13.936 13.936 0 0 1 568.127 22.398 Q 568 21.294 568 20 A 23.85 23.85 0 0 1 568.054 18.345 Q 568.147 17.013 568.4 16 L 584.4 16 Q 584.698 17.194 584.774 18.833 A 25.306 25.306 0 0 1 584.8 20 Q 584.8 21.968 584.507 23.496 A 12.311 12.311 0 0 1 584.4 24 L 589.4 24 A 11.741 11.741 0 0 1 589.644 25.313 Q 589.737 26.018 589.774 26.833 A 25.306 25.306 0 0 1 589.8 28 Q 589.8 29.968 589.507 31.496 A 12.311 12.311 0 0 1 589.4 32 L 592.4 32 Q 592.698 33.194 592.774 34.833 A 25.306 25.306 0 0 1 592.8 36 Q 592.8 37.968 592.507 39.496 A 12.311 12.311 0 0 1 592.4 40 Z M 421.4 40 L 424.4 40 A 13.936 13.936 0 0 1 424.127 38.398 Q 424 37.294 424 36 A 23.85 23.85 0 0 1 424.054 34.345 Q 424.147 33.013 424.4 32 L 421.4 32 A 13.936 13.936 0 0 1 421.127 30.398 Q 421 29.294 421 28 A 23.85 23.85 0 0 1 421.054 26.345 Q 421.147 25.013 421.4 24 L 411.4 24 A 11.741 11.741 0 0 1 411.644 25.313 Q 411.737 26.018 411.774 26.833 A 25.306 25.306 0 0 1 411.8 28 Q 411.8 29.968 411.507 31.496 A 12.311 12.311 0 0 1 411.4 32 L 408.4 32 A 11.741 11.741 0 0 1 408.644 33.313 Q 408.737 34.018 408.774 34.833 A 25.306 25.306 0 0 1 408.8 36 Q 408.8 37.968 408.507 39.496 A 12.311 12.311 0 0 1 408.4 40 L 411.4 40 A 11.741 11.741 0 0 1 411.644 41.313 Q 411.737 42.018 411.774 42.833 A 25.306 25.306 0 0 1 411.8 44 Q 411.8 45.968 411.507 47.496 A 12.311 12.311 0 0 1 411.4 48 L 421.4 48 A 13.936 13.936 0 0 1 421.127 46.398 Q 421 45.294 421 44 A 23.85 23.85 0 0 1 421.054 42.345 Q 421.147 41.013 421.4 40 Z M 581.4 40 L 584.4 40 A 13.936 13.936 0 0 1 584.127 38.398 Q 584 37.294 584 36 A 23.85 23.85 0 0 1 584.054 34.345 Q 584.147 33.013 584.4 32 L 581.4 32 A 13.936 13.936 0 0 1 581.127 30.398 Q 581 29.294 581 28 A 23.85 23.85 0 0 1 581.054 26.345 Q 581.147 25.013 581.4 24 L 571.4 24 A 11.741 11.741 0 0 1 571.644 25.313 Q 571.737 26.018 571.774 26.833 A 25.306 25.306 0 0 1 571.8 28 Q 571.8 29.968 571.507 31.496 A 12.311 12.311 0 0 1 571.4 32 L 568.4 32 A 11.741 11.741 0 0 1 568.644 33.313 Q 568.737 34.018 568.774 34.833 A 25.306 25.306 0 0 1 568.8 36 Q 568.8 37.968 568.507 39.496 A 12.311 12.311 0 0 1 568.4 40 L 571.4 40 A 11.741 11.741 0 0 1 571.644 41.313 Q 571.737 42.018 571.774 42.833 A 25.306 25.306 0 0 1 571.8 44 Q 571.8 45.968 571.507 47.496 A 12.311 12.311 0 0 1 571.4 48 L 581.4 48 A 13.936 13.936 0 0 1 581.127 46.398 Q 581 45.294 581 44 A 23.85 23.85 0 0 1 581.054 42.345 Q 581.147 41.013 581.4 40 Z M 86.4 24 L 106.4 24 Q 106.698 25.194 106.774 26.833 A 25.306 25.306 0 0 1 106.8 28 Q 106.8 29.968 106.507 31.496 A 12.311 12.311 0 0 1 106.4 32 L 86.4 32 A 13.936 13.936 0 0 1 86.127 30.398 Q 86 29.294 86 28 A 23.85 23.85 0 0 1 86.054 26.345 Q 86.147 25.013 86.4 24 Z M 264.4 24 L 251.4 24 A 11.741 11.741 0 0 1 251.644 25.313 Q 251.737 26.018 251.774 26.833 A 25.306 25.306 0 0 1 251.8 28 Q 251.8 29.968 251.507 31.496 A 12.311 12.311 0 0 1 251.4 32 L 264.4 32 A 13.936 13.936 0 0 1 264.127 30.398 Q 264 29.294 264 28 A 23.85 23.85 0 0 1 264.054 26.345 Q 264.147 25.013 264.4 24 Z M 304.4 24 L 291.4 24 A 11.741 11.741 0 0 1 291.644 25.313 Q 291.737 26.018 291.774 26.833 A 25.306 25.306 0 0 1 291.8 28 Q 291.8 29.968 291.507 31.496 A 12.311 12.311 0 0 1 291.4 32 L 304.4 32 A 13.936 13.936 0 0 1 304.127 30.398 Q 304 29.294 304 28 A 23.85 23.85 0 0 1 304.054 26.345 Q 304.147 25.013 304.4 24 Z M 784.4 24 L 771.4 24 A 11.741 11.741 0 0 1 771.644 25.313 Q 771.737 26.018 771.774 26.833 A 25.306 25.306 0 0 1 771.8 28 Q 771.8 29.968 771.507 31.496 A 12.311 12.311 0 0 1 771.4 32 L 784.4 32 A 13.936 13.936 0 0 1 784.127 30.398 Q 784 29.294 784 28 A 23.85 23.85 0 0 1 784.054 26.345 Q 784.147 25.013 784.4 24 Z" vector-effect="non-scaling-stroke"/></g></svg>