<svg width="512.8" height="72" viewBox="0 0 512.8 72" xmlns="http://www.w3.org/2000/svg"><g id="svgGroup" stroke-linecap="round" fill-rule="evenodd" font-size="9pt" stroke="#000" stroke-width="0.25mm" fill="#000" style="stroke:#000;stroke-width:0.25mm;fill:#000"><path d="M 29.4 48 L 32.4 48 Q 32.698 49.194 32.774 50.833 A 25.306 25.306 0 0 1 32.8 52 Q 32.8 53.968 32.507 55.496 A 12.311 12.311 0 0 1 32.4 56 L 24.4 56 A 13.936 13.936 0 0 1 24.127 54.398 Q 24 53.294 24 52 A 23.85 23.85 0 0 1 24.054 50.345 Q 24.147 49.013 24.4 48 L 21.4 48 A 13.936 13.936 0 0 1 21.127 46.398 Q 21 45.294 21 44 A 23.85 23.85 0 0 1 21.054 42.345 Q 21.147 41.013 21.4 40 L 19.4 40 A 13.936 13.936 0 0 1 19.127 38.398 Q 19 37.294 19 36 A 23.85 23.85 0 0 1 19.054 34.345 Q 19.147 33.013 19.4 32 L 13.4 32 A 11.741 11.741 0 0 1 13.644 33.313 Q 13.737 34.018 13.774 34.833 A 25.306 25.306 0 0 1 13.8 36 Q 13.8 37.968 13.507 39.496 A 12.311 12.311 0 0 1 13.4 40 L 11.4 40 A 11.741 11.741 0 0 1 11.644 41.313 Q 11.737 42.018 11.774 42.833 A 25.306 25.306 0 0 1 11.8 44 Q 11.8 45.968 11.507 47.496 A 12.311 12.311 0 0 1 11.4 48 L 8.4 48 A 11.741 11.741 0 0 1 8.644 49.313 Q 8.737 50.018 8.774 50.833 A 25.306 25.306 0 0 1 8.8 52 Q 8.8 53.968 8.507 55.496 A 12.311 12.311 0 0 1 8.4 56 L 0.4 56 A 13.936 13.936 0 0 1 0.127 54.398 Q 0 53.294 0 52 A 23.85 23.85 0 0 1 0.054 50.345 Q 0.147 49.013 0.4 48 L 3.4 48 A 13.936 13.936 0 0 1 3.127 46.398 Q 3 45.294 3 44 A 23.85 23.85 0 0 1 3.054 42.345 Q 3.147 41.013 3.4 40 L 7.4 40 A 13.936 13.936 0 0 1 7.127 38.398 Q 7 37.294 7 36 A 23.85 23.85 0 0 1 7.054 34.345 Q 7.147 33.013 7.4 32 L 10.4 32 A 13.936 13.936 0 0 1 10.127 30.398 Q 10 29.294 10 28 A 23.85 23.85 0 0 1 10.054 26.345 Q 10.147 25.013 10.4 24 L 7.4 24 A 13.936 13.936 0 0 1 7.127 22.398 Q 7 21.294 7 20 A 23.85 23.85 0 0 1 7.054 18.345 Q 7.147 17.013 7.4 16 L 3.4 16 A 13.936 13.936 0 0 1 3.127 14.398 Q 3 13.294 3 12 A 23.85 23.85 0 0 1 3.054 10.345 Q 3.147 9.013 3.4 8 L 0.4 8 A 13.936 13.936 0 0 1 0.127 6.398 Q 0 5.294 0 4 A 23.85 23.85 0 0 1 0.054 2.345 Q 0.147 1.013 0.4 0 L 8.4 0 A 11.741 11.741 0 0 1 8.644 1.313 Q 8.737 2.018 8.774 2.833 A 25.306 25.306 0 0 1 8.8 4 Q 8.8 5.968 8.507 7.496 A 12.311 12.311 0 0 1 8.4 8 L 11.4 8 A 11.741 11.741 0 0 1 11.644 9.313 Q 11.737 10.018 11.774 10.833 A 25.306 25.306 0 0 1 11.8 12 Q 11.8 13.968 11.507 15.496 A 12.311 12.311 0 0 1 11.4 16 L 13.4 16 A 11.741 11.741 0 0 1 13.644 17.313 Q 13.737 18.018 13.774 18.833 A 25.306 25.306 0 0 1 13.8 20 Q 13.8 21.968 13.507 23.496 A 12.311 12.311 0 0 1 13.4 24 L 19.4 24 A 13.936 13.936 0 0 1 19.127 22.398 Q 19 21.294 19 20 A 23.85 23.85 0 0 1 19.054 18.345 Q 19.147 17.013 19.4 16 L 21.4 16 A 13.936 13.936 0 0 1 21.127 14.398 Q 21 13.294 21 12 A 23.85 23.85 0 0 1 21.054 10.345 Q 21.147 9.013 21.4 8 L 24.4 8 A 13.936 13.936 0 0 1 24.127 6.398 Q 24 5.294 24 4 A 23.85 23.85 0 0 1 24.054 2.345 Q 24.147 1.013 24.4 0 L 32.4 0 Q 32.698 1.194 32.774 2.833 A 25.306 25.306 0 0 1 32.8 4 Q 32.8 5.968 32.507 7.496 A 12.311 12.311 0 0 1 32.4 8 L 29.4 8 A 11.741 11.741 0 0 1 29.644 9.313 Q 29.737 10.018 29.774 10.833 A 25.306 25.306 0 0 1 29.8 12 Q 29.8 13.968 29.507 15.496 A 12.311 12.311 0 0 1 29.4 16 L 25.4 16 Q 25.698 17.194 25.774 18.833 A 25.306 25.306 0 0 1 25.8 20 Q 25.8 21.968 25.507 23.496 A 12.311 12.311 0 0 1 25.4 24 L 22.4 24 Q 22.698 25.194 22.774 26.833 A 25.306 25.306 0 0 1 22.8 28 Q 22.8 29.968 22.507 31.496 A 12.311 12.311 0 0 1 22.4 32 L 25.4 32 Q 25.698 33.194 25.774 34.833 A 25.306 25.306 0 0 1 25.8 36 Q 25.8 37.968 25.507 39.496 A 12.311 12.311 0 0 1 25.4 40 L 29.4 40 A 11.741 11.741 0 0 1 29.644 41.313 Q 29.737 42.018 29.774 42.833 A 25.306 25.306 0 0 1 29.8 44 Q 29.8 45.968 29.507 47.496 A 12.311 12.311 0 0 1 29.4 48 Z M 232.4 48 L 228.4 48 A 11.741 11.741 0 0 1 228.644 49.313 Q 228.737 50.018 228.774 50.833 A 25.306 25.306 0 0 1 228.8 52 Q 228.8 53.968 228.507 55.496 A 12.311 12.311 0 0 1 228.4 56 L 204.4 56 A 13.936 13.936 0 0 1 204.127 54.398 Q 204 53.294 204 52 A 23.85 23.85 0 0 1 204.054 50.345 Q 204.147 49.013 204.4 48 L 200.4 48 A 13.936 13.936 0 0 1 200.127 46.398 Q 200 45.294 200 44 A 23.85 23.85 0 0 1 200.054 42.345 Q 200.147 41.013 200.4 40 L 208.4 40 A 11.741 11.741 0 0 1 208.644 41.313 Q 208.737 42.018 208.774 42.833 A 25.306 25.306 0 0 1 208.8 44 Q 208.8 45.968 208.507 47.496 A 12.311 12.311 0 0 1 208.4 48 L 224.4 48 A 13.936 13.936 0 0 1 224.127 46.398 Q 224 45.294 224 44 A 23.85 23.85 0 0 1 224.054 42.345 Q 224.147 41.013 224.4 40 A 13.936 13.936 0 0 1 224.127 38.398 Q 224 37.294 224 36 A 23.85 23.85 0 0 1 224.054 34.345 Q 224.147 33.013 224.4 32 L 204.4 32 A 13.936 13.936 0 0 1 204.127 30.398 Q 204 29.294 204 28 A 23.85 23.85 0 0 1 204.054 26.345 Q 204.147 25.013 204.4 24 L 200.4 24 A 13.936 13.936 0 0 1 200.127 22.398 Q 200 21.294 200 20 A 23.85 23.85 0 0 1 200.054 18.345 Q 200.147 17.013 200.4 16 A 13.936 13.936 0 0 1 200.127 14.398 Q 200 13.294 200 12 A 23.85 23.85 0 0 1 200.054 10.345 Q 200.147 9.013 200.4 8 L 204.4 8 A 13.936 13.936 0 0 1 204.127 6.398 Q 204 5.294 204 4 A 23.85 23.85 0 0 1 204.054 2.345 Q 204.147 1.013 204.4 0 L 228.4 0 A 11.741 11.741 0 0 1 228.644 1.313 Q 228.737 2.018 228.774 2.833 A 25.306 25.306 0 0 1 228.8 4 Q 228.8 5.968 228.507 7.496 A 12.311 12.311 0 0 1 228.4 8 L 232.4 8 Q 232.698 9.194 232.774 10.833 A 25.306 25.306 0 0 1 232.8 12 Q 232.8 13.968 232.507 15.496 A 12.311 12.311 0 0 1 232.4 16 L 224.4 16 A 13.936 13.936 0 0 1 224.127 14.398 Q 224 13.294 224 12 A 23.85 23.85 0 0 1 224.054 10.345 Q 224.147 9.013 224.4 8 L 208.4 8 A 11.741 11.741 0 0 1 208.644 9.313 Q 208.737 10.018 208.774 10.833 A 25.306 25.306 0 0 1 208.8 12 Q 208.8 13.968 208.507 15.496 A 12.311 12.311 0 0 1 208.4 16 A 11.741 11.741 0 0 1 208.644 17.313 Q 208.737 18.018 208.774 18.833 A 25.306 25.306 0 0 1 208.8 20 Q 208.8 21.968 208.507 23.496 A 12.311 12.311 0 0 1 208.4 24 L 228.4 24 A 11.741 11.741 0 0 1 228.644 25.313 Q 228.737 26.018 228.774 26.833 A 25.306 25.306 0 0 1 228.8 28 Q 228.8 29.968 228.507 31.496 A 12.311 12.311 0 0 1 228.4 32 L 232.4 32 Q 232.698 33.194 232.774 34.833 A 25.306 25.306 0 0 1 232.8 36 Q 232.8 37.968 232.507 39.496 A 12.311 12.311 0 0 1 232.4 40 Q 232.698 41.194 232.774 42.833 A 25.306 25.306 0 0 1 232.8 44 Q 232.8 45.968 232.507 47.496 A 12.311 12.311 0 0 1 232.4 48 Z M 420.4 48 A 13.936 13.936 0 0 1 420.127 46.398 Q 420 45.294 420 44 A 23.85 23.85 0 0 1 420.054 42.345 Q 420.147 41.013 420.4 40 L 424.4 40 A 13.936 13.936 0 0 1 424.127 38.398 Q 424 37.294 424 36 A 23.85 23.85 0 0 1 424.054 34.345 Q 424.147 33.013 424.4 32 A 13.936 13.936 0 0 1 424.127 30.398 Q 424 29.294 424 28 A 23.85 23.85 0 0 1 424.054 26.345 Q 424.147 25.013 424.4 24 L 411.4 24 A 11.741 11.741 0 0 1 411.644 25.313 Q 411.737 26.018 411.774 26.833 A 25.306 25.306 0 0 1 411.8 28 Q 411.8 29.968 411.507 31.496 A 12.311 12.311 0 0 1 411.4 32 L 408.4 32 A 11.741 11.741 0 0 1 408.644 33.313 Q 408.737 34.018 408.774 34.833 A 25.306 25.306 0 0 1 408.8 36 Q 408.8 37.968 408.507 39.496 A 12.311 12.311 0 0 1 408.4 40 L 411.4 40 A 11.741 11.741 0 0 1 411.644 41.313 Q 411.737 42.018 411.774 42.833 A 25.306 25.306 0 0 1 411.8 44 Q 411.8 45.968 411.507 47.496 A 12.311 12.311 0 0 1 411.4 48 L 420.4 48 L 424.4 48 Q 424.147 49.013 424.054 50.345 A 23.85 23.85 0 0 0 424 52 Q 424 53.294 424.127 54.398 A 13.936 13.936 0 0 0 424.4 56 L 420.4 56 Q 420.147 57.013 420.054 58.345 A 23.85 23.85 0 0 0 420 60 Q 420 61.294 420.127 62.398 A 13.936 13.936 0 0 0 420.4 64 L 408.4 64 Q 408.147 65.013 408.054 66.345 A 23.85 23.85 0 0 0 408 68 Q 408 69.294 408.127 70.398 A 13.936 13.936 0 0 0 408.4 72 L 424.4 72 A 12.311 12.311 0 0 0 424.507 71.496 Q 424.8 69.968 424.8 68 A 25.306 25.306 0 0 0 424.774 66.833 Q 424.698 65.194 424.4 64 L 428.4 64 A 12.311 12.311 0 0 0 428.507 63.496 Q 428.8 61.968 428.8 60 A 25.306 25.306 0 0 0 428.774 58.833 Q 428.737 58.018 428.644 57.313 A 11.741 11.741 0 0 0 428.4 56 L 432.4 56 A 12.311 12.311 0 0 0 432.507 55.496 Q 432.8 53.968 432.8 52 A 25.306 25.306 0 0 0 432.774 50.833 Q 432.698 49.194 432.4 48 A 12.311 12.311 0 0 0 432.507 47.496 Q 432.8 45.968 432.8 44 A 25.306 25.306 0 0 0 432.774 42.833 Q 432.698 41.194 432.4 40 A 12.311 12.311 0 0 0 432.507 39.496 Q 432.8 37.968 432.8 36 A 25.306 25.306 0 0 0 432.774 34.833 Q 432.698 33.194 432.4 32 A 12.311 12.311 0 0 0 432.507 31.496 Q 432.8 29.968 432.8 28 A 25.306 25.306 0 0 0 432.774 26.833 Q 432.698 25.194 432.4 24 A 12.311 12.311 0 0 0 432.507 23.496 Q 432.8 21.968 432.8 20 A 25.306 25.306 0 0 0 432.774 18.833 Q 432.698 17.194 432.4 16 L 408.4 16 Q 408.147 17.013 408.054 18.345 A 23.85 23.85 0 0 0 408 20 Q 408 21.294 408.127 22.398 A 13.936 13.936 0 0 0 408.4 24 L 403.4 24 Q 403.147 25.013 403.054 26.345 A 23.85 23.85 0 0 0 403 28 Q 403 29.294 403.127 30.398 A 13.936 13.936 0 0 0 403.4 32 L 400.4 32 Q 400.147 33.013 400.054 34.345 A 23.85 23.85 0 0 0 400 36 Q 400 37.294 400.127 38.398 A 13.936 13.936 0 0 0 400.4 40 L 403.4 40 Q 403.147 41.013 403.054 42.345 A 23.85 23.85 0 0 0 403 44 Q 403 45.294 403.127 46.398 A 13.936 13.936 0 0 0 403.4 48 L 408.4 48 Q 408.147 49.013 408.054 50.345 A 23.85 23.85 0 0 0 408 52 Q 408 53.294 408.127 54.398 A 13.936 13.936 0 0 0 408.4 56 L 420.4 56 Q 420.147 57.013 420.054 58.345 M 488.4 24 L 491.4 24 L 504.4 24 Q 504.147 25.013 504.054 26.345 A 23.85 23.85 0 0 0 504 28 Q 504 29.294 504.127 30.398 A 13.936 13.936 0 0 0 504.4 32 Q 504.147 33.013 504.054 34.345 A 23.85 23.85 0 0 0 504 36 Q 504 37.294 504.127 38.398 A 13.936 13.936 0 0 0 504.4 40 Q 504.147 41.013 504.054 42.345 A 23.85 23.85 0 0 0 504 44 Q 504 45.294 504.127 46.398 A 13.936 13.936 0 0 0 504.4 48 Q 504.147 49.013 504.054 50.345 A 23.85 23.85 0 0 0 504 52 Q 504 53.294 504.127 54.398 A 13.936 13.936 0 0 0 504.4 56 L 512.4 56 A 12.311 12.311 0 0 0 512.507 55.496 Q 512.8 53.968 512.8 52 A 25.306 25.306 0 0 0 512.774 50.833 Q 512.698 49.194 512.4 48 A 12.311 12.311 0 0 0 512.507 47.496 Q 512.8 45.968 512.8 44 A 25.306 25.306 0 0 0 512.774 42.833 Q 512.698 41.194 512.4 40 A 12.311 12.311 0 0 0 512.507 39.496 Q 512.8 37.968 512.8 36 A 25.306 25.306 0 0 0 512.774 34.833 Q 512.698 33.194 512.4 32 A 12.311 12.311 0 0 0 512.507 31.496 Q 512.8 29.968 512.8 28 A 25.306 25.306 0 0 0 512.774 26.833 Q 512.698 25.194 512.4 24 L 507.4 24 A 12.311 12.311 0 0 0 507.507 23.496 Q 507.8 21.968 507.8 20 A 25.306 25.306 0 0 0 507.774 18.833 Q 507.698 17.194 507.4 16 L 491.4 16 Q 491.147 17.013 491.054 18.345 A 23.85 23.85 0 0 0 491 20 Q 491 21.294 491.127 22.398 A 13.936 13.936 0 0 0 491.4 24 A 11.741 11.741 0 0 1 491.644 25.313 Q 491.737 26.018 491.774 26.833 A 25.306 25.306 0 0 1 491.8 28 Q 491.8 29.968 491.507 31.496 A 12.311 12.311 0 0 1 491.4 32 L 488.4 32 A 11.741 11.741 0 0 1 488.644 33.313 Q 488.737 34.018 488.774 34.833 A 25.306 25.306 0 0 1 488.8 36 Q 488.8 37.968 488.507 39.496 A 12.311 12.311 0 0 1 488.4 40 A 11.741 11.741 0 0 1 488.644 41.313 Q 488.737 42.018 488.774 42.833 A 25.306 25.306 0 0 1 488.8 44 Q 488.8 45.968 488.507 47.496 A 12.311 12.311 0 0 1 488.4 48 A 11.741 11.741 0 0 1 488.644 49.313 Q 488.737 50.018 488.774 50.833 A 25.306 25.306 0 0 1 488.8 52 Q 488.8 53.968 488.507 55.496 A 12.311 12.311 0 0 1 488.4 56 L 480.4 56 A 13.936 13.936 0 0 1 480.127 54.398 Q 480 53.294 480 52 A 23.85 23.85 0 0 1 480.054 50.345 Q 480.147 49.013 480.4 48 A 13.936 13.936 0 0 1 480.127 46.398 Q 480 45.294 480 44 A 23.85 23.85 0 0 1 480.054 42.345 Q 480.147 41.013 480.4 40 A 13.936 13.936 0 0 1 480.127 38.398 Q 480 37.294 480 36 A 23.85 23.85 0 0 1 480.054 34.345 Q 480.147 33.013 480.4 32 A 13.936 13.936 0 0 1 480.127 30.398 Q 480 29.294 480 28 A 23.85 23.85 0 0 1 480.054 26.345 Q 480.147 25.013 480.4 24 A 13.936 13.936 0 0 1 480.127 22.398 Q 480 21.294 480 20 A 23.85 23.85 0 0 1 480.054 18.345 Q 480.147 17.013 480.4 16 A 13.936 13.936 0 0 1 480.127 14.398 Q 480 13.294 480 12 A 23.85 23.85 0 0 1 480.054 10.345 Q 480.147 9.013 480.4 8 A 13.936 13.936 0 0 1 480.127 6.398 Q 480 5.294 480 4 A 23.85 23.85 0 0 1 480.054 2.345 Q 480.147 1.013 480.4 0 L 488.4 0 A 11.741 11.741 0 0 1 488.644 1.313 Q 488.737 2.018 488.774 2.833 A 25.306 25.306 0 0 1 488.8 4 Q 488.8 5.968 488.507 7.496 A 12.311 12.311 0 0 1 488.4 8 A 11.741 11.741 0 0 1 488.644 9.313 Q 488.737 10.018 488.774 10.833 A 25.306 25.306 0 0 1 488.8 12 Q 488.8 13.968 488.507 15.496 A 12.311 12.311 0 0 1 488.4 16 A 11.741 11.741 0 0 1 488.644 17.313 Q 488.737 18.018 488.774 18.833 A 25.306 25.306 0 0 1 488.8 20 Q 488.8 21.968 488.507 23.496 A 12.311 12.311 0 0 1 488.4 24 Z M 367.4 24 L 371.4 24 L 384.4 24 Q 384.147 25.013 384.054 26.345 A 23.85 23.85 0 0 0 384 28 Q 384 29.294 384.127 30.398 A 13.936 13.936 0 0 0 384.4 32 Q 384.147 33.013 384.054 34.345 A 23.85 23.85 0 0 0 384 36 Q 384 37.294 384.127 38.398 A 13.936 13.936 0 0 0 384.4 40 Q 384.147 41.013 384.054 42.345 A 23.85 23.85 0 0 0 384 44 Q 384 45.294 384.127 46.398 A 13.936 13.936 0 0 0 384.4 48 Q 384.147 49.013 384.054 50.345 A 23.85 23.85 0 0 0 384 52 Q 384 53.294 384.127 54.398 A 13.936 13.936 0 0 0 384.4 56 L 392.4 56 A 12.311 12.311 0 0 0 392.507 55.496 Q 392.8 53.968 392.8 52 A 25.306 25.306 0 0 0 392.774 50.833 Q 392.698 49.194 392.4 48 A 12.311 12.311 0 0 0 392.507 47.496 Q 392.8 45.968 392.8 44 A 25.306 25.306 0 0 0 392.774 42.833 Q 392.698 41.194 392.4 40 A 12.311 12.311 0 0 0 392.507 39.496 Q 392.8 37.968 392.8 36 A 25.306 25.306 0 0 0 392.774 34.833 Q 392.698 33.194 392.4 32 A 12.311 12.311 0 0 0 392.507 31.496 Q 392.8 29.968 392.8 28 A 25.306 25.306 0 0 0 392.774 26.833 Q 392.698 25.194 392.4 24 L 387.4 24 A 12.311 12.311 0 0 0 387.507 23.496 Q 387.8 21.968 387.8 20 A 25.306 25.306 0 0 0 387.774 18.833 Q 387.698 17.194 387.4 16 L 371.4 16 Q 371.147 17.013 371.054 18.345 A 23.85 23.85 0 0 0 371 20 Q 371 21.294 371.127 22.398 A 13.936 13.936 0 0 0 371.4 24 A 11.741 11.741 0 0 1 371.644 25.313 Q 371.737 26.018 371.774 26.833 A 25.306 25.306 0 0 1 371.8 28 Q 371.8 29.968 371.507 31.496 A 12.311 12.311 0 0 1 371.4 32 L 368.4 32 A 11.741 11.741 0 0 1 368.644 33.313 Q 368.737 34.018 368.774 34.833 A 25.306 25.306 0 0 1 368.8 36 Q 368.8 37.968 368.507 39.496 A 12.311 12.311 0 0 1 368.4 40 A 11.741 11.741 0 0 1 368.644 41.313 Q 368.737 42.018 368.774 42.833 A 25.306 25.306 0 0 1 368.8 44 Q 368.8 45.968 368.507 47.496 A 12.311 12.311 0 0 1 368.4 48 A 11.741 11.741 0 0 1 368.644 49.313 Q 368.737 50.018 368.774 50.833 A 25.306 25.306 0 0 1 368.8 52 Q 368.8 53.968 368.507 55.496 A 12.311 12.311 0 0 1 368.4 56 L 360.4 56 A 13.936 13.936 0 0 1 360.127 54.398 Q 360 53.294 360 52 A 23.85 23.85 0 0 1 360.054 50.345 Q 360.147 49.013 360.4 48 A 13.936 13.936 0 0 1 360.127 46.398 Q 360 45.294 360 44 A 23.85 23.85 0 0 1 360.054 42.345 Q 360.147 41.013 360.4 40 A 13.936 13.936 0 0 1 360.127 38.398 Q 360 37.294 360 36 A 23.85 23.85 0 0 1 360.054 34.345 Q 360.147 33.013 360.4 32 A 13.936 13.936 0 0 1 360.127 30.398 Q 360 29.294 360 28 A 23.85 23.85 0 0 1 360.054 26.345 Q 360.147 25.013 360.4 24 A 13.936 13.936 0 0 1 360.127 22.398 Q 360 21.294 360 20 A 23.85 23.85 0 0 1 360.054 18.345 Q 360.147 17.013 360.4 16 L 367.4 16 A 11.741 11.741 0 0 1 367.644 17.313 Q 367.737 18.018 367.774 18.833 A 25.306 25.306 0 0 1 367.8 20 Q 367.8 21.968 367.507 23.496 A 12.311 12.311 0 0 1 367.4 24 Z M 312.4 32 L 304.4 32 A 13.936 13.936 0 0 1 304.127 30.398 Q 304 29.294 304 28 A 23.85 23.85 0 0 1 304.054 26.345 Q 304.147 25.013 304.4 24 L 297.4 24 Q 297.698 25.194 297.774 26.833 A 25.306 25.306 0 0 1 297.8 28 Q 297.8 29.968 297.507 31.496 A 12.311 12.311 0 0 1 297.4 32 L 294.4 32 A 11.741 11.741 0 0 1 294.644 33.313 Q 294.737 34.018 294.774 34.833 A 25.306 25.306 0 0 1 294.8 36 Q 294.8 37.968 294.507 39.496 A 12.311 12.311 0 0 1 294.4 40 A 11.741 11.741 0 0 1 294.644 41.313 Q 294.737 42.018 294.774 42.833 A 25.306 25.306 0 0 1 294.8 44 Q 294.8 45.968 294.507 47.496 A 12.311 12.311 0 0 1 294.4 48 L 300.4 48 Q 300.698 49.194 300.774 50.833 A 25.306 25.306 0 0 1 300.8 52 Q 300.8 53.968 300.507 55.496 A 12.311 12.311 0 0 1 300.4 56 L 280.4 56 A 13.936 13.936 0 0 1 280.127 54.398 Q 280 53.294 280 52 A 23.85 23.85 0 0 1 280.054 50.345 Q 280.147 49.013 280.4 48 L 286.4 48 A 13.936 13.936 0 0 1 286.127 46.398 Q 286 45.294 286 44 A 23.85 23.85 0 0 1 286.054 42.345 Q 286.147 41.013 286.4 40 A 13.936 13.936 0 0 1 286.127 38.398 Q 286 37.294 286 36 A 23.85 23.85 0 0 1 286.054 34.345 Q 286.147 33.013 286.4 32 A 13.936 13.936 0 0 1 286.127 30.398 Q 286 29.294 286 28 A 23.85 23.85 0 0 1 286.054 26.345 Q 286.147 25.013 286.4 24 L 280.4 24 A 13.936 13.936 0 0 1 280.127 22.398 Q 280 21.294 280 20 A 23.85 23.85 0 0 1 280.054 18.345 Q 280.147 17.013 280.4 16 L 290.4 16 A 11.741 11.741 0 0 1 290.644 17.313 Q 290.737 18.018 290.774 18.833 A 25.306 25.306 0 0 1 290.8 20 Q 290.8 21.968 290.507 23.496 A 12.311 12.311 0 0 1 290.4 24 L 294.4 24 A 13.936 13.936 0 0 1 294.127 22.398 Q 294 21.294 294 20 A 23.85 23.85 0 0 1 294.054 18.345 Q 294.147 17.013 294.4 16 L 309.4 16 A 11.741 11.741 0 0 1 309.644 17.313 Q 309.737 18.018 309.774 18.833 A 25.306 25.306 0 0 1 309.8 20 Q 309.8 21.968 309.507 23.496 A 12.311 12.311 0 0 1 309.4 24 L 312.4 24 Q 312.698 25.194 312.774 26.833 A 25.306 25.306 0 0 1 312.8 28 Q 312.8 29.968 312.507 31.496 A 12.311 12.311 0 0 1 312.4 32 Z M 256.4 48 L 268.4 48 A 11.741 11.741 0 0 1 268.644 49.313 Q 268.737 50.018 268.774 50.833 A 25.306 25.306 0 0 1 268.8 52 Q 268.8 53.968 268.507 55.496 A 12.311 12.311 0 0 1 268.4 56 L 252.4 56 A 13.936 13.936 0 0 1 252.127 54.398 Q 252 53.294 252 52 A 23.85 23.85 0 0 1 252.054 50.345 Q 252.147 49.013 252.4 48 L 248.4 48 A 13.936 13.936 0 0 1 248.127 46.398 Q 248 45.294 248 44 A 23.85 23.85 0 0 1 248.054 42.345 Q 248.147 41.013 248.4 40 A 13.936 13.936 0 0 1 248.127 38.398 Q 248 37.294 248 36 A 23.85 23.85 0 0 1 248.054 34.345 Q 248.147 33.013 248.4 32 A 13.936 13.936 0 0 1 248.127 30.398 Q 248 29.294 248 28 A 23.85 23.85 0 0 1 248.054 26.345 Q 248.147 25.013 248.4 24 L 240.4 24 A 13.936 13.936 0 0 1 240.127 22.398 Q 240 21.294 240 20 A 23.85 23.85 0 0 1 240.054 18.345 Q 240.147 17.013 240.4 16 L 248.4 16 A 13.936 13.936 0 0 1 248.127 14.398 Q 248 13.294 248 12 A 23.85 23.85 0 0 1 248.054 10.345 Q 248.147 9.013 248.4 8 A 13.936 13.936 0 0 1 248.127 6.398 Q 248 5.294 248 4 A 23.85 23.85 0 0 1 248.054 2.345 Q 248.147 1.013 248.4 0 L 256.4 0 Q 256.698 1.194 256.774 2.833 A 25.306 25.306 0 0 1 256.8 4 Q 256.8 5.968 256.507 7.496 A 12.311 12.311 0 0 1 256.4 8 Q 256.698 9.194 256.774 10.833 A 25.306 25.306 0 0 1 256.8 12 Q 256.8 13.968 256.507 15.496 A 12.311 12.311 0 0 1 256.4 16 L 268.4 16 A 11.741 11.741 0 0 1 268.644 17.313 Q 268.737 18.018 268.774 18.833 A 25.306 25.306 0 0 1 268.8 20 Q 268.8 21.968 268.507 23.496 A 12.311 12.311 0 0 1 268.4 24 L 256.4 24 Q 256.698 25.194 256.774 26.833 A 25.306 25.306 0 0 1 256.8 28 Q 256.8 29.968 256.507 31.496 A 12.311 12.311 0 0 1 256.4 32 Q 256.698 33.194 256.774 34.833 A 25.306 25.306 0 0 1 256.8 36 Q 256.8 37.968 256.507 39.496 A 12.311 12.311 0 0 1 256.4 40 Q 256.698 41.194 256.774 42.833 A 25.306 25.306 0 0 1 256.8 44 Q 256.8 45.968 256.507 47.496 A 12.311 12.311 0 0 1 256.4 48 Z M 456.4 48 L 468.4 48 A 11.741 11.741 0 0 1 468.644 49.313 Q 468.737 50.018 468.774 50.833 A 25.306 25.306 0 0 1 468.8 52 Q 468.8 53.968 468.507 55.496 A 12.311 12.311 0 0 1 468.4 56 L 452.4 56 A 13.936 13.936 0 0 1 452.127 54.398 Q 452 53.294 452 52 A 23.85 23.85 0 0 1 452.054 50.345 Q 452.147 49.013 452.4 48 L 448.4 48 A 13.936 13.936 0 0 1 448.127 46.398 Q 448 45.294 448 44 A 23.85 23.85 0 0 1 448.054 42.345 Q 448.147 41.013 448.4 40 A 13.936 13.936 0 0 1 448.127 38.398 Q 448 37.294 448 36 A 23.85 23.85 0 0 1 448.054 34.345 Q 448.147 33.013 448.4 32 A 13.936 13.936 0 0 1 448.127 30.398 Q 448 29.294 448 28 A 23.85 23.85 0 0 1 448.054 26.345 Q 448.147 25.013 448.4 24 L 440.4 24 A 13.936 13.936 0 0 1 440.127 22.398 Q 440 21.294 440 20 A 23.85 23.85 0 0 1 440.054 18.345 Q 440.147 17.013 440.4 16 L 448.4 16 A 13.936 13.936 0 0 1 448.127 14.398 Q 448 13.294 448 12 A 23.85 23.85 0 0 1 448.054 10.345 Q 448.147 9.013 448.4 8 A 13.936 13.936 0 0 1 448.127 6.398 Q 448 5.294 448 4 A 23.85 23.85 0 0 1 448.054 2.345 Q 448.147 1.013 448.4 0 L 456.4 0 Q 456.698 1.194 456.774 2.833 A 25.306 25.306 0 0 1 456.8 4 Q 456.8 5.968 456.507 7.496 A 12.311 12.311 0 0 1 456.4 8 Q 456.698 9.194 456.774 10.833 A 25.306 25.306 0 0 1 456.8 12 Q 456.8 13.968 456.507 15.496 A 12.311 12.311 0 0 1 456.4 16 L 468.4 16 A 11.741 11.741 0 0 1 468.644 17.313 Q 468.737 18.018 468.774 18.833 A 25.306 25.306 0 0 1 468.8 20 Q 468.8 21.968 468.507 23.496 A 12.311 12.311 0 0 1 468.4 24 L 456.4 24 Q 456.698 25.194 456.774 26.833 A 25.306 25.306 0 0 1 456.8 28 Q 456.8 29.968 456.507 31.496 A 12.311 12.311 0 0 1 456.4 32 Q 456.698 33.194 456.774 34.833 A 25.306 25.306 0 0 1 456.8 36 Q 456.8 37.968 456.507 39.496 A 12.311 12.311 0 0 1 456.4 40 Q 456.698 41.194 456.774 42.833 A 25.306 25.306 0 0 1 456.8 44 Q 456.8 45.968 456.507 47.496 A 12.311 12.311 0 0 1 456.4 48 Z M 352.4 40 L 331.4 40 A 11.741 11.741 0 0 1 331.644 41.313 Q 331.737 42.018 331.774 42.833 A 25.306 25.306 0 0 1 331.8 44 Q 331.8 45.968 331.507 47.496 A 12.311 12.311 0 0 1 331.4 48 L 348.4 48 A 11.741 11.741 0 0 1 348.644 49.313 Q 348.737 50.018 348.774 50.833 A 25.306 25.306 0 0 1 348.8 52 Q 348.8 53.968 348.507 55.496 A 12.311 12.311 0 0 1 348.4 56 L 328.4 56 A 13.936 13.936 0 0 1 328.127 54.398 Q 328 53.294 328 52 A 23.85 23.85 0 0 1 328.054 50.345 Q 328.147 49.013 328.4 48 L 323.4 48 A 13.936 13.936 0 0 1 323.127 46.398 Q 323 45.294 323 44 A 23.85 23.85 0 0 1 323.054 42.345 Q 323.147 41.013 323.4 40 L 320.4 40 A 13.936 13.936 0 0 1 320.127 38.398 Q 320 37.294 320 36 A 23.85 23.85 0 0 1 320.054 34.345 Q 320.147 33.013 320.4 32 L 323.4 32 A 13.936 13.936 0 0 1 323.127 30.398 Q 323 29.294 323 28 A 23.85 23.85 0 0 1 323.054 26.345 Q 323.147 25.013 323.4 24 L 328.4 24 A 13.936 13.936 0 0 1 328.127 22.398 Q 328 21.294 328 20 A 23.85 23.85 0 0 1 328.054 18.345 Q 328.147 17.013 328.4 16 L 348.4 16 A 11.741 11.741 0 0 1 348.644 17.313 Q 348.737 18.018 348.774 18.833 A 25.306 25.306 0 0 1 348.8 20 Q 348.8 21.968 348.507 23.496 A 12.311 12.311 0 0 1 348.4 24 L 352.4 24 Q 352.698 25.194 352.774 26.833 A 25.306 25.306 0 0 1 352.8 28 Q 352.8 29.968 352.507 31.496 A 12.311 12.311 0 0 1 352.4 32 Q 352.698 33.194 352.774 34.833 A 25.306 25.306 0 0 1 352.8 36 Q 352.8 37.968 352.507 39.496 A 12.311 12.311 0 0 1 352.4 40 Z M 60.4 48 L 66.4 48 Q 66.698 49.194 66.774 50.833 A 25.306 25.306 0 0 1 66.8 52 Q 66.8 53.968 66.507 55.496 A 12.311 12.311 0 0 1 66.4 56 L 46.4 56 A 13.936 13.936 0 0 1 46.127 54.398 Q 46 53.294 46 52 A 23.85 23.85 0 0 1 46.054 50.345 Q 46.147 49.013 46.4 48 L 52.4 48 A 13.936 13.936 0 0 1 52.127 46.398 Q 52 45.294 52 44 A 23.85 23.85 0 0 1 52.054 42.345 Q 52.147 41.013 52.4 40 A 13.936 13.936 0 0 1 52.127 38.398 Q 52 37.294 52 36 A 23.85 23.85 0 0 1 52.054 34.345 Q 52.147 33.013 52.4 32 A 13.936 13.936 0 0 1 52.127 30.398 Q 52 29.294 52 28 A 23.85 23.85 0 0 1 52.054 26.345 Q 52.147 25.013 52.4 24 A 13.936 13.936 0 0 1 52.127 22.398 Q 52 21.294 52 20 A 23.85 23.85 0 0 1 52.054 18.345 Q 52.147 17.013 52.4 16 A 13.936 13.936 0 0 1 52.127 14.398 Q 52 13.294 52 12 A 23.85 23.85 0 0 1 52.054 10.345 Q 52.147 9.013 52.4 8 L 46.4 8 A 13.936 13.936 0 0 1 46.127 6.398 Q 46 5.294 46 4 A 23.85 23.85 0 0 1 46.054 2.345 Q 46.147 1.013 46.4 0 L 66.4 0 Q 66.698 1.194 66.774 2.833 A 25.306 25.306 0 0 1 66.8 4 Q 66.8 5.968 66.507 7.496 A 12.311 12.311 0 0 1 66.4 8 L 60.4 8 Q 60.698 9.194 60.774 10.833 A 25.306 25.306 0 0 1 60.8 12 Q 60.8 13.968 60.507 15.496 A 12.311 12.311 0 0 1 60.4 16 Q 60.698 17.194 60.774 18.833 A 25.306 25.306 0 0 1 60.8 20 Q 60.8 21.968 60.507 23.496 A 12.311 12.311 0 0 1 60.4 24 Q 60.698 25.194 60.774 26.833 A 25.306 25.306 0 0 1 60.8 28 Q 60.8 29.968 60.507 31.496 A 12.311 12.311 0 0 1 60.4 32 Q 60.698 33.194 60.774 34.833 A 25.306 25.306 0 0 1 60.8 36 Q 60.8 37.968 60.507 39.496 A 12.311 12.311 0 0 1 60.4 40 Q 60.698 41.194 60.774 42.833 A 25.306 25.306 0 0 1 60.8 44 Q 60.8 45.968 60.507 47.496 A 12.311 12.311 0 0 1 60.4 48 Z M 126.4 24 L 146.4 24 Q 146.698 25.194 146.774 26.833 A 25.306 25.306 0 0 1 146.8 28 Q 146.8 29.968 146.507 31.496 A 12.311 12.311 0 0 1 146.4 32 L 126.4 32 A 13.936 13.936 0 0 1 126.127 30.398 Q 126 29.294 126 28 A 23.85 23.85 0 0 1 126.054 26.345 Q 126.147 25.013 126.4 24 Z M 344.4 24 L 331.4 24 A 11.741 11.741 0 0 1 331.644 25.313 Q 331.737 26.018 331.774 26.833 A 25.306 25.306 0 0 1 331.8 28 Q 331.8 29.968 331.507 31.496 A 12.311 12.311 0 0 1 331.4 32 L 344.4 32 A 13.936 13.936 0 0 1 344.127 30.398 Q 344 29.294 344 28 A 23.85 23.85 0 0 1 344.054 26.345 Q 344.147 25.013 344.4 24 Z M 420.4 56 A 12.311 12.311 0 0 0 420.507 55.496 Q 420.8 53.968 420.8 52 A 25.306 25.306 0 0 0 420.774 50.833 Q 420.698 49.194 420.4 48" vector-effect="non-scaling-stroke"/></g></svg>