<svg width="792.8" height="72" viewBox="0 0 792.8 72" xmlns="http://www.w3.org/2000/svg"><g id="svgGroup" stroke-linecap="round" fill-rule="evenodd" font-size="9pt" stroke="#000" stroke-width="0.25mm" fill="#000" style="stroke:#000;stroke-width:0.25mm;fill:#000"><path d="M 712.4 56 L 704.4 56 A 13.936 13.936 0 0 1 704.127 54.398 Q 704 53.294 704 52 A 23.85 23.85 0 0 1 704.054 50.345 Q 704.147 49.013 704.4 48 A 13.936 13.936 0 0 1 704.127 46.398 Q 704 45.294 704 44 A 23.85 23.85 0 0 1 704.054 42.345 Q 704.147 41.013 704.4 40 A 13.936 13.936 0 0 1 704.127 38.398 Q 704 37.294 704 36 A 23.85 23.85 0 0 1 704.054 34.345 Q 704.147 33.013 704.4 32 A 13.936 13.936 0 0 1 704.127 30.398 Q 704 29.294 704 28 A 23.85 23.85 0 0 1 704.054 26.345 Q 704.147 25.013 704.4 24 A 13.936 13.936 0 0 1 704.127 22.398 Q 704 21.294 704 20 A 23.85 23.85 0 0 1 704.054 18.345 Q 704.147 17.013 704.4 16 L 701.4 16 Q 701.698 17.194 701.774 18.833 A 25.306 25.306 0 0 1 701.8 20 Q 701.8 21.968 701.507 23.496 A 12.311 12.311 0 0 1 701.4 24 Q 701.698 25.194 701.774 26.833 A 25.306 25.306 0 0 1 701.8 28 Q 701.8 29.968 701.507 31.496 A 12.311 12.311 0 0 1 701.4 32 L 699.4 32 Q 699.698 33.194 699.774 34.833 A 25.306 25.306 0 0 1 699.8 36 Q 699.8 37.968 699.507 39.496 A 12.311 12.311 0 0 1 699.4 40 Q 699.698 41.194 699.774 42.833 A 25.306 25.306 0 0 1 699.8 44 Q 699.8 45.968 699.507 47.496 A 12.311 12.311 0 0 1 699.4 48 L 693.4 48 A 13.936 13.936 0 0 1 693.127 46.398 Q 693 45.294 693 44 A 23.85 23.85 0 0 1 693.054 42.345 Q 693.147 41.013 693.4 40 A 13.936 13.936 0 0 1 693.127 38.398 Q 693 37.294 693 36 A 23.85 23.85 0 0 1 693.054 34.345 Q 693.147 33.013 693.4 32 L 691.4 32 A 13.936 13.936 0 0 1 691.127 30.398 Q 691 29.294 691 28 A 23.85 23.85 0 0 1 691.054 26.345 Q 691.147 25.013 691.4 24 A 13.936 13.936 0 0 1 691.127 22.398 Q 691 21.294 691 20 A 23.85 23.85 0 0 1 691.054 18.345 Q 691.147 17.013 691.4 16 L 688.4 16 A 11.741 11.741 0 0 1 688.644 17.313 Q 688.737 18.018 688.774 18.833 A 25.306 25.306 0 0 1 688.8 20 Q 688.8 21.968 688.507 23.496 A 12.311 12.311 0 0 1 688.4 24 A 11.741 11.741 0 0 1 688.644 25.313 Q 688.737 26.018 688.774 26.833 A 25.306 25.306 0 0 1 688.8 28 Q 688.8 29.968 688.507 31.496 A 12.311 12.311 0 0 1 688.4 32 A 11.741 11.741 0 0 1 688.644 33.313 Q 688.737 34.018 688.774 34.833 A 25.306 25.306 0 0 1 688.8 36 Q 688.8 37.968 688.507 39.496 A 12.311 12.311 0 0 1 688.4 40 A 11.741 11.741 0 0 1 688.644 41.313 Q 688.737 42.018 688.774 42.833 A 25.306 25.306 0 0 1 688.8 44 Q 688.8 45.968 688.507 47.496 A 12.311 12.311 0 0 1 688.4 48 A 11.741 11.741 0 0 1 688.644 49.313 Q 688.737 50.018 688.774 50.833 A 25.306 25.306 0 0 1 688.8 52 Q 688.8 53.968 688.507 55.496 A 12.311 12.311 0 0 1 688.4 56 L 680.4 56 A 13.936 13.936 0 0 1 680.127 54.398 Q 680 53.294 680 52 A 23.85 23.85 0 0 1 680.054 50.345 Q 680.147 49.013 680.4 48 A 13.936 13.936 0 0 1 680.127 46.398 Q 680 45.294 680 44 A 23.85 23.85 0 0 1 680.054 42.345 Q 680.147 41.013 680.4 40 A 13.936 13.936 0 0 1 680.127 38.398 Q 680 37.294 680 36 A 23.85 23.85 0 0 1 680.054 34.345 Q 680.147 33.013 680.4 32 A 13.936 13.936 0 0 1 680.127 30.398 Q 680 29.294 680 28 A 23.85 23.85 0 0 1 680.054 26.345 Q 680.147 25.013 680.4 24 A 13.936 13.936 0 0 1 680.127 22.398 Q 680 21.294 680 20 A 23.85 23.85 0 0 1 680.054 18.345 Q 680.147 17.013 680.4 16 A 13.936 13.936 0 0 1 680.127 14.398 Q 680 13.294 680 12 A 23.85 23.85 0 0 1 680.054 10.345 Q 680.147 9.013 680.4 8 A 13.936 13.936 0 0 1 680.127 6.398 Q 680 5.294 680 4 A 23.85 23.85 0 0 1 680.054 2.345 Q 680.147 1.013 680.4 0 L 690.4 0 A 11.741 11.741 0 0 1 690.644 1.313 Q 690.737 2.018 690.774 2.833 A 25.306 25.306 0 0 1 690.8 4 Q 690.8 5.968 690.507 7.496 A 12.311 12.311 0 0 1 690.4 8 L 693.4 8 A 11.741 11.741 0 0 1 693.644 9.313 Q 693.737 10.018 693.774 10.833 A 25.306 25.306 0 0 1 693.8 12 Q 693.8 13.968 693.507 15.496 A 12.311 12.311 0 0 1 693.4 16 L 694.9 16 Q 695.198 17.194 695.274 18.833 A 25.306 25.306 0 0 1 695.3 20 Q 695.3 21.968 695.007 23.496 A 12.311 12.311 0 0 1 694.9 24 L 697.9 24 A 13.936 13.936 0 0 1 697.627 22.398 Q 697.5 21.294 697.5 20 A 23.85 23.85 0 0 1 697.554 18.345 Q 697.647 17.013 697.9 16 L 699.4 16 A 13.936 13.936 0 0 1 699.127 14.398 Q 699 13.294 699 12 A 23.85 23.85 0 0 1 699.054 10.345 Q 699.147 9.013 699.4 8 L 702.4 8 A 13.936 13.936 0 0 1 702.127 6.398 Q 702 5.294 702 4 A 23.85 23.85 0 0 1 702.054 2.345 Q 702.147 1.013 702.4 0 L 712.4 0 Q 712.698 1.194 712.774 2.833 A 25.306 25.306 0 0 1 712.8 4 Q 712.8 5.968 712.507 7.496 A 12.311 12.311 0 0 1 712.4 8 Q 712.698 9.194 712.774 10.833 A 25.306 25.306 0 0 1 712.8 12 Q 712.8 13.968 712.507 15.496 A 12.311 12.311 0 0 1 712.4 16 Q 712.698 17.194 712.774 18.833 A 25.306 25.306 0 0 1 712.8 20 Q 712.8 21.968 712.507 23.496 A 12.311 12.311 0 0 1 712.4 24 Q 712.698 25.194 712.774 26.833 A 25.306 25.306 0 0 1 712.8 28 Q 712.8 29.968 712.507 31.496 A 12.311 12.311 0 0 1 712.4 32 Q 712.698 33.194 712.774 34.833 A 25.306 25.306 0 0 1 712.8 36 Q 712.8 37.968 712.507 39.496 A 12.311 12.311 0 0 1 712.4 40 Q 712.698 41.194 712.774 42.833 A 25.306 25.306 0 0 1 712.8 44 Q 712.8 45.968 712.507 47.496 A 12.311 12.311 0 0 1 712.4 48 Q 712.698 49.194 712.774 50.833 A 25.306 25.306 0 0 1 712.8 52 Q 712.8 53.968 712.507 55.496 A 12.311 12.311 0 0 1 712.4 56 Z M 29.4 48 L 32.4 48 Q 32.698 49.194 32.774 50.833 A 25.306 25.306 0 0 1 32.8 52 Q 32.8 53.968 32.507 55.496 A 12.311 12.311 0 0 1 32.4 56 L 24.4 56 A 13.936 13.936 0 0 1 24.127 54.398 Q 24 53.294 24 52 A 23.85 23.85 0 0 1 24.054 50.345 Q 24.147 49.013 24.4 48 L 21.4 48 A 13.936 13.936 0 0 1 21.127 46.398 Q 21 45.294 21 44 A 23.85 23.85 0 0 1 21.054 42.345 Q 21.147 41.013 21.4 40 L 19.4 40 A 13.936 13.936 0 0 1 19.127 38.398 Q 19 37.294 19 36 A 23.85 23.85 0 0 1 19.054 34.345 Q 19.147 33.013 19.4 32 L 13.4 32 A 11.741 11.741 0 0 1 13.644 33.313 Q 13.737 34.018 13.774 34.833 A 25.306 25.306 0 0 1 13.8 36 Q 13.8 37.968 13.507 39.496 A 12.311 12.311 0 0 1 13.4 40 L 11.4 40 A 11.741 11.741 0 0 1 11.644 41.313 Q 11.737 42.018 11.774 42.833 A 25.306 25.306 0 0 1 11.8 44 Q 11.8 45.968 11.507 47.496 A 12.311 12.311 0 0 1 11.4 48 L 8.4 48 A 11.741 11.741 0 0 1 8.644 49.313 Q 8.737 50.018 8.774 50.833 A 25.306 25.306 0 0 1 8.8 52 Q 8.8 53.968 8.507 55.496 A 12.311 12.311 0 0 1 8.4 56 L 0.4 56 A 13.936 13.936 0 0 1 0.127 54.398 Q 0 53.294 0 52 A 23.85 23.85 0 0 1 0.054 50.345 Q 0.147 49.013 0.4 48 L 3.4 48 A 13.936 13.936 0 0 1 3.127 46.398 Q 3 45.294 3 44 A 23.85 23.85 0 0 1 3.054 42.345 Q 3.147 41.013 3.4 40 L 7.4 40 A 13.936 13.936 0 0 1 7.127 38.398 Q 7 37.294 7 36 A 23.85 23.85 0 0 1 7.054 34.345 Q 7.147 33.013 7.4 32 L 10.4 32 A 13.936 13.936 0 0 1 10.127 30.398 Q 10 29.294 10 28 A 23.85 23.85 0 0 1 10.054 26.345 Q 10.147 25.013 10.4 24 L 7.4 24 A 13.936 13.936 0 0 1 7.127 22.398 Q 7 21.294 7 20 A 23.85 23.85 0 0 1 7.054 18.345 Q 7.147 17.013 7.4 16 L 3.4 16 A 13.936 13.936 0 0 1 3.127 14.398 Q 3 13.294 3 12 A 23.85 23.85 0 0 1 3.054 10.345 Q 3.147 9.013 3.4 8 L 0.4 8 A 13.936 13.936 0 0 1 0.127 6.398 Q 0 5.294 0 4 A 23.85 23.85 0 0 1 0.054 2.345 Q 0.147 1.013 0.4 0 L 8.4 0 A 11.741 11.741 0 0 1 8.644 1.313 Q 8.737 2.018 8.774 2.833 A 25.306 25.306 0 0 1 8.8 4 Q 8.8 5.968 8.507 7.496 A 12.311 12.311 0 0 1 8.4 8 L 11.4 8 A 11.741 11.741 0 0 1 11.644 9.313 Q 11.737 10.018 11.774 10.833 A 25.306 25.306 0 0 1 11.8 12 Q 11.8 13.968 11.507 15.496 A 12.311 12.311 0 0 1 11.4 16 L 13.4 16 A 11.741 11.741 0 0 1 13.644 17.313 Q 13.737 18.018 13.774 18.833 A 25.306 25.306 0 0 1 13.8 20 Q 13.8 21.968 13.507 23.496 A 12.311 12.311 0 0 1 13.4 24 L 19.4 24 A 13.936 13.936 0 0 1 19.127 22.398 Q 19 21.294 19 20 A 23.85 23.85 0 0 1 19.054 18.345 Q 19.147 17.013 19.4 16 L 21.4 16 A 13.936 13.936 0 0 1 21.127 14.398 Q 21 13.294 21 12 A 23.85 23.85 0 0 1 21.054 10.345 Q 21.147 9.013 21.4 8 L 24.4 8 A 13.936 13.936 0 0 1 24.127 6.398 Q 24 5.294 24 4 A 23.85 23.85 0 0 1 24.054 2.345 Q 24.147 1.013 24.4 0 L 32.4 0 Q 32.698 1.194 32.774 2.833 A 25.306 25.306 0 0 1 32.8 4 Q 32.8 5.968 32.507 7.496 A 12.311 12.311 0 0 1 32.4 8 L 29.4 8 A 11.741 11.741 0 0 1 29.644 9.313 Q 29.737 10.018 29.774 10.833 A 25.306 25.306 0 0 1 29.8 12 Q 29.8 13.968 29.507 15.496 A 12.311 12.311 0 0 1 29.4 16 L 25.4 16 Q 25.698 17.194 25.774 18.833 A 25.306 25.306 0 0 1 25.8 20 Q 25.8 21.968 25.507 23.496 A 12.311 12.311 0 0 1 25.4 24 L 22.4 24 Q 22.698 25.194 22.774 26.833 A 25.306 25.306 0 0 1 22.8 28 Q 22.8 29.968 22.507 31.496 A 12.311 12.311 0 0 1 22.4 32 L 25.4 32 Q 25.698 33.194 25.774 34.833 A 25.306 25.306 0 0 1 25.8 36 Q 25.8 37.968 25.507 39.496 A 12.311 12.311 0 0 1 25.4 40 L 29.4 40 A 11.741 11.741 0 0 1 29.644 41.313 Q 29.737 42.018 29.774 42.833 A 25.306 25.306 0 0 1 29.8 44 Q 29.8 45.968 29.507 47.496 A 12.311 12.311 0 0 1 29.4 48 Z M 540.4 48 A 13.936 13.936 0 0 1 540.127 46.398 Q 540 45.294 540 44 A 23.85 23.85 0 0 1 540.054 42.345 Q 540.147 41.013 540.4 40 L 544.4 40 A 13.936 13.936 0 0 1 544.127 38.398 Q 544 37.294 544 36 A 23.85 23.85 0 0 1 544.054 34.345 Q 544.147 33.013 544.4 32 A 13.936 13.936 0 0 1 544.127 30.398 Q 544 29.294 544 28 A 23.85 23.85 0 0 1 544.054 26.345 Q 544.147 25.013 544.4 24 L 531.4 24 A 11.741 11.741 0 0 1 531.644 25.313 Q 531.737 26.018 531.774 26.833 A 25.306 25.306 0 0 1 531.8 28 Q 531.8 29.968 531.507 31.496 A 12.311 12.311 0 0 1 531.4 32 L 528.4 32 A 11.741 11.741 0 0 1 528.644 33.313 Q 528.737 34.018 528.774 34.833 A 25.306 25.306 0 0 1 528.8 36 Q 528.8 37.968 528.507 39.496 A 12.311 12.311 0 0 1 528.4 40 L 531.4 40 A 11.741 11.741 0 0 1 531.644 41.313 Q 531.737 42.018 531.774 42.833 A 25.306 25.306 0 0 1 531.8 44 Q 531.8 45.968 531.507 47.496 A 12.311 12.311 0 0 1 531.4 48 L 540.4 48 L 544.4 48 Q 544.147 49.013 544.054 50.345 A 23.85 23.85 0 0 0 544 52 Q 544 53.294 544.127 54.398 A 13.936 13.936 0 0 0 544.4 56 L 540.4 56 Q 540.147 57.013 540.054 58.345 A 23.85 23.85 0 0 0 540 60 Q 540 61.294 540.127 62.398 A 13.936 13.936 0 0 0 540.4 64 L 528.4 64 Q 528.147 65.013 528.054 66.345 A 23.85 23.85 0 0 0 528 68 Q 528 69.294 528.127 70.398 A 13.936 13.936 0 0 0 528.4 72 L 544.4 72 A 12.311 12.311 0 0 0 544.507 71.496 Q 544.8 69.968 544.8 68 A 25.306 25.306 0 0 0 544.774 66.833 Q 544.698 65.194 544.4 64 L 548.4 64 A 12.311 12.311 0 0 0 548.507 63.496 Q 548.8 61.968 548.8 60 A 25.306 25.306 0 0 0 548.774 58.833 Q 548.737 58.018 548.644 57.313 A 11.741 11.741 0 0 0 548.4 56 L 552.4 56 A 12.311 12.311 0 0 0 552.507 55.496 Q 552.8 53.968 552.8 52 A 25.306 25.306 0 0 0 552.774 50.833 Q 552.698 49.194 552.4 48 A 12.311 12.311 0 0 0 552.507 47.496 Q 552.8 45.968 552.8 44 A 25.306 25.306 0 0 0 552.774 42.833 Q 552.698 41.194 552.4 40 A 12.311 12.311 0 0 0 552.507 39.496 Q 552.8 37.968 552.8 36 A 25.306 25.306 0 0 0 552.774 34.833 Q 552.698 33.194 552.4 32 A 12.311 12.311 0 0 0 552.507 31.496 Q 552.8 29.968 552.8 28 A 25.306 25.306 0 0 0 552.774 26.833 Q 552.698 25.194 552.4 24 A 12.311 12.311 0 0 0 552.507 23.496 Q 552.8 21.968 552.8 20 A 25.306 25.306 0 0 0 552.774 18.833 Q 552.698 17.194 552.4 16 L 528.4 16 Q 528.147 17.013 528.054 18.345 A 23.85 23.85 0 0 0 528 20 Q 528 21.294 528.127 22.398 A 13.936 13.936 0 0 0 528.4 24 L 523.4 24 Q 523.147 25.013 523.054 26.345 A 23.85 23.85 0 0 0 523 28 Q 523 29.294 523.127 30.398 A 13.936 13.936 0 0 0 523.4 32 L 520.4 32 Q 520.147 33.013 520.054 34.345 A 23.85 23.85 0 0 0 520 36 Q 520 37.294 520.127 38.398 A 13.936 13.936 0 0 0 520.4 40 L 523.4 40 Q 523.147 41.013 523.054 42.345 A 23.85 23.85 0 0 0 523 44 Q 523 45.294 523.127 46.398 A 13.936 13.936 0 0 0 523.4 48 L 528.4 48 Q 528.147 49.013 528.054 50.345 A 23.85 23.85 0 0 0 528 52 Q 528 53.294 528.127 54.398 A 13.936 13.936 0 0 0 528.4 56 L 540.4 56 Q 540.147 57.013 540.054 58.345 M 432.4 56 L 424.4 56 A 13.936 13.936 0 0 1 424.127 54.398 Q 424 53.294 424 52 A 23.85 23.85 0 0 1 424.054 50.345 Q 424.147 49.013 424.4 48 A 13.936 13.936 0 0 1 424.127 46.398 Q 424 45.294 424 44 A 23.85 23.85 0 0 1 424.054 42.345 Q 424.147 41.013 424.4 40 A 13.936 13.936 0 0 1 424.127 38.398 Q 424 37.294 424 36 A 23.85 23.85 0 0 1 424.054 34.345 Q 424.147 33.013 424.4 32 L 408.4 32 A 11.741 11.741 0 0 1 408.644 33.313 Q 408.737 34.018 408.774 34.833 A 25.306 25.306 0 0 1 408.8 36 Q 408.8 37.968 408.507 39.496 A 12.311 12.311 0 0 1 408.4 40 A 11.741 11.741 0 0 1 408.644 41.313 Q 408.737 42.018 408.774 42.833 A 25.306 25.306 0 0 1 408.8 44 Q 408.8 45.968 408.507 47.496 A 12.311 12.311 0 0 1 408.4 48 A 11.741 11.741 0 0 1 408.644 49.313 Q 408.737 50.018 408.774 50.833 A 25.306 25.306 0 0 1 408.8 52 Q 408.8 53.968 408.507 55.496 A 12.311 12.311 0 0 1 408.4 56 L 400.4 56 A 13.936 13.936 0 0 1 400.127 54.398 Q 400 53.294 400 52 A 23.85 23.85 0 0 1 400.054 50.345 Q 400.147 49.013 400.4 48 A 13.936 13.936 0 0 1 400.127 46.398 Q 400 45.294 400 44 A 23.85 23.85 0 0 1 400.054 42.345 Q 400.147 41.013 400.4 40 A 13.936 13.936 0 0 1 400.127 38.398 Q 400 37.294 400 36 A 23.85 23.85 0 0 1 400.054 34.345 Q 400.147 33.013 400.4 32 A 13.936 13.936 0 0 1 400.127 30.398 Q 400 29.294 400 28 A 23.85 23.85 0 0 1 400.054 26.345 Q 400.147 25.013 400.4 24 A 13.936 13.936 0 0 1 400.127 22.398 Q 400 21.294 400 20 A 23.85 23.85 0 0 1 400.054 18.345 Q 400.147 17.013 400.4 16 A 13.936 13.936 0 0 1 400.127 14.398 Q 400 13.294 400 12 A 23.85 23.85 0 0 1 400.054 10.345 Q 400.147 9.013 400.4 8 A 13.936 13.936 0 0 1 400.127 6.398 Q 400 5.294 400 4 A 23.85 23.85 0 0 1 400.054 2.345 Q 400.147 1.013 400.4 0 L 408.4 0 A 11.741 11.741 0 0 1 408.644 1.313 Q 408.737 2.018 408.774 2.833 A 25.306 25.306 0 0 1 408.8 4 Q 408.8 5.968 408.507 7.496 A 12.311 12.311 0 0 1 408.4 8 A 11.741 11.741 0 0 1 408.644 9.313 Q 408.737 10.018 408.774 10.833 A 25.306 25.306 0 0 1 408.8 12 Q 408.8 13.968 408.507 15.496 A 12.311 12.311 0 0 1 408.4 16 A 11.741 11.741 0 0 1 408.644 17.313 Q 408.737 18.018 408.774 18.833 A 25.306 25.306 0 0 1 408.8 20 Q 408.8 21.968 408.507 23.496 A 12.311 12.311 0 0 1 408.4 24 L 424.4 24 A 13.936 13.936 0 0 1 424.127 22.398 Q 424 21.294 424 20 A 23.85 23.85 0 0 1 424.054 18.345 Q 424.147 17.013 424.4 16 A 13.936 13.936 0 0 1 424.127 14.398 Q 424 13.294 424 12 A 23.85 23.85 0 0 1 424.054 10.345 Q 424.147 9.013 424.4 8 A 13.936 13.936 0 0 1 424.127 6.398 Q 424 5.294 424 4 A 23.85 23.85 0 0 1 424.054 2.345 Q 424.147 1.013 424.4 0 L 432.4 0 Q 432.698 1.194 432.774 2.833 A 25.306 25.306 0 0 1 432.8 4 Q 432.8 5.968 432.507 7.496 A 12.311 12.311 0 0 1 432.4 8 Q 432.698 9.194 432.774 10.833 A 25.306 25.306 0 0 1 432.8 12 Q 432.8 13.968 432.507 15.496 A 12.311 12.311 0 0 1 432.4 16 Q 432.698 17.194 432.774 18.833 A 25.306 25.306 0 0 1 432.8 20 Q 432.8 21.968 432.507 23.496 A 12.311 12.311 0 0 1 432.4 24 Q 432.698 25.194 432.774 26.833 A 25.306 25.306 0 0 1 432.8 28 Q 432.8 29.968 432.507 31.496 A 12.311 12.311 0 0 1 432.4 32 Q 432.698 33.194 432.774 34.833 A 25.306 25.306 0 0 1 432.8 36 Q 432.8 37.968 432.507 39.496 A 12.311 12.311 0 0 1 432.4 40 Q 432.698 41.194 432.774 42.833 A 25.306 25.306 0 0 1 432.8 44 Q 432.8 45.968 432.507 47.496 A 12.311 12.311 0 0 1 432.4 48 Q 432.698 49.194 432.774 50.833 A 25.306 25.306 0 0 1 432.8 52 Q 432.8 53.968 432.507 55.496 A 12.311 12.311 0 0 1 432.4 56 Z M 288.4 24 L 291.4 24 L 304.4 24 Q 304.147 25.013 304.054 26.345 A 23.85 23.85 0 0 0 304 28 Q 304 29.294 304.127 30.398 A 13.936 13.936 0 0 0 304.4 32 Q 304.147 33.013 304.054 34.345 A 23.85 23.85 0 0 0 304 36 Q 304 37.294 304.127 38.398 A 13.936 13.936 0 0 0 304.4 40 Q 304.147 41.013 304.054 42.345 A 23.85 23.85 0 0 0 304 44 Q 304 45.294 304.127 46.398 A 13.936 13.936 0 0 0 304.4 48 Q 304.147 49.013 304.054 50.345 A 23.85 23.85 0 0 0 304 52 Q 304 53.294 304.127 54.398 A 13.936 13.936 0 0 0 304.4 56 L 312.4 56 A 12.311 12.311 0 0 0 312.507 55.496 Q 312.8 53.968 312.8 52 A 25.306 25.306 0 0 0 312.774 50.833 Q 312.698 49.194 312.4 48 A 12.311 12.311 0 0 0 312.507 47.496 Q 312.8 45.968 312.8 44 A 25.306 25.306 0 0 0 312.774 42.833 Q 312.698 41.194 312.4 40 A 12.311 12.311 0 0 0 312.507 39.496 Q 312.8 37.968 312.8 36 A 25.306 25.306 0 0 0 312.774 34.833 Q 312.698 33.194 312.4 32 A 12.311 12.311 0 0 0 312.507 31.496 Q 312.8 29.968 312.8 28 A 25.306 25.306 0 0 0 312.774 26.833 Q 312.698 25.194 312.4 24 L 307.4 24 A 12.311 12.311 0 0 0 307.507 23.496 Q 307.8 21.968 307.8 20 A 25.306 25.306 0 0 0 307.774 18.833 Q 307.698 17.194 307.4 16 L 291.4 16 Q 291.147 17.013 291.054 18.345 A 23.85 23.85 0 0 0 291 20 Q 291 21.294 291.127 22.398 A 13.936 13.936 0 0 0 291.4 24 A 11.741 11.741 0 0 1 291.644 25.313 Q 291.737 26.018 291.774 26.833 A 25.306 25.306 0 0 1 291.8 28 Q 291.8 29.968 291.507 31.496 A 12.311 12.311 0 0 1 291.4 32 L 288.4 32 A 11.741 11.741 0 0 1 288.644 33.313 Q 288.737 34.018 288.774 34.833 A 25.306 25.306 0 0 1 288.8 36 Q 288.8 37.968 288.507 39.496 A 12.311 12.311 0 0 1 288.4 40 A 11.741 11.741 0 0 1 288.644 41.313 Q 288.737 42.018 288.774 42.833 A 25.306 25.306 0 0 1 288.8 44 Q 288.8 45.968 288.507 47.496 A 12.311 12.311 0 0 1 288.4 48 A 11.741 11.741 0 0 1 288.644 49.313 Q 288.737 50.018 288.774 50.833 A 25.306 25.306 0 0 1 288.8 52 Q 288.8 53.968 288.507 55.496 A 12.311 12.311 0 0 1 288.4 56 L 280.4 56 A 13.936 13.936 0 0 1 280.127 54.398 Q 280 53.294 280 52 A 23.85 23.85 0 0 1 280.054 50.345 Q 280.147 49.013 280.4 48 A 13.936 13.936 0 0 1 280.127 46.398 Q 280 45.294 280 44 A 23.85 23.85 0 0 1 280.054 42.345 Q 280.147 41.013 280.4 40 A 13.936 13.936 0 0 1 280.127 38.398 Q 280 37.294 280 36 A 23.85 23.85 0 0 1 280.054 34.345 Q 280.147 33.013 280.4 32 A 13.936 13.936 0 0 1 280.127 30.398 Q 280 29.294 280 28 A 23.85 23.85 0 0 1 280.054 26.345 Q 280.147 25.013 280.4 24 A 13.936 13.936 0 0 1 280.127 22.398 Q 280 21.294 280 20 A 23.85 23.85 0 0 1 280.054 18.345 Q 280.147 17.013 280.4 16 A 13.936 13.936 0 0 1 280.127 14.398 Q 280 13.294 280 12 A 23.85 23.85 0 0 1 280.054 10.345 Q 280.147 9.013 280.4 8 A 13.936 13.936 0 0 1 280.127 6.398 Q 280 5.294 280 4 A 23.85 23.85 0 0 1 280.054 2.345 Q 280.147 1.013 280.4 0 L 288.4 0 A 11.741 11.741 0 0 1 288.644 1.313 Q 288.737 2.018 288.774 2.833 A 25.306 25.306 0 0 1 288.8 4 Q 288.8 5.968 288.507 7.496 A 12.311 12.311 0 0 1 288.4 8 A 11.741 11.741 0 0 1 288.644 9.313 Q 288.737 10.018 288.774 10.833 A 25.306 25.306 0 0 1 288.8 12 Q 288.8 13.968 288.507 15.496 A 12.311 12.311 0 0 1 288.4 16 A 11.741 11.741 0 0 1 288.644 17.313 Q 288.737 18.018 288.774 18.833 A 25.306 25.306 0 0 1 288.8 20 Q 288.8 21.968 288.507 23.496 A 12.311 12.311 0 0 1 288.4 24 Z M 460.4 48 A 13.936 13.936 0 0 1 460.127 46.398 Q 460 45.294 460 44 A 23.85 23.85 0 0 1 460.054 42.345 Q 460.147 41.013 460.4 40 L 448.4 40 A 11.741 11.741 0 0 1 448.644 41.313 Q 448.737 42.018 448.774 42.833 A 25.306 25.306 0 0 1 448.8 44 Q 448.8 45.968 448.507 47.496 A 12.311 12.311 0 0 1 448.4 48 L 460.4 48 L 464.4 48 Q 464.147 49.013 464.054 50.345 A 23.85 23.85 0 0 0 464 52 Q 464 53.294 464.127 54.398 A 13.936 13.936 0 0 0 464.4 56 L 472.4 56 A 12.311 12.311 0 0 0 472.507 55.496 Q 472.8 53.968 472.8 52 A 25.306 25.306 0 0 0 472.774 50.833 Q 472.698 49.194 472.4 48 L 468.4 48 A 12.311 12.311 0 0 0 468.507 47.496 Q 468.8 45.968 468.8 44 A 25.306 25.306 0 0 0 468.774 42.833 Q 468.737 42.018 468.644 41.313 A 11.741 11.741 0 0 0 468.4 40 A 12.311 12.311 0 0 0 468.507 39.496 Q 468.8 37.968 468.8 36 A 25.306 25.306 0 0 0 468.774 34.833 Q 468.737 34.018 468.644 33.313 A 11.741 11.741 0 0 0 468.4 32 A 12.311 12.311 0 0 0 468.507 31.496 Q 468.8 29.968 468.8 28 A 25.306 25.306 0 0 0 468.774 26.833 Q 468.737 26.018 468.644 25.313 A 11.741 11.741 0 0 0 468.4 24 L 464.4 24 A 12.311 12.311 0 0 0 464.507 23.496 Q 464.8 21.968 464.8 20 A 25.306 25.306 0 0 0 464.774 18.833 Q 464.698 17.194 464.4 16 L 446.4 16 Q 446.147 17.013 446.054 18.345 A 23.85 23.85 0 0 0 446 20 Q 446 21.294 446.127 22.398 A 13.936 13.936 0 0 0 446.4 24 L 460.4 24 Q 460.147 25.013 460.054 26.345 A 23.85 23.85 0 0 0 460 28 Q 460 29.294 460.127 30.398 A 13.936 13.936 0 0 0 460.4 32 L 444.4 32 Q 444.147 33.013 444.054 34.345 A 23.85 23.85 0 0 0 444 36 Q 444 37.294 444.127 38.398 A 13.936 13.936 0 0 0 444.4 40 L 440.4 40 Q 440.147 41.013 440.054 42.345 A 23.85 23.85 0 0 0 440 44 Q 440 45.294 440.127 46.398 A 13.936 13.936 0 0 0 440.4 48 L 444.4 48 Q 444.147 49.013 444.054 50.345 A 23.85 23.85 0 0 0 444 52 Q 444 53.294 444.127 54.398 A 13.936 13.936 0 0 0 444.4 56 L 460.4 56 A 12.311 12.311 0 0 0 460.507 55.496 Q 460.8 53.968 460.8 52 A 25.306 25.306 0 0 0 460.774 50.833 Q 460.698 49.194 460.4 48 Z M 740.4 48 A 13.936 13.936 0 0 1 740.127 46.398 Q 740 45.294 740 44 A 23.85 23.85 0 0 1 740.054 42.345 Q 740.147 41.013 740.4 40 L 728.4 40 A 11.741 11.741 0 0 1 728.644 41.313 Q 728.737 42.018 728.774 42.833 A 25.306 25.306 0 0 1 728.8 44 Q 728.8 45.968 728.507 47.496 A 12.311 12.311 0 0 1 728.4 48 L 740.4 48 L 744.4 48 Q 744.147 49.013 744.054 50.345 A 23.85 23.85 0 0 0 744 52 Q 744 53.294 744.127 54.398 A 13.936 13.936 0 0 0 744.4 56 L 752.4 56 A 12.311 12.311 0 0 0 752.507 55.496 Q 752.8 53.968 752.8 52 A 25.306 25.306 0 0 0 752.774 50.833 Q 752.698 49.194 752.4 48 L 748.4 48 A 12.311 12.311 0 0 0 748.507 47.496 Q 748.8 45.968 748.8 44 A 25.306 25.306 0 0 0 748.774 42.833 Q 748.737 42.018 748.644 41.313 A 11.741 11.741 0 0 0 748.4 40 A 12.311 12.311 0 0 0 748.507 39.496 Q 748.8 37.968 748.8 36 A 25.306 25.306 0 0 0 748.774 34.833 Q 748.737 34.018 748.644 33.313 A 11.741 11.741 0 0 0 748.4 32 A 12.311 12.311 0 0 0 748.507 31.496 Q 748.8 29.968 748.8 28 A 25.306 25.306 0 0 0 748.774 26.833 Q 748.737 26.018 748.644 25.313 A 11.741 11.741 0 0 0 748.4 24 L 744.4 24 A 12.311 12.311 0 0 0 744.507 23.496 Q 744.8 21.968 744.8 20 A 25.306 25.306 0 0 0 744.774 18.833 Q 744.698 17.194 744.4 16 L 726.4 16 Q 726.147 17.013 726.054 18.345 A 23.85 23.85 0 0 0 726 20 Q 726 21.294 726.127 22.398 A 13.936 13.936 0 0 0 726.4 24 L 740.4 24 Q 740.147 25.013 740.054 26.345 A 23.85 23.85 0 0 0 740 28 Q 740 29.294 740.127 30.398 A 13.936 13.936 0 0 0 740.4 32 L 724.4 32 Q 724.147 33.013 724.054 34.345 A 23.85 23.85 0 0 0 724 36 Q 724 37.294 724.127 38.398 A 13.936 13.936 0 0 0 724.4 40 L 720.4 40 Q 720.147 41.013 720.054 42.345 A 23.85 23.85 0 0 0 720 44 Q 720 45.294 720.127 46.398 A 13.936 13.936 0 0 0 720.4 48 L 724.4 48 Q 724.147 49.013 724.054 50.345 A 23.85 23.85 0 0 0 724 52 Q 724 53.294 724.127 54.398 A 13.936 13.936 0 0 0 724.4 56 L 740.4 56 A 12.311 12.311 0 0 0 740.507 55.496 Q 740.8 53.968 740.8 52 A 25.306 25.306 0 0 0 740.774 50.833 Q 740.698 49.194 740.4 48 Z M 487.4 24 L 491.4 24 L 504.4 24 Q 504.147 25.013 504.054 26.345 A 23.85 23.85 0 0 0 504 28 Q 504 29.294 504.127 30.398 A 13.936 13.936 0 0 0 504.4 32 Q 504.147 33.013 504.054 34.345 A 23.85 23.85 0 0 0 504 36 Q 504 37.294 504.127 38.398 A 13.936 13.936 0 0 0 504.4 40 Q 504.147 41.013 504.054 42.345 A 23.85 23.85 0 0 0 504 44 Q 504 45.294 504.127 46.398 A 13.936 13.936 0 0 0 504.4 48 Q 504.147 49.013 504.054 50.345 A 23.85 23.85 0 0 0 504 52 Q 504 53.294 504.127 54.398 A 13.936 13.936 0 0 0 504.4 56 L 512.4 56 A 12.311 12.311 0 0 0 512.507 55.496 Q 512.8 53.968 512.8 52 A 25.306 25.306 0 0 0 512.774 50.833 Q 512.698 49.194 512.4 48 A 12.311 12.311 0 0 0 512.507 47.496 Q 512.8 45.968 512.8 44 A 25.306 25.306 0 0 0 512.774 42.833 Q 512.698 41.194 512.4 40 A 12.311 12.311 0 0 0 512.507 39.496 Q 512.8 37.968 512.8 36 A 25.306 25.306 0 0 0 512.774 34.833 Q 512.698 33.194 512.4 32 A 12.311 12.311 0 0 0 512.507 31.496 Q 512.8 29.968 512.8 28 A 25.306 25.306 0 0 0 512.774 26.833 Q 512.698 25.194 512.4 24 L 507.4 24 A 12.311 12.311 0 0 0 507.507 23.496 Q 507.8 21.968 507.8 20 A 25.306 25.306 0 0 0 507.774 18.833 Q 507.698 17.194 507.4 16 L 491.4 16 Q 491.147 17.013 491.054 18.345 A 23.85 23.85 0 0 0 491 20 Q 491 21.294 491.127 22.398 A 13.936 13.936 0 0 0 491.4 24 A 11.741 11.741 0 0 1 491.644 25.313 Q 491.737 26.018 491.774 26.833 A 25.306 25.306 0 0 1 491.8 28 Q 491.8 29.968 491.507 31.496 A 12.311 12.311 0 0 1 491.4 32 L 488.4 32 A 11.741 11.741 0 0 1 488.644 33.313 Q 488.737 34.018 488.774 34.833 A 25.306 25.306 0 0 1 488.8 36 Q 488.8 37.968 488.507 39.496 A 12.311 12.311 0 0 1 488.4 40 A 11.741 11.741 0 0 1 488.644 41.313 Q 488.737 42.018 488.774 42.833 A 25.306 25.306 0 0 1 488.8 44 Q 488.8 45.968 488.507 47.496 A 12.311 12.311 0 0 1 488.4 48 A 11.741 11.741 0 0 1 488.644 49.313 Q 488.737 50.018 488.774 50.833 A 25.306 25.306 0 0 1 488.8 52 Q 488.8 53.968 488.507 55.496 A 12.311 12.311 0 0 1 488.4 56 L 480.4 56 A 13.936 13.936 0 0 1 480.127 54.398 Q 480 53.294 480 52 A 23.85 23.85 0 0 1 480.054 50.345 Q 480.147 49.013 480.4 48 A 13.936 13.936 0 0 1 480.127 46.398 Q 480 45.294 480 44 A 23.85 23.85 0 0 1 480.054 42.345 Q 480.147 41.013 480.4 40 A 13.936 13.936 0 0 1 480.127 38.398 Q 480 37.294 480 36 A 23.85 23.85 0 0 1 480.054 34.345 Q 480.147 33.013 480.4 32 A 13.936 13.936 0 0 1 480.127 30.398 Q 480 29.294 480 28 A 23.85 23.85 0 0 1 480.054 26.345 Q 480.147 25.013 480.4 24 A 13.936 13.936 0 0 1 480.127 22.398 Q 480 21.294 480 20 A 23.85 23.85 0 0 1 480.054 18.345 Q 480.147 17.013 480.4 16 L 487.4 16 A 11.741 11.741 0 0 1 487.644 17.313 Q 487.737 18.018 487.774 18.833 A 25.306 25.306 0 0 1 487.8 20 Q 487.8 21.968 487.507 23.496 A 12.311 12.311 0 0 1 487.4 24 Z M 767.4 24 L 771.4 24 L 784.4 24 Q 784.147 25.013 784.054 26.345 A 23.85 23.85 0 0 0 784 28 Q 784 29.294 784.127 30.398 A 13.936 13.936 0 0 0 784.4 32 Q 784.147 33.013 784.054 34.345 A 23.85 23.85 0 0 0 784 36 Q 784 37.294 784.127 38.398 A 13.936 13.936 0 0 0 784.4 40 Q 784.147 41.013 784.054 42.345 A 23.85 23.85 0 0 0 784 44 Q 784 45.294 784.127 46.398 A 13.936 13.936 0 0 0 784.4 48 Q 784.147 49.013 784.054 50.345 A 23.85 23.85 0 0 0 784 52 Q 784 53.294 784.127 54.398 A 13.936 13.936 0 0 0 784.4 56 L 792.4 56 A 12.311 12.311 0 0 0 792.507 55.496 Q 792.8 53.968 792.8 52 A 25.306 25.306 0 0 0 792.774 50.833 Q 792.698 49.194 792.4 48 A 12.311 12.311 0 0 0 792.507 47.496 Q 792.8 45.968 792.8 44 A 25.306 25.306 0 0 0 792.774 42.833 Q 792.698 41.194 792.4 40 A 12.311 12.311 0 0 0 792.507 39.496 Q 792.8 37.968 792.8 36 A 25.306 25.306 0 0 0 792.774 34.833 Q 792.698 33.194 792.4 32 A 12.311 12.311 0 0 0 792.507 31.496 Q 792.8 29.968 792.8 28 A 25.306 25.306 0 0 0 792.774 26.833 Q 792.698 25.194 792.4 24 L 787.4 24 A 12.311 12.311 0 0 0 787.507 23.496 Q 787.8 21.968 787.8 20 A 25.306 25.306 0 0 0 787.774 18.833 Q 787.698 17.194 787.4 16 L 771.4 16 Q 771.147 17.013 771.054 18.345 A 23.85 23.85 0 0 0 771 20 Q 771 21.294 771.127 22.398 A 13.936 13.936 0 0 0 771.4 24 A 11.741 11.741 0 0 1 771.644 25.313 Q 771.737 26.018 771.774 26.833 A 25.306 25.306 0 0 1 771.8 28 Q 771.8 29.968 771.507 31.496 A 12.311 12.311 0 0 1 771.4 32 L 768.4 32 A 11.741 11.741 0 0 1 768.644 33.313 Q 768.737 34.018 768.774 34.833 A 25.306 25.306 0 0 1 768.8 36 Q 768.8 37.968 768.507 39.496 A 12.311 12.311 0 0 1 768.4 40 A 11.741 11.741 0 0 1 768.644 41.313 Q 768.737 42.018 768.774 42.833 A 25.306 25.306 0 0 1 768.8 44 Q 768.8 45.968 768.507 47.496 A 12.311 12.311 0 0 1 768.4 48 A 11.741 11.741 0 0 1 768.644 49.313 Q 768.737 50.018 768.774 50.833 A 25.306 25.306 0 0 1 768.8 52 Q 768.8 53.968 768.507 55.496 A 12.311 12.311 0 0 1 768.4 56 L 760.4 56 A 13.936 13.936 0 0 1 760.127 54.398 Q 760 53.294 760 52 A 23.85 23.85 0 0 1 760.054 50.345 Q 760.147 49.013 760.4 48 A 13.936 13.936 0 0 1 760.127 46.398 Q 760 45.294 760 44 A 23.85 23.85 0 0 1 760.054 42.345 Q 760.147 41.013 760.4 40 A 13.936 13.936 0 0 1 760.127 38.398 Q 760 37.294 760 36 A 23.85 23.85 0 0 1 760.054 34.345 Q 760.147 33.013 760.4 32 A 13.936 13.936 0 0 1 760.127 30.398 Q 760 29.294 760 28 A 23.85 23.85 0 0 1 760.054 26.345 Q 760.147 25.013 760.4 24 A 13.936 13.936 0 0 1 760.127 22.398 Q 760 21.294 760 20 A 23.85 23.85 0 0 1 760.054 18.345 Q 760.147 17.013 760.4 16 L 767.4 16 A 11.741 11.741 0 0 1 767.644 17.313 Q 767.737 18.018 767.774 18.833 A 25.306 25.306 0 0 1 767.8 20 Q 767.8 21.968 767.507 23.496 A 12.311 12.311 0 0 1 767.4 24 Z M 352.4 40 L 331.4 40 A 11.741 11.741 0 0 1 331.644 41.313 Q 331.737 42.018 331.774 42.833 A 25.306 25.306 0 0 1 331.8 44 Q 331.8 45.968 331.507 47.496 A 12.311 12.311 0 0 1 331.4 48 L 348.4 48 A 11.741 11.741 0 0 1 348.644 49.313 Q 348.737 50.018 348.774 50.833 A 25.306 25.306 0 0 1 348.8 52 Q 348.8 53.968 348.507 55.496 A 12.311 12.311 0 0 1 348.4 56 L 328.4 56 A 13.936 13.936 0 0 1 328.127 54.398 Q 328 53.294 328 52 A 23.85 23.85 0 0 1 328.054 50.345 Q 328.147 49.013 328.4 48 L 323.4 48 A 13.936 13.936 0 0 1 323.127 46.398 Q 323 45.294 323 44 A 23.85 23.85 0 0 1 323.054 42.345 Q 323.147 41.013 323.4 40 L 320.4 40 A 13.936 13.936 0 0 1 320.127 38.398 Q 320 37.294 320 36 A 23.85 23.85 0 0 1 320.054 34.345 Q 320.147 33.013 320.4 32 L 323.4 32 A 13.936 13.936 0 0 1 323.127 30.398 Q 323 29.294 323 28 A 23.85 23.85 0 0 1 323.054 26.345 Q 323.147 25.013 323.4 24 L 328.4 24 A 13.936 13.936 0 0 1 328.127 22.398 Q 328 21.294 328 20 A 23.85 23.85 0 0 1 328.054 18.345 Q 328.147 17.013 328.4 16 L 348.4 16 A 11.741 11.741 0 0 1 348.644 17.313 Q 348.737 18.018 348.774 18.833 A 25.306 25.306 0 0 1 348.8 20 Q 348.8 21.968 348.507 23.496 A 12.311 12.311 0 0 1 348.4 24 L 352.4 24 Q 352.698 25.194 352.774 26.833 A 25.306 25.306 0 0 1 352.8 28 Q 352.8 29.968 352.507 31.496 A 12.311 12.311 0 0 1 352.4 32 Q 352.698 33.194 352.774 34.833 A 25.306 25.306 0 0 1 352.8 36 Q 352.8 37.968 352.507 39.496 A 12.311 12.311 0 0 1 352.4 40 Z M 592.4 40 L 571.4 40 A 11.741 11.741 0 0 1 571.644 41.313 Q 571.737 42.018 571.774 42.833 A 25.306 25.306 0 0 1 571.8 44 Q 571.8 45.968 571.507 47.496 A 12.311 12.311 0 0 1 571.4 48 L 588.4 48 A 11.741 11.741 0 0 1 588.644 49.313 Q 588.737 50.018 588.774 50.833 A 25.306 25.306 0 0 1 588.8 52 Q 588.8 53.968 588.507 55.496 A 12.311 12.311 0 0 1 588.4 56 L 568.4 56 A 13.936 13.936 0 0 1 568.127 54.398 Q 568 53.294 568 52 A 23.85 23.85 0 0 1 568.054 50.345 Q 568.147 49.013 568.4 48 L 563.4 48 A 13.936 13.936 0 0 1 563.127 46.398 Q 563 45.294 563 44 A 23.85 23.85 0 0 1 563.054 42.345 Q 563.147 41.013 563.4 40 L 560.4 40 A 13.936 13.936 0 0 1 560.127 38.398 Q 560 37.294 560 36 A 23.85 23.85 0 0 1 560.054 34.345 Q 560.147 33.013 560.4 32 L 563.4 32 A 13.936 13.936 0 0 1 563.127 30.398 Q 563 29.294 563 28 A 23.85 23.85 0 0 1 563.054 26.345 Q 563.147 25.013 563.4 24 L 568.4 24 A 13.936 13.936 0 0 1 568.127 22.398 Q 568 21.294 568 20 A 23.85 23.85 0 0 1 568.054 18.345 Q 568.147 17.013 568.4 16 L 588.4 16 A 11.741 11.741 0 0 1 588.644 17.313 Q 588.737 18.018 588.774 18.833 A 25.306 25.306 0 0 1 588.8 20 Q 588.8 21.968 588.507 23.496 A 12.311 12.311 0 0 1 588.4 24 L 592.4 24 Q 592.698 25.194 592.774 26.833 A 25.306 25.306 0 0 1 592.8 28 Q 592.8 29.968 592.507 31.496 A 12.311 12.311 0 0 1 592.4 32 Q 592.698 33.194 592.774 34.833 A 25.306 25.306 0 0 1 592.8 36 Q 592.8 37.968 592.507 39.496 A 12.311 12.311 0 0 1 592.4 40 Z M 60.4 48 L 66.4 48 Q 66.698 49.194 66.774 50.833 A 25.306 25.306 0 0 1 66.8 52 Q 66.8 53.968 66.507 55.496 A 12.311 12.311 0 0 1 66.4 56 L 46.4 56 A 13.936 13.936 0 0 1 46.127 54.398 Q 46 53.294 46 52 A 23.85 23.85 0 0 1 46.054 50.345 Q 46.147 49.013 46.4 48 L 52.4 48 A 13.936 13.936 0 0 1 52.127 46.398 Q 52 45.294 52 44 A 23.85 23.85 0 0 1 52.054 42.345 Q 52.147 41.013 52.4 40 A 13.936 13.936 0 0 1 52.127 38.398 Q 52 37.294 52 36 A 23.85 23.85 0 0 1 52.054 34.345 Q 52.147 33.013 52.4 32 A 13.936 13.936 0 0 1 52.127 30.398 Q 52 29.294 52 28 A 23.85 23.85 0 0 1 52.054 26.345 Q 52.147 25.013 52.4 24 A 13.936 13.936 0 0 1 52.127 22.398 Q 52 21.294 52 20 A 23.85 23.85 0 0 1 52.054 18.345 Q 52.147 17.013 52.4 16 A 13.936 13.936 0 0 1 52.127 14.398 Q 52 13.294 52 12 A 23.85 23.85 0 0 1 52.054 10.345 Q 52.147 9.013 52.4 8 L 46.4 8 A 13.936 13.936 0 0 1 46.127 6.398 Q 46 5.294 46 4 A 23.85 23.85 0 0 1 46.054 2.345 Q 46.147 1.013 46.4 0 L 66.4 0 Q 66.698 1.194 66.774 2.833 A 25.306 25.306 0 0 1 66.8 4 Q 66.8 5.968 66.507 7.496 A 12.311 12.311 0 0 1 66.4 8 L 60.4 8 Q 60.698 9.194 60.774 10.833 A 25.306 25.306 0 0 1 60.8 12 Q 60.8 13.968 60.507 15.496 A 12.311 12.311 0 0 1 60.4 16 Q 60.698 17.194 60.774 18.833 A 25.306 25.306 0 0 1 60.8 20 Q 60.8 21.968 60.507 23.496 A 12.311 12.311 0 0 1 60.4 24 Q 60.698 25.194 60.774 26.833 A 25.306 25.306 0 0 1 60.8 28 Q 60.8 29.968 60.507 31.496 A 12.311 12.311 0 0 1 60.4 32 Q 60.698 33.194 60.774 34.833 A 25.306 25.306 0 0 1 60.8 36 Q 60.8 37.968 60.507 39.496 A 12.311 12.311 0 0 1 60.4 40 Q 60.698 41.194 60.774 42.833 A 25.306 25.306 0 0 1 60.8 44 Q 60.8 45.968 60.507 47.496 A 12.311 12.311 0 0 1 60.4 48 Z M 100.4 48 L 106.4 48 Q 106.698 49.194 106.774 50.833 A 25.306 25.306 0 0 1 106.8 52 Q 106.8 53.968 106.507 55.496 A 12.311 12.311 0 0 1 106.4 56 L 86.4 56 A 13.936 13.936 0 0 1 86.127 54.398 Q 86 53.294 86 52 A 23.85 23.85 0 0 1 86.054 50.345 Q 86.147 49.013 86.4 48 L 92.4 48 A 13.936 13.936 0 0 1 92.127 46.398 Q 92 45.294 92 44 A 23.85 23.85 0 0 1 92.054 42.345 Q 92.147 41.013 92.4 40 A 13.936 13.936 0 0 1 92.127 38.398 Q 92 37.294 92 36 A 23.85 23.85 0 0 1 92.054 34.345 Q 92.147 33.013 92.4 32 A 13.936 13.936 0 0 1 92.127 30.398 Q 92 29.294 92 28 A 23.85 23.85 0 0 1 92.054 26.345 Q 92.147 25.013 92.4 24 A 13.936 13.936 0 0 1 92.127 22.398 Q 92 21.294 92 20 A 23.85 23.85 0 0 1 92.054 18.345 Q 92.147 17.013 92.4 16 A 13.936 13.936 0 0 1 92.127 14.398 Q 92 13.294 92 12 A 23.85 23.85 0 0 1 92.054 10.345 Q 92.147 9.013 92.4 8 L 86.4 8 A 13.936 13.936 0 0 1 86.127 6.398 Q 86 5.294 86 4 A 23.85 23.85 0 0 1 86.054 2.345 Q 86.147 1.013 86.4 0 L 106.4 0 Q 106.698 1.194 106.774 2.833 A 25.306 25.306 0 0 1 106.8 4 Q 106.8 5.968 106.507 7.496 A 12.311 12.311 0 0 1 106.4 8 L 100.4 8 Q 100.698 9.194 100.774 10.833 A 25.306 25.306 0 0 1 100.8 12 Q 100.8 13.968 100.507 15.496 A 12.311 12.311 0 0 1 100.4 16 Q 100.698 17.194 100.774 18.833 A 25.306 25.306 0 0 1 100.8 20 Q 100.8 21.968 100.507 23.496 A 12.311 12.311 0 0 1 100.4 24 Q 100.698 25.194 100.774 26.833 A 25.306 25.306 0 0 1 100.8 28 Q 100.8 29.968 100.507 31.496 A 12.311 12.311 0 0 1 100.4 32 Q 100.698 33.194 100.774 34.833 A 25.306 25.306 0 0 1 100.8 36 Q 100.8 37.968 100.507 39.496 A 12.311 12.311 0 0 1 100.4 40 Q 100.698 41.194 100.774 42.833 A 25.306 25.306 0 0 1 100.8 44 Q 100.8 45.968 100.507 47.496 A 12.311 12.311 0 0 1 100.4 48 Z M 272.4 8 L 260.4 8 Q 260.698 9.194 260.774 10.833 A 25.306 25.306 0 0 1 260.8 12 Q 260.8 13.968 260.507 15.496 A 12.311 12.311 0 0 1 260.4 16 Q 260.698 17.194 260.774 18.833 A 25.306 25.306 0 0 1 260.8 20 Q 260.8 21.968 260.507 23.496 A 12.311 12.311 0 0 1 260.4 24 Q 260.698 25.194 260.774 26.833 A 25.306 25.306 0 0 1 260.8 28 Q 260.8 29.968 260.507 31.496 A 12.311 12.311 0 0 1 260.4 32 Q 260.698 33.194 260.774 34.833 A 25.306 25.306 0 0 1 260.8 36 Q 260.8 37.968 260.507 39.496 A 12.311 12.311 0 0 1 260.4 40 Q 260.698 41.194 260.774 42.833 A 25.306 25.306 0 0 1 260.8 44 Q 260.8 45.968 260.507 47.496 A 12.311 12.311 0 0 1 260.4 48 Q 260.698 49.194 260.774 50.833 A 25.306 25.306 0 0 1 260.8 52 Q 260.8 53.968 260.507 55.496 A 12.311 12.311 0 0 1 260.4 56 L 252.4 56 A 13.936 13.936 0 0 1 252.127 54.398 Q 252 53.294 252 52 A 23.85 23.85 0 0 1 252.054 50.345 Q 252.147 49.013 252.4 48 A 13.936 13.936 0 0 1 252.127 46.398 Q 252 45.294 252 44 A 23.85 23.85 0 0 1 252.054 42.345 Q 252.147 41.013 252.4 40 A 13.936 13.936 0 0 1 252.127 38.398 Q 252 37.294 252 36 A 23.85 23.85 0 0 1 252.054 34.345 Q 252.147 33.013 252.4 32 A 13.936 13.936 0 0 1 252.127 30.398 Q 252 29.294 252 28 A 23.85 23.85 0 0 1 252.054 26.345 Q 252.147 25.013 252.4 24 A 13.936 13.936 0 0 1 252.127 22.398 Q 252 21.294 252 20 A 23.85 23.85 0 0 1 252.054 18.345 Q 252.147 17.013 252.4 16 A 13.936 13.936 0 0 1 252.127 14.398 Q 252 13.294 252 12 A 23.85 23.85 0 0 1 252.054 10.345 Q 252.147 9.013 252.4 8 L 240.4 8 A 13.936 13.936 0 0 1 240.127 6.398 Q 240 5.294 240 4 A 23.85 23.85 0 0 1 240.054 2.345 Q 240.147 1.013 240.4 0 L 272.4 0 Q 272.698 1.194 272.774 2.833 A 25.306 25.306 0 0 1 272.8 4 Q 272.8 5.968 272.507 7.496 A 12.311 12.311 0 0 1 272.4 8 Z M 619.4 24 L 609.4 24 A 11.741 11.741 0 0 1 609.644 25.313 Q 609.737 26.018 609.774 26.833 A 25.306 25.306 0 0 1 609.8 28 Q 609.8 29.968 609.507 31.496 A 12.311 12.311 0 0 1 609.4 32 L 606.4 32 A 11.741 11.741 0 0 1 606.644 33.313 Q 606.737 34.018 606.774 34.833 A 25.306 25.306 0 0 1 606.8 36 Q 606.8 37.968 606.507 39.496 A 12.311 12.311 0 0 1 606.4 40 L 609.4 40 A 11.741 11.741 0 0 1 609.644 41.313 Q 609.737 42.018 609.774 42.833 A 25.306 25.306 0 0 1 609.8 44 Q 609.8 45.968 609.507 47.496 A 12.311 12.311 0 0 1 609.4 48 L 619.4 48 Q 619.698 49.194 619.774 50.833 A 25.306 25.306 0 0 1 619.8 52 Q 619.8 53.968 619.507 55.496 A 12.311 12.311 0 0 1 619.4 56 L 608.4 56 A 13.936 13.936 0 0 1 608.127 54.398 Q 608 53.294 608 52 A 23.85 23.85 0 0 1 608.054 50.345 Q 608.147 49.013 608.4 48 L 603.4 48 A 13.936 13.936 0 0 1 603.127 46.398 Q 603 45.294 603 44 A 23.85 23.85 0 0 1 603.054 42.345 Q 603.147 41.013 603.4 40 L 600.4 40 A 13.936 13.936 0 0 1 600.127 38.398 Q 600 37.294 600 36 A 23.85 23.85 0 0 1 600.054 34.345 Q 600.147 33.013 600.4 32 L 603.4 32 A 13.936 13.936 0 0 1 603.127 30.398 Q 603 29.294 603 28 A 23.85 23.85 0 0 1 603.054 26.345 Q 603.147 25.013 603.4 24 L 608.4 24 A 13.936 13.936 0 0 1 608.127 22.398 Q 608 21.294 608 20 A 23.85 23.85 0 0 1 608.054 18.345 Q 608.147 17.013 608.4 16 L 619.4 16 Q 619.698 17.194 619.774 18.833 A 25.306 25.306 0 0 1 619.8 20 Q 619.8 21.968 619.507 23.496 A 12.311 12.311 0 0 1 619.4 24 Z M 632.4 56 L 624.4 56 A 13.936 13.936 0 0 1 624.127 54.398 Q 624 53.294 624 52 A 23.85 23.85 0 0 1 624.054 50.345 Q 624.147 49.013 624.4 48 L 621.4 48 A 13.936 13.936 0 0 1 621.127 46.398 Q 621 45.294 621 44 A 23.85 23.85 0 0 1 621.054 42.345 Q 621.147 41.013 621.4 40 L 624.4 40 A 13.936 13.936 0 0 1 624.127 38.398 Q 624 37.294 624 36 A 23.85 23.85 0 0 1 624.054 34.345 Q 624.147 33.013 624.4 32 L 621.4 32 A 13.936 13.936 0 0 1 621.127 30.398 Q 621 29.294 621 28 A 23.85 23.85 0 0 1 621.054 26.345 Q 621.147 25.013 621.4 24 L 624.4 24 A 13.936 13.936 0 0 1 624.127 22.398 Q 624 21.294 624 20 A 23.85 23.85 0 0 1 624.054 18.345 Q 624.147 17.013 624.4 16 A 13.936 13.936 0 0 1 624.127 14.398 Q 624 13.294 624 12 A 23.85 23.85 0 0 1 624.054 10.345 Q 624.147 9.013 624.4 8 A 13.936 13.936 0 0 1 624.127 6.398 Q 624 5.294 624 4 A 23.85 23.85 0 0 1 624.054 2.345 Q 624.147 1.013 624.4 0 L 632.4 0 Q 632.698 1.194 632.774 2.833 A 25.306 25.306 0 0 1 632.8 4 Q 632.8 5.968 632.507 7.496 A 12.311 12.311 0 0 1 632.4 8 Q 632.698 9.194 632.774 10.833 A 25.306 25.306 0 0 1 632.8 12 Q 632.8 13.968 632.507 15.496 A 12.311 12.311 0 0 1 632.4 16 Q 632.698 17.194 632.774 18.833 A 25.306 25.306 0 0 1 632.8 20 Q 632.8 21.968 632.507 23.496 A 12.311 12.311 0 0 1 632.4 24 Q 632.698 25.194 632.774 26.833 A 25.306 25.306 0 0 1 632.8 28 Q 632.8 29.968 632.507 31.496 A 12.311 12.311 0 0 1 632.4 32 Q 632.698 33.194 632.774 34.833 A 25.306 25.306 0 0 1 632.8 36 Q 632.8 37.968 632.507 39.496 A 12.311 12.311 0 0 1 632.4 40 Q 632.698 41.194 632.774 42.833 A 25.306 25.306 0 0 1 632.8 44 Q 632.8 45.968 632.507 47.496 A 12.311 12.311 0 0 1 632.4 48 Q 632.698 49.194 632.774 50.833 A 25.306 25.306 0 0 1 632.8 52 Q 632.8 53.968 632.507 55.496 A 12.311 12.311 0 0 1 632.4 56 Z M 166.4 24 L 186.4 24 Q 186.698 25.194 186.774 26.833 A 25.306 25.306 0 0 1 186.8 28 Q 186.8 29.968 186.507 31.496 A 12.311 12.311 0 0 1 186.4 32 L 166.4 32 A 13.936 13.936 0 0 1 166.127 30.398 Q 166 29.294 166 28 A 23.85 23.85 0 0 1 166.054 26.345 Q 166.147 25.013 166.4 24 Z M 344.4 24 L 331.4 24 A 11.741 11.741 0 0 1 331.644 25.313 Q 331.737 26.018 331.774 26.833 A 25.306 25.306 0 0 1 331.8 28 Q 331.8 29.968 331.507 31.496 A 12.311 12.311 0 0 1 331.4 32 L 344.4 32 A 13.936 13.936 0 0 1 344.127 30.398 Q 344 29.294 344 28 A 23.85 23.85 0 0 1 344.054 26.345 Q 344.147 25.013 344.4 24 Z M 584.4 24 L 571.4 24 A 11.741 11.741 0 0 1 571.644 25.313 Q 571.737 26.018 571.774 26.833 A 25.306 25.306 0 0 1 571.8 28 Q 571.8 29.968 571.507 31.496 A 12.311 12.311 0 0 1 571.4 32 L 584.4 32 A 13.936 13.936 0 0 1 584.127 30.398 Q 584 29.294 584 28 A 23.85 23.85 0 0 1 584.054 26.345 Q 584.147 25.013 584.4 24 Z M 540.4 56 A 12.311 12.311 0 0 0 540.507 55.496 Q 540.8 53.968 540.8 52 A 25.306 25.306 0 0 0 540.774 50.833 Q 540.698 49.194 540.4 48" vector-effect="non-scaling-stroke"/></g></svg>