<svg width="472.8" height="56" viewBox="0 0 472.8 56" xmlns="http://www.w3.org/2000/svg"><g id="svgGroup" stroke-linecap="round" fill-rule="evenodd" font-size="9pt" stroke="#000" stroke-width="0.25mm" fill="#000" style="stroke:#000;stroke-width:0.25mm;fill:#000"><path d="M 29.4 48 L 32.4 48 Q 32.698 49.194 32.774 50.833 A 25.306 25.306 0 0 1 32.8 52 Q 32.8 53.968 32.507 55.496 A 12.311 12.311 0 0 1 32.4 56 L 24.4 56 A 13.936 13.936 0 0 1 24.127 54.398 Q 24 53.294 24 52 A 23.85 23.85 0 0 1 24.054 50.345 Q 24.147 49.013 24.4 48 L 21.4 48 A 13.936 13.936 0 0 1 21.127 46.398 Q 21 45.294 21 44 A 23.85 23.85 0 0 1 21.054 42.345 Q 21.147 41.013 21.4 40 L 19.4 40 A 13.936 13.936 0 0 1 19.127 38.398 Q 19 37.294 19 36 A 23.85 23.85 0 0 1 19.054 34.345 Q 19.147 33.013 19.4 32 L 13.4 32 A 11.741 11.741 0 0 1 13.644 33.313 Q 13.737 34.018 13.774 34.833 A 25.306 25.306 0 0 1 13.8 36 Q 13.8 37.968 13.507 39.496 A 12.311 12.311 0 0 1 13.4 40 L 11.4 40 A 11.741 11.741 0 0 1 11.644 41.313 Q 11.737 42.018 11.774 42.833 A 25.306 25.306 0 0 1 11.8 44 Q 11.8 45.968 11.507 47.496 A 12.311 12.311 0 0 1 11.4 48 L 8.4 48 A 11.741 11.741 0 0 1 8.644 49.313 Q 8.737 50.018 8.774 50.833 A 25.306 25.306 0 0 1 8.8 52 Q 8.8 53.968 8.507 55.496 A 12.311 12.311 0 0 1 8.4 56 L 0.4 56 A 13.936 13.936 0 0 1 0.127 54.398 Q 0 53.294 0 52 A 23.85 23.85 0 0 1 0.054 50.345 Q 0.147 49.013 0.4 48 L 3.4 48 A 13.936 13.936 0 0 1 3.127 46.398 Q 3 45.294 3 44 A 23.85 23.85 0 0 1 3.054 42.345 Q 3.147 41.013 3.4 40 L 7.4 40 A 13.936 13.936 0 0 1 7.127 38.398 Q 7 37.294 7 36 A 23.85 23.85 0 0 1 7.054 34.345 Q 7.147 33.013 7.4 32 L 10.4 32 A 13.936 13.936 0 0 1 10.127 30.398 Q 10 29.294 10 28 A 23.85 23.85 0 0 1 10.054 26.345 Q 10.147 25.013 10.4 24 L 7.4 24 A 13.936 13.936 0 0 1 7.127 22.398 Q 7 21.294 7 20 A 23.85 23.85 0 0 1 7.054 18.345 Q 7.147 17.013 7.4 16 L 3.4 16 A 13.936 13.936 0 0 1 3.127 14.398 Q 3 13.294 3 12 A 23.85 23.85 0 0 1 3.054 10.345 Q 3.147 9.013 3.4 8 L 0.4 8 A 13.936 13.936 0 0 1 0.127 6.398 Q 0 5.294 0 4 A 23.85 23.85 0 0 1 0.054 2.345 Q 0.147 1.013 0.4 0 L 8.4 0 A 11.741 11.741 0 0 1 8.644 1.313 Q 8.737 2.018 8.774 2.833 A 25.306 25.306 0 0 1 8.8 4 Q 8.8 5.968 8.507 7.496 A 12.311 12.311 0 0 1 8.4 8 L 11.4 8 A 11.741 11.741 0 0 1 11.644 9.313 Q 11.737 10.018 11.774 10.833 A 25.306 25.306 0 0 1 11.8 12 Q 11.8 13.968 11.507 15.496 A 12.311 12.311 0 0 1 11.4 16 L 13.4 16 A 11.741 11.741 0 0 1 13.644 17.313 Q 13.737 18.018 13.774 18.833 A 25.306 25.306 0 0 1 13.8 20 Q 13.8 21.968 13.507 23.496 A 12.311 12.311 0 0 1 13.4 24 L 19.4 24 A 13.936 13.936 0 0 1 19.127 22.398 Q 19 21.294 19 20 A 23.85 23.85 0 0 1 19.054 18.345 Q 19.147 17.013 19.4 16 L 21.4 16 A 13.936 13.936 0 0 1 21.127 14.398 Q 21 13.294 21 12 A 23.85 23.85 0 0 1 21.054 10.345 Q 21.147 9.013 21.4 8 L 24.4 8 A 13.936 13.936 0 0 1 24.127 6.398 Q 24 5.294 24 4 A 23.85 23.85 0 0 1 24.054 2.345 Q 24.147 1.013 24.4 0 L 32.4 0 Q 32.698 1.194 32.774 2.833 A 25.306 25.306 0 0 1 32.8 4 Q 32.8 5.968 32.507 7.496 A 12.311 12.311 0 0 1 32.4 8 L 29.4 8 A 11.741 11.741 0 0 1 29.644 9.313 Q 29.737 10.018 29.774 10.833 A 25.306 25.306 0 0 1 29.8 12 Q 29.8 13.968 29.507 15.496 A 12.311 12.311 0 0 1 29.4 16 L 25.4 16 Q 25.698 17.194 25.774 18.833 A 25.306 25.306 0 0 1 25.8 20 Q 25.8 21.968 25.507 23.496 A 12.311 12.311 0 0 1 25.4 24 L 22.4 24 Q 22.698 25.194 22.774 26.833 A 25.306 25.306 0 0 1 22.8 28 Q 22.8 29.968 22.507 31.496 A 12.311 12.311 0 0 1 22.4 32 L 25.4 32 Q 25.698 33.194 25.774 34.833 A 25.306 25.306 0 0 1 25.8 36 Q 25.8 37.968 25.507 39.496 A 12.311 12.311 0 0 1 25.4 40 L 29.4 40 A 11.741 11.741 0 0 1 29.644 41.313 Q 29.737 42.018 29.774 42.833 A 25.306 25.306 0 0 1 29.8 44 Q 29.8 45.968 29.507 47.496 A 12.311 12.311 0 0 1 29.4 48 Z M 448.4 24 L 451.4 24 L 464.4 24 Q 464.147 25.013 464.054 26.345 A 23.85 23.85 0 0 0 464 28 Q 464 29.294 464.127 30.398 A 13.936 13.936 0 0 0 464.4 32 Q 464.147 33.013 464.054 34.345 A 23.85 23.85 0 0 0 464 36 Q 464 37.294 464.127 38.398 A 13.936 13.936 0 0 0 464.4 40 Q 464.147 41.013 464.054 42.345 A 23.85 23.85 0 0 0 464 44 Q 464 45.294 464.127 46.398 A 13.936 13.936 0 0 0 464.4 48 Q 464.147 49.013 464.054 50.345 A 23.85 23.85 0 0 0 464 52 Q 464 53.294 464.127 54.398 A 13.936 13.936 0 0 0 464.4 56 L 472.4 56 A 12.311 12.311 0 0 0 472.507 55.496 Q 472.8 53.968 472.8 52 A 25.306 25.306 0 0 0 472.774 50.833 Q 472.698 49.194 472.4 48 A 12.311 12.311 0 0 0 472.507 47.496 Q 472.8 45.968 472.8 44 A 25.306 25.306 0 0 0 472.774 42.833 Q 472.698 41.194 472.4 40 A 12.311 12.311 0 0 0 472.507 39.496 Q 472.8 37.968 472.8 36 A 25.306 25.306 0 0 0 472.774 34.833 Q 472.698 33.194 472.4 32 A 12.311 12.311 0 0 0 472.507 31.496 Q 472.8 29.968 472.8 28 A 25.306 25.306 0 0 0 472.774 26.833 Q 472.698 25.194 472.4 24 L 467.4 24 A 12.311 12.311 0 0 0 467.507 23.496 Q 467.8 21.968 467.8 20 A 25.306 25.306 0 0 0 467.774 18.833 Q 467.698 17.194 467.4 16 L 451.4 16 Q 451.147 17.013 451.054 18.345 A 23.85 23.85 0 0 0 451 20 Q 451 21.294 451.127 22.398 A 13.936 13.936 0 0 0 451.4 24 A 11.741 11.741 0 0 1 451.644 25.313 Q 451.737 26.018 451.774 26.833 A 25.306 25.306 0 0 1 451.8 28 Q 451.8 29.968 451.507 31.496 A 12.311 12.311 0 0 1 451.4 32 L 448.4 32 A 11.741 11.741 0 0 1 448.644 33.313 Q 448.737 34.018 448.774 34.833 A 25.306 25.306 0 0 1 448.8 36 Q 448.8 37.968 448.507 39.496 A 12.311 12.311 0 0 1 448.4 40 A 11.741 11.741 0 0 1 448.644 41.313 Q 448.737 42.018 448.774 42.833 A 25.306 25.306 0 0 1 448.8 44 Q 448.8 45.968 448.507 47.496 A 12.311 12.311 0 0 1 448.4 48 A 11.741 11.741 0 0 1 448.644 49.313 Q 448.737 50.018 448.774 50.833 A 25.306 25.306 0 0 1 448.8 52 Q 448.8 53.968 448.507 55.496 A 12.311 12.311 0 0 1 448.4 56 L 440.4 56 A 13.936 13.936 0 0 1 440.127 54.398 Q 440 53.294 440 52 A 23.85 23.85 0 0 1 440.054 50.345 Q 440.147 49.013 440.4 48 A 13.936 13.936 0 0 1 440.127 46.398 Q 440 45.294 440 44 A 23.85 23.85 0 0 1 440.054 42.345 Q 440.147 41.013 440.4 40 A 13.936 13.936 0 0 1 440.127 38.398 Q 440 37.294 440 36 A 23.85 23.85 0 0 1 440.054 34.345 Q 440.147 33.013 440.4 32 A 13.936 13.936 0 0 1 440.127 30.398 Q 440 29.294 440 28 A 23.85 23.85 0 0 1 440.054 26.345 Q 440.147 25.013 440.4 24 A 13.936 13.936 0 0 1 440.127 22.398 Q 440 21.294 440 20 A 23.85 23.85 0 0 1 440.054 18.345 Q 440.147 17.013 440.4 16 A 13.936 13.936 0 0 1 440.127 14.398 Q 440 13.294 440 12 A 23.85 23.85 0 0 1 440.054 10.345 Q 440.147 9.013 440.4 8 A 13.936 13.936 0 0 1 440.127 6.398 Q 440 5.294 440 4 A 23.85 23.85 0 0 1 440.054 2.345 Q 440.147 1.013 440.4 0 L 448.4 0 A 11.741 11.741 0 0 1 448.644 1.313 Q 448.737 2.018 448.774 2.833 A 25.306 25.306 0 0 1 448.8 4 Q 448.8 5.968 448.507 7.496 A 12.311 12.311 0 0 1 448.4 8 A 11.741 11.741 0 0 1 448.644 9.313 Q 448.737 10.018 448.774 10.833 A 25.306 25.306 0 0 1 448.8 12 Q 448.8 13.968 448.507 15.496 A 12.311 12.311 0 0 1 448.4 16 A 11.741 11.741 0 0 1 448.644 17.313 Q 448.737 18.018 448.774 18.833 A 25.306 25.306 0 0 1 448.8 20 Q 448.8 21.968 448.507 23.496 A 12.311 12.311 0 0 1 448.4 24 Z M 380.4 48 A 13.936 13.936 0 0 1 380.127 46.398 Q 380 45.294 380 44 A 23.85 23.85 0 0 1 380.054 42.345 Q 380.147 41.013 380.4 40 L 368.4 40 A 11.741 11.741 0 0 1 368.644 41.313 Q 368.737 42.018 368.774 42.833 A 25.306 25.306 0 0 1 368.8 44 Q 368.8 45.968 368.507 47.496 A 12.311 12.311 0 0 1 368.4 48 L 380.4 48 L 384.4 48 Q 384.147 49.013 384.054 50.345 A 23.85 23.85 0 0 0 384 52 Q 384 53.294 384.127 54.398 A 13.936 13.936 0 0 0 384.4 56 L 392.4 56 A 12.311 12.311 0 0 0 392.507 55.496 Q 392.8 53.968 392.8 52 A 25.306 25.306 0 0 0 392.774 50.833 Q 392.698 49.194 392.4 48 L 388.4 48 A 12.311 12.311 0 0 0 388.507 47.496 Q 388.8 45.968 388.8 44 A 25.306 25.306 0 0 0 388.774 42.833 Q 388.737 42.018 388.644 41.313 A 11.741 11.741 0 0 0 388.4 40 A 12.311 12.311 0 0 0 388.507 39.496 Q 388.8 37.968 388.8 36 A 25.306 25.306 0 0 0 388.774 34.833 Q 388.737 34.018 388.644 33.313 A 11.741 11.741 0 0 0 388.4 32 A 12.311 12.311 0 0 0 388.507 31.496 Q 388.8 29.968 388.8 28 A 25.306 25.306 0 0 0 388.774 26.833 Q 388.737 26.018 388.644 25.313 A 11.741 11.741 0 0 0 388.4 24 L 384.4 24 A 12.311 12.311 0 0 0 384.507 23.496 Q 384.8 21.968 384.8 20 A 25.306 25.306 0 0 0 384.774 18.833 Q 384.698 17.194 384.4 16 L 366.4 16 Q 366.147 17.013 366.054 18.345 A 23.85 23.85 0 0 0 366 20 Q 366 21.294 366.127 22.398 A 13.936 13.936 0 0 0 366.4 24 L 380.4 24 Q 380.147 25.013 380.054 26.345 A 23.85 23.85 0 0 0 380 28 Q 380 29.294 380.127 30.398 A 13.936 13.936 0 0 0 380.4 32 L 364.4 32 Q 364.147 33.013 364.054 34.345 A 23.85 23.85 0 0 0 364 36 Q 364 37.294 364.127 38.398 A 13.936 13.936 0 0 0 364.4 40 L 360.4 40 Q 360.147 41.013 360.054 42.345 A 23.85 23.85 0 0 0 360 44 Q 360 45.294 360.127 46.398 A 13.936 13.936 0 0 0 360.4 48 L 364.4 48 Q 364.147 49.013 364.054 50.345 A 23.85 23.85 0 0 0 364 52 Q 364 53.294 364.127 54.398 A 13.936 13.936 0 0 0 364.4 56 L 380.4 56 A 12.311 12.311 0 0 0 380.507 55.496 Q 380.8 53.968 380.8 52 A 25.306 25.306 0 0 0 380.774 50.833 Q 380.698 49.194 380.4 48 Z M 416.4 48 L 428.4 48 A 11.741 11.741 0 0 1 428.644 49.313 Q 428.737 50.018 428.774 50.833 A 25.306 25.306 0 0 1 428.8 52 Q 428.8 53.968 428.507 55.496 A 12.311 12.311 0 0 1 428.4 56 L 412.4 56 A 13.936 13.936 0 0 1 412.127 54.398 Q 412 53.294 412 52 A 23.85 23.85 0 0 1 412.054 50.345 Q 412.147 49.013 412.4 48 L 408.4 48 A 13.936 13.936 0 0 1 408.127 46.398 Q 408 45.294 408 44 A 23.85 23.85 0 0 1 408.054 42.345 Q 408.147 41.013 408.4 40 A 13.936 13.936 0 0 1 408.127 38.398 Q 408 37.294 408 36 A 23.85 23.85 0 0 1 408.054 34.345 Q 408.147 33.013 408.4 32 A 13.936 13.936 0 0 1 408.127 30.398 Q 408 29.294 408 28 A 23.85 23.85 0 0 1 408.054 26.345 Q 408.147 25.013 408.4 24 L 400.4 24 A 13.936 13.936 0 0 1 400.127 22.398 Q 400 21.294 400 20 A 23.85 23.85 0 0 1 400.054 18.345 Q 400.147 17.013 400.4 16 L 408.4 16 A 13.936 13.936 0 0 1 408.127 14.398 Q 408 13.294 408 12 A 23.85 23.85 0 0 1 408.054 10.345 Q 408.147 9.013 408.4 8 A 13.936 13.936 0 0 1 408.127 6.398 Q 408 5.294 408 4 A 23.85 23.85 0 0 1 408.054 2.345 Q 408.147 1.013 408.4 0 L 416.4 0 Q 416.698 1.194 416.774 2.833 A 25.306 25.306 0 0 1 416.8 4 Q 416.8 5.968 416.507 7.496 A 12.311 12.311 0 0 1 416.4 8 Q 416.698 9.194 416.774 10.833 A 25.306 25.306 0 0 1 416.8 12 Q 416.8 13.968 416.507 15.496 A 12.311 12.311 0 0 1 416.4 16 L 428.4 16 A 11.741 11.741 0 0 1 428.644 17.313 Q 428.737 18.018 428.774 18.833 A 25.306 25.306 0 0 1 428.8 20 Q 428.8 21.968 428.507 23.496 A 12.311 12.311 0 0 1 428.4 24 L 416.4 24 Q 416.698 25.194 416.774 26.833 A 25.306 25.306 0 0 1 416.8 28 Q 416.8 29.968 416.507 31.496 A 12.311 12.311 0 0 1 416.4 32 Q 416.698 33.194 416.774 34.833 A 25.306 25.306 0 0 1 416.8 36 Q 416.8 37.968 416.507 39.496 A 12.311 12.311 0 0 1 416.4 40 Q 416.698 41.194 416.774 42.833 A 25.306 25.306 0 0 1 416.8 44 Q 416.8 45.968 416.507 47.496 A 12.311 12.311 0 0 1 416.4 48 Z M 352.4 40 L 331.4 40 A 11.741 11.741 0 0 1 331.644 41.313 Q 331.737 42.018 331.774 42.833 A 25.306 25.306 0 0 1 331.8 44 Q 331.8 45.968 331.507 47.496 A 12.311 12.311 0 0 1 331.4 48 L 348.4 48 A 11.741 11.741 0 0 1 348.644 49.313 Q 348.737 50.018 348.774 50.833 A 25.306 25.306 0 0 1 348.8 52 Q 348.8 53.968 348.507 55.496 A 12.311 12.311 0 0 1 348.4 56 L 328.4 56 A 13.936 13.936 0 0 1 328.127 54.398 Q 328 53.294 328 52 A 23.85 23.85 0 0 1 328.054 50.345 Q 328.147 49.013 328.4 48 L 323.4 48 A 13.936 13.936 0 0 1 323.127 46.398 Q 323 45.294 323 44 A 23.85 23.85 0 0 1 323.054 42.345 Q 323.147 41.013 323.4 40 L 320.4 40 A 13.936 13.936 0 0 1 320.127 38.398 Q 320 37.294 320 36 A 23.85 23.85 0 0 1 320.054 34.345 Q 320.147 33.013 320.4 32 L 323.4 32 A 13.936 13.936 0 0 1 323.127 30.398 Q 323 29.294 323 28 A 23.85 23.85 0 0 1 323.054 26.345 Q 323.147 25.013 323.4 24 L 328.4 24 A 13.936 13.936 0 0 1 328.127 22.398 Q 328 21.294 328 20 A 23.85 23.85 0 0 1 328.054 18.345 Q 328.147 17.013 328.4 16 L 348.4 16 A 11.741 11.741 0 0 1 348.644 17.313 Q 348.737 18.018 348.774 18.833 A 25.306 25.306 0 0 1 348.8 20 Q 348.8 21.968 348.507 23.496 A 12.311 12.311 0 0 1 348.4 24 L 352.4 24 Q 352.698 25.194 352.774 26.833 A 25.306 25.306 0 0 1 352.8 28 Q 352.8 29.968 352.507 31.496 A 12.311 12.311 0 0 1 352.4 32 Q 352.698 33.194 352.774 34.833 A 25.306 25.306 0 0 1 352.8 36 Q 352.8 37.968 352.507 39.496 A 12.311 12.311 0 0 1 352.4 40 Z M 60.4 48 L 66.4 48 Q 66.698 49.194 66.774 50.833 A 25.306 25.306 0 0 1 66.8 52 Q 66.8 53.968 66.507 55.496 A 12.311 12.311 0 0 1 66.4 56 L 46.4 56 A 13.936 13.936 0 0 1 46.127 54.398 Q 46 53.294 46 52 A 23.85 23.85 0 0 1 46.054 50.345 Q 46.147 49.013 46.4 48 L 52.4 48 A 13.936 13.936 0 0 1 52.127 46.398 Q 52 45.294 52 44 A 23.85 23.85 0 0 1 52.054 42.345 Q 52.147 41.013 52.4 40 A 13.936 13.936 0 0 1 52.127 38.398 Q 52 37.294 52 36 A 23.85 23.85 0 0 1 52.054 34.345 Q 52.147 33.013 52.4 32 A 13.936 13.936 0 0 1 52.127 30.398 Q 52 29.294 52 28 A 23.85 23.85 0 0 1 52.054 26.345 Q 52.147 25.013 52.4 24 A 13.936 13.936 0 0 1 52.127 22.398 Q 52 21.294 52 20 A 23.85 23.85 0 0 1 52.054 18.345 Q 52.147 17.013 52.4 16 A 13.936 13.936 0 0 1 52.127 14.398 Q 52 13.294 52 12 A 23.85 23.85 0 0 1 52.054 10.345 Q 52.147 9.013 52.4 8 L 46.4 8 A 13.936 13.936 0 0 1 46.127 6.398 Q 46 5.294 46 4 A 23.85 23.85 0 0 1 46.054 2.345 Q 46.147 1.013 46.4 0 L 66.4 0 Q 66.698 1.194 66.774 2.833 A 25.306 25.306 0 0 1 66.8 4 Q 66.8 5.968 66.507 7.496 A 12.311 12.311 0 0 1 66.4 8 L 60.4 8 Q 60.698 9.194 60.774 10.833 A 25.306 25.306 0 0 1 60.8 12 Q 60.8 13.968 60.507 15.496 A 12.311 12.311 0 0 1 60.4 16 Q 60.698 17.194 60.774 18.833 A 25.306 25.306 0 0 1 60.8 20 Q 60.8 21.968 60.507 23.496 A 12.311 12.311 0 0 1 60.4 24 Q 60.698 25.194 60.774 26.833 A 25.306 25.306 0 0 1 60.8 28 Q 60.8 29.968 60.507 31.496 A 12.311 12.311 0 0 1 60.4 32 Q 60.698 33.194 60.774 34.833 A 25.306 25.306 0 0 1 60.8 36 Q 60.8 37.968 60.507 39.496 A 12.311 12.311 0 0 1 60.4 40 Q 60.698 41.194 60.774 42.833 A 25.306 25.306 0 0 1 60.8 44 Q 60.8 45.968 60.507 47.496 A 12.311 12.311 0 0 1 60.4 48 Z M 100.4 48 L 106.4 48 Q 106.698 49.194 106.774 50.833 A 25.306 25.306 0 0 1 106.8 52 Q 106.8 53.968 106.507 55.496 A 12.311 12.311 0 0 1 106.4 56 L 86.4 56 A 13.936 13.936 0 0 1 86.127 54.398 Q 86 53.294 86 52 A 23.85 23.85 0 0 1 86.054 50.345 Q 86.147 49.013 86.4 48 L 92.4 48 A 13.936 13.936 0 0 1 92.127 46.398 Q 92 45.294 92 44 A 23.85 23.85 0 0 1 92.054 42.345 Q 92.147 41.013 92.4 40 A 13.936 13.936 0 0 1 92.127 38.398 Q 92 37.294 92 36 A 23.85 23.85 0 0 1 92.054 34.345 Q 92.147 33.013 92.4 32 A 13.936 13.936 0 0 1 92.127 30.398 Q 92 29.294 92 28 A 23.85 23.85 0 0 1 92.054 26.345 Q 92.147 25.013 92.4 24 A 13.936 13.936 0 0 1 92.127 22.398 Q 92 21.294 92 20 A 23.85 23.85 0 0 1 92.054 18.345 Q 92.147 17.013 92.4 16 A 13.936 13.936 0 0 1 92.127 14.398 Q 92 13.294 92 12 A 23.85 23.85 0 0 1 92.054 10.345 Q 92.147 9.013 92.4 8 L 86.4 8 A 13.936 13.936 0 0 1 86.127 6.398 Q 86 5.294 86 4 A 23.85 23.85 0 0 1 86.054 2.345 Q 86.147 1.013 86.4 0 L 106.4 0 Q 106.698 1.194 106.774 2.833 A 25.306 25.306 0 0 1 106.8 4 Q 106.8 5.968 106.507 7.496 A 12.311 12.311 0 0 1 106.4 8 L 100.4 8 Q 100.698 9.194 100.774 10.833 A 25.306 25.306 0 0 1 100.8 12 Q 100.8 13.968 100.507 15.496 A 12.311 12.311 0 0 1 100.4 16 Q 100.698 17.194 100.774 18.833 A 25.306 25.306 0 0 1 100.8 20 Q 100.8 21.968 100.507 23.496 A 12.311 12.311 0 0 1 100.4 24 Q 100.698 25.194 100.774 26.833 A 25.306 25.306 0 0 1 100.8 28 Q 100.8 29.968 100.507 31.496 A 12.311 12.311 0 0 1 100.4 32 Q 100.698 33.194 100.774 34.833 A 25.306 25.306 0 0 1 100.8 36 Q 100.8 37.968 100.507 39.496 A 12.311 12.311 0 0 1 100.4 40 Q 100.698 41.194 100.774 42.833 A 25.306 25.306 0 0 1 100.8 44 Q 100.8 45.968 100.507 47.496 A 12.311 12.311 0 0 1 100.4 48 Z M 140.4 48 L 146.4 48 Q 146.698 49.194 146.774 50.833 A 25.306 25.306 0 0 1 146.8 52 Q 146.8 53.968 146.507 55.496 A 12.311 12.311 0 0 1 146.4 56 L 126.4 56 A 13.936 13.936 0 0 1 126.127 54.398 Q 126 53.294 126 52 A 23.85 23.85 0 0 1 126.054 50.345 Q 126.147 49.013 126.4 48 L 132.4 48 A 13.936 13.936 0 0 1 132.127 46.398 Q 132 45.294 132 44 A 23.85 23.85 0 0 1 132.054 42.345 Q 132.147 41.013 132.4 40 A 13.936 13.936 0 0 1 132.127 38.398 Q 132 37.294 132 36 A 23.85 23.85 0 0 1 132.054 34.345 Q 132.147 33.013 132.4 32 A 13.936 13.936 0 0 1 132.127 30.398 Q 132 29.294 132 28 A 23.85 23.85 0 0 1 132.054 26.345 Q 132.147 25.013 132.4 24 A 13.936 13.936 0 0 1 132.127 22.398 Q 132 21.294 132 20 A 23.85 23.85 0 0 1 132.054 18.345 Q 132.147 17.013 132.4 16 A 13.936 13.936 0 0 1 132.127 14.398 Q 132 13.294 132 12 A 23.85 23.85 0 0 1 132.054 10.345 Q 132.147 9.013 132.4 8 L 126.4 8 A 13.936 13.936 0 0 1 126.127 6.398 Q 126 5.294 126 4 A 23.85 23.85 0 0 1 126.054 2.345 Q 126.147 1.013 126.4 0 L 146.4 0 Q 146.698 1.194 146.774 2.833 A 25.306 25.306 0 0 1 146.8 4 Q 146.8 5.968 146.507 7.496 A 12.311 12.311 0 0 1 146.4 8 L 140.4 8 Q 140.698 9.194 140.774 10.833 A 25.306 25.306 0 0 1 140.8 12 Q 140.8 13.968 140.507 15.496 A 12.311 12.311 0 0 1 140.4 16 Q 140.698 17.194 140.774 18.833 A 25.306 25.306 0 0 1 140.8 20 Q 140.8 21.968 140.507 23.496 A 12.311 12.311 0 0 1 140.4 24 Q 140.698 25.194 140.774 26.833 A 25.306 25.306 0 0 1 140.8 28 Q 140.8 29.968 140.507 31.496 A 12.311 12.311 0 0 1 140.4 32 Q 140.698 33.194 140.774 34.833 A 25.306 25.306 0 0 1 140.8 36 Q 140.8 37.968 140.507 39.496 A 12.311 12.311 0 0 1 140.4 40 Q 140.698 41.194 140.774 42.833 A 25.306 25.306 0 0 1 140.8 44 Q 140.8 45.968 140.507 47.496 A 12.311 12.311 0 0 1 140.4 48 Z M 312.4 40 L 308.4 40 A 11.741 11.741 0 0 1 308.644 41.313 Q 308.737 42.018 308.774 42.833 A 25.306 25.306 0 0 1 308.8 44 Q 308.8 45.968 308.507 47.496 A 12.311 12.311 0 0 1 308.4 48 L 304.4 48 Q 304.698 49.194 304.774 50.833 A 25.306 25.306 0 0 1 304.8 52 Q 304.8 53.968 304.507 55.496 A 12.311 12.311 0 0 1 304.4 56 L 280.4 56 A 13.936 13.936 0 0 1 280.127 54.398 Q 280 53.294 280 52 A 23.85 23.85 0 0 1 280.054 50.345 Q 280.147 49.013 280.4 48 A 13.936 13.936 0 0 1 280.127 46.398 Q 280 45.294 280 44 A 23.85 23.85 0 0 1 280.054 42.345 Q 280.147 41.013 280.4 40 A 13.936 13.936 0 0 1 280.127 38.398 Q 280 37.294 280 36 A 23.85 23.85 0 0 1 280.054 34.345 Q 280.147 33.013 280.4 32 A 13.936 13.936 0 0 1 280.127 30.398 Q 280 29.294 280 28 A 23.85 23.85 0 0 1 280.054 26.345 Q 280.147 25.013 280.4 24 A 13.936 13.936 0 0 1 280.127 22.398 Q 280 21.294 280 20 A 23.85 23.85 0 0 1 280.054 18.345 Q 280.147 17.013 280.4 16 A 13.936 13.936 0 0 1 280.127 14.398 Q 280 13.294 280 12 A 23.85 23.85 0 0 1 280.054 10.345 Q 280.147 9.013 280.4 8 A 13.936 13.936 0 0 1 280.127 6.398 Q 280 5.294 280 4 A 23.85 23.85 0 0 1 280.054 2.345 Q 280.147 1.013 280.4 0 L 304.4 0 Q 304.698 1.194 304.774 2.833 A 25.306 25.306 0 0 1 304.8 4 Q 304.8 5.968 304.507 7.496 A 12.311 12.311 0 0 1 304.4 8 L 308.4 8 A 11.741 11.741 0 0 1 308.644 9.313 Q 308.737 10.018 308.774 10.833 A 25.306 25.306 0 0 1 308.8 12 Q 308.8 13.968 308.507 15.496 A 12.311 12.311 0 0 1 308.4 16 L 312.4 16 Q 312.698 17.194 312.774 18.833 A 25.306 25.306 0 0 1 312.8 20 Q 312.8 21.968 312.507 23.496 A 12.311 12.311 0 0 1 312.4 24 Q 312.698 25.194 312.774 26.833 A 25.306 25.306 0 0 1 312.8 28 Q 312.8 29.968 312.507 31.496 A 12.311 12.311 0 0 1 312.4 32 Q 312.698 33.194 312.774 34.833 A 25.306 25.306 0 0 1 312.8 36 Q 312.8 37.968 312.507 39.496 A 12.311 12.311 0 0 1 312.4 40 Z M 304.4 16 L 300.4 16 A 13.936 13.936 0 0 1 300.127 14.398 Q 300 13.294 300 12 A 23.85 23.85 0 0 1 300.054 10.345 Q 300.147 9.013 300.4 8 L 288.4 8 A 11.741 11.741 0 0 1 288.644 9.313 Q 288.737 10.018 288.774 10.833 A 25.306 25.306 0 0 1 288.8 12 Q 288.8 13.968 288.507 15.496 A 12.311 12.311 0 0 1 288.4 16 A 11.741 11.741 0 0 1 288.644 17.313 Q 288.737 18.018 288.774 18.833 A 25.306 25.306 0 0 1 288.8 20 Q 288.8 21.968 288.507 23.496 A 12.311 12.311 0 0 1 288.4 24 A 11.741 11.741 0 0 1 288.644 25.313 Q 288.737 26.018 288.774 26.833 A 25.306 25.306 0 0 1 288.8 28 Q 288.8 29.968 288.507 31.496 A 12.311 12.311 0 0 1 288.4 32 A 11.741 11.741 0 0 1 288.644 33.313 Q 288.737 34.018 288.774 34.833 A 25.306 25.306 0 0 1 288.8 36 Q 288.8 37.968 288.507 39.496 A 12.311 12.311 0 0 1 288.4 40 A 11.741 11.741 0 0 1 288.644 41.313 Q 288.737 42.018 288.774 42.833 A 25.306 25.306 0 0 1 288.8 44 Q 288.8 45.968 288.507 47.496 A 12.311 12.311 0 0 1 288.4 48 L 300.4 48 A 13.936 13.936 0 0 1 300.127 46.398 Q 300 45.294 300 44 A 23.85 23.85 0 0 1 300.054 42.345 Q 300.147 41.013 300.4 40 L 304.4 40 A 13.936 13.936 0 0 1 304.127 38.398 Q 304 37.294 304 36 A 23.85 23.85 0 0 1 304.054 34.345 Q 304.147 33.013 304.4 32 A 13.936 13.936 0 0 1 304.127 30.398 Q 304 29.294 304 28 A 23.85 23.85 0 0 1 304.054 26.345 Q 304.147 25.013 304.4 24 A 13.936 13.936 0 0 1 304.127 22.398 Q 304 21.294 304 20 A 23.85 23.85 0 0 1 304.054 18.345 Q 304.147 17.013 304.4 16 Z M 206.4 24 L 226.4 24 Q 226.698 25.194 226.774 26.833 A 25.306 25.306 0 0 1 226.8 28 Q 226.8 29.968 226.507 31.496 A 12.311 12.311 0 0 1 226.4 32 L 206.4 32 A 13.936 13.936 0 0 1 206.127 30.398 Q 206 29.294 206 28 A 23.85 23.85 0 0 1 206.054 26.345 Q 206.147 25.013 206.4 24 Z M 344.4 24 L 331.4 24 A 11.741 11.741 0 0 1 331.644 25.313 Q 331.737 26.018 331.774 26.833 A 25.306 25.306 0 0 1 331.8 28 Q 331.8 29.968 331.507 31.496 A 12.311 12.311 0 0 1 331.4 32 L 344.4 32 A 13.936 13.936 0 0 1 344.127 30.398 Q 344 29.294 344 28 A 23.85 23.85 0 0 1 344.054 26.345 Q 344.147 25.013 344.4 24 Z" vector-effect="non-scaling-stroke"/></g></svg>