<svg width="632.8" height="72" viewBox="0 0 632.8 72" xmlns="http://www.w3.org/2000/svg"><g id="svgGroup" stroke-linecap="round" fill-rule="evenodd" font-size="9pt" stroke="#000" stroke-width="0.25mm" fill="#000" style="stroke:#000;stroke-width:0.25mm;fill:#000"><path d="M 29.4 48 L 32.4 48 Q 32.698 49.194 32.774 50.833 A 25.306 25.306 0 0 1 32.8 52 Q 32.8 53.968 32.507 55.496 A 12.311 12.311 0 0 1 32.4 56 L 24.4 56 A 13.936 13.936 0 0 1 24.127 54.398 Q 24 53.294 24 52 A 23.85 23.85 0 0 1 24.054 50.345 Q 24.147 49.013 24.4 48 L 21.4 48 A 13.936 13.936 0 0 1 21.127 46.398 Q 21 45.294 21 44 A 23.85 23.85 0 0 1 21.054 42.345 Q 21.147 41.013 21.4 40 L 19.4 40 A 13.936 13.936 0 0 1 19.127 38.398 Q 19 37.294 19 36 A 23.85 23.85 0 0 1 19.054 34.345 Q 19.147 33.013 19.4 32 L 13.4 32 A 11.741 11.741 0 0 1 13.644 33.313 Q 13.737 34.018 13.774 34.833 A 25.306 25.306 0 0 1 13.8 36 Q 13.8 37.968 13.507 39.496 A 12.311 12.311 0 0 1 13.4 40 L 11.4 40 A 11.741 11.741 0 0 1 11.644 41.313 Q 11.737 42.018 11.774 42.833 A 25.306 25.306 0 0 1 11.8 44 Q 11.8 45.968 11.507 47.496 A 12.311 12.311 0 0 1 11.4 48 L 8.4 48 A 11.741 11.741 0 0 1 8.644 49.313 Q 8.737 50.018 8.774 50.833 A 25.306 25.306 0 0 1 8.8 52 Q 8.8 53.968 8.507 55.496 A 12.311 12.311 0 0 1 8.4 56 L 0.4 56 A 13.936 13.936 0 0 1 0.127 54.398 Q 0 53.294 0 52 A 23.85 23.85 0 0 1 0.054 50.345 Q 0.147 49.013 0.4 48 L 3.4 48 A 13.936 13.936 0 0 1 3.127 46.398 Q 3 45.294 3 44 A 23.85 23.85 0 0 1 3.054 42.345 Q 3.147 41.013 3.4 40 L 7.4 40 A 13.936 13.936 0 0 1 7.127 38.398 Q 7 37.294 7 36 A 23.85 23.85 0 0 1 7.054 34.345 Q 7.147 33.013 7.4 32 L 10.4 32 A 13.936 13.936 0 0 1 10.127 30.398 Q 10 29.294 10 28 A 23.85 23.85 0 0 1 10.054 26.345 Q 10.147 25.013 10.4 24 L 7.4 24 A 13.936 13.936 0 0 1 7.127 22.398 Q 7 21.294 7 20 A 23.85 23.85 0 0 1 7.054 18.345 Q 7.147 17.013 7.4 16 L 3.4 16 A 13.936 13.936 0 0 1 3.127 14.398 Q 3 13.294 3 12 A 23.85 23.85 0 0 1 3.054 10.345 Q 3.147 9.013 3.4 8 L 0.4 8 A 13.936 13.936 0 0 1 0.127 6.398 Q 0 5.294 0 4 A 23.85 23.85 0 0 1 0.054 2.345 Q 0.147 1.013 0.4 0 L 8.4 0 A 11.741 11.741 0 0 1 8.644 1.313 Q 8.737 2.018 8.774 2.833 A 25.306 25.306 0 0 1 8.8 4 Q 8.8 5.968 8.507 7.496 A 12.311 12.311 0 0 1 8.4 8 L 11.4 8 A 11.741 11.741 0 0 1 11.644 9.313 Q 11.737 10.018 11.774 10.833 A 25.306 25.306 0 0 1 11.8 12 Q 11.8 13.968 11.507 15.496 A 12.311 12.311 0 0 1 11.4 16 L 13.4 16 A 11.741 11.741 0 0 1 13.644 17.313 Q 13.737 18.018 13.774 18.833 A 25.306 25.306 0 0 1 13.8 20 Q 13.8 21.968 13.507 23.496 A 12.311 12.311 0 0 1 13.4 24 L 19.4 24 A 13.936 13.936 0 0 1 19.127 22.398 Q 19 21.294 19 20 A 23.85 23.85 0 0 1 19.054 18.345 Q 19.147 17.013 19.4 16 L 21.4 16 A 13.936 13.936 0 0 1 21.127 14.398 Q 21 13.294 21 12 A 23.85 23.85 0 0 1 21.054 10.345 Q 21.147 9.013 21.4 8 L 24.4 8 A 13.936 13.936 0 0 1 24.127 6.398 Q 24 5.294 24 4 A 23.85 23.85 0 0 1 24.054 2.345 Q 24.147 1.013 24.4 0 L 32.4 0 Q 32.698 1.194 32.774 2.833 A 25.306 25.306 0 0 1 32.8 4 Q 32.8 5.968 32.507 7.496 A 12.311 12.311 0 0 1 32.4 8 L 29.4 8 A 11.741 11.741 0 0 1 29.644 9.313 Q 29.737 10.018 29.774 10.833 A 25.306 25.306 0 0 1 29.8 12 Q 29.8 13.968 29.507 15.496 A 12.311 12.311 0 0 1 29.4 16 L 25.4 16 Q 25.698 17.194 25.774 18.833 A 25.306 25.306 0 0 1 25.8 20 Q 25.8 21.968 25.507 23.496 A 12.311 12.311 0 0 1 25.4 24 L 22.4 24 Q 22.698 25.194 22.774 26.833 A 25.306 25.306 0 0 1 22.8 28 Q 22.8 29.968 22.507 31.496 A 12.311 12.311 0 0 1 22.4 32 L 25.4 32 Q 25.698 33.194 25.774 34.833 A 25.306 25.306 0 0 1 25.8 36 Q 25.8 37.968 25.507 39.496 A 12.311 12.311 0 0 1 25.4 40 L 29.4 40 A 11.741 11.741 0 0 1 29.644 41.313 Q 29.737 42.018 29.774 42.833 A 25.306 25.306 0 0 1 29.8 44 Q 29.8 45.968 29.507 47.496 A 12.311 12.311 0 0 1 29.4 48 Z M 372.4 24 Q 372.698 25.194 372.774 26.833 A 25.306 25.306 0 0 1 372.8 28 Q 372.8 29.968 372.507 31.496 A 12.311 12.311 0 0 1 372.4 32 L 368.4 32 A 11.741 11.741 0 0 1 368.644 33.313 Q 368.737 34.018 368.774 34.833 A 25.306 25.306 0 0 1 368.8 36 Q 368.8 37.968 368.507 39.496 A 12.311 12.311 0 0 1 368.4 40 A 11.741 11.741 0 0 1 368.644 41.313 Q 368.737 42.018 368.774 42.833 A 25.306 25.306 0 0 1 368.8 44 Q 368.8 45.968 368.507 47.496 A 12.311 12.311 0 0 1 368.4 48 L 380.4 48 A 13.936 13.936 0 0 1 380.127 46.398 Q 380 45.294 380 44 A 23.85 23.85 0 0 1 380.054 42.345 Q 380.147 41.013 380.4 40 L 384.4 40 A 13.936 13.936 0 0 1 384.127 38.398 Q 384 37.294 384 36 A 23.85 23.85 0 0 1 384.054 34.345 Q 384.147 33.013 384.4 32 L 380.4 32 A 13.936 13.936 0 0 1 380.127 30.398 Q 380 29.294 380 28 A 23.85 23.85 0 0 1 380.054 26.345 Q 380.147 25.013 380.4 24 L 372.4 24 L 368.4 24 A 12.311 12.311 0 0 0 368.507 23.496 Q 368.8 21.968 368.8 20 A 25.306 25.306 0 0 0 368.774 18.833 Q 368.737 18.018 368.644 17.313 A 11.741 11.741 0 0 0 368.4 16 L 360.4 16 Q 360.147 17.013 360.054 18.345 A 23.85 23.85 0 0 0 360 20 Q 360 21.294 360.127 22.398 A 13.936 13.936 0 0 0 360.4 24 Q 360.147 25.013 360.054 26.345 A 23.85 23.85 0 0 0 360 28 Q 360 29.294 360.127 30.398 A 13.936 13.936 0 0 0 360.4 32 Q 360.147 33.013 360.054 34.345 A 23.85 23.85 0 0 0 360 36 Q 360 37.294 360.127 38.398 A 13.936 13.936 0 0 0 360.4 40 Q 360.147 41.013 360.054 42.345 A 23.85 23.85 0 0 0 360 44 Q 360 45.294 360.127 46.398 A 13.936 13.936 0 0 0 360.4 48 Q 360.147 49.013 360.054 50.345 A 23.85 23.85 0 0 0 360 52 Q 360 53.294 360.127 54.398 A 13.936 13.936 0 0 0 360.4 56 Q 360.147 57.013 360.054 58.345 A 23.85 23.85 0 0 0 360 60 Q 360 61.294 360.127 62.398 A 13.936 13.936 0 0 0 360.4 64 Q 360.147 65.013 360.054 66.345 A 23.85 23.85 0 0 0 360 68 Q 360 69.294 360.127 70.398 A 13.936 13.936 0 0 0 360.4 72 L 368.4 72 A 12.311 12.311 0 0 0 368.507 71.496 Q 368.8 69.968 368.8 68 A 25.306 25.306 0 0 0 368.774 66.833 Q 368.737 66.018 368.644 65.313 A 11.741 11.741 0 0 0 368.4 64 A 12.311 12.311 0 0 0 368.507 63.496 Q 368.8 61.968 368.8 60 A 25.306 25.306 0 0 0 368.774 58.833 Q 368.737 58.018 368.644 57.313 A 11.741 11.741 0 0 0 368.4 56 L 384.4 56 A 12.311 12.311 0 0 0 384.507 55.496 Q 384.8 53.968 384.8 52 A 25.306 25.306 0 0 0 384.774 50.833 Q 384.698 49.194 384.4 48 L 388.4 48 A 12.311 12.311 0 0 0 388.507 47.496 Q 388.8 45.968 388.8 44 A 25.306 25.306 0 0 0 388.774 42.833 Q 388.737 42.018 388.644 41.313 A 11.741 11.741 0 0 0 388.4 40 L 392.4 40 A 12.311 12.311 0 0 0 392.507 39.496 Q 392.8 37.968 392.8 36 A 25.306 25.306 0 0 0 392.774 34.833 Q 392.698 33.194 392.4 32 L 388.4 32 A 12.311 12.311 0 0 0 388.507 31.496 Q 388.8 29.968 388.8 28 A 25.306 25.306 0 0 0 388.774 26.833 Q 388.737 26.018 388.644 25.313 A 11.741 11.741 0 0 0 388.4 24 L 384.4 24 A 12.311 12.311 0 0 0 384.507 23.496 Q 384.8 21.968 384.8 20 A 25.306 25.306 0 0 0 384.774 18.833 Q 384.698 17.194 384.4 16 L 372.4 16 Q 372.147 17.013 372.054 18.345 A 23.85 23.85 0 0 0 372 20 Q 372 21.294 372.127 22.398 A 13.936 13.936 0 0 0 372.4 24 Z M 112.4 24 L 109.4 24 A 11.741 11.741 0 0 1 109.644 25.313 Q 109.737 26.018 109.774 26.833 A 25.306 25.306 0 0 1 109.8 28 Q 109.8 29.968 109.507 31.496 A 12.311 12.311 0 0 1 109.4 32 L 106.4 32 Q 106.698 33.194 106.774 34.833 A 25.306 25.306 0 0 1 106.8 36 Q 106.8 37.968 106.507 39.496 A 12.311 12.311 0 0 1 106.4 40 L 104.4 40 Q 104.698 41.194 104.774 42.833 A 25.306 25.306 0 0 1 104.8 44 Q 104.8 45.968 104.507 47.496 A 12.311 12.311 0 0 1 104.4 48 L 100.4 48 Q 100.698 49.194 100.774 50.833 A 25.306 25.306 0 0 1 100.8 52 Q 100.8 53.968 100.507 55.496 A 12.311 12.311 0 0 1 100.4 56 L 92.4 56 A 13.936 13.936 0 0 1 92.127 54.398 Q 92 53.294 92 52 A 23.85 23.85 0 0 1 92.054 50.345 Q 92.147 49.013 92.4 48 L 88.4 48 A 13.936 13.936 0 0 1 88.127 46.398 Q 88 45.294 88 44 A 23.85 23.85 0 0 1 88.054 42.345 Q 88.147 41.013 88.4 40 L 86.4 40 A 13.936 13.936 0 0 1 86.127 38.398 Q 86 37.294 86 36 A 23.85 23.85 0 0 1 86.054 34.345 Q 86.147 33.013 86.4 32 L 83.4 32 A 13.936 13.936 0 0 1 83.127 30.398 Q 83 29.294 83 28 A 23.85 23.85 0 0 1 83.054 26.345 Q 83.147 25.013 83.4 24 L 80.4 24 A 13.936 13.936 0 0 1 80.127 22.398 Q 80 21.294 80 20 A 23.85 23.85 0 0 1 80.054 18.345 Q 80.147 17.013 80.4 16 A 13.936 13.936 0 0 1 80.127 14.398 Q 80 13.294 80 12 A 23.85 23.85 0 0 1 80.054 10.345 Q 80.147 9.013 80.4 8 A 13.936 13.936 0 0 1 80.127 6.398 Q 80 5.294 80 4 A 23.85 23.85 0 0 1 80.054 2.345 Q 80.147 1.013 80.4 0 L 88.4 0 A 11.741 11.741 0 0 1 88.644 1.313 Q 88.737 2.018 88.774 2.833 A 25.306 25.306 0 0 1 88.8 4 Q 88.8 5.968 88.507 7.496 A 12.311 12.311 0 0 1 88.4 8 A 11.741 11.741 0 0 1 88.644 9.313 Q 88.737 10.018 88.774 10.833 A 25.306 25.306 0 0 1 88.8 12 Q 88.8 13.968 88.507 15.496 A 12.311 12.311 0 0 1 88.4 16 A 11.741 11.741 0 0 1 88.644 17.313 Q 88.737 18.018 88.774 18.833 A 25.306 25.306 0 0 1 88.8 20 Q 88.8 21.968 88.507 23.496 A 12.311 12.311 0 0 1 88.4 24 L 91.4 24 A 11.741 11.741 0 0 1 91.644 25.313 Q 91.737 26.018 91.774 26.833 A 25.306 25.306 0 0 1 91.8 28 Q 91.8 29.968 91.507 31.496 A 12.311 12.311 0 0 1 91.4 32 L 94.4 32 A 11.741 11.741 0 0 1 94.644 33.313 Q 94.737 34.018 94.774 34.833 A 25.306 25.306 0 0 1 94.8 36 Q 94.8 37.968 94.507 39.496 A 12.311 12.311 0 0 1 94.4 40 L 98.4 40 A 13.936 13.936 0 0 1 98.127 38.398 Q 98 37.294 98 36 A 23.85 23.85 0 0 1 98.054 34.345 Q 98.147 33.013 98.4 32 L 101.4 32 A 13.936 13.936 0 0 1 101.127 30.398 Q 101 29.294 101 28 A 23.85 23.85 0 0 1 101.054 26.345 Q 101.147 25.013 101.4 24 L 104.4 24 A 13.936 13.936 0 0 1 104.127 22.398 Q 104 21.294 104 20 A 23.85 23.85 0 0 1 104.054 18.345 Q 104.147 17.013 104.4 16 A 13.936 13.936 0 0 1 104.127 14.398 Q 104 13.294 104 12 A 23.85 23.85 0 0 1 104.054 10.345 Q 104.147 9.013 104.4 8 A 13.936 13.936 0 0 1 104.127 6.398 Q 104 5.294 104 4 A 23.85 23.85 0 0 1 104.054 2.345 Q 104.147 1.013 104.4 0 L 112.4 0 Q 112.698 1.194 112.774 2.833 A 25.306 25.306 0 0 1 112.8 4 Q 112.8 5.968 112.507 7.496 A 12.311 12.311 0 0 1 112.4 8 Q 112.698 9.194 112.774 10.833 A 25.306 25.306 0 0 1 112.8 12 Q 112.8 13.968 112.507 15.496 A 12.311 12.311 0 0 1 112.4 16 Q 112.698 17.194 112.774 18.833 A 25.306 25.306 0 0 1 112.8 20 Q 112.8 21.968 112.507 23.496 A 12.311 12.311 0 0 1 112.4 24 Z M 500.4 48 A 13.936 13.936 0 0 1 500.127 46.398 Q 500 45.294 500 44 A 23.85 23.85 0 0 1 500.054 42.345 Q 500.147 41.013 500.4 40 L 488.4 40 A 11.741 11.741 0 0 1 488.644 41.313 Q 488.737 42.018 488.774 42.833 A 25.306 25.306 0 0 1 488.8 44 Q 488.8 45.968 488.507 47.496 A 12.311 12.311 0 0 1 488.4 48 L 500.4 48 L 504.4 48 Q 504.147 49.013 504.054 50.345 A 23.85 23.85 0 0 0 504 52 Q 504 53.294 504.127 54.398 A 13.936 13.936 0 0 0 504.4 56 L 512.4 56 A 12.311 12.311 0 0 0 512.507 55.496 Q 512.8 53.968 512.8 52 A 25.306 25.306 0 0 0 512.774 50.833 Q 512.698 49.194 512.4 48 L 508.4 48 A 12.311 12.311 0 0 0 508.507 47.496 Q 508.8 45.968 508.8 44 A 25.306 25.306 0 0 0 508.774 42.833 Q 508.737 42.018 508.644 41.313 A 11.741 11.741 0 0 0 508.4 40 A 12.311 12.311 0 0 0 508.507 39.496 Q 508.8 37.968 508.8 36 A 25.306 25.306 0 0 0 508.774 34.833 Q 508.737 34.018 508.644 33.313 A 11.741 11.741 0 0 0 508.4 32 A 12.311 12.311 0 0 0 508.507 31.496 Q 508.8 29.968 508.8 28 A 25.306 25.306 0 0 0 508.774 26.833 Q 508.737 26.018 508.644 25.313 A 11.741 11.741 0 0 0 508.4 24 L 504.4 24 A 12.311 12.311 0 0 0 504.507 23.496 Q 504.8 21.968 504.8 20 A 25.306 25.306 0 0 0 504.774 18.833 Q 504.698 17.194 504.4 16 L 486.4 16 Q 486.147 17.013 486.054 18.345 A 23.85 23.85 0 0 0 486 20 Q 486 21.294 486.127 22.398 A 13.936 13.936 0 0 0 486.4 24 L 500.4 24 Q 500.147 25.013 500.054 26.345 A 23.85 23.85 0 0 0 500 28 Q 500 29.294 500.127 30.398 A 13.936 13.936 0 0 0 500.4 32 L 484.4 32 Q 484.147 33.013 484.054 34.345 A 23.85 23.85 0 0 0 484 36 Q 484 37.294 484.127 38.398 A 13.936 13.936 0 0 0 484.4 40 L 480.4 40 Q 480.147 41.013 480.054 42.345 A 23.85 23.85 0 0 0 480 44 Q 480 45.294 480.127 46.398 A 13.936 13.936 0 0 0 480.4 48 L 484.4 48 Q 484.147 49.013 484.054 50.345 A 23.85 23.85 0 0 0 484 52 Q 484 53.294 484.127 54.398 A 13.936 13.936 0 0 0 484.4 56 L 500.4 56 A 12.311 12.311 0 0 0 500.507 55.496 Q 500.8 53.968 500.8 52 A 25.306 25.306 0 0 0 500.774 50.833 Q 500.698 49.194 500.4 48 Z M 527.4 24 L 531.4 24 L 544.4 24 Q 544.147 25.013 544.054 26.345 A 23.85 23.85 0 0 0 544 28 Q 544 29.294 544.127 30.398 A 13.936 13.936 0 0 0 544.4 32 Q 544.147 33.013 544.054 34.345 A 23.85 23.85 0 0 0 544 36 Q 544 37.294 544.127 38.398 A 13.936 13.936 0 0 0 544.4 40 Q 544.147 41.013 544.054 42.345 A 23.85 23.85 0 0 0 544 44 Q 544 45.294 544.127 46.398 A 13.936 13.936 0 0 0 544.4 48 Q 544.147 49.013 544.054 50.345 A 23.85 23.85 0 0 0 544 52 Q 544 53.294 544.127 54.398 A 13.936 13.936 0 0 0 544.4 56 L 552.4 56 A 12.311 12.311 0 0 0 552.507 55.496 Q 552.8 53.968 552.8 52 A 25.306 25.306 0 0 0 552.774 50.833 Q 552.698 49.194 552.4 48 A 12.311 12.311 0 0 0 552.507 47.496 Q 552.8 45.968 552.8 44 A 25.306 25.306 0 0 0 552.774 42.833 Q 552.698 41.194 552.4 40 A 12.311 12.311 0 0 0 552.507 39.496 Q 552.8 37.968 552.8 36 A 25.306 25.306 0 0 0 552.774 34.833 Q 552.698 33.194 552.4 32 A 12.311 12.311 0 0 0 552.507 31.496 Q 552.8 29.968 552.8 28 A 25.306 25.306 0 0 0 552.774 26.833 Q 552.698 25.194 552.4 24 L 547.4 24 A 12.311 12.311 0 0 0 547.507 23.496 Q 547.8 21.968 547.8 20 A 25.306 25.306 0 0 0 547.774 18.833 Q 547.698 17.194 547.4 16 L 531.4 16 Q 531.147 17.013 531.054 18.345 A 23.85 23.85 0 0 0 531 20 Q 531 21.294 531.127 22.398 A 13.936 13.936 0 0 0 531.4 24 A 11.741 11.741 0 0 1 531.644 25.313 Q 531.737 26.018 531.774 26.833 A 25.306 25.306 0 0 1 531.8 28 Q 531.8 29.968 531.507 31.496 A 12.311 12.311 0 0 1 531.4 32 L 528.4 32 A 11.741 11.741 0 0 1 528.644 33.313 Q 528.737 34.018 528.774 34.833 A 25.306 25.306 0 0 1 528.8 36 Q 528.8 37.968 528.507 39.496 A 12.311 12.311 0 0 1 528.4 40 A 11.741 11.741 0 0 1 528.644 41.313 Q 528.737 42.018 528.774 42.833 A 25.306 25.306 0 0 1 528.8 44 Q 528.8 45.968 528.507 47.496 A 12.311 12.311 0 0 1 528.4 48 A 11.741 11.741 0 0 1 528.644 49.313 Q 528.737 50.018 528.774 50.833 A 25.306 25.306 0 0 1 528.8 52 Q 528.8 53.968 528.507 55.496 A 12.311 12.311 0 0 1 528.4 56 L 520.4 56 A 13.936 13.936 0 0 1 520.127 54.398 Q 520 53.294 520 52 A 23.85 23.85 0 0 1 520.054 50.345 Q 520.147 49.013 520.4 48 A 13.936 13.936 0 0 1 520.127 46.398 Q 520 45.294 520 44 A 23.85 23.85 0 0 1 520.054 42.345 Q 520.147 41.013 520.4 40 A 13.936 13.936 0 0 1 520.127 38.398 Q 520 37.294 520 36 A 23.85 23.85 0 0 1 520.054 34.345 Q 520.147 33.013 520.4 32 A 13.936 13.936 0 0 1 520.127 30.398 Q 520 29.294 520 28 A 23.85 23.85 0 0 1 520.054 26.345 Q 520.147 25.013 520.4 24 A 13.936 13.936 0 0 1 520.127 22.398 Q 520 21.294 520 20 A 23.85 23.85 0 0 1 520.054 18.345 Q 520.147 17.013 520.4 16 L 527.4 16 A 11.741 11.741 0 0 1 527.644 17.313 Q 527.737 18.018 527.774 18.833 A 25.306 25.306 0 0 1 527.8 20 Q 527.8 21.968 527.507 23.496 A 12.311 12.311 0 0 1 527.4 24 Z M 584.4 40 L 592.4 40 Q 592.698 41.194 592.774 42.833 A 25.306 25.306 0 0 1 592.8 44 Q 592.8 45.968 592.507 47.496 A 12.311 12.311 0 0 1 592.4 48 L 588.4 48 A 11.741 11.741 0 0 1 588.644 49.313 Q 588.737 50.018 588.774 50.833 A 25.306 25.306 0 0 1 588.8 52 Q 588.8 53.968 588.507 55.496 A 12.311 12.311 0 0 1 588.4 56 L 568.4 56 A 13.936 13.936 0 0 1 568.127 54.398 Q 568 53.294 568 52 A 23.85 23.85 0 0 1 568.054 50.345 Q 568.147 49.013 568.4 48 L 564.4 48 A 13.936 13.936 0 0 1 564.127 46.398 Q 564 45.294 564 44 A 23.85 23.85 0 0 1 564.054 42.345 Q 564.147 41.013 564.4 40 L 560.4 40 A 13.936 13.936 0 0 1 560.127 38.398 Q 560 37.294 560 36 A 23.85 23.85 0 0 1 560.054 34.345 Q 560.147 33.013 560.4 32 L 564.4 32 A 13.936 13.936 0 0 1 564.127 30.398 Q 564 29.294 564 28 A 23.85 23.85 0 0 1 564.054 26.345 Q 564.147 25.013 564.4 24 L 568.4 24 A 13.936 13.936 0 0 1 568.127 22.398 Q 568 21.294 568 20 A 23.85 23.85 0 0 1 568.054 18.345 Q 568.147 17.013 568.4 16 L 588.4 16 A 11.741 11.741 0 0 1 588.644 17.313 Q 588.737 18.018 588.774 18.833 A 25.306 25.306 0 0 1 588.8 20 Q 588.8 21.968 588.507 23.496 A 12.311 12.311 0 0 1 588.4 24 L 592.4 24 Q 592.698 25.194 592.774 26.833 A 25.306 25.306 0 0 1 592.8 28 Q 592.8 29.968 592.507 31.496 A 12.311 12.311 0 0 1 592.4 32 L 584.4 32 A 13.936 13.936 0 0 1 584.127 30.398 Q 584 29.294 584 28 A 23.85 23.85 0 0 1 584.054 26.345 Q 584.147 25.013 584.4 24 L 572.4 24 Q 572.698 25.194 572.774 26.833 A 25.306 25.306 0 0 1 572.8 28 Q 572.8 29.968 572.507 31.496 A 12.311 12.311 0 0 1 572.4 32 L 568.4 32 A 11.741 11.741 0 0 1 568.644 33.313 Q 568.737 34.018 568.774 34.833 A 25.306 25.306 0 0 1 568.8 36 Q 568.8 37.968 568.507 39.496 A 12.311 12.311 0 0 1 568.4 40 L 572.4 40 Q 572.698 41.194 572.774 42.833 A 25.306 25.306 0 0 1 572.8 44 Q 572.8 45.968 572.507 47.496 A 12.311 12.311 0 0 1 572.4 48 L 584.4 48 A 13.936 13.936 0 0 1 584.127 46.398 Q 584 45.294 584 44 A 23.85 23.85 0 0 1 584.054 42.345 Q 584.147 41.013 584.4 40 Z M 472.4 32 L 464.4 32 A 13.936 13.936 0 0 1 464.127 30.398 Q 464 29.294 464 28 A 23.85 23.85 0 0 1 464.054 26.345 Q 464.147 25.013 464.4 24 L 457.4 24 Q 457.698 25.194 457.774 26.833 A 25.306 25.306 0 0 1 457.8 28 Q 457.8 29.968 457.507 31.496 A 12.311 12.311 0 0 1 457.4 32 L 454.4 32 A 11.741 11.741 0 0 1 454.644 33.313 Q 454.737 34.018 454.774 34.833 A 25.306 25.306 0 0 1 454.8 36 Q 454.8 37.968 454.507 39.496 A 12.311 12.311 0 0 1 454.4 40 A 11.741 11.741 0 0 1 454.644 41.313 Q 454.737 42.018 454.774 42.833 A 25.306 25.306 0 0 1 454.8 44 Q 454.8 45.968 454.507 47.496 A 12.311 12.311 0 0 1 454.4 48 L 460.4 48 Q 460.698 49.194 460.774 50.833 A 25.306 25.306 0 0 1 460.8 52 Q 460.8 53.968 460.507 55.496 A 12.311 12.311 0 0 1 460.4 56 L 440.4 56 A 13.936 13.936 0 0 1 440.127 54.398 Q 440 53.294 440 52 A 23.85 23.85 0 0 1 440.054 50.345 Q 440.147 49.013 440.4 48 L 446.4 48 A 13.936 13.936 0 0 1 446.127 46.398 Q 446 45.294 446 44 A 23.85 23.85 0 0 1 446.054 42.345 Q 446.147 41.013 446.4 40 A 13.936 13.936 0 0 1 446.127 38.398 Q 446 37.294 446 36 A 23.85 23.85 0 0 1 446.054 34.345 Q 446.147 33.013 446.4 32 A 13.936 13.936 0 0 1 446.127 30.398 Q 446 29.294 446 28 A 23.85 23.85 0 0 1 446.054 26.345 Q 446.147 25.013 446.4 24 L 440.4 24 A 13.936 13.936 0 0 1 440.127 22.398 Q 440 21.294 440 20 A 23.85 23.85 0 0 1 440.054 18.345 Q 440.147 17.013 440.4 16 L 450.4 16 A 11.741 11.741 0 0 1 450.644 17.313 Q 450.737 18.018 450.774 18.833 A 25.306 25.306 0 0 1 450.8 20 Q 450.8 21.968 450.507 23.496 A 12.311 12.311 0 0 1 450.4 24 L 454.4 24 A 13.936 13.936 0 0 1 454.127 22.398 Q 454 21.294 454 20 A 23.85 23.85 0 0 1 454.054 18.345 Q 454.147 17.013 454.4 16 L 469.4 16 A 11.741 11.741 0 0 1 469.644 17.313 Q 469.737 18.018 469.774 18.833 A 25.306 25.306 0 0 1 469.8 20 Q 469.8 21.968 469.507 23.496 A 12.311 12.311 0 0 1 469.4 24 L 472.4 24 Q 472.698 25.194 472.774 26.833 A 25.306 25.306 0 0 1 472.8 28 Q 472.8 29.968 472.507 31.496 A 12.311 12.311 0 0 1 472.4 32 Z M 325.4 24 L 328.4 24 L 333.4 24 Q 333.147 25.013 333.054 26.345 A 23.85 23.85 0 0 0 333 28 Q 333 29.294 333.127 30.398 A 13.936 13.936 0 0 0 333.4 32 Q 333.147 33.013 333.054 34.345 A 23.85 23.85 0 0 0 333 36 Q 333 37.294 333.127 38.398 A 13.936 13.936 0 0 0 333.4 40 Q 333.147 41.013 333.054 42.345 A 23.85 23.85 0 0 0 333 44 Q 333 45.294 333.127 46.398 A 13.936 13.936 0 0 0 333.4 48 Q 333.147 49.013 333.054 50.345 A 23.85 23.85 0 0 0 333 52 Q 333 53.294 333.127 54.398 A 13.936 13.936 0 0 0 333.4 56 L 339.4 56 A 12.311 12.311 0 0 0 339.507 55.496 Q 339.8 53.968 339.8 52 A 25.306 25.306 0 0 0 339.774 50.833 Q 339.698 49.194 339.4 48 A 12.311 12.311 0 0 0 339.507 47.496 Q 339.8 45.968 339.8 44 A 25.306 25.306 0 0 0 339.774 42.833 Q 339.698 41.194 339.4 40 A 12.311 12.311 0 0 0 339.507 39.496 Q 339.8 37.968 339.8 36 A 25.306 25.306 0 0 0 339.774 34.833 Q 339.698 33.194 339.4 32 A 12.311 12.311 0 0 0 339.507 31.496 Q 339.8 29.968 339.8 28 A 25.306 25.306 0 0 0 339.774 26.833 Q 339.698 25.194 339.4 24 L 336.4 24 A 12.311 12.311 0 0 0 336.507 23.496 Q 336.8 21.968 336.8 20 A 25.306 25.306 0 0 0 336.774 18.833 Q 336.698 17.194 336.4 16 L 328.4 16 Q 328.147 17.013 328.054 18.345 A 23.85 23.85 0 0 0 328 20 Q 328 21.294 328.127 22.398 A 13.936 13.936 0 0 0 328.4 24 A 11.741 11.741 0 0 1 328.644 25.313 Q 328.737 26.018 328.774 26.833 A 25.306 25.306 0 0 1 328.8 28 Q 328.8 29.968 328.507 31.496 A 12.311 12.311 0 0 1 328.4 32 A 11.741 11.741 0 0 1 328.644 33.313 Q 328.737 34.018 328.774 34.833 A 25.306 25.306 0 0 1 328.8 36 Q 328.8 37.968 328.507 39.496 A 12.311 12.311 0 0 1 328.4 40 A 11.741 11.741 0 0 1 328.644 41.313 Q 328.737 42.018 328.774 42.833 A 25.306 25.306 0 0 1 328.8 44 Q 328.8 45.968 328.507 47.496 A 12.311 12.311 0 0 1 328.4 48 A 11.741 11.741 0 0 1 328.644 49.313 Q 328.737 50.018 328.774 50.833 A 25.306 25.306 0 0 1 328.8 52 Q 328.8 53.968 328.507 55.496 A 12.311 12.311 0 0 1 328.4 56 L 320.4 56 A 13.936 13.936 0 0 1 320.127 54.398 Q 320 53.294 320 52 A 23.85 23.85 0 0 1 320.054 50.345 Q 320.147 49.013 320.4 48 A 13.936 13.936 0 0 1 320.127 46.398 Q 320 45.294 320 44 A 23.85 23.85 0 0 1 320.054 42.345 Q 320.147 41.013 320.4 40 A 13.936 13.936 0 0 1 320.127 38.398 Q 320 37.294 320 36 A 23.85 23.85 0 0 1 320.054 34.345 Q 320.147 33.013 320.4 32 A 13.936 13.936 0 0 1 320.127 30.398 Q 320 29.294 320 28 A 23.85 23.85 0 0 1 320.054 26.345 Q 320.147 25.013 320.4 24 A 13.936 13.936 0 0 1 320.127 22.398 Q 320 21.294 320 20 A 23.85 23.85 0 0 1 320.054 18.345 Q 320.147 17.013 320.4 16 L 325.4 16 A 11.741 11.741 0 0 1 325.644 17.313 Q 325.737 18.018 325.774 18.833 A 25.306 25.306 0 0 1 325.8 20 Q 325.8 21.968 325.507 23.496 A 12.311 12.311 0 0 1 325.4 24 Z M 312.4 40 L 291.4 40 A 11.741 11.741 0 0 1 291.644 41.313 Q 291.737 42.018 291.774 42.833 A 25.306 25.306 0 0 1 291.8 44 Q 291.8 45.968 291.507 47.496 A 12.311 12.311 0 0 1 291.4 48 L 308.4 48 A 11.741 11.741 0 0 1 308.644 49.313 Q 308.737 50.018 308.774 50.833 A 25.306 25.306 0 0 1 308.8 52 Q 308.8 53.968 308.507 55.496 A 12.311 12.311 0 0 1 308.4 56 L 288.4 56 A 13.936 13.936 0 0 1 288.127 54.398 Q 288 53.294 288 52 A 23.85 23.85 0 0 1 288.054 50.345 Q 288.147 49.013 288.4 48 L 283.4 48 A 13.936 13.936 0 0 1 283.127 46.398 Q 283 45.294 283 44 A 23.85 23.85 0 0 1 283.054 42.345 Q 283.147 41.013 283.4 40 L 280.4 40 A 13.936 13.936 0 0 1 280.127 38.398 Q 280 37.294 280 36 A 23.85 23.85 0 0 1 280.054 34.345 Q 280.147 33.013 280.4 32 L 283.4 32 A 13.936 13.936 0 0 1 283.127 30.398 Q 283 29.294 283 28 A 23.85 23.85 0 0 1 283.054 26.345 Q 283.147 25.013 283.4 24 L 288.4 24 A 13.936 13.936 0 0 1 288.127 22.398 Q 288 21.294 288 20 A 23.85 23.85 0 0 1 288.054 18.345 Q 288.147 17.013 288.4 16 L 308.4 16 A 11.741 11.741 0 0 1 308.644 17.313 Q 308.737 18.018 308.774 18.833 A 25.306 25.306 0 0 1 308.8 20 Q 308.8 21.968 308.507 23.496 A 12.311 12.311 0 0 1 308.4 24 L 312.4 24 Q 312.698 25.194 312.774 26.833 A 25.306 25.306 0 0 1 312.8 28 Q 312.8 29.968 312.507 31.496 A 12.311 12.311 0 0 1 312.4 32 Q 312.698 33.194 312.774 34.833 A 25.306 25.306 0 0 1 312.8 36 Q 312.8 37.968 312.507 39.496 A 12.311 12.311 0 0 1 312.4 40 Z M 432.4 40 L 411.4 40 A 11.741 11.741 0 0 1 411.644 41.313 Q 411.737 42.018 411.774 42.833 A 25.306 25.306 0 0 1 411.8 44 Q 411.8 45.968 411.507 47.496 A 12.311 12.311 0 0 1 411.4 48 L 428.4 48 A 11.741 11.741 0 0 1 428.644 49.313 Q 428.737 50.018 428.774 50.833 A 25.306 25.306 0 0 1 428.8 52 Q 428.8 53.968 428.507 55.496 A 12.311 12.311 0 0 1 428.4 56 L 408.4 56 A 13.936 13.936 0 0 1 408.127 54.398 Q 408 53.294 408 52 A 23.85 23.85 0 0 1 408.054 50.345 Q 408.147 49.013 408.4 48 L 403.4 48 A 13.936 13.936 0 0 1 403.127 46.398 Q 403 45.294 403 44 A 23.85 23.85 0 0 1 403.054 42.345 Q 403.147 41.013 403.4 40 L 400.4 40 A 13.936 13.936 0 0 1 400.127 38.398 Q 400 37.294 400 36 A 23.85 23.85 0 0 1 400.054 34.345 Q 400.147 33.013 400.4 32 L 403.4 32 A 13.936 13.936 0 0 1 403.127 30.398 Q 403 29.294 403 28 A 23.85 23.85 0 0 1 403.054 26.345 Q 403.147 25.013 403.4 24 L 408.4 24 A 13.936 13.936 0 0 1 408.127 22.398 Q 408 21.294 408 20 A 23.85 23.85 0 0 1 408.054 18.345 Q 408.147 17.013 408.4 16 L 428.4 16 A 11.741 11.741 0 0 1 428.644 17.313 Q 428.737 18.018 428.774 18.833 A 25.306 25.306 0 0 1 428.8 20 Q 428.8 21.968 428.507 23.496 A 12.311 12.311 0 0 1 428.4 24 L 432.4 24 Q 432.698 25.194 432.774 26.833 A 25.306 25.306 0 0 1 432.8 28 Q 432.8 29.968 432.507 31.496 A 12.311 12.311 0 0 1 432.4 32 Q 432.698 33.194 432.774 34.833 A 25.306 25.306 0 0 1 432.8 36 Q 432.8 37.968 432.507 39.496 A 12.311 12.311 0 0 1 432.4 40 Z M 632.4 40 L 611.4 40 A 11.741 11.741 0 0 1 611.644 41.313 Q 611.737 42.018 611.774 42.833 A 25.306 25.306 0 0 1 611.8 44 Q 611.8 45.968 611.507 47.496 A 12.311 12.311 0 0 1 611.4 48 L 628.4 48 A 11.741 11.741 0 0 1 628.644 49.313 Q 628.737 50.018 628.774 50.833 A 25.306 25.306 0 0 1 628.8 52 Q 628.8 53.968 628.507 55.496 A 12.311 12.311 0 0 1 628.4 56 L 608.4 56 A 13.936 13.936 0 0 1 608.127 54.398 Q 608 53.294 608 52 A 23.85 23.85 0 0 1 608.054 50.345 Q 608.147 49.013 608.4 48 L 603.4 48 A 13.936 13.936 0 0 1 603.127 46.398 Q 603 45.294 603 44 A 23.85 23.85 0 0 1 603.054 42.345 Q 603.147 41.013 603.4 40 L 600.4 40 A 13.936 13.936 0 0 1 600.127 38.398 Q 600 37.294 600 36 A 23.85 23.85 0 0 1 600.054 34.345 Q 600.147 33.013 600.4 32 L 603.4 32 A 13.936 13.936 0 0 1 603.127 30.398 Q 603 29.294 603 28 A 23.85 23.85 0 0 1 603.054 26.345 Q 603.147 25.013 603.4 24 L 608.4 24 A 13.936 13.936 0 0 1 608.127 22.398 Q 608 21.294 608 20 A 23.85 23.85 0 0 1 608.054 18.345 Q 608.147 17.013 608.4 16 L 628.4 16 A 11.741 11.741 0 0 1 628.644 17.313 Q 628.737 18.018 628.774 18.833 A 25.306 25.306 0 0 1 628.8 20 Q 628.8 21.968 628.507 23.496 A 12.311 12.311 0 0 1 628.4 24 L 632.4 24 Q 632.698 25.194 632.774 26.833 A 25.306 25.306 0 0 1 632.8 28 Q 632.8 29.968 632.507 31.496 A 12.311 12.311 0 0 1 632.4 32 Q 632.698 33.194 632.774 34.833 A 25.306 25.306 0 0 1 632.8 36 Q 632.8 37.968 632.507 39.496 A 12.311 12.311 0 0 1 632.4 40 Z M 60.4 48 L 66.4 48 Q 66.698 49.194 66.774 50.833 A 25.306 25.306 0 0 1 66.8 52 Q 66.8 53.968 66.507 55.496 A 12.311 12.311 0 0 1 66.4 56 L 46.4 56 A 13.936 13.936 0 0 1 46.127 54.398 Q 46 53.294 46 52 A 23.85 23.85 0 0 1 46.054 50.345 Q 46.147 49.013 46.4 48 L 52.4 48 A 13.936 13.936 0 0 1 52.127 46.398 Q 52 45.294 52 44 A 23.85 23.85 0 0 1 52.054 42.345 Q 52.147 41.013 52.4 40 A 13.936 13.936 0 0 1 52.127 38.398 Q 52 37.294 52 36 A 23.85 23.85 0 0 1 52.054 34.345 Q 52.147 33.013 52.4 32 A 13.936 13.936 0 0 1 52.127 30.398 Q 52 29.294 52 28 A 23.85 23.85 0 0 1 52.054 26.345 Q 52.147 25.013 52.4 24 A 13.936 13.936 0 0 1 52.127 22.398 Q 52 21.294 52 20 A 23.85 23.85 0 0 1 52.054 18.345 Q 52.147 17.013 52.4 16 A 13.936 13.936 0 0 1 52.127 14.398 Q 52 13.294 52 12 A 23.85 23.85 0 0 1 52.054 10.345 Q 52.147 9.013 52.4 8 L 46.4 8 A 13.936 13.936 0 0 1 46.127 6.398 Q 46 5.294 46 4 A 23.85 23.85 0 0 1 46.054 2.345 Q 46.147 1.013 46.4 0 L 66.4 0 Q 66.698 1.194 66.774 2.833 A 25.306 25.306 0 0 1 66.8 4 Q 66.8 5.968 66.507 7.496 A 12.311 12.311 0 0 1 66.4 8 L 60.4 8 Q 60.698 9.194 60.774 10.833 A 25.306 25.306 0 0 1 60.8 12 Q 60.8 13.968 60.507 15.496 A 12.311 12.311 0 0 1 60.4 16 Q 60.698 17.194 60.774 18.833 A 25.306 25.306 0 0 1 60.8 20 Q 60.8 21.968 60.507 23.496 A 12.311 12.311 0 0 1 60.4 24 Q 60.698 25.194 60.774 26.833 A 25.306 25.306 0 0 1 60.8 28 Q 60.8 29.968 60.507 31.496 A 12.311 12.311 0 0 1 60.4 32 Q 60.698 33.194 60.774 34.833 A 25.306 25.306 0 0 1 60.8 36 Q 60.8 37.968 60.507 39.496 A 12.311 12.311 0 0 1 60.4 40 Q 60.698 41.194 60.774 42.833 A 25.306 25.306 0 0 1 60.8 44 Q 60.8 45.968 60.507 47.496 A 12.311 12.311 0 0 1 60.4 48 Z M 272.4 8 L 260.4 8 Q 260.698 9.194 260.774 10.833 A 25.306 25.306 0 0 1 260.8 12 Q 260.8 13.968 260.507 15.496 A 12.311 12.311 0 0 1 260.4 16 Q 260.698 17.194 260.774 18.833 A 25.306 25.306 0 0 1 260.8 20 Q 260.8 21.968 260.507 23.496 A 12.311 12.311 0 0 1 260.4 24 Q 260.698 25.194 260.774 26.833 A 25.306 25.306 0 0 1 260.8 28 Q 260.8 29.968 260.507 31.496 A 12.311 12.311 0 0 1 260.4 32 Q 260.698 33.194 260.774 34.833 A 25.306 25.306 0 0 1 260.8 36 Q 260.8 37.968 260.507 39.496 A 12.311 12.311 0 0 1 260.4 40 Q 260.698 41.194 260.774 42.833 A 25.306 25.306 0 0 1 260.8 44 Q 260.8 45.968 260.507 47.496 A 12.311 12.311 0 0 1 260.4 48 Q 260.698 49.194 260.774 50.833 A 25.306 25.306 0 0 1 260.8 52 Q 260.8 53.968 260.507 55.496 A 12.311 12.311 0 0 1 260.4 56 L 252.4 56 A 13.936 13.936 0 0 1 252.127 54.398 Q 252 53.294 252 52 A 23.85 23.85 0 0 1 252.054 50.345 Q 252.147 49.013 252.4 48 A 13.936 13.936 0 0 1 252.127 46.398 Q 252 45.294 252 44 A 23.85 23.85 0 0 1 252.054 42.345 Q 252.147 41.013 252.4 40 A 13.936 13.936 0 0 1 252.127 38.398 Q 252 37.294 252 36 A 23.85 23.85 0 0 1 252.054 34.345 Q 252.147 33.013 252.4 32 A 13.936 13.936 0 0 1 252.127 30.398 Q 252 29.294 252 28 A 23.85 23.85 0 0 1 252.054 26.345 Q 252.147 25.013 252.4 24 A 13.936 13.936 0 0 1 252.127 22.398 Q 252 21.294 252 20 A 23.85 23.85 0 0 1 252.054 18.345 Q 252.147 17.013 252.4 16 A 13.936 13.936 0 0 1 252.127 14.398 Q 252 13.294 252 12 A 23.85 23.85 0 0 1 252.054 10.345 Q 252.147 9.013 252.4 8 L 240.4 8 A 13.936 13.936 0 0 1 240.127 6.398 Q 240 5.294 240 4 A 23.85 23.85 0 0 1 240.054 2.345 Q 240.147 1.013 240.4 0 L 272.4 0 Q 272.698 1.194 272.774 2.833 A 25.306 25.306 0 0 1 272.8 4 Q 272.8 5.968 272.507 7.496 A 12.311 12.311 0 0 1 272.4 8 Z M 339.4 24 L 344.4 24 Q 344.147 25.013 344.054 26.345 A 23.85 23.85 0 0 0 344 28 Q 344 29.294 344.127 30.398 A 13.936 13.936 0 0 0 344.4 32 Q 344.147 33.013 344.054 34.345 A 23.85 23.85 0 0 0 344 36 Q 344 37.294 344.127 38.398 A 13.936 13.936 0 0 0 344.4 40 Q 344.147 41.013 344.054 42.345 A 23.85 23.85 0 0 0 344 44 Q 344 45.294 344.127 46.398 A 13.936 13.936 0 0 0 344.4 48 Q 344.147 49.013 344.054 50.345 A 23.85 23.85 0 0 0 344 52 Q 344 53.294 344.127 54.398 A 13.936 13.936 0 0 0 344.4 56 L 352.4 56 A 12.311 12.311 0 0 0 352.507 55.496 Q 352.8 53.968 352.8 52 A 25.306 25.306 0 0 0 352.774 50.833 Q 352.698 49.194 352.4 48 A 12.311 12.311 0 0 0 352.507 47.496 Q 352.8 45.968 352.8 44 A 25.306 25.306 0 0 0 352.774 42.833 Q 352.698 41.194 352.4 40 A 12.311 12.311 0 0 0 352.507 39.496 Q 352.8 37.968 352.8 36 A 25.306 25.306 0 0 0 352.774 34.833 Q 352.698 33.194 352.4 32 A 12.311 12.311 0 0 0 352.507 31.496 Q 352.8 29.968 352.8 28 A 25.306 25.306 0 0 0 352.774 26.833 Q 352.698 25.194 352.4 24 L 348.4 24 A 12.311 12.311 0 0 0 348.507 23.496 Q 348.8 21.968 348.8 20 A 25.306 25.306 0 0 0 348.774 18.833 Q 348.737 18.018 348.644 17.313 A 11.741 11.741 0 0 0 348.4 16 L 339.4 16 Q 339.147 17.013 339.054 18.345 A 23.85 23.85 0 0 0 339 20 Q 339 21.294 339.127 22.398 A 13.936 13.936 0 0 0 339.4 24 Z M 166.4 24 L 186.4 24 Q 186.698 25.194 186.774 26.833 A 25.306 25.306 0 0 1 186.8 28 Q 186.8 29.968 186.507 31.496 A 12.311 12.311 0 0 1 186.4 32 L 166.4 32 A 13.936 13.936 0 0 1 166.127 30.398 Q 166 29.294 166 28 A 23.85 23.85 0 0 1 166.054 26.345 Q 166.147 25.013 166.4 24 Z M 304.4 24 L 291.4 24 A 11.741 11.741 0 0 1 291.644 25.313 Q 291.737 26.018 291.774 26.833 A 25.306 25.306 0 0 1 291.8 28 Q 291.8 29.968 291.507 31.496 A 12.311 12.311 0 0 1 291.4 32 L 304.4 32 A 13.936 13.936 0 0 1 304.127 30.398 Q 304 29.294 304 28 A 23.85 23.85 0 0 1 304.054 26.345 Q 304.147 25.013 304.4 24 Z M 424.4 24 L 411.4 24 A 11.741 11.741 0 0 1 411.644 25.313 Q 411.737 26.018 411.774 26.833 A 25.306 25.306 0 0 1 411.8 28 Q 411.8 29.968 411.507 31.496 A 12.311 12.311 0 0 1 411.4 32 L 424.4 32 A 13.936 13.936 0 0 1 424.127 30.398 Q 424 29.294 424 28 A 23.85 23.85 0 0 1 424.054 26.345 Q 424.147 25.013 424.4 24 Z M 624.4 24 L 611.4 24 A 11.741 11.741 0 0 1 611.644 25.313 Q 611.737 26.018 611.774 26.833 A 25.306 25.306 0 0 1 611.8 28 Q 611.8 29.968 611.507 31.496 A 12.311 12.311 0 0 1 611.4 32 L 624.4 32 A 13.936 13.936 0 0 1 624.127 30.398 Q 624 29.294 624 28 A 23.85 23.85 0 0 1 624.054 26.345 Q 624.147 25.013 624.4 24 Z M 339.4 24 Q 339.698 25.194 339.774 26.833" vector-effect="non-scaling-stroke"/></g></svg>