<svg width="512.8" height="56" viewBox="0 0 512.8 56" xmlns="http://www.w3.org/2000/svg"><g id="svgGroup" stroke-linecap="round" fill-rule="evenodd" font-size="9pt" stroke="#000" stroke-width="0.25mm" fill="#000" style="stroke:#000;stroke-width:0.25mm;fill:#000"><path d="M 29.4 48 L 32.4 48 Q 32.698 49.194 32.774 50.833 A 25.306 25.306 0 0 1 32.8 52 Q 32.8 53.968 32.507 55.496 A 12.311 12.311 0 0 1 32.4 56 L 24.4 56 A 13.936 13.936 0 0 1 24.127 54.398 Q 24 53.294 24 52 A 23.85 23.85 0 0 1 24.054 50.345 Q 24.147 49.013 24.4 48 L 21.4 48 A 13.936 13.936 0 0 1 21.127 46.398 Q 21 45.294 21 44 A 23.85 23.85 0 0 1 21.054 42.345 Q 21.147 41.013 21.4 40 L 19.4 40 A 13.936 13.936 0 0 1 19.127 38.398 Q 19 37.294 19 36 A 23.85 23.85 0 0 1 19.054 34.345 Q 19.147 33.013 19.4 32 L 13.4 32 A 11.741 11.741 0 0 1 13.644 33.313 Q 13.737 34.018 13.774 34.833 A 25.306 25.306 0 0 1 13.8 36 Q 13.8 37.968 13.507 39.496 A 12.311 12.311 0 0 1 13.4 40 L 11.4 40 A 11.741 11.741 0 0 1 11.644 41.313 Q 11.737 42.018 11.774 42.833 A 25.306 25.306 0 0 1 11.8 44 Q 11.8 45.968 11.507 47.496 A 12.311 12.311 0 0 1 11.4 48 L 8.4 48 A 11.741 11.741 0 0 1 8.644 49.313 Q 8.737 50.018 8.774 50.833 A 25.306 25.306 0 0 1 8.8 52 Q 8.8 53.968 8.507 55.496 A 12.311 12.311 0 0 1 8.4 56 L 0.4 56 A 13.936 13.936 0 0 1 0.127 54.398 Q 0 53.294 0 52 A 23.85 23.85 0 0 1 0.054 50.345 Q 0.147 49.013 0.4 48 L 3.4 48 A 13.936 13.936 0 0 1 3.127 46.398 Q 3 45.294 3 44 A 23.85 23.85 0 0 1 3.054 42.345 Q 3.147 41.013 3.4 40 L 7.4 40 A 13.936 13.936 0 0 1 7.127 38.398 Q 7 37.294 7 36 A 23.85 23.85 0 0 1 7.054 34.345 Q 7.147 33.013 7.4 32 L 10.4 32 A 13.936 13.936 0 0 1 10.127 30.398 Q 10 29.294 10 28 A 23.85 23.85 0 0 1 10.054 26.345 Q 10.147 25.013 10.4 24 L 7.4 24 A 13.936 13.936 0 0 1 7.127 22.398 Q 7 21.294 7 20 A 23.85 23.85 0 0 1 7.054 18.345 Q 7.147 17.013 7.4 16 L 3.4 16 A 13.936 13.936 0 0 1 3.127 14.398 Q 3 13.294 3 12 A 23.85 23.85 0 0 1 3.054 10.345 Q 3.147 9.013 3.4 8 L 0.4 8 A 13.936 13.936 0 0 1 0.127 6.398 Q 0 5.294 0 4 A 23.85 23.85 0 0 1 0.054 2.345 Q 0.147 1.013 0.4 0 L 8.4 0 A 11.741 11.741 0 0 1 8.644 1.313 Q 8.737 2.018 8.774 2.833 A 25.306 25.306 0 0 1 8.8 4 Q 8.8 5.968 8.507 7.496 A 12.311 12.311 0 0 1 8.4 8 L 11.4 8 A 11.741 11.741 0 0 1 11.644 9.313 Q 11.737 10.018 11.774 10.833 A 25.306 25.306 0 0 1 11.8 12 Q 11.8 13.968 11.507 15.496 A 12.311 12.311 0 0 1 11.4 16 L 13.4 16 A 11.741 11.741 0 0 1 13.644 17.313 Q 13.737 18.018 13.774 18.833 A 25.306 25.306 0 0 1 13.8 20 Q 13.8 21.968 13.507 23.496 A 12.311 12.311 0 0 1 13.4 24 L 19.4 24 A 13.936 13.936 0 0 1 19.127 22.398 Q 19 21.294 19 20 A 23.85 23.85 0 0 1 19.054 18.345 Q 19.147 17.013 19.4 16 L 21.4 16 A 13.936 13.936 0 0 1 21.127 14.398 Q 21 13.294 21 12 A 23.85 23.85 0 0 1 21.054 10.345 Q 21.147 9.013 21.4 8 L 24.4 8 A 13.936 13.936 0 0 1 24.127 6.398 Q 24 5.294 24 4 A 23.85 23.85 0 0 1 24.054 2.345 Q 24.147 1.013 24.4 0 L 32.4 0 Q 32.698 1.194 32.774 2.833 A 25.306 25.306 0 0 1 32.8 4 Q 32.8 5.968 32.507 7.496 A 12.311 12.311 0 0 1 32.4 8 L 29.4 8 A 11.741 11.741 0 0 1 29.644 9.313 Q 29.737 10.018 29.774 10.833 A 25.306 25.306 0 0 1 29.8 12 Q 29.8 13.968 29.507 15.496 A 12.311 12.311 0 0 1 29.4 16 L 25.4 16 Q 25.698 17.194 25.774 18.833 A 25.306 25.306 0 0 1 25.8 20 Q 25.8 21.968 25.507 23.496 A 12.311 12.311 0 0 1 25.4 24 L 22.4 24 Q 22.698 25.194 22.774 26.833 A 25.306 25.306 0 0 1 22.8 28 Q 22.8 29.968 22.507 31.496 A 12.311 12.311 0 0 1 22.4 32 L 25.4 32 Q 25.698 33.194 25.774 34.833 A 25.306 25.306 0 0 1 25.8 36 Q 25.8 37.968 25.507 39.496 A 12.311 12.311 0 0 1 25.4 40 L 29.4 40 A 11.741 11.741 0 0 1 29.644 41.313 Q 29.737 42.018 29.774 42.833 A 25.306 25.306 0 0 1 29.8 44 Q 29.8 45.968 29.507 47.496 A 12.311 12.311 0 0 1 29.4 48 Z M 109.4 48 L 112.4 48 Q 112.698 49.194 112.774 50.833 A 25.306 25.306 0 0 1 112.8 52 Q 112.8 53.968 112.507 55.496 A 12.311 12.311 0 0 1 112.4 56 L 104.4 56 A 13.936 13.936 0 0 1 104.127 54.398 Q 104 53.294 104 52 A 23.85 23.85 0 0 1 104.054 50.345 Q 104.147 49.013 104.4 48 L 101.4 48 A 13.936 13.936 0 0 1 101.127 46.398 Q 101 45.294 101 44 A 23.85 23.85 0 0 1 101.054 42.345 Q 101.147 41.013 101.4 40 L 99.4 40 A 13.936 13.936 0 0 1 99.127 38.398 Q 99 37.294 99 36 A 23.85 23.85 0 0 1 99.054 34.345 Q 99.147 33.013 99.4 32 L 93.4 32 A 11.741 11.741 0 0 1 93.644 33.313 Q 93.737 34.018 93.774 34.833 A 25.306 25.306 0 0 1 93.8 36 Q 93.8 37.968 93.507 39.496 A 12.311 12.311 0 0 1 93.4 40 L 91.4 40 A 11.741 11.741 0 0 1 91.644 41.313 Q 91.737 42.018 91.774 42.833 A 25.306 25.306 0 0 1 91.8 44 Q 91.8 45.968 91.507 47.496 A 12.311 12.311 0 0 1 91.4 48 L 88.4 48 A 11.741 11.741 0 0 1 88.644 49.313 Q 88.737 50.018 88.774 50.833 A 25.306 25.306 0 0 1 88.8 52 Q 88.8 53.968 88.507 55.496 A 12.311 12.311 0 0 1 88.4 56 L 80.4 56 A 13.936 13.936 0 0 1 80.127 54.398 Q 80 53.294 80 52 A 23.85 23.85 0 0 1 80.054 50.345 Q 80.147 49.013 80.4 48 L 83.4 48 A 13.936 13.936 0 0 1 83.127 46.398 Q 83 45.294 83 44 A 23.85 23.85 0 0 1 83.054 42.345 Q 83.147 41.013 83.4 40 L 87.4 40 A 13.936 13.936 0 0 1 87.127 38.398 Q 87 37.294 87 36 A 23.85 23.85 0 0 1 87.054 34.345 Q 87.147 33.013 87.4 32 L 90.4 32 A 13.936 13.936 0 0 1 90.127 30.398 Q 90 29.294 90 28 A 23.85 23.85 0 0 1 90.054 26.345 Q 90.147 25.013 90.4 24 L 87.4 24 A 13.936 13.936 0 0 1 87.127 22.398 Q 87 21.294 87 20 A 23.85 23.85 0 0 1 87.054 18.345 Q 87.147 17.013 87.4 16 L 83.4 16 A 13.936 13.936 0 0 1 83.127 14.398 Q 83 13.294 83 12 A 23.85 23.85 0 0 1 83.054 10.345 Q 83.147 9.013 83.4 8 L 80.4 8 A 13.936 13.936 0 0 1 80.127 6.398 Q 80 5.294 80 4 A 23.85 23.85 0 0 1 80.054 2.345 Q 80.147 1.013 80.4 0 L 88.4 0 A 11.741 11.741 0 0 1 88.644 1.313 Q 88.737 2.018 88.774 2.833 A 25.306 25.306 0 0 1 88.8 4 Q 88.8 5.968 88.507 7.496 A 12.311 12.311 0 0 1 88.4 8 L 91.4 8 A 11.741 11.741 0 0 1 91.644 9.313 Q 91.737 10.018 91.774 10.833 A 25.306 25.306 0 0 1 91.8 12 Q 91.8 13.968 91.507 15.496 A 12.311 12.311 0 0 1 91.4 16 L 93.4 16 A 11.741 11.741 0 0 1 93.644 17.313 Q 93.737 18.018 93.774 18.833 A 25.306 25.306 0 0 1 93.8 20 Q 93.8 21.968 93.507 23.496 A 12.311 12.311 0 0 1 93.4 24 L 99.4 24 A 13.936 13.936 0 0 1 99.127 22.398 Q 99 21.294 99 20 A 23.85 23.85 0 0 1 99.054 18.345 Q 99.147 17.013 99.4 16 L 101.4 16 A 13.936 13.936 0 0 1 101.127 14.398 Q 101 13.294 101 12 A 23.85 23.85 0 0 1 101.054 10.345 Q 101.147 9.013 101.4 8 L 104.4 8 A 13.936 13.936 0 0 1 104.127 6.398 Q 104 5.294 104 4 A 23.85 23.85 0 0 1 104.054 2.345 Q 104.147 1.013 104.4 0 L 112.4 0 Q 112.698 1.194 112.774 2.833 A 25.306 25.306 0 0 1 112.8 4 Q 112.8 5.968 112.507 7.496 A 12.311 12.311 0 0 1 112.4 8 L 109.4 8 A 11.741 11.741 0 0 1 109.644 9.313 Q 109.737 10.018 109.774 10.833 A 25.306 25.306 0 0 1 109.8 12 Q 109.8 13.968 109.507 15.496 A 12.311 12.311 0 0 1 109.4 16 L 105.4 16 Q 105.698 17.194 105.774 18.833 A 25.306 25.306 0 0 1 105.8 20 Q 105.8 21.968 105.507 23.496 A 12.311 12.311 0 0 1 105.4 24 L 102.4 24 Q 102.698 25.194 102.774 26.833 A 25.306 25.306 0 0 1 102.8 28 Q 102.8 29.968 102.507 31.496 A 12.311 12.311 0 0 1 102.4 32 L 105.4 32 Q 105.698 33.194 105.774 34.833 A 25.306 25.306 0 0 1 105.8 36 Q 105.8 37.968 105.507 39.496 A 12.311 12.311 0 0 1 105.4 40 L 109.4 40 A 11.741 11.741 0 0 1 109.644 41.313 Q 109.737 42.018 109.774 42.833 A 25.306 25.306 0 0 1 109.8 44 Q 109.8 45.968 109.507 47.496 A 12.311 12.311 0 0 1 109.4 48 Z M 432.4 48 L 428.4 48 A 11.741 11.741 0 0 1 428.644 49.313 Q 428.737 50.018 428.774 50.833 A 25.306 25.306 0 0 1 428.8 52 Q 428.8 53.968 428.507 55.496 A 12.311 12.311 0 0 1 428.4 56 L 404.4 56 A 13.936 13.936 0 0 1 404.127 54.398 Q 404 53.294 404 52 A 23.85 23.85 0 0 1 404.054 50.345 Q 404.147 49.013 404.4 48 L 400.4 48 A 13.936 13.936 0 0 1 400.127 46.398 Q 400 45.294 400 44 A 23.85 23.85 0 0 1 400.054 42.345 Q 400.147 41.013 400.4 40 L 408.4 40 A 11.741 11.741 0 0 1 408.644 41.313 Q 408.737 42.018 408.774 42.833 A 25.306 25.306 0 0 1 408.8 44 Q 408.8 45.968 408.507 47.496 A 12.311 12.311 0 0 1 408.4 48 L 424.4 48 A 13.936 13.936 0 0 1 424.127 46.398 Q 424 45.294 424 44 A 23.85 23.85 0 0 1 424.054 42.345 Q 424.147 41.013 424.4 40 A 13.936 13.936 0 0 1 424.127 38.398 Q 424 37.294 424 36 A 23.85 23.85 0 0 1 424.054 34.345 Q 424.147 33.013 424.4 32 L 404.4 32 A 13.936 13.936 0 0 1 404.127 30.398 Q 404 29.294 404 28 A 23.85 23.85 0 0 1 404.054 26.345 Q 404.147 25.013 404.4 24 L 400.4 24 A 13.936 13.936 0 0 1 400.127 22.398 Q 400 21.294 400 20 A 23.85 23.85 0 0 1 400.054 18.345 Q 400.147 17.013 400.4 16 A 13.936 13.936 0 0 1 400.127 14.398 Q 400 13.294 400 12 A 23.85 23.85 0 0 1 400.054 10.345 Q 400.147 9.013 400.4 8 L 404.4 8 A 13.936 13.936 0 0 1 404.127 6.398 Q 404 5.294 404 4 A 23.85 23.85 0 0 1 404.054 2.345 Q 404.147 1.013 404.4 0 L 428.4 0 A 11.741 11.741 0 0 1 428.644 1.313 Q 428.737 2.018 428.774 2.833 A 25.306 25.306 0 0 1 428.8 4 Q 428.8 5.968 428.507 7.496 A 12.311 12.311 0 0 1 428.4 8 L 432.4 8 Q 432.698 9.194 432.774 10.833 A 25.306 25.306 0 0 1 432.8 12 Q 432.8 13.968 432.507 15.496 A 12.311 12.311 0 0 1 432.4 16 L 424.4 16 A 13.936 13.936 0 0 1 424.127 14.398 Q 424 13.294 424 12 A 23.85 23.85 0 0 1 424.054 10.345 Q 424.147 9.013 424.4 8 L 408.4 8 A 11.741 11.741 0 0 1 408.644 9.313 Q 408.737 10.018 408.774 10.833 A 25.306 25.306 0 0 1 408.8 12 Q 408.8 13.968 408.507 15.496 A 12.311 12.311 0 0 1 408.4 16 A 11.741 11.741 0 0 1 408.644 17.313 Q 408.737 18.018 408.774 18.833 A 25.306 25.306 0 0 1 408.8 20 Q 408.8 21.968 408.507 23.496 A 12.311 12.311 0 0 1 408.4 24 L 428.4 24 A 11.741 11.741 0 0 1 428.644 25.313 Q 428.737 26.018 428.774 26.833 A 25.306 25.306 0 0 1 428.8 28 Q 428.8 29.968 428.507 31.496 A 12.311 12.311 0 0 1 428.4 32 L 432.4 32 Q 432.698 33.194 432.774 34.833 A 25.306 25.306 0 0 1 432.8 36 Q 432.8 37.968 432.507 39.496 A 12.311 12.311 0 0 1 432.4 40 Q 432.698 41.194 432.774 42.833 A 25.306 25.306 0 0 1 432.8 44 Q 432.8 45.968 432.507 47.496 A 12.311 12.311 0 0 1 432.4 48 Z M 288.4 24 L 291.4 24 L 304.4 24 Q 304.147 25.013 304.054 26.345 A 23.85 23.85 0 0 0 304 28 Q 304 29.294 304.127 30.398 A 13.936 13.936 0 0 0 304.4 32 Q 304.147 33.013 304.054 34.345 A 23.85 23.85 0 0 0 304 36 Q 304 37.294 304.127 38.398 A 13.936 13.936 0 0 0 304.4 40 Q 304.147 41.013 304.054 42.345 A 23.85 23.85 0 0 0 304 44 Q 304 45.294 304.127 46.398 A 13.936 13.936 0 0 0 304.4 48 Q 304.147 49.013 304.054 50.345 A 23.85 23.85 0 0 0 304 52 Q 304 53.294 304.127 54.398 A 13.936 13.936 0 0 0 304.4 56 L 312.4 56 A 12.311 12.311 0 0 0 312.507 55.496 Q 312.8 53.968 312.8 52 A 25.306 25.306 0 0 0 312.774 50.833 Q 312.698 49.194 312.4 48 A 12.311 12.311 0 0 0 312.507 47.496 Q 312.8 45.968 312.8 44 A 25.306 25.306 0 0 0 312.774 42.833 Q 312.698 41.194 312.4 40 A 12.311 12.311 0 0 0 312.507 39.496 Q 312.8 37.968 312.8 36 A 25.306 25.306 0 0 0 312.774 34.833 Q 312.698 33.194 312.4 32 A 12.311 12.311 0 0 0 312.507 31.496 Q 312.8 29.968 312.8 28 A 25.306 25.306 0 0 0 312.774 26.833 Q 312.698 25.194 312.4 24 L 307.4 24 A 12.311 12.311 0 0 0 307.507 23.496 Q 307.8 21.968 307.8 20 A 25.306 25.306 0 0 0 307.774 18.833 Q 307.698 17.194 307.4 16 L 291.4 16 Q 291.147 17.013 291.054 18.345 A 23.85 23.85 0 0 0 291 20 Q 291 21.294 291.127 22.398 A 13.936 13.936 0 0 0 291.4 24 A 11.741 11.741 0 0 1 291.644 25.313 Q 291.737 26.018 291.774 26.833 A 25.306 25.306 0 0 1 291.8 28 Q 291.8 29.968 291.507 31.496 A 12.311 12.311 0 0 1 291.4 32 L 288.4 32 A 11.741 11.741 0 0 1 288.644 33.313 Q 288.737 34.018 288.774 34.833 A 25.306 25.306 0 0 1 288.8 36 Q 288.8 37.968 288.507 39.496 A 12.311 12.311 0 0 1 288.4 40 A 11.741 11.741 0 0 1 288.644 41.313 Q 288.737 42.018 288.774 42.833 A 25.306 25.306 0 0 1 288.8 44 Q 288.8 45.968 288.507 47.496 A 12.311 12.311 0 0 1 288.4 48 A 11.741 11.741 0 0 1 288.644 49.313 Q 288.737 50.018 288.774 50.833 A 25.306 25.306 0 0 1 288.8 52 Q 288.8 53.968 288.507 55.496 A 12.311 12.311 0 0 1 288.4 56 L 280.4 56 A 13.936 13.936 0 0 1 280.127 54.398 Q 280 53.294 280 52 A 23.85 23.85 0 0 1 280.054 50.345 Q 280.147 49.013 280.4 48 A 13.936 13.936 0 0 1 280.127 46.398 Q 280 45.294 280 44 A 23.85 23.85 0 0 1 280.054 42.345 Q 280.147 41.013 280.4 40 A 13.936 13.936 0 0 1 280.127 38.398 Q 280 37.294 280 36 A 23.85 23.85 0 0 1 280.054 34.345 Q 280.147 33.013 280.4 32 A 13.936 13.936 0 0 1 280.127 30.398 Q 280 29.294 280 28 A 23.85 23.85 0 0 1 280.054 26.345 Q 280.147 25.013 280.4 24 A 13.936 13.936 0 0 1 280.127 22.398 Q 280 21.294 280 20 A 23.85 23.85 0 0 1 280.054 18.345 Q 280.147 17.013 280.4 16 A 13.936 13.936 0 0 1 280.127 14.398 Q 280 13.294 280 12 A 23.85 23.85 0 0 1 280.054 10.345 Q 280.147 9.013 280.4 8 A 13.936 13.936 0 0 1 280.127 6.398 Q 280 5.294 280 4 A 23.85 23.85 0 0 1 280.054 2.345 Q 280.147 1.013 280.4 0 L 288.4 0 A 11.741 11.741 0 0 1 288.644 1.313 Q 288.737 2.018 288.774 2.833 A 25.306 25.306 0 0 1 288.8 4 Q 288.8 5.968 288.507 7.496 A 12.311 12.311 0 0 1 288.4 8 A 11.741 11.741 0 0 1 288.644 9.313 Q 288.737 10.018 288.774 10.833 A 25.306 25.306 0 0 1 288.8 12 Q 288.8 13.968 288.507 15.496 A 12.311 12.311 0 0 1 288.4 16 A 11.741 11.741 0 0 1 288.644 17.313 Q 288.737 18.018 288.774 18.833 A 25.306 25.306 0 0 1 288.8 20 Q 288.8 21.968 288.507 23.496 A 12.311 12.311 0 0 1 288.4 24 Z M 461.4 48 A 13.936 13.936 0 0 1 461.127 46.398 Q 461 45.294 461 44 A 23.85 23.85 0 0 1 461.054 42.345 Q 461.147 41.013 461.4 40 L 464.4 40 A 13.936 13.936 0 0 1 464.127 38.398 Q 464 37.294 464 36 A 23.85 23.85 0 0 1 464.054 34.345 Q 464.147 33.013 464.4 32 A 13.936 13.936 0 0 1 464.127 30.398 Q 464 29.294 464 28 A 23.85 23.85 0 0 1 464.054 26.345 Q 464.147 25.013 464.4 24 A 13.936 13.936 0 0 1 464.127 22.398 Q 464 21.294 464 20 A 23.85 23.85 0 0 1 464.054 18.345 Q 464.147 17.013 464.4 16 L 472.4 16 Q 472.698 17.194 472.774 18.833 A 25.306 25.306 0 0 1 472.8 20 Q 472.8 21.968 472.507 23.496 A 12.311 12.311 0 0 1 472.4 24 Q 472.698 25.194 472.774 26.833 A 25.306 25.306 0 0 1 472.8 28 Q 472.8 29.968 472.507 31.496 A 12.311 12.311 0 0 1 472.4 32 Q 472.698 33.194 472.774 34.833 A 25.306 25.306 0 0 1 472.8 36 Q 472.8 37.968 472.507 39.496 A 12.311 12.311 0 0 1 472.4 40 Q 472.698 41.194 472.774 42.833 A 25.306 25.306 0 0 1 472.8 44 Q 472.8 45.968 472.507 47.496 A 12.311 12.311 0 0 1 472.4 48 Q 472.698 49.194 472.774 50.833 A 25.306 25.306 0 0 1 472.8 52 Q 472.8 53.968 472.507 55.496 A 12.311 12.311 0 0 1 472.4 56 L 464.4 56 A 13.936 13.936 0 0 1 464.127 54.398 Q 464 53.294 464 52 A 23.85 23.85 0 0 1 464.054 50.345 Q 464.147 49.013 464.4 48 L 461.4 48 L 451.4 48 A 12.311 12.311 0 0 0 451.507 47.496 Q 451.8 45.968 451.8 44 A 25.306 25.306 0 0 0 451.774 42.833 Q 451.737 42.018 451.644 41.313 A 11.741 11.741 0 0 0 451.4 40 L 448.4 40 A 12.311 12.311 0 0 0 448.507 39.496 Q 448.8 37.968 448.8 36 A 25.306 25.306 0 0 0 448.774 34.833 Q 448.737 34.018 448.644 33.313 A 11.741 11.741 0 0 0 448.4 32 A 12.311 12.311 0 0 0 448.507 31.496 Q 448.8 29.968 448.8 28 A 25.306 25.306 0 0 0 448.774 26.833 Q 448.737 26.018 448.644 25.313 A 11.741 11.741 0 0 0 448.4 24 A 12.311 12.311 0 0 0 448.507 23.496 Q 448.8 21.968 448.8 20 A 25.306 25.306 0 0 0 448.774 18.833 Q 448.737 18.018 448.644 17.313 A 11.741 11.741 0 0 0 448.4 16 L 440.4 16 Q 440.147 17.013 440.054 18.345 A 23.85 23.85 0 0 0 440 20 Q 440 21.294 440.127 22.398 A 13.936 13.936 0 0 0 440.4 24 Q 440.147 25.013 440.054 26.345 A 23.85 23.85 0 0 0 440 28 Q 440 29.294 440.127 30.398 A 13.936 13.936 0 0 0 440.4 32 Q 440.147 33.013 440.054 34.345 A 23.85 23.85 0 0 0 440 36 Q 440 37.294 440.127 38.398 A 13.936 13.936 0 0 0 440.4 40 Q 440.147 41.013 440.054 42.345 A 23.85 23.85 0 0 0 440 44 Q 440 45.294 440.127 46.398 A 13.936 13.936 0 0 0 440.4 48 L 445.4 48 Q 445.147 49.013 445.054 50.345 A 23.85 23.85 0 0 0 445 52 Q 445 53.294 445.127 54.398 A 13.936 13.936 0 0 0 445.4 56 L 461.4 56 A 12.311 12.311 0 0 0 461.507 55.496 Q 461.8 53.968 461.8 52 A 25.306 25.306 0 0 0 461.774 50.833 Q 461.698 49.194 461.4 48 Z M 487.4 24 L 491.4 24 L 504.4 24 Q 504.147 25.013 504.054 26.345 A 23.85 23.85 0 0 0 504 28 Q 504 29.294 504.127 30.398 A 13.936 13.936 0 0 0 504.4 32 Q 504.147 33.013 504.054 34.345 A 23.85 23.85 0 0 0 504 36 Q 504 37.294 504.127 38.398 A 13.936 13.936 0 0 0 504.4 40 Q 504.147 41.013 504.054 42.345 A 23.85 23.85 0 0 0 504 44 Q 504 45.294 504.127 46.398 A 13.936 13.936 0 0 0 504.4 48 Q 504.147 49.013 504.054 50.345 A 23.85 23.85 0 0 0 504 52 Q 504 53.294 504.127 54.398 A 13.936 13.936 0 0 0 504.4 56 L 512.4 56 A 12.311 12.311 0 0 0 512.507 55.496 Q 512.8 53.968 512.8 52 A 25.306 25.306 0 0 0 512.774 50.833 Q 512.698 49.194 512.4 48 A 12.311 12.311 0 0 0 512.507 47.496 Q 512.8 45.968 512.8 44 A 25.306 25.306 0 0 0 512.774 42.833 Q 512.698 41.194 512.4 40 A 12.311 12.311 0 0 0 512.507 39.496 Q 512.8 37.968 512.8 36 A 25.306 25.306 0 0 0 512.774 34.833 Q 512.698 33.194 512.4 32 A 12.311 12.311 0 0 0 512.507 31.496 Q 512.8 29.968 512.8 28 A 25.306 25.306 0 0 0 512.774 26.833 Q 512.698 25.194 512.4 24 L 507.4 24 A 12.311 12.311 0 0 0 507.507 23.496 Q 507.8 21.968 507.8 20 A 25.306 25.306 0 0 0 507.774 18.833 Q 507.698 17.194 507.4 16 L 491.4 16 Q 491.147 17.013 491.054 18.345 A 23.85 23.85 0 0 0 491 20 Q 491 21.294 491.127 22.398 A 13.936 13.936 0 0 0 491.4 24 A 11.741 11.741 0 0 1 491.644 25.313 Q 491.737 26.018 491.774 26.833 A 25.306 25.306 0 0 1 491.8 28 Q 491.8 29.968 491.507 31.496 A 12.311 12.311 0 0 1 491.4 32 L 488.4 32 A 11.741 11.741 0 0 1 488.644 33.313 Q 488.737 34.018 488.774 34.833 A 25.306 25.306 0 0 1 488.8 36 Q 488.8 37.968 488.507 39.496 A 12.311 12.311 0 0 1 488.4 40 A 11.741 11.741 0 0 1 488.644 41.313 Q 488.737 42.018 488.774 42.833 A 25.306 25.306 0 0 1 488.8 44 Q 488.8 45.968 488.507 47.496 A 12.311 12.311 0 0 1 488.4 48 A 11.741 11.741 0 0 1 488.644 49.313 Q 488.737 50.018 488.774 50.833 A 25.306 25.306 0 0 1 488.8 52 Q 488.8 53.968 488.507 55.496 A 12.311 12.311 0 0 1 488.4 56 L 480.4 56 A 13.936 13.936 0 0 1 480.127 54.398 Q 480 53.294 480 52 A 23.85 23.85 0 0 1 480.054 50.345 Q 480.147 49.013 480.4 48 A 13.936 13.936 0 0 1 480.127 46.398 Q 480 45.294 480 44 A 23.85 23.85 0 0 1 480.054 42.345 Q 480.147 41.013 480.4 40 A 13.936 13.936 0 0 1 480.127 38.398 Q 480 37.294 480 36 A 23.85 23.85 0 0 1 480.054 34.345 Q 480.147 33.013 480.4 32 A 13.936 13.936 0 0 1 480.127 30.398 Q 480 29.294 480 28 A 23.85 23.85 0 0 1 480.054 26.345 Q 480.147 25.013 480.4 24 A 13.936 13.936 0 0 1 480.127 22.398 Q 480 21.294 480 20 A 23.85 23.85 0 0 1 480.054 18.345 Q 480.147 17.013 480.4 16 L 487.4 16 A 11.741 11.741 0 0 1 487.644 17.313 Q 487.737 18.018 487.774 18.833 A 25.306 25.306 0 0 1 487.8 20 Q 487.8 21.968 487.507 23.496 A 12.311 12.311 0 0 1 487.4 24 Z M 352.4 40 L 331.4 40 A 11.741 11.741 0 0 1 331.644 41.313 Q 331.737 42.018 331.774 42.833 A 25.306 25.306 0 0 1 331.8 44 Q 331.8 45.968 331.507 47.496 A 12.311 12.311 0 0 1 331.4 48 L 348.4 48 A 11.741 11.741 0 0 1 348.644 49.313 Q 348.737 50.018 348.774 50.833 A 25.306 25.306 0 0 1 348.8 52 Q 348.8 53.968 348.507 55.496 A 12.311 12.311 0 0 1 348.4 56 L 328.4 56 A 13.936 13.936 0 0 1 328.127 54.398 Q 328 53.294 328 52 A 23.85 23.85 0 0 1 328.054 50.345 Q 328.147 49.013 328.4 48 L 323.4 48 A 13.936 13.936 0 0 1 323.127 46.398 Q 323 45.294 323 44 A 23.85 23.85 0 0 1 323.054 42.345 Q 323.147 41.013 323.4 40 L 320.4 40 A 13.936 13.936 0 0 1 320.127 38.398 Q 320 37.294 320 36 A 23.85 23.85 0 0 1 320.054 34.345 Q 320.147 33.013 320.4 32 L 323.4 32 A 13.936 13.936 0 0 1 323.127 30.398 Q 323 29.294 323 28 A 23.85 23.85 0 0 1 323.054 26.345 Q 323.147 25.013 323.4 24 L 328.4 24 A 13.936 13.936 0 0 1 328.127 22.398 Q 328 21.294 328 20 A 23.85 23.85 0 0 1 328.054 18.345 Q 328.147 17.013 328.4 16 L 348.4 16 A 11.741 11.741 0 0 1 348.644 17.313 Q 348.737 18.018 348.774 18.833 A 25.306 25.306 0 0 1 348.8 20 Q 348.8 21.968 348.507 23.496 A 12.311 12.311 0 0 1 348.4 24 L 352.4 24 Q 352.698 25.194 352.774 26.833 A 25.306 25.306 0 0 1 352.8 28 Q 352.8 29.968 352.507 31.496 A 12.311 12.311 0 0 1 352.4 32 Q 352.698 33.194 352.774 34.833 A 25.306 25.306 0 0 1 352.8 36 Q 352.8 37.968 352.507 39.496 A 12.311 12.311 0 0 1 352.4 40 Z M 60.4 48 L 66.4 48 Q 66.698 49.194 66.774 50.833 A 25.306 25.306 0 0 1 66.8 52 Q 66.8 53.968 66.507 55.496 A 12.311 12.311 0 0 1 66.4 56 L 46.4 56 A 13.936 13.936 0 0 1 46.127 54.398 Q 46 53.294 46 52 A 23.85 23.85 0 0 1 46.054 50.345 Q 46.147 49.013 46.4 48 L 52.4 48 A 13.936 13.936 0 0 1 52.127 46.398 Q 52 45.294 52 44 A 23.85 23.85 0 0 1 52.054 42.345 Q 52.147 41.013 52.4 40 A 13.936 13.936 0 0 1 52.127 38.398 Q 52 37.294 52 36 A 23.85 23.85 0 0 1 52.054 34.345 Q 52.147 33.013 52.4 32 A 13.936 13.936 0 0 1 52.127 30.398 Q 52 29.294 52 28 A 23.85 23.85 0 0 1 52.054 26.345 Q 52.147 25.013 52.4 24 A 13.936 13.936 0 0 1 52.127 22.398 Q 52 21.294 52 20 A 23.85 23.85 0 0 1 52.054 18.345 Q 52.147 17.013 52.4 16 A 13.936 13.936 0 0 1 52.127 14.398 Q 52 13.294 52 12 A 23.85 23.85 0 0 1 52.054 10.345 Q 52.147 9.013 52.4 8 L 46.4 8 A 13.936 13.936 0 0 1 46.127 6.398 Q 46 5.294 46 4 A 23.85 23.85 0 0 1 46.054 2.345 Q 46.147 1.013 46.4 0 L 66.4 0 Q 66.698 1.194 66.774 2.833 A 25.306 25.306 0 0 1 66.8 4 Q 66.8 5.968 66.507 7.496 A 12.311 12.311 0 0 1 66.4 8 L 60.4 8 Q 60.698 9.194 60.774 10.833 A 25.306 25.306 0 0 1 60.8 12 Q 60.8 13.968 60.507 15.496 A 12.311 12.311 0 0 1 60.4 16 Q 60.698 17.194 60.774 18.833 A 25.306 25.306 0 0 1 60.8 20 Q 60.8 21.968 60.507 23.496 A 12.311 12.311 0 0 1 60.4 24 Q 60.698 25.194 60.774 26.833 A 25.306 25.306 0 0 1 60.8 28 Q 60.8 29.968 60.507 31.496 A 12.311 12.311 0 0 1 60.4 32 Q 60.698 33.194 60.774 34.833 A 25.306 25.306 0 0 1 60.8 36 Q 60.8 37.968 60.507 39.496 A 12.311 12.311 0 0 1 60.4 40 Q 60.698 41.194 60.774 42.833 A 25.306 25.306 0 0 1 60.8 44 Q 60.8 45.968 60.507 47.496 A 12.311 12.311 0 0 1 60.4 48 Z M 272.4 8 L 260.4 8 Q 260.698 9.194 260.774 10.833 A 25.306 25.306 0 0 1 260.8 12 Q 260.8 13.968 260.507 15.496 A 12.311 12.311 0 0 1 260.4 16 Q 260.698 17.194 260.774 18.833 A 25.306 25.306 0 0 1 260.8 20 Q 260.8 21.968 260.507 23.496 A 12.311 12.311 0 0 1 260.4 24 Q 260.698 25.194 260.774 26.833 A 25.306 25.306 0 0 1 260.8 28 Q 260.8 29.968 260.507 31.496 A 12.311 12.311 0 0 1 260.4 32 Q 260.698 33.194 260.774 34.833 A 25.306 25.306 0 0 1 260.8 36 Q 260.8 37.968 260.507 39.496 A 12.311 12.311 0 0 1 260.4 40 Q 260.698 41.194 260.774 42.833 A 25.306 25.306 0 0 1 260.8 44 Q 260.8 45.968 260.507 47.496 A 12.311 12.311 0 0 1 260.4 48 Q 260.698 49.194 260.774 50.833 A 25.306 25.306 0 0 1 260.8 52 Q 260.8 53.968 260.507 55.496 A 12.311 12.311 0 0 1 260.4 56 L 252.4 56 A 13.936 13.936 0 0 1 252.127 54.398 Q 252 53.294 252 52 A 23.85 23.85 0 0 1 252.054 50.345 Q 252.147 49.013 252.4 48 A 13.936 13.936 0 0 1 252.127 46.398 Q 252 45.294 252 44 A 23.85 23.85 0 0 1 252.054 42.345 Q 252.147 41.013 252.4 40 A 13.936 13.936 0 0 1 252.127 38.398 Q 252 37.294 252 36 A 23.85 23.85 0 0 1 252.054 34.345 Q 252.147 33.013 252.4 32 A 13.936 13.936 0 0 1 252.127 30.398 Q 252 29.294 252 28 A 23.85 23.85 0 0 1 252.054 26.345 Q 252.147 25.013 252.4 24 A 13.936 13.936 0 0 1 252.127 22.398 Q 252 21.294 252 20 A 23.85 23.85 0 0 1 252.054 18.345 Q 252.147 17.013 252.4 16 A 13.936 13.936 0 0 1 252.127 14.398 Q 252 13.294 252 12 A 23.85 23.85 0 0 1 252.054 10.345 Q 252.147 9.013 252.4 8 L 240.4 8 A 13.936 13.936 0 0 1 240.127 6.398 Q 240 5.294 240 4 A 23.85 23.85 0 0 1 240.054 2.345 Q 240.147 1.013 240.4 0 L 272.4 0 Q 272.698 1.194 272.774 2.833 A 25.306 25.306 0 0 1 272.8 4 Q 272.8 5.968 272.507 7.496 A 12.311 12.311 0 0 1 272.4 8 Z M 166.4 24 L 186.4 24 Q 186.698 25.194 186.774 26.833 A 25.306 25.306 0 0 1 186.8 28 Q 186.8 29.968 186.507 31.496 A 12.311 12.311 0 0 1 186.4 32 L 166.4 32 A 13.936 13.936 0 0 1 166.127 30.398 Q 166 29.294 166 28 A 23.85 23.85 0 0 1 166.054 26.345 Q 166.147 25.013 166.4 24 Z M 344.4 24 L 331.4 24 A 11.741 11.741 0 0 1 331.644 25.313 Q 331.737 26.018 331.774 26.833 A 25.306 25.306 0 0 1 331.8 28 Q 331.8 29.968 331.507 31.496 A 12.311 12.311 0 0 1 331.4 32 L 344.4 32 A 13.936 13.936 0 0 1 344.127 30.398 Q 344 29.294 344 28 A 23.85 23.85 0 0 1 344.054 26.345 Q 344.147 25.013 344.4 24 Z" vector-effect="non-scaling-stroke"/></g></svg>