<svg width="548.8" height="56" viewBox="0 0 548.8 56" xmlns="http://www.w3.org/2000/svg"><g id="svgGroup" stroke-linecap="round" fill-rule="evenodd" font-size="9pt" stroke="#000" stroke-width="0.25mm" fill="#000" style="stroke:#000;stroke-width:0.25mm;fill:#000"><path d="M 29.4 48 L 32.4 48 Q 32.698 49.194 32.774 50.833 A 25.306 25.306 0 0 1 32.8 52 Q 32.8 53.968 32.507 55.496 A 12.311 12.311 0 0 1 32.4 56 L 24.4 56 A 13.936 13.936 0 0 1 24.127 54.398 Q 24 53.294 24 52 A 23.85 23.85 0 0 1 24.054 50.345 Q 24.147 49.013 24.4 48 L 21.4 48 A 13.936 13.936 0 0 1 21.127 46.398 Q 21 45.294 21 44 A 23.85 23.85 0 0 1 21.054 42.345 Q 21.147 41.013 21.4 40 L 19.4 40 A 13.936 13.936 0 0 1 19.127 38.398 Q 19 37.294 19 36 A 23.85 23.85 0 0 1 19.054 34.345 Q 19.147 33.013 19.4 32 L 13.4 32 A 11.741 11.741 0 0 1 13.644 33.313 Q 13.737 34.018 13.774 34.833 A 25.306 25.306 0 0 1 13.8 36 Q 13.8 37.968 13.507 39.496 A 12.311 12.311 0 0 1 13.4 40 L 11.4 40 A 11.741 11.741 0 0 1 11.644 41.313 Q 11.737 42.018 11.774 42.833 A 25.306 25.306 0 0 1 11.8 44 Q 11.8 45.968 11.507 47.496 A 12.311 12.311 0 0 1 11.4 48 L 8.4 48 A 11.741 11.741 0 0 1 8.644 49.313 Q 8.737 50.018 8.774 50.833 A 25.306 25.306 0 0 1 8.8 52 Q 8.8 53.968 8.507 55.496 A 12.311 12.311 0 0 1 8.4 56 L 0.4 56 A 13.936 13.936 0 0 1 0.127 54.398 Q 0 53.294 0 52 A 23.85 23.85 0 0 1 0.054 50.345 Q 0.147 49.013 0.4 48 L 3.4 48 A 13.936 13.936 0 0 1 3.127 46.398 Q 3 45.294 3 44 A 23.85 23.85 0 0 1 3.054 42.345 Q 3.147 41.013 3.4 40 L 7.4 40 A 13.936 13.936 0 0 1 7.127 38.398 Q 7 37.294 7 36 A 23.85 23.85 0 0 1 7.054 34.345 Q 7.147 33.013 7.4 32 L 10.4 32 A 13.936 13.936 0 0 1 10.127 30.398 Q 10 29.294 10 28 A 23.85 23.85 0 0 1 10.054 26.345 Q 10.147 25.013 10.4 24 L 7.4 24 A 13.936 13.936 0 0 1 7.127 22.398 Q 7 21.294 7 20 A 23.85 23.85 0 0 1 7.054 18.345 Q 7.147 17.013 7.4 16 L 3.4 16 A 13.936 13.936 0 0 1 3.127 14.398 Q 3 13.294 3 12 A 23.85 23.85 0 0 1 3.054 10.345 Q 3.147 9.013 3.4 8 L 0.4 8 A 13.936 13.936 0 0 1 0.127 6.398 Q 0 5.294 0 4 A 23.85 23.85 0 0 1 0.054 2.345 Q 0.147 1.013 0.4 0 L 8.4 0 A 11.741 11.741 0 0 1 8.644 1.313 Q 8.737 2.018 8.774 2.833 A 25.306 25.306 0 0 1 8.8 4 Q 8.8 5.968 8.507 7.496 A 12.311 12.311 0 0 1 8.4 8 L 11.4 8 A 11.741 11.741 0 0 1 11.644 9.313 Q 11.737 10.018 11.774 10.833 A 25.306 25.306 0 0 1 11.8 12 Q 11.8 13.968 11.507 15.496 A 12.311 12.311 0 0 1 11.4 16 L 13.4 16 A 11.741 11.741 0 0 1 13.644 17.313 Q 13.737 18.018 13.774 18.833 A 25.306 25.306 0 0 1 13.8 20 Q 13.8 21.968 13.507 23.496 A 12.311 12.311 0 0 1 13.4 24 L 19.4 24 A 13.936 13.936 0 0 1 19.127 22.398 Q 19 21.294 19 20 A 23.85 23.85 0 0 1 19.054 18.345 Q 19.147 17.013 19.4 16 L 21.4 16 A 13.936 13.936 0 0 1 21.127 14.398 Q 21 13.294 21 12 A 23.85 23.85 0 0 1 21.054 10.345 Q 21.147 9.013 21.4 8 L 24.4 8 A 13.936 13.936 0 0 1 24.127 6.398 Q 24 5.294 24 4 A 23.85 23.85 0 0 1 24.054 2.345 Q 24.147 1.013 24.4 0 L 32.4 0 Q 32.698 1.194 32.774 2.833 A 25.306 25.306 0 0 1 32.8 4 Q 32.8 5.968 32.507 7.496 A 12.311 12.311 0 0 1 32.4 8 L 29.4 8 A 11.741 11.741 0 0 1 29.644 9.313 Q 29.737 10.018 29.774 10.833 A 25.306 25.306 0 0 1 29.8 12 Q 29.8 13.968 29.507 15.496 A 12.311 12.311 0 0 1 29.4 16 L 25.4 16 Q 25.698 17.194 25.774 18.833 A 25.306 25.306 0 0 1 25.8 20 Q 25.8 21.968 25.507 23.496 A 12.311 12.311 0 0 1 25.4 24 L 22.4 24 Q 22.698 25.194 22.774 26.833 A 25.306 25.306 0 0 1 22.8 28 Q 22.8 29.968 22.507 31.496 A 12.311 12.311 0 0 1 22.4 32 L 25.4 32 Q 25.698 33.194 25.774 34.833 A 25.306 25.306 0 0 1 25.8 36 Q 25.8 37.968 25.507 39.496 A 12.311 12.311 0 0 1 25.4 40 L 29.4 40 A 11.741 11.741 0 0 1 29.644 41.313 Q 29.737 42.018 29.774 42.833 A 25.306 25.306 0 0 1 29.8 44 Q 29.8 45.968 29.507 47.496 A 12.311 12.311 0 0 1 29.4 48 Z M 72.4 24 L 69.4 24 A 11.741 11.741 0 0 1 69.644 25.313 Q 69.737 26.018 69.774 26.833 A 25.306 25.306 0 0 1 69.8 28 Q 69.8 29.968 69.507 31.496 A 12.311 12.311 0 0 1 69.4 32 L 66.4 32 Q 66.698 33.194 66.774 34.833 A 25.306 25.306 0 0 1 66.8 36 Q 66.8 37.968 66.507 39.496 A 12.311 12.311 0 0 1 66.4 40 L 64.4 40 Q 64.698 41.194 64.774 42.833 A 25.306 25.306 0 0 1 64.8 44 Q 64.8 45.968 64.507 47.496 A 12.311 12.311 0 0 1 64.4 48 L 60.4 48 Q 60.698 49.194 60.774 50.833 A 25.306 25.306 0 0 1 60.8 52 Q 60.8 53.968 60.507 55.496 A 12.311 12.311 0 0 1 60.4 56 L 52.4 56 A 13.936 13.936 0 0 1 52.127 54.398 Q 52 53.294 52 52 A 23.85 23.85 0 0 1 52.054 50.345 Q 52.147 49.013 52.4 48 L 48.4 48 A 13.936 13.936 0 0 1 48.127 46.398 Q 48 45.294 48 44 A 23.85 23.85 0 0 1 48.054 42.345 Q 48.147 41.013 48.4 40 L 46.4 40 A 13.936 13.936 0 0 1 46.127 38.398 Q 46 37.294 46 36 A 23.85 23.85 0 0 1 46.054 34.345 Q 46.147 33.013 46.4 32 L 43.4 32 A 13.936 13.936 0 0 1 43.127 30.398 Q 43 29.294 43 28 A 23.85 23.85 0 0 1 43.054 26.345 Q 43.147 25.013 43.4 24 L 40.4 24 A 13.936 13.936 0 0 1 40.127 22.398 Q 40 21.294 40 20 A 23.85 23.85 0 0 1 40.054 18.345 Q 40.147 17.013 40.4 16 A 13.936 13.936 0 0 1 40.127 14.398 Q 40 13.294 40 12 A 23.85 23.85 0 0 1 40.054 10.345 Q 40.147 9.013 40.4 8 A 13.936 13.936 0 0 1 40.127 6.398 Q 40 5.294 40 4 A 23.85 23.85 0 0 1 40.054 2.345 Q 40.147 1.013 40.4 0 L 48.4 0 A 11.741 11.741 0 0 1 48.644 1.313 Q 48.737 2.018 48.774 2.833 A 25.306 25.306 0 0 1 48.8 4 Q 48.8 5.968 48.507 7.496 A 12.311 12.311 0 0 1 48.4 8 A 11.741 11.741 0 0 1 48.644 9.313 Q 48.737 10.018 48.774 10.833 A 25.306 25.306 0 0 1 48.8 12 Q 48.8 13.968 48.507 15.496 A 12.311 12.311 0 0 1 48.4 16 A 11.741 11.741 0 0 1 48.644 17.313 Q 48.737 18.018 48.774 18.833 A 25.306 25.306 0 0 1 48.8 20 Q 48.8 21.968 48.507 23.496 A 12.311 12.311 0 0 1 48.4 24 L 51.4 24 A 11.741 11.741 0 0 1 51.644 25.313 Q 51.737 26.018 51.774 26.833 A 25.306 25.306 0 0 1 51.8 28 Q 51.8 29.968 51.507 31.496 A 12.311 12.311 0 0 1 51.4 32 L 54.4 32 A 11.741 11.741 0 0 1 54.644 33.313 Q 54.737 34.018 54.774 34.833 A 25.306 25.306 0 0 1 54.8 36 Q 54.8 37.968 54.507 39.496 A 12.311 12.311 0 0 1 54.4 40 L 58.4 40 A 13.936 13.936 0 0 1 58.127 38.398 Q 58 37.294 58 36 A 23.85 23.85 0 0 1 58.054 34.345 Q 58.147 33.013 58.4 32 L 61.4 32 A 13.936 13.936 0 0 1 61.127 30.398 Q 61 29.294 61 28 A 23.85 23.85 0 0 1 61.054 26.345 Q 61.147 25.013 61.4 24 L 64.4 24 A 13.936 13.936 0 0 1 64.127 22.398 Q 64 21.294 64 20 A 23.85 23.85 0 0 1 64.054 18.345 Q 64.147 17.013 64.4 16 A 13.936 13.936 0 0 1 64.127 14.398 Q 64 13.294 64 12 A 23.85 23.85 0 0 1 64.054 10.345 Q 64.147 9.013 64.4 8 A 13.936 13.936 0 0 1 64.127 6.398 Q 64 5.294 64 4 A 23.85 23.85 0 0 1 64.054 2.345 Q 64.147 1.013 64.4 0 L 72.4 0 Q 72.698 1.194 72.774 2.833 A 25.306 25.306 0 0 1 72.8 4 Q 72.8 5.968 72.507 7.496 A 12.311 12.311 0 0 1 72.4 8 Q 72.698 9.194 72.774 10.833 A 25.306 25.306 0 0 1 72.8 12 Q 72.8 13.968 72.507 15.496 A 12.311 12.311 0 0 1 72.4 16 Q 72.698 17.194 72.774 18.833 A 25.306 25.306 0 0 1 72.8 20 Q 72.8 21.968 72.507 23.496 A 12.311 12.311 0 0 1 72.4 24 Z M 248.4 24 L 251.4 24 L 264.4 24 Q 264.147 25.013 264.054 26.345 A 23.85 23.85 0 0 0 264 28 Q 264 29.294 264.127 30.398 A 13.936 13.936 0 0 0 264.4 32 Q 264.147 33.013 264.054 34.345 A 23.85 23.85 0 0 0 264 36 Q 264 37.294 264.127 38.398 A 13.936 13.936 0 0 0 264.4 40 Q 264.147 41.013 264.054 42.345 A 23.85 23.85 0 0 0 264 44 Q 264 45.294 264.127 46.398 A 13.936 13.936 0 0 0 264.4 48 Q 264.147 49.013 264.054 50.345 A 23.85 23.85 0 0 0 264 52 Q 264 53.294 264.127 54.398 A 13.936 13.936 0 0 0 264.4 56 L 272.4 56 A 12.311 12.311 0 0 0 272.507 55.496 Q 272.8 53.968 272.8 52 A 25.306 25.306 0 0 0 272.774 50.833 Q 272.698 49.194 272.4 48 A 12.311 12.311 0 0 0 272.507 47.496 Q 272.8 45.968 272.8 44 A 25.306 25.306 0 0 0 272.774 42.833 Q 272.698 41.194 272.4 40 A 12.311 12.311 0 0 0 272.507 39.496 Q 272.8 37.968 272.8 36 A 25.306 25.306 0 0 0 272.774 34.833 Q 272.698 33.194 272.4 32 A 12.311 12.311 0 0 0 272.507 31.496 Q 272.8 29.968 272.8 28 A 25.306 25.306 0 0 0 272.774 26.833 Q 272.698 25.194 272.4 24 L 267.4 24 A 12.311 12.311 0 0 0 267.507 23.496 Q 267.8 21.968 267.8 20 A 25.306 25.306 0 0 0 267.774 18.833 Q 267.698 17.194 267.4 16 L 251.4 16 Q 251.147 17.013 251.054 18.345 A 23.85 23.85 0 0 0 251 20 Q 251 21.294 251.127 22.398 A 13.936 13.936 0 0 0 251.4 24 A 11.741 11.741 0 0 1 251.644 25.313 Q 251.737 26.018 251.774 26.833 A 25.306 25.306 0 0 1 251.8 28 Q 251.8 29.968 251.507 31.496 A 12.311 12.311 0 0 1 251.4 32 L 248.4 32 A 11.741 11.741 0 0 1 248.644 33.313 Q 248.737 34.018 248.774 34.833 A 25.306 25.306 0 0 1 248.8 36 Q 248.8 37.968 248.507 39.496 A 12.311 12.311 0 0 1 248.4 40 A 11.741 11.741 0 0 1 248.644 41.313 Q 248.737 42.018 248.774 42.833 A 25.306 25.306 0 0 1 248.8 44 Q 248.8 45.968 248.507 47.496 A 12.311 12.311 0 0 1 248.4 48 A 11.741 11.741 0 0 1 248.644 49.313 Q 248.737 50.018 248.774 50.833 A 25.306 25.306 0 0 1 248.8 52 Q 248.8 53.968 248.507 55.496 A 12.311 12.311 0 0 1 248.4 56 L 240.4 56 A 13.936 13.936 0 0 1 240.127 54.398 Q 240 53.294 240 52 A 23.85 23.85 0 0 1 240.054 50.345 Q 240.147 49.013 240.4 48 A 13.936 13.936 0 0 1 240.127 46.398 Q 240 45.294 240 44 A 23.85 23.85 0 0 1 240.054 42.345 Q 240.147 41.013 240.4 40 A 13.936 13.936 0 0 1 240.127 38.398 Q 240 37.294 240 36 A 23.85 23.85 0 0 1 240.054 34.345 Q 240.147 33.013 240.4 32 A 13.936 13.936 0 0 1 240.127 30.398 Q 240 29.294 240 28 A 23.85 23.85 0 0 1 240.054 26.345 Q 240.147 25.013 240.4 24 A 13.936 13.936 0 0 1 240.127 22.398 Q 240 21.294 240 20 A 23.85 23.85 0 0 1 240.054 18.345 Q 240.147 17.013 240.4 16 A 13.936 13.936 0 0 1 240.127 14.398 Q 240 13.294 240 12 A 23.85 23.85 0 0 1 240.054 10.345 Q 240.147 9.013 240.4 8 A 13.936 13.936 0 0 1 240.127 6.398 Q 240 5.294 240 4 A 23.85 23.85 0 0 1 240.054 2.345 Q 240.147 1.013 240.4 0 L 248.4 0 A 11.741 11.741 0 0 1 248.644 1.313 Q 248.737 2.018 248.774 2.833 A 25.306 25.306 0 0 1 248.8 4 Q 248.8 5.968 248.507 7.496 A 12.311 12.311 0 0 1 248.4 8 A 11.741 11.741 0 0 1 248.644 9.313 Q 248.737 10.018 248.774 10.833 A 25.306 25.306 0 0 1 248.8 12 Q 248.8 13.968 248.507 15.496 A 12.311 12.311 0 0 1 248.4 16 A 11.741 11.741 0 0 1 248.644 17.313 Q 248.737 18.018 248.774 18.833 A 25.306 25.306 0 0 1 248.8 20 Q 248.8 21.968 248.507 23.496 A 12.311 12.311 0 0 1 248.4 24 Z M 472.4 24 L 469.4 24 A 11.741 11.741 0 0 1 469.644 25.313 Q 469.737 26.018 469.774 26.833 A 25.306 25.306 0 0 1 469.8 28 Q 469.8 29.968 469.507 31.496 A 12.311 12.311 0 0 1 469.4 32 L 466.4 32 Q 466.698 33.194 466.774 34.833 A 25.306 25.306 0 0 1 466.8 36 Q 466.8 37.968 466.507 39.496 A 12.311 12.311 0 0 1 466.4 40 L 464.4 40 Q 464.698 41.194 464.774 42.833 A 25.306 25.306 0 0 1 464.8 44 Q 464.8 45.968 464.507 47.496 A 12.311 12.311 0 0 1 464.4 48 L 460.4 48 Q 460.698 49.194 460.774 50.833 A 25.306 25.306 0 0 1 460.8 52 Q 460.8 53.968 460.507 55.496 A 12.311 12.311 0 0 1 460.4 56 L 452.4 56 A 13.936 13.936 0 0 1 452.127 54.398 Q 452 53.294 452 52 A 23.85 23.85 0 0 1 452.054 50.345 Q 452.147 49.013 452.4 48 L 448.4 48 A 13.936 13.936 0 0 1 448.127 46.398 Q 448 45.294 448 44 A 23.85 23.85 0 0 1 448.054 42.345 Q 448.147 41.013 448.4 40 L 446.4 40 A 13.936 13.936 0 0 1 446.127 38.398 Q 446 37.294 446 36 A 23.85 23.85 0 0 1 446.054 34.345 Q 446.147 33.013 446.4 32 L 443.4 32 A 13.936 13.936 0 0 1 443.127 30.398 Q 443 29.294 443 28 A 23.85 23.85 0 0 1 443.054 26.345 Q 443.147 25.013 443.4 24 L 440.4 24 A 13.936 13.936 0 0 1 440.127 22.398 Q 440 21.294 440 20 A 23.85 23.85 0 0 1 440.054 18.345 Q 440.147 17.013 440.4 16 L 448.4 16 A 11.741 11.741 0 0 1 448.644 17.313 Q 448.737 18.018 448.774 18.833 A 25.306 25.306 0 0 1 448.8 20 Q 448.8 21.968 448.507 23.496 A 12.311 12.311 0 0 1 448.4 24 L 451.4 24 A 11.741 11.741 0 0 1 451.644 25.313 Q 451.737 26.018 451.774 26.833 A 25.306 25.306 0 0 1 451.8 28 Q 451.8 29.968 451.507 31.496 A 12.311 12.311 0 0 1 451.4 32 L 454.4 32 A 11.741 11.741 0 0 1 454.644 33.313 Q 454.737 34.018 454.774 34.833 A 25.306 25.306 0 0 1 454.8 36 Q 454.8 37.968 454.507 39.496 A 12.311 12.311 0 0 1 454.4 40 L 458.4 40 A 13.936 13.936 0 0 1 458.127 38.398 Q 458 37.294 458 36 A 23.85 23.85 0 0 1 458.054 34.345 Q 458.147 33.013 458.4 32 L 461.4 32 A 13.936 13.936 0 0 1 461.127 30.398 Q 461 29.294 461 28 A 23.85 23.85 0 0 1 461.054 26.345 Q 461.147 25.013 461.4 24 L 464.4 24 A 13.936 13.936 0 0 1 464.127 22.398 Q 464 21.294 464 20 A 23.85 23.85 0 0 1 464.054 18.345 Q 464.147 17.013 464.4 16 L 472.4 16 Q 472.698 17.194 472.774 18.833 A 25.306 25.306 0 0 1 472.8 20 Q 472.8 21.968 472.507 23.496 A 12.311 12.311 0 0 1 472.4 24 Z M 312.4 40 L 291.4 40 A 11.741 11.741 0 0 1 291.644 41.313 Q 291.737 42.018 291.774 42.833 A 25.306 25.306 0 0 1 291.8 44 Q 291.8 45.968 291.507 47.496 A 12.311 12.311 0 0 1 291.4 48 L 308.4 48 A 11.741 11.741 0 0 1 308.644 49.313 Q 308.737 50.018 308.774 50.833 A 25.306 25.306 0 0 1 308.8 52 Q 308.8 53.968 308.507 55.496 A 12.311 12.311 0 0 1 308.4 56 L 288.4 56 A 13.936 13.936 0 0 1 288.127 54.398 Q 288 53.294 288 52 A 23.85 23.85 0 0 1 288.054 50.345 Q 288.147 49.013 288.4 48 L 283.4 48 A 13.936 13.936 0 0 1 283.127 46.398 Q 283 45.294 283 44 A 23.85 23.85 0 0 1 283.054 42.345 Q 283.147 41.013 283.4 40 L 280.4 40 A 13.936 13.936 0 0 1 280.127 38.398 Q 280 37.294 280 36 A 23.85 23.85 0 0 1 280.054 34.345 Q 280.147 33.013 280.4 32 L 283.4 32 A 13.936 13.936 0 0 1 283.127 30.398 Q 283 29.294 283 28 A 23.85 23.85 0 0 1 283.054 26.345 Q 283.147 25.013 283.4 24 L 288.4 24 A 13.936 13.936 0 0 1 288.127 22.398 Q 288 21.294 288 20 A 23.85 23.85 0 0 1 288.054 18.345 Q 288.147 17.013 288.4 16 L 308.4 16 A 11.741 11.741 0 0 1 308.644 17.313 Q 308.737 18.018 308.774 18.833 A 25.306 25.306 0 0 1 308.8 20 Q 308.8 21.968 308.507 23.496 A 12.311 12.311 0 0 1 308.4 24 L 312.4 24 Q 312.698 25.194 312.774 26.833 A 25.306 25.306 0 0 1 312.8 28 Q 312.8 29.968 312.507 31.496 A 12.311 12.311 0 0 1 312.4 32 Q 312.698 33.194 312.774 34.833 A 25.306 25.306 0 0 1 312.8 36 Q 312.8 37.968 312.507 39.496 A 12.311 12.311 0 0 1 312.4 40 Z M 432.4 40 L 411.4 40 A 11.741 11.741 0 0 1 411.644 41.313 Q 411.737 42.018 411.774 42.833 A 25.306 25.306 0 0 1 411.8 44 Q 411.8 45.968 411.507 47.496 A 12.311 12.311 0 0 1 411.4 48 L 428.4 48 A 11.741 11.741 0 0 1 428.644 49.313 Q 428.737 50.018 428.774 50.833 A 25.306 25.306 0 0 1 428.8 52 Q 428.8 53.968 428.507 55.496 A 12.311 12.311 0 0 1 428.4 56 L 408.4 56 A 13.936 13.936 0 0 1 408.127 54.398 Q 408 53.294 408 52 A 23.85 23.85 0 0 1 408.054 50.345 Q 408.147 49.013 408.4 48 L 403.4 48 A 13.936 13.936 0 0 1 403.127 46.398 Q 403 45.294 403 44 A 23.85 23.85 0 0 1 403.054 42.345 Q 403.147 41.013 403.4 40 L 400.4 40 A 13.936 13.936 0 0 1 400.127 38.398 Q 400 37.294 400 36 A 23.85 23.85 0 0 1 400.054 34.345 Q 400.147 33.013 400.4 32 L 403.4 32 A 13.936 13.936 0 0 1 403.127 30.398 Q 403 29.294 403 28 A 23.85 23.85 0 0 1 403.054 26.345 Q 403.147 25.013 403.4 24 L 408.4 24 A 13.936 13.936 0 0 1 408.127 22.398 Q 408 21.294 408 20 A 23.85 23.85 0 0 1 408.054 18.345 Q 408.147 17.013 408.4 16 L 428.4 16 A 11.741 11.741 0 0 1 428.644 17.313 Q 428.737 18.018 428.774 18.833 A 25.306 25.306 0 0 1 428.8 20 Q 428.8 21.968 428.507 23.496 A 12.311 12.311 0 0 1 428.4 24 L 432.4 24 Q 432.698 25.194 432.774 26.833 A 25.306 25.306 0 0 1 432.8 28 Q 432.8 29.968 432.507 31.496 A 12.311 12.311 0 0 1 432.4 32 Q 432.698 33.194 432.774 34.833 A 25.306 25.306 0 0 1 432.8 36 Q 432.8 37.968 432.507 39.496 A 12.311 12.311 0 0 1 432.4 40 Z M 232.4 8 L 220.4 8 Q 220.698 9.194 220.774 10.833 A 25.306 25.306 0 0 1 220.8 12 Q 220.8 13.968 220.507 15.496 A 12.311 12.311 0 0 1 220.4 16 Q 220.698 17.194 220.774 18.833 A 25.306 25.306 0 0 1 220.8 20 Q 220.8 21.968 220.507 23.496 A 12.311 12.311 0 0 1 220.4 24 Q 220.698 25.194 220.774 26.833 A 25.306 25.306 0 0 1 220.8 28 Q 220.8 29.968 220.507 31.496 A 12.311 12.311 0 0 1 220.4 32 Q 220.698 33.194 220.774 34.833 A 25.306 25.306 0 0 1 220.8 36 Q 220.8 37.968 220.507 39.496 A 12.311 12.311 0 0 1 220.4 40 Q 220.698 41.194 220.774 42.833 A 25.306 25.306 0 0 1 220.8 44 Q 220.8 45.968 220.507 47.496 A 12.311 12.311 0 0 1 220.4 48 Q 220.698 49.194 220.774 50.833 A 25.306 25.306 0 0 1 220.8 52 Q 220.8 53.968 220.507 55.496 A 12.311 12.311 0 0 1 220.4 56 L 212.4 56 A 13.936 13.936 0 0 1 212.127 54.398 Q 212 53.294 212 52 A 23.85 23.85 0 0 1 212.054 50.345 Q 212.147 49.013 212.4 48 A 13.936 13.936 0 0 1 212.127 46.398 Q 212 45.294 212 44 A 23.85 23.85 0 0 1 212.054 42.345 Q 212.147 41.013 212.4 40 A 13.936 13.936 0 0 1 212.127 38.398 Q 212 37.294 212 36 A 23.85 23.85 0 0 1 212.054 34.345 Q 212.147 33.013 212.4 32 A 13.936 13.936 0 0 1 212.127 30.398 Q 212 29.294 212 28 A 23.85 23.85 0 0 1 212.054 26.345 Q 212.147 25.013 212.4 24 A 13.936 13.936 0 0 1 212.127 22.398 Q 212 21.294 212 20 A 23.85 23.85 0 0 1 212.054 18.345 Q 212.147 17.013 212.4 16 A 13.936 13.936 0 0 1 212.127 14.398 Q 212 13.294 212 12 A 23.85 23.85 0 0 1 212.054 10.345 Q 212.147 9.013 212.4 8 L 200.4 8 A 13.936 13.936 0 0 1 200.127 6.398 Q 200 5.294 200 4 A 23.85 23.85 0 0 1 200.054 2.345 Q 200.147 1.013 200.4 0 L 232.4 0 Q 232.698 1.194 232.774 2.833 A 25.306 25.306 0 0 1 232.8 4 Q 232.8 5.968 232.507 7.496 A 12.311 12.311 0 0 1 232.4 8 Z M 392.4 40 L 388.4 40 A 11.741 11.741 0 0 1 388.644 41.313 Q 388.737 42.018 388.774 42.833 A 25.306 25.306 0 0 1 388.8 44 Q 388.8 45.968 388.507 47.496 A 12.311 12.311 0 0 1 388.4 48 L 384.4 48 Q 384.698 49.194 384.774 50.833 A 25.306 25.306 0 0 1 384.8 52 Q 384.8 53.968 384.507 55.496 A 12.311 12.311 0 0 1 384.4 56 L 360.4 56 A 13.936 13.936 0 0 1 360.127 54.398 Q 360 53.294 360 52 A 23.85 23.85 0 0 1 360.054 50.345 Q 360.147 49.013 360.4 48 A 13.936 13.936 0 0 1 360.127 46.398 Q 360 45.294 360 44 A 23.85 23.85 0 0 1 360.054 42.345 Q 360.147 41.013 360.4 40 A 13.936 13.936 0 0 1 360.127 38.398 Q 360 37.294 360 36 A 23.85 23.85 0 0 1 360.054 34.345 Q 360.147 33.013 360.4 32 A 13.936 13.936 0 0 1 360.127 30.398 Q 360 29.294 360 28 A 23.85 23.85 0 0 1 360.054 26.345 Q 360.147 25.013 360.4 24 A 13.936 13.936 0 0 1 360.127 22.398 Q 360 21.294 360 20 A 23.85 23.85 0 0 1 360.054 18.345 Q 360.147 17.013 360.4 16 A 13.936 13.936 0 0 1 360.127 14.398 Q 360 13.294 360 12 A 23.85 23.85 0 0 1 360.054 10.345 Q 360.147 9.013 360.4 8 A 13.936 13.936 0 0 1 360.127 6.398 Q 360 5.294 360 4 A 23.85 23.85 0 0 1 360.054 2.345 Q 360.147 1.013 360.4 0 L 384.4 0 Q 384.698 1.194 384.774 2.833 A 25.306 25.306 0 0 1 384.8 4 Q 384.8 5.968 384.507 7.496 A 12.311 12.311 0 0 1 384.4 8 L 388.4 8 A 11.741 11.741 0 0 1 388.644 9.313 Q 388.737 10.018 388.774 10.833 A 25.306 25.306 0 0 1 388.8 12 Q 388.8 13.968 388.507 15.496 A 12.311 12.311 0 0 1 388.4 16 L 392.4 16 Q 392.698 17.194 392.774 18.833 A 25.306 25.306 0 0 1 392.8 20 Q 392.8 21.968 392.507 23.496 A 12.311 12.311 0 0 1 392.4 24 Q 392.698 25.194 392.774 26.833 A 25.306 25.306 0 0 1 392.8 28 Q 392.8 29.968 392.507 31.496 A 12.311 12.311 0 0 1 392.4 32 Q 392.698 33.194 392.774 34.833 A 25.306 25.306 0 0 1 392.8 36 Q 392.8 37.968 392.507 39.496 A 12.311 12.311 0 0 1 392.4 40 Z M 548.4 56 L 524.4 56 A 13.936 13.936 0 0 1 524.127 54.398 Q 524 53.294 524 52 A 23.85 23.85 0 0 1 524.054 50.345 Q 524.147 49.013 524.4 48 L 532.4 48 A 13.936 13.936 0 0 1 532.127 46.398 Q 532 45.294 532 44 A 23.85 23.85 0 0 1 532.054 42.345 Q 532.147 41.013 532.4 40 A 13.936 13.936 0 0 1 532.127 38.398 Q 532 37.294 532 36 A 23.85 23.85 0 0 1 532.054 34.345 Q 532.147 33.013 532.4 32 A 13.936 13.936 0 0 1 532.127 30.398 Q 532 29.294 532 28 A 23.85 23.85 0 0 1 532.054 26.345 Q 532.147 25.013 532.4 24 A 13.936 13.936 0 0 1 532.127 22.398 Q 532 21.294 532 20 A 23.85 23.85 0 0 1 532.054 18.345 Q 532.147 17.013 532.4 16 A 13.936 13.936 0 0 1 532.127 14.398 Q 532 13.294 532 12 A 23.85 23.85 0 0 1 532.054 10.345 Q 532.147 9.013 532.4 8 L 526.4 8 A 13.936 13.936 0 0 1 526.127 6.398 Q 526 5.294 526 4 A 23.85 23.85 0 0 1 526.054 2.345 Q 526.147 1.013 526.4 0 L 540.4 0 Q 540.698 1.194 540.774 2.833 A 25.306 25.306 0 0 1 540.8 4 Q 540.8 5.968 540.507 7.496 A 12.311 12.311 0 0 1 540.4 8 Q 540.698 9.194 540.774 10.833 A 25.306 25.306 0 0 1 540.8 12 Q 540.8 13.968 540.507 15.496 A 12.311 12.311 0 0 1 540.4 16 Q 540.698 17.194 540.774 18.833 A 25.306 25.306 0 0 1 540.8 20 Q 540.8 21.968 540.507 23.496 A 12.311 12.311 0 0 1 540.4 24 Q 540.698 25.194 540.774 26.833 A 25.306 25.306 0 0 1 540.8 28 Q 540.8 29.968 540.507 31.496 A 12.311 12.311 0 0 1 540.4 32 Q 540.698 33.194 540.774 34.833 A 25.306 25.306 0 0 1 540.8 36 Q 540.8 37.968 540.507 39.496 A 12.311 12.311 0 0 1 540.4 40 Q 540.698 41.194 540.774 42.833 A 25.306 25.306 0 0 1 540.8 44 Q 540.8 45.968 540.507 47.496 A 12.311 12.311 0 0 1 540.4 48 L 548.4 48 A 11.741 11.741 0 0 1 548.644 49.313 Q 548.737 50.018 548.774 50.833 A 25.306 25.306 0 0 1 548.8 52 Q 548.8 53.968 548.507 55.496 A 12.311 12.311 0 0 1 548.4 56 Z M 508.4 56 L 484.4 56 A 13.936 13.936 0 0 1 484.127 54.398 Q 484 53.294 484 52 A 23.85 23.85 0 0 1 484.054 50.345 Q 484.147 49.013 484.4 48 L 492.4 48 A 13.936 13.936 0 0 1 492.127 46.398 Q 492 45.294 492 44 A 23.85 23.85 0 0 1 492.054 42.345 Q 492.147 41.013 492.4 40 A 13.936 13.936 0 0 1 492.127 38.398 Q 492 37.294 492 36 A 23.85 23.85 0 0 1 492.054 34.345 Q 492.147 33.013 492.4 32 A 13.936 13.936 0 0 1 492.127 30.398 Q 492 29.294 492 28 A 23.85 23.85 0 0 1 492.054 26.345 Q 492.147 25.013 492.4 24 L 486.4 24 A 13.936 13.936 0 0 1 486.127 22.398 Q 486 21.294 486 20 A 23.85 23.85 0 0 1 486.054 18.345 Q 486.147 17.013 486.4 16 L 500.4 16 Q 500.698 17.194 500.774 18.833 A 25.306 25.306 0 0 1 500.8 20 Q 500.8 21.968 500.507 23.496 A 12.311 12.311 0 0 1 500.4 24 Q 500.698 25.194 500.774 26.833 A 25.306 25.306 0 0 1 500.8 28 Q 500.8 29.968 500.507 31.496 A 12.311 12.311 0 0 1 500.4 32 Q 500.698 33.194 500.774 34.833 A 25.306 25.306 0 0 1 500.8 36 Q 500.8 37.968 500.507 39.496 A 12.311 12.311 0 0 1 500.4 40 Q 500.698 41.194 500.774 42.833 A 25.306 25.306 0 0 1 500.8 44 Q 500.8 45.968 500.507 47.496 A 12.311 12.311 0 0 1 500.4 48 L 508.4 48 A 11.741 11.741 0 0 1 508.644 49.313 Q 508.737 50.018 508.774 50.833 A 25.306 25.306 0 0 1 508.8 52 Q 508.8 53.968 508.507 55.496 A 12.311 12.311 0 0 1 508.4 56 Z M 384.4 16 L 380.4 16 A 13.936 13.936 0 0 1 380.127 14.398 Q 380 13.294 380 12 A 23.85 23.85 0 0 1 380.054 10.345 Q 380.147 9.013 380.4 8 L 368.4 8 A 11.741 11.741 0 0 1 368.644 9.313 Q 368.737 10.018 368.774 10.833 A 25.306 25.306 0 0 1 368.8 12 Q 368.8 13.968 368.507 15.496 A 12.311 12.311 0 0 1 368.4 16 A 11.741 11.741 0 0 1 368.644 17.313 Q 368.737 18.018 368.774 18.833 A 25.306 25.306 0 0 1 368.8 20 Q 368.8 21.968 368.507 23.496 A 12.311 12.311 0 0 1 368.4 24 A 11.741 11.741 0 0 1 368.644 25.313 Q 368.737 26.018 368.774 26.833 A 25.306 25.306 0 0 1 368.8 28 Q 368.8 29.968 368.507 31.496 A 12.311 12.311 0 0 1 368.4 32 A 11.741 11.741 0 0 1 368.644 33.313 Q 368.737 34.018 368.774 34.833 A 25.306 25.306 0 0 1 368.8 36 Q 368.8 37.968 368.507 39.496 A 12.311 12.311 0 0 1 368.4 40 A 11.741 11.741 0 0 1 368.644 41.313 Q 368.737 42.018 368.774 42.833 A 25.306 25.306 0 0 1 368.8 44 Q 368.8 45.968 368.507 47.496 A 12.311 12.311 0 0 1 368.4 48 L 380.4 48 A 13.936 13.936 0 0 1 380.127 46.398 Q 380 45.294 380 44 A 23.85 23.85 0 0 1 380.054 42.345 Q 380.147 41.013 380.4 40 L 384.4 40 A 13.936 13.936 0 0 1 384.127 38.398 Q 384 37.294 384 36 A 23.85 23.85 0 0 1 384.054 34.345 Q 384.147 33.013 384.4 32 A 13.936 13.936 0 0 1 384.127 30.398 Q 384 29.294 384 28 A 23.85 23.85 0 0 1 384.054 26.345 Q 384.147 25.013 384.4 24 A 13.936 13.936 0 0 1 384.127 22.398 Q 384 21.294 384 20 A 23.85 23.85 0 0 1 384.054 18.345 Q 384.147 17.013 384.4 16 Z M 126.4 24 L 146.4 24 Q 146.698 25.194 146.774 26.833 A 25.306 25.306 0 0 1 146.8 28 Q 146.8 29.968 146.507 31.496 A 12.311 12.311 0 0 1 146.4 32 L 126.4 32 A 13.936 13.936 0 0 1 126.127 30.398 Q 126 29.294 126 28 A 23.85 23.85 0 0 1 126.054 26.345 Q 126.147 25.013 126.4 24 Z M 304.4 24 L 291.4 24 A 11.741 11.741 0 0 1 291.644 25.313 Q 291.737 26.018 291.774 26.833 A 25.306 25.306 0 0 1 291.8 28 Q 291.8 29.968 291.507 31.496 A 12.311 12.311 0 0 1 291.4 32 L 304.4 32 A 13.936 13.936 0 0 1 304.127 30.398 Q 304 29.294 304 28 A 23.85 23.85 0 0 1 304.054 26.345 Q 304.147 25.013 304.4 24 Z M 424.4 24 L 411.4 24 A 11.741 11.741 0 0 1 411.644 25.313 Q 411.737 26.018 411.774 26.833 A 25.306 25.306 0 0 1 411.8 28 Q 411.8 29.968 411.507 31.496 A 12.311 12.311 0 0 1 411.4 32 L 424.4 32 A 13.936 13.936 0 0 1 424.127 30.398 Q 424 29.294 424 28 A 23.85 23.85 0 0 1 424.054 26.345 Q 424.147 25.013 424.4 24 Z M 500.4 8 L 492.4 8 A 13.936 13.936 0 0 1 492.127 6.398 Q 492 5.294 492 4 A 23.85 23.85 0 0 1 492.054 2.345 Q 492.147 1.013 492.4 0 L 500.4 0 Q 500.698 1.194 500.774 2.833 A 25.306 25.306 0 0 1 500.8 4 Q 500.8 5.968 500.507 7.496 A 12.311 12.311 0 0 1 500.4 8 Z" vector-effect="non-scaling-stroke"/></g></svg>