<svg width="592.8" height="56" viewBox="0 0 592.8 56" xmlns="http://www.w3.org/2000/svg"><g id="svgGroup" stroke-linecap="round" fill-rule="evenodd" font-size="9pt" stroke="#000" stroke-width="0.25mm" fill="#000" style="stroke:#000;stroke-width:0.25mm;fill:#000"><path d="M 29.4 48 L 32.4 48 Q 32.698 49.194 32.774 50.833 A 25.306 25.306 0 0 1 32.8 52 Q 32.8 53.968 32.507 55.496 A 12.311 12.311 0 0 1 32.4 56 L 24.4 56 A 13.936 13.936 0 0 1 24.127 54.398 Q 24 53.294 24 52 A 23.85 23.85 0 0 1 24.054 50.345 Q 24.147 49.013 24.4 48 L 21.4 48 A 13.936 13.936 0 0 1 21.127 46.398 Q 21 45.294 21 44 A 23.85 23.85 0 0 1 21.054 42.345 Q 21.147 41.013 21.4 40 L 19.4 40 A 13.936 13.936 0 0 1 19.127 38.398 Q 19 37.294 19 36 A 23.85 23.85 0 0 1 19.054 34.345 Q 19.147 33.013 19.4 32 L 13.4 32 A 11.741 11.741 0 0 1 13.644 33.313 Q 13.737 34.018 13.774 34.833 A 25.306 25.306 0 0 1 13.8 36 Q 13.8 37.968 13.507 39.496 A 12.311 12.311 0 0 1 13.4 40 L 11.4 40 A 11.741 11.741 0 0 1 11.644 41.313 Q 11.737 42.018 11.774 42.833 A 25.306 25.306 0 0 1 11.8 44 Q 11.8 45.968 11.507 47.496 A 12.311 12.311 0 0 1 11.4 48 L 8.4 48 A 11.741 11.741 0 0 1 8.644 49.313 Q 8.737 50.018 8.774 50.833 A 25.306 25.306 0 0 1 8.8 52 Q 8.8 53.968 8.507 55.496 A 12.311 12.311 0 0 1 8.4 56 L 0.4 56 A 13.936 13.936 0 0 1 0.127 54.398 Q 0 53.294 0 52 A 23.85 23.85 0 0 1 0.054 50.345 Q 0.147 49.013 0.4 48 L 3.4 48 A 13.936 13.936 0 0 1 3.127 46.398 Q 3 45.294 3 44 A 23.85 23.85 0 0 1 3.054 42.345 Q 3.147 41.013 3.4 40 L 7.4 40 A 13.936 13.936 0 0 1 7.127 38.398 Q 7 37.294 7 36 A 23.85 23.85 0 0 1 7.054 34.345 Q 7.147 33.013 7.4 32 L 10.4 32 A 13.936 13.936 0 0 1 10.127 30.398 Q 10 29.294 10 28 A 23.85 23.85 0 0 1 10.054 26.345 Q 10.147 25.013 10.4 24 L 7.4 24 A 13.936 13.936 0 0 1 7.127 22.398 Q 7 21.294 7 20 A 23.85 23.85 0 0 1 7.054 18.345 Q 7.147 17.013 7.4 16 L 3.4 16 A 13.936 13.936 0 0 1 3.127 14.398 Q 3 13.294 3 12 A 23.85 23.85 0 0 1 3.054 10.345 Q 3.147 9.013 3.4 8 L 0.4 8 A 13.936 13.936 0 0 1 0.127 6.398 Q 0 5.294 0 4 A 23.85 23.85 0 0 1 0.054 2.345 Q 0.147 1.013 0.4 0 L 8.4 0 A 11.741 11.741 0 0 1 8.644 1.313 Q 8.737 2.018 8.774 2.833 A 25.306 25.306 0 0 1 8.8 4 Q 8.8 5.968 8.507 7.496 A 12.311 12.311 0 0 1 8.4 8 L 11.4 8 A 11.741 11.741 0 0 1 11.644 9.313 Q 11.737 10.018 11.774 10.833 A 25.306 25.306 0 0 1 11.8 12 Q 11.8 13.968 11.507 15.496 A 12.311 12.311 0 0 1 11.4 16 L 13.4 16 A 11.741 11.741 0 0 1 13.644 17.313 Q 13.737 18.018 13.774 18.833 A 25.306 25.306 0 0 1 13.8 20 Q 13.8 21.968 13.507 23.496 A 12.311 12.311 0 0 1 13.4 24 L 19.4 24 A 13.936 13.936 0 0 1 19.127 22.398 Q 19 21.294 19 20 A 23.85 23.85 0 0 1 19.054 18.345 Q 19.147 17.013 19.4 16 L 21.4 16 A 13.936 13.936 0 0 1 21.127 14.398 Q 21 13.294 21 12 A 23.85 23.85 0 0 1 21.054 10.345 Q 21.147 9.013 21.4 8 L 24.4 8 A 13.936 13.936 0 0 1 24.127 6.398 Q 24 5.294 24 4 A 23.85 23.85 0 0 1 24.054 2.345 Q 24.147 1.013 24.4 0 L 32.4 0 Q 32.698 1.194 32.774 2.833 A 25.306 25.306 0 0 1 32.8 4 Q 32.8 5.968 32.507 7.496 A 12.311 12.311 0 0 1 32.4 8 L 29.4 8 A 11.741 11.741 0 0 1 29.644 9.313 Q 29.737 10.018 29.774 10.833 A 25.306 25.306 0 0 1 29.8 12 Q 29.8 13.968 29.507 15.496 A 12.311 12.311 0 0 1 29.4 16 L 25.4 16 Q 25.698 17.194 25.774 18.833 A 25.306 25.306 0 0 1 25.8 20 Q 25.8 21.968 25.507 23.496 A 12.311 12.311 0 0 1 25.4 24 L 22.4 24 Q 22.698 25.194 22.774 26.833 A 25.306 25.306 0 0 1 22.8 28 Q 22.8 29.968 22.507 31.496 A 12.311 12.311 0 0 1 22.4 32 L 25.4 32 Q 25.698 33.194 25.774 34.833 A 25.306 25.306 0 0 1 25.8 36 Q 25.8 37.968 25.507 39.496 A 12.311 12.311 0 0 1 25.4 40 L 29.4 40 A 11.741 11.741 0 0 1 29.644 41.313 Q 29.737 42.018 29.774 42.833 A 25.306 25.306 0 0 1 29.8 44 Q 29.8 45.968 29.507 47.496 A 12.311 12.311 0 0 1 29.4 48 Z M 512.4 32 L 509.4 32 A 11.741 11.741 0 0 1 509.644 33.313 Q 509.737 34.018 509.774 34.833 A 25.306 25.306 0 0 1 509.8 36 Q 509.8 37.968 509.507 39.496 A 12.311 12.311 0 0 1 509.4 40 A 11.741 11.741 0 0 1 509.644 41.313 Q 509.737 42.018 509.774 42.833 A 25.306 25.306 0 0 1 509.8 44 Q 509.8 45.968 509.507 47.496 A 12.311 12.311 0 0 1 509.4 48 L 507.4 48 Q 507.698 49.194 507.774 50.833 A 25.306 25.306 0 0 1 507.8 52 Q 507.8 53.968 507.507 55.496 A 12.311 12.311 0 0 1 507.4 56 L 501.4 56 A 13.936 13.936 0 0 1 501.127 54.398 Q 501 53.294 501 52 A 23.85 23.85 0 0 1 501.054 50.345 Q 501.147 49.013 501.4 48 L 499.4 48 A 13.936 13.936 0 0 1 499.127 46.398 Q 499 45.294 499 44 A 23.85 23.85 0 0 1 499.054 42.345 Q 499.147 41.013 499.4 40 L 493.4 40 A 11.741 11.741 0 0 1 493.644 41.313 Q 493.737 42.018 493.774 42.833 A 25.306 25.306 0 0 1 493.8 44 Q 493.8 45.968 493.507 47.496 A 12.311 12.311 0 0 1 493.4 48 L 491.4 48 A 11.741 11.741 0 0 1 491.644 49.313 Q 491.737 50.018 491.774 50.833 A 25.306 25.306 0 0 1 491.8 52 Q 491.8 53.968 491.507 55.496 A 12.311 12.311 0 0 1 491.4 56 L 485.4 56 A 13.936 13.936 0 0 1 485.127 54.398 Q 485 53.294 485 52 A 23.85 23.85 0 0 1 485.054 50.345 Q 485.147 49.013 485.4 48 L 483.4 48 A 13.936 13.936 0 0 1 483.127 46.398 Q 483 45.294 483 44 A 23.85 23.85 0 0 1 483.054 42.345 Q 483.147 41.013 483.4 40 A 13.936 13.936 0 0 1 483.127 38.398 Q 483 37.294 483 36 A 23.85 23.85 0 0 1 483.054 34.345 Q 483.147 33.013 483.4 32 L 480.4 32 A 13.936 13.936 0 0 1 480.127 30.398 Q 480 29.294 480 28 A 23.85 23.85 0 0 1 480.054 26.345 Q 480.147 25.013 480.4 24 A 13.936 13.936 0 0 1 480.127 22.398 Q 480 21.294 480 20 A 23.85 23.85 0 0 1 480.054 18.345 Q 480.147 17.013 480.4 16 L 488.4 16 A 11.741 11.741 0 0 1 488.644 17.313 Q 488.737 18.018 488.774 18.833 A 25.306 25.306 0 0 1 488.8 20 Q 488.8 21.968 488.507 23.496 A 12.311 12.311 0 0 1 488.4 24 A 11.741 11.741 0 0 1 488.644 25.313 Q 488.737 26.018 488.774 26.833 A 25.306 25.306 0 0 1 488.8 28 Q 488.8 29.968 488.507 31.496 A 12.311 12.311 0 0 1 488.4 32 A 11.741 11.741 0 0 1 488.644 33.313 Q 488.737 34.018 488.774 34.833 A 25.306 25.306 0 0 1 488.8 36 Q 488.8 37.968 488.507 39.496 A 12.311 12.311 0 0 1 488.4 40 L 491.4 40 A 13.936 13.936 0 0 1 491.127 38.398 Q 491 37.294 491 36 A 23.85 23.85 0 0 1 491.054 34.345 Q 491.147 33.013 491.4 32 L 493.4 32 A 13.936 13.936 0 0 1 493.127 30.398 Q 493 29.294 493 28 A 23.85 23.85 0 0 1 493.054 26.345 Q 493.147 25.013 493.4 24 A 13.936 13.936 0 0 1 493.127 22.398 Q 493 21.294 493 20 A 23.85 23.85 0 0 1 493.054 18.345 Q 493.147 17.013 493.4 16 L 499.4 16 Q 499.698 17.194 499.774 18.833 A 25.306 25.306 0 0 1 499.8 20 Q 499.8 21.968 499.507 23.496 A 12.311 12.311 0 0 1 499.4 24 Q 499.698 25.194 499.774 26.833 A 25.306 25.306 0 0 1 499.8 28 Q 499.8 29.968 499.507 31.496 A 12.311 12.311 0 0 1 499.4 32 L 501.4 32 Q 501.698 33.194 501.774 34.833 A 25.306 25.306 0 0 1 501.8 36 Q 501.8 37.968 501.507 39.496 A 12.311 12.311 0 0 1 501.4 40 L 504.4 40 A 13.936 13.936 0 0 1 504.127 38.398 Q 504 37.294 504 36 A 23.85 23.85 0 0 1 504.054 34.345 Q 504.147 33.013 504.4 32 A 13.936 13.936 0 0 1 504.127 30.398 Q 504 29.294 504 28 A 23.85 23.85 0 0 1 504.054 26.345 Q 504.147 25.013 504.4 24 A 13.936 13.936 0 0 1 504.127 22.398 Q 504 21.294 504 20 A 23.85 23.85 0 0 1 504.054 18.345 Q 504.147 17.013 504.4 16 L 512.4 16 Q 512.698 17.194 512.774 18.833 A 25.306 25.306 0 0 1 512.8 20 Q 512.8 21.968 512.507 23.496 A 12.311 12.311 0 0 1 512.4 24 Q 512.698 25.194 512.774 26.833 A 25.306 25.306 0 0 1 512.8 28 Q 512.8 29.968 512.507 31.496 A 12.311 12.311 0 0 1 512.4 32 Z M 72.4 24 L 69.4 24 A 11.741 11.741 0 0 1 69.644 25.313 Q 69.737 26.018 69.774 26.833 A 25.306 25.306 0 0 1 69.8 28 Q 69.8 29.968 69.507 31.496 A 12.311 12.311 0 0 1 69.4 32 L 66.4 32 Q 66.698 33.194 66.774 34.833 A 25.306 25.306 0 0 1 66.8 36 Q 66.8 37.968 66.507 39.496 A 12.311 12.311 0 0 1 66.4 40 L 64.4 40 Q 64.698 41.194 64.774 42.833 A 25.306 25.306 0 0 1 64.8 44 Q 64.8 45.968 64.507 47.496 A 12.311 12.311 0 0 1 64.4 48 L 60.4 48 Q 60.698 49.194 60.774 50.833 A 25.306 25.306 0 0 1 60.8 52 Q 60.8 53.968 60.507 55.496 A 12.311 12.311 0 0 1 60.4 56 L 52.4 56 A 13.936 13.936 0 0 1 52.127 54.398 Q 52 53.294 52 52 A 23.85 23.85 0 0 1 52.054 50.345 Q 52.147 49.013 52.4 48 L 48.4 48 A 13.936 13.936 0 0 1 48.127 46.398 Q 48 45.294 48 44 A 23.85 23.85 0 0 1 48.054 42.345 Q 48.147 41.013 48.4 40 L 46.4 40 A 13.936 13.936 0 0 1 46.127 38.398 Q 46 37.294 46 36 A 23.85 23.85 0 0 1 46.054 34.345 Q 46.147 33.013 46.4 32 L 43.4 32 A 13.936 13.936 0 0 1 43.127 30.398 Q 43 29.294 43 28 A 23.85 23.85 0 0 1 43.054 26.345 Q 43.147 25.013 43.4 24 L 40.4 24 A 13.936 13.936 0 0 1 40.127 22.398 Q 40 21.294 40 20 A 23.85 23.85 0 0 1 40.054 18.345 Q 40.147 17.013 40.4 16 A 13.936 13.936 0 0 1 40.127 14.398 Q 40 13.294 40 12 A 23.85 23.85 0 0 1 40.054 10.345 Q 40.147 9.013 40.4 8 A 13.936 13.936 0 0 1 40.127 6.398 Q 40 5.294 40 4 A 23.85 23.85 0 0 1 40.054 2.345 Q 40.147 1.013 40.4 0 L 48.4 0 A 11.741 11.741 0 0 1 48.644 1.313 Q 48.737 2.018 48.774 2.833 A 25.306 25.306 0 0 1 48.8 4 Q 48.8 5.968 48.507 7.496 A 12.311 12.311 0 0 1 48.4 8 A 11.741 11.741 0 0 1 48.644 9.313 Q 48.737 10.018 48.774 10.833 A 25.306 25.306 0 0 1 48.8 12 Q 48.8 13.968 48.507 15.496 A 12.311 12.311 0 0 1 48.4 16 A 11.741 11.741 0 0 1 48.644 17.313 Q 48.737 18.018 48.774 18.833 A 25.306 25.306 0 0 1 48.8 20 Q 48.8 21.968 48.507 23.496 A 12.311 12.311 0 0 1 48.4 24 L 51.4 24 A 11.741 11.741 0 0 1 51.644 25.313 Q 51.737 26.018 51.774 26.833 A 25.306 25.306 0 0 1 51.8 28 Q 51.8 29.968 51.507 31.496 A 12.311 12.311 0 0 1 51.4 32 L 54.4 32 A 11.741 11.741 0 0 1 54.644 33.313 Q 54.737 34.018 54.774 34.833 A 25.306 25.306 0 0 1 54.8 36 Q 54.8 37.968 54.507 39.496 A 12.311 12.311 0 0 1 54.4 40 L 58.4 40 A 13.936 13.936 0 0 1 58.127 38.398 Q 58 37.294 58 36 A 23.85 23.85 0 0 1 58.054 34.345 Q 58.147 33.013 58.4 32 L 61.4 32 A 13.936 13.936 0 0 1 61.127 30.398 Q 61 29.294 61 28 A 23.85 23.85 0 0 1 61.054 26.345 Q 61.147 25.013 61.4 24 L 64.4 24 A 13.936 13.936 0 0 1 64.127 22.398 Q 64 21.294 64 20 A 23.85 23.85 0 0 1 64.054 18.345 Q 64.147 17.013 64.4 16 A 13.936 13.936 0 0 1 64.127 14.398 Q 64 13.294 64 12 A 23.85 23.85 0 0 1 64.054 10.345 Q 64.147 9.013 64.4 8 A 13.936 13.936 0 0 1 64.127 6.398 Q 64 5.294 64 4 A 23.85 23.85 0 0 1 64.054 2.345 Q 64.147 1.013 64.4 0 L 72.4 0 Q 72.698 1.194 72.774 2.833 A 25.306 25.306 0 0 1 72.8 4 Q 72.8 5.968 72.507 7.496 A 12.311 12.311 0 0 1 72.4 8 Q 72.698 9.194 72.774 10.833 A 25.306 25.306 0 0 1 72.8 12 Q 72.8 13.968 72.507 15.496 A 12.311 12.311 0 0 1 72.4 16 Q 72.698 17.194 72.774 18.833 A 25.306 25.306 0 0 1 72.8 20 Q 72.8 21.968 72.507 23.496 A 12.311 12.311 0 0 1 72.4 24 Z M 288.4 24 L 291.4 24 L 304.4 24 Q 304.147 25.013 304.054 26.345 A 23.85 23.85 0 0 0 304 28 Q 304 29.294 304.127 30.398 A 13.936 13.936 0 0 0 304.4 32 Q 304.147 33.013 304.054 34.345 A 23.85 23.85 0 0 0 304 36 Q 304 37.294 304.127 38.398 A 13.936 13.936 0 0 0 304.4 40 Q 304.147 41.013 304.054 42.345 A 23.85 23.85 0 0 0 304 44 Q 304 45.294 304.127 46.398 A 13.936 13.936 0 0 0 304.4 48 Q 304.147 49.013 304.054 50.345 A 23.85 23.85 0 0 0 304 52 Q 304 53.294 304.127 54.398 A 13.936 13.936 0 0 0 304.4 56 L 312.4 56 A 12.311 12.311 0 0 0 312.507 55.496 Q 312.8 53.968 312.8 52 A 25.306 25.306 0 0 0 312.774 50.833 Q 312.698 49.194 312.4 48 A 12.311 12.311 0 0 0 312.507 47.496 Q 312.8 45.968 312.8 44 A 25.306 25.306 0 0 0 312.774 42.833 Q 312.698 41.194 312.4 40 A 12.311 12.311 0 0 0 312.507 39.496 Q 312.8 37.968 312.8 36 A 25.306 25.306 0 0 0 312.774 34.833 Q 312.698 33.194 312.4 32 A 12.311 12.311 0 0 0 312.507 31.496 Q 312.8 29.968 312.8 28 A 25.306 25.306 0 0 0 312.774 26.833 Q 312.698 25.194 312.4 24 L 307.4 24 A 12.311 12.311 0 0 0 307.507 23.496 Q 307.8 21.968 307.8 20 A 25.306 25.306 0 0 0 307.774 18.833 Q 307.698 17.194 307.4 16 L 291.4 16 Q 291.147 17.013 291.054 18.345 A 23.85 23.85 0 0 0 291 20 Q 291 21.294 291.127 22.398 A 13.936 13.936 0 0 0 291.4 24 A 11.741 11.741 0 0 1 291.644 25.313 Q 291.737 26.018 291.774 26.833 A 25.306 25.306 0 0 1 291.8 28 Q 291.8 29.968 291.507 31.496 A 12.311 12.311 0 0 1 291.4 32 L 288.4 32 A 11.741 11.741 0 0 1 288.644 33.313 Q 288.737 34.018 288.774 34.833 A 25.306 25.306 0 0 1 288.8 36 Q 288.8 37.968 288.507 39.496 A 12.311 12.311 0 0 1 288.4 40 A 11.741 11.741 0 0 1 288.644 41.313 Q 288.737 42.018 288.774 42.833 A 25.306 25.306 0 0 1 288.8 44 Q 288.8 45.968 288.507 47.496 A 12.311 12.311 0 0 1 288.4 48 A 11.741 11.741 0 0 1 288.644 49.313 Q 288.737 50.018 288.774 50.833 A 25.306 25.306 0 0 1 288.8 52 Q 288.8 53.968 288.507 55.496 A 12.311 12.311 0 0 1 288.4 56 L 280.4 56 A 13.936 13.936 0 0 1 280.127 54.398 Q 280 53.294 280 52 A 23.85 23.85 0 0 1 280.054 50.345 Q 280.147 49.013 280.4 48 A 13.936 13.936 0 0 1 280.127 46.398 Q 280 45.294 280 44 A 23.85 23.85 0 0 1 280.054 42.345 Q 280.147 41.013 280.4 40 A 13.936 13.936 0 0 1 280.127 38.398 Q 280 37.294 280 36 A 23.85 23.85 0 0 1 280.054 34.345 Q 280.147 33.013 280.4 32 A 13.936 13.936 0 0 1 280.127 30.398 Q 280 29.294 280 28 A 23.85 23.85 0 0 1 280.054 26.345 Q 280.147 25.013 280.4 24 A 13.936 13.936 0 0 1 280.127 22.398 Q 280 21.294 280 20 A 23.85 23.85 0 0 1 280.054 18.345 Q 280.147 17.013 280.4 16 A 13.936 13.936 0 0 1 280.127 14.398 Q 280 13.294 280 12 A 23.85 23.85 0 0 1 280.054 10.345 Q 280.147 9.013 280.4 8 A 13.936 13.936 0 0 1 280.127 6.398 Q 280 5.294 280 4 A 23.85 23.85 0 0 1 280.054 2.345 Q 280.147 1.013 280.4 0 L 288.4 0 A 11.741 11.741 0 0 1 288.644 1.313 Q 288.737 2.018 288.774 2.833 A 25.306 25.306 0 0 1 288.8 4 Q 288.8 5.968 288.507 7.496 A 12.311 12.311 0 0 1 288.4 8 A 11.741 11.741 0 0 1 288.644 9.313 Q 288.737 10.018 288.774 10.833 A 25.306 25.306 0 0 1 288.8 12 Q 288.8 13.968 288.507 15.496 A 12.311 12.311 0 0 1 288.4 16 A 11.741 11.741 0 0 1 288.644 17.313 Q 288.737 18.018 288.774 18.833 A 25.306 25.306 0 0 1 288.8 20 Q 288.8 21.968 288.507 23.496 A 12.311 12.311 0 0 1 288.4 24 Z M 592.4 32 L 584.4 32 A 13.936 13.936 0 0 1 584.127 30.398 Q 584 29.294 584 28 A 23.85 23.85 0 0 1 584.054 26.345 Q 584.147 25.013 584.4 24 L 577.4 24 Q 577.698 25.194 577.774 26.833 A 25.306 25.306 0 0 1 577.8 28 Q 577.8 29.968 577.507 31.496 A 12.311 12.311 0 0 1 577.4 32 L 574.4 32 A 11.741 11.741 0 0 1 574.644 33.313 Q 574.737 34.018 574.774 34.833 A 25.306 25.306 0 0 1 574.8 36 Q 574.8 37.968 574.507 39.496 A 12.311 12.311 0 0 1 574.4 40 A 11.741 11.741 0 0 1 574.644 41.313 Q 574.737 42.018 574.774 42.833 A 25.306 25.306 0 0 1 574.8 44 Q 574.8 45.968 574.507 47.496 A 12.311 12.311 0 0 1 574.4 48 L 580.4 48 Q 580.698 49.194 580.774 50.833 A 25.306 25.306 0 0 1 580.8 52 Q 580.8 53.968 580.507 55.496 A 12.311 12.311 0 0 1 580.4 56 L 560.4 56 A 13.936 13.936 0 0 1 560.127 54.398 Q 560 53.294 560 52 A 23.85 23.85 0 0 1 560.054 50.345 Q 560.147 49.013 560.4 48 L 566.4 48 A 13.936 13.936 0 0 1 566.127 46.398 Q 566 45.294 566 44 A 23.85 23.85 0 0 1 566.054 42.345 Q 566.147 41.013 566.4 40 A 13.936 13.936 0 0 1 566.127 38.398 Q 566 37.294 566 36 A 23.85 23.85 0 0 1 566.054 34.345 Q 566.147 33.013 566.4 32 A 13.936 13.936 0 0 1 566.127 30.398 Q 566 29.294 566 28 A 23.85 23.85 0 0 1 566.054 26.345 Q 566.147 25.013 566.4 24 L 560.4 24 A 13.936 13.936 0 0 1 560.127 22.398 Q 560 21.294 560 20 A 23.85 23.85 0 0 1 560.054 18.345 Q 560.147 17.013 560.4 16 L 570.4 16 A 11.741 11.741 0 0 1 570.644 17.313 Q 570.737 18.018 570.774 18.833 A 25.306 25.306 0 0 1 570.8 20 Q 570.8 21.968 570.507 23.496 A 12.311 12.311 0 0 1 570.4 24 L 574.4 24 A 13.936 13.936 0 0 1 574.127 22.398 Q 574 21.294 574 20 A 23.85 23.85 0 0 1 574.054 18.345 Q 574.147 17.013 574.4 16 L 589.4 16 A 11.741 11.741 0 0 1 589.644 17.313 Q 589.737 18.018 589.774 18.833 A 25.306 25.306 0 0 1 589.8 20 Q 589.8 21.968 589.507 23.496 A 12.311 12.311 0 0 1 589.4 24 L 592.4 24 Q 592.698 25.194 592.774 26.833 A 25.306 25.306 0 0 1 592.8 28 Q 592.8 29.968 592.507 31.496 A 12.311 12.311 0 0 1 592.4 32 Z M 352.4 40 L 331.4 40 A 11.741 11.741 0 0 1 331.644 41.313 Q 331.737 42.018 331.774 42.833 A 25.306 25.306 0 0 1 331.8 44 Q 331.8 45.968 331.507 47.496 A 12.311 12.311 0 0 1 331.4 48 L 348.4 48 A 11.741 11.741 0 0 1 348.644 49.313 Q 348.737 50.018 348.774 50.833 A 25.306 25.306 0 0 1 348.8 52 Q 348.8 53.968 348.507 55.496 A 12.311 12.311 0 0 1 348.4 56 L 328.4 56 A 13.936 13.936 0 0 1 328.127 54.398 Q 328 53.294 328 52 A 23.85 23.85 0 0 1 328.054 50.345 Q 328.147 49.013 328.4 48 L 323.4 48 A 13.936 13.936 0 0 1 323.127 46.398 Q 323 45.294 323 44 A 23.85 23.85 0 0 1 323.054 42.345 Q 323.147 41.013 323.4 40 L 320.4 40 A 13.936 13.936 0 0 1 320.127 38.398 Q 320 37.294 320 36 A 23.85 23.85 0 0 1 320.054 34.345 Q 320.147 33.013 320.4 32 L 323.4 32 A 13.936 13.936 0 0 1 323.127 30.398 Q 323 29.294 323 28 A 23.85 23.85 0 0 1 323.054 26.345 Q 323.147 25.013 323.4 24 L 328.4 24 A 13.936 13.936 0 0 1 328.127 22.398 Q 328 21.294 328 20 A 23.85 23.85 0 0 1 328.054 18.345 Q 328.147 17.013 328.4 16 L 348.4 16 A 11.741 11.741 0 0 1 348.644 17.313 Q 348.737 18.018 348.774 18.833 A 25.306 25.306 0 0 1 348.8 20 Q 348.8 21.968 348.507 23.496 A 12.311 12.311 0 0 1 348.4 24 L 352.4 24 Q 352.698 25.194 352.774 26.833 A 25.306 25.306 0 0 1 352.8 28 Q 352.8 29.968 352.507 31.496 A 12.311 12.311 0 0 1 352.4 32 Q 352.698 33.194 352.774 34.833 A 25.306 25.306 0 0 1 352.8 36 Q 352.8 37.968 352.507 39.496 A 12.311 12.311 0 0 1 352.4 40 Z M 552.4 40 L 531.4 40 A 11.741 11.741 0 0 1 531.644 41.313 Q 531.737 42.018 531.774 42.833 A 25.306 25.306 0 0 1 531.8 44 Q 531.8 45.968 531.507 47.496 A 12.311 12.311 0 0 1 531.4 48 L 548.4 48 A 11.741 11.741 0 0 1 548.644 49.313 Q 548.737 50.018 548.774 50.833 A 25.306 25.306 0 0 1 548.8 52 Q 548.8 53.968 548.507 55.496 A 12.311 12.311 0 0 1 548.4 56 L 528.4 56 A 13.936 13.936 0 0 1 528.127 54.398 Q 528 53.294 528 52 A 23.85 23.85 0 0 1 528.054 50.345 Q 528.147 49.013 528.4 48 L 523.4 48 A 13.936 13.936 0 0 1 523.127 46.398 Q 523 45.294 523 44 A 23.85 23.85 0 0 1 523.054 42.345 Q 523.147 41.013 523.4 40 L 520.4 40 A 13.936 13.936 0 0 1 520.127 38.398 Q 520 37.294 520 36 A 23.85 23.85 0 0 1 520.054 34.345 Q 520.147 33.013 520.4 32 L 523.4 32 A 13.936 13.936 0 0 1 523.127 30.398 Q 523 29.294 523 28 A 23.85 23.85 0 0 1 523.054 26.345 Q 523.147 25.013 523.4 24 L 528.4 24 A 13.936 13.936 0 0 1 528.127 22.398 Q 528 21.294 528 20 A 23.85 23.85 0 0 1 528.054 18.345 Q 528.147 17.013 528.4 16 L 548.4 16 A 11.741 11.741 0 0 1 548.644 17.313 Q 548.737 18.018 548.774 18.833 A 25.306 25.306 0 0 1 548.8 20 Q 548.8 21.968 548.507 23.496 A 12.311 12.311 0 0 1 548.4 24 L 552.4 24 Q 552.698 25.194 552.774 26.833 A 25.306 25.306 0 0 1 552.8 28 Q 552.8 29.968 552.507 31.496 A 12.311 12.311 0 0 1 552.4 32 Q 552.698 33.194 552.774 34.833 A 25.306 25.306 0 0 1 552.8 36 Q 552.8 37.968 552.507 39.496 A 12.311 12.311 0 0 1 552.4 40 Z M 100.4 48 L 106.4 48 Q 106.698 49.194 106.774 50.833 A 25.306 25.306 0 0 1 106.8 52 Q 106.8 53.968 106.507 55.496 A 12.311 12.311 0 0 1 106.4 56 L 86.4 56 A 13.936 13.936 0 0 1 86.127 54.398 Q 86 53.294 86 52 A 23.85 23.85 0 0 1 86.054 50.345 Q 86.147 49.013 86.4 48 L 92.4 48 A 13.936 13.936 0 0 1 92.127 46.398 Q 92 45.294 92 44 A 23.85 23.85 0 0 1 92.054 42.345 Q 92.147 41.013 92.4 40 A 13.936 13.936 0 0 1 92.127 38.398 Q 92 37.294 92 36 A 23.85 23.85 0 0 1 92.054 34.345 Q 92.147 33.013 92.4 32 A 13.936 13.936 0 0 1 92.127 30.398 Q 92 29.294 92 28 A 23.85 23.85 0 0 1 92.054 26.345 Q 92.147 25.013 92.4 24 A 13.936 13.936 0 0 1 92.127 22.398 Q 92 21.294 92 20 A 23.85 23.85 0 0 1 92.054 18.345 Q 92.147 17.013 92.4 16 A 13.936 13.936 0 0 1 92.127 14.398 Q 92 13.294 92 12 A 23.85 23.85 0 0 1 92.054 10.345 Q 92.147 9.013 92.4 8 L 86.4 8 A 13.936 13.936 0 0 1 86.127 6.398 Q 86 5.294 86 4 A 23.85 23.85 0 0 1 86.054 2.345 Q 86.147 1.013 86.4 0 L 106.4 0 Q 106.698 1.194 106.774 2.833 A 25.306 25.306 0 0 1 106.8 4 Q 106.8 5.968 106.507 7.496 A 12.311 12.311 0 0 1 106.4 8 L 100.4 8 Q 100.698 9.194 100.774 10.833 A 25.306 25.306 0 0 1 100.8 12 Q 100.8 13.968 100.507 15.496 A 12.311 12.311 0 0 1 100.4 16 Q 100.698 17.194 100.774 18.833 A 25.306 25.306 0 0 1 100.8 20 Q 100.8 21.968 100.507 23.496 A 12.311 12.311 0 0 1 100.4 24 Q 100.698 25.194 100.774 26.833 A 25.306 25.306 0 0 1 100.8 28 Q 100.8 29.968 100.507 31.496 A 12.311 12.311 0 0 1 100.4 32 Q 100.698 33.194 100.774 34.833 A 25.306 25.306 0 0 1 100.8 36 Q 100.8 37.968 100.507 39.496 A 12.311 12.311 0 0 1 100.4 40 Q 100.698 41.194 100.774 42.833 A 25.306 25.306 0 0 1 100.8 44 Q 100.8 45.968 100.507 47.496 A 12.311 12.311 0 0 1 100.4 48 Z M 272.4 8 L 260.4 8 Q 260.698 9.194 260.774 10.833 A 25.306 25.306 0 0 1 260.8 12 Q 260.8 13.968 260.507 15.496 A 12.311 12.311 0 0 1 260.4 16 Q 260.698 17.194 260.774 18.833 A 25.306 25.306 0 0 1 260.8 20 Q 260.8 21.968 260.507 23.496 A 12.311 12.311 0 0 1 260.4 24 Q 260.698 25.194 260.774 26.833 A 25.306 25.306 0 0 1 260.8 28 Q 260.8 29.968 260.507 31.496 A 12.311 12.311 0 0 1 260.4 32 Q 260.698 33.194 260.774 34.833 A 25.306 25.306 0 0 1 260.8 36 Q 260.8 37.968 260.507 39.496 A 12.311 12.311 0 0 1 260.4 40 Q 260.698 41.194 260.774 42.833 A 25.306 25.306 0 0 1 260.8 44 Q 260.8 45.968 260.507 47.496 A 12.311 12.311 0 0 1 260.4 48 Q 260.698 49.194 260.774 50.833 A 25.306 25.306 0 0 1 260.8 52 Q 260.8 53.968 260.507 55.496 A 12.311 12.311 0 0 1 260.4 56 L 252.4 56 A 13.936 13.936 0 0 1 252.127 54.398 Q 252 53.294 252 52 A 23.85 23.85 0 0 1 252.054 50.345 Q 252.147 49.013 252.4 48 A 13.936 13.936 0 0 1 252.127 46.398 Q 252 45.294 252 44 A 23.85 23.85 0 0 1 252.054 42.345 Q 252.147 41.013 252.4 40 A 13.936 13.936 0 0 1 252.127 38.398 Q 252 37.294 252 36 A 23.85 23.85 0 0 1 252.054 34.345 Q 252.147 33.013 252.4 32 A 13.936 13.936 0 0 1 252.127 30.398 Q 252 29.294 252 28 A 23.85 23.85 0 0 1 252.054 26.345 Q 252.147 25.013 252.4 24 A 13.936 13.936 0 0 1 252.127 22.398 Q 252 21.294 252 20 A 23.85 23.85 0 0 1 252.054 18.345 Q 252.147 17.013 252.4 16 A 13.936 13.936 0 0 1 252.127 14.398 Q 252 13.294 252 12 A 23.85 23.85 0 0 1 252.054 10.345 Q 252.147 9.013 252.4 8 L 240.4 8 A 13.936 13.936 0 0 1 240.127 6.398 Q 240 5.294 240 4 A 23.85 23.85 0 0 1 240.054 2.345 Q 240.147 1.013 240.4 0 L 272.4 0 Q 272.698 1.194 272.774 2.833 A 25.306 25.306 0 0 1 272.8 4 Q 272.8 5.968 272.507 7.496 A 12.311 12.311 0 0 1 272.4 8 Z M 432.4 8 L 420.4 8 Q 420.698 9.194 420.774 10.833 A 25.306 25.306 0 0 1 420.8 12 Q 420.8 13.968 420.507 15.496 A 12.311 12.311 0 0 1 420.4 16 Q 420.698 17.194 420.774 18.833 A 25.306 25.306 0 0 1 420.8 20 Q 420.8 21.968 420.507 23.496 A 12.311 12.311 0 0 1 420.4 24 Q 420.698 25.194 420.774 26.833 A 25.306 25.306 0 0 1 420.8 28 Q 420.8 29.968 420.507 31.496 A 12.311 12.311 0 0 1 420.4 32 Q 420.698 33.194 420.774 34.833 A 25.306 25.306 0 0 1 420.8 36 Q 420.8 37.968 420.507 39.496 A 12.311 12.311 0 0 1 420.4 40 Q 420.698 41.194 420.774 42.833 A 25.306 25.306 0 0 1 420.8 44 Q 420.8 45.968 420.507 47.496 A 12.311 12.311 0 0 1 420.4 48 Q 420.698 49.194 420.774 50.833 A 25.306 25.306 0 0 1 420.8 52 Q 420.8 53.968 420.507 55.496 A 12.311 12.311 0 0 1 420.4 56 L 412.4 56 A 13.936 13.936 0 0 1 412.127 54.398 Q 412 53.294 412 52 A 23.85 23.85 0 0 1 412.054 50.345 Q 412.147 49.013 412.4 48 A 13.936 13.936 0 0 1 412.127 46.398 Q 412 45.294 412 44 A 23.85 23.85 0 0 1 412.054 42.345 Q 412.147 41.013 412.4 40 A 13.936 13.936 0 0 1 412.127 38.398 Q 412 37.294 412 36 A 23.85 23.85 0 0 1 412.054 34.345 Q 412.147 33.013 412.4 32 A 13.936 13.936 0 0 1 412.127 30.398 Q 412 29.294 412 28 A 23.85 23.85 0 0 1 412.054 26.345 Q 412.147 25.013 412.4 24 A 13.936 13.936 0 0 1 412.127 22.398 Q 412 21.294 412 20 A 23.85 23.85 0 0 1 412.054 18.345 Q 412.147 17.013 412.4 16 A 13.936 13.936 0 0 1 412.127 14.398 Q 412 13.294 412 12 A 23.85 23.85 0 0 1 412.054 10.345 Q 412.147 9.013 412.4 8 L 400.4 8 A 13.936 13.936 0 0 1 400.127 6.398 Q 400 5.294 400 4 A 23.85 23.85 0 0 1 400.054 2.345 Q 400.147 1.013 400.4 0 L 432.4 0 Q 432.698 1.194 432.774 2.833 A 25.306 25.306 0 0 1 432.8 4 Q 432.8 5.968 432.507 7.496 A 12.311 12.311 0 0 1 432.4 8 Z M 472.4 40 L 469.4 40 A 11.741 11.741 0 0 1 469.644 41.313 Q 469.737 42.018 469.774 42.833 A 25.306 25.306 0 0 1 469.8 44 Q 469.8 45.968 469.507 47.496 A 12.311 12.311 0 0 1 469.4 48 L 464.4 48 Q 464.698 49.194 464.774 50.833 A 25.306 25.306 0 0 1 464.8 52 Q 464.8 53.968 464.507 55.496 A 12.311 12.311 0 0 1 464.4 56 L 448.4 56 A 13.936 13.936 0 0 1 448.127 54.398 Q 448 53.294 448 52 A 23.85 23.85 0 0 1 448.054 50.345 Q 448.147 49.013 448.4 48 L 443.4 48 A 13.936 13.936 0 0 1 443.127 46.398 Q 443 45.294 443 44 A 23.85 23.85 0 0 1 443.054 42.345 Q 443.147 41.013 443.4 40 L 440.4 40 A 13.936 13.936 0 0 1 440.127 38.398 Q 440 37.294 440 36 A 23.85 23.85 0 0 1 440.054 34.345 Q 440.147 33.013 440.4 32 L 443.4 32 A 13.936 13.936 0 0 1 443.127 30.398 Q 443 29.294 443 28 A 23.85 23.85 0 0 1 443.054 26.345 Q 443.147 25.013 443.4 24 L 448.4 24 A 13.936 13.936 0 0 1 448.127 22.398 Q 448 21.294 448 20 A 23.85 23.85 0 0 1 448.054 18.345 Q 448.147 17.013 448.4 16 L 464.4 16 Q 464.698 17.194 464.774 18.833 A 25.306 25.306 0 0 1 464.8 20 Q 464.8 21.968 464.507 23.496 A 12.311 12.311 0 0 1 464.4 24 L 469.4 24 A 11.741 11.741 0 0 1 469.644 25.313 Q 469.737 26.018 469.774 26.833 A 25.306 25.306 0 0 1 469.8 28 Q 469.8 29.968 469.507 31.496 A 12.311 12.311 0 0 1 469.4 32 L 472.4 32 Q 472.698 33.194 472.774 34.833 A 25.306 25.306 0 0 1 472.8 36 Q 472.8 37.968 472.507 39.496 A 12.311 12.311 0 0 1 472.4 40 Z M 461.4 40 L 464.4 40 A 13.936 13.936 0 0 1 464.127 38.398 Q 464 37.294 464 36 A 23.85 23.85 0 0 1 464.054 34.345 Q 464.147 33.013 464.4 32 L 461.4 32 A 13.936 13.936 0 0 1 461.127 30.398 Q 461 29.294 461 28 A 23.85 23.85 0 0 1 461.054 26.345 Q 461.147 25.013 461.4 24 L 451.4 24 A 11.741 11.741 0 0 1 451.644 25.313 Q 451.737 26.018 451.774 26.833 A 25.306 25.306 0 0 1 451.8 28 Q 451.8 29.968 451.507 31.496 A 12.311 12.311 0 0 1 451.4 32 L 448.4 32 A 11.741 11.741 0 0 1 448.644 33.313 Q 448.737 34.018 448.774 34.833 A 25.306 25.306 0 0 1 448.8 36 Q 448.8 37.968 448.507 39.496 A 12.311 12.311 0 0 1 448.4 40 L 451.4 40 A 11.741 11.741 0 0 1 451.644 41.313 Q 451.737 42.018 451.774 42.833 A 25.306 25.306 0 0 1 451.8 44 Q 451.8 45.968 451.507 47.496 A 12.311 12.311 0 0 1 451.4 48 L 461.4 48 A 13.936 13.936 0 0 1 461.127 46.398 Q 461 45.294 461 44 A 23.85 23.85 0 0 1 461.054 42.345 Q 461.147 41.013 461.4 40 Z M 166.4 24 L 186.4 24 Q 186.698 25.194 186.774 26.833 A 25.306 25.306 0 0 1 186.8 28 Q 186.8 29.968 186.507 31.496 A 12.311 12.311 0 0 1 186.4 32 L 166.4 32 A 13.936 13.936 0 0 1 166.127 30.398 Q 166 29.294 166 28 A 23.85 23.85 0 0 1 166.054 26.345 Q 166.147 25.013 166.4 24 Z M 344.4 24 L 331.4 24 A 11.741 11.741 0 0 1 331.644 25.313 Q 331.737 26.018 331.774 26.833 A 25.306 25.306 0 0 1 331.8 28 Q 331.8 29.968 331.507 31.496 A 12.311 12.311 0 0 1 331.4 32 L 344.4 32 A 13.936 13.936 0 0 1 344.127 30.398 Q 344 29.294 344 28 A 23.85 23.85 0 0 1 344.054 26.345 Q 344.147 25.013 344.4 24 Z M 544.4 24 L 531.4 24 A 11.741 11.741 0 0 1 531.644 25.313 Q 531.737 26.018 531.774 26.833 A 25.306 25.306 0 0 1 531.8 28 Q 531.8 29.968 531.507 31.496 A 12.311 12.311 0 0 1 531.4 32 L 544.4 32 A 13.936 13.936 0 0 1 544.127 30.398 Q 544 29.294 544 28 A 23.85 23.85 0 0 1 544.054 26.345 Q 544.147 25.013 544.4 24 Z" vector-effect="non-scaling-stroke"/></g></svg>