<svg width="592.8" height="56" viewBox="0 0 592.8 56" xmlns="http://www.w3.org/2000/svg"><g id="svgGroup" stroke-linecap="round" fill-rule="evenodd" font-size="9pt" stroke="#000" stroke-width="0.25mm" fill="#000" style="stroke:#000;stroke-width:0.25mm;fill:#000"><path d="M 29.4 48 L 32.4 48 Q 32.698 49.194 32.774 50.833 A 25.306 25.306 0 0 1 32.8 52 Q 32.8 53.968 32.507 55.496 A 12.311 12.311 0 0 1 32.4 56 L 24.4 56 A 13.936 13.936 0 0 1 24.127 54.398 Q 24 53.294 24 52 A 23.85 23.85 0 0 1 24.054 50.345 Q 24.147 49.013 24.4 48 L 21.4 48 A 13.936 13.936 0 0 1 21.127 46.398 Q 21 45.294 21 44 A 23.85 23.85 0 0 1 21.054 42.345 Q 21.147 41.013 21.4 40 L 19.4 40 A 13.936 13.936 0 0 1 19.127 38.398 Q 19 37.294 19 36 A 23.85 23.85 0 0 1 19.054 34.345 Q 19.147 33.013 19.4 32 L 13.4 32 A 11.741 11.741 0 0 1 13.644 33.313 Q 13.737 34.018 13.774 34.833 A 25.306 25.306 0 0 1 13.8 36 Q 13.8 37.968 13.507 39.496 A 12.311 12.311 0 0 1 13.4 40 L 11.4 40 A 11.741 11.741 0 0 1 11.644 41.313 Q 11.737 42.018 11.774 42.833 A 25.306 25.306 0 0 1 11.8 44 Q 11.8 45.968 11.507 47.496 A 12.311 12.311 0 0 1 11.4 48 L 8.4 48 A 11.741 11.741 0 0 1 8.644 49.313 Q 8.737 50.018 8.774 50.833 A 25.306 25.306 0 0 1 8.8 52 Q 8.8 53.968 8.507 55.496 A 12.311 12.311 0 0 1 8.4 56 L 0.4 56 A 13.936 13.936 0 0 1 0.127 54.398 Q 0 53.294 0 52 A 23.85 23.85 0 0 1 0.054 50.345 Q 0.147 49.013 0.4 48 L 3.4 48 A 13.936 13.936 0 0 1 3.127 46.398 Q 3 45.294 3 44 A 23.85 23.85 0 0 1 3.054 42.345 Q 3.147 41.013 3.4 40 L 7.4 40 A 13.936 13.936 0 0 1 7.127 38.398 Q 7 37.294 7 36 A 23.85 23.85 0 0 1 7.054 34.345 Q 7.147 33.013 7.4 32 L 10.4 32 A 13.936 13.936 0 0 1 10.127 30.398 Q 10 29.294 10 28 A 23.85 23.85 0 0 1 10.054 26.345 Q 10.147 25.013 10.4 24 L 7.4 24 A 13.936 13.936 0 0 1 7.127 22.398 Q 7 21.294 7 20 A 23.85 23.85 0 0 1 7.054 18.345 Q 7.147 17.013 7.4 16 L 3.4 16 A 13.936 13.936 0 0 1 3.127 14.398 Q 3 13.294 3 12 A 23.85 23.85 0 0 1 3.054 10.345 Q 3.147 9.013 3.4 8 L 0.4 8 A 13.936 13.936 0 0 1 0.127 6.398 Q 0 5.294 0 4 A 23.85 23.85 0 0 1 0.054 2.345 Q 0.147 1.013 0.4 0 L 8.4 0 A 11.741 11.741 0 0 1 8.644 1.313 Q 8.737 2.018 8.774 2.833 A 25.306 25.306 0 0 1 8.8 4 Q 8.8 5.968 8.507 7.496 A 12.311 12.311 0 0 1 8.4 8 L 11.4 8 A 11.741 11.741 0 0 1 11.644 9.313 Q 11.737 10.018 11.774 10.833 A 25.306 25.306 0 0 1 11.8 12 Q 11.8 13.968 11.507 15.496 A 12.311 12.311 0 0 1 11.4 16 L 13.4 16 A 11.741 11.741 0 0 1 13.644 17.313 Q 13.737 18.018 13.774 18.833 A 25.306 25.306 0 0 1 13.8 20 Q 13.8 21.968 13.507 23.496 A 12.311 12.311 0 0 1 13.4 24 L 19.4 24 A 13.936 13.936 0 0 1 19.127 22.398 Q 19 21.294 19 20 A 23.85 23.85 0 0 1 19.054 18.345 Q 19.147 17.013 19.4 16 L 21.4 16 A 13.936 13.936 0 0 1 21.127 14.398 Q 21 13.294 21 12 A 23.85 23.85 0 0 1 21.054 10.345 Q 21.147 9.013 21.4 8 L 24.4 8 A 13.936 13.936 0 0 1 24.127 6.398 Q 24 5.294 24 4 A 23.85 23.85 0 0 1 24.054 2.345 Q 24.147 1.013 24.4 0 L 32.4 0 Q 32.698 1.194 32.774 2.833 A 25.306 25.306 0 0 1 32.8 4 Q 32.8 5.968 32.507 7.496 A 12.311 12.311 0 0 1 32.4 8 L 29.4 8 A 11.741 11.741 0 0 1 29.644 9.313 Q 29.737 10.018 29.774 10.833 A 25.306 25.306 0 0 1 29.8 12 Q 29.8 13.968 29.507 15.496 A 12.311 12.311 0 0 1 29.4 16 L 25.4 16 Q 25.698 17.194 25.774 18.833 A 25.306 25.306 0 0 1 25.8 20 Q 25.8 21.968 25.507 23.496 A 12.311 12.311 0 0 1 25.4 24 L 22.4 24 Q 22.698 25.194 22.774 26.833 A 25.306 25.306 0 0 1 22.8 28 Q 22.8 29.968 22.507 31.496 A 12.311 12.311 0 0 1 22.4 32 L 25.4 32 Q 25.698 33.194 25.774 34.833 A 25.306 25.306 0 0 1 25.8 36 Q 25.8 37.968 25.507 39.496 A 12.311 12.311 0 0 1 25.4 40 L 29.4 40 A 11.741 11.741 0 0 1 29.644 41.313 Q 29.737 42.018 29.774 42.833 A 25.306 25.306 0 0 1 29.8 44 Q 29.8 45.968 29.507 47.496 A 12.311 12.311 0 0 1 29.4 48 Z M 472.4 48 L 468.4 48 A 11.741 11.741 0 0 1 468.644 49.313 Q 468.737 50.018 468.774 50.833 A 25.306 25.306 0 0 1 468.8 52 Q 468.8 53.968 468.507 55.496 A 12.311 12.311 0 0 1 468.4 56 L 444.4 56 A 13.936 13.936 0 0 1 444.127 54.398 Q 444 53.294 444 52 A 23.85 23.85 0 0 1 444.054 50.345 Q 444.147 49.013 444.4 48 L 440.4 48 A 13.936 13.936 0 0 1 440.127 46.398 Q 440 45.294 440 44 A 23.85 23.85 0 0 1 440.054 42.345 Q 440.147 41.013 440.4 40 L 448.4 40 A 11.741 11.741 0 0 1 448.644 41.313 Q 448.737 42.018 448.774 42.833 A 25.306 25.306 0 0 1 448.8 44 Q 448.8 45.968 448.507 47.496 A 12.311 12.311 0 0 1 448.4 48 L 464.4 48 A 13.936 13.936 0 0 1 464.127 46.398 Q 464 45.294 464 44 A 23.85 23.85 0 0 1 464.054 42.345 Q 464.147 41.013 464.4 40 A 13.936 13.936 0 0 1 464.127 38.398 Q 464 37.294 464 36 A 23.85 23.85 0 0 1 464.054 34.345 Q 464.147 33.013 464.4 32 L 444.4 32 A 13.936 13.936 0 0 1 444.127 30.398 Q 444 29.294 444 28 A 23.85 23.85 0 0 1 444.054 26.345 Q 444.147 25.013 444.4 24 L 440.4 24 A 13.936 13.936 0 0 1 440.127 22.398 Q 440 21.294 440 20 A 23.85 23.85 0 0 1 440.054 18.345 Q 440.147 17.013 440.4 16 A 13.936 13.936 0 0 1 440.127 14.398 Q 440 13.294 440 12 A 23.85 23.85 0 0 1 440.054 10.345 Q 440.147 9.013 440.4 8 L 444.4 8 A 13.936 13.936 0 0 1 444.127 6.398 Q 444 5.294 444 4 A 23.85 23.85 0 0 1 444.054 2.345 Q 444.147 1.013 444.4 0 L 468.4 0 A 11.741 11.741 0 0 1 468.644 1.313 Q 468.737 2.018 468.774 2.833 A 25.306 25.306 0 0 1 468.8 4 Q 468.8 5.968 468.507 7.496 A 12.311 12.311 0 0 1 468.4 8 L 472.4 8 Q 472.698 9.194 472.774 10.833 A 25.306 25.306 0 0 1 472.8 12 Q 472.8 13.968 472.507 15.496 A 12.311 12.311 0 0 1 472.4 16 L 464.4 16 A 13.936 13.936 0 0 1 464.127 14.398 Q 464 13.294 464 12 A 23.85 23.85 0 0 1 464.054 10.345 Q 464.147 9.013 464.4 8 L 448.4 8 A 11.741 11.741 0 0 1 448.644 9.313 Q 448.737 10.018 448.774 10.833 A 25.306 25.306 0 0 1 448.8 12 Q 448.8 13.968 448.507 15.496 A 12.311 12.311 0 0 1 448.4 16 A 11.741 11.741 0 0 1 448.644 17.313 Q 448.737 18.018 448.774 18.833 A 25.306 25.306 0 0 1 448.8 20 Q 448.8 21.968 448.507 23.496 A 12.311 12.311 0 0 1 448.4 24 L 468.4 24 A 11.741 11.741 0 0 1 468.644 25.313 Q 468.737 26.018 468.774 26.833 A 25.306 25.306 0 0 1 468.8 28 Q 468.8 29.968 468.507 31.496 A 12.311 12.311 0 0 1 468.4 32 L 472.4 32 Q 472.698 33.194 472.774 34.833 A 25.306 25.306 0 0 1 472.8 36 Q 472.8 37.968 472.507 39.496 A 12.311 12.311 0 0 1 472.4 40 Q 472.698 41.194 472.774 42.833 A 25.306 25.306 0 0 1 472.8 44 Q 472.8 45.968 472.507 47.496 A 12.311 12.311 0 0 1 472.4 48 Z M 72.4 24 L 69.4 24 A 11.741 11.741 0 0 1 69.644 25.313 Q 69.737 26.018 69.774 26.833 A 25.306 25.306 0 0 1 69.8 28 Q 69.8 29.968 69.507 31.496 A 12.311 12.311 0 0 1 69.4 32 L 66.4 32 Q 66.698 33.194 66.774 34.833 A 25.306 25.306 0 0 1 66.8 36 Q 66.8 37.968 66.507 39.496 A 12.311 12.311 0 0 1 66.4 40 L 64.4 40 Q 64.698 41.194 64.774 42.833 A 25.306 25.306 0 0 1 64.8 44 Q 64.8 45.968 64.507 47.496 A 12.311 12.311 0 0 1 64.4 48 L 60.4 48 Q 60.698 49.194 60.774 50.833 A 25.306 25.306 0 0 1 60.8 52 Q 60.8 53.968 60.507 55.496 A 12.311 12.311 0 0 1 60.4 56 L 52.4 56 A 13.936 13.936 0 0 1 52.127 54.398 Q 52 53.294 52 52 A 23.85 23.85 0 0 1 52.054 50.345 Q 52.147 49.013 52.4 48 L 48.4 48 A 13.936 13.936 0 0 1 48.127 46.398 Q 48 45.294 48 44 A 23.85 23.85 0 0 1 48.054 42.345 Q 48.147 41.013 48.4 40 L 46.4 40 A 13.936 13.936 0 0 1 46.127 38.398 Q 46 37.294 46 36 A 23.85 23.85 0 0 1 46.054 34.345 Q 46.147 33.013 46.4 32 L 43.4 32 A 13.936 13.936 0 0 1 43.127 30.398 Q 43 29.294 43 28 A 23.85 23.85 0 0 1 43.054 26.345 Q 43.147 25.013 43.4 24 L 40.4 24 A 13.936 13.936 0 0 1 40.127 22.398 Q 40 21.294 40 20 A 23.85 23.85 0 0 1 40.054 18.345 Q 40.147 17.013 40.4 16 A 13.936 13.936 0 0 1 40.127 14.398 Q 40 13.294 40 12 A 23.85 23.85 0 0 1 40.054 10.345 Q 40.147 9.013 40.4 8 A 13.936 13.936 0 0 1 40.127 6.398 Q 40 5.294 40 4 A 23.85 23.85 0 0 1 40.054 2.345 Q 40.147 1.013 40.4 0 L 48.4 0 A 11.741 11.741 0 0 1 48.644 1.313 Q 48.737 2.018 48.774 2.833 A 25.306 25.306 0 0 1 48.8 4 Q 48.8 5.968 48.507 7.496 A 12.311 12.311 0 0 1 48.4 8 A 11.741 11.741 0 0 1 48.644 9.313 Q 48.737 10.018 48.774 10.833 A 25.306 25.306 0 0 1 48.8 12 Q 48.8 13.968 48.507 15.496 A 12.311 12.311 0 0 1 48.4 16 A 11.741 11.741 0 0 1 48.644 17.313 Q 48.737 18.018 48.774 18.833 A 25.306 25.306 0 0 1 48.8 20 Q 48.8 21.968 48.507 23.496 A 12.311 12.311 0 0 1 48.4 24 L 51.4 24 A 11.741 11.741 0 0 1 51.644 25.313 Q 51.737 26.018 51.774 26.833 A 25.306 25.306 0 0 1 51.8 28 Q 51.8 29.968 51.507 31.496 A 12.311 12.311 0 0 1 51.4 32 L 54.4 32 A 11.741 11.741 0 0 1 54.644 33.313 Q 54.737 34.018 54.774 34.833 A 25.306 25.306 0 0 1 54.8 36 Q 54.8 37.968 54.507 39.496 A 12.311 12.311 0 0 1 54.4 40 L 58.4 40 A 13.936 13.936 0 0 1 58.127 38.398 Q 58 37.294 58 36 A 23.85 23.85 0 0 1 58.054 34.345 Q 58.147 33.013 58.4 32 L 61.4 32 A 13.936 13.936 0 0 1 61.127 30.398 Q 61 29.294 61 28 A 23.85 23.85 0 0 1 61.054 26.345 Q 61.147 25.013 61.4 24 L 64.4 24 A 13.936 13.936 0 0 1 64.127 22.398 Q 64 21.294 64 20 A 23.85 23.85 0 0 1 64.054 18.345 Q 64.147 17.013 64.4 16 A 13.936 13.936 0 0 1 64.127 14.398 Q 64 13.294 64 12 A 23.85 23.85 0 0 1 64.054 10.345 Q 64.147 9.013 64.4 8 A 13.936 13.936 0 0 1 64.127 6.398 Q 64 5.294 64 4 A 23.85 23.85 0 0 1 64.054 2.345 Q 64.147 1.013 64.4 0 L 72.4 0 Q 72.698 1.194 72.774 2.833 A 25.306 25.306 0 0 1 72.8 4 Q 72.8 5.968 72.507 7.496 A 12.311 12.311 0 0 1 72.4 8 Q 72.698 9.194 72.774 10.833 A 25.306 25.306 0 0 1 72.8 12 Q 72.8 13.968 72.507 15.496 A 12.311 12.311 0 0 1 72.4 16 Q 72.698 17.194 72.774 18.833 A 25.306 25.306 0 0 1 72.8 20 Q 72.8 21.968 72.507 23.496 A 12.311 12.311 0 0 1 72.4 24 Z M 328.4 24 L 331.4 24 L 344.4 24 Q 344.147 25.013 344.054 26.345 A 23.85 23.85 0 0 0 344 28 Q 344 29.294 344.127 30.398 A 13.936 13.936 0 0 0 344.4 32 Q 344.147 33.013 344.054 34.345 A 23.85 23.85 0 0 0 344 36 Q 344 37.294 344.127 38.398 A 13.936 13.936 0 0 0 344.4 40 Q 344.147 41.013 344.054 42.345 A 23.85 23.85 0 0 0 344 44 Q 344 45.294 344.127 46.398 A 13.936 13.936 0 0 0 344.4 48 Q 344.147 49.013 344.054 50.345 A 23.85 23.85 0 0 0 344 52 Q 344 53.294 344.127 54.398 A 13.936 13.936 0 0 0 344.4 56 L 352.4 56 A 12.311 12.311 0 0 0 352.507 55.496 Q 352.8 53.968 352.8 52 A 25.306 25.306 0 0 0 352.774 50.833 Q 352.698 49.194 352.4 48 A 12.311 12.311 0 0 0 352.507 47.496 Q 352.8 45.968 352.8 44 A 25.306 25.306 0 0 0 352.774 42.833 Q 352.698 41.194 352.4 40 A 12.311 12.311 0 0 0 352.507 39.496 Q 352.8 37.968 352.8 36 A 25.306 25.306 0 0 0 352.774 34.833 Q 352.698 33.194 352.4 32 A 12.311 12.311 0 0 0 352.507 31.496 Q 352.8 29.968 352.8 28 A 25.306 25.306 0 0 0 352.774 26.833 Q 352.698 25.194 352.4 24 L 347.4 24 A 12.311 12.311 0 0 0 347.507 23.496 Q 347.8 21.968 347.8 20 A 25.306 25.306 0 0 0 347.774 18.833 Q 347.698 17.194 347.4 16 L 331.4 16 Q 331.147 17.013 331.054 18.345 A 23.85 23.85 0 0 0 331 20 Q 331 21.294 331.127 22.398 A 13.936 13.936 0 0 0 331.4 24 A 11.741 11.741 0 0 1 331.644 25.313 Q 331.737 26.018 331.774 26.833 A 25.306 25.306 0 0 1 331.8 28 Q 331.8 29.968 331.507 31.496 A 12.311 12.311 0 0 1 331.4 32 L 328.4 32 A 11.741 11.741 0 0 1 328.644 33.313 Q 328.737 34.018 328.774 34.833 A 25.306 25.306 0 0 1 328.8 36 Q 328.8 37.968 328.507 39.496 A 12.311 12.311 0 0 1 328.4 40 A 11.741 11.741 0 0 1 328.644 41.313 Q 328.737 42.018 328.774 42.833 A 25.306 25.306 0 0 1 328.8 44 Q 328.8 45.968 328.507 47.496 A 12.311 12.311 0 0 1 328.4 48 A 11.741 11.741 0 0 1 328.644 49.313 Q 328.737 50.018 328.774 50.833 A 25.306 25.306 0 0 1 328.8 52 Q 328.8 53.968 328.507 55.496 A 12.311 12.311 0 0 1 328.4 56 L 320.4 56 A 13.936 13.936 0 0 1 320.127 54.398 Q 320 53.294 320 52 A 23.85 23.85 0 0 1 320.054 50.345 Q 320.147 49.013 320.4 48 A 13.936 13.936 0 0 1 320.127 46.398 Q 320 45.294 320 44 A 23.85 23.85 0 0 1 320.054 42.345 Q 320.147 41.013 320.4 40 A 13.936 13.936 0 0 1 320.127 38.398 Q 320 37.294 320 36 A 23.85 23.85 0 0 1 320.054 34.345 Q 320.147 33.013 320.4 32 A 13.936 13.936 0 0 1 320.127 30.398 Q 320 29.294 320 28 A 23.85 23.85 0 0 1 320.054 26.345 Q 320.147 25.013 320.4 24 A 13.936 13.936 0 0 1 320.127 22.398 Q 320 21.294 320 20 A 23.85 23.85 0 0 1 320.054 18.345 Q 320.147 17.013 320.4 16 A 13.936 13.936 0 0 1 320.127 14.398 Q 320 13.294 320 12 A 23.85 23.85 0 0 1 320.054 10.345 Q 320.147 9.013 320.4 8 A 13.936 13.936 0 0 1 320.127 6.398 Q 320 5.294 320 4 A 23.85 23.85 0 0 1 320.054 2.345 Q 320.147 1.013 320.4 0 L 328.4 0 A 11.741 11.741 0 0 1 328.644 1.313 Q 328.737 2.018 328.774 2.833 A 25.306 25.306 0 0 1 328.8 4 Q 328.8 5.968 328.507 7.496 A 12.311 12.311 0 0 1 328.4 8 A 11.741 11.741 0 0 1 328.644 9.313 Q 328.737 10.018 328.774 10.833 A 25.306 25.306 0 0 1 328.8 12 Q 328.8 13.968 328.507 15.496 A 12.311 12.311 0 0 1 328.4 16 A 11.741 11.741 0 0 1 328.644 17.313 Q 328.737 18.018 328.774 18.833 A 25.306 25.306 0 0 1 328.8 20 Q 328.8 21.968 328.507 23.496 A 12.311 12.311 0 0 1 328.4 24 Z M 540.4 48 A 13.936 13.936 0 0 1 540.127 46.398 Q 540 45.294 540 44 A 23.85 23.85 0 0 1 540.054 42.345 Q 540.147 41.013 540.4 40 L 528.4 40 A 11.741 11.741 0 0 1 528.644 41.313 Q 528.737 42.018 528.774 42.833 A 25.306 25.306 0 0 1 528.8 44 Q 528.8 45.968 528.507 47.496 A 12.311 12.311 0 0 1 528.4 48 L 540.4 48 L 544.4 48 Q 544.147 49.013 544.054 50.345 A 23.85 23.85 0 0 0 544 52 Q 544 53.294 544.127 54.398 A 13.936 13.936 0 0 0 544.4 56 L 552.4 56 A 12.311 12.311 0 0 0 552.507 55.496 Q 552.8 53.968 552.8 52 A 25.306 25.306 0 0 0 552.774 50.833 Q 552.698 49.194 552.4 48 L 548.4 48 A 12.311 12.311 0 0 0 548.507 47.496 Q 548.8 45.968 548.8 44 A 25.306 25.306 0 0 0 548.774 42.833 Q 548.737 42.018 548.644 41.313 A 11.741 11.741 0 0 0 548.4 40 A 12.311 12.311 0 0 0 548.507 39.496 Q 548.8 37.968 548.8 36 A 25.306 25.306 0 0 0 548.774 34.833 Q 548.737 34.018 548.644 33.313 A 11.741 11.741 0 0 0 548.4 32 A 12.311 12.311 0 0 0 548.507 31.496 Q 548.8 29.968 548.8 28 A 25.306 25.306 0 0 0 548.774 26.833 Q 548.737 26.018 548.644 25.313 A 11.741 11.741 0 0 0 548.4 24 L 544.4 24 A 12.311 12.311 0 0 0 544.507 23.496 Q 544.8 21.968 544.8 20 A 25.306 25.306 0 0 0 544.774 18.833 Q 544.698 17.194 544.4 16 L 526.4 16 Q 526.147 17.013 526.054 18.345 A 23.85 23.85 0 0 0 526 20 Q 526 21.294 526.127 22.398 A 13.936 13.936 0 0 0 526.4 24 L 540.4 24 Q 540.147 25.013 540.054 26.345 A 23.85 23.85 0 0 0 540 28 Q 540 29.294 540.127 30.398 A 13.936 13.936 0 0 0 540.4 32 L 524.4 32 Q 524.147 33.013 524.054 34.345 A 23.85 23.85 0 0 0 524 36 Q 524 37.294 524.127 38.398 A 13.936 13.936 0 0 0 524.4 40 L 520.4 40 Q 520.147 41.013 520.054 42.345 A 23.85 23.85 0 0 0 520 44 Q 520 45.294 520.127 46.398 A 13.936 13.936 0 0 0 520.4 48 L 524.4 48 Q 524.147 49.013 524.054 50.345 A 23.85 23.85 0 0 0 524 52 Q 524 53.294 524.127 54.398 A 13.936 13.936 0 0 0 524.4 56 L 540.4 56 A 12.311 12.311 0 0 0 540.507 55.496 Q 540.8 53.968 540.8 52 A 25.306 25.306 0 0 0 540.774 50.833 Q 540.698 49.194 540.4 48 Z M 592.4 32 L 584.4 32 A 13.936 13.936 0 0 1 584.127 30.398 Q 584 29.294 584 28 A 23.85 23.85 0 0 1 584.054 26.345 Q 584.147 25.013 584.4 24 L 577.4 24 Q 577.698 25.194 577.774 26.833 A 25.306 25.306 0 0 1 577.8 28 Q 577.8 29.968 577.507 31.496 A 12.311 12.311 0 0 1 577.4 32 L 574.4 32 A 11.741 11.741 0 0 1 574.644 33.313 Q 574.737 34.018 574.774 34.833 A 25.306 25.306 0 0 1 574.8 36 Q 574.8 37.968 574.507 39.496 A 12.311 12.311 0 0 1 574.4 40 A 11.741 11.741 0 0 1 574.644 41.313 Q 574.737 42.018 574.774 42.833 A 25.306 25.306 0 0 1 574.8 44 Q 574.8 45.968 574.507 47.496 A 12.311 12.311 0 0 1 574.4 48 L 580.4 48 Q 580.698 49.194 580.774 50.833 A 25.306 25.306 0 0 1 580.8 52 Q 580.8 53.968 580.507 55.496 A 12.311 12.311 0 0 1 580.4 56 L 560.4 56 A 13.936 13.936 0 0 1 560.127 54.398 Q 560 53.294 560 52 A 23.85 23.85 0 0 1 560.054 50.345 Q 560.147 49.013 560.4 48 L 566.4 48 A 13.936 13.936 0 0 1 566.127 46.398 Q 566 45.294 566 44 A 23.85 23.85 0 0 1 566.054 42.345 Q 566.147 41.013 566.4 40 A 13.936 13.936 0 0 1 566.127 38.398 Q 566 37.294 566 36 A 23.85 23.85 0 0 1 566.054 34.345 Q 566.147 33.013 566.4 32 A 13.936 13.936 0 0 1 566.127 30.398 Q 566 29.294 566 28 A 23.85 23.85 0 0 1 566.054 26.345 Q 566.147 25.013 566.4 24 L 560.4 24 A 13.936 13.936 0 0 1 560.127 22.398 Q 560 21.294 560 20 A 23.85 23.85 0 0 1 560.054 18.345 Q 560.147 17.013 560.4 16 L 570.4 16 A 11.741 11.741 0 0 1 570.644 17.313 Q 570.737 18.018 570.774 18.833 A 25.306 25.306 0 0 1 570.8 20 Q 570.8 21.968 570.507 23.496 A 12.311 12.311 0 0 1 570.4 24 L 574.4 24 A 13.936 13.936 0 0 1 574.127 22.398 Q 574 21.294 574 20 A 23.85 23.85 0 0 1 574.054 18.345 Q 574.147 17.013 574.4 16 L 589.4 16 A 11.741 11.741 0 0 1 589.644 17.313 Q 589.737 18.018 589.774 18.833 A 25.306 25.306 0 0 1 589.8 20 Q 589.8 21.968 589.507 23.496 A 12.311 12.311 0 0 1 589.4 24 L 592.4 24 Q 592.698 25.194 592.774 26.833 A 25.306 25.306 0 0 1 592.8 28 Q 592.8 29.968 592.507 31.496 A 12.311 12.311 0 0 1 592.4 32 Z M 496.4 48 L 508.4 48 A 11.741 11.741 0 0 1 508.644 49.313 Q 508.737 50.018 508.774 50.833 A 25.306 25.306 0 0 1 508.8 52 Q 508.8 53.968 508.507 55.496 A 12.311 12.311 0 0 1 508.4 56 L 492.4 56 A 13.936 13.936 0 0 1 492.127 54.398 Q 492 53.294 492 52 A 23.85 23.85 0 0 1 492.054 50.345 Q 492.147 49.013 492.4 48 L 488.4 48 A 13.936 13.936 0 0 1 488.127 46.398 Q 488 45.294 488 44 A 23.85 23.85 0 0 1 488.054 42.345 Q 488.147 41.013 488.4 40 A 13.936 13.936 0 0 1 488.127 38.398 Q 488 37.294 488 36 A 23.85 23.85 0 0 1 488.054 34.345 Q 488.147 33.013 488.4 32 A 13.936 13.936 0 0 1 488.127 30.398 Q 488 29.294 488 28 A 23.85 23.85 0 0 1 488.054 26.345 Q 488.147 25.013 488.4 24 L 480.4 24 A 13.936 13.936 0 0 1 480.127 22.398 Q 480 21.294 480 20 A 23.85 23.85 0 0 1 480.054 18.345 Q 480.147 17.013 480.4 16 L 488.4 16 A 13.936 13.936 0 0 1 488.127 14.398 Q 488 13.294 488 12 A 23.85 23.85 0 0 1 488.054 10.345 Q 488.147 9.013 488.4 8 A 13.936 13.936 0 0 1 488.127 6.398 Q 488 5.294 488 4 A 23.85 23.85 0 0 1 488.054 2.345 Q 488.147 1.013 488.4 0 L 496.4 0 Q 496.698 1.194 496.774 2.833 A 25.306 25.306 0 0 1 496.8 4 Q 496.8 5.968 496.507 7.496 A 12.311 12.311 0 0 1 496.4 8 Q 496.698 9.194 496.774 10.833 A 25.306 25.306 0 0 1 496.8 12 Q 496.8 13.968 496.507 15.496 A 12.311 12.311 0 0 1 496.4 16 L 508.4 16 A 11.741 11.741 0 0 1 508.644 17.313 Q 508.737 18.018 508.774 18.833 A 25.306 25.306 0 0 1 508.8 20 Q 508.8 21.968 508.507 23.496 A 12.311 12.311 0 0 1 508.4 24 L 496.4 24 Q 496.698 25.194 496.774 26.833 A 25.306 25.306 0 0 1 496.8 28 Q 496.8 29.968 496.507 31.496 A 12.311 12.311 0 0 1 496.4 32 Q 496.698 33.194 496.774 34.833 A 25.306 25.306 0 0 1 496.8 36 Q 496.8 37.968 496.507 39.496 A 12.311 12.311 0 0 1 496.4 40 Q 496.698 41.194 496.774 42.833 A 25.306 25.306 0 0 1 496.8 44 Q 496.8 45.968 496.507 47.496 A 12.311 12.311 0 0 1 496.4 48 Z M 392.4 40 L 371.4 40 A 11.741 11.741 0 0 1 371.644 41.313 Q 371.737 42.018 371.774 42.833 A 25.306 25.306 0 0 1 371.8 44 Q 371.8 45.968 371.507 47.496 A 12.311 12.311 0 0 1 371.4 48 L 388.4 48 A 11.741 11.741 0 0 1 388.644 49.313 Q 388.737 50.018 388.774 50.833 A 25.306 25.306 0 0 1 388.8 52 Q 388.8 53.968 388.507 55.496 A 12.311 12.311 0 0 1 388.4 56 L 368.4 56 A 13.936 13.936 0 0 1 368.127 54.398 Q 368 53.294 368 52 A 23.85 23.85 0 0 1 368.054 50.345 Q 368.147 49.013 368.4 48 L 363.4 48 A 13.936 13.936 0 0 1 363.127 46.398 Q 363 45.294 363 44 A 23.85 23.85 0 0 1 363.054 42.345 Q 363.147 41.013 363.4 40 L 360.4 40 A 13.936 13.936 0 0 1 360.127 38.398 Q 360 37.294 360 36 A 23.85 23.85 0 0 1 360.054 34.345 Q 360.147 33.013 360.4 32 L 363.4 32 A 13.936 13.936 0 0 1 363.127 30.398 Q 363 29.294 363 28 A 23.85 23.85 0 0 1 363.054 26.345 Q 363.147 25.013 363.4 24 L 368.4 24 A 13.936 13.936 0 0 1 368.127 22.398 Q 368 21.294 368 20 A 23.85 23.85 0 0 1 368.054 18.345 Q 368.147 17.013 368.4 16 L 388.4 16 A 11.741 11.741 0 0 1 388.644 17.313 Q 388.737 18.018 388.774 18.833 A 25.306 25.306 0 0 1 388.8 20 Q 388.8 21.968 388.507 23.496 A 12.311 12.311 0 0 1 388.4 24 L 392.4 24 Q 392.698 25.194 392.774 26.833 A 25.306 25.306 0 0 1 392.8 28 Q 392.8 29.968 392.507 31.496 A 12.311 12.311 0 0 1 392.4 32 Q 392.698 33.194 392.774 34.833 A 25.306 25.306 0 0 1 392.8 36 Q 392.8 37.968 392.507 39.496 A 12.311 12.311 0 0 1 392.4 40 Z M 100.4 48 L 106.4 48 Q 106.698 49.194 106.774 50.833 A 25.306 25.306 0 0 1 106.8 52 Q 106.8 53.968 106.507 55.496 A 12.311 12.311 0 0 1 106.4 56 L 86.4 56 A 13.936 13.936 0 0 1 86.127 54.398 Q 86 53.294 86 52 A 23.85 23.85 0 0 1 86.054 50.345 Q 86.147 49.013 86.4 48 L 92.4 48 A 13.936 13.936 0 0 1 92.127 46.398 Q 92 45.294 92 44 A 23.85 23.85 0 0 1 92.054 42.345 Q 92.147 41.013 92.4 40 A 13.936 13.936 0 0 1 92.127 38.398 Q 92 37.294 92 36 A 23.85 23.85 0 0 1 92.054 34.345 Q 92.147 33.013 92.4 32 A 13.936 13.936 0 0 1 92.127 30.398 Q 92 29.294 92 28 A 23.85 23.85 0 0 1 92.054 26.345 Q 92.147 25.013 92.4 24 A 13.936 13.936 0 0 1 92.127 22.398 Q 92 21.294 92 20 A 23.85 23.85 0 0 1 92.054 18.345 Q 92.147 17.013 92.4 16 A 13.936 13.936 0 0 1 92.127 14.398 Q 92 13.294 92 12 A 23.85 23.85 0 0 1 92.054 10.345 Q 92.147 9.013 92.4 8 L 86.4 8 A 13.936 13.936 0 0 1 86.127 6.398 Q 86 5.294 86 4 A 23.85 23.85 0 0 1 86.054 2.345 Q 86.147 1.013 86.4 0 L 106.4 0 Q 106.698 1.194 106.774 2.833 A 25.306 25.306 0 0 1 106.8 4 Q 106.8 5.968 106.507 7.496 A 12.311 12.311 0 0 1 106.4 8 L 100.4 8 Q 100.698 9.194 100.774 10.833 A 25.306 25.306 0 0 1 100.8 12 Q 100.8 13.968 100.507 15.496 A 12.311 12.311 0 0 1 100.4 16 Q 100.698 17.194 100.774 18.833 A 25.306 25.306 0 0 1 100.8 20 Q 100.8 21.968 100.507 23.496 A 12.311 12.311 0 0 1 100.4 24 Q 100.698 25.194 100.774 26.833 A 25.306 25.306 0 0 1 100.8 28 Q 100.8 29.968 100.507 31.496 A 12.311 12.311 0 0 1 100.4 32 Q 100.698 33.194 100.774 34.833 A 25.306 25.306 0 0 1 100.8 36 Q 100.8 37.968 100.507 39.496 A 12.311 12.311 0 0 1 100.4 40 Q 100.698 41.194 100.774 42.833 A 25.306 25.306 0 0 1 100.8 44 Q 100.8 45.968 100.507 47.496 A 12.311 12.311 0 0 1 100.4 48 Z M 140.4 48 L 146.4 48 Q 146.698 49.194 146.774 50.833 A 25.306 25.306 0 0 1 146.8 52 Q 146.8 53.968 146.507 55.496 A 12.311 12.311 0 0 1 146.4 56 L 126.4 56 A 13.936 13.936 0 0 1 126.127 54.398 Q 126 53.294 126 52 A 23.85 23.85 0 0 1 126.054 50.345 Q 126.147 49.013 126.4 48 L 132.4 48 A 13.936 13.936 0 0 1 132.127 46.398 Q 132 45.294 132 44 A 23.85 23.85 0 0 1 132.054 42.345 Q 132.147 41.013 132.4 40 A 13.936 13.936 0 0 1 132.127 38.398 Q 132 37.294 132 36 A 23.85 23.85 0 0 1 132.054 34.345 Q 132.147 33.013 132.4 32 A 13.936 13.936 0 0 1 132.127 30.398 Q 132 29.294 132 28 A 23.85 23.85 0 0 1 132.054 26.345 Q 132.147 25.013 132.4 24 A 13.936 13.936 0 0 1 132.127 22.398 Q 132 21.294 132 20 A 23.85 23.85 0 0 1 132.054 18.345 Q 132.147 17.013 132.4 16 A 13.936 13.936 0 0 1 132.127 14.398 Q 132 13.294 132 12 A 23.85 23.85 0 0 1 132.054 10.345 Q 132.147 9.013 132.4 8 L 126.4 8 A 13.936 13.936 0 0 1 126.127 6.398 Q 126 5.294 126 4 A 23.85 23.85 0 0 1 126.054 2.345 Q 126.147 1.013 126.4 0 L 146.4 0 Q 146.698 1.194 146.774 2.833 A 25.306 25.306 0 0 1 146.8 4 Q 146.8 5.968 146.507 7.496 A 12.311 12.311 0 0 1 146.4 8 L 140.4 8 Q 140.698 9.194 140.774 10.833 A 25.306 25.306 0 0 1 140.8 12 Q 140.8 13.968 140.507 15.496 A 12.311 12.311 0 0 1 140.4 16 Q 140.698 17.194 140.774 18.833 A 25.306 25.306 0 0 1 140.8 20 Q 140.8 21.968 140.507 23.496 A 12.311 12.311 0 0 1 140.4 24 Q 140.698 25.194 140.774 26.833 A 25.306 25.306 0 0 1 140.8 28 Q 140.8 29.968 140.507 31.496 A 12.311 12.311 0 0 1 140.4 32 Q 140.698 33.194 140.774 34.833 A 25.306 25.306 0 0 1 140.8 36 Q 140.8 37.968 140.507 39.496 A 12.311 12.311 0 0 1 140.4 40 Q 140.698 41.194 140.774 42.833 A 25.306 25.306 0 0 1 140.8 44 Q 140.8 45.968 140.507 47.496 A 12.311 12.311 0 0 1 140.4 48 Z M 312.4 8 L 300.4 8 Q 300.698 9.194 300.774 10.833 A 25.306 25.306 0 0 1 300.8 12 Q 300.8 13.968 300.507 15.496 A 12.311 12.311 0 0 1 300.4 16 Q 300.698 17.194 300.774 18.833 A 25.306 25.306 0 0 1 300.8 20 Q 300.8 21.968 300.507 23.496 A 12.311 12.311 0 0 1 300.4 24 Q 300.698 25.194 300.774 26.833 A 25.306 25.306 0 0 1 300.8 28 Q 300.8 29.968 300.507 31.496 A 12.311 12.311 0 0 1 300.4 32 Q 300.698 33.194 300.774 34.833 A 25.306 25.306 0 0 1 300.8 36 Q 300.8 37.968 300.507 39.496 A 12.311 12.311 0 0 1 300.4 40 Q 300.698 41.194 300.774 42.833 A 25.306 25.306 0 0 1 300.8 44 Q 300.8 45.968 300.507 47.496 A 12.311 12.311 0 0 1 300.4 48 Q 300.698 49.194 300.774 50.833 A 25.306 25.306 0 0 1 300.8 52 Q 300.8 53.968 300.507 55.496 A 12.311 12.311 0 0 1 300.4 56 L 292.4 56 A 13.936 13.936 0 0 1 292.127 54.398 Q 292 53.294 292 52 A 23.85 23.85 0 0 1 292.054 50.345 Q 292.147 49.013 292.4 48 A 13.936 13.936 0 0 1 292.127 46.398 Q 292 45.294 292 44 A 23.85 23.85 0 0 1 292.054 42.345 Q 292.147 41.013 292.4 40 A 13.936 13.936 0 0 1 292.127 38.398 Q 292 37.294 292 36 A 23.85 23.85 0 0 1 292.054 34.345 Q 292.147 33.013 292.4 32 A 13.936 13.936 0 0 1 292.127 30.398 Q 292 29.294 292 28 A 23.85 23.85 0 0 1 292.054 26.345 Q 292.147 25.013 292.4 24 A 13.936 13.936 0 0 1 292.127 22.398 Q 292 21.294 292 20 A 23.85 23.85 0 0 1 292.054 18.345 Q 292.147 17.013 292.4 16 A 13.936 13.936 0 0 1 292.127 14.398 Q 292 13.294 292 12 A 23.85 23.85 0 0 1 292.054 10.345 Q 292.147 9.013 292.4 8 L 280.4 8 A 13.936 13.936 0 0 1 280.127 6.398 Q 280 5.294 280 4 A 23.85 23.85 0 0 1 280.054 2.345 Q 280.147 1.013 280.4 0 L 312.4 0 Q 312.698 1.194 312.774 2.833 A 25.306 25.306 0 0 1 312.8 4 Q 312.8 5.968 312.507 7.496 A 12.311 12.311 0 0 1 312.4 8 Z M 206.4 24 L 226.4 24 Q 226.698 25.194 226.774 26.833 A 25.306 25.306 0 0 1 226.8 28 Q 226.8 29.968 226.507 31.496 A 12.311 12.311 0 0 1 226.4 32 L 206.4 32 A 13.936 13.936 0 0 1 206.127 30.398 Q 206 29.294 206 28 A 23.85 23.85 0 0 1 206.054 26.345 Q 206.147 25.013 206.4 24 Z M 384.4 24 L 371.4 24 A 11.741 11.741 0 0 1 371.644 25.313 Q 371.737 26.018 371.774 26.833 A 25.306 25.306 0 0 1 371.8 28 Q 371.8 29.968 371.507 31.496 A 12.311 12.311 0 0 1 371.4 32 L 384.4 32 A 13.936 13.936 0 0 1 384.127 30.398 Q 384 29.294 384 28 A 23.85 23.85 0 0 1 384.054 26.345 Q 384.147 25.013 384.4 24 Z" vector-effect="non-scaling-stroke"/></g></svg>