<svg width="632.8" height="56" viewBox="0 0 632.8 56" xmlns="http://www.w3.org/2000/svg"><g id="svgGroup" stroke-linecap="round" fill-rule="evenodd" font-size="9pt" stroke="#000" stroke-width="0.25mm" fill="#000" style="stroke:#000;stroke-width:0.25mm;fill:#000"><path d="M 512.4 56 L 504.4 56 A 13.936 13.936 0 0 1 504.127 54.398 Q 504 53.294 504 52 A 23.85 23.85 0 0 1 504.054 50.345 Q 504.147 49.013 504.4 48 A 13.936 13.936 0 0 1 504.127 46.398 Q 504 45.294 504 44 A 23.85 23.85 0 0 1 504.054 42.345 Q 504.147 41.013 504.4 40 A 13.936 13.936 0 0 1 504.127 38.398 Q 504 37.294 504 36 A 23.85 23.85 0 0 1 504.054 34.345 Q 504.147 33.013 504.4 32 A 13.936 13.936 0 0 1 504.127 30.398 Q 504 29.294 504 28 A 23.85 23.85 0 0 1 504.054 26.345 Q 504.147 25.013 504.4 24 A 13.936 13.936 0 0 1 504.127 22.398 Q 504 21.294 504 20 A 23.85 23.85 0 0 1 504.054 18.345 Q 504.147 17.013 504.4 16 L 501.4 16 Q 501.698 17.194 501.774 18.833 A 25.306 25.306 0 0 1 501.8 20 Q 501.8 21.968 501.507 23.496 A 12.311 12.311 0 0 1 501.4 24 Q 501.698 25.194 501.774 26.833 A 25.306 25.306 0 0 1 501.8 28 Q 501.8 29.968 501.507 31.496 A 12.311 12.311 0 0 1 501.4 32 L 499.4 32 Q 499.698 33.194 499.774 34.833 A 25.306 25.306 0 0 1 499.8 36 Q 499.8 37.968 499.507 39.496 A 12.311 12.311 0 0 1 499.4 40 Q 499.698 41.194 499.774 42.833 A 25.306 25.306 0 0 1 499.8 44 Q 499.8 45.968 499.507 47.496 A 12.311 12.311 0 0 1 499.4 48 L 493.4 48 A 13.936 13.936 0 0 1 493.127 46.398 Q 493 45.294 493 44 A 23.85 23.85 0 0 1 493.054 42.345 Q 493.147 41.013 493.4 40 A 13.936 13.936 0 0 1 493.127 38.398 Q 493 37.294 493 36 A 23.85 23.85 0 0 1 493.054 34.345 Q 493.147 33.013 493.4 32 L 491.4 32 A 13.936 13.936 0 0 1 491.127 30.398 Q 491 29.294 491 28 A 23.85 23.85 0 0 1 491.054 26.345 Q 491.147 25.013 491.4 24 A 13.936 13.936 0 0 1 491.127 22.398 Q 491 21.294 491 20 A 23.85 23.85 0 0 1 491.054 18.345 Q 491.147 17.013 491.4 16 L 488.4 16 A 11.741 11.741 0 0 1 488.644 17.313 Q 488.737 18.018 488.774 18.833 A 25.306 25.306 0 0 1 488.8 20 Q 488.8 21.968 488.507 23.496 A 12.311 12.311 0 0 1 488.4 24 A 11.741 11.741 0 0 1 488.644 25.313 Q 488.737 26.018 488.774 26.833 A 25.306 25.306 0 0 1 488.8 28 Q 488.8 29.968 488.507 31.496 A 12.311 12.311 0 0 1 488.4 32 A 11.741 11.741 0 0 1 488.644 33.313 Q 488.737 34.018 488.774 34.833 A 25.306 25.306 0 0 1 488.8 36 Q 488.8 37.968 488.507 39.496 A 12.311 12.311 0 0 1 488.4 40 A 11.741 11.741 0 0 1 488.644 41.313 Q 488.737 42.018 488.774 42.833 A 25.306 25.306 0 0 1 488.8 44 Q 488.8 45.968 488.507 47.496 A 12.311 12.311 0 0 1 488.4 48 A 11.741 11.741 0 0 1 488.644 49.313 Q 488.737 50.018 488.774 50.833 A 25.306 25.306 0 0 1 488.8 52 Q 488.8 53.968 488.507 55.496 A 12.311 12.311 0 0 1 488.4 56 L 480.4 56 A 13.936 13.936 0 0 1 480.127 54.398 Q 480 53.294 480 52 A 23.85 23.85 0 0 1 480.054 50.345 Q 480.147 49.013 480.4 48 A 13.936 13.936 0 0 1 480.127 46.398 Q 480 45.294 480 44 A 23.85 23.85 0 0 1 480.054 42.345 Q 480.147 41.013 480.4 40 A 13.936 13.936 0 0 1 480.127 38.398 Q 480 37.294 480 36 A 23.85 23.85 0 0 1 480.054 34.345 Q 480.147 33.013 480.4 32 A 13.936 13.936 0 0 1 480.127 30.398 Q 480 29.294 480 28 A 23.85 23.85 0 0 1 480.054 26.345 Q 480.147 25.013 480.4 24 A 13.936 13.936 0 0 1 480.127 22.398 Q 480 21.294 480 20 A 23.85 23.85 0 0 1 480.054 18.345 Q 480.147 17.013 480.4 16 A 13.936 13.936 0 0 1 480.127 14.398 Q 480 13.294 480 12 A 23.85 23.85 0 0 1 480.054 10.345 Q 480.147 9.013 480.4 8 A 13.936 13.936 0 0 1 480.127 6.398 Q 480 5.294 480 4 A 23.85 23.85 0 0 1 480.054 2.345 Q 480.147 1.013 480.4 0 L 490.4 0 A 11.741 11.741 0 0 1 490.644 1.313 Q 490.737 2.018 490.774 2.833 A 25.306 25.306 0 0 1 490.8 4 Q 490.8 5.968 490.507 7.496 A 12.311 12.311 0 0 1 490.4 8 L 493.4 8 A 11.741 11.741 0 0 1 493.644 9.313 Q 493.737 10.018 493.774 10.833 A 25.306 25.306 0 0 1 493.8 12 Q 493.8 13.968 493.507 15.496 A 12.311 12.311 0 0 1 493.4 16 L 494.9 16 Q 495.198 17.194 495.274 18.833 A 25.306 25.306 0 0 1 495.3 20 Q 495.3 21.968 495.007 23.496 A 12.311 12.311 0 0 1 494.9 24 L 497.9 24 A 13.936 13.936 0 0 1 497.627 22.398 Q 497.5 21.294 497.5 20 A 23.85 23.85 0 0 1 497.554 18.345 Q 497.647 17.013 497.9 16 L 499.4 16 A 13.936 13.936 0 0 1 499.127 14.398 Q 499 13.294 499 12 A 23.85 23.85 0 0 1 499.054 10.345 Q 499.147 9.013 499.4 8 L 502.4 8 A 13.936 13.936 0 0 1 502.127 6.398 Q 502 5.294 502 4 A 23.85 23.85 0 0 1 502.054 2.345 Q 502.147 1.013 502.4 0 L 512.4 0 Q 512.698 1.194 512.774 2.833 A 25.306 25.306 0 0 1 512.8 4 Q 512.8 5.968 512.507 7.496 A 12.311 12.311 0 0 1 512.4 8 Q 512.698 9.194 512.774 10.833 A 25.306 25.306 0 0 1 512.8 12 Q 512.8 13.968 512.507 15.496 A 12.311 12.311 0 0 1 512.4 16 Q 512.698 17.194 512.774 18.833 A 25.306 25.306 0 0 1 512.8 20 Q 512.8 21.968 512.507 23.496 A 12.311 12.311 0 0 1 512.4 24 Q 512.698 25.194 512.774 26.833 A 25.306 25.306 0 0 1 512.8 28 Q 512.8 29.968 512.507 31.496 A 12.311 12.311 0 0 1 512.4 32 Q 512.698 33.194 512.774 34.833 A 25.306 25.306 0 0 1 512.8 36 Q 512.8 37.968 512.507 39.496 A 12.311 12.311 0 0 1 512.4 40 Q 512.698 41.194 512.774 42.833 A 25.306 25.306 0 0 1 512.8 44 Q 512.8 45.968 512.507 47.496 A 12.311 12.311 0 0 1 512.4 48 Q 512.698 49.194 512.774 50.833 A 25.306 25.306 0 0 1 512.8 52 Q 512.8 53.968 512.507 55.496 A 12.311 12.311 0 0 1 512.4 56 Z M 29.4 48 L 32.4 48 Q 32.698 49.194 32.774 50.833 A 25.306 25.306 0 0 1 32.8 52 Q 32.8 53.968 32.507 55.496 A 12.311 12.311 0 0 1 32.4 56 L 24.4 56 A 13.936 13.936 0 0 1 24.127 54.398 Q 24 53.294 24 52 A 23.85 23.85 0 0 1 24.054 50.345 Q 24.147 49.013 24.4 48 L 21.4 48 A 13.936 13.936 0 0 1 21.127 46.398 Q 21 45.294 21 44 A 23.85 23.85 0 0 1 21.054 42.345 Q 21.147 41.013 21.4 40 L 19.4 40 A 13.936 13.936 0 0 1 19.127 38.398 Q 19 37.294 19 36 A 23.85 23.85 0 0 1 19.054 34.345 Q 19.147 33.013 19.4 32 L 13.4 32 A 11.741 11.741 0 0 1 13.644 33.313 Q 13.737 34.018 13.774 34.833 A 25.306 25.306 0 0 1 13.8 36 Q 13.8 37.968 13.507 39.496 A 12.311 12.311 0 0 1 13.4 40 L 11.4 40 A 11.741 11.741 0 0 1 11.644 41.313 Q 11.737 42.018 11.774 42.833 A 25.306 25.306 0 0 1 11.8 44 Q 11.8 45.968 11.507 47.496 A 12.311 12.311 0 0 1 11.4 48 L 8.4 48 A 11.741 11.741 0 0 1 8.644 49.313 Q 8.737 50.018 8.774 50.833 A 25.306 25.306 0 0 1 8.8 52 Q 8.8 53.968 8.507 55.496 A 12.311 12.311 0 0 1 8.4 56 L 0.4 56 A 13.936 13.936 0 0 1 0.127 54.398 Q 0 53.294 0 52 A 23.85 23.85 0 0 1 0.054 50.345 Q 0.147 49.013 0.4 48 L 3.4 48 A 13.936 13.936 0 0 1 3.127 46.398 Q 3 45.294 3 44 A 23.85 23.85 0 0 1 3.054 42.345 Q 3.147 41.013 3.4 40 L 7.4 40 A 13.936 13.936 0 0 1 7.127 38.398 Q 7 37.294 7 36 A 23.85 23.85 0 0 1 7.054 34.345 Q 7.147 33.013 7.4 32 L 10.4 32 A 13.936 13.936 0 0 1 10.127 30.398 Q 10 29.294 10 28 A 23.85 23.85 0 0 1 10.054 26.345 Q 10.147 25.013 10.4 24 L 7.4 24 A 13.936 13.936 0 0 1 7.127 22.398 Q 7 21.294 7 20 A 23.85 23.85 0 0 1 7.054 18.345 Q 7.147 17.013 7.4 16 L 3.4 16 A 13.936 13.936 0 0 1 3.127 14.398 Q 3 13.294 3 12 A 23.85 23.85 0 0 1 3.054 10.345 Q 3.147 9.013 3.4 8 L 0.4 8 A 13.936 13.936 0 0 1 0.127 6.398 Q 0 5.294 0 4 A 23.85 23.85 0 0 1 0.054 2.345 Q 0.147 1.013 0.4 0 L 8.4 0 A 11.741 11.741 0 0 1 8.644 1.313 Q 8.737 2.018 8.774 2.833 A 25.306 25.306 0 0 1 8.8 4 Q 8.8 5.968 8.507 7.496 A 12.311 12.311 0 0 1 8.4 8 L 11.4 8 A 11.741 11.741 0 0 1 11.644 9.313 Q 11.737 10.018 11.774 10.833 A 25.306 25.306 0 0 1 11.8 12 Q 11.8 13.968 11.507 15.496 A 12.311 12.311 0 0 1 11.4 16 L 13.4 16 A 11.741 11.741 0 0 1 13.644 17.313 Q 13.737 18.018 13.774 18.833 A 25.306 25.306 0 0 1 13.8 20 Q 13.8 21.968 13.507 23.496 A 12.311 12.311 0 0 1 13.4 24 L 19.4 24 A 13.936 13.936 0 0 1 19.127 22.398 Q 19 21.294 19 20 A 23.85 23.85 0 0 1 19.054 18.345 Q 19.147 17.013 19.4 16 L 21.4 16 A 13.936 13.936 0 0 1 21.127 14.398 Q 21 13.294 21 12 A 23.85 23.85 0 0 1 21.054 10.345 Q 21.147 9.013 21.4 8 L 24.4 8 A 13.936 13.936 0 0 1 24.127 6.398 Q 24 5.294 24 4 A 23.85 23.85 0 0 1 24.054 2.345 Q 24.147 1.013 24.4 0 L 32.4 0 Q 32.698 1.194 32.774 2.833 A 25.306 25.306 0 0 1 32.8 4 Q 32.8 5.968 32.507 7.496 A 12.311 12.311 0 0 1 32.4 8 L 29.4 8 A 11.741 11.741 0 0 1 29.644 9.313 Q 29.737 10.018 29.774 10.833 A 25.306 25.306 0 0 1 29.8 12 Q 29.8 13.968 29.507 15.496 A 12.311 12.311 0 0 1 29.4 16 L 25.4 16 Q 25.698 17.194 25.774 18.833 A 25.306 25.306 0 0 1 25.8 20 Q 25.8 21.968 25.507 23.496 A 12.311 12.311 0 0 1 25.4 24 L 22.4 24 Q 22.698 25.194 22.774 26.833 A 25.306 25.306 0 0 1 22.8 28 Q 22.8 29.968 22.507 31.496 A 12.311 12.311 0 0 1 22.4 32 L 25.4 32 Q 25.698 33.194 25.774 34.833 A 25.306 25.306 0 0 1 25.8 36 Q 25.8 37.968 25.507 39.496 A 12.311 12.311 0 0 1 25.4 40 L 29.4 40 A 11.741 11.741 0 0 1 29.644 41.313 Q 29.737 42.018 29.774 42.833 A 25.306 25.306 0 0 1 29.8 44 Q 29.8 45.968 29.507 47.496 A 12.311 12.311 0 0 1 29.4 48 Z M 72.4 24 L 69.4 24 A 11.741 11.741 0 0 1 69.644 25.313 Q 69.737 26.018 69.774 26.833 A 25.306 25.306 0 0 1 69.8 28 Q 69.8 29.968 69.507 31.496 A 12.311 12.311 0 0 1 69.4 32 L 66.4 32 Q 66.698 33.194 66.774 34.833 A 25.306 25.306 0 0 1 66.8 36 Q 66.8 37.968 66.507 39.496 A 12.311 12.311 0 0 1 66.4 40 L 64.4 40 Q 64.698 41.194 64.774 42.833 A 25.306 25.306 0 0 1 64.8 44 Q 64.8 45.968 64.507 47.496 A 12.311 12.311 0 0 1 64.4 48 L 60.4 48 Q 60.698 49.194 60.774 50.833 A 25.306 25.306 0 0 1 60.8 52 Q 60.8 53.968 60.507 55.496 A 12.311 12.311 0 0 1 60.4 56 L 52.4 56 A 13.936 13.936 0 0 1 52.127 54.398 Q 52 53.294 52 52 A 23.85 23.85 0 0 1 52.054 50.345 Q 52.147 49.013 52.4 48 L 48.4 48 A 13.936 13.936 0 0 1 48.127 46.398 Q 48 45.294 48 44 A 23.85 23.85 0 0 1 48.054 42.345 Q 48.147 41.013 48.4 40 L 46.4 40 A 13.936 13.936 0 0 1 46.127 38.398 Q 46 37.294 46 36 A 23.85 23.85 0 0 1 46.054 34.345 Q 46.147 33.013 46.4 32 L 43.4 32 A 13.936 13.936 0 0 1 43.127 30.398 Q 43 29.294 43 28 A 23.85 23.85 0 0 1 43.054 26.345 Q 43.147 25.013 43.4 24 L 40.4 24 A 13.936 13.936 0 0 1 40.127 22.398 Q 40 21.294 40 20 A 23.85 23.85 0 0 1 40.054 18.345 Q 40.147 17.013 40.4 16 A 13.936 13.936 0 0 1 40.127 14.398 Q 40 13.294 40 12 A 23.85 23.85 0 0 1 40.054 10.345 Q 40.147 9.013 40.4 8 A 13.936 13.936 0 0 1 40.127 6.398 Q 40 5.294 40 4 A 23.85 23.85 0 0 1 40.054 2.345 Q 40.147 1.013 40.4 0 L 48.4 0 A 11.741 11.741 0 0 1 48.644 1.313 Q 48.737 2.018 48.774 2.833 A 25.306 25.306 0 0 1 48.8 4 Q 48.8 5.968 48.507 7.496 A 12.311 12.311 0 0 1 48.4 8 A 11.741 11.741 0 0 1 48.644 9.313 Q 48.737 10.018 48.774 10.833 A 25.306 25.306 0 0 1 48.8 12 Q 48.8 13.968 48.507 15.496 A 12.311 12.311 0 0 1 48.4 16 A 11.741 11.741 0 0 1 48.644 17.313 Q 48.737 18.018 48.774 18.833 A 25.306 25.306 0 0 1 48.8 20 Q 48.8 21.968 48.507 23.496 A 12.311 12.311 0 0 1 48.4 24 L 51.4 24 A 11.741 11.741 0 0 1 51.644 25.313 Q 51.737 26.018 51.774 26.833 A 25.306 25.306 0 0 1 51.8 28 Q 51.8 29.968 51.507 31.496 A 12.311 12.311 0 0 1 51.4 32 L 54.4 32 A 11.741 11.741 0 0 1 54.644 33.313 Q 54.737 34.018 54.774 34.833 A 25.306 25.306 0 0 1 54.8 36 Q 54.8 37.968 54.507 39.496 A 12.311 12.311 0 0 1 54.4 40 L 58.4 40 A 13.936 13.936 0 0 1 58.127 38.398 Q 58 37.294 58 36 A 23.85 23.85 0 0 1 58.054 34.345 Q 58.147 33.013 58.4 32 L 61.4 32 A 13.936 13.936 0 0 1 61.127 30.398 Q 61 29.294 61 28 A 23.85 23.85 0 0 1 61.054 26.345 Q 61.147 25.013 61.4 24 L 64.4 24 A 13.936 13.936 0 0 1 64.127 22.398 Q 64 21.294 64 20 A 23.85 23.85 0 0 1 64.054 18.345 Q 64.147 17.013 64.4 16 A 13.936 13.936 0 0 1 64.127 14.398 Q 64 13.294 64 12 A 23.85 23.85 0 0 1 64.054 10.345 Q 64.147 9.013 64.4 8 A 13.936 13.936 0 0 1 64.127 6.398 Q 64 5.294 64 4 A 23.85 23.85 0 0 1 64.054 2.345 Q 64.147 1.013 64.4 0 L 72.4 0 Q 72.698 1.194 72.774 2.833 A 25.306 25.306 0 0 1 72.8 4 Q 72.8 5.968 72.507 7.496 A 12.311 12.311 0 0 1 72.4 8 Q 72.698 9.194 72.774 10.833 A 25.306 25.306 0 0 1 72.8 12 Q 72.8 13.968 72.507 15.496 A 12.311 12.311 0 0 1 72.4 16 Q 72.698 17.194 72.774 18.833 A 25.306 25.306 0 0 1 72.8 20 Q 72.8 21.968 72.507 23.496 A 12.311 12.311 0 0 1 72.4 24 Z M 368.4 24 L 371.4 24 L 384.4 24 Q 384.147 25.013 384.054 26.345 A 23.85 23.85 0 0 0 384 28 Q 384 29.294 384.127 30.398 A 13.936 13.936 0 0 0 384.4 32 Q 384.147 33.013 384.054 34.345 A 23.85 23.85 0 0 0 384 36 Q 384 37.294 384.127 38.398 A 13.936 13.936 0 0 0 384.4 40 Q 384.147 41.013 384.054 42.345 A 23.85 23.85 0 0 0 384 44 Q 384 45.294 384.127 46.398 A 13.936 13.936 0 0 0 384.4 48 Q 384.147 49.013 384.054 50.345 A 23.85 23.85 0 0 0 384 52 Q 384 53.294 384.127 54.398 A 13.936 13.936 0 0 0 384.4 56 L 392.4 56 A 12.311 12.311 0 0 0 392.507 55.496 Q 392.8 53.968 392.8 52 A 25.306 25.306 0 0 0 392.774 50.833 Q 392.698 49.194 392.4 48 A 12.311 12.311 0 0 0 392.507 47.496 Q 392.8 45.968 392.8 44 A 25.306 25.306 0 0 0 392.774 42.833 Q 392.698 41.194 392.4 40 A 12.311 12.311 0 0 0 392.507 39.496 Q 392.8 37.968 392.8 36 A 25.306 25.306 0 0 0 392.774 34.833 Q 392.698 33.194 392.4 32 A 12.311 12.311 0 0 0 392.507 31.496 Q 392.8 29.968 392.8 28 A 25.306 25.306 0 0 0 392.774 26.833 Q 392.698 25.194 392.4 24 L 387.4 24 A 12.311 12.311 0 0 0 387.507 23.496 Q 387.8 21.968 387.8 20 A 25.306 25.306 0 0 0 387.774 18.833 Q 387.698 17.194 387.4 16 L 371.4 16 Q 371.147 17.013 371.054 18.345 A 23.85 23.85 0 0 0 371 20 Q 371 21.294 371.127 22.398 A 13.936 13.936 0 0 0 371.4 24 A 11.741 11.741 0 0 1 371.644 25.313 Q 371.737 26.018 371.774 26.833 A 25.306 25.306 0 0 1 371.8 28 Q 371.8 29.968 371.507 31.496 A 12.311 12.311 0 0 1 371.4 32 L 368.4 32 A 11.741 11.741 0 0 1 368.644 33.313 Q 368.737 34.018 368.774 34.833 A 25.306 25.306 0 0 1 368.8 36 Q 368.8 37.968 368.507 39.496 A 12.311 12.311 0 0 1 368.4 40 A 11.741 11.741 0 0 1 368.644 41.313 Q 368.737 42.018 368.774 42.833 A 25.306 25.306 0 0 1 368.8 44 Q 368.8 45.968 368.507 47.496 A 12.311 12.311 0 0 1 368.4 48 A 11.741 11.741 0 0 1 368.644 49.313 Q 368.737 50.018 368.774 50.833 A 25.306 25.306 0 0 1 368.8 52 Q 368.8 53.968 368.507 55.496 A 12.311 12.311 0 0 1 368.4 56 L 360.4 56 A 13.936 13.936 0 0 1 360.127 54.398 Q 360 53.294 360 52 A 23.85 23.85 0 0 1 360.054 50.345 Q 360.147 49.013 360.4 48 A 13.936 13.936 0 0 1 360.127 46.398 Q 360 45.294 360 44 A 23.85 23.85 0 0 1 360.054 42.345 Q 360.147 41.013 360.4 40 A 13.936 13.936 0 0 1 360.127 38.398 Q 360 37.294 360 36 A 23.85 23.85 0 0 1 360.054 34.345 Q 360.147 33.013 360.4 32 A 13.936 13.936 0 0 1 360.127 30.398 Q 360 29.294 360 28 A 23.85 23.85 0 0 1 360.054 26.345 Q 360.147 25.013 360.4 24 A 13.936 13.936 0 0 1 360.127 22.398 Q 360 21.294 360 20 A 23.85 23.85 0 0 1 360.054 18.345 Q 360.147 17.013 360.4 16 A 13.936 13.936 0 0 1 360.127 14.398 Q 360 13.294 360 12 A 23.85 23.85 0 0 1 360.054 10.345 Q 360.147 9.013 360.4 8 A 13.936 13.936 0 0 1 360.127 6.398 Q 360 5.294 360 4 A 23.85 23.85 0 0 1 360.054 2.345 Q 360.147 1.013 360.4 0 L 368.4 0 A 11.741 11.741 0 0 1 368.644 1.313 Q 368.737 2.018 368.774 2.833 A 25.306 25.306 0 0 1 368.8 4 Q 368.8 5.968 368.507 7.496 A 12.311 12.311 0 0 1 368.4 8 A 11.741 11.741 0 0 1 368.644 9.313 Q 368.737 10.018 368.774 10.833 A 25.306 25.306 0 0 1 368.8 12 Q 368.8 13.968 368.507 15.496 A 12.311 12.311 0 0 1 368.4 16 A 11.741 11.741 0 0 1 368.644 17.313 Q 368.737 18.018 368.774 18.833 A 25.306 25.306 0 0 1 368.8 20 Q 368.8 21.968 368.507 23.496 A 12.311 12.311 0 0 1 368.4 24 Z M 607.4 24 L 611.4 24 L 624.4 24 Q 624.147 25.013 624.054 26.345 A 23.85 23.85 0 0 0 624 28 Q 624 29.294 624.127 30.398 A 13.936 13.936 0 0 0 624.4 32 Q 624.147 33.013 624.054 34.345 A 23.85 23.85 0 0 0 624 36 Q 624 37.294 624.127 38.398 A 13.936 13.936 0 0 0 624.4 40 Q 624.147 41.013 624.054 42.345 A 23.85 23.85 0 0 0 624 44 Q 624 45.294 624.127 46.398 A 13.936 13.936 0 0 0 624.4 48 Q 624.147 49.013 624.054 50.345 A 23.85 23.85 0 0 0 624 52 Q 624 53.294 624.127 54.398 A 13.936 13.936 0 0 0 624.4 56 L 632.4 56 A 12.311 12.311 0 0 0 632.507 55.496 Q 632.8 53.968 632.8 52 A 25.306 25.306 0 0 0 632.774 50.833 Q 632.698 49.194 632.4 48 A 12.311 12.311 0 0 0 632.507 47.496 Q 632.8 45.968 632.8 44 A 25.306 25.306 0 0 0 632.774 42.833 Q 632.698 41.194 632.4 40 A 12.311 12.311 0 0 0 632.507 39.496 Q 632.8 37.968 632.8 36 A 25.306 25.306 0 0 0 632.774 34.833 Q 632.698 33.194 632.4 32 A 12.311 12.311 0 0 0 632.507 31.496 Q 632.8 29.968 632.8 28 A 25.306 25.306 0 0 0 632.774 26.833 Q 632.698 25.194 632.4 24 L 627.4 24 A 12.311 12.311 0 0 0 627.507 23.496 Q 627.8 21.968 627.8 20 A 25.306 25.306 0 0 0 627.774 18.833 Q 627.698 17.194 627.4 16 L 611.4 16 Q 611.147 17.013 611.054 18.345 A 23.85 23.85 0 0 0 611 20 Q 611 21.294 611.127 22.398 A 13.936 13.936 0 0 0 611.4 24 A 11.741 11.741 0 0 1 611.644 25.313 Q 611.737 26.018 611.774 26.833 A 25.306 25.306 0 0 1 611.8 28 Q 611.8 29.968 611.507 31.496 A 12.311 12.311 0 0 1 611.4 32 L 608.4 32 A 11.741 11.741 0 0 1 608.644 33.313 Q 608.737 34.018 608.774 34.833 A 25.306 25.306 0 0 1 608.8 36 Q 608.8 37.968 608.507 39.496 A 12.311 12.311 0 0 1 608.4 40 A 11.741 11.741 0 0 1 608.644 41.313 Q 608.737 42.018 608.774 42.833 A 25.306 25.306 0 0 1 608.8 44 Q 608.8 45.968 608.507 47.496 A 12.311 12.311 0 0 1 608.4 48 A 11.741 11.741 0 0 1 608.644 49.313 Q 608.737 50.018 608.774 50.833 A 25.306 25.306 0 0 1 608.8 52 Q 608.8 53.968 608.507 55.496 A 12.311 12.311 0 0 1 608.4 56 L 600.4 56 A 13.936 13.936 0 0 1 600.127 54.398 Q 600 53.294 600 52 A 23.85 23.85 0 0 1 600.054 50.345 Q 600.147 49.013 600.4 48 A 13.936 13.936 0 0 1 600.127 46.398 Q 600 45.294 600 44 A 23.85 23.85 0 0 1 600.054 42.345 Q 600.147 41.013 600.4 40 A 13.936 13.936 0 0 1 600.127 38.398 Q 600 37.294 600 36 A 23.85 23.85 0 0 1 600.054 34.345 Q 600.147 33.013 600.4 32 A 13.936 13.936 0 0 1 600.127 30.398 Q 600 29.294 600 28 A 23.85 23.85 0 0 1 600.054 26.345 Q 600.147 25.013 600.4 24 A 13.936 13.936 0 0 1 600.127 22.398 Q 600 21.294 600 20 A 23.85 23.85 0 0 1 600.054 18.345 Q 600.147 17.013 600.4 16 L 607.4 16 A 11.741 11.741 0 0 1 607.644 17.313 Q 607.737 18.018 607.774 18.833 A 25.306 25.306 0 0 1 607.8 20 Q 607.8 21.968 607.507 23.496 A 12.311 12.311 0 0 1 607.4 24 Z M 432.4 40 L 411.4 40 A 11.741 11.741 0 0 1 411.644 41.313 Q 411.737 42.018 411.774 42.833 A 25.306 25.306 0 0 1 411.8 44 Q 411.8 45.968 411.507 47.496 A 12.311 12.311 0 0 1 411.4 48 L 428.4 48 A 11.741 11.741 0 0 1 428.644 49.313 Q 428.737 50.018 428.774 50.833 A 25.306 25.306 0 0 1 428.8 52 Q 428.8 53.968 428.507 55.496 A 12.311 12.311 0 0 1 428.4 56 L 408.4 56 A 13.936 13.936 0 0 1 408.127 54.398 Q 408 53.294 408 52 A 23.85 23.85 0 0 1 408.054 50.345 Q 408.147 49.013 408.4 48 L 403.4 48 A 13.936 13.936 0 0 1 403.127 46.398 Q 403 45.294 403 44 A 23.85 23.85 0 0 1 403.054 42.345 Q 403.147 41.013 403.4 40 L 400.4 40 A 13.936 13.936 0 0 1 400.127 38.398 Q 400 37.294 400 36 A 23.85 23.85 0 0 1 400.054 34.345 Q 400.147 33.013 400.4 32 L 403.4 32 A 13.936 13.936 0 0 1 403.127 30.398 Q 403 29.294 403 28 A 23.85 23.85 0 0 1 403.054 26.345 Q 403.147 25.013 403.4 24 L 408.4 24 A 13.936 13.936 0 0 1 408.127 22.398 Q 408 21.294 408 20 A 23.85 23.85 0 0 1 408.054 18.345 Q 408.147 17.013 408.4 16 L 428.4 16 A 11.741 11.741 0 0 1 428.644 17.313 Q 428.737 18.018 428.774 18.833 A 25.306 25.306 0 0 1 428.8 20 Q 428.8 21.968 428.507 23.496 A 12.311 12.311 0 0 1 428.4 24 L 432.4 24 Q 432.698 25.194 432.774 26.833 A 25.306 25.306 0 0 1 432.8 28 Q 432.8 29.968 432.507 31.496 A 12.311 12.311 0 0 1 432.4 32 Q 432.698 33.194 432.774 34.833 A 25.306 25.306 0 0 1 432.8 36 Q 432.8 37.968 432.507 39.496 A 12.311 12.311 0 0 1 432.4 40 Z M 100.4 48 L 106.4 48 Q 106.698 49.194 106.774 50.833 A 25.306 25.306 0 0 1 106.8 52 Q 106.8 53.968 106.507 55.496 A 12.311 12.311 0 0 1 106.4 56 L 86.4 56 A 13.936 13.936 0 0 1 86.127 54.398 Q 86 53.294 86 52 A 23.85 23.85 0 0 1 86.054 50.345 Q 86.147 49.013 86.4 48 L 92.4 48 A 13.936 13.936 0 0 1 92.127 46.398 Q 92 45.294 92 44 A 23.85 23.85 0 0 1 92.054 42.345 Q 92.147 41.013 92.4 40 A 13.936 13.936 0 0 1 92.127 38.398 Q 92 37.294 92 36 A 23.85 23.85 0 0 1 92.054 34.345 Q 92.147 33.013 92.4 32 A 13.936 13.936 0 0 1 92.127 30.398 Q 92 29.294 92 28 A 23.85 23.85 0 0 1 92.054 26.345 Q 92.147 25.013 92.4 24 A 13.936 13.936 0 0 1 92.127 22.398 Q 92 21.294 92 20 A 23.85 23.85 0 0 1 92.054 18.345 Q 92.147 17.013 92.4 16 A 13.936 13.936 0 0 1 92.127 14.398 Q 92 13.294 92 12 A 23.85 23.85 0 0 1 92.054 10.345 Q 92.147 9.013 92.4 8 L 86.4 8 A 13.936 13.936 0 0 1 86.127 6.398 Q 86 5.294 86 4 A 23.85 23.85 0 0 1 86.054 2.345 Q 86.147 1.013 86.4 0 L 106.4 0 Q 106.698 1.194 106.774 2.833 A 25.306 25.306 0 0 1 106.8 4 Q 106.8 5.968 106.507 7.496 A 12.311 12.311 0 0 1 106.4 8 L 100.4 8 Q 100.698 9.194 100.774 10.833 A 25.306 25.306 0 0 1 100.8 12 Q 100.8 13.968 100.507 15.496 A 12.311 12.311 0 0 1 100.4 16 Q 100.698 17.194 100.774 18.833 A 25.306 25.306 0 0 1 100.8 20 Q 100.8 21.968 100.507 23.496 A 12.311 12.311 0 0 1 100.4 24 Q 100.698 25.194 100.774 26.833 A 25.306 25.306 0 0 1 100.8 28 Q 100.8 29.968 100.507 31.496 A 12.311 12.311 0 0 1 100.4 32 Q 100.698 33.194 100.774 34.833 A 25.306 25.306 0 0 1 100.8 36 Q 100.8 37.968 100.507 39.496 A 12.311 12.311 0 0 1 100.4 40 Q 100.698 41.194 100.774 42.833 A 25.306 25.306 0 0 1 100.8 44 Q 100.8 45.968 100.507 47.496 A 12.311 12.311 0 0 1 100.4 48 Z M 140.4 48 L 146.4 48 Q 146.698 49.194 146.774 50.833 A 25.306 25.306 0 0 1 146.8 52 Q 146.8 53.968 146.507 55.496 A 12.311 12.311 0 0 1 146.4 56 L 126.4 56 A 13.936 13.936 0 0 1 126.127 54.398 Q 126 53.294 126 52 A 23.85 23.85 0 0 1 126.054 50.345 Q 126.147 49.013 126.4 48 L 132.4 48 A 13.936 13.936 0 0 1 132.127 46.398 Q 132 45.294 132 44 A 23.85 23.85 0 0 1 132.054 42.345 Q 132.147 41.013 132.4 40 A 13.936 13.936 0 0 1 132.127 38.398 Q 132 37.294 132 36 A 23.85 23.85 0 0 1 132.054 34.345 Q 132.147 33.013 132.4 32 A 13.936 13.936 0 0 1 132.127 30.398 Q 132 29.294 132 28 A 23.85 23.85 0 0 1 132.054 26.345 Q 132.147 25.013 132.4 24 A 13.936 13.936 0 0 1 132.127 22.398 Q 132 21.294 132 20 A 23.85 23.85 0 0 1 132.054 18.345 Q 132.147 17.013 132.4 16 A 13.936 13.936 0 0 1 132.127 14.398 Q 132 13.294 132 12 A 23.85 23.85 0 0 1 132.054 10.345 Q 132.147 9.013 132.4 8 L 126.4 8 A 13.936 13.936 0 0 1 126.127 6.398 Q 126 5.294 126 4 A 23.85 23.85 0 0 1 126.054 2.345 Q 126.147 1.013 126.4 0 L 146.4 0 Q 146.698 1.194 146.774 2.833 A 25.306 25.306 0 0 1 146.8 4 Q 146.8 5.968 146.507 7.496 A 12.311 12.311 0 0 1 146.4 8 L 140.4 8 Q 140.698 9.194 140.774 10.833 A 25.306 25.306 0 0 1 140.8 12 Q 140.8 13.968 140.507 15.496 A 12.311 12.311 0 0 1 140.4 16 Q 140.698 17.194 140.774 18.833 A 25.306 25.306 0 0 1 140.8 20 Q 140.8 21.968 140.507 23.496 A 12.311 12.311 0 0 1 140.4 24 Q 140.698 25.194 140.774 26.833 A 25.306 25.306 0 0 1 140.8 28 Q 140.8 29.968 140.507 31.496 A 12.311 12.311 0 0 1 140.4 32 Q 140.698 33.194 140.774 34.833 A 25.306 25.306 0 0 1 140.8 36 Q 140.8 37.968 140.507 39.496 A 12.311 12.311 0 0 1 140.4 40 Q 140.698 41.194 140.774 42.833 A 25.306 25.306 0 0 1 140.8 44 Q 140.8 45.968 140.507 47.496 A 12.311 12.311 0 0 1 140.4 48 Z M 180.4 48 L 186.4 48 Q 186.698 49.194 186.774 50.833 A 25.306 25.306 0 0 1 186.8 52 Q 186.8 53.968 186.507 55.496 A 12.311 12.311 0 0 1 186.4 56 L 166.4 56 A 13.936 13.936 0 0 1 166.127 54.398 Q 166 53.294 166 52 A 23.85 23.85 0 0 1 166.054 50.345 Q 166.147 49.013 166.4 48 L 172.4 48 A 13.936 13.936 0 0 1 172.127 46.398 Q 172 45.294 172 44 A 23.85 23.85 0 0 1 172.054 42.345 Q 172.147 41.013 172.4 40 A 13.936 13.936 0 0 1 172.127 38.398 Q 172 37.294 172 36 A 23.85 23.85 0 0 1 172.054 34.345 Q 172.147 33.013 172.4 32 A 13.936 13.936 0 0 1 172.127 30.398 Q 172 29.294 172 28 A 23.85 23.85 0 0 1 172.054 26.345 Q 172.147 25.013 172.4 24 A 13.936 13.936 0 0 1 172.127 22.398 Q 172 21.294 172 20 A 23.85 23.85 0 0 1 172.054 18.345 Q 172.147 17.013 172.4 16 A 13.936 13.936 0 0 1 172.127 14.398 Q 172 13.294 172 12 A 23.85 23.85 0 0 1 172.054 10.345 Q 172.147 9.013 172.4 8 L 166.4 8 A 13.936 13.936 0 0 1 166.127 6.398 Q 166 5.294 166 4 A 23.85 23.85 0 0 1 166.054 2.345 Q 166.147 1.013 166.4 0 L 186.4 0 Q 186.698 1.194 186.774 2.833 A 25.306 25.306 0 0 1 186.8 4 Q 186.8 5.968 186.507 7.496 A 12.311 12.311 0 0 1 186.4 8 L 180.4 8 Q 180.698 9.194 180.774 10.833 A 25.306 25.306 0 0 1 180.8 12 Q 180.8 13.968 180.507 15.496 A 12.311 12.311 0 0 1 180.4 16 Q 180.698 17.194 180.774 18.833 A 25.306 25.306 0 0 1 180.8 20 Q 180.8 21.968 180.507 23.496 A 12.311 12.311 0 0 1 180.4 24 Q 180.698 25.194 180.774 26.833 A 25.306 25.306 0 0 1 180.8 28 Q 180.8 29.968 180.507 31.496 A 12.311 12.311 0 0 1 180.4 32 Q 180.698 33.194 180.774 34.833 A 25.306 25.306 0 0 1 180.8 36 Q 180.8 37.968 180.507 39.496 A 12.311 12.311 0 0 1 180.4 40 Q 180.698 41.194 180.774 42.833 A 25.306 25.306 0 0 1 180.8 44 Q 180.8 45.968 180.507 47.496 A 12.311 12.311 0 0 1 180.4 48 Z M 352.4 8 L 340.4 8 Q 340.698 9.194 340.774 10.833 A 25.306 25.306 0 0 1 340.8 12 Q 340.8 13.968 340.507 15.496 A 12.311 12.311 0 0 1 340.4 16 Q 340.698 17.194 340.774 18.833 A 25.306 25.306 0 0 1 340.8 20 Q 340.8 21.968 340.507 23.496 A 12.311 12.311 0 0 1 340.4 24 Q 340.698 25.194 340.774 26.833 A 25.306 25.306 0 0 1 340.8 28 Q 340.8 29.968 340.507 31.496 A 12.311 12.311 0 0 1 340.4 32 Q 340.698 33.194 340.774 34.833 A 25.306 25.306 0 0 1 340.8 36 Q 340.8 37.968 340.507 39.496 A 12.311 12.311 0 0 1 340.4 40 Q 340.698 41.194 340.774 42.833 A 25.306 25.306 0 0 1 340.8 44 Q 340.8 45.968 340.507 47.496 A 12.311 12.311 0 0 1 340.4 48 Q 340.698 49.194 340.774 50.833 A 25.306 25.306 0 0 1 340.8 52 Q 340.8 53.968 340.507 55.496 A 12.311 12.311 0 0 1 340.4 56 L 332.4 56 A 13.936 13.936 0 0 1 332.127 54.398 Q 332 53.294 332 52 A 23.85 23.85 0 0 1 332.054 50.345 Q 332.147 49.013 332.4 48 A 13.936 13.936 0 0 1 332.127 46.398 Q 332 45.294 332 44 A 23.85 23.85 0 0 1 332.054 42.345 Q 332.147 41.013 332.4 40 A 13.936 13.936 0 0 1 332.127 38.398 Q 332 37.294 332 36 A 23.85 23.85 0 0 1 332.054 34.345 Q 332.147 33.013 332.4 32 A 13.936 13.936 0 0 1 332.127 30.398 Q 332 29.294 332 28 A 23.85 23.85 0 0 1 332.054 26.345 Q 332.147 25.013 332.4 24 A 13.936 13.936 0 0 1 332.127 22.398 Q 332 21.294 332 20 A 23.85 23.85 0 0 1 332.054 18.345 Q 332.147 17.013 332.4 16 A 13.936 13.936 0 0 1 332.127 14.398 Q 332 13.294 332 12 A 23.85 23.85 0 0 1 332.054 10.345 Q 332.147 9.013 332.4 8 L 320.4 8 A 13.936 13.936 0 0 1 320.127 6.398 Q 320 5.294 320 4 A 23.85 23.85 0 0 1 320.054 2.345 Q 320.147 1.013 320.4 0 L 352.4 0 Q 352.698 1.194 352.774 2.833 A 25.306 25.306 0 0 1 352.8 4 Q 352.8 5.968 352.507 7.496 A 12.311 12.311 0 0 1 352.4 8 Z M 552.4 40 L 549.4 40 A 11.741 11.741 0 0 1 549.644 41.313 Q 549.737 42.018 549.774 42.833 A 25.306 25.306 0 0 1 549.8 44 Q 549.8 45.968 549.507 47.496 A 12.311 12.311 0 0 1 549.4 48 L 544.4 48 Q 544.698 49.194 544.774 50.833 A 25.306 25.306 0 0 1 544.8 52 Q 544.8 53.968 544.507 55.496 A 12.311 12.311 0 0 1 544.4 56 L 528.4 56 A 13.936 13.936 0 0 1 528.127 54.398 Q 528 53.294 528 52 A 23.85 23.85 0 0 1 528.054 50.345 Q 528.147 49.013 528.4 48 L 523.4 48 A 13.936 13.936 0 0 1 523.127 46.398 Q 523 45.294 523 44 A 23.85 23.85 0 0 1 523.054 42.345 Q 523.147 41.013 523.4 40 L 520.4 40 A 13.936 13.936 0 0 1 520.127 38.398 Q 520 37.294 520 36 A 23.85 23.85 0 0 1 520.054 34.345 Q 520.147 33.013 520.4 32 L 523.4 32 A 13.936 13.936 0 0 1 523.127 30.398 Q 523 29.294 523 28 A 23.85 23.85 0 0 1 523.054 26.345 Q 523.147 25.013 523.4 24 L 528.4 24 A 13.936 13.936 0 0 1 528.127 22.398 Q 528 21.294 528 20 A 23.85 23.85 0 0 1 528.054 18.345 Q 528.147 17.013 528.4 16 L 544.4 16 Q 544.698 17.194 544.774 18.833 A 25.306 25.306 0 0 1 544.8 20 Q 544.8 21.968 544.507 23.496 A 12.311 12.311 0 0 1 544.4 24 L 549.4 24 A 11.741 11.741 0 0 1 549.644 25.313 Q 549.737 26.018 549.774 26.833 A 25.306 25.306 0 0 1 549.8 28 Q 549.8 29.968 549.507 31.496 A 12.311 12.311 0 0 1 549.4 32 L 552.4 32 Q 552.698 33.194 552.774 34.833 A 25.306 25.306 0 0 1 552.8 36 Q 552.8 37.968 552.507 39.496 A 12.311 12.311 0 0 1 552.4 40 Z M 592.4 40 L 589.4 40 A 11.741 11.741 0 0 1 589.644 41.313 Q 589.737 42.018 589.774 42.833 A 25.306 25.306 0 0 1 589.8 44 Q 589.8 45.968 589.507 47.496 A 12.311 12.311 0 0 1 589.4 48 L 584.4 48 Q 584.698 49.194 584.774 50.833 A 25.306 25.306 0 0 1 584.8 52 Q 584.8 53.968 584.507 55.496 A 12.311 12.311 0 0 1 584.4 56 L 568.4 56 A 13.936 13.936 0 0 1 568.127 54.398 Q 568 53.294 568 52 A 23.85 23.85 0 0 1 568.054 50.345 Q 568.147 49.013 568.4 48 L 563.4 48 A 13.936 13.936 0 0 1 563.127 46.398 Q 563 45.294 563 44 A 23.85 23.85 0 0 1 563.054 42.345 Q 563.147 41.013 563.4 40 L 560.4 40 A 13.936 13.936 0 0 1 560.127 38.398 Q 560 37.294 560 36 A 23.85 23.85 0 0 1 560.054 34.345 Q 560.147 33.013 560.4 32 L 563.4 32 A 13.936 13.936 0 0 1 563.127 30.398 Q 563 29.294 563 28 A 23.85 23.85 0 0 1 563.054 26.345 Q 563.147 25.013 563.4 24 L 568.4 24 A 13.936 13.936 0 0 1 568.127 22.398 Q 568 21.294 568 20 A 23.85 23.85 0 0 1 568.054 18.345 Q 568.147 17.013 568.4 16 L 584.4 16 Q 584.698 17.194 584.774 18.833 A 25.306 25.306 0 0 1 584.8 20 Q 584.8 21.968 584.507 23.496 A 12.311 12.311 0 0 1 584.4 24 L 589.4 24 A 11.741 11.741 0 0 1 589.644 25.313 Q 589.737 26.018 589.774 26.833 A 25.306 25.306 0 0 1 589.8 28 Q 589.8 29.968 589.507 31.496 A 12.311 12.311 0 0 1 589.4 32 L 592.4 32 Q 592.698 33.194 592.774 34.833 A 25.306 25.306 0 0 1 592.8 36 Q 592.8 37.968 592.507 39.496 A 12.311 12.311 0 0 1 592.4 40 Z M 541.4 40 L 544.4 40 A 13.936 13.936 0 0 1 544.127 38.398 Q 544 37.294 544 36 A 23.85 23.85 0 0 1 544.054 34.345 Q 544.147 33.013 544.4 32 L 541.4 32 A 13.936 13.936 0 0 1 541.127 30.398 Q 541 29.294 541 28 A 23.85 23.85 0 0 1 541.054 26.345 Q 541.147 25.013 541.4 24 L 531.4 24 A 11.741 11.741 0 0 1 531.644 25.313 Q 531.737 26.018 531.774 26.833 A 25.306 25.306 0 0 1 531.8 28 Q 531.8 29.968 531.507 31.496 A 12.311 12.311 0 0 1 531.4 32 L 528.4 32 A 11.741 11.741 0 0 1 528.644 33.313 Q 528.737 34.018 528.774 34.833 A 25.306 25.306 0 0 1 528.8 36 Q 528.8 37.968 528.507 39.496 A 12.311 12.311 0 0 1 528.4 40 L 531.4 40 A 11.741 11.741 0 0 1 531.644 41.313 Q 531.737 42.018 531.774 42.833 A 25.306 25.306 0 0 1 531.8 44 Q 531.8 45.968 531.507 47.496 A 12.311 12.311 0 0 1 531.4 48 L 541.4 48 A 13.936 13.936 0 0 1 541.127 46.398 Q 541 45.294 541 44 A 23.85 23.85 0 0 1 541.054 42.345 Q 541.147 41.013 541.4 40 Z M 581.4 40 L 584.4 40 A 13.936 13.936 0 0 1 584.127 38.398 Q 584 37.294 584 36 A 23.85 23.85 0 0 1 584.054 34.345 Q 584.147 33.013 584.4 32 L 581.4 32 A 13.936 13.936 0 0 1 581.127 30.398 Q 581 29.294 581 28 A 23.85 23.85 0 0 1 581.054 26.345 Q 581.147 25.013 581.4 24 L 571.4 24 A 11.741 11.741 0 0 1 571.644 25.313 Q 571.737 26.018 571.774 26.833 A 25.306 25.306 0 0 1 571.8 28 Q 571.8 29.968 571.507 31.496 A 12.311 12.311 0 0 1 571.4 32 L 568.4 32 A 11.741 11.741 0 0 1 568.644 33.313 Q 568.737 34.018 568.774 34.833 A 25.306 25.306 0 0 1 568.8 36 Q 568.8 37.968 568.507 39.496 A 12.311 12.311 0 0 1 568.4 40 L 571.4 40 A 11.741 11.741 0 0 1 571.644 41.313 Q 571.737 42.018 571.774 42.833 A 25.306 25.306 0 0 1 571.8 44 Q 571.8 45.968 571.507 47.496 A 12.311 12.311 0 0 1 571.4 48 L 581.4 48 A 13.936 13.936 0 0 1 581.127 46.398 Q 581 45.294 581 44 A 23.85 23.85 0 0 1 581.054 42.345 Q 581.147 41.013 581.4 40 Z M 246.4 24 L 266.4 24 Q 266.698 25.194 266.774 26.833 A 25.306 25.306 0 0 1 266.8 28 Q 266.8 29.968 266.507 31.496 A 12.311 12.311 0 0 1 266.4 32 L 246.4 32 A 13.936 13.936 0 0 1 246.127 30.398 Q 246 29.294 246 28 A 23.85 23.85 0 0 1 246.054 26.345 Q 246.147 25.013 246.4 24 Z M 424.4 24 L 411.4 24 A 11.741 11.741 0 0 1 411.644 25.313 Q 411.737 26.018 411.774 26.833 A 25.306 25.306 0 0 1 411.8 28 Q 411.8 29.968 411.507 31.496 A 12.311 12.311 0 0 1 411.4 32 L 424.4 32 A 13.936 13.936 0 0 1 424.127 30.398 Q 424 29.294 424 28 A 23.85 23.85 0 0 1 424.054 26.345 Q 424.147 25.013 424.4 24 Z" vector-effect="non-scaling-stroke"/></g></svg>