<svg width="548.8" height="72" viewBox="0 0 548.8 72" xmlns="http://www.w3.org/2000/svg"><g id="svgGroup" stroke-linecap="round" fill-rule="evenodd" font-size="9pt" stroke="#000" stroke-width="0.25mm" fill="#000" style="stroke:#000;stroke-width:0.25mm;fill:#000"><path d="M 29.4 48 L 32.4 48 Q 32.698 49.194 32.774 50.833 A 25.306 25.306 0 0 1 32.8 52 Q 32.8 53.968 32.507 55.496 A 12.311 12.311 0 0 1 32.4 56 L 24.4 56 A 13.936 13.936 0 0 1 24.127 54.398 Q 24 53.294 24 52 A 23.85 23.85 0 0 1 24.054 50.345 Q 24.147 49.013 24.4 48 L 21.4 48 A 13.936 13.936 0 0 1 21.127 46.398 Q 21 45.294 21 44 A 23.85 23.85 0 0 1 21.054 42.345 Q 21.147 41.013 21.4 40 L 19.4 40 A 13.936 13.936 0 0 1 19.127 38.398 Q 19 37.294 19 36 A 23.85 23.85 0 0 1 19.054 34.345 Q 19.147 33.013 19.4 32 L 13.4 32 A 11.741 11.741 0 0 1 13.644 33.313 Q 13.737 34.018 13.774 34.833 A 25.306 25.306 0 0 1 13.8 36 Q 13.8 37.968 13.507 39.496 A 12.311 12.311 0 0 1 13.4 40 L 11.4 40 A 11.741 11.741 0 0 1 11.644 41.313 Q 11.737 42.018 11.774 42.833 A 25.306 25.306 0 0 1 11.8 44 Q 11.8 45.968 11.507 47.496 A 12.311 12.311 0 0 1 11.4 48 L 8.4 48 A 11.741 11.741 0 0 1 8.644 49.313 Q 8.737 50.018 8.774 50.833 A 25.306 25.306 0 0 1 8.8 52 Q 8.8 53.968 8.507 55.496 A 12.311 12.311 0 0 1 8.4 56 L 0.4 56 A 13.936 13.936 0 0 1 0.127 54.398 Q 0 53.294 0 52 A 23.85 23.85 0 0 1 0.054 50.345 Q 0.147 49.013 0.4 48 L 3.4 48 A 13.936 13.936 0 0 1 3.127 46.398 Q 3 45.294 3 44 A 23.85 23.85 0 0 1 3.054 42.345 Q 3.147 41.013 3.4 40 L 7.4 40 A 13.936 13.936 0 0 1 7.127 38.398 Q 7 37.294 7 36 A 23.85 23.85 0 0 1 7.054 34.345 Q 7.147 33.013 7.4 32 L 10.4 32 A 13.936 13.936 0 0 1 10.127 30.398 Q 10 29.294 10 28 A 23.85 23.85 0 0 1 10.054 26.345 Q 10.147 25.013 10.4 24 L 7.4 24 A 13.936 13.936 0 0 1 7.127 22.398 Q 7 21.294 7 20 A 23.85 23.85 0 0 1 7.054 18.345 Q 7.147 17.013 7.4 16 L 3.4 16 A 13.936 13.936 0 0 1 3.127 14.398 Q 3 13.294 3 12 A 23.85 23.85 0 0 1 3.054 10.345 Q 3.147 9.013 3.4 8 L 0.4 8 A 13.936 13.936 0 0 1 0.127 6.398 Q 0 5.294 0 4 A 23.85 23.85 0 0 1 0.054 2.345 Q 0.147 1.013 0.4 0 L 8.4 0 A 11.741 11.741 0 0 1 8.644 1.313 Q 8.737 2.018 8.774 2.833 A 25.306 25.306 0 0 1 8.8 4 Q 8.8 5.968 8.507 7.496 A 12.311 12.311 0 0 1 8.4 8 L 11.4 8 A 11.741 11.741 0 0 1 11.644 9.313 Q 11.737 10.018 11.774 10.833 A 25.306 25.306 0 0 1 11.8 12 Q 11.8 13.968 11.507 15.496 A 12.311 12.311 0 0 1 11.4 16 L 13.4 16 A 11.741 11.741 0 0 1 13.644 17.313 Q 13.737 18.018 13.774 18.833 A 25.306 25.306 0 0 1 13.8 20 Q 13.8 21.968 13.507 23.496 A 12.311 12.311 0 0 1 13.4 24 L 19.4 24 A 13.936 13.936 0 0 1 19.127 22.398 Q 19 21.294 19 20 A 23.85 23.85 0 0 1 19.054 18.345 Q 19.147 17.013 19.4 16 L 21.4 16 A 13.936 13.936 0 0 1 21.127 14.398 Q 21 13.294 21 12 A 23.85 23.85 0 0 1 21.054 10.345 Q 21.147 9.013 21.4 8 L 24.4 8 A 13.936 13.936 0 0 1 24.127 6.398 Q 24 5.294 24 4 A 23.85 23.85 0 0 1 24.054 2.345 Q 24.147 1.013 24.4 0 L 32.4 0 Q 32.698 1.194 32.774 2.833 A 25.306 25.306 0 0 1 32.8 4 Q 32.8 5.968 32.507 7.496 A 12.311 12.311 0 0 1 32.4 8 L 29.4 8 A 11.741 11.741 0 0 1 29.644 9.313 Q 29.737 10.018 29.774 10.833 A 25.306 25.306 0 0 1 29.8 12 Q 29.8 13.968 29.507 15.496 A 12.311 12.311 0 0 1 29.4 16 L 25.4 16 Q 25.698 17.194 25.774 18.833 A 25.306 25.306 0 0 1 25.8 20 Q 25.8 21.968 25.507 23.496 A 12.311 12.311 0 0 1 25.4 24 L 22.4 24 Q 22.698 25.194 22.774 26.833 A 25.306 25.306 0 0 1 22.8 28 Q 22.8 29.968 22.507 31.496 A 12.311 12.311 0 0 1 22.4 32 L 25.4 32 Q 25.698 33.194 25.774 34.833 A 25.306 25.306 0 0 1 25.8 36 Q 25.8 37.968 25.507 39.496 A 12.311 12.311 0 0 1 25.4 40 L 29.4 40 A 11.741 11.741 0 0 1 29.644 41.313 Q 29.737 42.018 29.774 42.833 A 25.306 25.306 0 0 1 29.8 44 Q 29.8 45.968 29.507 47.496 A 12.311 12.311 0 0 1 29.4 48 Z M 69.4 48 L 72.4 48 Q 72.698 49.194 72.774 50.833 A 25.306 25.306 0 0 1 72.8 52 Q 72.8 53.968 72.507 55.496 A 12.311 12.311 0 0 1 72.4 56 L 64.4 56 A 13.936 13.936 0 0 1 64.127 54.398 Q 64 53.294 64 52 A 23.85 23.85 0 0 1 64.054 50.345 Q 64.147 49.013 64.4 48 L 61.4 48 A 13.936 13.936 0 0 1 61.127 46.398 Q 61 45.294 61 44 A 23.85 23.85 0 0 1 61.054 42.345 Q 61.147 41.013 61.4 40 L 59.4 40 A 13.936 13.936 0 0 1 59.127 38.398 Q 59 37.294 59 36 A 23.85 23.85 0 0 1 59.054 34.345 Q 59.147 33.013 59.4 32 L 53.4 32 A 11.741 11.741 0 0 1 53.644 33.313 Q 53.737 34.018 53.774 34.833 A 25.306 25.306 0 0 1 53.8 36 Q 53.8 37.968 53.507 39.496 A 12.311 12.311 0 0 1 53.4 40 L 51.4 40 A 11.741 11.741 0 0 1 51.644 41.313 Q 51.737 42.018 51.774 42.833 A 25.306 25.306 0 0 1 51.8 44 Q 51.8 45.968 51.507 47.496 A 12.311 12.311 0 0 1 51.4 48 L 48.4 48 A 11.741 11.741 0 0 1 48.644 49.313 Q 48.737 50.018 48.774 50.833 A 25.306 25.306 0 0 1 48.8 52 Q 48.8 53.968 48.507 55.496 A 12.311 12.311 0 0 1 48.4 56 L 40.4 56 A 13.936 13.936 0 0 1 40.127 54.398 Q 40 53.294 40 52 A 23.85 23.85 0 0 1 40.054 50.345 Q 40.147 49.013 40.4 48 L 43.4 48 A 13.936 13.936 0 0 1 43.127 46.398 Q 43 45.294 43 44 A 23.85 23.85 0 0 1 43.054 42.345 Q 43.147 41.013 43.4 40 L 47.4 40 A 13.936 13.936 0 0 1 47.127 38.398 Q 47 37.294 47 36 A 23.85 23.85 0 0 1 47.054 34.345 Q 47.147 33.013 47.4 32 L 50.4 32 A 13.936 13.936 0 0 1 50.127 30.398 Q 50 29.294 50 28 A 23.85 23.85 0 0 1 50.054 26.345 Q 50.147 25.013 50.4 24 L 47.4 24 A 13.936 13.936 0 0 1 47.127 22.398 Q 47 21.294 47 20 A 23.85 23.85 0 0 1 47.054 18.345 Q 47.147 17.013 47.4 16 L 43.4 16 A 13.936 13.936 0 0 1 43.127 14.398 Q 43 13.294 43 12 A 23.85 23.85 0 0 1 43.054 10.345 Q 43.147 9.013 43.4 8 L 40.4 8 A 13.936 13.936 0 0 1 40.127 6.398 Q 40 5.294 40 4 A 23.85 23.85 0 0 1 40.054 2.345 Q 40.147 1.013 40.4 0 L 48.4 0 A 11.741 11.741 0 0 1 48.644 1.313 Q 48.737 2.018 48.774 2.833 A 25.306 25.306 0 0 1 48.8 4 Q 48.8 5.968 48.507 7.496 A 12.311 12.311 0 0 1 48.4 8 L 51.4 8 A 11.741 11.741 0 0 1 51.644 9.313 Q 51.737 10.018 51.774 10.833 A 25.306 25.306 0 0 1 51.8 12 Q 51.8 13.968 51.507 15.496 A 12.311 12.311 0 0 1 51.4 16 L 53.4 16 A 11.741 11.741 0 0 1 53.644 17.313 Q 53.737 18.018 53.774 18.833 A 25.306 25.306 0 0 1 53.8 20 Q 53.8 21.968 53.507 23.496 A 12.311 12.311 0 0 1 53.4 24 L 59.4 24 A 13.936 13.936 0 0 1 59.127 22.398 Q 59 21.294 59 20 A 23.85 23.85 0 0 1 59.054 18.345 Q 59.147 17.013 59.4 16 L 61.4 16 A 13.936 13.936 0 0 1 61.127 14.398 Q 61 13.294 61 12 A 23.85 23.85 0 0 1 61.054 10.345 Q 61.147 9.013 61.4 8 L 64.4 8 A 13.936 13.936 0 0 1 64.127 6.398 Q 64 5.294 64 4 A 23.85 23.85 0 0 1 64.054 2.345 Q 64.147 1.013 64.4 0 L 72.4 0 Q 72.698 1.194 72.774 2.833 A 25.306 25.306 0 0 1 72.8 4 Q 72.8 5.968 72.507 7.496 A 12.311 12.311 0 0 1 72.4 8 L 69.4 8 A 11.741 11.741 0 0 1 69.644 9.313 Q 69.737 10.018 69.774 10.833 A 25.306 25.306 0 0 1 69.8 12 Q 69.8 13.968 69.507 15.496 A 12.311 12.311 0 0 1 69.4 16 L 65.4 16 Q 65.698 17.194 65.774 18.833 A 25.306 25.306 0 0 1 65.8 20 Q 65.8 21.968 65.507 23.496 A 12.311 12.311 0 0 1 65.4 24 L 62.4 24 Q 62.698 25.194 62.774 26.833 A 25.306 25.306 0 0 1 62.8 28 Q 62.8 29.968 62.507 31.496 A 12.311 12.311 0 0 1 62.4 32 L 65.4 32 Q 65.698 33.194 65.774 34.833 A 25.306 25.306 0 0 1 65.8 36 Q 65.8 37.968 65.507 39.496 A 12.311 12.311 0 0 1 65.4 40 L 69.4 40 A 11.741 11.741 0 0 1 69.644 41.313 Q 69.737 42.018 69.774 42.833 A 25.306 25.306 0 0 1 69.8 44 Q 69.8 45.968 69.507 47.496 A 12.311 12.311 0 0 1 69.4 48 Z M 340.4 48 A 13.936 13.936 0 0 1 340.127 46.398 Q 340 45.294 340 44 A 23.85 23.85 0 0 1 340.054 42.345 Q 340.147 41.013 340.4 40 L 344.4 40 A 13.936 13.936 0 0 1 344.127 38.398 Q 344 37.294 344 36 A 23.85 23.85 0 0 1 344.054 34.345 Q 344.147 33.013 344.4 32 A 13.936 13.936 0 0 1 344.127 30.398 Q 344 29.294 344 28 A 23.85 23.85 0 0 1 344.054 26.345 Q 344.147 25.013 344.4 24 L 331.4 24 A 11.741 11.741 0 0 1 331.644 25.313 Q 331.737 26.018 331.774 26.833 A 25.306 25.306 0 0 1 331.8 28 Q 331.8 29.968 331.507 31.496 A 12.311 12.311 0 0 1 331.4 32 L 328.4 32 A 11.741 11.741 0 0 1 328.644 33.313 Q 328.737 34.018 328.774 34.833 A 25.306 25.306 0 0 1 328.8 36 Q 328.8 37.968 328.507 39.496 A 12.311 12.311 0 0 1 328.4 40 L 331.4 40 A 11.741 11.741 0 0 1 331.644 41.313 Q 331.737 42.018 331.774 42.833 A 25.306 25.306 0 0 1 331.8 44 Q 331.8 45.968 331.507 47.496 A 12.311 12.311 0 0 1 331.4 48 L 340.4 48 L 344.4 48 Q 344.147 49.013 344.054 50.345 A 23.85 23.85 0 0 0 344 52 Q 344 53.294 344.127 54.398 A 13.936 13.936 0 0 0 344.4 56 L 340.4 56 Q 340.147 57.013 340.054 58.345 A 23.85 23.85 0 0 0 340 60 Q 340 61.294 340.127 62.398 A 13.936 13.936 0 0 0 340.4 64 L 328.4 64 Q 328.147 65.013 328.054 66.345 A 23.85 23.85 0 0 0 328 68 Q 328 69.294 328.127 70.398 A 13.936 13.936 0 0 0 328.4 72 L 344.4 72 A 12.311 12.311 0 0 0 344.507 71.496 Q 344.8 69.968 344.8 68 A 25.306 25.306 0 0 0 344.774 66.833 Q 344.698 65.194 344.4 64 L 348.4 64 A 12.311 12.311 0 0 0 348.507 63.496 Q 348.8 61.968 348.8 60 A 25.306 25.306 0 0 0 348.774 58.833 Q 348.737 58.018 348.644 57.313 A 11.741 11.741 0 0 0 348.4 56 L 352.4 56 A 12.311 12.311 0 0 0 352.507 55.496 Q 352.8 53.968 352.8 52 A 25.306 25.306 0 0 0 352.774 50.833 Q 352.698 49.194 352.4 48 A 12.311 12.311 0 0 0 352.507 47.496 Q 352.8 45.968 352.8 44 A 25.306 25.306 0 0 0 352.774 42.833 Q 352.698 41.194 352.4 40 A 12.311 12.311 0 0 0 352.507 39.496 Q 352.8 37.968 352.8 36 A 25.306 25.306 0 0 0 352.774 34.833 Q 352.698 33.194 352.4 32 A 12.311 12.311 0 0 0 352.507 31.496 Q 352.8 29.968 352.8 28 A 25.306 25.306 0 0 0 352.774 26.833 Q 352.698 25.194 352.4 24 A 12.311 12.311 0 0 0 352.507 23.496 Q 352.8 21.968 352.8 20 A 25.306 25.306 0 0 0 352.774 18.833 Q 352.698 17.194 352.4 16 L 328.4 16 Q 328.147 17.013 328.054 18.345 A 23.85 23.85 0 0 0 328 20 Q 328 21.294 328.127 22.398 A 13.936 13.936 0 0 0 328.4 24 L 323.4 24 Q 323.147 25.013 323.054 26.345 A 23.85 23.85 0 0 0 323 28 Q 323 29.294 323.127 30.398 A 13.936 13.936 0 0 0 323.4 32 L 320.4 32 Q 320.147 33.013 320.054 34.345 A 23.85 23.85 0 0 0 320 36 Q 320 37.294 320.127 38.398 A 13.936 13.936 0 0 0 320.4 40 L 323.4 40 Q 323.147 41.013 323.054 42.345 A 23.85 23.85 0 0 0 323 44 Q 323 45.294 323.127 46.398 A 13.936 13.936 0 0 0 323.4 48 L 328.4 48 Q 328.147 49.013 328.054 50.345 A 23.85 23.85 0 0 0 328 52 Q 328 53.294 328.127 54.398 A 13.936 13.936 0 0 0 328.4 56 L 340.4 56 Q 340.147 57.013 340.054 58.345 M 261.4 48 A 13.936 13.936 0 0 1 261.127 46.398 Q 261 45.294 261 44 A 23.85 23.85 0 0 1 261.054 42.345 Q 261.147 41.013 261.4 40 L 264.4 40 A 13.936 13.936 0 0 1 264.127 38.398 Q 264 37.294 264 36 A 23.85 23.85 0 0 1 264.054 34.345 Q 264.147 33.013 264.4 32 A 13.936 13.936 0 0 1 264.127 30.398 Q 264 29.294 264 28 A 23.85 23.85 0 0 1 264.054 26.345 Q 264.147 25.013 264.4 24 A 13.936 13.936 0 0 1 264.127 22.398 Q 264 21.294 264 20 A 23.85 23.85 0 0 1 264.054 18.345 Q 264.147 17.013 264.4 16 L 272.4 16 Q 272.698 17.194 272.774 18.833 A 25.306 25.306 0 0 1 272.8 20 Q 272.8 21.968 272.507 23.496 A 12.311 12.311 0 0 1 272.4 24 Q 272.698 25.194 272.774 26.833 A 25.306 25.306 0 0 1 272.8 28 Q 272.8 29.968 272.507 31.496 A 12.311 12.311 0 0 1 272.4 32 Q 272.698 33.194 272.774 34.833 A 25.306 25.306 0 0 1 272.8 36 Q 272.8 37.968 272.507 39.496 A 12.311 12.311 0 0 1 272.4 40 Q 272.698 41.194 272.774 42.833 A 25.306 25.306 0 0 1 272.8 44 Q 272.8 45.968 272.507 47.496 A 12.311 12.311 0 0 1 272.4 48 Q 272.698 49.194 272.774 50.833 A 25.306 25.306 0 0 1 272.8 52 Q 272.8 53.968 272.507 55.496 A 12.311 12.311 0 0 1 272.4 56 L 264.4 56 A 13.936 13.936 0 0 1 264.127 54.398 Q 264 53.294 264 52 A 23.85 23.85 0 0 1 264.054 50.345 Q 264.147 49.013 264.4 48 L 261.4 48 L 251.4 48 A 12.311 12.311 0 0 0 251.507 47.496 Q 251.8 45.968 251.8 44 A 25.306 25.306 0 0 0 251.774 42.833 Q 251.737 42.018 251.644 41.313 A 11.741 11.741 0 0 0 251.4 40 L 248.4 40 A 12.311 12.311 0 0 0 248.507 39.496 Q 248.8 37.968 248.8 36 A 25.306 25.306 0 0 0 248.774 34.833 Q 248.737 34.018 248.644 33.313 A 11.741 11.741 0 0 0 248.4 32 A 12.311 12.311 0 0 0 248.507 31.496 Q 248.8 29.968 248.8 28 A 25.306 25.306 0 0 0 248.774 26.833 Q 248.737 26.018 248.644 25.313 A 11.741 11.741 0 0 0 248.4 24 A 12.311 12.311 0 0 0 248.507 23.496 Q 248.8 21.968 248.8 20 A 25.306 25.306 0 0 0 248.774 18.833 Q 248.737 18.018 248.644 17.313 A 11.741 11.741 0 0 0 248.4 16 L 240.4 16 Q 240.147 17.013 240.054 18.345 A 23.85 23.85 0 0 0 240 20 Q 240 21.294 240.127 22.398 A 13.936 13.936 0 0 0 240.4 24 Q 240.147 25.013 240.054 26.345 A 23.85 23.85 0 0 0 240 28 Q 240 29.294 240.127 30.398 A 13.936 13.936 0 0 0 240.4 32 Q 240.147 33.013 240.054 34.345 A 23.85 23.85 0 0 0 240 36 Q 240 37.294 240.127 38.398 A 13.936 13.936 0 0 0 240.4 40 Q 240.147 41.013 240.054 42.345 A 23.85 23.85 0 0 0 240 44 Q 240 45.294 240.127 46.398 A 13.936 13.936 0 0 0 240.4 48 L 245.4 48 Q 245.147 49.013 245.054 50.345 A 23.85 23.85 0 0 0 245 52 Q 245 53.294 245.127 54.398 A 13.936 13.936 0 0 0 245.4 56 L 261.4 56 A 12.311 12.311 0 0 0 261.507 55.496 Q 261.8 53.968 261.8 52 A 25.306 25.306 0 0 0 261.774 50.833 Q 261.698 49.194 261.4 48 Z M 487.4 24 L 491.4 24 L 504.4 24 Q 504.147 25.013 504.054 26.345 A 23.85 23.85 0 0 0 504 28 Q 504 29.294 504.127 30.398 A 13.936 13.936 0 0 0 504.4 32 Q 504.147 33.013 504.054 34.345 A 23.85 23.85 0 0 0 504 36 Q 504 37.294 504.127 38.398 A 13.936 13.936 0 0 0 504.4 40 Q 504.147 41.013 504.054 42.345 A 23.85 23.85 0 0 0 504 44 Q 504 45.294 504.127 46.398 A 13.936 13.936 0 0 0 504.4 48 Q 504.147 49.013 504.054 50.345 A 23.85 23.85 0 0 0 504 52 Q 504 53.294 504.127 54.398 A 13.936 13.936 0 0 0 504.4 56 L 512.4 56 A 12.311 12.311 0 0 0 512.507 55.496 Q 512.8 53.968 512.8 52 A 25.306 25.306 0 0 0 512.774 50.833 Q 512.698 49.194 512.4 48 A 12.311 12.311 0 0 0 512.507 47.496 Q 512.8 45.968 512.8 44 A 25.306 25.306 0 0 0 512.774 42.833 Q 512.698 41.194 512.4 40 A 12.311 12.311 0 0 0 512.507 39.496 Q 512.8 37.968 512.8 36 A 25.306 25.306 0 0 0 512.774 34.833 Q 512.698 33.194 512.4 32 A 12.311 12.311 0 0 0 512.507 31.496 Q 512.8 29.968 512.8 28 A 25.306 25.306 0 0 0 512.774 26.833 Q 512.698 25.194 512.4 24 L 507.4 24 A 12.311 12.311 0 0 0 507.507 23.496 Q 507.8 21.968 507.8 20 A 25.306 25.306 0 0 0 507.774 18.833 Q 507.698 17.194 507.4 16 L 491.4 16 Q 491.147 17.013 491.054 18.345 A 23.85 23.85 0 0 0 491 20 Q 491 21.294 491.127 22.398 A 13.936 13.936 0 0 0 491.4 24 A 11.741 11.741 0 0 1 491.644 25.313 Q 491.737 26.018 491.774 26.833 A 25.306 25.306 0 0 1 491.8 28 Q 491.8 29.968 491.507 31.496 A 12.311 12.311 0 0 1 491.4 32 L 488.4 32 A 11.741 11.741 0 0 1 488.644 33.313 Q 488.737 34.018 488.774 34.833 A 25.306 25.306 0 0 1 488.8 36 Q 488.8 37.968 488.507 39.496 A 12.311 12.311 0 0 1 488.4 40 A 11.741 11.741 0 0 1 488.644 41.313 Q 488.737 42.018 488.774 42.833 A 25.306 25.306 0 0 1 488.8 44 Q 488.8 45.968 488.507 47.496 A 12.311 12.311 0 0 1 488.4 48 A 11.741 11.741 0 0 1 488.644 49.313 Q 488.737 50.018 488.774 50.833 A 25.306 25.306 0 0 1 488.8 52 Q 488.8 53.968 488.507 55.496 A 12.311 12.311 0 0 1 488.4 56 L 480.4 56 A 13.936 13.936 0 0 1 480.127 54.398 Q 480 53.294 480 52 A 23.85 23.85 0 0 1 480.054 50.345 Q 480.147 49.013 480.4 48 A 13.936 13.936 0 0 1 480.127 46.398 Q 480 45.294 480 44 A 23.85 23.85 0 0 1 480.054 42.345 Q 480.147 41.013 480.4 40 A 13.936 13.936 0 0 1 480.127 38.398 Q 480 37.294 480 36 A 23.85 23.85 0 0 1 480.054 34.345 Q 480.147 33.013 480.4 32 A 13.936 13.936 0 0 1 480.127 30.398 Q 480 29.294 480 28 A 23.85 23.85 0 0 1 480.054 26.345 Q 480.147 25.013 480.4 24 A 13.936 13.936 0 0 1 480.127 22.398 Q 480 21.294 480 20 A 23.85 23.85 0 0 1 480.054 18.345 Q 480.147 17.013 480.4 16 L 487.4 16 A 11.741 11.741 0 0 1 487.644 17.313 Q 487.737 18.018 487.774 18.833 A 25.306 25.306 0 0 1 487.8 20 Q 487.8 21.968 487.507 23.496 A 12.311 12.311 0 0 1 487.4 24 Z M 230.4 8 L 224.4 8 Q 224.698 9.194 224.774 10.833 A 25.306 25.306 0 0 1 224.8 12 Q 224.8 13.968 224.507 15.496 A 12.311 12.311 0 0 1 224.4 16 Q 224.698 17.194 224.774 18.833 A 25.306 25.306 0 0 1 224.8 20 Q 224.8 21.968 224.507 23.496 A 12.311 12.311 0 0 1 224.4 24 Q 224.698 25.194 224.774 26.833 A 25.306 25.306 0 0 1 224.8 28 Q 224.8 29.968 224.507 31.496 A 12.311 12.311 0 0 1 224.4 32 Q 224.698 33.194 224.774 34.833 A 25.306 25.306 0 0 1 224.8 36 Q 224.8 37.968 224.507 39.496 A 12.311 12.311 0 0 1 224.4 40 Q 224.698 41.194 224.774 42.833 A 25.306 25.306 0 0 1 224.8 44 Q 224.8 45.968 224.507 47.496 A 12.311 12.311 0 0 1 224.4 48 L 220.4 48 Q 220.698 49.194 220.774 50.833 A 25.306 25.306 0 0 1 220.8 52 Q 220.8 53.968 220.507 55.496 A 12.311 12.311 0 0 1 220.4 56 L 204.4 56 A 13.936 13.936 0 0 1 204.127 54.398 Q 204 53.294 204 52 A 23.85 23.85 0 0 1 204.054 50.345 Q 204.147 49.013 204.4 48 L 200.4 48 A 13.936 13.936 0 0 1 200.127 46.398 Q 200 45.294 200 44 A 23.85 23.85 0 0 1 200.054 42.345 Q 200.147 41.013 200.4 40 L 208.4 40 A 11.741 11.741 0 0 1 208.644 41.313 Q 208.737 42.018 208.774 42.833 A 25.306 25.306 0 0 1 208.8 44 Q 208.8 45.968 208.507 47.496 A 12.311 12.311 0 0 1 208.4 48 L 216.4 48 A 13.936 13.936 0 0 1 216.127 46.398 Q 216 45.294 216 44 A 23.85 23.85 0 0 1 216.054 42.345 Q 216.147 41.013 216.4 40 A 13.936 13.936 0 0 1 216.127 38.398 Q 216 37.294 216 36 A 23.85 23.85 0 0 1 216.054 34.345 Q 216.147 33.013 216.4 32 A 13.936 13.936 0 0 1 216.127 30.398 Q 216 29.294 216 28 A 23.85 23.85 0 0 1 216.054 26.345 Q 216.147 25.013 216.4 24 A 13.936 13.936 0 0 1 216.127 22.398 Q 216 21.294 216 20 A 23.85 23.85 0 0 1 216.054 18.345 Q 216.147 17.013 216.4 16 A 13.936 13.936 0 0 1 216.127 14.398 Q 216 13.294 216 12 A 23.85 23.85 0 0 1 216.054 10.345 Q 216.147 9.013 216.4 8 L 210.4 8 A 13.936 13.936 0 0 1 210.127 6.398 Q 210 5.294 210 4 A 23.85 23.85 0 0 1 210.054 2.345 Q 210.147 1.013 210.4 0 L 230.4 0 Q 230.698 1.194 230.774 2.833 A 25.306 25.306 0 0 1 230.8 4 Q 230.8 5.968 230.507 7.496 A 12.311 12.311 0 0 1 230.4 8 Z M 405.4 24 L 408.4 24 L 413.4 24 Q 413.147 25.013 413.054 26.345 A 23.85 23.85 0 0 0 413 28 Q 413 29.294 413.127 30.398 A 13.936 13.936 0 0 0 413.4 32 Q 413.147 33.013 413.054 34.345 A 23.85 23.85 0 0 0 413 36 Q 413 37.294 413.127 38.398 A 13.936 13.936 0 0 0 413.4 40 Q 413.147 41.013 413.054 42.345 A 23.85 23.85 0 0 0 413 44 Q 413 45.294 413.127 46.398 A 13.936 13.936 0 0 0 413.4 48 Q 413.147 49.013 413.054 50.345 A 23.85 23.85 0 0 0 413 52 Q 413 53.294 413.127 54.398 A 13.936 13.936 0 0 0 413.4 56 L 419.4 56 A 12.311 12.311 0 0 0 419.507 55.496 Q 419.8 53.968 419.8 52 A 25.306 25.306 0 0 0 419.774 50.833 Q 419.698 49.194 419.4 48 A 12.311 12.311 0 0 0 419.507 47.496 Q 419.8 45.968 419.8 44 A 25.306 25.306 0 0 0 419.774 42.833 Q 419.698 41.194 419.4 40 A 12.311 12.311 0 0 0 419.507 39.496 Q 419.8 37.968 419.8 36 A 25.306 25.306 0 0 0 419.774 34.833 Q 419.698 33.194 419.4 32 A 12.311 12.311 0 0 0 419.507 31.496 Q 419.8 29.968 419.8 28 A 25.306 25.306 0 0 0 419.774 26.833 Q 419.698 25.194 419.4 24 L 416.4 24 A 12.311 12.311 0 0 0 416.507 23.496 Q 416.8 21.968 416.8 20 A 25.306 25.306 0 0 0 416.774 18.833 Q 416.698 17.194 416.4 16 L 408.4 16 Q 408.147 17.013 408.054 18.345 A 23.85 23.85 0 0 0 408 20 Q 408 21.294 408.127 22.398 A 13.936 13.936 0 0 0 408.4 24 A 11.741 11.741 0 0 1 408.644 25.313 Q 408.737 26.018 408.774 26.833 A 25.306 25.306 0 0 1 408.8 28 Q 408.8 29.968 408.507 31.496 A 12.311 12.311 0 0 1 408.4 32 A 11.741 11.741 0 0 1 408.644 33.313 Q 408.737 34.018 408.774 34.833 A 25.306 25.306 0 0 1 408.8 36 Q 408.8 37.968 408.507 39.496 A 12.311 12.311 0 0 1 408.4 40 A 11.741 11.741 0 0 1 408.644 41.313 Q 408.737 42.018 408.774 42.833 A 25.306 25.306 0 0 1 408.8 44 Q 408.8 45.968 408.507 47.496 A 12.311 12.311 0 0 1 408.4 48 A 11.741 11.741 0 0 1 408.644 49.313 Q 408.737 50.018 408.774 50.833 A 25.306 25.306 0 0 1 408.8 52 Q 408.8 53.968 408.507 55.496 A 12.311 12.311 0 0 1 408.4 56 L 400.4 56 A 13.936 13.936 0 0 1 400.127 54.398 Q 400 53.294 400 52 A 23.85 23.85 0 0 1 400.054 50.345 Q 400.147 49.013 400.4 48 A 13.936 13.936 0 0 1 400.127 46.398 Q 400 45.294 400 44 A 23.85 23.85 0 0 1 400.054 42.345 Q 400.147 41.013 400.4 40 A 13.936 13.936 0 0 1 400.127 38.398 Q 400 37.294 400 36 A 23.85 23.85 0 0 1 400.054 34.345 Q 400.147 33.013 400.4 32 A 13.936 13.936 0 0 1 400.127 30.398 Q 400 29.294 400 28 A 23.85 23.85 0 0 1 400.054 26.345 Q 400.147 25.013 400.4 24 A 13.936 13.936 0 0 1 400.127 22.398 Q 400 21.294 400 20 A 23.85 23.85 0 0 1 400.054 18.345 Q 400.147 17.013 400.4 16 L 405.4 16 A 11.741 11.741 0 0 1 405.644 17.313 Q 405.737 18.018 405.774 18.833 A 25.306 25.306 0 0 1 405.8 20 Q 405.8 21.968 405.507 23.496 A 12.311 12.311 0 0 1 405.4 24 Z M 536.4 48 L 548.4 48 A 11.741 11.741 0 0 1 548.644 49.313 Q 548.737 50.018 548.774 50.833 A 25.306 25.306 0 0 1 548.8 52 Q 548.8 53.968 548.507 55.496 A 12.311 12.311 0 0 1 548.4 56 L 532.4 56 A 13.936 13.936 0 0 1 532.127 54.398 Q 532 53.294 532 52 A 23.85 23.85 0 0 1 532.054 50.345 Q 532.147 49.013 532.4 48 L 528.4 48 A 13.936 13.936 0 0 1 528.127 46.398 Q 528 45.294 528 44 A 23.85 23.85 0 0 1 528.054 42.345 Q 528.147 41.013 528.4 40 A 13.936 13.936 0 0 1 528.127 38.398 Q 528 37.294 528 36 A 23.85 23.85 0 0 1 528.054 34.345 Q 528.147 33.013 528.4 32 A 13.936 13.936 0 0 1 528.127 30.398 Q 528 29.294 528 28 A 23.85 23.85 0 0 1 528.054 26.345 Q 528.147 25.013 528.4 24 L 520.4 24 A 13.936 13.936 0 0 1 520.127 22.398 Q 520 21.294 520 20 A 23.85 23.85 0 0 1 520.054 18.345 Q 520.147 17.013 520.4 16 L 528.4 16 A 13.936 13.936 0 0 1 528.127 14.398 Q 528 13.294 528 12 A 23.85 23.85 0 0 1 528.054 10.345 Q 528.147 9.013 528.4 8 A 13.936 13.936 0 0 1 528.127 6.398 Q 528 5.294 528 4 A 23.85 23.85 0 0 1 528.054 2.345 Q 528.147 1.013 528.4 0 L 536.4 0 Q 536.698 1.194 536.774 2.833 A 25.306 25.306 0 0 1 536.8 4 Q 536.8 5.968 536.507 7.496 A 12.311 12.311 0 0 1 536.4 8 Q 536.698 9.194 536.774 10.833 A 25.306 25.306 0 0 1 536.8 12 Q 536.8 13.968 536.507 15.496 A 12.311 12.311 0 0 1 536.4 16 L 548.4 16 A 11.741 11.741 0 0 1 548.644 17.313 Q 548.737 18.018 548.774 18.833 A 25.306 25.306 0 0 1 548.8 20 Q 548.8 21.968 548.507 23.496 A 12.311 12.311 0 0 1 548.4 24 L 536.4 24 Q 536.698 25.194 536.774 26.833 A 25.306 25.306 0 0 1 536.8 28 Q 536.8 29.968 536.507 31.496 A 12.311 12.311 0 0 1 536.4 32 Q 536.698 33.194 536.774 34.833 A 25.306 25.306 0 0 1 536.8 36 Q 536.8 37.968 536.507 39.496 A 12.311 12.311 0 0 1 536.4 40 Q 536.698 41.194 536.774 42.833 A 25.306 25.306 0 0 1 536.8 44 Q 536.8 45.968 536.507 47.496 A 12.311 12.311 0 0 1 536.4 48 Z M 392.4 40 L 371.4 40 A 11.741 11.741 0 0 1 371.644 41.313 Q 371.737 42.018 371.774 42.833 A 25.306 25.306 0 0 1 371.8 44 Q 371.8 45.968 371.507 47.496 A 12.311 12.311 0 0 1 371.4 48 L 388.4 48 A 11.741 11.741 0 0 1 388.644 49.313 Q 388.737 50.018 388.774 50.833 A 25.306 25.306 0 0 1 388.8 52 Q 388.8 53.968 388.507 55.496 A 12.311 12.311 0 0 1 388.4 56 L 368.4 56 A 13.936 13.936 0 0 1 368.127 54.398 Q 368 53.294 368 52 A 23.85 23.85 0 0 1 368.054 50.345 Q 368.147 49.013 368.4 48 L 363.4 48 A 13.936 13.936 0 0 1 363.127 46.398 Q 363 45.294 363 44 A 23.85 23.85 0 0 1 363.054 42.345 Q 363.147 41.013 363.4 40 L 360.4 40 A 13.936 13.936 0 0 1 360.127 38.398 Q 360 37.294 360 36 A 23.85 23.85 0 0 1 360.054 34.345 Q 360.147 33.013 360.4 32 L 363.4 32 A 13.936 13.936 0 0 1 363.127 30.398 Q 363 29.294 363 28 A 23.85 23.85 0 0 1 363.054 26.345 Q 363.147 25.013 363.4 24 L 368.4 24 A 13.936 13.936 0 0 1 368.127 22.398 Q 368 21.294 368 20 A 23.85 23.85 0 0 1 368.054 18.345 Q 368.147 17.013 368.4 16 L 388.4 16 A 11.741 11.741 0 0 1 388.644 17.313 Q 388.737 18.018 388.774 18.833 A 25.306 25.306 0 0 1 388.8 20 Q 388.8 21.968 388.507 23.496 A 12.311 12.311 0 0 1 388.4 24 L 392.4 24 Q 392.698 25.194 392.774 26.833 A 25.306 25.306 0 0 1 392.8 28 Q 392.8 29.968 392.507 31.496 A 12.311 12.311 0 0 1 392.4 32 Q 392.698 33.194 392.774 34.833 A 25.306 25.306 0 0 1 392.8 36 Q 392.8 37.968 392.507 39.496 A 12.311 12.311 0 0 1 392.4 40 Z M 472.4 40 L 451.4 40 A 11.741 11.741 0 0 1 451.644 41.313 Q 451.737 42.018 451.774 42.833 A 25.306 25.306 0 0 1 451.8 44 Q 451.8 45.968 451.507 47.496 A 12.311 12.311 0 0 1 451.4 48 L 468.4 48 A 11.741 11.741 0 0 1 468.644 49.313 Q 468.737 50.018 468.774 50.833 A 25.306 25.306 0 0 1 468.8 52 Q 468.8 53.968 468.507 55.496 A 12.311 12.311 0 0 1 468.4 56 L 448.4 56 A 13.936 13.936 0 0 1 448.127 54.398 Q 448 53.294 448 52 A 23.85 23.85 0 0 1 448.054 50.345 Q 448.147 49.013 448.4 48 L 443.4 48 A 13.936 13.936 0 0 1 443.127 46.398 Q 443 45.294 443 44 A 23.85 23.85 0 0 1 443.054 42.345 Q 443.147 41.013 443.4 40 L 440.4 40 A 13.936 13.936 0 0 1 440.127 38.398 Q 440 37.294 440 36 A 23.85 23.85 0 0 1 440.054 34.345 Q 440.147 33.013 440.4 32 L 443.4 32 A 13.936 13.936 0 0 1 443.127 30.398 Q 443 29.294 443 28 A 23.85 23.85 0 0 1 443.054 26.345 Q 443.147 25.013 443.4 24 L 448.4 24 A 13.936 13.936 0 0 1 448.127 22.398 Q 448 21.294 448 20 A 23.85 23.85 0 0 1 448.054 18.345 Q 448.147 17.013 448.4 16 L 468.4 16 A 11.741 11.741 0 0 1 468.644 17.313 Q 468.737 18.018 468.774 18.833 A 25.306 25.306 0 0 1 468.8 20 Q 468.8 21.968 468.507 23.496 A 12.311 12.311 0 0 1 468.4 24 L 472.4 24 Q 472.698 25.194 472.774 26.833 A 25.306 25.306 0 0 1 472.8 28 Q 472.8 29.968 472.507 31.496 A 12.311 12.311 0 0 1 472.4 32 Q 472.698 33.194 472.774 34.833 A 25.306 25.306 0 0 1 472.8 36 Q 472.8 37.968 472.507 39.496 A 12.311 12.311 0 0 1 472.4 40 Z M 299.4 24 L 289.4 24 A 11.741 11.741 0 0 1 289.644 25.313 Q 289.737 26.018 289.774 26.833 A 25.306 25.306 0 0 1 289.8 28 Q 289.8 29.968 289.507 31.496 A 12.311 12.311 0 0 1 289.4 32 L 286.4 32 A 11.741 11.741 0 0 1 286.644 33.313 Q 286.737 34.018 286.774 34.833 A 25.306 25.306 0 0 1 286.8 36 Q 286.8 37.968 286.507 39.496 A 12.311 12.311 0 0 1 286.4 40 L 289.4 40 A 11.741 11.741 0 0 1 289.644 41.313 Q 289.737 42.018 289.774 42.833 A 25.306 25.306 0 0 1 289.8 44 Q 289.8 45.968 289.507 47.496 A 12.311 12.311 0 0 1 289.4 48 L 299.4 48 Q 299.698 49.194 299.774 50.833 A 25.306 25.306 0 0 1 299.8 52 Q 299.8 53.968 299.507 55.496 A 12.311 12.311 0 0 1 299.4 56 L 288.4 56 A 13.936 13.936 0 0 1 288.127 54.398 Q 288 53.294 288 52 A 23.85 23.85 0 0 1 288.054 50.345 Q 288.147 49.013 288.4 48 L 283.4 48 A 13.936 13.936 0 0 1 283.127 46.398 Q 283 45.294 283 44 A 23.85 23.85 0 0 1 283.054 42.345 Q 283.147 41.013 283.4 40 L 280.4 40 A 13.936 13.936 0 0 1 280.127 38.398 Q 280 37.294 280 36 A 23.85 23.85 0 0 1 280.054 34.345 Q 280.147 33.013 280.4 32 L 283.4 32 A 13.936 13.936 0 0 1 283.127 30.398 Q 283 29.294 283 28 A 23.85 23.85 0 0 1 283.054 26.345 Q 283.147 25.013 283.4 24 L 288.4 24 A 13.936 13.936 0 0 1 288.127 22.398 Q 288 21.294 288 20 A 23.85 23.85 0 0 1 288.054 18.345 Q 288.147 17.013 288.4 16 L 299.4 16 Q 299.698 17.194 299.774 18.833 A 25.306 25.306 0 0 1 299.8 20 Q 299.8 21.968 299.507 23.496 A 12.311 12.311 0 0 1 299.4 24 Z M 312.4 56 L 304.4 56 A 13.936 13.936 0 0 1 304.127 54.398 Q 304 53.294 304 52 A 23.85 23.85 0 0 1 304.054 50.345 Q 304.147 49.013 304.4 48 L 301.4 48 A 13.936 13.936 0 0 1 301.127 46.398 Q 301 45.294 301 44 A 23.85 23.85 0 0 1 301.054 42.345 Q 301.147 41.013 301.4 40 L 304.4 40 A 13.936 13.936 0 0 1 304.127 38.398 Q 304 37.294 304 36 A 23.85 23.85 0 0 1 304.054 34.345 Q 304.147 33.013 304.4 32 L 301.4 32 A 13.936 13.936 0 0 1 301.127 30.398 Q 301 29.294 301 28 A 23.85 23.85 0 0 1 301.054 26.345 Q 301.147 25.013 301.4 24 L 304.4 24 A 13.936 13.936 0 0 1 304.127 22.398 Q 304 21.294 304 20 A 23.85 23.85 0 0 1 304.054 18.345 Q 304.147 17.013 304.4 16 A 13.936 13.936 0 0 1 304.127 14.398 Q 304 13.294 304 12 A 23.85 23.85 0 0 1 304.054 10.345 Q 304.147 9.013 304.4 8 A 13.936 13.936 0 0 1 304.127 6.398 Q 304 5.294 304 4 A 23.85 23.85 0 0 1 304.054 2.345 Q 304.147 1.013 304.4 0 L 312.4 0 Q 312.698 1.194 312.774 2.833 A 25.306 25.306 0 0 1 312.8 4 Q 312.8 5.968 312.507 7.496 A 12.311 12.311 0 0 1 312.4 8 Q 312.698 9.194 312.774 10.833 A 25.306 25.306 0 0 1 312.8 12 Q 312.8 13.968 312.507 15.496 A 12.311 12.311 0 0 1 312.4 16 Q 312.698 17.194 312.774 18.833 A 25.306 25.306 0 0 1 312.8 20 Q 312.8 21.968 312.507 23.496 A 12.311 12.311 0 0 1 312.4 24 Q 312.698 25.194 312.774 26.833 A 25.306 25.306 0 0 1 312.8 28 Q 312.8 29.968 312.507 31.496 A 12.311 12.311 0 0 1 312.4 32 Q 312.698 33.194 312.774 34.833 A 25.306 25.306 0 0 1 312.8 36 Q 312.8 37.968 312.507 39.496 A 12.311 12.311 0 0 1 312.4 40 Q 312.698 41.194 312.774 42.833 A 25.306 25.306 0 0 1 312.8 44 Q 312.8 45.968 312.507 47.496 A 12.311 12.311 0 0 1 312.4 48 Q 312.698 49.194 312.774 50.833 A 25.306 25.306 0 0 1 312.8 52 Q 312.8 53.968 312.507 55.496 A 12.311 12.311 0 0 1 312.4 56 Z M 419.4 24 L 424.4 24 Q 424.147 25.013 424.054 26.345 A 23.85 23.85 0 0 0 424 28 Q 424 29.294 424.127 30.398 A 13.936 13.936 0 0 0 424.4 32 Q 424.147 33.013 424.054 34.345 A 23.85 23.85 0 0 0 424 36 Q 424 37.294 424.127 38.398 A 13.936 13.936 0 0 0 424.4 40 Q 424.147 41.013 424.054 42.345 A 23.85 23.85 0 0 0 424 44 Q 424 45.294 424.127 46.398 A 13.936 13.936 0 0 0 424.4 48 Q 424.147 49.013 424.054 50.345 A 23.85 23.85 0 0 0 424 52 Q 424 53.294 424.127 54.398 A 13.936 13.936 0 0 0 424.4 56 L 432.4 56 A 12.311 12.311 0 0 0 432.507 55.496 Q 432.8 53.968 432.8 52 A 25.306 25.306 0 0 0 432.774 50.833 Q 432.698 49.194 432.4 48 A 12.311 12.311 0 0 0 432.507 47.496 Q 432.8 45.968 432.8 44 A 25.306 25.306 0 0 0 432.774 42.833 Q 432.698 41.194 432.4 40 A 12.311 12.311 0 0 0 432.507 39.496 Q 432.8 37.968 432.8 36 A 25.306 25.306 0 0 0 432.774 34.833 Q 432.698 33.194 432.4 32 A 12.311 12.311 0 0 0 432.507 31.496 Q 432.8 29.968 432.8 28 A 25.306 25.306 0 0 0 432.774 26.833 Q 432.698 25.194 432.4 24 L 428.4 24 A 12.311 12.311 0 0 0 428.507 23.496 Q 428.8 21.968 428.8 20 A 25.306 25.306 0 0 0 428.774 18.833 Q 428.737 18.018 428.644 17.313 A 11.741 11.741 0 0 0 428.4 16 L 419.4 16 Q 419.147 17.013 419.054 18.345 A 23.85 23.85 0 0 0 419 20 Q 419 21.294 419.127 22.398 A 13.936 13.936 0 0 0 419.4 24 Z M 126.4 24 L 146.4 24 Q 146.698 25.194 146.774 26.833 A 25.306 25.306 0 0 1 146.8 28 Q 146.8 29.968 146.507 31.496 A 12.311 12.311 0 0 1 146.4 32 L 126.4 32 A 13.936 13.936 0 0 1 126.127 30.398 Q 126 29.294 126 28 A 23.85 23.85 0 0 1 126.054 26.345 Q 126.147 25.013 126.4 24 Z M 384.4 24 L 371.4 24 A 11.741 11.741 0 0 1 371.644 25.313 Q 371.737 26.018 371.774 26.833 A 25.306 25.306 0 0 1 371.8 28 Q 371.8 29.968 371.507 31.496 A 12.311 12.311 0 0 1 371.4 32 L 384.4 32 A 13.936 13.936 0 0 1 384.127 30.398 Q 384 29.294 384 28 A 23.85 23.85 0 0 1 384.054 26.345 Q 384.147 25.013 384.4 24 Z M 464.4 24 L 451.4 24 A 11.741 11.741 0 0 1 451.644 25.313 Q 451.737 26.018 451.774 26.833 A 25.306 25.306 0 0 1 451.8 28 Q 451.8 29.968 451.507 31.496 A 12.311 12.311 0 0 1 451.4 32 L 464.4 32 A 13.936 13.936 0 0 1 464.127 30.398 Q 464 29.294 464 28 A 23.85 23.85 0 0 1 464.054 26.345 Q 464.147 25.013 464.4 24 Z M 340.4 56 A 12.311 12.311 0 0 0 340.507 55.496 Q 340.8 53.968 340.8 52 A 25.306 25.306 0 0 0 340.774 50.833 Q 340.698 49.194 340.4 48 M 419.4 24 Q 419.698 25.194 419.774 26.833" vector-effect="non-scaling-stroke"/></g></svg>