<svg width="592.8" height="56" viewBox="0 0 592.8 56" xmlns="http://www.w3.org/2000/svg"><g id="svgGroup" stroke-linecap="round" fill-rule="evenodd" font-size="9pt" stroke="#000" stroke-width="0.25mm" fill="#000" style="stroke:#000;stroke-width:0.25mm;fill:#000"><path d="M 432.4 32 L 429.4 32 A 11.741 11.741 0 0 1 429.644 33.313 Q 429.737 34.018 429.774 34.833 A 25.306 25.306 0 0 1 429.8 36 Q 429.8 37.968 429.507 39.496 A 12.311 12.311 0 0 1 429.4 40 A 11.741 11.741 0 0 1 429.644 41.313 Q 429.737 42.018 429.774 42.833 A 25.306 25.306 0 0 1 429.8 44 Q 429.8 45.968 429.507 47.496 A 12.311 12.311 0 0 1 429.4 48 L 427.4 48 Q 427.698 49.194 427.774 50.833 A 25.306 25.306 0 0 1 427.8 52 Q 427.8 53.968 427.507 55.496 A 12.311 12.311 0 0 1 427.4 56 L 421.4 56 A 13.936 13.936 0 0 1 421.127 54.398 Q 421 53.294 421 52 A 23.85 23.85 0 0 1 421.054 50.345 Q 421.147 49.013 421.4 48 L 419.4 48 A 13.936 13.936 0 0 1 419.127 46.398 Q 419 45.294 419 44 A 23.85 23.85 0 0 1 419.054 42.345 Q 419.147 41.013 419.4 40 L 413.4 40 A 11.741 11.741 0 0 1 413.644 41.313 Q 413.737 42.018 413.774 42.833 A 25.306 25.306 0 0 1 413.8 44 Q 413.8 45.968 413.507 47.496 A 12.311 12.311 0 0 1 413.4 48 L 411.4 48 A 11.741 11.741 0 0 1 411.644 49.313 Q 411.737 50.018 411.774 50.833 A 25.306 25.306 0 0 1 411.8 52 Q 411.8 53.968 411.507 55.496 A 12.311 12.311 0 0 1 411.4 56 L 405.4 56 A 13.936 13.936 0 0 1 405.127 54.398 Q 405 53.294 405 52 A 23.85 23.85 0 0 1 405.054 50.345 Q 405.147 49.013 405.4 48 L 403.4 48 A 13.936 13.936 0 0 1 403.127 46.398 Q 403 45.294 403 44 A 23.85 23.85 0 0 1 403.054 42.345 Q 403.147 41.013 403.4 40 A 13.936 13.936 0 0 1 403.127 38.398 Q 403 37.294 403 36 A 23.85 23.85 0 0 1 403.054 34.345 Q 403.147 33.013 403.4 32 L 400.4 32 A 13.936 13.936 0 0 1 400.127 30.398 Q 400 29.294 400 28 A 23.85 23.85 0 0 1 400.054 26.345 Q 400.147 25.013 400.4 24 A 13.936 13.936 0 0 1 400.127 22.398 Q 400 21.294 400 20 A 23.85 23.85 0 0 1 400.054 18.345 Q 400.147 17.013 400.4 16 A 13.936 13.936 0 0 1 400.127 14.398 Q 400 13.294 400 12 A 23.85 23.85 0 0 1 400.054 10.345 Q 400.147 9.013 400.4 8 A 13.936 13.936 0 0 1 400.127 6.398 Q 400 5.294 400 4 A 23.85 23.85 0 0 1 400.054 2.345 Q 400.147 1.013 400.4 0 L 408.4 0 A 11.741 11.741 0 0 1 408.644 1.313 Q 408.737 2.018 408.774 2.833 A 25.306 25.306 0 0 1 408.8 4 Q 408.8 5.968 408.507 7.496 A 12.311 12.311 0 0 1 408.4 8 A 11.741 11.741 0 0 1 408.644 9.313 Q 408.737 10.018 408.774 10.833 A 25.306 25.306 0 0 1 408.8 12 Q 408.8 13.968 408.507 15.496 A 12.311 12.311 0 0 1 408.4 16 A 11.741 11.741 0 0 1 408.644 17.313 Q 408.737 18.018 408.774 18.833 A 25.306 25.306 0 0 1 408.8 20 Q 408.8 21.968 408.507 23.496 A 12.311 12.311 0 0 1 408.4 24 A 11.741 11.741 0 0 1 408.644 25.313 Q 408.737 26.018 408.774 26.833 A 25.306 25.306 0 0 1 408.8 28 Q 408.8 29.968 408.507 31.496 A 12.311 12.311 0 0 1 408.4 32 A 11.741 11.741 0 0 1 408.644 33.313 Q 408.737 34.018 408.774 34.833 A 25.306 25.306 0 0 1 408.8 36 Q 408.8 37.968 408.507 39.496 A 12.311 12.311 0 0 1 408.4 40 L 411.4 40 A 13.936 13.936 0 0 1 411.127 38.398 Q 411 37.294 411 36 A 23.85 23.85 0 0 1 411.054 34.345 Q 411.147 33.013 411.4 32 L 413.4 32 A 13.936 13.936 0 0 1 413.127 30.398 Q 413 29.294 413 28 A 23.85 23.85 0 0 1 413.054 26.345 Q 413.147 25.013 413.4 24 A 13.936 13.936 0 0 1 413.127 22.398 Q 413 21.294 413 20 A 23.85 23.85 0 0 1 413.054 18.345 Q 413.147 17.013 413.4 16 A 13.936 13.936 0 0 1 413.127 14.398 Q 413 13.294 413 12 A 23.85 23.85 0 0 1 413.054 10.345 Q 413.147 9.013 413.4 8 A 13.936 13.936 0 0 1 413.127 6.398 Q 413 5.294 413 4 A 23.85 23.85 0 0 1 413.054 2.345 Q 413.147 1.013 413.4 0 L 419.4 0 Q 419.698 1.194 419.774 2.833 A 25.306 25.306 0 0 1 419.8 4 Q 419.8 5.968 419.507 7.496 A 12.311 12.311 0 0 1 419.4 8 Q 419.698 9.194 419.774 10.833 A 25.306 25.306 0 0 1 419.8 12 Q 419.8 13.968 419.507 15.496 A 12.311 12.311 0 0 1 419.4 16 Q 419.698 17.194 419.774 18.833 A 25.306 25.306 0 0 1 419.8 20 Q 419.8 21.968 419.507 23.496 A 12.311 12.311 0 0 1 419.4 24 Q 419.698 25.194 419.774 26.833 A 25.306 25.306 0 0 1 419.8 28 Q 419.8 29.968 419.507 31.496 A 12.311 12.311 0 0 1 419.4 32 L 421.4 32 Q 421.698 33.194 421.774 34.833 A 25.306 25.306 0 0 1 421.8 36 Q 421.8 37.968 421.507 39.496 A 12.311 12.311 0 0 1 421.4 40 L 424.4 40 A 13.936 13.936 0 0 1 424.127 38.398 Q 424 37.294 424 36 A 23.85 23.85 0 0 1 424.054 34.345 Q 424.147 33.013 424.4 32 A 13.936 13.936 0 0 1 424.127 30.398 Q 424 29.294 424 28 A 23.85 23.85 0 0 1 424.054 26.345 Q 424.147 25.013 424.4 24 A 13.936 13.936 0 0 1 424.127 22.398 Q 424 21.294 424 20 A 23.85 23.85 0 0 1 424.054 18.345 Q 424.147 17.013 424.4 16 A 13.936 13.936 0 0 1 424.127 14.398 Q 424 13.294 424 12 A 23.85 23.85 0 0 1 424.054 10.345 Q 424.147 9.013 424.4 8 A 13.936 13.936 0 0 1 424.127 6.398 Q 424 5.294 424 4 A 23.85 23.85 0 0 1 424.054 2.345 Q 424.147 1.013 424.4 0 L 432.4 0 Q 432.698 1.194 432.774 2.833 A 25.306 25.306 0 0 1 432.8 4 Q 432.8 5.968 432.507 7.496 A 12.311 12.311 0 0 1 432.4 8 Q 432.698 9.194 432.774 10.833 A 25.306 25.306 0 0 1 432.8 12 Q 432.8 13.968 432.507 15.496 A 12.311 12.311 0 0 1 432.4 16 Q 432.698 17.194 432.774 18.833 A 25.306 25.306 0 0 1 432.8 20 Q 432.8 21.968 432.507 23.496 A 12.311 12.311 0 0 1 432.4 24 Q 432.698 25.194 432.774 26.833 A 25.306 25.306 0 0 1 432.8 28 Q 432.8 29.968 432.507 31.496 A 12.311 12.311 0 0 1 432.4 32 Z M 29.4 48 L 32.4 48 Q 32.698 49.194 32.774 50.833 A 25.306 25.306 0 0 1 32.8 52 Q 32.8 53.968 32.507 55.496 A 12.311 12.311 0 0 1 32.4 56 L 24.4 56 A 13.936 13.936 0 0 1 24.127 54.398 Q 24 53.294 24 52 A 23.85 23.85 0 0 1 24.054 50.345 Q 24.147 49.013 24.4 48 L 21.4 48 A 13.936 13.936 0 0 1 21.127 46.398 Q 21 45.294 21 44 A 23.85 23.85 0 0 1 21.054 42.345 Q 21.147 41.013 21.4 40 L 19.4 40 A 13.936 13.936 0 0 1 19.127 38.398 Q 19 37.294 19 36 A 23.85 23.85 0 0 1 19.054 34.345 Q 19.147 33.013 19.4 32 L 13.4 32 A 11.741 11.741 0 0 1 13.644 33.313 Q 13.737 34.018 13.774 34.833 A 25.306 25.306 0 0 1 13.8 36 Q 13.8 37.968 13.507 39.496 A 12.311 12.311 0 0 1 13.4 40 L 11.4 40 A 11.741 11.741 0 0 1 11.644 41.313 Q 11.737 42.018 11.774 42.833 A 25.306 25.306 0 0 1 11.8 44 Q 11.8 45.968 11.507 47.496 A 12.311 12.311 0 0 1 11.4 48 L 8.4 48 A 11.741 11.741 0 0 1 8.644 49.313 Q 8.737 50.018 8.774 50.833 A 25.306 25.306 0 0 1 8.8 52 Q 8.8 53.968 8.507 55.496 A 12.311 12.311 0 0 1 8.4 56 L 0.4 56 A 13.936 13.936 0 0 1 0.127 54.398 Q 0 53.294 0 52 A 23.85 23.85 0 0 1 0.054 50.345 Q 0.147 49.013 0.4 48 L 3.4 48 A 13.936 13.936 0 0 1 3.127 46.398 Q 3 45.294 3 44 A 23.85 23.85 0 0 1 3.054 42.345 Q 3.147 41.013 3.4 40 L 7.4 40 A 13.936 13.936 0 0 1 7.127 38.398 Q 7 37.294 7 36 A 23.85 23.85 0 0 1 7.054 34.345 Q 7.147 33.013 7.4 32 L 10.4 32 A 13.936 13.936 0 0 1 10.127 30.398 Q 10 29.294 10 28 A 23.85 23.85 0 0 1 10.054 26.345 Q 10.147 25.013 10.4 24 L 7.4 24 A 13.936 13.936 0 0 1 7.127 22.398 Q 7 21.294 7 20 A 23.85 23.85 0 0 1 7.054 18.345 Q 7.147 17.013 7.4 16 L 3.4 16 A 13.936 13.936 0 0 1 3.127 14.398 Q 3 13.294 3 12 A 23.85 23.85 0 0 1 3.054 10.345 Q 3.147 9.013 3.4 8 L 0.4 8 A 13.936 13.936 0 0 1 0.127 6.398 Q 0 5.294 0 4 A 23.85 23.85 0 0 1 0.054 2.345 Q 0.147 1.013 0.4 0 L 8.4 0 A 11.741 11.741 0 0 1 8.644 1.313 Q 8.737 2.018 8.774 2.833 A 25.306 25.306 0 0 1 8.8 4 Q 8.8 5.968 8.507 7.496 A 12.311 12.311 0 0 1 8.4 8 L 11.4 8 A 11.741 11.741 0 0 1 11.644 9.313 Q 11.737 10.018 11.774 10.833 A 25.306 25.306 0 0 1 11.8 12 Q 11.8 13.968 11.507 15.496 A 12.311 12.311 0 0 1 11.4 16 L 13.4 16 A 11.741 11.741 0 0 1 13.644 17.313 Q 13.737 18.018 13.774 18.833 A 25.306 25.306 0 0 1 13.8 20 Q 13.8 21.968 13.507 23.496 A 12.311 12.311 0 0 1 13.4 24 L 19.4 24 A 13.936 13.936 0 0 1 19.127 22.398 Q 19 21.294 19 20 A 23.85 23.85 0 0 1 19.054 18.345 Q 19.147 17.013 19.4 16 L 21.4 16 A 13.936 13.936 0 0 1 21.127 14.398 Q 21 13.294 21 12 A 23.85 23.85 0 0 1 21.054 10.345 Q 21.147 9.013 21.4 8 L 24.4 8 A 13.936 13.936 0 0 1 24.127 6.398 Q 24 5.294 24 4 A 23.85 23.85 0 0 1 24.054 2.345 Q 24.147 1.013 24.4 0 L 32.4 0 Q 32.698 1.194 32.774 2.833 A 25.306 25.306 0 0 1 32.8 4 Q 32.8 5.968 32.507 7.496 A 12.311 12.311 0 0 1 32.4 8 L 29.4 8 A 11.741 11.741 0 0 1 29.644 9.313 Q 29.737 10.018 29.774 10.833 A 25.306 25.306 0 0 1 29.8 12 Q 29.8 13.968 29.507 15.496 A 12.311 12.311 0 0 1 29.4 16 L 25.4 16 Q 25.698 17.194 25.774 18.833 A 25.306 25.306 0 0 1 25.8 20 Q 25.8 21.968 25.507 23.496 A 12.311 12.311 0 0 1 25.4 24 L 22.4 24 Q 22.698 25.194 22.774 26.833 A 25.306 25.306 0 0 1 22.8 28 Q 22.8 29.968 22.507 31.496 A 12.311 12.311 0 0 1 22.4 32 L 25.4 32 Q 25.698 33.194 25.774 34.833 A 25.306 25.306 0 0 1 25.8 36 Q 25.8 37.968 25.507 39.496 A 12.311 12.311 0 0 1 25.4 40 L 29.4 40 A 11.741 11.741 0 0 1 29.644 41.313 Q 29.737 42.018 29.774 42.833 A 25.306 25.306 0 0 1 29.8 44 Q 29.8 45.968 29.507 47.496 A 12.311 12.311 0 0 1 29.4 48 Z M 69.4 48 L 72.4 48 Q 72.698 49.194 72.774 50.833 A 25.306 25.306 0 0 1 72.8 52 Q 72.8 53.968 72.507 55.496 A 12.311 12.311 0 0 1 72.4 56 L 64.4 56 A 13.936 13.936 0 0 1 64.127 54.398 Q 64 53.294 64 52 A 23.85 23.85 0 0 1 64.054 50.345 Q 64.147 49.013 64.4 48 L 61.4 48 A 13.936 13.936 0 0 1 61.127 46.398 Q 61 45.294 61 44 A 23.85 23.85 0 0 1 61.054 42.345 Q 61.147 41.013 61.4 40 L 59.4 40 A 13.936 13.936 0 0 1 59.127 38.398 Q 59 37.294 59 36 A 23.85 23.85 0 0 1 59.054 34.345 Q 59.147 33.013 59.4 32 L 53.4 32 A 11.741 11.741 0 0 1 53.644 33.313 Q 53.737 34.018 53.774 34.833 A 25.306 25.306 0 0 1 53.8 36 Q 53.8 37.968 53.507 39.496 A 12.311 12.311 0 0 1 53.4 40 L 51.4 40 A 11.741 11.741 0 0 1 51.644 41.313 Q 51.737 42.018 51.774 42.833 A 25.306 25.306 0 0 1 51.8 44 Q 51.8 45.968 51.507 47.496 A 12.311 12.311 0 0 1 51.4 48 L 48.4 48 A 11.741 11.741 0 0 1 48.644 49.313 Q 48.737 50.018 48.774 50.833 A 25.306 25.306 0 0 1 48.8 52 Q 48.8 53.968 48.507 55.496 A 12.311 12.311 0 0 1 48.4 56 L 40.4 56 A 13.936 13.936 0 0 1 40.127 54.398 Q 40 53.294 40 52 A 23.85 23.85 0 0 1 40.054 50.345 Q 40.147 49.013 40.4 48 L 43.4 48 A 13.936 13.936 0 0 1 43.127 46.398 Q 43 45.294 43 44 A 23.85 23.85 0 0 1 43.054 42.345 Q 43.147 41.013 43.4 40 L 47.4 40 A 13.936 13.936 0 0 1 47.127 38.398 Q 47 37.294 47 36 A 23.85 23.85 0 0 1 47.054 34.345 Q 47.147 33.013 47.4 32 L 50.4 32 A 13.936 13.936 0 0 1 50.127 30.398 Q 50 29.294 50 28 A 23.85 23.85 0 0 1 50.054 26.345 Q 50.147 25.013 50.4 24 L 47.4 24 A 13.936 13.936 0 0 1 47.127 22.398 Q 47 21.294 47 20 A 23.85 23.85 0 0 1 47.054 18.345 Q 47.147 17.013 47.4 16 L 43.4 16 A 13.936 13.936 0 0 1 43.127 14.398 Q 43 13.294 43 12 A 23.85 23.85 0 0 1 43.054 10.345 Q 43.147 9.013 43.4 8 L 40.4 8 A 13.936 13.936 0 0 1 40.127 6.398 Q 40 5.294 40 4 A 23.85 23.85 0 0 1 40.054 2.345 Q 40.147 1.013 40.4 0 L 48.4 0 A 11.741 11.741 0 0 1 48.644 1.313 Q 48.737 2.018 48.774 2.833 A 25.306 25.306 0 0 1 48.8 4 Q 48.8 5.968 48.507 7.496 A 12.311 12.311 0 0 1 48.4 8 L 51.4 8 A 11.741 11.741 0 0 1 51.644 9.313 Q 51.737 10.018 51.774 10.833 A 25.306 25.306 0 0 1 51.8 12 Q 51.8 13.968 51.507 15.496 A 12.311 12.311 0 0 1 51.4 16 L 53.4 16 A 11.741 11.741 0 0 1 53.644 17.313 Q 53.737 18.018 53.774 18.833 A 25.306 25.306 0 0 1 53.8 20 Q 53.8 21.968 53.507 23.496 A 12.311 12.311 0 0 1 53.4 24 L 59.4 24 A 13.936 13.936 0 0 1 59.127 22.398 Q 59 21.294 59 20 A 23.85 23.85 0 0 1 59.054 18.345 Q 59.147 17.013 59.4 16 L 61.4 16 A 13.936 13.936 0 0 1 61.127 14.398 Q 61 13.294 61 12 A 23.85 23.85 0 0 1 61.054 10.345 Q 61.147 9.013 61.4 8 L 64.4 8 A 13.936 13.936 0 0 1 64.127 6.398 Q 64 5.294 64 4 A 23.85 23.85 0 0 1 64.054 2.345 Q 64.147 1.013 64.4 0 L 72.4 0 Q 72.698 1.194 72.774 2.833 A 25.306 25.306 0 0 1 72.8 4 Q 72.8 5.968 72.507 7.496 A 12.311 12.311 0 0 1 72.4 8 L 69.4 8 A 11.741 11.741 0 0 1 69.644 9.313 Q 69.737 10.018 69.774 10.833 A 25.306 25.306 0 0 1 69.8 12 Q 69.8 13.968 69.507 15.496 A 12.311 12.311 0 0 1 69.4 16 L 65.4 16 Q 65.698 17.194 65.774 18.833 A 25.306 25.306 0 0 1 65.8 20 Q 65.8 21.968 65.507 23.496 A 12.311 12.311 0 0 1 65.4 24 L 62.4 24 Q 62.698 25.194 62.774 26.833 A 25.306 25.306 0 0 1 62.8 28 Q 62.8 29.968 62.507 31.496 A 12.311 12.311 0 0 1 62.4 32 L 65.4 32 Q 65.698 33.194 65.774 34.833 A 25.306 25.306 0 0 1 65.8 36 Q 65.8 37.968 65.507 39.496 A 12.311 12.311 0 0 1 65.4 40 L 69.4 40 A 11.741 11.741 0 0 1 69.644 41.313 Q 69.737 42.018 69.774 42.833 A 25.306 25.306 0 0 1 69.8 44 Q 69.8 45.968 69.507 47.496 A 12.311 12.311 0 0 1 69.4 48 Z M 288.4 24 L 291.4 24 L 304.4 24 Q 304.147 25.013 304.054 26.345 A 23.85 23.85 0 0 0 304 28 Q 304 29.294 304.127 30.398 A 13.936 13.936 0 0 0 304.4 32 Q 304.147 33.013 304.054 34.345 A 23.85 23.85 0 0 0 304 36 Q 304 37.294 304.127 38.398 A 13.936 13.936 0 0 0 304.4 40 Q 304.147 41.013 304.054 42.345 A 23.85 23.85 0 0 0 304 44 Q 304 45.294 304.127 46.398 A 13.936 13.936 0 0 0 304.4 48 Q 304.147 49.013 304.054 50.345 A 23.85 23.85 0 0 0 304 52 Q 304 53.294 304.127 54.398 A 13.936 13.936 0 0 0 304.4 56 L 312.4 56 A 12.311 12.311 0 0 0 312.507 55.496 Q 312.8 53.968 312.8 52 A 25.306 25.306 0 0 0 312.774 50.833 Q 312.698 49.194 312.4 48 A 12.311 12.311 0 0 0 312.507 47.496 Q 312.8 45.968 312.8 44 A 25.306 25.306 0 0 0 312.774 42.833 Q 312.698 41.194 312.4 40 A 12.311 12.311 0 0 0 312.507 39.496 Q 312.8 37.968 312.8 36 A 25.306 25.306 0 0 0 312.774 34.833 Q 312.698 33.194 312.4 32 A 12.311 12.311 0 0 0 312.507 31.496 Q 312.8 29.968 312.8 28 A 25.306 25.306 0 0 0 312.774 26.833 Q 312.698 25.194 312.4 24 L 307.4 24 A 12.311 12.311 0 0 0 307.507 23.496 Q 307.8 21.968 307.8 20 A 25.306 25.306 0 0 0 307.774 18.833 Q 307.698 17.194 307.4 16 L 291.4 16 Q 291.147 17.013 291.054 18.345 A 23.85 23.85 0 0 0 291 20 Q 291 21.294 291.127 22.398 A 13.936 13.936 0 0 0 291.4 24 A 11.741 11.741 0 0 1 291.644 25.313 Q 291.737 26.018 291.774 26.833 A 25.306 25.306 0 0 1 291.8 28 Q 291.8 29.968 291.507 31.496 A 12.311 12.311 0 0 1 291.4 32 L 288.4 32 A 11.741 11.741 0 0 1 288.644 33.313 Q 288.737 34.018 288.774 34.833 A 25.306 25.306 0 0 1 288.8 36 Q 288.8 37.968 288.507 39.496 A 12.311 12.311 0 0 1 288.4 40 A 11.741 11.741 0 0 1 288.644 41.313 Q 288.737 42.018 288.774 42.833 A 25.306 25.306 0 0 1 288.8 44 Q 288.8 45.968 288.507 47.496 A 12.311 12.311 0 0 1 288.4 48 A 11.741 11.741 0 0 1 288.644 49.313 Q 288.737 50.018 288.774 50.833 A 25.306 25.306 0 0 1 288.8 52 Q 288.8 53.968 288.507 55.496 A 12.311 12.311 0 0 1 288.4 56 L 280.4 56 A 13.936 13.936 0 0 1 280.127 54.398 Q 280 53.294 280 52 A 23.85 23.85 0 0 1 280.054 50.345 Q 280.147 49.013 280.4 48 A 13.936 13.936 0 0 1 280.127 46.398 Q 280 45.294 280 44 A 23.85 23.85 0 0 1 280.054 42.345 Q 280.147 41.013 280.4 40 A 13.936 13.936 0 0 1 280.127 38.398 Q 280 37.294 280 36 A 23.85 23.85 0 0 1 280.054 34.345 Q 280.147 33.013 280.4 32 A 13.936 13.936 0 0 1 280.127 30.398 Q 280 29.294 280 28 A 23.85 23.85 0 0 1 280.054 26.345 Q 280.147 25.013 280.4 24 A 13.936 13.936 0 0 1 280.127 22.398 Q 280 21.294 280 20 A 23.85 23.85 0 0 1 280.054 18.345 Q 280.147 17.013 280.4 16 A 13.936 13.936 0 0 1 280.127 14.398 Q 280 13.294 280 12 A 23.85 23.85 0 0 1 280.054 10.345 Q 280.147 9.013 280.4 8 A 13.936 13.936 0 0 1 280.127 6.398 Q 280 5.294 280 4 A 23.85 23.85 0 0 1 280.054 2.345 Q 280.147 1.013 280.4 0 L 288.4 0 A 11.741 11.741 0 0 1 288.644 1.313 Q 288.737 2.018 288.774 2.833 A 25.306 25.306 0 0 1 288.8 4 Q 288.8 5.968 288.507 7.496 A 12.311 12.311 0 0 1 288.4 8 A 11.741 11.741 0 0 1 288.644 9.313 Q 288.737 10.018 288.774 10.833 A 25.306 25.306 0 0 1 288.8 12 Q 288.8 13.968 288.507 15.496 A 12.311 12.311 0 0 1 288.4 16 A 11.741 11.741 0 0 1 288.644 17.313 Q 288.737 18.018 288.774 18.833 A 25.306 25.306 0 0 1 288.8 20 Q 288.8 21.968 288.507 23.496 A 12.311 12.311 0 0 1 288.4 24 Z M 512.4 32 L 504.4 32 A 13.936 13.936 0 0 1 504.127 30.398 Q 504 29.294 504 28 A 23.85 23.85 0 0 1 504.054 26.345 Q 504.147 25.013 504.4 24 L 497.4 24 Q 497.698 25.194 497.774 26.833 A 25.306 25.306 0 0 1 497.8 28 Q 497.8 29.968 497.507 31.496 A 12.311 12.311 0 0 1 497.4 32 L 494.4 32 A 11.741 11.741 0 0 1 494.644 33.313 Q 494.737 34.018 494.774 34.833 A 25.306 25.306 0 0 1 494.8 36 Q 494.8 37.968 494.507 39.496 A 12.311 12.311 0 0 1 494.4 40 A 11.741 11.741 0 0 1 494.644 41.313 Q 494.737 42.018 494.774 42.833 A 25.306 25.306 0 0 1 494.8 44 Q 494.8 45.968 494.507 47.496 A 12.311 12.311 0 0 1 494.4 48 L 500.4 48 Q 500.698 49.194 500.774 50.833 A 25.306 25.306 0 0 1 500.8 52 Q 500.8 53.968 500.507 55.496 A 12.311 12.311 0 0 1 500.4 56 L 480.4 56 A 13.936 13.936 0 0 1 480.127 54.398 Q 480 53.294 480 52 A 23.85 23.85 0 0 1 480.054 50.345 Q 480.147 49.013 480.4 48 L 486.4 48 A 13.936 13.936 0 0 1 486.127 46.398 Q 486 45.294 486 44 A 23.85 23.85 0 0 1 486.054 42.345 Q 486.147 41.013 486.4 40 A 13.936 13.936 0 0 1 486.127 38.398 Q 486 37.294 486 36 A 23.85 23.85 0 0 1 486.054 34.345 Q 486.147 33.013 486.4 32 A 13.936 13.936 0 0 1 486.127 30.398 Q 486 29.294 486 28 A 23.85 23.85 0 0 1 486.054 26.345 Q 486.147 25.013 486.4 24 L 480.4 24 A 13.936 13.936 0 0 1 480.127 22.398 Q 480 21.294 480 20 A 23.85 23.85 0 0 1 480.054 18.345 Q 480.147 17.013 480.4 16 L 490.4 16 A 11.741 11.741 0 0 1 490.644 17.313 Q 490.737 18.018 490.774 18.833 A 25.306 25.306 0 0 1 490.8 20 Q 490.8 21.968 490.507 23.496 A 12.311 12.311 0 0 1 490.4 24 L 494.4 24 A 13.936 13.936 0 0 1 494.127 22.398 Q 494 21.294 494 20 A 23.85 23.85 0 0 1 494.054 18.345 Q 494.147 17.013 494.4 16 L 509.4 16 A 11.741 11.741 0 0 1 509.644 17.313 Q 509.737 18.018 509.774 18.833 A 25.306 25.306 0 0 1 509.8 20 Q 509.8 21.968 509.507 23.496 A 12.311 12.311 0 0 1 509.4 24 L 512.4 24 Q 512.698 25.194 512.774 26.833 A 25.306 25.306 0 0 1 512.8 28 Q 512.8 29.968 512.507 31.496 A 12.311 12.311 0 0 1 512.4 32 Z M 352.4 40 L 331.4 40 A 11.741 11.741 0 0 1 331.644 41.313 Q 331.737 42.018 331.774 42.833 A 25.306 25.306 0 0 1 331.8 44 Q 331.8 45.968 331.507 47.496 A 12.311 12.311 0 0 1 331.4 48 L 348.4 48 A 11.741 11.741 0 0 1 348.644 49.313 Q 348.737 50.018 348.774 50.833 A 25.306 25.306 0 0 1 348.8 52 Q 348.8 53.968 348.507 55.496 A 12.311 12.311 0 0 1 348.4 56 L 328.4 56 A 13.936 13.936 0 0 1 328.127 54.398 Q 328 53.294 328 52 A 23.85 23.85 0 0 1 328.054 50.345 Q 328.147 49.013 328.4 48 L 323.4 48 A 13.936 13.936 0 0 1 323.127 46.398 Q 323 45.294 323 44 A 23.85 23.85 0 0 1 323.054 42.345 Q 323.147 41.013 323.4 40 L 320.4 40 A 13.936 13.936 0 0 1 320.127 38.398 Q 320 37.294 320 36 A 23.85 23.85 0 0 1 320.054 34.345 Q 320.147 33.013 320.4 32 L 323.4 32 A 13.936 13.936 0 0 1 323.127 30.398 Q 323 29.294 323 28 A 23.85 23.85 0 0 1 323.054 26.345 Q 323.147 25.013 323.4 24 L 328.4 24 A 13.936 13.936 0 0 1 328.127 22.398 Q 328 21.294 328 20 A 23.85 23.85 0 0 1 328.054 18.345 Q 328.147 17.013 328.4 16 L 348.4 16 A 11.741 11.741 0 0 1 348.644 17.313 Q 348.737 18.018 348.774 18.833 A 25.306 25.306 0 0 1 348.8 20 Q 348.8 21.968 348.507 23.496 A 12.311 12.311 0 0 1 348.4 24 L 352.4 24 Q 352.698 25.194 352.774 26.833 A 25.306 25.306 0 0 1 352.8 28 Q 352.8 29.968 352.507 31.496 A 12.311 12.311 0 0 1 352.4 32 Q 352.698 33.194 352.774 34.833 A 25.306 25.306 0 0 1 352.8 36 Q 352.8 37.968 352.507 39.496 A 12.311 12.311 0 0 1 352.4 40 Z M 100.4 48 L 106.4 48 Q 106.698 49.194 106.774 50.833 A 25.306 25.306 0 0 1 106.8 52 Q 106.8 53.968 106.507 55.496 A 12.311 12.311 0 0 1 106.4 56 L 86.4 56 A 13.936 13.936 0 0 1 86.127 54.398 Q 86 53.294 86 52 A 23.85 23.85 0 0 1 86.054 50.345 Q 86.147 49.013 86.4 48 L 92.4 48 A 13.936 13.936 0 0 1 92.127 46.398 Q 92 45.294 92 44 A 23.85 23.85 0 0 1 92.054 42.345 Q 92.147 41.013 92.4 40 A 13.936 13.936 0 0 1 92.127 38.398 Q 92 37.294 92 36 A 23.85 23.85 0 0 1 92.054 34.345 Q 92.147 33.013 92.4 32 A 13.936 13.936 0 0 1 92.127 30.398 Q 92 29.294 92 28 A 23.85 23.85 0 0 1 92.054 26.345 Q 92.147 25.013 92.4 24 A 13.936 13.936 0 0 1 92.127 22.398 Q 92 21.294 92 20 A 23.85 23.85 0 0 1 92.054 18.345 Q 92.147 17.013 92.4 16 A 13.936 13.936 0 0 1 92.127 14.398 Q 92 13.294 92 12 A 23.85 23.85 0 0 1 92.054 10.345 Q 92.147 9.013 92.4 8 L 86.4 8 A 13.936 13.936 0 0 1 86.127 6.398 Q 86 5.294 86 4 A 23.85 23.85 0 0 1 86.054 2.345 Q 86.147 1.013 86.4 0 L 106.4 0 Q 106.698 1.194 106.774 2.833 A 25.306 25.306 0 0 1 106.8 4 Q 106.8 5.968 106.507 7.496 A 12.311 12.311 0 0 1 106.4 8 L 100.4 8 Q 100.698 9.194 100.774 10.833 A 25.306 25.306 0 0 1 100.8 12 Q 100.8 13.968 100.507 15.496 A 12.311 12.311 0 0 1 100.4 16 Q 100.698 17.194 100.774 18.833 A 25.306 25.306 0 0 1 100.8 20 Q 100.8 21.968 100.507 23.496 A 12.311 12.311 0 0 1 100.4 24 Q 100.698 25.194 100.774 26.833 A 25.306 25.306 0 0 1 100.8 28 Q 100.8 29.968 100.507 31.496 A 12.311 12.311 0 0 1 100.4 32 Q 100.698 33.194 100.774 34.833 A 25.306 25.306 0 0 1 100.8 36 Q 100.8 37.968 100.507 39.496 A 12.311 12.311 0 0 1 100.4 40 Q 100.698 41.194 100.774 42.833 A 25.306 25.306 0 0 1 100.8 44 Q 100.8 45.968 100.507 47.496 A 12.311 12.311 0 0 1 100.4 48 Z M 272.4 8 L 260.4 8 Q 260.698 9.194 260.774 10.833 A 25.306 25.306 0 0 1 260.8 12 Q 260.8 13.968 260.507 15.496 A 12.311 12.311 0 0 1 260.4 16 Q 260.698 17.194 260.774 18.833 A 25.306 25.306 0 0 1 260.8 20 Q 260.8 21.968 260.507 23.496 A 12.311 12.311 0 0 1 260.4 24 Q 260.698 25.194 260.774 26.833 A 25.306 25.306 0 0 1 260.8 28 Q 260.8 29.968 260.507 31.496 A 12.311 12.311 0 0 1 260.4 32 Q 260.698 33.194 260.774 34.833 A 25.306 25.306 0 0 1 260.8 36 Q 260.8 37.968 260.507 39.496 A 12.311 12.311 0 0 1 260.4 40 Q 260.698 41.194 260.774 42.833 A 25.306 25.306 0 0 1 260.8 44 Q 260.8 45.968 260.507 47.496 A 12.311 12.311 0 0 1 260.4 48 Q 260.698 49.194 260.774 50.833 A 25.306 25.306 0 0 1 260.8 52 Q 260.8 53.968 260.507 55.496 A 12.311 12.311 0 0 1 260.4 56 L 252.4 56 A 13.936 13.936 0 0 1 252.127 54.398 Q 252 53.294 252 52 A 23.85 23.85 0 0 1 252.054 50.345 Q 252.147 49.013 252.4 48 A 13.936 13.936 0 0 1 252.127 46.398 Q 252 45.294 252 44 A 23.85 23.85 0 0 1 252.054 42.345 Q 252.147 41.013 252.4 40 A 13.936 13.936 0 0 1 252.127 38.398 Q 252 37.294 252 36 A 23.85 23.85 0 0 1 252.054 34.345 Q 252.147 33.013 252.4 32 A 13.936 13.936 0 0 1 252.127 30.398 Q 252 29.294 252 28 A 23.85 23.85 0 0 1 252.054 26.345 Q 252.147 25.013 252.4 24 A 13.936 13.936 0 0 1 252.127 22.398 Q 252 21.294 252 20 A 23.85 23.85 0 0 1 252.054 18.345 Q 252.147 17.013 252.4 16 A 13.936 13.936 0 0 1 252.127 14.398 Q 252 13.294 252 12 A 23.85 23.85 0 0 1 252.054 10.345 Q 252.147 9.013 252.4 8 L 240.4 8 A 13.936 13.936 0 0 1 240.127 6.398 Q 240 5.294 240 4 A 23.85 23.85 0 0 1 240.054 2.345 Q 240.147 1.013 240.4 0 L 272.4 0 Q 272.698 1.194 272.774 2.833 A 25.306 25.306 0 0 1 272.8 4 Q 272.8 5.968 272.507 7.496 A 12.311 12.311 0 0 1 272.4 8 Z M 548.4 56 L 524.4 56 A 13.936 13.936 0 0 1 524.127 54.398 Q 524 53.294 524 52 A 23.85 23.85 0 0 1 524.054 50.345 Q 524.147 49.013 524.4 48 L 532.4 48 A 13.936 13.936 0 0 1 532.127 46.398 Q 532 45.294 532 44 A 23.85 23.85 0 0 1 532.054 42.345 Q 532.147 41.013 532.4 40 A 13.936 13.936 0 0 1 532.127 38.398 Q 532 37.294 532 36 A 23.85 23.85 0 0 1 532.054 34.345 Q 532.147 33.013 532.4 32 A 13.936 13.936 0 0 1 532.127 30.398 Q 532 29.294 532 28 A 23.85 23.85 0 0 1 532.054 26.345 Q 532.147 25.013 532.4 24 A 13.936 13.936 0 0 1 532.127 22.398 Q 532 21.294 532 20 A 23.85 23.85 0 0 1 532.054 18.345 Q 532.147 17.013 532.4 16 A 13.936 13.936 0 0 1 532.127 14.398 Q 532 13.294 532 12 A 23.85 23.85 0 0 1 532.054 10.345 Q 532.147 9.013 532.4 8 L 526.4 8 A 13.936 13.936 0 0 1 526.127 6.398 Q 526 5.294 526 4 A 23.85 23.85 0 0 1 526.054 2.345 Q 526.147 1.013 526.4 0 L 540.4 0 Q 540.698 1.194 540.774 2.833 A 25.306 25.306 0 0 1 540.8 4 Q 540.8 5.968 540.507 7.496 A 12.311 12.311 0 0 1 540.4 8 Q 540.698 9.194 540.774 10.833 A 25.306 25.306 0 0 1 540.8 12 Q 540.8 13.968 540.507 15.496 A 12.311 12.311 0 0 1 540.4 16 Q 540.698 17.194 540.774 18.833 A 25.306 25.306 0 0 1 540.8 20 Q 540.8 21.968 540.507 23.496 A 12.311 12.311 0 0 1 540.4 24 Q 540.698 25.194 540.774 26.833 A 25.306 25.306 0 0 1 540.8 28 Q 540.8 29.968 540.507 31.496 A 12.311 12.311 0 0 1 540.4 32 Q 540.698 33.194 540.774 34.833 A 25.306 25.306 0 0 1 540.8 36 Q 540.8 37.968 540.507 39.496 A 12.311 12.311 0 0 1 540.4 40 Q 540.698 41.194 540.774 42.833 A 25.306 25.306 0 0 1 540.8 44 Q 540.8 45.968 540.507 47.496 A 12.311 12.311 0 0 1 540.4 48 L 548.4 48 A 11.741 11.741 0 0 1 548.644 49.313 Q 548.737 50.018 548.774 50.833 A 25.306 25.306 0 0 1 548.8 52 Q 548.8 53.968 548.507 55.496 A 12.311 12.311 0 0 1 548.4 56 Z M 472.4 40 L 469.4 40 A 11.741 11.741 0 0 1 469.644 41.313 Q 469.737 42.018 469.774 42.833 A 25.306 25.306 0 0 1 469.8 44 Q 469.8 45.968 469.507 47.496 A 12.311 12.311 0 0 1 469.4 48 L 464.4 48 Q 464.698 49.194 464.774 50.833 A 25.306 25.306 0 0 1 464.8 52 Q 464.8 53.968 464.507 55.496 A 12.311 12.311 0 0 1 464.4 56 L 448.4 56 A 13.936 13.936 0 0 1 448.127 54.398 Q 448 53.294 448 52 A 23.85 23.85 0 0 1 448.054 50.345 Q 448.147 49.013 448.4 48 L 443.4 48 A 13.936 13.936 0 0 1 443.127 46.398 Q 443 45.294 443 44 A 23.85 23.85 0 0 1 443.054 42.345 Q 443.147 41.013 443.4 40 L 440.4 40 A 13.936 13.936 0 0 1 440.127 38.398 Q 440 37.294 440 36 A 23.85 23.85 0 0 1 440.054 34.345 Q 440.147 33.013 440.4 32 L 443.4 32 A 13.936 13.936 0 0 1 443.127 30.398 Q 443 29.294 443 28 A 23.85 23.85 0 0 1 443.054 26.345 Q 443.147 25.013 443.4 24 L 448.4 24 A 13.936 13.936 0 0 1 448.127 22.398 Q 448 21.294 448 20 A 23.85 23.85 0 0 1 448.054 18.345 Q 448.147 17.013 448.4 16 L 464.4 16 Q 464.698 17.194 464.774 18.833 A 25.306 25.306 0 0 1 464.8 20 Q 464.8 21.968 464.507 23.496 A 12.311 12.311 0 0 1 464.4 24 L 469.4 24 A 11.741 11.741 0 0 1 469.644 25.313 Q 469.737 26.018 469.774 26.833 A 25.306 25.306 0 0 1 469.8 28 Q 469.8 29.968 469.507 31.496 A 12.311 12.311 0 0 1 469.4 32 L 472.4 32 Q 472.698 33.194 472.774 34.833 A 25.306 25.306 0 0 1 472.8 36 Q 472.8 37.968 472.507 39.496 A 12.311 12.311 0 0 1 472.4 40 Z M 579.4 24 L 569.4 24 A 11.741 11.741 0 0 1 569.644 25.313 Q 569.737 26.018 569.774 26.833 A 25.306 25.306 0 0 1 569.8 28 Q 569.8 29.968 569.507 31.496 A 12.311 12.311 0 0 1 569.4 32 L 566.4 32 A 11.741 11.741 0 0 1 566.644 33.313 Q 566.737 34.018 566.774 34.833 A 25.306 25.306 0 0 1 566.8 36 Q 566.8 37.968 566.507 39.496 A 12.311 12.311 0 0 1 566.4 40 L 569.4 40 A 11.741 11.741 0 0 1 569.644 41.313 Q 569.737 42.018 569.774 42.833 A 25.306 25.306 0 0 1 569.8 44 Q 569.8 45.968 569.507 47.496 A 12.311 12.311 0 0 1 569.4 48 L 579.4 48 Q 579.698 49.194 579.774 50.833 A 25.306 25.306 0 0 1 579.8 52 Q 579.8 53.968 579.507 55.496 A 12.311 12.311 0 0 1 579.4 56 L 568.4 56 A 13.936 13.936 0 0 1 568.127 54.398 Q 568 53.294 568 52 A 23.85 23.85 0 0 1 568.054 50.345 Q 568.147 49.013 568.4 48 L 563.4 48 A 13.936 13.936 0 0 1 563.127 46.398 Q 563 45.294 563 44 A 23.85 23.85 0 0 1 563.054 42.345 Q 563.147 41.013 563.4 40 L 560.4 40 A 13.936 13.936 0 0 1 560.127 38.398 Q 560 37.294 560 36 A 23.85 23.85 0 0 1 560.054 34.345 Q 560.147 33.013 560.4 32 L 563.4 32 A 13.936 13.936 0 0 1 563.127 30.398 Q 563 29.294 563 28 A 23.85 23.85 0 0 1 563.054 26.345 Q 563.147 25.013 563.4 24 L 568.4 24 A 13.936 13.936 0 0 1 568.127 22.398 Q 568 21.294 568 20 A 23.85 23.85 0 0 1 568.054 18.345 Q 568.147 17.013 568.4 16 L 579.4 16 Q 579.698 17.194 579.774 18.833 A 25.306 25.306 0 0 1 579.8 20 Q 579.8 21.968 579.507 23.496 A 12.311 12.311 0 0 1 579.4 24 Z M 592.4 56 L 584.4 56 A 13.936 13.936 0 0 1 584.127 54.398 Q 584 53.294 584 52 A 23.85 23.85 0 0 1 584.054 50.345 Q 584.147 49.013 584.4 48 L 581.4 48 A 13.936 13.936 0 0 1 581.127 46.398 Q 581 45.294 581 44 A 23.85 23.85 0 0 1 581.054 42.345 Q 581.147 41.013 581.4 40 L 584.4 40 A 13.936 13.936 0 0 1 584.127 38.398 Q 584 37.294 584 36 A 23.85 23.85 0 0 1 584.054 34.345 Q 584.147 33.013 584.4 32 L 581.4 32 A 13.936 13.936 0 0 1 581.127 30.398 Q 581 29.294 581 28 A 23.85 23.85 0 0 1 581.054 26.345 Q 581.147 25.013 581.4 24 L 584.4 24 A 13.936 13.936 0 0 1 584.127 22.398 Q 584 21.294 584 20 A 23.85 23.85 0 0 1 584.054 18.345 Q 584.147 17.013 584.4 16 A 13.936 13.936 0 0 1 584.127 14.398 Q 584 13.294 584 12 A 23.85 23.85 0 0 1 584.054 10.345 Q 584.147 9.013 584.4 8 A 13.936 13.936 0 0 1 584.127 6.398 Q 584 5.294 584 4 A 23.85 23.85 0 0 1 584.054 2.345 Q 584.147 1.013 584.4 0 L 592.4 0 Q 592.698 1.194 592.774 2.833 A 25.306 25.306 0 0 1 592.8 4 Q 592.8 5.968 592.507 7.496 A 12.311 12.311 0 0 1 592.4 8 Q 592.698 9.194 592.774 10.833 A 25.306 25.306 0 0 1 592.8 12 Q 592.8 13.968 592.507 15.496 A 12.311 12.311 0 0 1 592.4 16 Q 592.698 17.194 592.774 18.833 A 25.306 25.306 0 0 1 592.8 20 Q 592.8 21.968 592.507 23.496 A 12.311 12.311 0 0 1 592.4 24 Q 592.698 25.194 592.774 26.833 A 25.306 25.306 0 0 1 592.8 28 Q 592.8 29.968 592.507 31.496 A 12.311 12.311 0 0 1 592.4 32 Q 592.698 33.194 592.774 34.833 A 25.306 25.306 0 0 1 592.8 36 Q 592.8 37.968 592.507 39.496 A 12.311 12.311 0 0 1 592.4 40 Q 592.698 41.194 592.774 42.833 A 25.306 25.306 0 0 1 592.8 44 Q 592.8 45.968 592.507 47.496 A 12.311 12.311 0 0 1 592.4 48 Q 592.698 49.194 592.774 50.833 A 25.306 25.306 0 0 1 592.8 52 Q 592.8 53.968 592.507 55.496 A 12.311 12.311 0 0 1 592.4 56 Z M 461.4 40 L 464.4 40 A 13.936 13.936 0 0 1 464.127 38.398 Q 464 37.294 464 36 A 23.85 23.85 0 0 1 464.054 34.345 Q 464.147 33.013 464.4 32 L 461.4 32 A 13.936 13.936 0 0 1 461.127 30.398 Q 461 29.294 461 28 A 23.85 23.85 0 0 1 461.054 26.345 Q 461.147 25.013 461.4 24 L 451.4 24 A 11.741 11.741 0 0 1 451.644 25.313 Q 451.737 26.018 451.774 26.833 A 25.306 25.306 0 0 1 451.8 28 Q 451.8 29.968 451.507 31.496 A 12.311 12.311 0 0 1 451.4 32 L 448.4 32 A 11.741 11.741 0 0 1 448.644 33.313 Q 448.737 34.018 448.774 34.833 A 25.306 25.306 0 0 1 448.8 36 Q 448.8 37.968 448.507 39.496 A 12.311 12.311 0 0 1 448.4 40 L 451.4 40 A 11.741 11.741 0 0 1 451.644 41.313 Q 451.737 42.018 451.774 42.833 A 25.306 25.306 0 0 1 451.8 44 Q 451.8 45.968 451.507 47.496 A 12.311 12.311 0 0 1 451.4 48 L 461.4 48 A 13.936 13.936 0 0 1 461.127 46.398 Q 461 45.294 461 44 A 23.85 23.85 0 0 1 461.054 42.345 Q 461.147 41.013 461.4 40 Z M 166.4 24 L 186.4 24 Q 186.698 25.194 186.774 26.833 A 25.306 25.306 0 0 1 186.8 28 Q 186.8 29.968 186.507 31.496 A 12.311 12.311 0 0 1 186.4 32 L 166.4 32 A 13.936 13.936 0 0 1 166.127 30.398 Q 166 29.294 166 28 A 23.85 23.85 0 0 1 166.054 26.345 Q 166.147 25.013 166.4 24 Z M 344.4 24 L 331.4 24 A 11.741 11.741 0 0 1 331.644 25.313 Q 331.737 26.018 331.774 26.833 A 25.306 25.306 0 0 1 331.8 28 Q 331.8 29.968 331.507 31.496 A 12.311 12.311 0 0 1 331.4 32 L 344.4 32 A 13.936 13.936 0 0 1 344.127 30.398 Q 344 29.294 344 28 A 23.85 23.85 0 0 1 344.054 26.345 Q 344.147 25.013 344.4 24 Z" vector-effect="non-scaling-stroke"/></g></svg>